<?xml version="1.0" encoding="UTF-8"?>
<svg id="Calque_2" data-name="Calque 2" xmlns="http://www.w3.org/2000/svg" viewBox="0 0 1051.34 866.66">
  <defs>
    <style>
      .cls-1 {
        fill: #c1ffa1;
      }

      .cls-2 {
        fill: #549b37;
      }

      .cls-3 {
        fill: #fc0;
      }

      .cls-4 {
        fill: #223a17;
      }
    </style>
  </defs>
  <g id="Calque_2-2" data-name="Calque 2">
    <path class="cls-2" d="m213.27,246.04c49.5,97.98,61.74,119.8,86,159,23.8,38.45,121.07,74.11,158.04,84.05,36.97,9.94,63.35,3.88,121.56,21.87,69.4,21.44,103.2,75.99,169.13,117.48,65.92,41.5,145.59-7.41,181.22-18.57s95.74-50.02,95.74-50.02c0,0,60.64-48.96-1.93,36.89s-114.75,107.16-170.69,132.99c-55.94,25.83-141.76,20.92-141.76,20.92,0,0-3.73,17.83-4.61,30.8-3.95,57.74,27.74,61.5,15.31,84.29-.8,1.46-55.05.96-76.03-.13-20.97-1.1-6.59-22.59-2.5-43.4,4.09-20.81-38.07-57.06-38.07-57.06,0,0-63.06,18.74-129.23,20.28-66.17,1.55-122.82-44.92-122.82-44.92,0,0-11.9,41.54-13.42,51.48-1.52,9.93,13.55,52.29,5.31,60.17-4.63,4.43-27.13,4.24-44.12,3.76-7.68-.22-51.13,3.81-48.94-9.28,2.19-13.09,30.53-57.3,31.52-76.28.99-18.97-26.84-99.54-34.47-125.97-7.63-26.43-8.76-100.59-8.76-100.59,0,0,.15-2.81.06-8.23-.41-25.58-5.16-50.9-13.9-74.94-13.42-26.93-26.94-61-35.61-101.59-3.31-15.49-5.54-30.23-7-44"/>
    <path class="cls-2" d="m80.53,190.55c2.71,1.09,5.59,1.69,8.51,1.78,30.18.93,66.24-15.3,66.24-15.3,0,0,16.41,79.52,16.71,80.26.24.61,13.37,75.76,17.83,101.33.77,4.39,5.31,7.02,9.5,5.51l90.96,28.89-18-44c-9-24-13-55-18-97s-5.57-109.99-13-142.24c-11-47.76-40-93.76-81-97.76s-47,5-58,17-22,36-33,46S10.27,114.04,6.27,128.04s-13.7,30.17,4,40c18,10,50,11,50,11,0,0,54-29,65-40l11-11s-7,25-29,37-37,21-37,21"/>
    <path class="cls-4" d="m117.27,14.04C121.16,7.2,127.74.77,136.03.05c11.77-.8,21.68,7.8,26.92,17.62,3,5.43,5.18,11.29,6.32,17.36-2.28-5.68-5.09-11.09-8.46-16.03-5.66-8.35-14.11-15.62-24.57-14.96-7.23.75-13.15,5.81-18.97,10h0Z"/>
    <path class="cls-4" d="m352.61,740.52c5.11-11.22,7.77-23.31,9.74-35.4,1.38-8.99,2.23-18.31,2.55-27.41.25-5.92.26-12.42.1-18.37-.69-21.59-1.61-43.18-1.23-64.8,2.18,18.43,3.52,36.9,4.71,55.39.53,9.24.86,18.7.32,27.95-1.05,20.65-5.21,44.86-16.19,62.64h0Z"/>
    <path class="cls-4" d="m604.67,765.15c-10.65-10.61-18.57-24.16-21.88-38.95-1.69-7.47-1.29-15.21.06-22.7,1.08-7.35,2.3-14.68,3.92-21.96.03,9.33-.5,18.58-1.22,27.85-1.35,20.27,8.55,39.06,19.12,55.77h0Z"/>
    <path class="cls-4" d="m710.57,750.66c3.46-12.34,4.99-25.21,4.61-37.98-.63-12.91-2.88-25.66-2.91-38.64,1.74,6.3,3.09,12.66,4.3,19.04,1.23,6.43,2.4,12.91,2.61,19.48.28,13.1-2.08,26.64-8.61,38.11h0Z"/>
    <path class="cls-4" d="m313.27,423.04s6.69,48.79,12.6,87.65-4.9,55.09,0,56.47,20.9-5.62,27.9-30.62,14-69,13-76l-1-7s-30.17-15.55-38.59-21.27-13.91-9.23-13.91-9.23Z"/>
    <path class="cls-4" d="m404.29,471.07s22.48,28.46,21.48,66.46-3.94,54,.03,53,23.14-29.42,27.06-59.71,6.68-42.01,6.68-42.01c0,0-16.94-3.76-23.35-5.52s-31.9-12.22-31.9-12.22Z"/>
    <path class="cls-4" d="m491.51,495.09s20.26,39.45,17.26,59.45-11.95,44.88-8.48,45.44,24.48-18.44,33.48-54.44,9.74-43.6,9.74-43.6c0,0-19.67-3.7-21.71-3.55s-30.29-3.29-30.29-3.29Z"/>
    <path class="cls-4" d="m561.08,505.92s6.69,44.61,2.69,65.61-4.38,35.18-2.69,34.09,10.69-6.09,17.69-16.09,17-40,20-47c1.67-3.9,13.14-17.78,13.14-17.78,0,0-13.05-6.34-24.09-10.78s-26.74-8.05-26.74-8.05Z"/>
    <path class="cls-4" d="m625.75,532.81s.02,41.73-2.98,51.73-14.72,27.71-10.86,28.85,20.86-10.85,23.86-14.85,18-28,20-30,5.29-9.45,5.29-9.45l-18.92-15-16.39-11.28Z"/>
    <path class="cls-4" d="m681.62,576.77s-.85,21.76-5.85,26.76-10.71,8.86-8.85,9.93,9.85-.93,17.85-4.93,16.04-15.21,16.04-15.21l-19.19-16.55Z"/>
    <path class="cls-4" d="m720.29,609.05s-2.92,11.89-9.72,16.69-10.72,8.15-9.76,8.47,14.96,4.32,21.96.32,14.23-13.33,14.23-13.33l-16.72-12.16Z"/>
    <path class="cls-4" d="m750.45,629.94s-1.68,10.6-6.68,12.6,4,8,11,2,8.26-8.23,8.26-8.23l-12.59-6.37Z"/>
    <path class="cls-4" d="m777.58,641.23s.19,10.3-1.81,11.3,8.59-2.3,10.79-5.65l2.21-3.35-11.19-2.3Z"/>
    <path class="cls-4" d="m797.88,644.53s1.11,5.37,0,8.19,6.19-3.3,7.04-5.74l.85-2.44h-7.89Z"/>
    <g>
      <circle class="cls-1" cx="132.77" cy="57.54" r="15.5"/>
      <circle class="cls-4" cx="132.77" cy="57.54" r="10.5"/>
    </g>
    <polygon class="cls-3" points="119.9 43.97 132.99 17.48 146.05 43.98 175.29 48.24 154.12 68.86 159.11 97.98 132.96 84.22 106.81 97.95 111.81 68.84 90.66 48.21 119.9 43.97"/>
  </g>
</svg>