<?xml version="1.0" encoding="UTF-8"?>
<svg id="Calque_2" data-name="Calque 2" xmlns="http://www.w3.org/2000/svg" viewBox="0 0 1194.21 667.7">
  <defs>
    <style>
      .cls-1 {
        fill: #c1ffa1;
      }

      .cls-2 {
        fill: #73e5ff;
      }

      .cls-3 {
        fill: #549b37;
      }

      .cls-4 {
        fill: #223a17;
      }
    </style>
  </defs>
  <g id="Calque_2-2" data-name="Calque 2">
    <path class="cls-3" d="m1167.83,360.9s-60.11,38.86-95.74,50.02c-35.63,11.16-115.29,60.07-181.22,18.57-65.92-41.5-99.73-96.04-169.13-117.48-58.21-17.99-84.59-11.93-121.56-21.87-36.97-9.94-121.39-50.48-145.63-88.65-28.09-44.22-68.03-108.29-147.8-158.06-26.1-16.29-52.73-26.13-78.22-31.69v-.05s-103.21-23.85-152.36-3.4C27.02,28.73-.98,39.23.03,101.51c.73,45.27,34.05,43.41,55.49,71.56,21.44,28.15,35.29,51.56,35.29,51.56,0,0,18.26,29.86,37.41,18.62,19.15-11.24,25.67-58.84,25.67-58.84,0,0,12.47,6.21,14.5-25.75,2.03-31.95-12.96-64.85-12.96-64.85l65.27-6.73.91.42c97.03,1.52,152.11,166.88,156.92,201.06,5.11,36.32,4.07,56.29,4.07,56.29,0,0,1.13,74.16,8.76,100.59,7.63,26.43,35.47,107,34.47,125.97-.99,18.97-29.34,63.19-31.52,76.28-2.19,13.09,41.26,9.06,48.94,9.28,16.99.48,39.49.67,44.12-3.76,8.24-7.88-6.83-50.24-5.31-60.17,1.52-9.93,13.42-51.48,13.42-51.48,0,0,56.65,46.47,122.82,44.92,66.17-1.55,129.23-20.28,129.23-20.28,0,0,42.17,36.25,38.07,57.06-4.09,20.81-18.47,42.3,2.5,43.4,20.97,1.1,75.23,1.6,76.03.13,12.42-22.8-19.26-26.55-15.31-84.29.89-12.97,4.61-30.8,4.61-30.8,0,0,85.82,4.91,141.76-20.92,55.94-25.83,108.13-47.13,170.69-132.99,62.56-85.85,1.93-36.89,1.93-36.89Z"/>
    <path class="cls-4" d="m24.83,105.77c-.46-7.81,1.45-16.82,7.73-22.05,1.18-.83,2.59-1.59,3.89-2.12,5.08-2.16,10.6-3.4,16.12-3.16-3.37,1.45-6.63,2.81-9.81,4.28-2.65,1.27-5.37,2.48-7.77,4.15-5.42,4.9-7.39,12.22-10.16,18.9h0Z"/>
    <g>
      <path class="cls-1" d="m50.34,106.3c-.04,5.8,1.32,12.07,2.31,15.84-.51-.06-2.18.26-3.31.18-7.99-.5-14.07-7.38-13.57-15.37s7.38-14.07,15.37-13.57c1.23.08,2.4.32,3.52.68-1.86,2.43-4.28,6.65-4.32,12.24Z"/>
      <path class="cls-4" d="m49.94,106.16c-.07,4.4.54,9.33,1.14,12.18-.33-.04-1.17.04-1.89,0-5.08-.32-8.89-5.49-8.52-11.56s4.8-10.73,9.88-10.42c.78.05,1.52.22,2.23.49-1.2,1.86-2.77,5.08-2.84,9.32Z"/>
    </g>
    <path class="cls-2" d="m53.1,126.16s-4.71,16.55-1.35,21.43,10.53,7.51,12.55,1.93c1.08-2.99-.86-8.13-2.89-12.26-1.84-3.74-4.32-7.12-7.27-10.07l-1.04-1.04Z"/>
    <path class="cls-3" d="m52.58,123.43s-3.49-5.82-2.96-15.59,2.53-9.77,5.53-14.77.24,25.27.24,25.27l-2.24,5.73-.57-.65Z"/>
    <path class="cls-4" d="m154.1,184.9c-3.71-12.27-7.09-24.63-9.85-37.15-2.52-12.5-6.03-26.6.08-38.66.59-1.11,2.25-1.52,3.2-.55.8.76.83,2.03.07,2.83.11-.13.02-.02,0,0,0,0-.11.15-.11.15-5.81,11.1-3.05,24-1.33,35.87,2.12,12.6,4.86,25.11,7.94,37.52h0Z"/>
    <path class="cls-4" d="m495.48,541.56c5.11-11.22,7.77-23.31,9.74-35.4,1.38-8.99,2.23-18.31,2.55-27.41.25-5.92.26-12.42.1-18.37-.69-21.59-1.61-43.18-1.23-64.8,2.18,18.43,3.52,36.9,4.71,55.39.53,9.24.86,18.7.32,27.95-1.05,20.65-5.21,44.86-16.19,62.64h0Z"/>
    <path class="cls-4" d="m747.54,566.19c-10.65-10.61-18.57-24.16-21.88-38.95-1.69-7.47-1.29-15.21.06-22.7,1.08-7.35,2.3-14.68,3.92-21.96.03,9.33-.5,18.58-1.22,27.85-1.35,20.27,8.55,39.06,19.12,55.77h0Z"/>
    <path class="cls-4" d="m853.44,551.7c3.46-12.34,4.99-25.21,4.61-37.98-.63-12.91-2.88-25.66-2.91-38.64,1.74,6.3,3.09,12.66,4.3,19.04,1.23,6.43,2.4,12.91,2.61,19.48.28,13.1-2.08,26.64-8.61,38.11h0Z"/>
    <path class="cls-4" d="m490.14,236.08s6.69,48.79,12.6,87.65-4.9,55.09,0,56.47,20.9-5.62,27.9-30.62,14-69,13-76l-1-7s-30.17-15.55-38.59-21.27-13.91-9.23-13.91-9.23Z"/>
    <path class="cls-4" d="m562.17,276.11s22.48,28.46,21.48,66.46-3.94,54,.03,53,23.14-29.42,27.06-59.71,6.68-42.01,6.68-42.01c0,0-16.94-3.76-23.35-5.52s-31.9-12.22-31.9-12.22Z"/>
    <path class="cls-4" d="m634.39,296.13s20.26,39.45,17.26,59.45-11.95,44.88-8.48,45.44,24.48-18.44,33.48-54.44,9.74-43.6,9.74-43.6c0,0-19.67-3.7-21.71-3.55s-30.29-3.29-30.29-3.29Z"/>
    <path class="cls-4" d="m703.95,306.97s6.69,44.61,2.69,65.61-4.38,35.18-2.69,34.09,10.69-6.09,17.69-16.09,17-40,20-47c1.67-3.9,13.14-17.78,13.14-17.78,0,0-13.05-6.34-24.09-10.78s-26.74-8.05-26.74-8.05Z"/>
    <path class="cls-4" d="m768.62,333.85s.02,41.73-2.98,51.73-14.72,27.71-10.86,28.85,20.86-10.85,23.86-14.85,18-28,20-30,5.29-9.45,5.29-9.45l-18.92-15-16.39-11.28Z"/>
    <path class="cls-4" d="m824.49,377.82s-.85,21.76-5.85,26.76-10.71,8.86-8.85,9.93,9.85-.93,17.85-4.93,16.04-15.21,16.04-15.21l-19.19-16.55Z"/>
    <path class="cls-4" d="m863.16,410.1s-2.92,11.89-9.72,16.69-10.72,8.15-9.76,8.47,14.96,4.32,21.96.32,14.23-13.33,14.23-13.33l-16.72-12.16Z"/>
    <path class="cls-4" d="m893.32,430.98s-1.68,10.6-6.68,12.6,4,8,11,2,8.26-8.23,8.26-8.23l-12.59-6.37Z"/>
    <path class="cls-4" d="m920.45,442.27s.19,10.3-1.81,11.3,8.59-2.3,10.79-5.65l2.21-3.35-11.19-2.3Z"/>
    <path class="cls-4" d="m940.75,445.57s1.11,5.37,0,8.19,6.19-3.3,7.04-5.74l.85-2.44h-7.89Z"/>
  </g>
</svg>