<?xml version="1.0" encoding="UTF-8"?>
<svg id="Calque_2" data-name="Calque 2" xmlns="http://www.w3.org/2000/svg" viewBox="0 0 1039.63 710.27">
  <defs>
    <style>
      .cls-1 {
        fill: #fff;
      }

      .cls-2 {
        fill: #80ce5f;
      }

      .cls-3 {
        fill: #8ef24e;
      }

      .cls-4 {
        fill: #6bb250;
      }

      .cls-5 {
        fill: #223a17;
      }

      .cls-6 {
        fill: #538240;
      }

      .cls-7 {
        fill: #ff0;
      }
    </style>
  </defs>
  <g id="Calque_3" data-name="Calque 3">
    <polygon class="cls-7" points="183.95 143.8 126.37 129.82 82.21 169.33 77.71 110.25 26.49 80.46 81.29 57.92 93.8 0 132.16 45.16 191.11 39.15 160.02 89.59 183.95 143.8"/>
    <polygon class="cls-5" points="186.46 275.01 165.06 375.39 203.46 366.85 249 264.81 232.5 145.75 194.5 207.75 186.46 275.01"/>
    <path class="cls-1" d="m53.84,332.99s15.16,27.26,22.16,30.26,2.94-25.64,2.94-25.64c0,0,15.35,25.08,19.2,25.86s5.35-24.72,5.35-24.72c0,0,19.68,24.98,23.59,24.74s3.44-28.3,3.44-28.3c0,0,18.47,13.06,23.47,11.06s0-24.5,0-24.5c0,0,10,7.5,17,6.5l7-1-5.47-16.51s12.47,9.51,16.47,8.51-3.83-23.33-3.83-23.33l-63.18,30.77-68.15-1.41v7.71Z"/>
    <path class="cls-1" d="m164.94,378.93s-7.94-21.68-6.94-23.68,22.46,17.97,22.46,17.97c0,0-6.99-25.36-5.72-25.66s28.16,9.42,28.16,9.42c0,0-9.89-24.72-8.89-25.72s26.74-1.55,26.74-1.55c0,0-14.74-18.45-14.74-19.45s24.16-2.59,24.16-2.59c0,0-15.63-10.07-15.9-11.74s21.74-9.66,21.74-9.66c0,0-19.83-9.74-18.91-9.87s18.91-8.52,18.91-8.52c0,0-15-6.62-14-9.62s15.58-11.32,15.58-11.32l3.42,17.32,8,23-11.39,39.79-44.52,51.88-22.09,4.32-6.06-4.32Z"/>
    <g>
      <path class="cls-4" d="m1005.5,101.75c-55-10-115,6-212.06,39.68s-167.94,105.32-167.94,105.32c0,0-88-7-116-3s-46,24-46,24c0,0-9-7-15.94-11s-22.59,0-22.59,0c0,0,1.53-4-18.47-62s-38-114-78-154-168-24-193-13-51,102-63,112-56,42-56,42c-8,21-1,34,0,56.71s13,80.29,13,80.29c0,0,10,20,74,20s89-55,89-55c0,0-.25.59-.7,1.69,1.76-2.9,5.39-9.13,9.54-17.57,5.83-11.88,16.17-51.12,16.17-58.12s6-49,6-49c0,0,7-3,10,4s5,87,3.71,111.64c-1.29,24.64-18.71,65.36-37.41,83.87s-34.73,15.13-34.73,15.13c0,0,9.04-41.36,11.25-48.1-8.99,27.47-16.57,58.96-6.81,65.46,18,12,48-16,79-54s45-40,45-40c0,0,44,111,62,143s34,58,125,85,141-3,166-16,47-52,66-85,98-145,144-200,176-110,176-110c0,0,28-4-27-14Z"/>
      <path class="cls-4" d="m186.46,298.87c-2.97,7.72-6.64,17.71-10.11,28.3,1.33-3.96,6.38-17.99,10.11-28.3Z"/>
      <g>
        <path class="cls-5" d="m419.77,603.78s-11.27,11.97-7.27,30.97,32-12,32-12l-5-24h-17.59l-2.14,5.03"/>
        <path class="cls-5" d="m377.47,579.17s-24.26,23.71-25.12,29.65,41.15-13.06,41.15-13.06v-15.18l-16.03-1.41Z"/>
        <path class="cls-5" d="m393.5,595.75s-13.06,11.12-16.03,17.06-3.97,13.94-1.97,15.94,21.12-2.95,24.06-3.97,18.2-20.62,18.2-20.62l2.74-9.6-15-6.81-12,8Z"/>
      </g>
      <g>
        <path class="cls-5" d="m517.03,649.68s-18.53,4.07-26.53,13.07-4,19-4,19c0,0,23.07-3.53,30.53-7.76s16.47-15.24,16.47-15.24v-7.59l-16.47-1.48Z"/>
        <path class="cls-5" d="m529,664.25s-16.5,20.32-19.5,30.91,0,8.71,0,8.71c0,0,25-1.12,31-9.12s13.5-21.5,13.5-21.5v-9l-17.5-5.5-7.5,5.5Z"/>
        <path class="cls-5" d="m555.5,670.93s-8,14.82-8,25.82,3,13.94,4,13.47,24.04-8.06,28.52-11.76,8.95-13.88,8.95-13.88l-16.48-22.82-17,9.18Z"/>
      </g>
    </g>
    <path class="cls-4" d="m389.09,484.9s16,33.94,26.7,43.9,12.28,10.37,12.28,10.37c0,0-2.57,21.59-12.57,27.59s-31,10-35,11-3.03,1.41-3.03,1.41c0,0,10.03,2.59,12.03,4.59s4,12,4,12c0,0,10-4,13-1s9,10,9,10c0,0,17.06-5,20.53,0s6.56,20.03,6.56,20.03c0,0,23.91-12.03,27.91-18.03s10-15,10-26-2-15,1-18,8-7,8-14-1.79-19.96-1.79-19.96l-95.21-47.04-3.41,3.15Z"/>
    <path class="cls-3" d="m509.5,484.75c-6.53,23.82,11.08,50.81,11.08,50.81,0,0-4.08,2.19-63.08-16.15-66.09-20.55-85-49.66-98.66-71.78s-45.45-99.88-45.45-99.88c0,0,55.64-1.99,74.88,7.01s68.24,50,90.24,63,41,23.91,41,23.91"/>
    <path class="cls-2" d="m386.85,441.66s40.65-17.67,44.65-27.79,12-65.12,11-75.12-11-17-11-17c-6,0-18,5-20,14s-1.71,67.6-1.71,67.6c0,0-19.54,11.52-31.42,21.46s-27.88,18.94-27.88,27.94,2,23,2,23h12.82l1.18-27,3,29h15.94s.04-23.59-.52-36.09c-.11-2.51-.25-4.57-.42-5.91"/>
    <path class="cls-6" d="m330.61,388.56s-21.11,21.19-25.11,23.19-22,11-23,18,1,22,3,26,13.47,0,13.47,0c0,0-3.47-16-3.47-20s6,25,6,25h11.89s-.89-21,2.11-27,25.06-22.64,25.06-22.64"/>
    <path class="cls-5" d="m284.67,453.47s5.83,24.28,8.83,26.28,5.21-25.23,5.21-25.23"/>
    <path class="cls-5" d="m301.5,460.75s4.79,17.21,9.89,19.11,1.95-20.23,1.95-20.23"/>
    <path class="cls-5" d="m352.35,474.68s6.15,23.07,9.15,26.07,3.82-25,3.82-25"/>
    <path class="cls-5" d="m369.5,477.75s11,22,13,24,2.94-24,2.94-24"/>
    <path class="cls-5" d="m287.8,20.95s3.2,31.31,2.2,34.31,15.73-28.7,15.73-28.7l-17.93-5.6Z"/>
    <path class="cls-5" d="m329.82,42.09s-4.82,49.16-2.82,53.16,19.62-33.44,19.62-33.44l-16.8-19.72Z"/>
    <path class="cls-5" d="m363.5,88.14s-14.5,42.11-13.5,44.11,23.85-23.75,23.85-23.75l-10.35-20.36Z"/>
    <path class="cls-5" d="m387.32,140.65s-17.32,44.6-19.32,46.6,27.38-24.59,27.38-24.59l-8.06-22.01Z"/>
    <path class="cls-5" d="m403.96,187.36s-15.96,43.89-24.96,52.89,35.61-21.4,35.61-21.4l-10.65-31.49Z"/>
    <path class="cls-5" d="m420.31,237.07s-21.55,35.3-24.93,37.74,29.59-18.06,29.59-18.06l-4.66-19.69Z"/>
    <path class="cls-5" d="m439.78,255s-4.78,43.26-5.78,46.26,23.5-37.96,23.5-37.96l-17.71-8.3Z"/>
    <path class="cls-5" d="m479.45,255s18.55,21.26,22.55,31.26l4,10,3.5-52.5-30.05,11.24Z"/>
    <path class="cls-5" d="m517.09,241.92s21.2,28.57,26.05,39.95,4.86,8.38,4.86,8.38l2.27-47.54-33.18-.79Z"/>
    <path class="cls-5" d="m569.32,243.36s10.68,22.9,14.68,36.9,8.29,6.71,6.15,10.36.57-46.18.57-46.18l-21.4-1.07Z"/>
    <path class="cls-5" d="m605.69,245.35s16.31,17.91,18.31,27.91,5,20,5,20l-3.5-46.5-19.81-1.41Z"/>
    <path class="cls-5" d="m641.74,231.83s24.26,14.42,32.76,24.92l8.5,10.5s-14.26-31.85-20.63-35.42-11.78-7.5-11.78-7.5l-8.85,7.5Z"/>
    <path class="cls-5" d="m672.13,207.42s27.28,6.97,39.08,16.9,22.94,17.59,22.94,17.59c0,0-11.15-33.67-22.15-41.67s-14.18-10.81-14.18-10.81l-25.69,17.98Z"/>
    <path class="cls-5" d="m710.65,181.3s27.35,18.96,35.35,24.96,9-2,9-2l-24.97-34.26-19.39,11.31Z"/>
    <path class="cls-5" d="m748.4,160.39s22.6,19.87,28.6,24.87l6,5-16.02-38.49-18.58,8.62Z"/>
    <path class="cls-5" d="m775.48,148.2s32.52,22.05,33.52,22.05-8.27-31.34-8.27-31.34l-25.25,9.28Z"/>
    <polygon class="cls-5" points="809.08 136.05 841 160.25 825.04 130.68 809.08 136.05"/>
    <polygon class="cls-5" points="836.5 126.92 860 143.25 853.22 121.63 836.5 126.92"/>
    <path class="cls-4" d="m13.74,191.22s-13.74,3.03-13.74,15.03,7,24,10,26,6.5,6.21,6.5,6.21l-2.76-47.24Z"/>
    <ellipse class="cls-5" cx="68.5" cy="210.75" rx="11.5" ry="16.5" transform="translate(-74.72 41.65) rotate(-22.26)"/>
    <path class="cls-5" d="m53.84,223.28c-4.88-6.46-9.86-15.01-9.53-23.4.58-5.5,3.79-10.66,8.57-13.63,6.3-3.94,14.62-2.66,20.78.9,3.06,1.78,5.62,4.32,7.59,7.06,1.88,2.74,4.09,5.38,5.24,8.54-1.88-2.7-4.45-4.89-6.73-7.26-2.2-2.27-4.73-4.24-7.58-5.59-5.34-2.38-12.04-3.47-17.23-.24-3.62,2.22-6.43,6.32-7.17,10.58-.19,1.48-.14,3,.04,4.5.87,6.37,3.45,12.58,6.01,18.54h0Z"/>
    <ellipse class="cls-5" cx="15.3" cy="213.74" rx="10.2" ry="5.94" transform="translate(-198.73 203.39) rotate(-83.14)"/>
    <path class="cls-5" d="m5.58,218.54c-.93-5.57-1.67-12.23,1.63-17.28,2.29-3.36,6.81-6.14,10.96-4.28,5.96,2.42,7.45,9.46,7.43,15.21-1.19-5.1-2.7-11.47-8.15-13.46-3.31-1.33-6.74.99-8.73,3.66-3.12,4.46-2.85,10.77-3.14,16.14h0Z"/>
    <path class="cls-2" d="m520.58,535.57s33.42,61.75,39.92,68.22.5,27.47-5,29.97-39.5,15.5-39.5,15.5c0,0,8.34,3.24,10.17,6.62s2.83,8.38,2.83,8.38c0,0,9.88-2,14.44,0s10.56,9,10.56,9c0,0,14-9,20-4s12,23,12,23c0,0,27-17,30-24s13.71-49.69,14.85-54.34,2.15-34.66-2.85-41.66-21.47-43.46-21.47-43.46l-52.62,8.87-33.33-2.1Z"/>
    <path class="cls-3" d="m1039.5,110.75c-2.5-1.87-5.77-2.35-8.7-1.25-15.78,5.9-66.96,28.32-86.3,39.25-23,13-93.82,63.33-121.41,93.17s-58.94,52.48-90.27,90.66-60.69,69.65-60.69,69.65c0,0-2.63,22.53-22.63,53.53s-25,57-34,65l-9,8s35-7.84,55.87-27.78,50.61-76.53,62.37-94.88,73.26-104.69,73.26-104.69c0,0,55.91-79.68,84.7-100.67s89.28-56.67,100.53-61.83,56.26-25.16,56.26-25.16v-3Z"/>
    <path class="cls-2" d="m516.5,448.75s13-65.76,31-80.88,38-42.12,73-28.12,49,38,51,46,1.53,21.48-2.24,34.24-31.76,63.47-40.26,79.11-10.5,18.65-13.5,21.65-9,8-9,8c0,0-13.12,8.06-45.06,8.53s-40.86-1.72-40.86-1.72c0,0-17.99-16.04-16.53-36.93s12.46-49.89,12.46-49.89Z"/>
    <polygon class="cls-7" points="258.68 175.28 209.58 142.1 154.42 163.73 170.81 106.78 133.19 61 192.41 58.99 224.33 9.06 244.54 64.77 301.89 79.7 255.16 116.13 258.68 175.28"/>
  </g>
</svg>