<?xml version="1.0" standalone="no"?>
<!DOCTYPE svg PUBLIC "-//W3C//DTD SVG 20010904//EN"
 "http://www.w3.org/TR/2001/REC-SVG-20010904/DTD/svg10.dtd">
<svg version="1.0" xmlns="http://www.w3.org/2000/svg"
 width="260.000000pt" height="260.000000pt" viewBox="0 0 260.000000 260.000000"
 preserveAspectRatio="xMidYMid meet">
<metadata>
Created by potrace 1.14, written by Peter Selinger 2001-2017
</metadata>
<g transform="translate(0.000000,260.000000) scale(0.100000,-0.100000)"
fill="#000000" stroke="none">
<path d="M2096 2351 c-10 -11 -64 -42 -120 -70 -94 -47 -196 -127 -196 -154 0
-12 -96 -134 -130 -165 -39 -36 -131 -77 -274 -122 -209 -66 -227 -72 -272
-97 -40 -22 -124 -107 -124 -125 0 -12 -111 -180 -143 -218 -38 -44 -133 -118
-172 -134 -85 -36 -196 -26 -217 19 -31 68 38 137 228 231 152 74 210 113 225
153 15 39 1 117 -28 151 -36 44 -46 37 -18 -12 32 -55 31 -79 -2 -119 -31 -37
-80 -60 -261 -123 -228 -80 -297 -128 -347 -239 -33 -71 -36 -131 -11 -191 15
-36 15 -38 -2 -31 -17 6 -111 60 -170 97 l-33 20 6 -53 c32 -275 168 -562 356
-749 116 -115 207 -179 354 -251 119 -57 232 -91 378 -113 131 -19 195 -20
312 -2 308 47 541 162 744 367 88 90 241 310 241 348 0 6 15 18 33 27 55 28
67 44 67 90 0 24 -6 49 -13 55 -10 9 -11 25 -6 58 45 265 45 333 0 596 -4 28
-13 61 -18 74 -9 24 -10 23 -16 -15 -11 -65 -54 -163 -96 -218 -55 -71 -194
-207 -233 -228 -59 -32 -128 -22 -128 19 0 55 -42 83 -127 83 l-43 0 16 25
c19 29 40 32 73 9 l24 -17 -5 36 c-4 36 -4 36 19 22 30 -20 33 -19 33 8 0 42
-35 67 -93 67 -27 0 -39 -6 -52 -27 -18 -27 -18 -27 -26 -5 -5 14 -1 43 12 84
29 87 53 131 97 178 54 56 84 54 178 -10 77 -53 117 -62 168 -39 19 9 28 24
35 61 14 64 14 71 -4 64 -9 -3 -15 0 -15 9 0 8 -5 15 -10 15 -6 0 -8 11 -4 26
5 18 3 25 -3 21 -7 -4 -14 8 -18 29 -4 26 -10 34 -21 30 -11 -4 -12 -2 -5 13
12 21 5 32 -15 24 -16 -6 -18 5 -4 27 11 18 50 19 69 2 8 -8 24 -12 36 -10 18
4 21 1 17 -16 -5 -20 -5 -20 23 -2 24 16 27 16 22 2 -7 -19 4 -21 21 -4 9 9
12 8 12 -5 0 -9 5 -17 10 -17 6 0 10 5 10 10 0 6 5 10 11 10 6 0 9 -7 5 -15
-7 -20 3 -19 26 2 14 13 18 13 18 2 1 -10 4 -9 14 4 8 10 18 17 22 16 23 -5
43 59 43 139 1 77 -1 87 -29 128 -36 51 -57 59 -146 49 -70 -7 -94 2 -94 36 0
16 -8 19 -43 19 -33 0 -53 7 -83 30 -46 35 -65 37 -88 11z"/>
</g>
</svg>
