<?xml version="1.0" encoding="UTF-8"?>
<svg id="Calque_2" data-name="Calque 2" xmlns="http://www.w3.org/2000/svg" viewBox="0 0 403.46 226.92" width="403" height="226">
  <defs>
    <style>
      .cls-1 {
        fill: #fff;
      }
    </style>
  </defs>
  <g id="Calque_2-2" data-name="Calque 2">
    <g id="Calque_1-2" data-name="Calque 1-2">
      <g id="corps">
        <g>
          <path class="cls-1" d="m168.64,225.42c-4.74,0-9.79-1.35-18.17-3.58-6.18-1.65-14.64-3.9-26.24-6.45-25.08-5.53-43.8-11.08-62.6-18.55-17.12-6.81-21.16-10.04-22.89-11.42-12.93-10.27-18.05-23.27-25.14-41.27l-.06-.15c-5.52-14-10.29-26.1-11.48-43.61v-.13c-.84-12.14-1.97-28.77,6.81-45.62,4.64-8.88,12.38-17.44,22.42-24.78h.01l.4-.29c11.53-8.35,26.43-15.84,92.36-22.99,29.27-3.17,46.93-5.09,64.38-5.09,4.82,0,9.56.15,14.49.44,22.52,1.36,41.18,4.84,64.8,9.25l.18.03c15.05,2.81,23.34,4.36,29.99,6.91,5.08,1.95,9.17,3.95,13.13,5.89,7.57,3.71,14.1,6.91,24.46,8.16,2.14.26,4.03.38,5.78.38,1.96,0,3.47-.16,4.79-.3,1.11-.12,2.17-.23,3.34-.23.77,0,1.55.05,2.38.15,13.68,1.61,27.32,15.55,37.41,38.25,9.27,20.85,14.05,45.71,12.46,64.86-.76,9.28-3.12,17.93-6.82,25.03-2.09,4-8.26,14.24-20.47,22.73-6.13,4.26-17.85,7.63-39.12,13.75-7.46,2.15-12.44,3.49-17.71,4.92-5.93,1.6-12.65,3.42-24.18,6.72-7.07,2.03-10.65,3.09-12.57,3.66-2.2.66-2.43.73-3.6.96-4.88.97-9.14,1.42-13.42,1.42-3.65,0-7.05-.33-10.66-.67-4.43-.43-9.46-.91-16.04-.91-2,0-4.08.05-6.19.13-4.69.19-17.28,1.02-32.86,4.69-7.55,1.78-11.76,3.29-15.15,4.5-2.65.95-4.93,1.77-8.1,2.47-2.2.49-4.15.72-6.13.72Z"/>
          <path d="m188.45,3h0c4.79,0,9.5.14,14.4.44,22.43,1.36,41.05,4.83,64.62,9.23l.17.03c14.97,2.79,23.21,4.33,29.73,6.83,5.02,1.92,9.08,3.91,13.01,5.83,7.37,3.61,14.33,7.02,24.94,8.3,2.2.27,4.14.4,5.96.4,2.04,0,3.59-.16,4.95-.31,1.12-.12,2.09-.22,3.18-.22.71,0,1.43.04,2.21.13,13.15,1.55,26.35,15.16,36.22,37.37,9.18,20.64,13.9,45.21,12.33,64.13-.75,9.08-3.05,17.54-6.65,24.46-2.04,3.91-8.06,13.89-19.99,22.19-5.92,4.12-17.56,7.47-38.68,13.54-7.45,2.14-12.43,3.49-17.69,4.91-5.94,1.6-12.66,3.42-24.19,6.73-7.08,2.03-10.66,3.09-12.58,3.67-2.19.65-2.36.71-3.47.92-4.78.95-8.95,1.39-13.12,1.39-3.57,0-6.79-.31-10.52-.67-4.47-.43-9.53-.92-16.19-.92-2.02,0-4.13.05-6.25.14-4.73.19-17.44,1.03-33.15,4.73-7.63,1.8-11.89,3.32-15.31,4.55-2.71.97-4.84,1.74-7.92,2.42-2.09.46-3.94.68-5.81.68-4.55,0-9.53-1.33-17.78-3.52-6.19-1.65-14.67-3.91-26.31-6.47-25-5.51-43.65-11.04-62.37-18.48-16.91-6.73-20.83-9.86-22.51-11.2-12.61-10.02-17.67-22.86-24.68-40.64l-.06-.15c-5.48-13.89-10.2-25.88-11.38-43.16v-.12c-.82-11.96-1.94-28.35,6.65-44.82,4.47-8.56,11.92-16.83,21.58-23.98h.02l.79-.57c10.93-7.92,26.17-15.61,91.68-22.72,29.2-3.17,46.82-5.08,64.18-5.08M188.45,0c-17.53,0-35.29,1.93-64.54,5.1C58.58,12.19,42.72,19.76,30.83,28.37h-.01c-15.17,10.98-21.28,21.78-23.27,25.59C-1.46,71.24-.28,88.04.57,100.5c1.21,17.81,6.14,30.26,11.64,44.21,7.35,18.66,12.61,31.57,25.6,41.89,2.23,1.78,6.66,5.03,23.27,11.64,19.04,7.57,38.06,13.16,62.83,18.62,27.19,5.99,36.13,10.06,44.73,10.06,2.09,0,4.16-.24,6.46-.75,7.42-1.65,9.94-3.84,23.27-6.98,16.49-3.88,29.59-4.53,32.58-4.65,2.2-.09,4.23-.13,6.13-.13,11.92,0,18.51,1.58,26.71,1.58,3.94,0,8.25-.37,13.71-1.45,2.33-.46,1.2-.33,16.29-4.65,21.75-6.23,26.01-7.07,41.89-11.64,22.15-6.37,33.35-9.64,39.56-13.96,13.45-9.36,19.59-20.68,20.94-23.27,1.65-3.17,5.85-11.89,6.98-25.6,3.23-38.99-19.72-101.02-51.19-104.72-.95-.11-1.79-.16-2.56-.16-2.69,0-4.61.53-8.14.53-1.51,0-3.31-.1-5.6-.37-15.44-1.87-22.35-8.26-37.23-13.96-6.65-2.55-14.61-4.06-30.25-6.98C244.73,5.38,225.7,1.82,203.03.45,198.04.14,193.25,0,188.45,0h0Z"/>
        </g>
      </g>
    </g>
  </g>
</svg>