<?xml version="1.0" encoding="UTF-8"?>
<svg id="Calque_2" data-name="Calque 2" xmlns="http://www.w3.org/2000/svg" viewBox="0 0 273.69 224.61" width="273" height="224">
  <defs>
    <style>
      .cls-1 {
        fill: #fff;
      }
    </style>
  </defs>
  <g id="Calque_2-2" data-name="Calque 2">
    <g id="Calque_1-2" data-name="Calque 1-2">
      <g id="cou">
        <g>
          <path class="cls-1" d="m55.41,223.11c-11.55,0-21.97-4.58-23.12-5.1-15.41-6.99-22.74-19.73-25.26-25.14l-.11-.24c-7.41-16.14-8.06-38.94,2.8-47.14,2.72-2.05,5.22-2.47,8.12-2.47,1.16,0,2.4.07,3.71.15,1.57.09,3.19.18,5,.18,3.04,0,5.8-.27,8.67-.84,15.58-3.12,24.02-13.27,38.01-30.09,1.68-2.01,3.43-4.12,5.28-6.32,18.64-22.12,33.35-39.59,52.05-55.31,22.11-18.59,41.41-27.68,58.43-35.7,17.88-8.44,34.47-11.69,45.23-12.93,3.78-.44,7-.65,9.83-.65,6.5,0,11.09,1.11,15.33,3.7,5.38,3.29,14.88,11.95,12.39,21.18-1.94,7.15-10.76,11.95-17.79,11.95h-.32c-2.33-.05-3.72-.62-5.48-1.33-1.86-.75-3.97-1.61-7.47-1.93-.84-.08-1.69-.12-2.52-.12-5.44,0-10.19,1.68-14.51,3.49-23.11,9.68-39.38,22.94-39.54,23.07-14.7,12.09-32.91,27.07-49.27,52.58-4.91,7.66-6.86,11.91-9.12,16.83-2.59,5.66-5.53,12.07-13.75,25.64-5.33,8.78-8.6,13.52-11.5,17.7-3.39,4.91-6.32,9.14-11.38,18.26-3.16,5.68-5.28,9.9-6.99,13.28-3.5,6.95-4.81,9.55-8.87,12.31-4.86,3.3-10.87,4.98-17.86,4.98h0Z"/>
          <path d="m244.07,3c6.21,0,10.56,1.04,14.54,3.48,5.86,3.59,13.82,11.74,11.73,19.51-1.76,6.49-9.87,10.85-16.34,10.85-.1,0-.19,0-.29,0-2.05-.04-3.27-.54-4.95-1.22-1.86-.75-4.17-1.69-7.9-2.03-.89-.08-1.78-.12-2.66-.12-5.71,0-10.63,1.73-15.09,3.6-23.32,9.77-39.25,22.75-39.92,23.3l-.06.05c-14.71,12.1-33.03,27.16-49.52,52.88-4.97,7.75-6.94,12.04-9.22,17.02-2.57,5.62-5.49,11.99-13.67,25.49-5.3,8.74-8.57,13.46-11.45,17.63-3.42,4.94-6.37,9.2-11.46,18.38-3.17,5.71-5.3,9.94-7.01,13.34-3.47,6.89-4.64,9.21-8.37,11.75-4.61,3.13-10.33,4.72-17.02,4.72-11.24,0-21.38-4.46-22.5-4.97-14.68-6.66-21.8-18.7-24.38-24.11l-.24-.53c-7.02-15.29-7.79-37.66,2.34-45.31,2.4-1.81,4.54-2.17,7.22-2.17,1.12,0,2.33.07,3.62.14,1.51.09,3.23.19,5.09.19,3.1,0,6.03-.29,8.96-.87,16.1-3.23,25.16-14.12,38.87-30.6,1.67-2.01,3.43-4.12,5.29-6.34,18.58-22.05,33.25-39.47,51.85-55.11,21.96-18.47,41.16-27.51,58.11-35.49,17.69-8.35,34.11-11.57,44.76-12.79,3.72-.43,6.88-.64,9.66-.64h0M244.07,0c-2.9,0-6.19.22-10,.66-23.32,2.68-40.66,10.68-45.7,13.06-17.24,8.12-36.51,17.2-58.76,35.91-18.8,15.81-33.45,33.2-52.23,55.49-16.98,20.16-25.53,32.52-42.44,35.91-3.15.63-5.91.81-8.37.81-3.33,0-6.14-.33-8.71-.33-3.19,0-6.02.51-9.03,2.78-11.76,8.88-10.63,32.91-3.26,48.96h0c1.59,3.47,8.85,18.29,26.11,26.12,1.29.59,11.9,5.24,23.74,5.24,6.29,0,12.92-1.31,18.7-5.24,6.42-4.37,6.45-8.34,16.32-26.11,9.28-16.72,11.19-16.68,22.85-35.91,15.57-25.68,12.49-26.29,22.85-42.44,16.26-25.35,34.31-40.18,48.96-52.23,0,0,15.99-13.14,39.17-22.85,4.75-1.99,9.08-3.37,13.93-3.37.78,0,1.58.04,2.39.11,6.54.6,7.83,3.15,13.06,3.26.12,0,.24,0,.35,0,7.42,0,17.03-4.92,19.24-13.06,2.63-9.75-6.75-18.99-13.06-22.85C255.92,1.32,251.16,0,244.07,0h0Z"/>
        </g>
      </g>
    </g>
  </g>
</svg>