<?xml version="1.0" encoding="UTF-8"?>
<svg id="Calque_2" data-name="Calque 2" xmlns="http://www.w3.org/2000/svg" viewBox="0 0 191.22 129.96" width="191" height="130">
  <defs>
    <style>
      .cls-1 {
        fill: none;
        stroke: #000;
        stroke-miterlimit: 10;
        stroke-width: 2px;
      }
    </style>
  </defs>
  <g id="Calque_1-2" data-name="Calque 1">
    <path class="cls-1" d="m17.9,1.98C13.96,1.06,7.37-.19,3.71,3.4.69,6.36.15,12.14,2.29,16.17c.52.98,1.74,2.88,7.1,5.68,6.29,3.29,10.16,3.56,17.03,5.68,3.7,1.14,2.02.89,14.19,5.68,10.7,4.21,11.57,4.24,18.45,7.1,4.86,2.02,9.75,4.05,15.61,7.1,4.54,2.36,9.24,5.39,18.45,11.36,13.6,8.8,10.55,7.26,21.29,14.19,8.67,5.6,11.52,7.16,15.61,11.36,3.69,3.78,6.92,7.17,8.52,12.77.56,1.97,2.37,9.3-1.42,17.03-2.56,5.24-7.4,5.68-7.1,8.52.38,3.51,7.39,5.38,8.52,5.68,4.4,1.17,6.98.45,12.77,0,9.76-.76,10.31.65,21.29,0,6.05-.36,9.46.89,12.77-1.42,0,0,2.74-1.73,4.26-5.68,4.16-10.81-15.03-30.61-17.03-32.65-22.32-22.68-45.98-37.58-61.03-46.84,0,0-46.63-28.7-93.68-39.74h0Z"/>
    <path class="cls-1" d="m17.9,1.98C13.96,1.06,7.37-.19,3.71,3.4.69,6.36.15,12.14,2.29,16.17c.52.98,1.74,2.88,7.1,5.68,6.29,3.29,10.16,3.56,17.03,5.68,3.7,1.14,2.02.89,14.19,5.68,10.7,4.21,11.57,4.24,18.45,7.1,4.86,2.02,9.75,4.05,15.61,7.1,4.54,2.36-9.73-34.38-56.78-45.42h.01Z"/>
  </g>
</svg>