<?xml version="1.0" encoding="UTF-8"?>
<svg id="Calque_2" data-name="Calque 2" xmlns="http://www.w3.org/2000/svg" viewBox="0 0 632.71 155.13" width="633" height="155">
  <defs>
    <style>
      .cls-1 {
        fill: none;
        stroke: #000;
        stroke-miterlimit: 10;
        stroke-width: 2px;
      }
    </style>
  </defs>
  <g id="Calque_1-2" data-name="Calque 1">
    <path class="cls-1" d="m623.36,135.22c-3.02-6.15-3.61-8.8-9.85-32.71-7.24-27.76-10.15-38.3-14.77-38.35s-8.14,10.39-12.3,10.15c-4-.23-3.64-10-7.38-10.15-3.86-.16-4.62,10.24-17.23,12.41-4.92.85-11.08.34-14.77-1.12-4.61-1.83-4.23-4.71-4.92-9.03-.73-4.56-3.48-9.01-4.92-13.53-2.65-8.36-6.45-20.34-9.85-20.3-2.82.03-3.24,8.4-14.77,18.05-2.09,1.75-4.83,3.78-9.85,4.51-7.8,1.13-15.73-1.69-17.23-2.26-7.05-2.64-9.08-6.4-9.85-7.89-3.79-7.42-6.8-17.77-8.45-24.29.27,5.15-1.41,12.28-11.23,16.39-.89.37-9.94,4.06-22.15,3.38-11.33-.62-17.92-4.58-19.7-5.64-4.82-2.89-5.88-5.67-7.38-9.03-1.58-3.51-8.65-19.24-12.3-19.17-4.39.08.56,22.88-17.23,25.94-4.95.85-12.17.26-17.23-1.12-6.05-1.66-8.65-4.35-9.85-5.64-8.97-9.69-16.74-24.84-17.23-24.82-.5.03,11.33,16.44-4.92,25.94-8.56,5-22.17,6.5-24.61,6.77-4.97.55-18.04,1.99-27.07-1.12-5.82-2.01-6.3-4.65-9.85-10.15-6.21-9.67-16.27-19.52-19.7-19.17-2.11.22-.55,4.17-2.45,12.41-1.86,7.99-2.95,12.1-9.85,14.67-6.3,2.34-16.61,3.07-22.15,1.12-4.8-1.69-4.14-4.72-4.92-9.03-2-10.94-11.64-20.49-14.77-20.3-2.36.14-1.26,5.78-4.92,16.92-4.38,13.33-9.2,15.12-12.3,15.79-8.82,1.9-20.3-1.67-22.15-2.26-8.62-2.77-13.48-7.11-16.24-10.7,2.11,4.69,3.95,11.51,1.47,18.6-2.18,6.25-6.18,8.21-9.85,9.03-6.33,1.4-14.29-.1-19.7-1.12-1.67-.31-8-1.57-14.77-4.51-8.59-3.74-10.55-7-12.3-6.77-2.95.4,5.14,9.27,0,19.17-3.65,7.05-14.41,15.39-27.07,15.79-9.91.31-17.2-4.35-19.7-3.38-3.36,1.31,12.62,8.69,9.85,14.67-2.79,5.99-23.8,9.21-41.06,10.89,18.39,8.14,30.03,20.23,39.51,30.46,5.12,5.53,9.79,11.13,14.12,16.8,22.33-1.53,47.04-3.19,76.03-5.14,211.17-14.21,241.46-13.82,275.64-11.28,115.5,8.58,207.95,36.68,221.49,27.07,3.03-2.15-1.03-3.97-7.38-16.92h.06Z"/>
  </g>
</svg>