<?xml version="1.0" encoding="UTF-8"?>
<svg id="Calque_2" data-name="Calque 2" xmlns="http://www.w3.org/2000/svg" viewBox="0 0 130.4 145.48" width="130" height="145">
  <defs>
    <style>
      .cls-1 {
        fill: none;
        stroke: #000;
        stroke-miterlimit: 10;
        stroke-width: 2px;
      }
    </style>
  </defs>
  <g id="Calque_1-2" data-name="Calque 1">
    <path class="cls-1" d="m4.6,105.47c-10.44-8.65,4.45-28.38,11.37-42.52,2.41-4.91,16.16-24.77,19.69-29.48C39.07,28.88,54.01.87,65.2,1c15.64-.13,29.18,24,31.87,28.94,2.74,4.94,6.54,12.32,14.12,24.71,8.91,14.56,23.49,36.82,16.26,48-5.26,8.13-29.09,42.07-52.97,41.65-9.76.11-12.59.35-21.88,0-16.54-1.26-29.92-18.61-33.88-21.89l-14.12-16.94Z"/>
  </g>
</svg>