<?xml version="1.0" encoding="UTF-8"?>
<svg id="Calque_2" data-name="Calque 2" xmlns="http://www.w3.org/2000/svg" viewBox="0 0 350 227.61" width="350" height="227">
  <defs>
    <style>
      .cls-1 {
        fill: none;
        stroke: #000;
        stroke-linecap: round;
        stroke-miterlimit: 10;
        stroke-width: 2px;
      }
    </style>
  </defs>
  <g id="Calque_1-2" data-name="Calque 1">
    <path id="queue" class="cls-1" d="m349,98.14c-32.67,9.21-36.29.08-93,11-8.86,1.71-16.16,3.54-18,4-11.83,2.99-32.11,8.23-54,19-28.7,14.12-48.29,31.91-56,39-10.87,10-14.17,14.88-27,25-9.61,7.58-20.45,16.14-34,22-31.48,13.62-65.72,7.56-66,4-.22-2.73,19.78-.47,44-13,28.46-14.72,44.61-40.47,60-65,12.58-20.06,9.76-20.74,21-37,4.73-6.85,20.84-29.29,49-51C205.12,32.93,249.51,8.06,331.39,1"/>
  </g>
</svg>