<?xml version="1.0" encoding="UTF-8"?>
<svg id="Calque_2" data-name="Calque 2" xmlns="http://www.w3.org/2000/svg" viewBox="0 0 220.8 160.82" width="220" height="160">
  <defs>
    <style>
      .cls-1 {
        fill: #fff;
        stroke: #000;
        stroke-miterlimit: 10;
        stroke-width: 3px;
      }
    </style>
  </defs>
  <g id="Calque_2-2" data-name="Calque 2">
    <g id="tete-trex">
      <path class="cls-1" d="m206.38,138.42c-7.67,8.99-19.87,9.53-39.84,10.12-30.98.92-36.4-6.44-55.07-1.01-13.77,4.01-14.01,8.94-27.88,11-5.18.78-20.51,2.84-35.69-5.61-2.51-1.39-12.06-6.85-18.78-17.41-2.88-4.53-3.71-7.59-8.88-15.69-4.83-7.58-5.53-7.13-8.17-11.63-1.54-2.61-4.07-6.92-5.71-12.06.72,1.57,5.5.38,6.92-.6,6.12-4.24,12.26-21.72,22.76-21.47,3.66.09,7.05,2.76,13.82,8.12,6.07,4.8,5.97,6.35,13.24,12.56,6.77,5.78,10.26,8.69,15.48,9.24,3.71.39,7.16-.48,10.55-1.33,5.77-1.45,6.27-2.79,10.84-3.54,2.86-.47,5.44-.4,7.51-.15,1.82.21,3.25.55,4.14.77,3.95.97,6.15,2.35,9.66,4.36.48.27.97.56,1.51.85.23.13.47.27.72.4,0,0,4.22,2.3,12.58,5.73,1,.42,2.07.85,3.19,1.29.22.09.43.17.65.25,4.66,1.79,9.2,2.99,13.41,3.8,1.71.33,3.36.6,4.95.81,5.33.71,9.89.84,13.14.87.49.01.95.01,1.38.01.81,0,1.62.01,2.43.01,4.28,0,8.46-.1,12.78-.78.82-.12,1.64-.27,2.47-.45,2.45-.5,4.96-1.22,7.58-2.24,2.27-.88,3.32-1.48,4.42-2.22,1.5-1.01,3.09-2.28,7.9-4.87.08.03.16.06.24.1,4.86,2.39,4.45,20.57-4.25,30.77Z"/>
      <path class="cls-1" d="m121.28,104.09l-3.71,15.89c-.13.54-1.98.22-2.21-.38-2.63-6.88-5.25-13.76-7.88-20.64,1.82.21,3.25.55,4.14.77,3.95.97,6.15,2.35,9.66,4.36Z"/>
      <path class="cls-1" d="m136.09,111.07l-3.38,14.45c-.13.54-1.98.22-2.21-.38-2.57-6.73-5.14-13.47-7.71-20.2.23.13.47.27.72.4,0,0,4.22,2.3,12.58,5.73h0Z"/>
      <path class="cls-1" d="m153.34,116.41l-3.76,16.07c-.13.54-1.98.22-2.21-.38-2.48-6.5-4.96-12.99-7.44-19.49,4.66,1.79,9.2,2.99,13.41,3.8Z"/>
      <path class="cls-1" d="m171.43,118.09l-4.08,17.45c-.13.54-1.98.22-2.21-.38-2.29-5.98-4.57-11.96-6.85-17.94,5.33.71,9.89.84,13.14.87h0Z"/>
      <path class="cls-1" d="m188.02,117.33l-4.18,17.9c-.13.54-1.98.22-2.21-.38-2.13-5.58-4.26-11.16-6.39-16.74,4.28,0,8.46-.1,12.78-.78Z"/>
      <path class="cls-1" d="m202.49,112.42l-4.42,18.9c-.13.54-1.98.22-2.21-.38-1.79-4.69-3.58-9.37-5.37-14.06,2.45-.5,4.96-1.22,7.58-2.24,2.27-.88,3.32-1.48,4.42-2.22Z"/>
      <g>
        <path class="cls-1" d="m214,92.82c-9.84-9.39-5.88-17.9-13.43-28.37-6.79-9.4-17.28-12.64-29.86-16.53-13.53-4.18-20.53-6.35-29.36-6.55-2.84-.07-8.85,0-14.4-3.69-1.24-.82-2.85-2.32-6.07-5.3-6.43-5.96-6.63-6.83-8.83-8.37-4.14-2.9-7.16-2.4-14.4-3.69-7.93-1.41-13.5-3.64-19.93-6.21-13.68-5.48-14.04-9.73-21.01-11.77C41.27-2.17,21.48,12.36,11.64,26.22-1.12,44.21,1.16,63.44,2.76,76.93c.5,4.16,1.7,14.97,3.57,19.12.01.03.02.05.03.08.72,1.57,5.5.38,6.92-.6,6.12-4.24,12.26-21.72,22.76-21.47,3.66.09,7.05,2.76,13.82,8.12,6.07,4.8,5.97,6.35,13.24,12.56,6.77,5.78,10.26,8.69,15.48,9.24,3.71.39,7.16-.48,10.55-1.33,5.77-1.45,6.27-2.79,10.84-3.54,2.86-.47,5.44-.4,7.51-.15,1.82.21,3.25.55,4.14.77,3.95.97,6.15,2.35,9.66,4.36.48.27.97.56,1.51.85.23.13.47.27.72.4,0,0,4.22,2.3,12.58,5.73,1,.42,2.07.85,3.19,1.29.22.09.43.17.65.25,4.66,1.79,9.2,2.99,13.41,3.8,1.71.33,3.36.6,4.95.81,5.33.71,9.89.84,13.14.87.49.01.95.01,1.38.01.81,0,1.62.01,2.43.01,4.28,0,8.46-.1,12.78-.78.82-.12,1.64-.27,2.47-.45,2.45-.5,4.96-1.22,7.58-2.24,2.27-.88,3.32-1.48,4.42-2.22,1.5-1.01,3.09-2.28,7.9-4.87.95-.51,2.03-1.08,3.26-1.7,2.73-1.39,5.1-2.5,5.57-4.68.7-3.21-3.21-6.43-5.22-8.35h0Zm-43.54,1.99c-8.25,8.14-20.03,7.61-23.06,7.36-7.4-.61-15.72-5.27-32.37-14.61-7.04-3.94-9.52-5.65-14.11-5.9-9.38-.5-11.52,5.99-19.17,5.16-8.24-.89-15.26-9.44-21.26-16.76-3.39-4.13-4.85-6.89-8.83-8.37-5.41-2.01-9.3.64-11.91-2.01-1.52-1.55-.73-2.98-1.33-10.55-.65-8.18-1.78-9.14-.77-11.38.51-1.13,1.99-3.54,13.9-6.3,10.99-2.55,16.97-3.94,24.14-1.81,2.96.88,3.22,1.49,12.16,7,8.56,5.27,15.6,9.61,22.67,12.89,7.05,3.27,12.63,4.72,23.81,7.62,15.26,3.96,18.2,3.24,26.59,7.08,7.62,3.5,14.65,6.72,16.29,13.41h0c2.03,8.26-5.56,16-6.75,17.17h0Z"/>
        <path class="cls-1" d="m170.46,94.81c-8.25,8.14-20.03,7.61-23.06,7.36-7.4-.61-15.72-5.27-32.37-14.61-7.04-3.94-9.52-5.65-14.11-5.9-9.38-.5-11.52,5.99-19.17,5.16-8.24-.89-15.26-9.44-21.26-16.76-3.39-4.13-4.85-6.89-8.83-8.37-5.41-2.01-9.3.64-11.91-2.01-1.52-1.55-.73-2.98-1.33-10.55-.65-8.18-1.78-9.14-.77-11.38.51-1.13,1.99-3.54,13.9-6.3,10.99-2.55,16.97-3.94,24.14-1.81,2.96.88,3.22,1.49,12.16,7,8.56,5.27,15.6,9.61,22.67,12.89,7.05,3.27,12.63,4.72,23.81,7.62,15.26,3.96,18.2,3.24,26.59,7.08,7.62,3.5,14.65,6.72,16.29,13.41h0c2.03,8.26-5.56,16-6.75,17.17h0Z"/>
        <path class="cls-1" d="m170.46,94.81c-8.25,8.14-20.03,7.61-23.06,7.36-7.4-.61-15.72-5.27-32.37-14.61-7.04-3.94-9.52-5.65-14.11-5.9-9.38-.5-11.52,5.99-19.17,5.16-8.24-.89-15.26-9.44-21.26-16.76-3.39-4.13-4.85-6.89-8.83-8.37-5.41-2.01-9.3.64-11.91-2.01-1.52-1.55-.73-2.98-1.33-10.55-.65-8.18-1.78-9.14-.77-11.38.51-1.13,1.99-3.54,13.9-6.3,10.99-2.55,16.97-3.94,24.14-1.81,2.96.88,3.22,1.49,12.16,7,8.56,5.27,15.6,9.61,22.67,12.89,7.05,3.27,12.63,4.72,23.81,7.62,15.26,3.96,18.2,3.24,26.59,7.08,7.62,3.5,14.65,6.72,16.29,13.41h0c2.03,8.26-5.56,16-6.75,17.17h0Z"/>
        <path class="cls-1" d="m109.68,52.57c-3.85-3.31-5.29-3.27-13.82-8.12-10.64-6.06-11.36-7.82-15.21-7.85-7.74-.07-13.1,6.96-13.63,7.69-4.48,6.06-4.88,14.25-1.78,20.51,3.78,7.63,11.58,10.04,14.36,10.9,3.43,1.06,8.57.93,18.86.66,5.26-.14,6.5-.37,7.77-.79,4.72-1.53,11.26-5.88,11.44-11.58.14-4.45-3.67-7.71-7.98-11.42h-.01Z"/>
      </g>
    </g>
  </g>
</svg>