<?xml version="1.0" encoding="UTF-8"?>
<svg id="Calque_2" data-name="Calque 2" xmlns="http://www.w3.org/2000/svg" viewBox="0 0 238.99 162.56"  width="239" height="162">
  <defs>
    <style>
      .cls-1 {
        fill: #fff;
        stroke: #000;
        stroke-miterlimit: 10;
        stroke-width: 3px;
      }
    </style>
  </defs>
  <g id="Calque_2-2" data-name="Calque 2">
    <g id="Calque_2-2" data-name="Calque 2-2">
      <path class="cls-1" d="m231.37,137.65c-1.98,5.79-8.23,8.55-15.54,11.65-15.9,6.74-27.94,4.95-56.33,3.88-25.98-.98-38.97-1.47-46.62,0-17.26,3.32-23.82,8.72-40.79,7.77-5.93-.34-15.09-1.55-25.25-5.83-7.07-2.98-17.62-7.41-25.25-17.48-7.9-10.42-10.48-23.98-8.88-36.39.09.05.18.09.28.13,4.41,1.83,6.84-1.88,19.42-1.94,9.37-.05,13.34,1.99,23.31,3.88,7.14,1.36,16.41,1.55,34.96,1.94,1.85.04,3.58.07,5.18.09h0c2.34.03,4.42.05,6.31.05.53.01,1.04.01,1.53.01,2.39.01,4.43.02,6.24.03.55,0,1.08,0,1.59.02,2.37.03,4.32.11,6.17.28.35.03.7.07,1.05.11,2.15.25,4.22.65,6.72,1.31.05.01.11.03.16.04.34.09.71.2,1.1.32,1.67.52,3.76,1.31,6.55,2.46.5.2,1.02.41,1.56.64,1.8.75,3.87,1.63,6.25,2.65.36.15.72.31,1.09.47.91.39,1.87.8,2.87,1.23,1.28.55,2.49,1.07,3.65,1.58.46.2.92.4,1.37.59,2.44,1.07,4.58,2.02,6.48,2.87.49.22.97.44,1.43.65,2.6,1.17,4.68,2.14,6.38,2.95.52.25,1.01.48,1.46.7,3.17,1.52,4.83,2.37,6.31,2.98.36.15.71.29,1.07.41.84.31,1.74.57,2.93.87,1.26.32,2.52.59,3.75.82.36.07.72.14,1.08.19,2.3.4,4.54.66,6.72.8.49.04.98.07,1.46.09,2.18.1,4.29.09,6.31,0,.28,0,.56-.02.83-.04,2.32-.12,4.53-.36,6.61-.66.75-.11,1.47-.22,2.18-.35,2.04-.35,3.94-.75,5.68-1.16.8-.19,1.56-.38,2.28-.57,1.44-.37,2.74-.73,3.89-1.05.54-.15,1.06-.3,1.57-.44.75-.21,1.47-.41,2.17-.61,2.05-.58,3.88-1.13,5.52-1.69.82-.27,1.6-.55,2.32-.85,2.97,5.11,4.38,10.16,2.86,14.61h.01Z"/>
      <g id="machoire-sup">
        <path class="cls-1" d="m187.69,130.38c.06,1.21-.27,2.33-.64,3.6-.17.56-.6,1.9-1.65,3.22-.82,1.04-1.32,1.18-1.63,1.2-.58.05-1.33-.25-1.61-.82-.48-.98,1.03-1.75.84-3.63-.13-1.25-.65-2.19-.79-2.43-.61-1.04-1.05-1.06-1.2-1.63-.03-.09-.04-.2-.04-.31,2.3.4,4.54.66,6.72.8h0Z"/>
        <path class="cls-1" d="m195.46,130.46c.05,1.18-.28,2.28-.64,3.52-.17.56-.6,1.9-1.65,3.22-.82,1.04-1.32,1.18-1.63,1.2-.58.05-1.33-.25-1.61-.82-.48-.98,1.03-1.75.84-3.63-.13-1.25-.65-2.19-.79-2.43-.34-.57-.62-.84-.83-1.05,2.18.1,4.29.09,6.31,0Z"/>
        <path class="cls-1" d="m202.86,133.44c-.07.58-.29,1.96-1.11,3.44-.64,1.15-1.11,1.37-1.41,1.44-.56.14-1.35-.03-1.72-.55-.63-.89.73-1.9.25-3.72-.33-1.21-1-2.06-1.17-2.27-.73-.9-1.17-.87-1.41-1.36,2.32-.12,4.53-.36,6.61-.66.27,1.19.13,2.37-.04,3.68h0Z"/>
        <path class="cls-1" d="m210.63,131.5c-.07.58-.29,1.96-1.11,3.44-.64,1.15-1.11,1.37-1.41,1.44-.56.14-1.35-.03-1.72-.55-.63-.89.73-1.9.25-3.72-.33-1.21-1-2.06-1.17-2.27-.14-.18-.27-.32-.39-.43,2.04-.35,3.94-.75,5.68-1.16.14,1.05.02,2.09-.13,3.25h0Z"/>
        <path class="cls-1" d="m218.39,129.56c-.07.58-.29,1.96-1.11,3.44-.64,1.15-1.11,1.37-1.41,1.44-.56.14-1.35-.03-1.72-.55-.63-.89.73-1.9.25-3.72-.33-1.21-1-2.06-1.17-2.27-.07-.08-.13-.16-.19-.22,1.44-.37,2.74-.73,3.89-1.05.54-.15,1.06-.3,1.57-.44.17,1.09.04,2.17-.11,3.37Z"/>
        <path class="cls-1" d="m226.16,127.61c-.07.58-.29,1.96-1.11,3.44-.64,1.15-1.11,1.37-1.41,1.44-.56.14-1.35-.03-1.72-.55-.63-.89.73-1.9.25-3.72-.33-1.21-1-2.06-1.17-2.27-.12-.15-.23-.27-.33-.37,2.05-.58,3.88-1.13,5.52-1.69.28,1.21.14,2.39-.03,3.72Z"/>
        <path class="cls-1" d="m179.89,129.39c-.09.87-.34,1.72-.61,2.65-.17.56-.6,1.9-1.65,3.22-.82,1.04-1.32,1.18-1.63,1.2-.58.05-1.33-.25-1.61-.82-.48-.98,1.03-1.75.84-3.63-.13-1.25-.65-2.19-.79-2.43-.61-1.04-1.05-1.06-1.2-1.63-.02-.08-.03-.16-.03-.25.84.31,1.74.57,2.93.87,1.26.32,2.52.59,3.75.82Z"/>
        <path class="cls-1" d="m172.14,127.29c-.08.92-.34,1.82-.63,2.81-.17.56-.6,1.9-1.65,3.22-.82,1.04-1.32,1.18-1.63,1.2-.58.05-1.33-.25-1.61-.82-.48-.98,1.03-1.75.84-3.63-.13-1.25-.65-2.19-.79-2.43-.61-1.04-1.05-1.06-1.2-1.63-.12-.48.02-1.1.36-1.7,3.17,1.52,4.83,2.37,6.31,2.98Z"/>
        <path class="cls-1" d="m164.37,123.61c-.11.88-.39,1.74-.68,2.68-.18.56-.64,1.88-1.72,3.18-.85,1.02-1.35,1.14-1.66,1.16-.58.03-1.32-.28-1.59-.86-.45-.99,1.07-1.73.93-3.61-.1-1.26-.6-2.21-.73-2.45-.58-1.06-1.03-1.09-1.16-1.66-.1-.4,0-.89.23-1.39,2.6,1.17,4.68,2.14,6.38,2.95Z"/>
        <path class="cls-1" d="m156.56,120.01c-.13.78-.38,1.56-.64,2.4-.18.56-.64,1.88-1.72,3.18-.85,1.02-1.35,1.14-1.66,1.16-.58.03-1.32-.28-1.59-.86-.45-.99,1.07-1.73.93-3.61-.1-1.26-.6-2.21-.73-2.45-.58-1.06-1.03-1.09-1.16-1.66-.07-.3-.03-.66.09-1.03,2.44,1.07,4.58,2.02,6.48,2.87h0Z"/>
        <path class="cls-1" d="m148.71,116.55c-.14.64-.34,1.28-.56,1.97-.18.56-.64,1.88-1.72,3.18-.85,1.02-1.35,1.14-1.66,1.16-.58.03-1.32-.28-1.59-.86-.45-.99,1.07-1.73.93-3.61-.1-1.26-.6-2.21-.73-2.45-.58-1.06-1.03-1.09-1.16-1.66-.04-.16-.05-.35-.03-.54.91.39,1.87.8,2.87,1.23,1.28.55,2.49,1.07,3.65,1.58h0Z"/>
        <path class="cls-1" d="m141.1,113.27c-.02,1.11-.36,2.15-.72,3.31-.18.56-.64,1.88-1.72,3.18-.85,1.02-1.35,1.14-1.66,1.16-.58.03-1.32-.28-1.59-.86-.45-.99,1.07-1.73.93-3.61-.1-1.26-.6-2.21-.73-2.45-.58-1.06-1.03-1.09-1.16-1.66-.12-.49.05-1.11.4-1.72,1.8.75,3.87,1.63,6.25,2.65h0Z"/>
        <path class="cls-1" d="m133.29,109.98c-.1.89-.38,1.77-.68,2.72-.18.56-.64,1.88-1.72,3.18-.85,1.02-1.35,1.14-1.66,1.16-.58.03-1.32-.28-1.59-.86-.45-.99,1.07-1.73.93-3.61-.1-1.26-.6-2.21-.73-2.45-.58-1.06-1.03-1.09-1.16-1.66-.07-.28-.04-.6.06-.94,1.67.52,3.76,1.31,6.55,2.46h0Z"/>
        <path class="cls-1" d="m125.48,107.16c.05,1.11-.21,2.17-.5,3.36-.14.57-.51,1.92-1.5,3.29-.77,1.07-1.26,1.23-1.57,1.27-.58.07-1.34-.19-1.65-.75-.52-.95.95-1.79.68-3.66-.18-1.24-.75-2.16-.9-2.39-.65-1.01-1.1-1.01-1.27-1.57-.08-.25-.08-.55-.01-.86,2.15.25,4.22.65,6.72,1.31Z"/>
        <path class="cls-1" d="m117.71,105.74c-.03.93-.25,1.84-.5,2.84-.14.57-.51,1.92-1.5,3.29-.77,1.07-1.26,1.23-1.57,1.27-.58.07-1.34-.19-1.65-.75-.52-.95.95-1.79.68-3.66-.18-1.24-.75-2.16-.9-2.39-.28-.45-.53-.69-.73-.88,2.37.03,4.32.11,6.17.28Z"/>
        <path class="cls-1" d="m109.95,105.44c.01,1.03-.24,2.03-.51,3.14-.14.57-.51,1.92-1.5,3.29-.77,1.07-1.26,1.23-1.57,1.27-.58.07-1.34-.19-1.65-.75-.52-.95.95-1.79.68-3.66-.18-1.24-.75-2.16-.9-2.39-.32-.49-.58-.74-.79-.93,2.39.01,4.43.02,6.24.03Z"/>
        <path class="cls-1" d="m102.18,105.4c.01,1.05-.23,2.06-.51,3.18-.14.57-.51,1.92-1.5,3.29-.77,1.07-1.26,1.23-1.57,1.27-.58.07-1.34-.19-1.65-.75-.52-.95.95-1.79.68-3.66-.18-1.24-.75-2.16-.9-2.39-.35-.54-.64-.79-.86-.99,2.34.03,4.42.05,6.31.05Z"/>
        <path class="cls-1" d="m218.87,78.07C181.32,33.42,128.63,7.24,86.79,2.32c-14.76-1.74-25.69-.53-34.96,1.94h0c-6.36,1.71-21.61,5.77-33.02,17.49C-5.57,46.8-.92,94.95,12.71,101.25c.09.05.18.09.28.13,4.41,1.83,6.84-1.88,19.42-1.94,9.37-.05,13.34,1.99,23.31,3.88,7.14,1.36,16.41,1.55,34.96,1.94,1.85.04,3.58.07,5.18.09h0c2.34.03,4.42.05,6.31.05.53.01,1.04.01,1.53.01,2.39.01,4.43.02,6.24.03.55,0,1.08,0,1.59.02,2.37.03,4.32.11,6.17.28.35.03.7.07,1.05.11,2.15.25,4.22.65,6.72,1.31.05.01.11.03.16.04.34.09.71.2,1.1.32,1.67.52,3.76,1.31,6.55,2.46.5.2,1.02.41,1.56.64,1.8.75,3.87,1.63,6.25,2.65.36.15.72.31,1.09.47.91.39,1.87.8,2.87,1.23,1.28.55,2.49,1.07,3.65,1.58.46.2.92.4,1.37.59,2.44,1.07,4.58,2.02,6.48,2.87.49.22.97.44,1.43.65,2.6,1.17,4.68,2.14,6.38,2.95.52.25,1.01.48,1.46.7,3.17,1.52,4.83,2.37,6.31,2.98.36.15.71.29,1.07.41.84.31,1.74.57,2.93.87,1.26.32,2.52.59,3.75.82.36.07.72.14,1.08.19,2.3.4,4.54.66,6.72.8.49.04.98.07,1.46.09,2.18.1,4.29.09,6.31,0,.28,0,.56-.02.83-.04,2.32-.12,4.53-.36,6.61-.66.75-.11,1.47-.22,2.18-.35,2.04-.35,3.94-.75,5.68-1.16.8-.19,1.56-.38,2.28-.57,1.44-.37,2.74-.73,3.89-1.05.54-.15,1.06-.3,1.57-.44.75-.21,1.47-.41,2.17-.61,2.05-.58,3.88-1.13,5.52-1.69.82-.27,1.6-.55,2.32-.85,3.86-1.53,6.38-3.29,7.84-6.12,1.97-3.8,3.98-13.32-17.48-38.85h.01Zm-40.92.56c-6.17,5.41-18.66,7.69-26.84,3.55-8.45-4.28-6.52-12.48-15.25-16.75-9.2-4.5-14.72,2.95-27.81-.35-8.37-2.11-18.81-8.37-19.06-15.98v-.35c.06-7.2,9.22-12.66,11.03-13.75h0c19.34-11.55,45.17,1.1,50.28,3.75,14.57,7.57,34.87,24.34,30.89,35.4-.6,1.65-1.73,3.17-3.24,4.48h0Zm38.93,33.02c-3.28-1.49-5.14-4.54-4.3-6.94.03-.1.07-.2.12-.3,1.12-2.44,4.79-3.16,8.21-1.6,3.41,1.55,5.28,4.8,4.17,7.24-.72,1.58-2.52,2.44-4.62,2.42-1.14-.01-2.38-.27-3.58-.82Z"/>
        <path class="cls-1" d="m181.19,74.15c-.6,1.65-1.73,3.17-3.24,4.48-6.17,5.41-18.66,7.69-26.84,3.55-8.45-4.28-6.52-12.48-15.25-16.75-9.2-4.5-14.72,2.95-27.81-.35-8.37-2.11-18.81-8.37-19.06-15.98v-.35c.06-7.2,9.22-12.66,11.03-13.75h0c19.34-11.55,45.17,1.1,50.28,3.75,14.57,7.57,34.87,24.34,30.89,35.4Z"/>
        <path class="cls-1" d="m225.08,110.05c-.72,1.58-2.52,2.44-4.62,2.42-1.14-.01-2.38-.27-3.58-.82-3.28-1.49-5.14-4.54-4.3-6.94.03-.1.07-.2.12-.3,1.12-2.44,4.79-3.16,8.21-1.6,3.41,1.55,5.28,4.8,4.17,7.24Z"/>
      </g>
    </g>
  </g>
</svg>