<?xml version="1.0" encoding="UTF-8"?>
<svg id="Calque_2" data-name="Calque 2" xmlns="http://www.w3.org/2000/svg" viewBox="0 0 227.83 162.18"  width="228" height="162">
  <defs>
    <style>
      .cls-1 {
        fill: #fff;
        stroke: #000;
        stroke-miterlimit: 10;
        stroke-width: 3px;
      }
    </style>
  </defs>
  <g id="Calque_2-2" data-name="Calque 2">
    <g id="Calque_2-2" data-name="Calque 2-2">
      <path class="cls-1" d="m193,67.39c7.91,8.87,14.87,17.61,18.77,22.5,4.42,5.55,7.89,10.31,10.18,14.38-4.3-10.12-14.53-23.36-28.95-36.88h0Zm5.86,56.5c-.11.01-.22.03-.33.05h.42c.16-.05.31-.09.47-.14-.19.03-.37.06-.56.09Z"/>
      <path class="cls-1" d="m156.39,39.11c-1.06.05-2.04.31-2.91.82h0c-4.32,2.52-4.27,10.71-4.16,27.07.15,23.53,5.84,31.48,0,41.63-5.52,9.6-15.44,10.92-14.57,14.57.06.26.17.51.34.74.16.26.39.5.67.72,1.43,1.14,4.18,1.85,7.65,2.29-2.7,1.35-4.63,3.17-5.54,5.61-.59,1.59-.71,3.36-.83,5.17-.21,3.3-.38,6.72-3.33,9.4-.46.42-.95.79-1.46,1.09-4.04,2.45-9.57,1.58-17.28.99-11.07-.85-22.21.07-33.31,0-1.42,0-2.75,0-4.02,0,9.49-8.39,15.47-20.66,15.47-34.32,0-25.29-20.51-45.8-45.8-45.8-13.63,0-25.86,5.95-34.25,15.4.36-11.94,1.54-15.1,1.27-26.96-.71-30.67-9.94-37.38-5.46-45.58C18.67-6.02,77.02.35,125.36,22.24c10.93,4.95,21.35,10.69,31.03,16.87Z"/>
      <path class="cls-1" d="m197.57,136.87c-.56.82-1.07,1.49-1.43,1.95-4.06,5.23-9.4,7.22-12.49,8.33-4.34,1.56-8.51,1.75-16.65,2.08-18.68.76-18.04-1.75-27.06,0-2.37.46-4.25.99-6.25,0-.52-.26-1.01-.6-1.45-1.01.51-.3,1-.67,1.46-1.09,2.95-2.68,3.12-6.1,3.33-9.4,6.1.25,15.71-.73,29.64-.86,14.67-.14,22.7.78,30.9,0h0Z"/>
      <path class="cls-1" d="m198.91,123.94h-.38c.11-.02.22-.04.33-.05.02.02.04.03.05.05Z"/>
      <path class="cls-1" d="m93.1,114.88c0,13.66-5.98,25.93-15.47,34.32h-.01c-8.08,7.15-18.69,11.48-30.32,11.48-25.3,0-45.8-20.5-45.8-45.8,0-11.66,4.37-22.32,11.55-30.4,8.39-9.45,20.62-15.4,34.25-15.4,25.29,0,45.8,20.51,45.8,45.8Z"/>
      <path class="cls-1" d="m225.44,123.63c-1.97,5.21-7.68,8.5-16.46,11.03-4.21,1.22-7.83,1.88-11.41,2.21-8.2.78-16.23-.14-30.9,0-13.93.13-23.54,1.11-29.64.86.12-1.81.24-3.58.83-5.17.91-2.44,2.84-4.26,5.54-5.61,1.69-.84,3.68-1.5,5.92-2.01h0c12.66-2.9,32.97-1.01,49.2-1h.38s0,0,0,.01c0-.01.02-.01.02-.01h0c11.4-.02,20.73-1,23.84-5.3.16-.21.3-.42.42-.65.3-.56.53-1.17.69-1.82.23.05.44.12.64.21.34.15.64.35.9.63,1.78,1.89.4,5.56,0,6.62h0Z"/>
      <path class="cls-1" d="m221.95,104.27c-2.29-4.07-5.76-8.83-10.18-14.38-3.9-4.89-10.86-13.63-18.77-22.5-10.28-9.64-22.69-19.41-36.61-28.28-1.06.05-2.04.31-2.91.82h0c-4.32,2.52-4.27,10.71-4.16,27.07.15,23.53,5.84,31.48,0,41.63-5.52,9.6-15.44,10.92-14.57,14.57.06.26.17.51.34.74.16.26.39.5.67.72,1.43,1.14,4.18,1.85,7.65,2.29,1.69-.84,3.68-1.5,5.92-2.01h0c12.66-2.9,32.97-1.01,49.2-1,.11-.02.22-.04.33-.05.19-.03.37-.06.56-.09-.16.05-.31.09-.47.14,11.4-.02,20.73-1,23.84-5.3.16-.21.3-.42.42-.65.3-.56.53-1.17.69-1.82.79-3.07.08-7.14-1.95-11.9h0Zm-52.17,10.55c-.84,2.46-3.17,4.23-5.91,4.23-2.44,0-4.55-1.4-5.58-3.44-.43-.84-.67-1.8-.67-2.81,0-3.45,2.8-6.25,6.25-6.25s6.25,2.8,6.25,6.25c0,.71-.12,1.39-.34,2.02Z"/>
      <path class="cls-1" d="m170.12,112.8c0,.71-.12,1.39-.34,2.02-.84,2.46-3.17,4.23-5.91,4.23-2.44,0-4.55-1.4-5.58-3.44-.43-.84-.67-1.8-.67-2.81,0-3.45,2.8-6.25,6.25-6.25s6.25,2.8,6.25,6.25Z"/>
    </g>
  </g>
</svg>