<?xml version="1.0" encoding="UTF-8"?>
<svg id="Calque_2" data-name="Calque 2" xmlns="http://www.w3.org/2000/svg" viewBox="0 0 342.8 191.76" width="343" height="191">
  <defs>
    <style>
      .cls-1 {
        fill: #fff;
        stroke: #000;
        stroke-miterlimit: 10;
        stroke-width: 3px;
      }
    </style>
  </defs>
  <g id="Calque_2-2" data-name="Calque 2">
    <g id="Calque_2-2" data-name="Calque 2-2">
      <path class="cls-1" d="m155.97,152.99c-.13,4.58-1.16,9.45-3.85,13.98-1.78,3-4.18,5.67-7.98,8.18-3.38,2.24-7.88,4.36-14.02,6.49-14.84,5.14-41.47,14.37-73.34,3.67-11.88-3.99-51.38-17.25-55.01-47.67-1.93-16.17,6.89-32.01,18.9-43.12.43,4.5,1.41,9.13,3.1,13.79,15.91,43.97,79.26,47.46,84.34,47.67h.23c11.71.45,23.86-1,35.52-4.27,3.88.44,7.92.86,12.11,1.27h0Z"/>
      <path class="cls-1" d="m331.81,170.64c-3.58,5.12-11.36,6.67-14.67,7.33-7.46,1.49-13.52.23-14.67,0-11.42-2.29-18.33.53-66.01,0-62.79-.7-50.87-5.6-80.68-3.67-4.3.27-8.15.61-11.64.85-10.75.76-18.18.67-25.03-4.52-4.57-3.46-8.34-8.76-10.77-14.64,11.71.45,23.86-1,35.52-4.27,3.88.44,7.92.86,12.11,1.27,10.13,1,21.12,1.96,32.83,2.98,0,0,42.06,3.67,128.35,3.67,5.36,0,6.47-.17,11,0,2.37.09,4.17.22,5.57.33.53,3.78.22,7.63-1.91,10.67h0Z"/>
      <path class="cls-1" d="m339.15,159.64c-1.03.74-2.05.59-5.43.33-1.4-.11-3.2-.24-5.57-.33-4.53-.17-5.64,0-11,0-86.29,0-128.35-3.67-128.35-3.67-11.71-1.02-22.7-1.98-32.83-2.98-4.19-.41-8.23-.83-12.11-1.27,4.03-1.13,8.01-2.48,11.88-4.05,13.04-5.26,24.98-12.96,34.36-22.98,3.64-3.89,6.9-8.13,9.69-12.72,7.13-11.73,12.68-28.21,11.71-40.11,8.11,2.28,15.61,5.02,21.3,7.1,26.86,9.81,26,14.77,58.67,29.34,25.75,11.48,36.5,12.96,44.01,25.67,5.63,9.53,7.82,22.66,3.67,25.67h0Z"/>
      <path class="cls-1" d="m199.79,111.97c-2.79,4.59-6.05,8.83-9.69,12.72-9.38,10.02-21.32,17.72-34.36,22.98-3.87,1.57-7.85,2.92-11.88,4.05-11.66,3.27-23.81,4.72-35.52,4.27h-.23c-5.08-.21-68.43-3.7-84.34-47.67-1.69-4.66-2.67-9.29-3.1-13.79-2.07-20.9,7.37-39.01,10.43-44.88v-.02C45.36,22.28,77.04-2.16,108.11,1.95c11.54,1.52,36.73,8.8,47.67,25.67,2.44,3.77,7.57,13.25,18.34,18.34,3.63,1.72,4.67,1.41,11,3.67,4.85,1.73,17.26,6.16,22,11,2.64,2.69,4,6.62,4.38,11.23.97,11.9-4.58,28.38-11.71,40.11Z"/>
    </g>
  </g>
</svg>