<?xml version="1.0" encoding="UTF-8"?>
<svg id="Calque_2" data-name="Calque 2" xmlns="http://www.w3.org/2000/svg" viewBox="0 0 239.16 203.02"  width="239" height="203">
  <defs>
    <style>
      .cls-1 {
        fill: #fff;
        stroke: #000;
        stroke-miterlimit: 10;
        stroke-width: 3px;
      }
    </style>
  </defs>
  <g id="Calque_2-2" data-name="Calque 2">
    <g id="Calque_2-2" data-name="Calque 2-2">
      <g id="tete">
        <path class="cls-1" d="m219.59,183.48c-1.9,4.47-3.88,9.14-9,13-5.92,4.46-12.12,4.89-14,5-4.89.27-5.77-1.1-12-2-7.62-1.11-10.3.36-22,1,0,0-7.14.39-17,0-13.04-.51-42.48-7.09-46-25-.51-2.57-.46-5.31.02-8.07.71,2.77,2.02,5.25,3.98,7.07,5.78,5.35,13.53-4.22,25,0,9.69,3.57,10.16,12.1,19,13,5.63.57,6.05-2.83,15-4,10.89-1.43,14.42,3.06,19,0,2.58-1.72,2.95-4.13,3.63-7.06,1.64-.02,3.43,0,5.37.06,4,.12,8,0,12,0,7,0,9.07.04,12-1,4.28-1.52,5.89-3.74,7-3,2.04,1.35-1.56,9.97-2,11h0Z"/>
        <path class="cls-1" d="m29.35,3.39c-1.48-.49-2.94-.94-4.49-1.44,1.57.36,3.08.89,4.49,1.44Z"/>
        <path class="cls-1" d="m45.31,11.11c-2.22-1.21-3.42-1.88-5.44-2.97,1.89.96,3.7,1.96,5.44,2.97Z"/>
        <path class="cls-1" d="m201.59,110.48c-9.21-5.61-18.77-2.43-20-2-7.48,2.63-13.04,8.84-15,16-.22.82-3.24,12.44,3,18,2.12,1.89,6.11,2.29,14,3,9.31.84,13.96,1.26,17,0,5.81-2.42,11.71-8.79,12-17,.37-10.53-8.73-16.62-11-18ZM29.35,3.39l.24.09c3.47,1.37,6.72,2.85,9.79,4.4-3.88-2.28-6.98-3.49-10.03-4.49Z"/>
        <path class="cls-1" d="m235.59,136.48c-2.07-7.41-5.39-12.84-11-22-4.62-7.54-7.86-12.75-14-18-5-4.28-10.78-9.23-19-10-6.14-.58-12.76,1.26-19,3-6.49,1.8-9.27,3.38-13,2-3.61-1.33-2.95-3.53-8-7-1.97-1.35-6.71-4.61-13-5-3.78-.23-6.04.7-8-1-1.54-1.34-1.52-3.1-2-5-.8-3.14-2.73-5.52-14-14-3.3-2.49-4.95-3.65-11-8-9.03-6.5-13.57-9.77-15-11-7.39-6.34-6.96-7.95-13-12-3.67-2.46-3.68-1.77-11-6-7.59-4.38-7.48-5.07-13-8-2.84-1.51-4.73-2.53-6.19-3.32-.03-.02-.06-.03-.09-.05-2.22-1.21-3.42-1.88-5.44-2.97-.14-.07-.28-.14-.42-.22-.02,0-.05-.03-.07-.04-3.07-1.55-6.32-3.03-9.79-4.4l-.24-.09c-1.48-.49-2.94-.94-4.49-1.44-.02,0-.03,0-.05-.02-.05,0-.1-.02-.15-.03-2.66-.58-5.45-.65-8.07.58-3.33,1.56-5.78,4.94-10,21-3.69,14.04-5.53,21.06-5,26,1.55,14.38,10.89,23.84,14,27,7.96,8.07,16.78,11.7,24.94,14,3.43,3.33,7.45,6.76,10.06,9,7.24,6.19,7.79,5.88,15,12,10.71,9.09,10.64,10.73,15,12,2.67.78,7.12.85,16,1,6.36.11,7.78-.14,10,1,4.46,2.3,8.02,8.14,7,13-1.13,5.35-6.85,5.01-11,11-3.31,4.79-4.5,12.01-2.98,17.92h0c.71,2.78,2.02,5.26,3.98,7.08,5.78,5.35,13.53-4.22,25,0,9.69,3.57,10.16,12.1,19,13,5.63.57,6.05-2.83,15-4,10.89-1.43,14.42,3.06,19,0,2.58-1.72,2.95-4.13,3.63-7.06.61-2.61,1.48-5.62,4.37-8.94,4.22-4.84,9.46-6.52,11-7,6.66-2.05,15.01-1.43,21,3,6.87,5.08,6.5,12.19,9,12,4.68-.36,10.13-20.62,5-39Zm-141-59c-1.95,1.38-4.02,2.34-6.15,2.95-12.96,3.77-28.12-4.93-29.85-5.95-13.49-7.98-18.5-20.93-22-30-5.53-14.3-8.24-33.64-3-36,2.38-1.07,6.25,2.28,14,9,12.84,11.14,14.73,16.78,25,22,2.42,1.23,3.19,1.36,4.77,1.88,1.09.36,2.56.9,5.23,2.12,12.02,5.49,19.27,8.8,21,15,1.87,6.7-3.22,14.89-9,19Zm106,68c-3.04,1.26-7.69.84-17,0-7.89-.71-11.88-1.11-14-3-6.24-5.56-3.22-17.18-3-18,1.96-7.16,7.52-13.37,15-16,1.23-.43,10.79-3.61,20,2,2.27,1.38,11.37,7.47,11,18-.29,8.21-6.19,14.58-12,17Z"/>
        <path class="cls-1" d="m94.59,77.48c-1.95,1.38-4.02,2.34-6.15,2.95-12.96,3.77-28.12-4.93-29.85-5.95-13.49-7.98-18.5-20.93-22-30-5.53-14.3-8.24-33.64-3-36,2.38-1.07,6.25,2.28,14,9,12.84,11.14,14.73,16.78,25,22,2.42,1.23,3.19,1.36,4.77,1.88,1.09.36,2.56.9,5.23,2.12,12.02,5.49,19.27,8.8,21,15,1.87,6.7-3.22,14.89-9,19Z"/>
        <path class="cls-1" d="m212.59,128.48c-.29,8.21-6.19,14.58-12,17-3.04,1.26-7.69.84-17,0-7.89-.71-11.88-1.11-14-3-6.24-5.56-3.22-17.18-3-18,1.96-7.16,7.52-13.37,15-16,1.23-.43,10.79-3.61,20,2,2.27,1.38,11.37,7.47,11,18Z"/>
      </g>
    </g>
  </g>
</svg>