<?xml version="1.0" encoding="UTF-8"?>
<svg id="Calque_2" data-name="Calque 2" xmlns="http://www.w3.org/2000/svg" viewBox="0 0 315 147" width="315" height="147">
  <defs>
    <style>
      .cls-1 {
        fill: #fff;
        stroke: #000;
        stroke-miterlimit: 10;
        stroke-width: 3px;
      }
    </style>
  </defs>
  <g id="Calque_2-2" data-name="Calque 2">
    <g id="Calque_2-2" data-name="Calque 2-2">
      <path class="cls-1" d="m64.29,117.11c1.72,9.11,14.41,17.01,28.65,20.65-8.54,4.95-18.2,7.74-28.44,7.74C29.71,145.5,1.5,113.26,1.5,73.5S29.71,1.5,64.5,1.5c12.17,0,23.54,3.95,33.17,10.78-11.28,7.68-16.51,25.79-16.12,39.64.16,5.44.64,22.54,12.18,30.49.01.01.02.01.03.02-15.99,10.05-31.67,23.07-29.47,34.68Z"/>
      <g>
        <path class="cls-1" d="m298.32,81.4c-12.1,7.78-20.21,3.45-43.78,7.62-6.29,1.11-19.09,3.46-33.89,10.04-20.14,8.95-23.26,16.52-41.86,21.19-5.12,1.28-9.7,1.92-18.18,4.72-9.36,3.09-12.86,5.31-20.33,8.12-9.73,3.67-19.98,6.01-26.51,6.61-6.59.6-13.89-.16-20.83-1.94-14.24-3.64-26.93-11.54-28.65-20.65-2.2-11.61,13.48-24.63,29.47-34.68,6.15,4.22,11.79,3.32,33.24.11,3.81-.56,8.11-1.2,13.01-1.9,7.52-1.07,13.89-1.97,19.63-2.73l2.31,12.94,2.41-.43c4.89-.87,8.15-5.55,7.28-10.44l-.61-3.44c.93-.1,1.85-.19,2.77-.28l2.15,12.06,2.42-.43c4.89-.88,8.15-5.55,7.27-10.44l-.37-2.08c.89-.05,1.75-.09,2.57-.13l2.11,11.8,2.41-.43c4.89-.87,8.15-5.55,7.28-10.44l-.17-.95c.74.03,1.45.07,2.15.11l2.32,12.99,2.41-.43c4.89-.88,8.15-5.55,7.28-10.44l-.23-1.3c.83.05,1.69.1,2.61.14l1.92,10.75,2.41-.43c4.78-.86,8-5.33,7.32-10.1.77,0,1.57,0,2.39-.01l1.88,10.55,2.41-.44c4.85-.86,8.1-5.46,7.3-10.32.98-.03,1.93-.06,2.87-.09l2.5,8.65,2.36-.68c3.91-1.14,6.46-4.69,6.5-8.57,2.7-.19,5.22-.4,7.58-.65l1.87,6.46,1.13-.33c3.51-1.01,5.92-3.98,6.4-7.37.78-.13,1.54-.26,2.28-.4l2.72,6.19,1.07-.47c3.27-1.43,5.26-4.58,5.37-7.93,5.26-1.61,9.19-3.54,12.72-5.73,2.93-1.83,9-5.59,12.38-10.19,1.68.88,2.98,2.06,3.63,3.62,2.59,6.21-5.72,16.82-14.7,22.6h0Z"/>
        <path class="cls-1" d="m171.64,79.98c.87,4.89-2.39,9.57-7.28,10.44l-2.41.43-2.31-12.94c4.05-.53,7.79-.99,11.39-1.37l.61,3.44Z"/>
        <path class="cls-1" d="m185.64,77.45c.88,4.89-2.38,9.56-7.27,10.44l-2.42.43-2.15-12.06c3.15-.31,6.24-.57,9.39-.77.72-.05,1.41-.09,2.08-.12,0,0,.37,2.08.37,2.08Z"/>
        <path class="cls-1" d="m199.64,76.17c.87,4.89-2.39,9.57-7.28,10.44l-2.41.43-2.11-11.8c4.81-.2,8.4-.17,11.63-.02l.17.95Z"/>
        <path class="cls-1" d="m213.63,77.45c.87,4.89-2.39,9.56-7.28,10.44l-2.41.43-2.32-12.99c3.68.23,7.13.57,11.78.82l.23,1.3h0Z"/>
        <path class="cls-1" d="m227.66,76.51c.68,4.77-2.54,9.24-7.32,10.1l-2.41.43-1.92-10.75c3.2.14,6.97.23,11.65.22h0Z"/>
        <path class="cls-1" d="m241.64,76.29c.8,4.86-2.45,9.46-7.3,10.32l-2.41.44-1.88-10.55h.05c4.1-.03,7.94-.11,11.53-.21h.01Z"/>
        <path class="cls-1" d="m244.51,76.2c4.11-.16,7.88-.35,11.36-.6-.04,3.88-2.59,7.43-6.5,8.57l-2.36.68-2.5-8.65Z"/>
        <path class="cls-1" d="m263.45,74.95c3.46-.35,6.57-.77,9.4-1.24-.48,3.39-2.89,6.36-6.4,7.37l-1.13.33s-1.87-6.46-1.87-6.46Z"/>
        <path class="cls-1" d="m284.29,71.1c-.11,3.35-2.1,6.5-5.37,7.93l-1.07.47-2.72-6.19c3.48-.65,6.49-1.39,9.16-2.21Z"/>
        <path class="cls-1" d="m284.29,71.1c-.11,3.35-2.1,6.5-5.37,7.93l-1.07.47-2.72-6.19c3.48-.65,6.49-1.39,9.16-2.21Z"/>
        <path class="cls-1" d="m272.85,73.71c-.48,3.39-2.89,6.36-6.4,7.37l-1.13.33-1.87-6.46c3.46-.35,6.57-.77,9.4-1.24Z"/>
        <path class="cls-1" d="m255.87,75.6c-.04,3.88-2.59,7.43-6.5,8.57l-2.36.68-2.5-8.65c4.11-.16,7.88-.35,11.36-.6Z"/>
        <path class="cls-1" d="m234.34,86.61l-2.41.44-1.88-10.55h.05c4.1-.03,7.94-.11,11.53-.21h0c.8,4.86-2.45,9.46-7.3,10.32h0Z"/>
        <path class="cls-1" d="m220.34,86.61l-2.41.43-1.92-10.75c3.2.14,6.97.23,11.65.22.68,4.77-2.54,9.24-7.32,10.1h0Z"/>
        <path class="cls-1" d="m206.35,87.89l-2.41.43-2.32-12.99c3.68.23,7.13.57,11.78.82l.23,1.3c.87,4.89-2.39,9.56-7.28,10.44h0Z"/>
        <path class="cls-1" d="m192.36,86.61l-2.41.43-2.11-11.8c4.81-.2,8.4-.17,11.63-.02l.17.95c.87,4.89-2.39,9.57-7.28,10.44Z"/>
        <path class="cls-1" d="m178.37,87.89l-2.42.43-2.15-12.06c3.15-.31,6.24-.57,9.39-.77.72-.05,1.41-.09,2.08-.12l.37,2.08c.88,4.89-2.38,9.56-7.27,10.44Z"/>
        <path class="cls-1" d="m164.36,90.42l-2.41.43-2.31-12.94c4.05-.53,7.79-.99,11.39-1.37l.61,3.44c.87,4.89-2.39,9.57-7.28,10.44Z"/>
        <path class="cls-1" d="m309.39,55.18c-3.38,4.6-9.45,8.36-12.38,10.19-3.53,2.19-7.46,4.12-12.72,5.73-2.67.82-5.68,1.56-9.16,2.21-.74.14-1.5.27-2.28.4-2.83.47-5.94.89-9.4,1.24-2.36.25-4.88.46-7.58.65-3.48.25-7.25.44-11.36.6-.94.03-1.89.06-2.87.09h0c-3.59.1-7.43.18-11.53.21h-.05c-.82.01-1.62.01-2.39.01-4.68.01-8.45-.08-11.65-.22-.92-.04-1.78-.09-2.61-.14-4.65-.25-8.1-.59-11.78-.82-.7-.04-1.41-.08-2.15-.11-3.23-.15-6.82-.18-11.63.02-.82.04-1.68.08-2.57.13-.67.03-1.36.07-2.08.12-3.15.2-6.24.46-9.39.77-.92.09-1.84.18-2.77.28-3.6.38-7.34.84-11.39,1.37-5.74.76-12.11,1.66-19.63,2.73-4.9.7-9.2,1.34-13.01,1.9-21.45,3.21-27.09,4.11-33.24-.11-.01-.01-.02-.01-.03-.02-11.54-7.95-12.02-25.05-12.18-30.49-.39-13.85,4.84-31.96,16.12-39.64,1.45-1,3-1.82,4.66-2.43,7.16-2.65,10.75,1.89,34.6,8.47,29.74,8.19,38.85,13.11,61.49,16.36,21.06,3.02,31.5,1.41,35.18.75,11.53-2.06,12.87-4.76,23.73-5.98,3.91-.44,18.76-1.85,35.51,4.76,8.46,3.34,18.1,7.14,18.89,13.79v.02c.31,2.5-.7,4.93-2.34,7.16h0Z"/>
      </g>
    </g>
  </g>
</svg>