<?xml version="1.0" encoding="UTF-8"?>
<svg id="Calque_2" data-name="Calque 2" xmlns="http://www.w3.org/2000/svg" viewBox="0 0 254.99 229.2" width="255" height="229">
  <defs>
    <style>
      .cls-1 {
        fill: #fff;
        stroke: #000;
        stroke-miterlimit: 10;
        stroke-width: 3px;
      }
    </style>
  </defs>
  <g id="Calque_2-2" data-name="Calque 2">
    <g id="Calque_2-2" data-name="Calque 2-2">
      <path class="cls-1" d="m231.09,225.79c-.73,1.78-9.11-.41-26.38-4.21-33.26-7.31-59.92-11.88-66.73-12.97-59.7-9.57-79.11,9.62-105.11-9.82-3.56-2.66-17.64-13.19-17.89-28.37-.24-14.36,12.01-27.7,25.87-33.35,10.57,8.79,26.42,17.26,28.25,18.22,57.98,30.57,87.86,46.13,131.44,59.74,3.13.98,16.23,5.04,28.62,8.3,1.5,1.07,2.17,1.87,1.93,2.46h0Z"/>
      <path class="cls-1" d="m253.46,226.98c-.76,1.98-12.19-.45-24.3-3.65-12.39-3.26-25.49-7.32-28.62-8.3-43.58-13.61-73.46-29.17-131.44-59.74-1.83-.96-17.68-9.43-28.25-18.22-6.13-5.09-10.48-10.29-9.3-14.21,1.01-3.35,5.67-4.49,11.95-13.66,2.58-3.77,4.48-6.54,5.12-10.24,1.36-7.9-3.92-14.88-6.83-18.78,0,0-5.34-7.15-23.9-34.14C5.07,27.4-1.09,3.8,2.53,1.66h0C6.58-.75,22.89,23.85,77.64,88.71c13.17,15.6,25.8,30.26,44.38,47.8,6.63,6.26,19.63,18.18,35.85,30.73,52.31,40.47,97.13,55.74,95.59,59.74h0Z"/>
    </g>
  </g>
</svg>