<?xml version="1.0" encoding="UTF-8"?>
<svg id="Calque_2" data-name="Calque 2" xmlns="http://www.w3.org/2000/svg" viewBox="0 0 216.87 157.77" width="216" height="157">
  <defs>
    <style>
      .cls-1 {
        fill: #fff;
        stroke: #000;
        stroke-miterlimit: 10;
        stroke-width: 3px;
      }
    </style>
  </defs>
  <g id="Calque_2-2" data-name="Calque 2">
    <g id="Calque_2-2" data-name="Calque 2-2">
      <g id="tete">
        <path class="cls-1" d="m201.03,141.04c-2.47,3.83-7.5,5.59-11.9,7.12-9.06,3.16-16.76,1.77-18.55,1.41-6.37-1.28-7.63-3.51-12.84-5.25-9.6-3.21-18.48-.08-24.74,1.88-17.35,5.42-38.48,9.29-49.01,9.94-23.68,1.46-54.56-9.61-58.01-26.7-1.28-6.35,1.37-12.82,5.5-18.64,5.74,2.74,11.97,4.36,18.3,4.39,12.33.07,14.5-5.93,30.45-8.53,4.47-.73,11.47-1.43,37.58,3.37,38.83,7.14,63.26,13.86,63.26,13.86,9.31,2.56,15.99,4.62,20.9,5.5,1.08,4.24,1.14,8.42-.94,11.65h0Z"/>
        <path class="cls-1" d="m212.46,127.73c-2.26,2.26-5.45,2.58-10.49,1.66-4.91-.88-11.59-2.94-20.9-5.5,0,0-24.43-6.72-63.26-13.86-26.11-4.8-33.11-4.1-37.58-3.37-15.95,2.6-18.12,8.6-30.45,8.53-6.33-.03-12.56-1.65-18.3-4.39-8.31-3.97-15.6-10.28-20.69-17.53C.15,78.12,1.31,62.07,1.79,56.63h0C4.3,27.86,27.29,12.37,29.42,10.99,44.38,1.28,59.23,1.41,72.24,1.52c11.75.11,34,.3,50.89,14.8,13.94,11.97,6.18,18.19,21.37,35.7,11.84,13.65,33.78,29.74,52.77,39.54,2.7,1.39,9,4.55,13.31,11.43,4.84,7.72,6.91,19.72,1.88,24.74Z"/>
      </g>
    </g>
  </g>
</svg>