<?xml version="1.0" encoding="UTF-8"?>
<svg id="Calque_2" data-name="Calque 2" xmlns="http://www.w3.org/2000/svg" viewBox="0 0 118.48 320.65" width="118" height="360">
  <defs>
    <style>
      .cls-1 {
        fill: #fff;
      }
    </style>
  </defs>
  <g id="Calque_2-2" data-name="Calque 2">
    <g id="Calque_1-2" data-name="Calque 1-2">
      <g id="aile-d">
        <path class="cls-1" d="m93.21,319.15c-.88-.03-4.56-3.59-15.08-48.33l-.09-.37c-7.15-30.45-15.26-64.96-20.51-101.56-1.47-10.27-4.06-20.47-6.56-30.33-1.68-6.63-3.42-13.48-4.79-20.27-.25-1.26-1.03-5.09-3.21-9.63-2.79-5.78-6.28-9.4-8.16-11.35l-.36-.38c-3.3-3.46-6.92-9.74-14.14-22.26l-.08-.13c-7.91-13.72-11.86-20.57-14.3-28.56-3.7-12.08-7.2-23.5-1.2-32.77C9.96,5.12,20.41,1.51,28.45,1.51c.26,0,.51,0,.76.01l.85.02c.7.07,1.22.21,2.5.57,1.61.45,4.31,1.2,9.77,2.44,4.32.98,7.73,1.68,10.47,2.24,6.54,1.33,8.63,1.81,9.07,3.01.35.96-.23,1.87-1.84,4.05-1.87,2.51-4.42,5.95-5.45,11.67-.32,1.8-1.3,7.29,1.12,13.2.57,1.42,1.41,2.86,7.49,9.71,2.57,2.89,4.12,4.55,5.49,6.01,1.45,1.55,2.71,2.89,4.81,5.31,2.48,2.86,3.58,4.27,4.23,5.11.75.96,1.05,1.36,2.12,2.27,2.05,1.75,3.91,2.85,5.4,3.73,2.14,1.27,3.56,2.1,4.54,4.05.34.66.36.89.45,1.97.06.77.16,1.93.44,3.76.51,3.38,1.88,10.07,5.29,16.94,2.79,5.64,4.64,6.7,6.21,7,.32.06.64.09.97.09h0c.76,0,1.42-.15,2-.28.43-.1.8-.18,1.1-.18.22,0,.37.04.54.16.62.41,1.09,1.49,1.51,2.43.33.76.5,1.39.6,1.8-.75-.54-1.46-.81-2.14-.81-.17,0-.31.02-.43.04-2.18.33-2.95,3.09-3.24,4.13-1.89,6.83,5.01,18.27,5.3,18.75,2.23,3.66,3.56,13.47,5.97,31.26l.02.12c3.58,26.5,2.63,50.43,2.05,59.49-2.94,46.5-15.06,97.56-23.16,97.57h-.04Z"/>
        <path d="m28.45,3.01c.24,0,.48,0,.71.01l.72.02c.59.05,1.03.18,2.27.52,1.62.45,4.34,1.21,9.84,2.46,4.34.99,7.76,1.68,10.51,2.24,3.92.8,7.3,1.49,7.96,2.05v.02c0,.42-.99,1.74-1.64,2.61-1.84,2.48-4.63,6.23-5.72,12.31-.91,5.12-.51,9.84,1.2,14.02.65,1.61,1.5,3.1,7.76,10.14,2.58,2.91,4.14,4.58,5.52,6.04,1.44,1.54,2.69,2.87,4.77,5.27,2.45,2.82,3.53,4.22,4.18,5.05.82,1.06,1.2,1.53,2.33,2.49,2.15,1.83,4.07,2.97,5.61,3.88,2.2,1.3,3.21,1.94,3.97,3.44q.2.4.29,1.42c.07.79.17,1.98.45,3.87.53,3.47,1.93,10.34,5.43,17.38,2.49,5.03,4.6,7.29,7.3,7.81.4.07.81.11,1.22.11.92,0,1.7-.18,2.33-.32.19-.04.42-.09.59-.12.11.13.22.34.34.57-.1,0-.2.02-.3.04-3.15.49-4.14,4.04-4.48,5.25-2.02,7.28,4.71,18.62,5.48,19.89,2.07,3.39,3.38,13.08,5.76,30.65l.02.15c3.56,26.36,2.61,50.18,2.04,59.2-1.29,20.43-4.78,44.97-9.11,64.03-6.02,26.49-10.94,31.19-12.22,31.98-1.36-1.8-5.29-10-13.99-47.02l-.08-.35c-7.15-30.42-15.25-64.91-20.49-101.45-1.48-10.35-4.08-20.59-6.59-30.49-1.68-6.61-3.41-13.45-4.78-20.2-.26-1.31-1.06-5.28-3.33-9.99-2.89-5.99-6.49-9.73-8.43-11.74l-.35-.37c-3.18-3.33-6.77-9.56-13.92-21.97l-.08-.14-.03-.05c-7.82-13.56-11.74-20.37-14.13-28.2C3.78,33.79.38,22.7,6,14.02,10.91,6.41,20.82,3.01,28.45,3.01m.81-3.01h-.01v.02c-.26,0-.53-.01-.8-.01C20.09,0,9.05,3.77,3.48,12.39c-6.37,9.85-2.76,21.65,1.03,34.02,2.49,8.16,6.47,15.06,14.43,28.87,7.33,12.72,10.99,19.08,14.43,22.68,1.73,1.81,5.38,5.39,8.25,11.34,2.1,4.37,2.84,8.04,3.09,9.28,3.43,16.92,8.89,33.44,11.34,50.52,5.28,36.81,13.27,70.77,20.62,102.06,11.28,47.97,14.84,49.44,16.5,49.49.03,0,.06,0,.09,0,10.92,0,22.12-58.92,24.65-98.97.37-5.82,1.81-31.14-2.06-59.79-2.53-18.68-3.79-28.02-6.19-31.96,0,0-6.88-11.29-5.15-17.53.21-.75.79-2.9,2.06-3.09.05,0,.11-.02.18-.02.34,0,.93.16,1.88,1.05,2.43,2.25,2.86,5.15,3.08,5.15,0,0,0,0,0,0,.31-.08-1.05-5.86-1.33-7.04-.11-.47-.3-1.26-.73-2.24-.51-1.17-1.07-2.44-2.06-3.09-.46-.3-.91-.4-1.36-.4-.97,0-1.97.46-3.1.46-.22,0-.45-.02-.68-.06-.94-.18-2.5-.84-5.15-6.19-3.71-7.48-4.87-14.66-5.15-16.5-.67-4.44-.25-4.65-1.03-6.19-1.98-3.93-5.46-4.12-10.31-8.25-1.84-1.56-1.02-1.27-6.19-7.22-4.13-4.76-5.06-5.42-10.31-11.34-6.1-6.87-6.75-8.12-7.22-9.28-2.21-5.4-1.36-10.52-1.03-12.37,1.8-10.06,8.64-12.61,7.22-16.5-1.03-2.82-5.04-2.64-20.62-6.19C31.25.49,32.03.08,29.26,0h0Z"/>
      </g>
    </g>
  </g>
</svg>