<?xml version="1.0" encoding="UTF-8"?>
<svg id="Calque_2" data-name="Calque 2" xmlns="http://www.w3.org/2000/svg" viewBox="0 0 149.6 289.35" width="150" height="289">
  <defs>
    <style>
      .cls-1 {
        fill: #fff;
        stroke: #000;
        stroke-miterlimit: 10;
        stroke-width: 3px;
      }
    </style>
  </defs>
  <g id="Calque_2-2" data-name="Calque 2">
    <g id="Calque_1-2" data-name="Calque 1-2">
      <path class="cls-1" d="m90.25,156.55c-4.62,7.84-7.9,9.83-11.35,18.91-3.81,10.03-2.53,14.76-7.31,20.5.58-1.96.78-3.62-.24-5.4-2.92-5.1-12.61-5.53-18.91-3.78h0c-4.83,1.35-8.33,4.17-10.8,6.94-.21-.42-.39-.84-.55-1.25-2.09-5.34-.29-8.73,0-15.13.47-10.33-3.69-13.42-7.56-26.47-3.26-10.98-7.36-24.81-1.89-37.82.24-.6,1.19-2.75,2.98-5.48,2.88-4.4,7.97-10.27,15.93-13.43h0c18.71-7.43,43.02,4.22,49.16,20.81.94,2.54,1.44,5.16,1.6,7.79h0c.83,13.63-7.45,27.69-11.05,33.81Z"/>
      <path class="cls-1" d="m101.59,113.06c.01,3.01,0,6.3-.29,9.68-.16-2.63-.66-5.25-1.6-7.79-6.14-16.59-30.45-28.24-49.16-20.8h0c-7.96,3.15-13.05,9.02-15.93,13.42-.51-2.38-1.39-4.9-2.98-7.75-6.17-11.05-13.36-9.75-20.8-18.91C-.62,66.82-1.87,41.25,8.94,24.18,25.36-1.75,67.29-4.41,88.36,10.94h-.01c13.07,9.53,13.12,40.39,13.24,102.12Z"/>
      <path class="cls-1" d="m74.67,236.34c-.46-.14-.94-.26-1.43-.37-5.48-1.18-12.17-.03-17.02,3.78h0c-5.8,4.55-7.23,11.58-7.56,13.23-.5,2.47-.28,3.44-.09,5.16-.87-.61-1.49-1.11-1.8-1.38-5.35-4.47-7.35-12.44-11.35-28.36-1.56-6.22-2.02-9.49-1.89-13.24.1-3.04.36-8.92,3.78-15.13.7-1.27,2.08-3.78,4.33-6.31,2.47-2.77,5.97-5.59,10.8-6.93h0c6.3-1.76,15.99-1.33,18.91,3.77,1.02,1.78.82,3.44.24,5.4-.92,3.15-2.81,7.07-2.13,13.51.59,5.6,2.27,4.98,3.78,13.24,1.35,7.43.25,9.28,1.43,13.63h0Z"/>
      <g id="pied-d">
        <path class="cls-1" d="m128.81,282.92c-1.68.14-3.81.22-6.41.32-3.97.15-5.41.04-13.24,0-5.34-.02-8.61-.04-10.28-.02-.2-.57-.41-.98-.54-1.23-.78-1.49-1.44-2.76-2.9-3.63-.38-.23-2.25-.46-3.3-.58-.57-.06-1.16.19-1.43.7-.8,1.47-.6,3.92.45,4.57.36.22.82.18,1.49.28-2,.02-3.9.01-4.29-.09-4-1.04-4.16-2.75-7.56-3.78-3.33-1.01-4.16.55-13.24,1.89-6.12.9-10.23,1.55-15.13,0-1.93-.61-2.92-.94-3.78-1.89-2.51-2.78-.53-6.76,0-15.13.2-3.15.06-4.89-.09-6.19-.19-1.72-.41-2.69.09-5.16.33-1.65,1.76-8.68,7.56-13.24h0c4.85-3.8,11.54-4.95,17.02-3.77.49.11.97.23,1.43.37,14.91,4.5,14.74,26.16,30.72,29.88,7.51,1.75,11.5-2.12,18.91,1.89,1.05.57,2.05,1.23,2.99,1.96-1.36.32-2.61.9-3.28,1.94-2.53,3.93,1.89,9.98,4.8,10.91h0Z"/>
        <path class="cls-1" d="m147.99,284.03c-.35,1.17-1.48,2.41-2.81,2.53-2.27.2-2.66-2.81-6.47-3.86-2.38-.66-9.34.24-9.89.22h0c-2.91-.93-7.33-6.98-4.8-10.91.67-1.04,1.92-1.62,3.28-1.94,2.16-.51,4.6-.34,5.4-.26,3.71.38,6.21,2.28,9.13,4.51.98.75,3.25,2.59,5.05,5.63,1.41,2.39,1.31,3.45,1.12,4.08Z"/>
        <path class="cls-1" d="m99.34,285.29c.01,1.86-1.52,3.01-1.98,2.4-.97-.35-.45-1.88-1.82-3.05-.84-.72-1.75-1.03-2.08-1.13h0s-.04-.02-.06-.02c-.26-.08-.5-.13-.72-.16h-.02c-.67-.1-1.13-.06-1.49-.28-1.05-.65-1.25-3.1-.45-4.57.27-.51.86-.76,1.43-.7,1.05.12,2.92.35,3.3.58,1.46.87,2.12,2.14,2.9,3.63.13.25.34.66.54,1.23,0,.01.01.02.01.03.2.56.38,1.25.45,2.04h-.01Z"/>
      </g>
    </g>
  </g>
</svg>