<?xml version="1.0" encoding="UTF-8"?>
<svg id="Calque_2" data-name="Calque 2" xmlns="http://www.w3.org/2000/svg" viewBox="0 0 150.53 138.32" width="150" height="138">
  <defs>
    <style>
      .cls-1 {
        fill: #fff;
        stroke: #000;
        stroke-miterlimit: 10;
        stroke-width: 3px;
      }
    </style>
  </defs>
  <g id="Calque_2-2" data-name="Calque 2">
    <g id="Calque_1-2" data-name="Calque 1-2">
      <g id="bras-d">
        <path class="cls-1" d="m56.3,65.22c-5.47-1.69-7.83-2.87-11.8-1.66-6.9,2.11-10.41,8.92-12,12-1.04,2.01-3.48,6.75-3.58,11.63-4.77-1.49-8.49-4.22-10.42-5.63C1.62,69.2,1.53,45.79,1.5,39.56c-.03-6.17-.13-31.54,14-37,6.52-2.52,14.84-.32,20,4,1.84,1.54,3.66,3.67,8,16,4.96,14.12,4.44,16.65,9,31,2.02,6.37,3.25,9.42,3.8,11.66Z"/>
        <path class="cls-1" d="m145.5,121.56c-2.58,4.64-6.67,8.69-8,8-.59-.3-.48-1.45,0-9,.31-4.92.36-5.88,0-6-1.11-.37-3.06,8.25-10,15-5.85,5.69-13.21,8.09-14,7-.91-1.25,7.9-5.74,11-16,1.94-6.41.77-12.19,0-16-1.14-5.63-2.09-10.36-6-13-2.05-1.39-5.37-1.59-12-2-3.88-.24-6.87-.42-11,0-2.31.24-7.27.78-13,3-7.54,2.93-6.98,5.1-13,7-2.34.74-6.56.83-15,1-10.56.22-12.84-.24-15-1-2.92-1.03-6.79-2.39-9-6-1.22-2-1.64-4.2-1.58-6.37.1-4.88,2.54-9.62,3.58-11.63,1.59-3.08,5.1-9.89,12-12,3.97-1.21,6.33-.03,11.8,1.66,2.36.73,5.3,1.56,9.2,2.34,7.36,1.46,13.08,1.73,19,2,5.1.24,11.06.16,23,0,3.33-.04,6.67.09,10,0,8.23-.23,10.91-.89,14,1,1.61.99,2.74,2.66,5,6,2.82,4.17,4.5,7.71,6,11,3.8,8.31,5.7,12.47,6,14,.28,1.43,2.04,10.94-3,20Z"/>
      </g>
    </g>
  </g>
</svg>