<?xml version="1.0" encoding="UTF-8"?>
<svg id="Calque_2" data-name="Calque 2" xmlns="http://www.w3.org/2000/svg" viewBox="0 0 191.73 117.68" width="192" height="117">
  <defs>
    <style>
      .cls-1 {
        fill: #fff;
      }
    </style>
  </defs>
  <g id="Calque_2-2" data-name="Calque 2">
    <g id="Calque_1-2" data-name="Calque 1-2">
      <g id="n-d">
        <g>
          <path class="cls-1" d="m52.08,116.18c-2.11,0-4.13-.03-6.05-.07-22.78-.41-44.4-5.73-44.53-9.55-.05-1.44,5.59-3.59,12.11-6.08,2.62-1,5.59-2.13,8.95-3.48,7.32-2.94,9.45-4.08,14.13-6.58,5.09-2.73,12.79-6.85,32.96-16.45,16.43-7.82,27.22-12.65,34.37-15.84,12.7-5.68,15.72-7.03,21.96-12.37,13.57-11.6,20.35-17.4,27.25-27.28,1.59-2.27,2.91-4.36,4.08-6.2,3.53-5.56,5.66-8.92,10.11-10.22,1.25-.37,2.63-.55,4.09-.55,6.94,0,15.6,4.34,18.07,11.6,3.24,9.52-6.43,19.23-11.63,24.45-4.19,4.2-7.4,5.96-11.47,8.18-1.84,1-3.92,2.14-6.28,3.62-9.05,5.69-13,10.7-18,17.03-3.14,3.98-6.7,8.49-12.27,14.19-8.81,9-19.74,20.17-36.54,27.68-15.64,6.99-29.66,7.94-41.31,7.94Z"/>
          <path d="m171.51,3c6.28,0,14.43,4.04,16.65,10.58,2.94,8.64-6.31,17.92-11.28,22.92-4.02,4.04-7.15,5.75-11.12,7.91-1.86,1.01-3.96,2.16-6.36,3.67-9.27,5.83-13.29,10.92-18.38,17.37-3.12,3.95-6.65,8.42-12.2,14.1-8.69,8.88-19.51,19.93-36.05,27.33-15.38,6.88-29.21,7.81-40.7,7.81-2.15,0-4.23-.03-6.02-.07-9.25-.17-19.81-1.29-28.26-3-9.56-1.93-13.41-4-14.53-5,1.5-1.15,6.26-2.97,10.88-4.73,2.63-1,5.6-2.14,8.97-3.49,7.39-2.97,9.55-4.12,14.27-6.65,5.08-2.72,12.76-6.83,32.9-16.42,16.41-7.82,27.2-12.64,34.34-15.83,12.86-5.75,15.91-7.12,22.32-12.6l.05-.04c13.61-11.64,20.44-17.48,27.46-27.52,1.61-2.3,2.94-4.4,4.12-6.26,3.71-5.85,5.52-8.48,9.26-9.58,1.12-.33,2.35-.49,3.67-.49m0-3c-1.57,0-3.09.2-4.51.61-6.63,1.94-8.66,7.93-15,17-6.81,9.74-13.54,15.49-27,27-9.59,8.2-11.06,6.6-56,28-39.02,18.58-31.99,16.97-47,23C7.46,101.45-.11,103.35,0,106.61c.2,5.98,26.06,10.64,46,11,1.93.04,3.96.07,6.08.07,11.7,0,26.12-1,41.92-8.07,17.08-7.64,28.15-18.96,37-28,14.64-14.97,15.65-21.97,30-31,7.37-4.63,11.69-5.67,18-12,5.26-5.28,15.54-15.59,12-26C188.42,5.04,179.41,0,171.51,0h0Z"/>
        </g>
        <g>
          <path class="cls-1" d="m56.84,115.09c-4.3,0-9.58-.21-16.27-.48-27.48-1.11-38.16-4.89-39.05-8.11.31-1.48,6.69-3.74,12.33-5.74,8.51-3.01,20.15-7.13,32.42-14.35,2.98-1.6,7.85-4.12,13.87-6.93l.1-.05c5.31-2.97,16.4-8.22,28.15-13.78,13.71-6.49,27.89-13.19,33.38-16.56,1.62-1.04,3.49-1.56,5.57-1.56,5.65,0,12.51,4.08,15.64,9.28.97,1.61,2.36,4.73.87,7.54-4.4,7.4-35.45,38.22-48.49,42.99l-.11.04c-9.76,4.46-17.99,6.03-28.9,7.23-2.96.33-5.89.47-9.5.47Z"/>
          <path d="m127.33,49.04c5.17,0,11.47,3.76,14.35,8.56.97,1.62,1.9,3.97.86,6-4.4,7.28-35.28,37.8-47.71,42.34l-.11.04-.11.05c-9.58,4.37-17.68,5.92-28.44,7.11-2.9.32-5.78.46-9.33.46-4.27,0-9.28-.2-16.21-.48-8.85-.36-16.43-1.02-22.55-1.96-10.29-1.58-13.62-3.57-14.66-4.52,1.72-1.2,6.58-2.92,10.93-4.46,8.55-3.03,20.26-7.17,32.63-14.44,3.01-1.61,7.83-4.11,13.8-6.9l.1-.05.1-.05c5.26-2.95,16.33-8.18,28.05-13.73,13.75-6.5,27.97-13.23,33.53-16.64h.02s.02-.03.02-.03c1.35-.87,2.95-1.3,4.74-1.3m0-3c-2.24,0-4.42.54-6.35,1.78-10.02,6.15-49.82,23.78-61.48,30.31-6.41,2.99-11.43,5.62-14,7C21.67,99.14,0,101.43,0,106.61c1.38,7.7,32.1,9.16,40.5,9.5,6.98.28,12.05.48,16.34.48,3.54,0,6.55-.14,9.66-.48,10.31-1.14,19.02-2.64,29.36-7.36,13.7-5.01,45.03-36.5,49.3-43.69,4.09-7.66-7.55-19.03-17.83-19.03h0Z"/>
        </g>
      </g>
    </g>
  </g>
</svg>