<?xml version="1.0" encoding="UTF-8"?>
<svg id="Calque_2" data-name="Calque 2" xmlns="http://www.w3.org/2000/svg" viewBox="0 0 242.59 79.26" width="242" height="79">
  <defs>
    <style>
      .cls-1 {
        fill: #fff;
        stroke: #000;
        stroke-miterlimit: 10;
        stroke-width: 3px;
      }
    </style>
  </defs>
  <g id="Calque_2-2" data-name="Calque 2">
    <g id="Calque_1-2" data-name="Calque 1-2">
      <path id="patte-droite" class="cls-1" d="m18.03,3.09c6.35,6.05,6.63,10.19,13.63,13.63,9.55,4.7,15.46.15,26.02,4.96,6.68,3.04,7.25,6.19,13.63,11.15,10.7,8.31,22.38,9.77,33.46,11.15,26.72,3.33,33.89-6.45,50.81,1.24,2.58,1.17,7.09,3.67,16.11,8.67,13.02,7.22,18.13,10.57,23.55,8.67,3.88-1.35,6.42-4.87,8.67-3.72,1.65.84.92,3.04,2.48,4.96,2.58,3.16,8.07,1.39,16.11,1.24,9.75-.19,18.54,2.09,18.59,3.72.02.79-2.05.81-6.2,3.72-1.67,1.17-2.19,1.77-3.72,2.48-1.36.63-2.25.76-4.96,1.24-6.92,1.23-7.83,1.6-9.91,1.24-2.04-.36-1.7-.8-3.72-1.24-5.9-1.27-8.28,2.67-12.39,1.24-2.35-.82-1.8-2.19-6.2-4.96-1.71-1.08-3.19-1.75-4.96-2.48-7.04-2.9-13.89-4.7-14.87-4.96-7.55-1.96-11.32-2.94-16.11-3.72-8.67-1.4-15.13-1.35-23.55-1.24-4.47.06-15.95.34-30.98,2.48-5.07.72-3.7.68-22.31,3.72-12.3,2.01-15.32,2.42-19.83,2.48-6.04.08-12.39.16-19.83-2.48-2.15-.76-8.22-3.11-17.35-11.15-9.11-8.03-11.47-13.09-17.35-19.83C-7.05,19.38,9.56-4.97,18.03,3.09Z"/>
    </g>
  </g>
</svg>