<?xml version="1.0" encoding="UTF-8"?>
<svg id="Calque_2" data-name="Calque 2" xmlns="http://www.w3.org/2000/svg" viewBox="0 0 127.37 278.59" width="127" height="278">
  <defs>
    <style>
      .cls-1 {
        fill: #fff;
        stroke: #000;
        stroke-miterlimit: 10;
        stroke-width: 3px;
      }
    </style>
  </defs>
  <g id="Calque_2-2" data-name="Calque 2">
    <g id="Calque_1-2" data-name="Calque 1-2">
      <path class="cls-1" d="m120.69,121.6c-2.24,4.09-5.37,8.27-9.14,11.97-2.82-7.66-7.78-15.02-15.86-18.97-15.08-7.38-33.49.76-44.61,12.29-.13-.09-.26-.19-.39-.29-5.58-4.19-11.82-8.86-18-15C20.03,99.02-.7,78.43,1.69,52.6,3.97,27.99,26.8,3.35,53.69,1.6,78.55-.02,96.04,18.63,100.69,23.6c12.68,13.53,16.07,28.12,20,45,4.91,21.09,8.66,37.21,0,53Z"/>
      <path class="cls-1" d="m114.69,151.6c-.03,2.23-2.02,9.18-6,23-6.99,24.28-8.44,27.51-12,31-2.03,1.99-4.22,3.55-6.41,4.75-3.43-6.22-9.54-11.45-16.59-13.75-6.27-2.05-11.35-1.16-18,0-3.8.66-5.67,1.46-7,3-.55.63-.88,1.24-1.09,1.84-3.24-5.49-.77-7.36-3.91-22.84-2.6-12.81-4.77-13.86-5-21-.39-11.79,5.12-21.11,7-24,1.5-2.3,3.32-4.57,5.39-6.71,11.12-11.53,29.53-19.67,44.61-12.29,8.08,3.95,13.04,11.31,15.86,18.97,2.36,6.4,3.22,13.01,3.14,18.03Z"/>
      <g id="pied-gauche">
        <path class="cls-1" d="m123.69,268.6c-1.5,2.45-4.7,3.43-7.44,3.8l-11.12-14.82c-.94-1.26-2.94-.59-2.94.98v14.57c-.63.18-1.12.35-1.5.47-.86.27-1.7.48-2.56.64l-11-14.66c-.94-1.26-2.94-.59-2.94.98v14.03c-2.89-.09-4.99-.16-6.57-.33-.02-.27-.12-.54-.31-.78l-11.18-14.9c-.94-1.26-2.94-.59-2.94.98v12.19c-9.85.97-10.93,1.01-12.5.85-2.81-.29-5.95-.6-8-3-.51-.59-1.43-1.88-2-6-.56-4.05-.15-6.29,0-10,.18-4.44.36-8.9-1-14-1-3.77-1.85-4.14-3-9-.73-3.1-1.21-5.18-1-8,.12-1.65.41-5.55,3-9,2.7-3.59,4.81-2.59,7-6,1.62-2.53,1.27-4.34,1.91-6.16.21-.6.54-1.21,1.09-1.84,1.33-1.54,3.2-2.34,7-3,6.65-1.16,11.73-2.05,18,0,7.05,2.3,13.16,7.53,16.59,13.75,1.1,2,1.92,4.11,2.41,6.25,1.33,5.83-.98,6.93,1,14,.81,2.89,2.87,8.71,8,14,2.07,2.13,4.3,4.43,8,6,4.11,1.74,5.9.82,9,3,3.35,2.35,4.62,5.79,5,7,.57,1.8,1.67,5.28,0,8h0Z"/>
        <path class="cls-1" d="m115,275.09h-11.18c-.9,0-1.63-.73-1.63-1.63v-14.9c0-1.57,2-2.24,2.94-.98l11.12,14.82.06.08c.81,1.07.04,2.61-1.31,2.61h0Z"/>
        <path class="cls-1" d="m97,277.09h-11.18c-.9,0-1.63-.73-1.63-1.63v-14.9c0-1.57,2-2.24,2.94-.98l11,14.66.18.24c.81,1.07.04,2.61-1.31,2.61h0Z"/>
        <path class="cls-1" d="m76,276.09h-11.18c-.9,0-1.63-.73-1.63-1.63v-14.9c0-1.57,2-2.24,2.94-.98l11.18,14.9c.19.24.29.51.31.78.12.91-.58,1.83-1.62,1.83h0Z"/>
      </g>
    </g>
  </g>
</svg>