<?xml version="1.0" encoding="UTF-8"?>
<svg id="Calque_2" data-name="Calque 2" xmlns="http://www.w3.org/2000/svg" viewBox="0 0 113.19 174.32" width="113" height="174">
  <defs>
    <style>
      .cls-1 {
        fill: #fff;
        stroke: #000;
        stroke-miterlimit: 10;
        stroke-width: 3px;
      }
    </style>
  </defs>
  <g id="Calque_2-2" data-name="Calque 2">
    <g id="Calque_1-2" data-name="Calque 1-2">
      <path class="cls-1" d="m68.92,48.32c-.7,2.88-1.95,8.07-5.13,13.27-.46-5.03-.31-6.93-1.87-10.27-3.02-6.45-8.42-9.79-12-12-4.28-2.64-17.45-10.78-31-5-5.43,2.31-10.07,6.5-13.19,11.21-.71-7.12.38-13.01,1.19-17.21,2.1-10.82,3.56-18.31,10-23,11.02-8.02,27.4-1.1,30,0,1.26.53,6.01,2.62,11,7,2.5,2.2,7.14,6.35,10,13,4.2,9.77,1.98,18.96,1,23Z"/>
      <path class="cls-1" d="m66.92,119.32c-.39.81-.87,1.8-1.46,2.86-3.02-2.31-6.33-3.84-8.54-4.86-1.79-.83-3.14-1.45-5-2-2.87-.85-10.97-3.25-18,1-.85.51-4.68,2.83-6.33,6.63-2.6-2.15-4.44-4.22-5.67-5.63-2.57-2.93-11.65-13.3-13-28-.69-7.51,1.06-11.63-2-19-2.21-5.32-4.06-5.43-5-9-1.25-4.7.35-10.57,3.81-15.79,3.12-4.71,7.76-8.9,13.19-11.21,13.55-5.78,26.72,2.36,31,5,3.58,2.21,8.98,5.55,12,12,1.56,3.34,1.41,5.24,1.87,10.27.2,2.19.51,4.97,1.13,8.73,1.11,6.77,1.54,6.52,3,15,1.31,7.64,1.97,11.47,2,16,.04,5.81.08,11.63-3,18Z"/>
      <g id="main-g">
        <path class="cls-1" d="m107.92,162.32s-.08.1-.13.13l-7.61-10.14c-.94-1.26-2.94-.59-2.94.98v14.28c-1.59.2-3.78.07-7.32.75-.32.06-.62.13-.9.19l-10.66-14.2c-.94-1.26-2.94-.59-2.94.98v13.26c-2.38,1.03-4.73.91-7.5.77-3.04-.16-4.23-.93-6.15-1.47l-9.41-12.54c-.94-1.26-2.94-.59-2.94.98v11.02c-.16,0-.32,0-.5,0-2.34.13-2.48.46-6,1-3.96.61-5.97.89-7,0-1.21-1.05-.36-2.38-1-5-1.2-4.93-5.42-5.2-7-10-.34-1.05-.23-3.03,0-7,.45-7.84,1.37-8.29,1-12-.52-5.25-2.47-5.63-2-9,.12-.85.35-1.64.67-2.37,1.65-3.8,5.48-6.12,6.33-6.63,7.03-4.25,15.13-1.85,18-1,1.86.55,3.21,1.17,5,2,2.21,1.02,5.52,2.55,8.54,4.86.85.65,1.69,1.36,2.46,2.14,3.94,3.96,2.29,5.44,6,10,1.93,2.37,5.65,4.61,13,9,4.37,2.61,8.53,5.57,13,8,1.17.64,3.84,2.06,6,5,1.22,1.66,3,4.77,2,6Z"/>
        <path class="cls-1" d="m110.05,169.82h-11.18c-.9,0-1.63-.73-1.63-1.63v-14.9c0-1.57,2-2.24,2.94-.98l7.61,10.14,3.57,4.76c.81,1.07.04,2.61-1.31,2.61Z"/>
        <path class="cls-1" d="m88.23,171.82h-11.18c-.9,0-1.63-.73-1.63-1.63v-14.9c0-1.57,2-2.24,2.94-.98l10.66,14.2.52.7c.81,1.07.04,2.61-1.31,2.61Z"/>
        <path class="cls-1" d="m62.23,172.82h-11.18c-.9,0-1.63-.73-1.63-1.63v-14.9c0-1.57,2-2.24,2.94-.98l9.41,12.54,1.77,2.36c.81,1.07.04,2.61-1.31,2.61Z"/>
      </g>
    </g>
  </g>
</svg>