<?xml version="1.0" encoding="UTF-8"?>
<svg id="Calque_2" data-name="Calque 2" xmlns="http://www.w3.org/2000/svg" viewBox="0 0 500 515.78">
  <defs>
    <style>
      .cls-1 {
        fill: #919da9;
      }

      .cls-2 {
        fill: #637a87;
      }
    </style>
  </defs>
  <g id="Calque_1-2" data-name="Calque 1">
    <g id="gris">
      <g>
        <polygon class="cls-2" points="0 52.72 7.76 94.53 28.76 111.53 12.76 119.53 16.76 149.53 12.47 207.54 35.76 319.53 3.43 418.61 17.75 439.32 10.59 475.56 55.51 515.78 125.82 503.2 184.42 507.92 194.83 492.2 194.83 510.32 257.55 515.78 351.08 501.63 430.21 515.78 479.99 493.77 479.99 443.48 467.29 409.87 491.76 265.53 480.76 220.53 452.76 209.53 473.76 190.53 462.76 146.53 500 90.44 475.26 29.15 378.91 15 339.84 29.15 337.24 43.29 328.12 29.15 311.2 38.58 175.55 15 119.79 35.43 73.22 15 26.04 22.86 0 52.72"/>
        <polygon class="cls-2" points="0 51.72 7.76 93.53 28.76 110.53 12.76 118.53 16.76 148.53 12.47 206.54 35.76 318.53 3.43 417.61 17.75 438.32 10.59 474.56 55.51 514.78 125.82 502.2 184.42 506.92 194.83 491.2 194.83 509.32 257.55 514.78 351.08 500.63 430.21 514.78 479.99 492.77 479.99 442.48 467.29 408.87 491.76 264.53 480.76 219.53 452.76 208.53 473.76 189.53 462.76 145.53 500 89.44 475.26 28.15 378.91 14 339.84 28.15 337.24 42.29 328.12 28.15 311.2 37.58 175.55 14 119.79 34.43 73.22 14 26.04 21.86 0 51.72"/>
        <polygon class="cls-2" points="0 50.72 7.76 92.53 28.76 109.53 12.76 117.53 16.76 147.53 12.47 205.54 35.76 317.53 3.43 416.61 17.75 437.32 10.59 473.56 55.51 513.78 125.82 501.2 184.42 505.92 194.83 490.2 194.83 508.32 257.55 513.78 351.08 499.63 430.21 513.78 479.99 491.77 479.99 441.48 467.29 407.87 491.76 263.53 480.76 218.53 452.76 207.53 473.76 188.53 462.76 144.53 500 88.44 475.26 27.15 378.91 13 339.84 27.15 337.24 41.29 328.12 27.15 311.2 36.58 175.55 13 119.79 33.43 73.22 13 26.04 20.86 0 50.72"/>
        <polygon class="cls-2" points="0 49.72 7.76 91.53 28.76 108.53 12.76 116.53 16.76 146.53 12.47 204.54 35.76 316.53 3.43 415.61 17.75 436.32 10.59 472.56 55.51 512.78 125.82 500.2 184.42 504.92 194.83 489.2 194.83 507.32 257.55 512.78 351.08 498.63 430.21 512.78 479.99 490.77 479.99 440.48 467.29 406.87 491.76 262.53 480.76 217.53 452.76 206.53 473.76 187.53 462.76 143.53 500 87.44 475.26 26.15 378.91 12 339.84 26.15 337.24 40.29 328.12 26.15 311.2 35.58 175.55 12 119.79 32.43 73.22 12 26.04 19.86 0 49.72"/>
        <polygon class="cls-2" points="0 48.72 7.76 90.53 28.76 107.53 12.76 115.53 16.76 145.53 12.47 203.54 35.76 315.53 3.43 414.61 17.75 435.32 10.59 471.56 55.51 511.78 125.82 499.2 184.42 503.92 194.83 488.2 194.83 506.32 257.55 511.78 351.08 497.63 430.21 511.78 479.99 489.77 479.99 439.48 467.29 405.87 491.76 261.53 480.76 216.53 452.76 205.53 473.76 186.53 462.76 142.53 500 86.44 475.26 25.15 378.91 11 339.84 25.15 337.24 39.29 328.12 25.15 311.2 34.58 175.55 11 119.79 31.43 73.22 11 26.04 18.86 0 48.72"/>
        <polygon class="cls-2" points="0 47.72 7.76 89.53 28.76 106.53 12.76 114.53 16.76 144.53 12.47 202.54 35.76 314.53 3.43 413.61 17.75 434.32 10.59 470.56 55.51 510.78 125.82 498.2 184.42 502.92 194.83 487.2 194.83 505.32 257.55 510.78 351.08 496.63 430.21 510.78 479.99 488.77 479.99 438.48 467.29 404.87 491.76 260.53 480.76 215.53 452.76 204.53 473.76 185.53 462.76 141.53 500 85.44 475.26 24.15 378.91 10 339.84 24.15 337.24 38.29 328.12 24.15 311.2 33.58 175.55 10 119.79 30.43 73.22 10 26.04 17.86 0 47.72"/>
        <polygon class="cls-2" points="0 46.72 7.76 88.53 28.76 105.53 12.76 113.53 16.76 143.53 12.47 201.54 35.76 313.53 3.43 412.61 17.75 433.32 10.59 469.56 55.51 509.78 125.82 497.2 184.42 501.92 194.83 486.2 194.83 504.32 257.55 509.78 351.08 495.63 430.21 509.78 479.99 487.77 479.99 437.48 467.29 403.87 491.76 259.53 480.76 214.53 452.76 203.53 473.76 184.53 462.76 140.53 500 84.44 475.26 23.15 378.91 9 339.84 23.15 337.24 37.29 328.12 23.15 311.2 32.58 175.55 9 119.79 29.43 73.22 9 26.04 16.86 0 46.72"/>
        <polygon class="cls-2" points="0 45.72 7.76 87.53 28.76 104.53 12.76 112.53 16.76 142.53 12.47 200.54 35.76 312.53 3.43 411.61 17.75 432.32 10.59 468.56 55.51 508.78 125.82 496.2 184.42 500.92 194.83 485.2 194.83 503.32 257.55 508.78 351.08 494.63 430.21 508.78 479.99 486.77 479.99 436.48 467.29 402.87 491.76 258.53 480.76 213.53 452.76 202.53 473.76 183.53 462.76 139.53 500 83.44 475.26 22.15 378.91 8 339.84 22.15 337.24 36.29 328.12 22.15 311.2 31.58 175.55 8 119.79 28.43 73.22 8 26.04 15.86 0 45.72"/>
        <polygon class="cls-2" points="0 44.72 7.76 86.53 28.76 103.53 12.76 111.53 16.76 141.53 12.47 199.54 35.76 311.53 3.43 410.61 17.75 431.32 10.59 467.56 55.51 507.78 125.82 495.2 184.42 499.92 194.83 484.2 194.83 502.32 257.55 507.78 351.08 493.63 430.21 507.78 479.99 485.77 479.99 435.48 467.29 401.87 491.76 257.53 480.76 212.53 452.76 201.53 473.76 182.53 462.76 138.53 500 82.44 475.26 21.15 378.91 7 339.84 21.15 337.24 35.29 328.12 21.15 311.2 30.58 175.55 7 119.79 27.43 73.22 7 26.04 14.86 0 44.72"/>
        <polygon class="cls-2" points="0 43.72 7.76 85.53 28.76 102.53 12.76 110.53 16.76 140.53 12.47 198.54 35.76 310.53 3.43 409.61 17.75 430.32 10.59 466.56 55.51 506.78 125.82 494.2 184.42 498.92 194.83 483.2 194.83 501.32 257.55 506.78 351.08 492.63 430.21 506.78 479.99 484.77 479.99 434.48 467.29 400.87 491.76 256.53 480.76 211.53 452.76 200.53 473.76 181.53 462.76 137.53 500 81.44 475.26 20.15 378.91 6 339.84 20.15 337.24 34.29 328.12 20.15 311.2 29.58 175.55 6 119.79 26.43 73.22 6 26.04 13.86 0 43.72"/>
        <polygon class="cls-2" points="0 42.72 7.76 84.53 28.76 101.53 12.76 109.53 16.76 139.53 12.47 197.54 35.76 309.53 3.43 408.61 17.75 429.32 10.59 465.56 55.51 505.78 125.82 493.2 184.42 497.92 194.83 482.2 194.83 500.32 257.55 505.78 351.08 491.63 430.21 505.78 479.99 483.77 479.99 433.48 467.29 399.87 491.76 255.53 480.76 210.53 452.76 199.53 473.76 180.53 462.76 136.53 500 80.44 475.26 19.15 378.91 5 339.84 19.15 337.24 33.29 328.12 19.15 311.2 28.58 175.55 5 119.79 25.43 73.22 5 26.04 12.86 0 42.72"/>
        <polygon class="cls-2" points="0 41.72 7.76 83.53 28.76 100.53 12.76 108.53 16.76 138.53 12.47 196.54 35.76 308.53 3.43 407.61 17.75 428.32 10.59 464.56 55.51 504.78 125.82 492.2 184.42 496.92 194.83 481.2 194.83 499.32 257.55 504.78 351.08 490.63 430.21 504.78 479.99 482.77 479.99 432.48 467.29 398.87 491.76 254.53 480.76 209.53 452.76 198.53 473.76 179.53 462.76 135.53 500 79.44 475.26 18.15 378.91 4 339.84 18.15 337.24 32.29 328.12 18.15 311.2 27.58 175.55 4 119.79 24.43 73.22 4 26.04 11.86 0 41.72"/>
        <polygon class="cls-2" points="0 40.72 7.76 82.53 28.76 99.53 12.76 107.53 16.76 137.53 12.47 195.54 35.76 307.53 3.43 406.61 17.75 427.32 10.59 463.56 55.51 503.78 125.82 491.2 184.42 495.92 194.83 480.2 194.83 498.32 257.55 503.78 351.08 489.63 430.21 503.78 479.99 481.77 479.99 431.48 467.29 397.87 491.76 253.53 480.76 208.53 452.76 197.53 473.76 178.53 462.76 134.53 500 78.44 475.26 17.15 378.91 3 339.84 17.15 337.24 31.29 328.12 17.15 311.2 26.58 175.55 3 119.79 23.43 73.22 3 26.04 10.86 0 40.72"/>
        <polygon class="cls-2" points="0 39.72 7.76 81.53 28.76 98.53 12.76 106.53 16.76 136.53 12.47 194.54 35.76 306.53 3.43 405.61 17.75 426.32 10.59 462.56 55.51 502.78 125.82 490.2 184.42 494.92 194.83 479.2 194.83 497.32 257.55 502.78 351.08 488.63 430.21 502.78 479.99 480.77 479.99 430.48 467.29 396.87 491.76 252.53 480.76 207.53 452.76 196.53 473.76 177.53 462.76 133.53 500 77.44 475.26 16.15 378.91 2 339.84 16.15 337.24 30.29 328.12 16.15 311.2 25.58 175.55 2 119.79 22.43 73.22 2 26.04 9.86 0 39.72"/>
        <polygon class="cls-2" points="0 38.72 7.76 80.53 28.76 97.53 12.76 105.53 16.76 135.53 12.47 193.54 35.76 305.53 3.43 404.61 17.75 425.32 10.59 461.56 55.51 501.78 125.82 489.2 184.42 493.92 194.83 478.2 194.83 496.32 257.55 501.78 351.08 487.63 430.21 501.78 479.99 479.77 479.99 429.48 467.29 395.87 491.76 251.53 480.76 206.53 452.76 195.53 473.76 176.53 462.76 132.53 500 76.44 475.26 15.15 378.91 1 339.84 15.15 337.24 29.29 328.12 15.15 311.2 24.58 175.55 1 119.79 21.43 73.22 1 26.04 8.86 0 38.72"/>
        <polygon class="cls-2" points="0 37.72 7.76 79.53 28.76 96.53 12.76 104.53 16.76 134.53 12.47 192.54 35.76 304.53 3.43 403.61 17.75 424.32 10.59 460.56 55.51 500.78 125.82 488.2 184.42 492.92 194.83 477.2 194.83 495.32 257.55 500.78 351.08 486.63 430.21 500.78 479.99 478.77 479.99 428.48 467.29 394.87 491.76 250.53 480.76 205.53 452.76 194.53 473.76 175.53 462.76 131.53 500 75.44 475.26 14.15 378.91 0 339.84 14.15 337.24 28.29 328.12 14.15 311.2 23.58 175.55 0 119.79 20.43 73.22 0 26.04 7.86 0 37.72"/>
      </g>
      <polygon class="cls-1" points="0 37.72 7.76 79.53 28.76 96.53 12.76 104.53 16.76 134.53 12.47 192.54 35.76 304.53 3.43 403.61 17.75 424.32 10.59 460.56 55.51 500.78 125.82 488.2 184.42 492.92 194.83 477.2 194.83 495.32 257.55 500.78 351.08 486.63 430.21 500.78 479.99 478.77 479.99 428.48 467.29 394.87 491.76 250.53 480.76 205.53 452.76 194.53 473.76 175.53 462.76 131.53 500 75.44 475.26 14.15 378.91 0 339.84 14.15 337.24 28.29 328.12 14.15 311.2 23.58 175.55 0 119.79 20.43 73.22 0 26.04 7.86 0 37.72"/>
    </g>
  </g>
</svg>