<?xml version="1.0" encoding="UTF-8"?>
<svg id="Calque_2" data-name="Calque 2" xmlns="http://www.w3.org/2000/svg" viewBox="0 0 449 450">
  <defs>
    <style>
      .cls-1 {
        fill: #f3d1bb;
      }

      .cls-2 {
        fill: #754522;
      }

      .cls-3 {
        fill: #8d6395;
      }
    </style>
  </defs>
  <g id="Calque_1-2" data-name="Calque 1">
    <g>
      <path class="cls-2" d="m221.99,16.9s25.74-21.84,50.71-15.87c24.97,5.97,64.39,12.94,74.9,31.86,10.51,18.91,10.51,58.73,17.08,66.7,6.57,7.96,21.1,39.82,23.04,49.77s-4.64,47.78-4.64,52.76,10.51,42.81,14.45,49.77,2.75,71.56,2.69,75.6,0,16.43,0,16.43l-15.83,25.44H121.19l95.04-166.01,5.76-186.45Z"/>
      <path class="cls-2" d="m235.65,16.9s-26.56-21.84-52.33-15.87c-25.76,5.97-66.45,12.94-77.29,31.86s-10.85,58.73-17.63,66.7c-6.78,7.96-21.78,39.82-23.77,49.77-1.99,9.95,4.79,47.78,4.79,52.76s-10.85,42.81-14.92,49.77c-4.07,6.97-2.84,71.56-2.78,75.6s0,16.43,0,16.43l16.34,25.44h271.61l-98.07-166.01-5.94-186.45Z"/>
      <polygon class="cls-1" points="421.44 445.02 51.5 445.02 51.5 318.6 86.49 320.09 126.49 308.64 324.45 308.64 385.45 321.08 421.44 329.05 421.44 445.02"/>
      <path class="cls-3" d="m448.61,449.92s5.26-93.91-23.01-116.62c-28.27-22.7-89.17-23.69-102.14-24.69-13.35-1.03-97.98,25.8-97.98,25.8v115.59l223.14-.08Z"/>
      <path class="cls-3" d="m.39,449.92s-5.26-93.91,23.01-116.62c28.27-22.7,87.14-23.61,100.09-24.69s102.98,25.8,102.98,25.8v115.59l-226.08-.08Z"/>
      <path class="cls-1" d="m169.01,221.65v87.85s20,9.94,52.99,9.03,58.99-9.03,58.99-9.03v-87.85h-111.98Z"/>
      <path class="cls-1" d="m145.01,152.2c0,14.29-6.27,25.68-14,25.88-14.96.4-14.24-11.57-14-25.88.24-14.29,0-25.88,10-25.88,7.73,0,18,11.59,18,25.88Z"/>
      <path class="cls-1" d="m305.9,152.2c0,14.29,6.27,25.68,14,25.88,14.96.4,14.24-11.57,14-25.88-.24-14.29,0-25.88-10-25.88-7.73,0-18,11.59-18,25.88Z"/>
      <path class="cls-1" d="m319.98,136.27c0,31.1-1,76.65-16,95.57-10.96,13.82-61.18,31.86-80.99,31.86-21.77,0-63.44-20.4-75.99-31.86s-16-60.31-16-90.59c0-59.93,31.8-108.51,91.99-108.51,97.52,0,96.98,70.15,96.98,103.53Z"/>
      <path class="cls-2" d="m155.85,28.36c-13.89,5.79-23.14,19.09-23.69,34.07-.94,25.78-1.9,50.93-1.14,55.22,1,5.68.47,18.77.47,18.77,0,0,.82-7.57,14-11.95,9-2.99,12.68-1.62,13-1.99,1.17-1.35,11.52-.52,24.35.72,1.32.13,2.28-24.75,3.65-24.61,1.24.12-.26,24.76,1,24.89,12.36,1.22,28.82,2.99,37.99,2.99,9.93,0,29.18-1.68,42.99-2.99,2.27-.21-2.15-38.62,0-38.82,2.3-.22,7.4,38.11,9.49,37.91,9.15-.87,15.78-1.44,16.51-1.07,0,0,3.72-1.42,20,3.98,3,1,5,2.99,5,2.99,1.87,2.68-1.68-40.48-3.85-71.16-1.2-16.89-12.68-31.31-28.94-36.29h0c-42.13-12.91-87.46-10.7-128.13,6.23l-2.69,1.12Z"/>
    </g>
  </g>
</svg>