<?xml version="1.0" encoding="UTF-8"?>
<svg id="Calque_2" data-name="Calque 2" xmlns="http://www.w3.org/2000/svg" viewBox="0 0 1893 930.64">
  <defs>
    <style>
      .cls-1 {
        fill: #919da9;
      }

      .cls-2 {
        fill: #637a87;
      }
    </style>
  </defs>
  <g id="Calque_1-2" data-name="Calque 1">
    <g id="gris">
      <g>
        <polygon class="cls-2" points="0 124.38 53.52 382.53 12 648.89 62.13 708.94 37.07 814.02 194.29 930.64 440.39 894.18 645.46 907.85 681.92 862.28 681.92 914.82 1044.42 930.64 1371.8 889.62 1648.72 930.64 1822.97 866.83 1822.97 721 1778.52 623.53 1893 233.75 1806.41 56.02 1469.17 15 1332.45 56.02 1323.34 97.03 1291.44 56.02 1232.19 83.36 614.43 15 419.27 74.24 256.28 15 91.15 37.79 0 124.38"/>
        <polygon class="cls-2" points="0 123.38 53.52 381.53 12 647.89 62.13 707.94 37.07 813.02 194.29 929.64 440.39 893.18 645.46 906.85 681.92 861.28 681.92 913.82 1044.42 929.64 1371.8 888.62 1648.72 929.64 1822.97 865.83 1822.97 720 1778.52 622.53 1893 232.75 1806.41 55.02 1469.17 14 1332.45 55.02 1323.34 96.03 1291.44 55.02 1232.19 82.36 614.43 14 419.27 73.24 256.28 14 91.15 36.79 0 123.38"/>
        <polygon class="cls-2" points="0 122.38 53.52 380.53 12 646.89 62.13 706.94 37.07 812.02 194.29 928.64 440.39 892.18 645.46 905.85 681.92 860.28 681.92 912.82 1044.42 928.64 1371.8 887.62 1648.72 928.64 1822.97 864.83 1822.97 719 1778.52 621.53 1893 231.75 1806.41 54.02 1469.17 13 1332.45 54.02 1323.34 95.03 1291.44 54.02 1232.19 81.36 614.43 13 419.27 72.24 256.28 13 91.15 35.79 0 122.38"/>
        <polygon class="cls-2" points="0 121.38 53.52 379.53 12 645.89 62.13 705.94 37.07 811.02 194.29 927.64 440.39 891.18 645.46 904.85 681.92 859.28 681.92 911.82 1044.42 927.64 1371.8 886.62 1648.72 927.64 1822.97 863.83 1822.97 718 1778.52 620.53 1893 230.75 1806.41 53.02 1469.17 12 1332.45 53.02 1323.34 94.03 1291.44 53.02 1232.19 80.36 614.43 12 419.27 71.24 256.28 12 91.15 34.79 0 121.38"/>
        <polygon class="cls-2" points="0 120.38 53.52 378.53 12 644.89 62.13 704.94 37.07 810.02 194.29 926.64 440.39 890.18 645.46 903.85 681.92 858.28 681.92 910.82 1044.42 926.64 1371.8 885.62 1648.72 926.64 1822.97 862.83 1822.97 717 1778.52 619.53 1893 229.75 1806.41 52.02 1469.17 11 1332.45 52.02 1323.34 93.03 1291.44 52.02 1232.19 79.36 614.43 11 419.27 70.24 256.28 11 91.15 33.79 0 120.38"/>
        <polygon class="cls-2" points="0 119.38 53.52 377.53 12 643.89 62.13 703.94 37.07 809.02 194.29 925.64 440.39 889.18 645.46 902.85 681.92 857.28 681.92 909.82 1044.42 925.64 1371.8 884.62 1648.72 925.64 1822.97 861.83 1822.97 716 1778.52 618.53 1893 228.75 1806.41 51.02 1469.17 10 1332.45 51.02 1323.34 92.03 1291.44 51.02 1232.19 78.36 614.43 10 419.27 69.24 256.28 10 91.15 32.79 0 119.38"/>
        <polygon class="cls-2" points="0 118.38 53.52 376.53 12 642.89 62.13 702.94 37.07 808.02 194.29 924.64 440.39 888.18 645.46 901.85 681.92 856.28 681.92 908.82 1044.42 924.64 1371.8 883.62 1648.72 924.64 1822.97 860.83 1822.97 715 1778.52 617.53 1893 227.75 1806.41 50.02 1469.17 9 1332.45 50.02 1323.34 91.03 1291.44 50.02 1232.19 77.36 614.43 9 419.27 68.24 256.28 9 91.15 31.79 0 118.38"/>
        <polygon class="cls-2" points="0 117.38 53.52 375.53 12 641.89 62.13 701.94 37.07 807.02 194.29 923.64 440.39 887.18 645.46 900.85 681.92 855.28 681.92 907.82 1044.42 923.64 1371.8 882.62 1648.72 923.64 1822.97 859.83 1822.97 714 1778.52 616.53 1893 226.75 1806.41 49.02 1469.17 8 1332.45 49.02 1323.34 90.03 1291.44 49.02 1232.19 76.36 614.43 8 419.27 67.24 256.28 8 91.15 30.79 0 117.38"/>
        <polygon class="cls-2" points="0 116.38 53.52 374.53 12 640.89 62.13 700.94 37.07 806.02 194.29 922.64 440.39 886.18 645.46 899.85 681.92 854.28 681.92 906.82 1044.42 922.64 1371.8 881.62 1648.72 922.64 1822.97 858.83 1822.97 713 1778.52 615.53 1893 225.75 1806.41 48.02 1469.17 7 1332.45 48.02 1323.34 89.03 1291.44 48.02 1232.19 75.36 614.43 7 419.27 66.24 256.28 7 91.15 29.79 0 116.38"/>
        <polygon class="cls-2" points="0 115.38 53.52 373.53 12 639.89 62.13 699.94 37.07 805.02 194.29 921.64 440.39 885.18 645.46 898.85 681.92 853.28 681.92 905.82 1044.42 921.64 1371.8 880.62 1648.72 921.64 1822.97 857.83 1822.97 712 1778.52 614.53 1893 224.75 1806.41 47.02 1469.17 6 1332.45 47.02 1323.34 88.03 1291.44 47.02 1232.19 74.36 614.43 6 419.27 65.24 256.28 6 91.15 28.79 0 115.38"/>
        <polygon class="cls-2" points="0 114.38 53.52 372.53 12 638.89 62.13 698.94 37.07 804.02 194.29 920.64 440.39 884.18 645.46 897.85 681.92 852.28 681.92 904.82 1044.42 920.64 1371.8 879.62 1648.72 920.64 1822.97 856.83 1822.97 711 1778.52 613.53 1893 223.75 1806.41 46.02 1469.17 5 1332.45 46.02 1323.34 87.03 1291.44 46.02 1232.19 73.36 614.43 5 419.27 64.24 256.28 5 91.15 27.79 0 114.38"/>
        <polygon class="cls-2" points="0 113.38 53.52 371.53 12 637.89 62.13 697.94 37.07 803.02 194.29 919.64 440.39 883.18 645.46 896.85 681.92 851.28 681.92 903.82 1044.42 919.64 1371.8 878.62 1648.72 919.64 1822.97 855.83 1822.97 710 1778.52 612.53 1893 222.75 1806.41 45.02 1469.17 4 1332.45 45.02 1323.34 86.03 1291.44 45.02 1232.19 72.36 614.43 4 419.27 63.24 256.28 4 91.15 26.79 0 113.38"/>
        <polygon class="cls-2" points="0 112.38 53.52 370.53 12 636.89 62.13 696.94 37.07 802.02 194.29 918.64 440.39 882.18 645.46 895.85 681.92 850.28 681.92 902.82 1044.42 918.64 1371.8 877.62 1648.72 918.64 1822.97 854.83 1822.97 709 1778.52 611.53 1893 221.75 1806.41 44.02 1469.17 3 1332.45 44.02 1323.34 85.03 1291.44 44.02 1232.19 71.36 614.43 3 419.27 62.24 256.28 3 91.15 25.79 0 112.38"/>
        <polygon class="cls-2" points="0 111.38 53.52 369.53 12 635.89 62.13 695.94 37.07 801.02 194.29 917.64 440.39 881.18 645.46 894.85 681.92 849.28 681.92 901.82 1044.42 917.64 1371.8 876.62 1648.72 917.64 1822.97 853.83 1822.97 708 1778.52 610.53 1893 220.75 1806.41 43.02 1469.17 2 1332.45 43.02 1323.34 84.03 1291.44 43.02 1232.19 70.36 614.43 2 419.27 61.24 256.28 2 91.15 24.79 0 111.38"/>
        <polygon class="cls-2" points="0 110.38 53.52 368.53 12 634.89 62.13 694.94 37.07 800.02 194.29 916.64 440.39 880.18 645.46 893.85 681.92 848.28 681.92 900.82 1044.42 916.64 1371.8 875.62 1648.72 916.64 1822.97 852.83 1822.97 707 1778.52 609.53 1893 219.75 1806.41 42.02 1469.17 1 1332.45 42.02 1323.34 83.03 1291.44 42.02 1232.19 69.36 614.43 1 419.27 60.24 256.28 1 91.15 23.79 0 110.38"/>
        <polygon class="cls-2" points="0 109.38 53.52 367.53 12 633.89 62.13 693.94 37.07 799.02 194.29 915.64 440.39 879.18 645.46 892.85 681.92 847.28 681.92 899.82 1044.42 915.64 1371.8 874.62 1648.72 915.64 1822.97 851.83 1822.97 706 1778.52 608.53 1893 218.75 1806.41 41.02 1469.17 0 1332.45 41.02 1323.34 82.03 1291.44 41.02 1232.19 68.36 614.43 0 419.27 59.24 256.28 0 91.15 22.79 0 109.38"/>
      </g>
      <polygon class="cls-1" points="0 109.38 53.52 367.53 12 633.89 62.13 693.94 37.07 799.02 194.29 915.64 440.39 879.18 645.46 892.85 681.92 847.28 681.92 899.82 1044.42 915.64 1371.8 874.62 1648.72 915.64 1822.97 851.83 1822.97 706 1778.52 608.53 1893 218.75 1806.41 41.02 1469.17 0 1332.45 41.02 1323.34 82.03 1291.44 41.02 1232.19 68.36 614.43 0 419.27 59.24 256.28 0 91.15 22.79 0 109.38"/>
    </g>
  </g>
</svg>