<?xml version="1.0" encoding="UTF-8"?>
<svg id="Calque_2" data-name="Calque 2" xmlns="http://www.w3.org/2000/svg" viewBox="0 0 450 450">
  <defs>
    <style>
      .cls-1 {
        fill: #d4a87f;
      }

      .cls-2 {
        fill: #fff;
      }

      .cls-3 {
        fill: #72421f;
      }

      .cls-4 {
        fill: #ce6b29;
      }
    </style>
  </defs>
  <g id="Calque_1-2" data-name="Calque 1">
    <g>
      <rect class="cls-2" x="169.01" y="323.26" width="111.98" height="126.74"/>
      <path class="cls-4" d="m449.61,450s5.26-84.18-23.01-104.54-88.29-19.92-101.26-20.81-44.35-1.39-44.35-1.39v126.74h168.62Z"/>
      <path class="cls-4" d="m.39,450s-5.26-84.18,23.01-104.54,88.31-19.85,101.26-20.81,44.35-1.39,44.35-1.39v126.74H.39Z"/>
      <path class="cls-1" d="m169.01,233.21v90.65s20,10.25,52.99,9.32c32.99-.93,58.99-9.32,58.99-9.32v-90.65h-111.98Z"/>
      <path class="cls-1" d="m145.01,163.59c0,14.33-6.27,25.74-14,25.95-14.96.4-14.24-11.6-14-25.95.24-14.33,0-25.95,10-25.95,7.73,0,18,11.62,18,25.95Z"/>
      <path class="cls-1" d="m305.9,163.59c0,14.33,6.27,25.74,14,25.95,14.96.4,14.24-11.6,14-25.95-.24-14.33,0-25.95-10-25.95-7.73,0-18,11.62-18,25.95Z"/>
      <path class="cls-1" d="m319.98,147.62c0,31.18-1,76.84-16,95.8-10.96,13.86-61.18,31.93-80.99,31.93-21.77,0-63.44-20.45-75.99-31.93s-16-60.46-16-90.81c0-60.08,31.8-108.78,91.99-108.78,97.52,0,96.98,70.32,96.98,103.79Z"/>
      <path class="cls-3" d="m313.99,159.6c1,18.96-11.82,46.69-34.99,54.89-16.76,5.93-36.99-8.98-53.99-9.98-17-1-31.99,17.96-59.99,9.98-28-7.98-27.47-54.89-27.47-54.89l-5.27-27.15c-.83,6.53-1.25,13.27-1.25,20.16,0,30.35,4,79.84,16,90.81,12.55,11.48,54.22,31.93,75.99,31.93,19.81,0,70.03-18.08,80.99-31.93,15-18.96,16-64.62,16-95.8,0-12-1.47-23.34-4.3-33.82-1.21,19.55-2.1,38.17-1.7,45.79Z"/>
      <path class="cls-1" d="m192.61,225.86c-1.19.44-2.02,1.5-2.19,2.75-.74,5.42,1.69,15.81,8.59,15.81,8,0,21.7-7.48,27-6.99s18.11,8.98,24,6.99,9.45-13.36,8-16.97c-2-4.99-27-12.68-32.49-12.33-4.72.3-26.74,8.43-32.89,10.73Z"/>
      <path class="cls-3" d="m135.29,148.01s25.72-14.36,30.72-27.33,0-38.92,13-40.92c13-2,59.63,23.72,79.31,15.85s22.67-15.96,22.67-15.96c0,0,3.29,21.34,14.64,34.18,11.35,12.84,18.94,22.05,21.64,25.93s3.17-54.23-.29-65.98c-7.29-24.77,31-27.94,31-27.94,0,0-12-9.98-28-7.98-17.89,2.23-8,11.98-8,11.98,0,0-3.37-15.66,11-19.96,10-2.99,14-2,14-2,0,0-14-12.97-32.99-4.99-20.46,8.6-4,16.97-4,16.97,0,0,1.63-25.82,14-29.94,3-1,11-2.99,11-2.99,0,0-79.99-24.95-149.98,19.96-30.11,19.32-9-20.96-9-20.96,0,0-31.99,22.95-32.99,54.89-1,31.93-3,62.46-2,68.15s4.28,19.05,4.28,19.05Z"/>
    </g>
  </g>
</svg>