<?xml version="1.0" encoding="UTF-8"?>
<svg id="Calque_2" data-name="Calque 2" xmlns="http://www.w3.org/2000/svg" viewBox="0 0 450 450">
  <defs>
    <style>
      .cls-1 {
        fill: #1e6314;
      }

      .cls-2 {
        fill: #42210b;
      }

      .cls-3 {
        fill: #925f2d;
      }

      .cls-4 {
        fill: #0d380b;
      }
    </style>
  </defs>
  <g id="Calque_1-2" data-name="Calque 1">
    <g>
      <path class="cls-1" d="m123.77,315.23s-26.05-25.91-4.84-47.69c19.35-19.87,47.17-19.87,47.17-19.87h113.69s33.32-.34,50.8,23.85c22.98,31.79-21.77,51.66-21.77,51.66l-141.51,6.62-43.54-14.57Z"/>
      <path class="cls-4" d="m158.84,305.96s-52.67,2.64-32.66-33.12c12.94-23.13,43.49-22.52,43.49-22.52h106.15s31.69-.8,47.43,22.26c25.48,37.35-43.46,37.35-43.46,37.35l-108.99,17.07-11.96-21.05Z"/>
      <rect class="cls-1" x="169.01" y="304.62" width="111.98" height="145.38"/>
      <path class="cls-1" d="m449.61,450s5.26-96.57-23.01-119.91c-28.27-23.35-88.29-22.85-101.26-23.88-13.35-1.06-44.35-1.59-44.35-1.59v145.38h168.62Z"/>
      <path class="cls-1" d="m.39,450s-5.26-96.57,23.01-119.91c28.27-23.35,88.31-22.76,101.26-23.88s44.35-1.59,44.35-1.59v145.38H.39Z"/>
      <path class="cls-3" d="m169.01,213.88v90.77s20,10.27,52.99,9.33c32.99-.93,58.99-9.33,58.99-9.33v-90.77h-111.98Z"/>
      <path class="cls-3" d="m145.01,140.35c0,14.38-6.27,25.83-14,26.04-14.96.4-14.24-11.65-14-26.04.24-14.38,0-26.04,10-26.04,7.73,0,18,11.66,18,26.04Z"/>
      <path class="cls-3" d="m305.9,140.35c0,14.38,6.27,25.83,14,26.04,14.96.4,14.24-11.65,14-26.04-.24-14.38,0-26.04-10-26.04-7.73,0-18,11.66-18,26.04Z"/>
      <path class="cls-3" d="m319.98,124.33c0,31.3-1,77.12-16,96.16-10.96,13.91-61.18,32.05-80.99,32.05-21.77,0-63.44-20.53-75.99-32.05-12-11.02-16-60.69-16-91.15,0-60.3,31.8-109.18,91.99-109.18,97.52,0,96.98,70.58,96.98,104.17Z"/>
      <path class="cls-2" d="m147.01,220.48c12.55,11.53,54.22,32.05,75.99,32.05,19.81,0,70.03-18.14,80.99-32.05,0,0,7.47-9.87,10.95-27.08,3.48-17.21,4.52-43.88,4.52-43.88,0,0-4,15.02-7,26.04-2.63,9.65-7,26.04-12.57,34.01-.49.7-.43,1.05-3.43,4.05-8.17,8.18-33.49,11.02-44.99,11.02-6.21,0-20.17-9.66-25.47-10.16s-19,7.01-27,7.01c-6.9,0-24.53,7.16-38.52-2.86.01.06-11-5.01-18-27.04-7.4-23.29-11-45.07-11-45.07,0,0-.03,20.64,2.98,35.36s4.38,25.83,7.7,31.29,4.85,7.32,4.85,7.32Z"/>
      <path class="cls-2" d="m155.85,15.74c-13.89,5.82-23.14,19.2-23.69,34.28-.94,25.94-1.9,51.25-1.14,55.56,1,5.72.47,18.88.47,18.88,0,0,22-13.02,27-26.04s-.32-40.69,0-41.07c2.47-2.86,42.8-4.01,63.99-4.01s68.99-1,70.99,0c0,0-2.7,24.25,6,39.06,10,17.03,17.29,20.15,20,24.04,1.87,2.69-1.68-40.73-3.85-71.59-1.2-17-12.68-31.51-28.94-36.52h0c-42.13-12.99-87.46-10.77-128.13,6.27l-2.69,1.13Z"/>
    </g>
  </g>
</svg>