<?xml version="1.0" encoding="UTF-8"?>
<svg id="Calque_2" data-name="Calque 2" xmlns="http://www.w3.org/2000/svg" viewBox="0 0 471.36 381.23">
  <defs>
    <style>
      .cls-1 {
        fill: #427b1c;
      }
    </style>
  </defs>
  <g id="Calque_1-2" data-name="Calque 1">
    <path id="Afrique" class="cls-1" d="m61.2,18.05c1.75-1.8,3.64-2.04,7-3,4.58-1.31,6.86-1.96,8-3,3.76-3.43,1.9-9.4,4-10,1.72-.49,2.89,3.54,7,6,2.66,1.6,6.81,1.42,15,1,10.6-.54,15.92-.82,17-1,6.67-1.13,7.42-2.22,16-4,4.63-.96,7.96-1.38,13-2C163.84.13,177.19-.14,177.2.05c.01.16-10.01.79-10,1,.01.24,13.57-.33,28-1-.6,1.87-1.37,5.06-1,9,.24,2.57.57,6.07,3,9,3.16,3.81,8.06,4.47,12,5,6.08.82,6.08-.98,11,0,0,0,2.56.51,13,6,0,0,6.94,4.31,13,4,1.67-.08,7.64-.62,9-4,1.04-2.59-1.45-4.88,0-7,1.1-1.61,3.6-1.86,5-2,3.09-.31,4.08.95,6,0,1.32-.65,1.43-1.53,3-2,.29-.09,1.61-.48,3,0,2.08.72,1.85,2.57,4,4,2.17,1.45,4.94,1.25,5,1,.06-.23-2.04-.85-2-1,.06-.19,3.65.85,9,2,2.54.55,4.49.91,5,1,1.95.36,3,.51,6,1,1.99.32,4.11.67,6,1,8.52,1.49,8.1,1.93,11,2,3.55.09,4.14-.57,7,0,1.66.33,2.67.79,5,1,2.04.18,3.62.04,4,0,3.24-.32,3.59-1.16,5-1,2.87.33,4.67,4.17,6,7,1.31,2.8.79,2.99,3,9,.95,2.58,1.67,4.26,2,5,1.17,2.66,1.87,4.23,3,6,2.32,3.62,3.24,2.99,5,6,1.9,3.26.92,4.15,3,7,1.05,1.44,2.2,2.44,4,4,1.37,1.19,2.42,2.11,4,3,2.07,1.18,2.94,1.12,5,2,1,.43,4.11,1.76,6,4,3.52,4.16,2.43,10.95,2,11-.34.04-1.05-3.99-1-4s.88,4.06,3,9c1.04,2.42,1.78,3.64,2,4,1.12,1.82,1.76,2.32,4,5,3.59,4.29,3.3,4.6,5,6,1.11.91,2.4,1.6,5,3,2.72,1.46,3.49,1.65,6,3,1.02.55,3.2,1.72,5,3,6.11,4.35,5.64,8.42,11,12,.65.44,2.15,1.37,4,3,2.05,1.8,1.98,2.21,3,3,2.61,2.01,6.06,1.64,12,1,2.72-.29,4.08-.44,6-1,5.15-1.5,5.84-3.49,10-4,2.63-.32,2.68.44,6,0,1.59-.21,2.92-.56,6-1,3.16-.45,3.72-.36,4,0,.49.64-.14,1.83-2,5-3.79,6.46-4.39,6.95-5,9-.62,2.08-.09,1.89-1,6-.68,3.09-1.04,4.67-2,6-1.24,1.72-2.12,1.59-5,4-.63.52-1.76,1.69-4,4-4.07,4.19-4.94,5.2-7,7-2.24,1.95-3.35,2.63-4,3-2.01,1.14-2.72,1.06-5,2-3.98,1.64-6.68,3.89-8,5-1.74,1.47-1.16,1.3-4,4-2.53,2.4-4.73,4.18-7,6-3.7,2.98-3.65,2.69-5,4-1.63,1.59-2.76,3.06-5,6-2.65,3.47-2.71,3.91-4,5-2.11,1.78-2.67,1.22-5,3-2.9,2.21-4.39,4.88-5,6-.87,1.59-.38,1.21-2,5-1.49,3.49-2.12,4.31-3,7-.58,1.78-.87,2.67-1,4-.22,2.28.2,3.97,1,7,.66,2.49,1.4,4.44,2,6,1.19,3.08,1.44,3.14,2,5,.41,1.39,1.02,3.42,1,6-.02,2.89-.81,3.22-1,7-.1,2,.12,1.97,0,4-.08,1.4-.21,3.52-1,6-.68,2.11-1.56,4.89-4,7-1.83,1.59-2.79,1.28-4,3-1.28,1.82-.69,2.83-2,4-1.48,1.33-2.87.6-4,2-.9,1.11-.3,1.9-1,3-1.17,1.84-3.99,1.42-7,2-3.2.61-6.38,1.45-8,4-.55.86-.7,1.6-1,3-.61,2.87.12,3.75,0,8-.07,2.72-.39,2.95,0,4,.72,1.95,2.07,1.93,3,4,.07.16,1.27,2.93,0,5-.21.33-.67.97-3,2-4.1,1.82-6.07,1.37-9,3-.35.19-1.01.58-2,1-1.96.83-2.37.58-3,1-.89.59-1.26,1.88-1,9,.13,3.58.25,3.94,0,5-.63,2.68-2.33,4.39-4,6-5.86,5.64-8.8,8.47-13,11-4.15,2.5-4.89,2.22-9,5-3.53,2.39-5.31,3.59-7,6-1.41,2.01-1.53,3.12-3,4-1.98,1.18-3.58.25-7,0-5.65-.42-6.02,1.79-14,2-2.41.06-2.79-.13-6,0-3.04.12-4.02.34-6,0-1.89-.32-2.07-.71-4-1-1.83-.28-3.25-.17-5,0-4.84.47-5.68.81-8,1-4.43.36-4.05-.65-12-1-3.64-.16-4.8,0-6-1-1.5-1.25-1.33-2.87-2-7-.89-5.48-1.52-9.41-4-13-1.46-2.12-2.21-2.15-4-5-1.54-2.44-1.69-3.54-3-6-1.41-2.66-1.82-2.5-5-7-2.65-3.75-4.41-6.28-6-10-.61-1.43-1.41-3.34-2-6-.91-4.12-.11-4.66-1-7-.88-2.31-1.81-2.21-6-7-3.21-3.67-2.82-3.91-5-6-3.45-3.31-4.44-2.72-6-5-1.72-2.52-1.84-5.18-2-9-.1-2.27-.17-4.54,1-7,.8-1.69,1.25-1.49,2-3,1.91-3.82-.48-6.03,1-9,1.11-2.22,2.8-1.69,7-5,2.34-1.84,4-3.15,5-5,3.01-5.59-3.32-10.07-4-23-.17-3.26.14-4.78-1-7-2.01-3.94-5.23-3.6-8-8-2.05-3.26-.79-4.26-3-7-.99-1.23-3-2.49-7-5-3.03-1.9-4.88-2.87-6-5-.75-1.43-1-3-1-3-.22-1.36-.08-2.43,0-3,.5-3.63,1.26-6.38,2-10,.61-2.98.5-3.15,1-5,.75-2.79,1.16-3.02,1-4-.48-2.91-4.7-4.51-6-5-1.66-.63-2.95-.78-5-1-4.94-.53-9-.06-9,0,0,.07,4.99-.15,5,0,.01.21-10.01.84-10,1,0,.07,1.99-.1,2,0,.01.12-3.09,1.24-5,0-1.52-.98-1.13-2.72-2-5-2.03-5.35-8.57-7.52-10-8-2.07-.69-4.38-.79-9-1-2.94-.13-4.7-.21-7,0-4.81.44-8.32,1.8-14,4-3.22,1.25-4.83,1.87-7,3-3.48,1.81-4.75,2.99-8,4-2.06.64-3.74.85-5,1-1.18.14-2.38.22-8,0-6.53-.25-8.13-.48-10-1-1.65-.46-1.35-.54-3-1-.8-.22-3.9-1.05-10-1-4.48.03-5.59.5-9,0-1.81-.27-3.01-.62-4-1-2.19-.85-3.2-1.77-5-3-2.67-1.82-5.11-2.88-10-5-2.29-1-3.44-1.49-5-2-4.48-1.46-5.32-.86-7-2-3.55-2.41-4.11-7.96-4-8,.08-.03,1.45,2.65,1,3-.54.41-4.08-2.18-6-6-.8-1.6-.59-1.96-2-5-.98-2.11-1.07-1.92-2-4-.94-2.12-1.08-2.85-2-4-.83-1.05-1.17-1.01-2-2-1.28-1.52-1.7-3.06-2-4-1.26-3.96-2.72-4.69-4-8-.62-1.61-.71-4.42-1-10-.21-4.09-.31-6.19,0-9,.25-2.29.44-2.17,1-6,.68-4.64.44-5.09,1-8,.35-1.79.8-4.17,2-7,1.65-3.91,2.8-4.18,4-8,.71-2.26.92-4.12,1-5,.17-1.97-.7-3.11,0-4,.72-.91,1.75-.21,3-1,2.12-1.34.89-4.42,3-6,1.33-.99,2.03.06,4-1,1.76-.95,1.76-2.09,4-4,0,0,1.24-1.05,3-2,3.09-1.65,4.57-1.05,8-2,4.27-1.18,7.21-3.55,9-5,.95-.77,2.47-2.01,4-4,.9-1.17.79-1.28,2-3,1.73-2.47,2.04-2.35,4-5,1.77-2.39,1.75-2.79,3-4,1.08-1.04,1.49-1.13,2-2,.83-1.42.4-2.3,1-4,.53-1.49,1.44-2.42,2-3h0Z"/>
  </g>
</svg>