<?xml version="1.0" encoding="UTF-8"?>
<svg id="Calque_2" data-name="Calque 2" xmlns="http://www.w3.org/2000/svg" viewBox="0 0 300.06 329.76">
  <defs>
    <style>
      .cls-1 {
        fill: #427b1c;
      }
    </style>
  </defs>
  <g id="Calque_1-2" data-name="Calque 1">
    <path id="Amerique-sud" class="cls-1" d="m57.01,8.28c2.1-1.58,1.69-3.83,5-6,1.97-1.29,3.87-1.64,6-2,2.6-.45,5.1-.3,10,0,9.19.57,9.78.63,11,1,3.55,1.06,3.18,1.88,8,4,4.4,1.94,5.03,1.4,13,4,6.35,2.07,6.08,2.46,9,3,5.04.94,9.14.4,12,0,5.06-.71,7.91-1.04,11-3,4.13-2.61,3.7-4.86,7-6,3.83-1.32,7.83.53,11,2,5.75,2.66,6.38,5.4,11,6,2.94.38,3.37-.64,6,0,3.86.94,5.48,3.76,8,6,2.45,2.17,6.6,4.57,14,5,4.83.4,8.5.23,11,0,1.37-.13,2.89-.33,5,0,2.14.33,2.97.9,6,2,3.4,1.23,5.11,1.85,7,2,2.28.18,3.38-.42,8-2,6.23-2.13,9.59-3.29,14-4,3.08-.5,7.99-1,8-1,1.7,1.49,4.39,3.37,8,4,1.8.31,2.88.15,6,0,6.35-.3,9.52-.45,11,0,4.56,1.39,3.52,4.27,11,9,2.5,1.58,3.92,2.09,5,4,1.32,2.35,1.49,5.68,0,8-1.18,1.85-2.55,1.72-4,3-5.03,4.43-1.22,17.03-1,17,.17-.02-.43-7.99-1-8-.56-.01-1.68,7.76-1,16,.15,1.88.35,4.1,1,7,1.06,4.68,2.03,5.45,3,10,.13.61.18.91,1,8,.64,5.55.97,8.33,1,9,.14,2.63.39,7.59-1,12-2.87,9.07-12.12,13.86-12,14,.09.11,5.05-3.93,5-4s-4.15,4.6-11,8c-1.86.92-3.28,1.43-5,3-.51.47-2.64,2.48-4,6-.73,1.9-.92,3.41-1,10-.04,3.71-.02,5.75,0,10,.04,10.44-.1,8.91,0,11,.19,3.82.48,5.28,0,8-.19,1.05-.62,3.4-2,6-1.49,2.81-2.59,3.09-7,8-2.07,2.31-1.18,1.52-5,6-3.97,4.66-4.85,5.41-5,7-.29,3.14,4.03,3.99,4,7-.03,2.22-2.2,2.74-5,6-5.02,5.86-3.42,10.53-7,12-3.56,1.46-6.4-2.64-9-1-3.66,2.3-2,12.95-2,13-8.41,1.6-10,3-10,3-3.11,2.74-3.02,7.36-3,8,.19,5.58,7.94,6.27,8,11,.03,2.32-1.63,4.34-3,6-2.27,2.76-5.03,2.79-5,4,.03,1.48,3.87,2.59,6,3,5.9,1.13,9.98-2.34,11-1,.69.9-1.09,2.35-2,6-1.18,4.72.13,8.98,0,9-.12.01-.56-4.01-1-4-.48,0,.03,4.78-2,10-1.4,3.61-4,7.36-5,7-.9-.32-.53-3.92,0-4,.61-.09.57,4.54,4,8,1.82,1.84,3.87,2.6,5,3,3.23,1.16,4.81.47,10,1,3.05.31,2.86.59,6,1,8.68,1.14,13.35-.54,14,1,.68,1.61-3.81,4.86-4,5-1.72,1.23-4.82,3.02-15,4-9.06.87-15.78.34-19,0-3.1-.33-5.41-.72-7-1-2.23-.39-9.13-1.66-19-5-6.69-2.27-10.04-3.4-12-5-1.35-1.11-3.49-3.15-8-13-1.83-3.99-4.37-9.61-7-18-2.7-8.62-2.26-9.89-5-17-2.25-5.84-2.9-5.92-4-10-.34-1.28-.9-3.58-2-15,0,0-.96-10-1-10-.01,0,1.01,4.55,0,5-1.61.72-9.78-8.39-13-20-3.54-12.75,1.64-18.55-4-29-2.42-4.49-2.99-2.7-7-9-7.36-11.57-6.73-19.64-13-22-1.88-.71-4.22-.84-7-3-2.09-1.63-2.23-2.7-4-4-2.1-1.55-4.37-1.86-9-2-10.44-.33-10.66.87-14,0-3.26-.85-4.08-2.25-11-8-6.11-5.08-9.16-7.61-13-10-8.59-5.34-10.58-3.38-20-9-7.65-4.56-6.72-6.07-12-8-7.93-2.9-12.09-.26-16-4-1.11-1.07-2.08-4.38-4-11-2.9-9.98-1.96-9.74-4-15-1.25-3.23-2.07-4.51-2-7,.09-3.04,1.38-3.74,2-8,.12-.85.47-3.55,0-7-.11-.8-.53-3.57-2-7-1.75-4.07-2.81-4.04-4-7-1.59-3.98.14-4.53-1-10C1.88,34.86-.15,33.85,0,29.28c.03-.85.17-2.76,1-5,1.33-3.57,3.59-5.7,5-7,.68-.62,2.21-1.96,10-6,3.26-1.69,4.89-2.53,6-3,1.38-.58,7.58-3.08,15-3,11.19.13,15.96,6.04,20,3h0Z"/>
  </g>
</svg>