<?xml version="1.0" encoding="UTF-8"?>
<svg id="Calque_2" data-name="Calque 2" xmlns="http://www.w3.org/2000/svg" viewBox="0 0 849.16 117.65">
  <defs>
    <style>
      .cls-1 {
        fill: #427b1c;
      }
    </style>
  </defs>
  <g id="Calque_1-2" data-name="Calque 1">
    <path id="arctique" class="cls-1" d="m25.07,82.5c6.55-3.62,10.37-8.08,18-17,10.71-12.52,10.72-16.88,20-25,3.32-2.91,7.13-6.24,13-9,19.54-9.18,39.24-1.3,45,1,6.99,2.79,11.06,5.89,14,9,3.1,3.28,7.17,7.58,7,13-.19,5.96-5.3,6.78-8,15-.64,1.96-3.06,9.33,0,15,3.51,6.51,12.58,7.68,24,9,11.84,1.37,12.19-.56,29,0,14.62.49,18.11,2.07,27,0,9.27-2.16,14.7-6.04,16-7,7.05-5.2,6.21-8.43,11-12,8.2-6.12,15.62-.38,38-1,10.98-.3,18.64-.6,27-5,4.9-2.58,6.3-4.59,17-15,12.22-11.89,18.33-17.84,24-22,3.06-2.24,12.61-8.9,32-14,43.12-11.34,94-7,94-7,1.55.13,44.7-.91,131-3,91.99-2.23,137.98-3.34,140-4,4.63-1.52,18.38-6.45,32-1,5.44,2.18,10.7,7.48,21,18,18.05,18.44,15.98,19.65,27,29,5.03,4.27,9.91,7.78,16,15,8.23,9.75,8.86,14.61,9,16,.83,8.43-4.14,15.39-6,18,0,0-3.34,4.67-8,8-20.55,14.66-318.85,2.88-408,8-8.75.5-37.26,2.42-77,3-27.26.4-44.18-.05-91-1-71.02-1.43-106.52-2.15-109-2,0,0-70.68,4.29-127-2-5.37-.6-21.8-2.57-23-9-.87-4.66,6.52-10.33,10-13,5.92-4.55,9.38-4.9,15-8h0Z"/>
  </g>
</svg>