<?xml version="1.0" encoding="UTF-8"?>
<svg id="Calque_2" data-name="Calque 2" xmlns="http://www.w3.org/2000/svg" viewBox="0 0 263.86 143.41">
  <defs>
    <style>
      .cls-1 {
        fill: #427b1c;
      }
    </style>
  </defs>
  <g id="Calque_1-2" data-name="Calque 1">
    <path id="Australie" class="cls-1" d="m27.83,48.04c2.88-.05,5.09-.03,7,0,9.55.14,9.98.31,12,0,2.6-.4,4.73-1.27,9-3,6.05-2.46,9.08-3.69,11-6,2.9-3.48,3.87-8.33,4-9,.58-3.05.27-5.16,2-7,.92-.97,2.09-1.53,4-2,3.83-.94,6.55-.51,12,0,5.13.48,8.71.67,13,0,2.79-.44,4.07-.96,5-2,1.68-1.88.68-3.71,2-7,1.4-3.49,4.14-5.44,5-6,2.88-1.88,5.76-1.95,9-2,4.96-.07,5.77,1.03,13,2,4.05.54,8.59.84,11,1,5.89.39,9.46.38,10,2,.06.17.1.44-1,3-1.38,3.21-1.87,3.77-2,5-.06.6-.08,1.77,1,4,3.35,6.94,10,10,10,10,1.99.92,2.11.58,9,2,10.59,2.17,12.39,3.38,15,2,2.51-1.33,3.64-3.91,5-7,1.53-3.49,1.79-6.57,2-9,.04-.48,0-.15,0-9,0-6,.02-5.75,0-6-.17-2.67-.46-3.76,0-4,.85-.44,3.34,2.46,5,5,2.05,3.13,2.42,5.07,4,9,1.49,3.69,2.74,6.81,5,10,3.15,4.45,4.09,3.17,9,9,3.48,4.14,4.14,6.13,7,7,2.1.64,3.07-.03,6,1,1.35.47,3.38,1.19,5,3s1.2,2.9,3,6c.06.11,1.26,2.14,3,4,3.06,3.27,4.92,2.95,9,6,2.84,2.13,4.58,4.26,6,6,2.22,2.72,3.9,4.78,5,8,1.12,3.25,1.06,5.99,1,9-.04,1.94-.24,4.34-1,8-1.06,5.07-2.29,8.17-4,13-4.49,12.7-3.13,11.54-5,15-2.41,4.45-5.27,7.3-11,13-5.03,5-7.54,7.5-11,9-3.15,1.36-6.77,1.58-14,2-6.38.37-9.99.59-15,0-5.99-.7-10.26-2.11-16-4-5.85-1.93-9.97-3.76-15-6-7.72-3.44-11.59-5.16-16-8-7.77-5-6.84-6.51-13-10-5.93-3.36-11.07-4.4-19-6-9.81-1.98-17.27-2.01-19-2-6.41.02-11.59.04-18,2-6.76,2.07-6.23,3.65-16,7-4.73,1.63-9.03,2.69-14,3-2.15.14-2.59.02-6,0-9.43-.05-19.67.81-22,1-5.06.42-8.32.83-12-1-.97-.48-2.59-1.31-4-3-2.81-3.37-1.5-6.23-3-13-.66-2.96-1.77-5.64-4-11-2.62-6.3-2.94-5.7-4-9-1.11-3.45-2.9-9.06-1-15,.49-1.51,1.32-3.01,3-6,2-3.57,3.04-5.38,5-7,.76-.62.63-.38,5-3,4.46-2.67,4.13-2.64,5-3,1.36-.56,2.79-.89,9-1h0Z"/>
  </g>
</svg>