<?xml version="1.0" encoding="UTF-8"?>
<svg id="Calque_2" data-name="Calque 2" xmlns="http://www.w3.org/2000/svg" viewBox="0 0 1073.65 336.78">
  <defs>
    <style>
      .cls-1 {
        fill: #427b1c;
      }
    </style>
  </defs>
  <g id="Calque_1-2" data-name="Calque 1">
    <path class="cls-1" d="m1072.96,45.68c-1.32.93-6.79-5.47-15.91-7.05-4.46-.77-4.75.49-14,0-4.53-.24-6.11-.63-10-1-7.06-.67-11.98-.35-19,0,0,0-7.82.39-27,1-11.45.36-21.42.74-34,0-13.37-.78-10.31-1.53-29-3-14.66-1.15-22.46-1.16-34-5-6.24-2.08-5.14-2.47-10-4-13.72-4.32-21.49-.89-47,1-9.4.7-16.67.85-24,1-11.34.24-13.13-.06-31,0-21.12.08-20.43.5-26,0-13.71-1.24-12.79-3.36-29-5-14.69-1.48-22.03-2.22-24-2-3.43.39-8.63,1.3-10-1-.8-1.35-.16-3.63,1-5,1.88-2.21,4.3-1.08,6-3,1.73-1.96,1.47-5.67,0-8-1.93-3.07-5.93-3.66-9-4-11.85-1.31-21.86-.22-24,0-13.77,1.43-11.4-1.14-30,0-11.26.69-20.17,2.13-25,3-7.64,1.38-11.46,2.07-14,3-3.42,1.25-13,5.17-18,5-.22,0-.98-.04-2,0-2.98.12-5.15.77-6,1-1,.27-3.68.52-9,1-6.32.57-9.47.86-12,1-8.78.5-22.83.59-28,0-.45-.05-1.99-.24-4,0-.88.1-2.4.28-4,1-1.93.86-2.37,1.78-5,4-1.83,1.55-2.75,2.32-4,3-3.16,1.71-6.36,1.87-9,2-.15,0-.07,0-4,0h-25c-1.67,0-3.33.05-5,0-3.21-.09-3.6-.31-5,0-1.3.29-2.63.84-3,1-.93.4-1.61.78-2,1-2.53,1.44-4.52,3.01-6,4-2.49,1.67-2.22.85-6,3-4.39,2.5-5.38,3.97-8,4-.97,0-1.57-.18-3,0-1.81.23-2.29.71-4,1-1.45.24-2.54.14-4,0-2.17-.21-2.02-.51-5-1-2.79-.46-3.49-.29-5-1-.67-.32-.97-.56-2-1-1.23-.53-2.26-.82-3-1-2.25-.56-3.13-.52-6-1-4.37-.73-4.3-1.17-6-1-1.48.14-2.43.56-3,0-.62-.61-.29-1.88,0-3,.23-.91.66-2.47,2-4,.79-.9,1.9-1.8,5-3,2.89-1.12,5.21-1.62,7-2,6.18-1.3,9.26-1.95,10-2,5.68-.37,5.39,1.33,11,1,2.57-.15,2.42-.5,11-2,3.7-.65,3.13-.48,6-1,8.25-1.5,8.14-2.02,11-2,1.21,0,3.53.11,7,0,.67-.02,2.29-.09,4-1,.72-.38,2-1.06,2-2s-1.31-1.64-2-2c-1.77-.93-3.43-.97-5-1-2.92-.05-4.37-.07-6,0-4.47.2-5.62-.68-10-1-5.19-.38-4.28.8-12,1-6.17.16-9.97-.51-14,1-.47.18-1.49.59-3,1-2.06.56-3.43.69-6,1-3.8.46-5.7.7-7,1-2.03.47-3.42,1.01-6,2-3.4,1.31-4.44,1.93-7,3-4.08,1.7-7.41,2.58-9,3-5.1,1.34-8.56,1.6-12,4-.35.24-1.23.88-2,2-1.02,1.48-2.14,4.26-1,6,.36.55,1.24,1.03,3,2,.51.28,1.18.66,2,1,3.27,1.34,5.11.7,6,2,.63.92.4,2.24,0,3-.84,1.6-2.99,1.87-4,2-.96.12-1.69.03-2,0-.44-.05-.07,0-7,0-8.77,0-8.32-.09-9,0-3,.38-5.43,1.17-8,2-2.63.85-3.27,1.26-6,2-2.65.72-4.44.99-6,1h-22c-3.87-.07-5.62-.2-9,0-3.86.23-5.67.65-7,2-1.12,1.13-.62,1.64-2,3-.89.89-2.28,1.6-5,3-.25.13-.21.11-2,1-3.54,1.77-3.72,1.86-4,2-3.19,1.54-6.55,1.86-8,2-2.29.22-1.71-.13-7,0-2.1.05-3.14.13-5,0-3.24-.23-4.52-.78-5-1-.43-.2-1.29-.8-3-2-1.51-1.06-1.93-1.43-2-2-.07-.59.29-1.06,1-2,.75-.99,1.22-1.62,2-2,1.06-.52,1.81-.17,4,0,2.51.2,2.29-.21,4,0,2.09.25,2.3.84,6,2,1.63.51,2.59.81,4,1,1.58.22,3.12.42,5,0,1.61-.36,2.17-.9,4-1,1.09-.06,2,0,2,0,1.58.1,2.23.39,3,0,.62-.32.93-.87,1-1,.54-1.03-.13-1.74,0-4,.04-.67.11-.77,0-1-.42-.93-2.12-.89-4-1-1.66-.1-3.44-.4-7-1-2.37-.4-1.94-.46-5-1-3-.53-3.59-.51-5-1-1.78-.62-1.67-.95-4-2-2.38-1.08-4.37-1.58-6-2-1.33-.34-2.57-.56-5-1-3.25-.58-4.88-.88-6-1-5.23-.58-5.8.58-10,0-3.47-.48-3.29-1.31-7-2-3.66-.68-5.9-.27-10,0-2.08.14-5.72.09-13,0-7.16-.09-11.62-.35-19,0-2.77.13-4.66.29-7,1-3.81,1.15-5.29,2.69-9,5-6.67,4.15-7.12,2.44-15,7-4.15,2.4-5.24,3.58-9,5-3.24,1.22-3.96.93-8,2-6.29,1.67-6.15,2.8-15,6-6.23,2.25-7.34,2.06-10,4-3.14,2.29-2.96,3.56-6,5-3.32,1.58-5.07.8-8,3-1.11.83-1.62,1.52-3,2-2.02.71-3.35.1-4,1-.34.47-.08.8,0,3,.08,2.08-.14,2.02,0,3,.07.47.4,2.71,2,4,.95.76,1.98.9,4,1,3.65.19,6.42.07,8,0,6.03-.26,6.79-.23,8-1,.88-.56,1.4-1.17,3-2,.82-.43,3.3-1.72,4-1,.47.49-.36,1.37,0,3,.17.79.52,1.3,1,2,.91,1.32,1.42,1.42,3,3,1.65,1.65,1.71,2.16,3,3,1.01.66,1.26.53,2,1,2.22,1.42,1.74,3.72,3,5,2.73,2.76,11.59-1.3,16-4,2.92-1.79,2.58-2.17,7-5,2.38-1.52,3.71-2.2,5-4,.62-.87,1.69-2.64,2-5,.03-.19.01-.1,0-3-.02-5.68.05-5.01,0-6-.07-1.32-.14-1.51,0-2,.49-1.72,2.25-2.63,3-3,1.54-.77,2.37-.63,4-1,2.24-.52,2.35-1.18,6-3,4.15-2.07,4.16-1.29,7-3,2.18-1.31,2.74-2.11,5-3,.87-.34,2.19-.85,4-1,3.07-.25,5.36.71,6,1,.76.34,1.9.87,3,2,.86.89,2.18,2.24,2,4-.18,1.71-1.65,2.75-2,3-.86.61-1.66.76-3,1-3.43.61-5.15.91-6,1-4.02.41-4.82.12-6,1-1.21.9-1.69,2.17-2,3-.23.62-1.31,3.47,0,5,.8.94,2.17.98,3,1,9.39.19,11,0,11,0,8.02-.93,8.99-1.05,11-1,1.87.05,7.58.18,8,2,.16.71-.53,1.47-1,2-1.33,1.48-3.15,1.85-4,2-4.21.74-6.06-.17-11,0-1.13.04-3.76.18-7,1-2.6.66-3.9.99-5,2-2.21,2.04-.91,3.94-3,7-1.44,2.1-2.25,1.49-6,5-2.69,2.52-2.52,3.07-4,4-2.48,1.56-4.88,1.22-9,1-4.99-.27-10,.01-15,0h-24c-4.78-.02-4.61-.06-5,0-3.24.54-5.14,1.98-7,1-.27-.14-.8-.43-1-1-.22-.64.11-1.24,1-3,.61-1.21.92-1.82,1-2,.51-1.16,1.07-2.45,1-4-.04-.9-.1-2.24-1-3-1.05-.88-2.21-.11-6,0-2.7.08-2.69-.29-4,0-1.71.38-4.76,1.7-5,4-.24,2.26,2.35,4.24,4,5,1.31.6,1.74.29,3,1,1.93,1.08,3.47,3.21,3,4-.48.81-2.54-.59-6,0-1.97.33-3.45,1.15-5,2-1.72.95-2.39,1.62-5,3-.42.22-1.19.63-2,1-2.37,1.08-4.1,1.37-7,2-3.85.83-5.77,1.25-8,2-2.1.71-1.46.67-5,2-4.3,1.61-5.34,1.7-7,3-1.48,1.16-1.12,1.45-3,3-.86.71-2.54,2.08-5,3-1.92.72-3.44.83-6,1-1.9.13-3.29.09-6,0-3.63-.11-6.72-.36-9,1-.27.16-.72.45-1,1-.63,1.21-.09,3.03,1,4,.86.77,1.91.85,4,1,1.63.12,1.69-.08,3,0,1.24.07,3.98.23,6,2,.67.59,1.12,1.39,2,3,1.38,2.51,2.26,4.1,2,6-.05.36-.06.13-1,3-.89,2.71-.8,2.66-1,3-1.3,2.26-4.26,2.85-5,3-1.09.22-1.3,0-5,0-3.95,0-3.89.01-4,0-1.98-.12-2.93-.44-9-2-2.44-.63-3.67-.95-4-1-3.95-.64-7.06-.16-8,0-.88.15-1.92.44-4,1-2.32.63-2.7.82-3,1-1.41.84-1.37,1.56-3,3-.75.66-.88.61-3,2-2.58,1.69-3.87,2.53-4,3-.41,1.5,1.91,2.59,7,8,1.54,1.64,2.97,3.15,5,5,3.71,3.38,5.57,5.07,8,6,2.44.93,4.23.7,10,0,15.45-1.88,15.03-1.74,16-2,4.36-1.19,9.75-2.66,15-7,1.56-1.29,4.27-3.79,7-7,2.78-3.26,3.55-4.88,6-6,2.46-1.13,3.54-.35,7-1,4.35-.81,5.02-2.47,9-4,4.67-1.79,4.59.17,15-1,5.28-.59,8.14-1.42,12,0,1.79.66,3.5,1.69,4,2,3.25,2.01,3.99,3.5,6,5,1.52,1.14,1.92.9,10,3,7.02,1.83,8.95,2.59,11,4,2.16,1.49,3.41,2.34,4,4,1.62,4.5-3.65,9.08-2,11,.8.94,2.84.76,4,0,2.62-1.73,2.07-7.32,2-8-.21-1.94-.75-3.11,0-4,.61-.72,1.39-.47,3-1,2.05-.68,4.19-2.22,4-3-.21-.84-2.99-.26-7-1-2.9-.53-4.81-1.46-8-3-5.66-2.73-5.26-3.67-10-6-6.05-2.97-9.68-2.91-10-5-.25-1.6,1.63-3.27,3-4,.54-.29,2.26-1.1,7,0,2.01.46,4.28,1.21,12,5,.74.36,1.83.91,4,2,8.01,4.02,10.28,5.23,13,7,2.64,1.73,3.99,2.62,5,4,1.24,1.69,1.14,2.54,3,7,1.38,3.32,2.08,4.99,3,6,1.59,1.75,2.38,1.36,7,4,4.04,2.31,4.59,3.28,6,3,2.3-.45,3.79-3.59,4-6,.23-2.61-.94-5.5-3-7-1.43-1.04-2.92-1.14-3-2-.09-.92,1.56-1.77,2-2,3.2-1.66,6.91-.78,10,0,1.58.4,2.37.6,3,1,2.53,1.64,2.42,4.31,4,8,.66,1.55,2.41,5.64,6,8,2.79,1.83,5.61,1.9,10,2,4.83.11,5.04-.78,12-1,3.89-.13,3.56.16,8,0,3.45-.12,5.11-.35,8,0,4.34.53,5.63,1.65,6,2,.15.14,2.5,2.41,2,5-.13.68-.41,1.15-1,2-1.42,2.05-2.6,3.77-4,5-4.53,4.01-9.51,1.35-12,5-1.27,1.86-1.07,4.14-1,5,.31,3.63,2.73,4.32,3,8,.2,2.69-.95,4.07,0,5,1.1,1.06,3.58.16,4,0,2.19-.84,2.18-2.15,4-3,2.19-1.03,5.31-.6,7,1,1.8,1.71.5,3.36,2,6,1.88,3.31,5.09,2.75,9,6,2.39,1.98,2.54,3.31,5,7,5.12,7.69,7.74,6.86,14,15,2.39,3.11.93,1.83,7,11,4.02,6.07,5.54,7.96,7,12,1.16,3.2,2.03,5.62,2,9-.03,3.24-.88,5.5,0,6,.87.49,2.37-1.35,5-3,3.19-2,4.96-1.77,9-3,6.05-1.84,5.38-3.35,14-7,4.57-1.94,6.92-2.91,10-3,4.16-.12,5.17,1.26,9,1,2.95-.2,4.49-1.16,10-4,11.71-6.03,10.7-4.73,14-7,5.56-3.82,3.53-4.15,11-10,.04-.03,3.89-3.04,7-8,.95-1.52,1.25-2.29,1-3-.72-2.05-4.97-.85-9-4-1.82-1.42-1.29-1.93-3-3-3.11-1.95-4.88-.29-8-2-2.81-1.54-2.52-3.51-5-4-2.14-.42-4.33.67-5,1-1.57.78-1.42,1.23-3,2-2.28,1.1-4.38,1.03-5,1-1.62-.08-2.29-.5-4-1-4.08-1.19-5.14-.2-8-1-2.77-.78-2.39-1.88-7-5-5.53-3.74-7.77-3.29-9-6-1.02-2.26-.77-5.46,1-7,1.16-1.01,2.64-1,4-1,2.45.01,3.53.81,9,3,3.6,1.44,3.56,1.26,5,2,2.33,1.2,2.74,1.82,6,4,3.29,2.2,4.94,3.3,7,4,3.1,1.05,5.8,1.02,7,1,3.43-.07,3.57-.87,7-1,1.98-.08,3.99.28,8,1,3.77.67,5.68,1.03,7,2,1.05.77,1.61,1.54,3,2,1.8.59,3.41.14,4,0,4.15-1,6.96,1.33,16,2,3.37.25,7.1.53,12,0,3.37-.36,5.29-.89,8,0,1.36.45,2.42,1.1,3.68,2.07,4.56-.14,9.13-.26,13.67-.06.19-2.3,1.76-4.28,4.74-3.92,9.17,1.12,16.61,4.87,24.7,9.05,8.05,4.15,15.76,4.76,24.7,4.31,9.24-.47,17.84-1.3,26.93,1.15,7.7,2.07,15.01,5.21,22.69,7.29,1.99-1.94,3.2-1.45,6.88-3.89,2.92-1.93,2.4-2.4,4-3,1.3-.49,1.95-.29,9,1,3.33.61,4.64.83,6,2,.41.35,1.55,1.36,2,3,.35,1.27.01,1.93,0,3-.02,2.36,1.58,3.2,4,7,1.32,2.07,2.35,3.7,3,6,1.1,3.92-.29,4.93,1,7,.6.96,2.74,1.99,7,4,3.89,1.84,4.45,1.95,5,2,3.83.38,6.83-1.87,7-2,2.02-1.56,2.32-3.16,3-3,.3.07,1.01.56,1,9-.01,5.14-.27,5.55,0,8,.41,3.72,1.44,6.5,2,8,.72,1.92.91,1.95,4,8,1.88,3.69,3.68,7.35,4,8,2.61,5.31,2.46,5.21,3,6,1.81,2.62,3.87,4.08,8,7,4.56,3.22,5.95,3.37,7,3,.89-.32,1.7-1.08,2-2,.47-1.47-.45-3.03-2-5-3.01-3.83-6.06-6.26-7-7-7.17-5.64-7.25-4.98-9-7-1.76-2.04-2.84-4.36-5-9-1.91-4.11-2.87-6.23-3-9-.08-1.67.28-3.45,1-7,.83-4.09,1.38-4.77,2-5,.91-.33,1.91.34,4,2,3.73,2.97,6.48,5.59,8,7,2.96,2.73,4.44,4.1,6,5,2.92,1.69,3.6,1.12,9,3,6.46,2.25,7.64,3.83,10,3,1.23-.43,1-.89,5-4,2.99-2.32,3.13-2.07,4-3,2.13-2.27,2.51-5.06,3-9,.59-4.77.88-7.15,0-10-1.82-5.88-7.17-9.7-9-11-3.3-2.35-6.07-3.24-6-5,.05-1.18,1.34-1.99,3-3,7.5-4.55,11.25-6.82,12-7,4.56-1.09,4.39.77,13,0,1.03-.09.69-.09,8-1,7.48-.93,7.05-.84,8-1,6.54-1.11,6.22-2.06,12-3,4.72-.76,6.4-.37,8-2,1.61-1.64,1.06-3.2,2-6,1.45-4.28,3.88-4.02,9-10,2.11-2.46,5.33-6.3,7-12,.14-.48.69-2.41,1-5,.47-3.93-.14-4.96,0-11,.07-3.08.24-3.47,0-5-.38-2.39-1.28-4.41-2-6-1.18-2.61-1.41-2.27-2-4-.85-2.5-.98-4.94-1-6-.03-1.71.18-1.82,0-3-.35-2.3-1.32-2.99-1-4,.32-1.03,1.68-1.41,4-2,5.1-1.29,7.66-1.93,9-2,3.26-.17,5.54.29,9,1,5.63,1.15,8.44,1.72,11,4,.66.59,2.93,2.66,4,6,.8,2.5.08,3.07,1,7,1.06,4.56,2.46,5.64,3,6,.91.6,1.82.78,3,1,1.34.25,2.81.31,5,0,4.32-.62,6.98-.99,8-3,.75-1.47.26-3.11,0-4-.7-2.36-2.39-3.73-4-5-.62-.49-.88-.63-5-3-3.3-1.89-4.94-2.86-5-4-.04-.87.6-1.57,1-2,1.38-1.49,2.92-1.18,5-2,2.31-.91,1.86-1.85,5-4,1.69-1.16,1.77-.84,6-3,5.23-2.67,5.74-3.46,6-4,.99-2.09-.25-3.65,1-5,.71-.76,1.7-.9,4-1,5.61-.24,6.06.34,8,0,3.27-.57,3.04-2.39,8-5,4.16-2.19,4.7-1.11,8-3,2.8-1.61,2.99-2.72,8-8,5.4-5.69,5.5-4.74,8-8,3.23-4.21,2.02-4.44,6-10,1.86-2.6,3.09-3.9,3-6-.08-1.88-1.2-3.97-3-5-2.17-1.25-3.56.05-9,0-2.43-.02-4.55-.06-7-1-1.68-.65-5.28-2.03-6-5-.76-3.12,2.19-6.07,3-7,2.61-3.01,6.18-3.94,13-5,8.47-1.32,13.29-1.49,18-2,5.91-.64,10.28-1.76,19-4,19.06-4.89,19.35-7.42,30-9,12.8-1.89,11.71,1.86,24,0,16.55-2.51,25.96-10.45,31-6,1.36,1.2,2.32,3.24,2,5-.51,2.85-4.16,4.07-14,8-11.39,4.55-12.7,5.38-14,7-3.86,4.83-3.26,11.24-3,14,.34,3.66.91,9.71,5,12,5.63,3.16,14.13-2.94,17-5,4.13-2.97,7.07-6.61,9-9,3.31-4.1,3.79-5.81,7-9,.66-.66,3.65-3.58,8-6,6.88-3.83,9.05-1.9,18-5,7.87-2.72,7.92-4.81,16-7,5.08-1.37,5.22-.59,10-2,6.65-1.96,7.35-3.75,15-7,5.92-2.51,10.08-4.28,16-5,5.83-.71,9.72.04,13-3,1.97-1.82,2.71-4.08,3-5,1.07-3.37.55-6.67-.08-8.95Z"/>
  </g>
</svg>