<?xml version="1.0" encoding="UTF-8"?>
<svg id="Calque_2" data-name="Calque 2" xmlns="http://www.w3.org/2000/svg" viewBox="0 0 316.2 124.38">
  <defs>
    <style>
      .cls-1 {
        fill: #427b1c;
      }
    </style>
  </defs>
  <g id="Calque_1-2" data-name="Calque 1">
    <g id="Groenland">
      <path class="cls-1" d="m4.12,24.58c4.71-3.55,9.25-2.37,17-3,9.57-.78,16.92-3.73,20-5,5.6-2.3,7.27-3.92,17-8,4.33-1.82,6.5-2.72,8-3,7.81-1.43,11.35,2.05,18,0,3.59-1.11,3.26-2.34,7-4,5.7-2.53,10.93-1.65,20,0,11.87,2.16,22.37,4.16,27,5,9.66,1.75,14.49,2.62,20,3,12.56.86,15.29-1.18,34-2,9.2-.4,15.9-.23,25,0,15.74.4,23.6.6,30,2,9.08,1.99,12.19,4.12,22,5,7.35.66,13.38.15,15,0,8.73-.8,15.44-2.86,26-2,3.36.27,5.58.72,6,2,.64,1.96-2.94,5.66-7,7-3.62,1.19-5.12-.33-9,1-.61.21-2.77,1-6,4-4.05,3.76-5.08,6.63-8,11-5.6,8.39-7.67,6.63-13,15-2.69,4.22-3.01,6-6,9-1.1,1.1-3.82,3.63-9,6-6.79,3.1-12.69,3.6-17,4-8.69.8-17.33,2-26,3-20.62,2.37-24.66,4.04-28,6-4.61,2.7-3.96,3.62-11,8-3.53,2.2-4.84,2.68-18,9-8.4,4.03-10.25,4.99-14,6-5.09,1.38-10.72,2.82-14,0-2.14-1.85-1.06-3.61-4-7-2.02-2.34-4.32-3.57-7-5-3.1-1.66-3.65-1.42-7-3-5.17-2.44-7.75-3.66-9-6-1.68-3.15.57-4.71,0-12-.38-4.85-1.68-8.21-2-9-1.04-2.59-2.49-6.2-6-9-4.37-3.49-9.57-3.84-12-4-5.93-.39-7.34,1.53-10,0-3.59-2.06-2.42-6.35-6-9-2.65-1.96-5.74-1.42-10-1-17.38,1.73-16.82-2.18-32,0-5.36.77-7.96,1.62-11,0-3.75-2-4.42-5.79-9-7-2.65-.7-4.47.02-5-1-.7-1.36,1.7-4.26,4-6Z"/>
      <path class="cls-1" d="m209.12,87.58c2.76-1.62,7.14,1.41,8,2,.57.39,1.71,1.59,4,4,2.91,3.06,3.84,4.31,4,6,.11,1.17-.26,1.3,0,2,.71,1.88,3.58,1.33,8,3,1.79.68.45.44,8,5,.93.56,1.77,1.06,2,2,.21.89-.22,1.84-3,5-2.46,2.8-3.69,4.19-5,5-2.03,1.25-3.98,1.69-6,2-1.38.21-17.46,2.57-19-2-.25-.75.16-1.83,1-4,1.58-4.09,3.15-4.78,3-7-.12-1.82-1.3-3.18-2-4-1.49-1.73-2.43-1.52-4-3-.31-.29-2.67-2.57-3-6-.23-2.4.64-4.2,2-7,.83-1.7,1.24-2.56,2-3Z"/>
      <path class="cls-1" d="m189.12,101.58c1.09-1.48,3.74-1.34,9-1,2.83.18,3.52.42,4,1,.96,1.15.53,2.92,0,5-.8,3.11-1.51,5.89-4,8-1.49,1.26-3.66,1.84-8,3-2.12.57-3.44.77-5,1-4.13.61-5.32.28-6,0-1.56-.63-3.23-2.02-3-3,.23-.96,2.07-.48,4-2,1.83-1.44,1.17-2.65,3-4,1.76-1.3,2.97-.61,4-2,.34-.46.27-.61,1-3,.57-1.87.86-2.8,1-3Z"/>
    </g>
  </g>
</svg>