<?xml version="1.0" encoding="UTF-8"?>
<svg id="Calque_2" data-name="Calque 2" xmlns="http://www.w3.org/2000/svg" viewBox="0 0 176.15 155.05">
  <defs>
    <style>
      .cls-1 {
        fill: #427b1c;
      }
    </style>
  </defs>
  <g id="Calque_1-2" data-name="Calque 1">
    <path id="Indien" class="cls-1" d="m.12,14c1.04-4.42,8.93-6.12,13-7,5.33-1.15,6.72-.06,19,0,9.14.05,9-.56,13,0,6.65.92,6.24,2.47,16,5,9.5,2.46,10.84,1.25,16,4,3.44,1.83,5.67,3.88,7,3,1.74-1.15.23-6.22,0-7-1.3-4.37-4.89-4.8-5-8-.07-1.93,1.02-3.94,2-4,.64-.04.96.77,3,4,2.32,3.68,2.6,3.72,3,5,.58,1.82.2,2.28,1,4,.64,1.38,1.52,2.43,2,3,.35.41,1.18,1.4,2,2,2.1,1.53,4.85,1.11,6,1,3.15-.29,6.77,1.47,14,5,5.08,2.48,4.04,2.7,12,7,5.02,2.71,6.13,3.01,9,5,2.16,1.51,4.14,3.36,8,7,6.46,6.1,9.7,9.14,11,11,2.95,4.19,3.82,7.21,7,8,2.39.59,3.21-.79,5,0,2.84,1.26,1.83,5.2,5,12,1.48,3.18,1.82,2.58,4,7,3.23,6.57,3.09,9.13,3,10-.08.8-.39,2.2-1,5-.08.37-.39,1.58-1,4-.66,2.6-.72,2.82-1,3-1.26.83-3.16-1.54-7-3-3.37-1.28-6.38-1.15-10-1-2.59.11-4.59.19-7,1-4.41,1.48-5.3,3.77-9,6-3.17,1.92-6.45,2.28-13,3-8.08.89-15.18.1-16,0-4.79-.56-7.02-1.35-10,0-2.06.94-2.04,1.8-6,4-2.41,1.34-3.46,1.61-5,3-1.72,1.56-1.77,2.47-3,4-2.74,3.41-5.19,2.24-11,6-1.99,1.29-4.02,2.6-6,5-1.54,1.87-1.97,3.08-4,5-1.66,1.58-2.22,1.56-4,3-2.42,1.95-2.28,2.68-6,7-2.21,2.56-3.68,4.25-6,6-4.13,3.11-4.73,3.15-5,3-.85-.46-.22-2.07-.5-5.5-.28-3.44-1.25-6.02-2-8-1.22-3.22-2.12-4.05-3-6-2.16-4.8-.34-7.92,0-15,.42-8.76-2.19-7.79-2-17,.17-8.46,2.42-11.48,0-16-.39-.74-.32-.41-6-6-7.94-7.82-9.09-9.45-10-11-.98-1.68-1.45-2.85-3-5-2.04-2.83-2.59-2.67-4-5-1.6-2.64-1.39-3.65-3-5-1.25-1.05-1.83-.82-3-2-.42-.43-2.02-2.04-2-4,.01-1.72,1.25-1.98,3-5,.85-1.46,2-3.51,2-6,0-1.82-.62-3.19-1-4C6.63,26.09-1.04,18.93.12,14Z"/>
  </g>
</svg>