<?xml version="1.0" encoding="UTF-8"?>
<svg id="Calque_2" data-name="Calque 2" xmlns="http://www.w3.org/2000/svg" viewBox="0 0 46.15 70.49">
  <defs>
    <style>
      .cls-1 {
        fill: #427b1c;
      }
    </style>
  </defs>
  <g id="Calque_1-2" data-name="Calque 1">
    <path id="Madagascar" class="cls-1" d="m9.01,21.36c1.96-.65,3.2-.08,5,0,2.39.11,4.18-.71,7-2,1.73-.79,2.88-1.57,5-3s3.18-2.15,4-3c2.35-2.45,1.7-3.66,4-6,1.74-1.76,2.08-1.04,4-3,1.93-1.97,2.16-3.28,4-4,.31-.12,1.92-.75,3,0,.75.52.93,1.49,1,2,.62,4.39-1.04,12.67-1,19,.04,5.31,1.25,6.31,0,9-1.39,2.98-3.4,2.88-6,7-1.61,2.56-2.4,5.07-3,7-1.13,3.61-.76,4.39-2,7-1.17,2.47-1.7,2.22-3,5-1.19,2.54-1.77,4.93-2,6-.72,3.35-.2,3.78-1,5-1.35,2.07-3.99,2.6-6,3-1.06.21-3.06.14-7,0-4.06-.15-5.39-.3-7-1-1.86-.8-2.78-1.76-3-2-1.49-1.6-1.89-3.43-2-4-.4-2.14.44-2.59,0-5-.24-1.3-.69-2.3-1-3C.84,52.77-.11,52.49.01,51.36c.19-1.76,2.7-2.87,3-3,1.87-.82,2.58-.04,4-1,1.56-1.05,1.96-2.83,2-3,.17-.81.08-1.47,0-2-.23-1.58-.79-1.91-1-3-.27-1.42.53-1.72,1-4,.56-2.73-.04-5,0-5,.03,0,.22.91,0,1-.42.18-1.2-3.06-4-5-.51-.35-.93-.55-1-1-.18-1.08,1.9-2.34,3-3,.71-.43,1.24-.75,2-1h0Z"/>
  </g>
</svg>