<?xml version="1.0" encoding="UTF-8"?>
<svg id="Calque_2" data-name="Calque 2" xmlns="http://www.w3.org/2000/svg" viewBox="0 0 547.73 200.76">
  <defs>
    <style>
      .cls-1 {
        fill: #fff;
      }

      .cls-2 {
        fill: #233d4d;
      }

      .cls-3 {
        fill: #3f70c6;
      }

      .cls-4 {
        fill: #481964;
      }

      .cls-5 {
        fill: #fe7f2d;
      }

      .cls-6 {
        fill: #3fffc6;
      }

      .cls-7 {
        fill: #355c75;
      }

      .cls-8 {
        fill: #619b8a;
      }
    </style>
  </defs>
  <g id="Calque_1-2" data-name="Calque 1">
    <path id="bras-g" class="cls-5" d="m431,85.31c-5.11-4.8-14.73-.09-19,2-3.48,1.7-7.34,3.66-9,8-.12.32-2.35,6.38,1,10,2.77,3,7.52,2.34,10,2,2.2-.3,2.66-.78,10-4,6.55-2.87,7.12-2.9,8-4,2.87-3.61,2.58-10.64-1-14Z"/>
    <path id="avant-bras-g" class="cls-5" d="m405,97.31c-2.89-.04-5.67,1.71-7,4-.83,1.43-.93,2.78-1,4-.37,6.75.2,11.75,1,18,.5,3.95.72,5.44,2,7,.33.4,2.48,2.92,6,3,2.92.06,5.92-1.57,7-4,.75-1.69.08-2.64,0-6-.08-3.49.6-4.14,1-8,.49-4.72.87-8.44-1-12-.4-.77-3.11-5.93-8-6Z"/>
    <g id="main-g">
      <ellipse class="cls-8" cx="406.5" cy="134.31" rx="5.62" ry="6"/>
      <path class="cls-8" d="m398.86,145.74c.3.23.93.24,1.23.24,2.6.02,3.33-1.78,4.18-4.03.1-.26,1.14-3.15-.38-4.81-.14-.15-.47-.52-1.02-.73-.73-.28-1.35-.1-1.49-.05-.21.28-.46.73-.57,1.33-.26,1.44.55,2.35.77,3.49.56,2.91-3.6,3.87-2.72,4.56Z"/>
      <path class="cls-8" d="m399.9,149.84c.49.38,1.52.39,2.01.39,4.23.03,5.42-2.9,6.8-6.56.16-.42,1.86-5.12-.62-7.82-.22-.24-.77-.84-1.67-1.19-1.2-.46-2.2-.15-2.43-.08-.33.46-.75,1.18-.93,2.17-.42,2.34.89,3.83,1.26,5.68.93,4.73-5.85,6.29-4.42,7.41Z"/>
      <path class="cls-8" d="m408.1,151c.58.21,1.56-.11,2.03-.26,4.02-1.31,4.22-4.47,4.37-8.38.02-.45.14-5.44-3.07-7.22-.29-.16-1-.55-1.96-.6-1.28-.06-2.14.55-2.33.69-.17.54-.34,1.36-.2,2.35.34,2.36,2.06,3.35,2.99,4.98,2.39,4.2-3.54,7.83-1.83,8.44Z"/>
    </g>
    <path id="cuisse-g" class="cls-5" d="m366,52.31c-11.14-8.12-33.31-6.71-42,7-5.72,9.03-5.06,22.55,1,30,3.94,4.84,7.74,4.16,11,10,3.52,6.31.46,9.58,4,17,1.15,2.4,4.18,8.77,11,11,6.01,1.97,12.87.05,17-4,4.9-4.81,5.01-11.73,5-17-.06-32.64-.09-48.97-7-54Z"/>
    <path id="mollet-g" class="cls-5" d="m346,96.31c-6.82,2.71-9.66,9.18-10,10-2.9,6.88-.72,14.19,1,20,2.05,6.9,4.25,8.54,4,14-.15,3.39-1.11,5.18,0,8,.98,2.51,3.43,5.44,7,6,4.88.77,8.49-3.41,9-4,2.69-3.11,1.95-5.6,4-11,1.82-4.8,3.56-5.86,6-10,2.27-3.86,8.07-13.71,5-22-3.25-8.77-16.1-14.93-26-11Z"/>
    <path id="tibia-g" class="cls-8" d="m347,145.31c-4.9,1.36-7.23,5.6-8,7-1.81,3.28-1.95,6.39-2,8-.07,1.98.17,3.71,1,7,2.12,8.42,3.17,12.63,6,15,.71.6,4.27,3.5,9,3,4.35-.46,8.88-3.71,9-7,.07-2.09-1.71-2.29-3-6-1.01-2.92-.2-3.65-1-8-.8-4.37-1.69-4.04-2-7-.59-5.52,2.41-7.54,1-10-1.54-2.69-6.67-2.93-10-2Z"/>
    <g id="pied-g">
      <path class="cls-8" d="m349,173.31c-3.07,2.41-3.82,6.13-4,7-.47,2.3.24,2.14,0,6-.28,4.43-1.33,6.53,0,8,.45.5.98.68,2,1,2.59.82,4.76.48,8,0,4.8-.71,5.24-1.53,7-1,1.8.54,1.88,1.45,4,2,1.46.38,2.16.14,5,0,.54-.03,2.36-.02,6,0,4.14.02,4.9.08,7,0,3.72-.14,5.58-.23,6-1,.84-1.56-1.68-5.21-5-7-3.92-2.12-6.03-.08-10-1-8.71-2.03-8.35-14.14-17-16-2.9-.62-6.44-.01-9,2Z"/>
      <path class="cls-4" d="m385.14,190.39c-1.29,1.94.78,5.61,2.52,5.8.65.07.84-.38,2.16-.59.3-.05,1.48-.22,2.82.15,2.01.55,2.22,2.42,3.42,2.31.7-.06,1.3-.72,1.49-1.34.1-.33.15-.9-.59-2.16-.95-1.61-2.15-2.58-2.67-2.98-1.55-1.18-2.86-2.19-4.83-2.39-.73-.05-3.31-.32-4.32,1.2Z"/>
    </g>
    <path id="queue" class="cls-7" d="m0,58.31c.09.29,8.17-3.06,21-5,9.99-1.51,18.93-1.58,28-1,20.77,1.32,37.32,5.69,50,9,44.59,11.63-21.39-6.27,63,16,0,0,27.65,7.29,63,16,31.22,7.69,37.05,8.73,46,8,4.37-.36,45.75-4.2,50-27,3.31-17.76-17.37-39.14-33-39-3.58.03-4.17,1.17-15,4-9.07,2.37-15.64,3.4-26,5-14.73,2.27-28.15,4.33-44,5-9.31.39-21.33-.4-45-2-30.52-2.06-34.23-2.81-55-4-26.31-1.51-39.46-2.26-50-1C22.5,45.95-.16,57.82,0,58.31Z"/>
    <g id="cou">
      <path class="cls-7" d="m488,5.31c4.96,1.22,18.39,4.54,24,17,4.34,9.64,2.95,22.41-4,29-3.96,3.76-9,5-9,5-4.42,1.09-8.28.35-10,0-3.89-.79-3.89-1.75-7-2-1-.08-5.11-.32-9,2-2.44,1.45-3.54,3.16-5,5-1.83,2.31-4.88,4.87-11,10-8.98,7.53-13.47,11.3-18,12-7.37,1.14-13.26-2.53-14-3-7.91-5.09-10.39-14.98-10-22,.41-7.43,5.61-13.96,16-27,6.36-7.98,9.64-12.05,15-16,10.23-7.55,19.97-9.6,22-10,4.08-.8,11.29-2.15,20,0Z"/>
      <path class="cls-2" d="m423,75.31c.1-.21,2.61,1.44,6,1,1.79-.23,2.82-.92,6-3,8.53-5.59,8.94-5.76,10-7,.35-.41,1.57-2.28,4-6,1.9-2.92,2.44-3.82,3-5,1.46-3.04,1.07-3.62,2-5,1.74-2.6,4.04-1.93,8-4,.44-.23,6.68-3.6,9-10,.85-2.34.15-2.28,1-7,.89-4.95,1.53-8.5,4-12,3.04-4.31,7.2-6.21,9-7,1.58-.7,5.14-2.27,9-2,8.16.57,14.84,9.19,17,17,2.52,9.1.1,21.41-7,25-7.38,3.73-14.66-4.59-26,0-2.1.85-4.06,2.23-8,5-5.69,4-8.44,6.89-14,12-9.95,9.14-15.01,13.71-19,14-7.6.54-14.16-5.64-14-6Z"/>
    </g>
    <path id="machoire-inf" class="cls-2" d="m477.77,30.36c-8.64,2.35-9.83,5.73-10.09,6.73-.74,2.84,1.05,5.84,2.24,7.85,1.99,3.35,4.56,5.2,6.73,6.73,3.45,2.43,6.73,3.75,8.97,4.49,5.4,1.77,7.27.96,19.07,2.24,5.97.65,5.06.81,8.97,1.12,6.91.55,7.08-.16,16.82,0,6.57.11,8.6.47,11.21-1.12.44-.27,4.2-2.61,4.49-5.61.59-6.19-13.86-12.16-22.43-15.7-26.93-11.12-41.61-7.92-45.98-6.73Z"/>
    <g id="machoire-sup">
      <path class="cls-7" d="m547.3,49.43c-1.58,2.53-5.83,2.46-13.46,2.24-4.86-.14-7.52-.23-11.21-1.12-4.63-1.12-8.08-2.87-13.46-5.61-5.99-3.05-6.92-4.16-10.09-4.49-2.71-.28-2.98.44-8.97,1.12-5.61.64-8.42.96-11.21,0-.3-.1-5.34-1.92-7.85-6.73-4.85-9.3,3.28-23.16,10.09-24.67,3.37-.75,6.73-1.12,6.73-1.12,3.18-.35,4.25-.22,5.61-1.12,1.73-1.15,1.36-2.25,3.36-4.49.82-.91,3.59-3.99,5.61-3.36,2.26.69,1.39,5.32,4.49,6.73,1,.45,2.34.55,3.36,0,1.17-.63,1.12-1.68,2.24-3.36,1.22-1.83,3.45-3.83,4.49-3.36.72.33.33,1.6,1.12,5.61.44,2.21.76,2.86,1.12,3.36.8,1.13,1.97,1.62,3.36,2.24,2.03.9,2.22.53,3.36,1.12,2.06,1.07,2.06,2.62,4.49,5.61.24.29,1.28,1.31,3.36,3.36,3.93,3.86,4.46,4.29,5.61,5.61.66.75,2,2.31,3.36,4.49.97,1.55,3.53,5.93,4.49,12.34.45,3.01.68,4.52,0,5.6Z"/>
      <circle class="cls-2" cx="540.57" cy="40.46" r="2.24"/>
    </g>
    <g id="corps">
      <path class="cls-2" d="m283,40.31c-6.52,4.72-9.15,9.36-10,11-3.87,7.43-3.36,14.64-3,20,.52,7.65,2.64,13,5,19,3.16,8.02,5.42,13.57,11,18,.96.76,2.86,2.16,10,5,8.18,3.25,16.36,5.66,27,8,14.53,3.2,16.93,5.13,22,4,3.19-.71,4.27-1.65,10-3,7.08-1.67,12.72-1.95,14-2,9.72-.41,12.01,1.59,20,0,1-.2.52-.14,7-2,9.35-2.68,11.18-3.04,18-5,9.52-2.74,14.33-4.14,17-6,5.78-4.02,8.42-8.89,9-10,.71-1.36,2.51-5.11,3-11,1.39-16.76-8.47-43.41-22-45-2.45-.29-3.07.48-7,0-6.64-.8-9.61-3.55-16-6-2.86-1.09-6.28-1.74-13-3-10.08-1.88-18.26-3.41-28-4-9.99-.6-17.99.26-34,2-28.08,3.05-34.89,6.3-40,10Z"/>
      <path class="cls-7" d="m283,36.31c-6.52,4.72-9.15,9.36-10,11-3.87,7.43-3.36,14.64-3,20,.52,7.65,2.64,13,5,19,3.16,8.02,5.42,13.57,11,18,.96.76,2.86,2.16,10,5,8.18,3.25,16.36,5.66,27,8,14.53,3.2,16.93,5.13,22,4,3.19-.71,4.27-1.65,10-3,7.08-1.67,12.72-1.95,14-2,9.72-.41,12.01,1.59,20,0,1-.2.52-.14,7-2,9.35-2.68,11.18-3.04,18-5,9.52-2.74,14.33-4.14,17-6,5.78-4.02,8.42-8.89,9-10,.71-1.36,2.51-5.11,3-11,1.39-16.76-8.47-43.41-22-45-2.45-.29-3.07.48-7,0-6.64-.8-9.61-3.55-16-6-2.86-1.09-6.28-1.74-13-3-10.08-1.88-18.26-3.41-28-4-9.99-.6-17.99.26-34,2-28.08,3.05-34.89,6.3-40,10Z"/>
    </g>
    <path id="mollet-d" class="cls-5" d="m314,98.31c-6.82,2.71-9.66,9.18-10,10-2.9,6.88-.72,14.19,1,20,2.05,6.9,4.25,8.54,4,14-.15,3.39-1.11,5.18,0,8,.98,2.51,3.43,5.44,7,6,4.88.77,8.49-3.41,9-4,2.69-3.11,1.95-5.6,4-11,1.82-4.8,3.56-5.86,6-10,2.27-3.86,8.07-13.71,5-22-3.25-8.77-16.1-14.93-26-11Z"/>
    <path id="cuisse-d" class="cls-5" d="m334,54.31c-11.14-8.12-33.31-6.71-42,7-5.72,9.03-5.06,22.55,1,30,3.94,4.84,7.74,4.16,11,10,3.52,6.31.46,9.58,4,17,1.15,2.4,4.18,8.77,11,11,6.01,1.97,12.87.05,17-4,4.9-4.81,5.01-11.73,5-17-.06-32.64-.09-48.97-7-54Z"/>
    <path id="tibia-d" class="cls-8" d="m315,147.31c-4.9,1.36-7.23,5.6-8,7-1.81,3.28-1.95,6.39-2,8-.07,1.98.17,3.71,1,7,2.12,8.42,3.17,12.63,6,15,.71.6,4.27,3.5,9,3,4.35-.46,8.88-3.71,9-7,.07-2.09-1.71-2.29-3-6-1.01-2.92-.2-3.65-1-8-.8-4.37-1.69-4.04-2-7-.59-5.52,2.41-7.54,1-10-1.54-2.69-6.67-2.93-10-2Z"/>
    <g id="pied-d">
      <path class="cls-8" d="m317,175.31c-3.07,2.41-3.82,6.13-4,7-.47,2.3.24,2.14,0,6-.28,4.43-1.33,6.53,0,8,.45.5.98.68,2,1,2.59.82,4.76.48,8,0,4.8-.71,5.24-1.53,7-1,1.8.54,1.88,1.45,4,2,1.46.38,2.16.14,5,0,.54-.03,2.36-.02,6,0,4.14.02,4.9.08,7,0,3.72-.14,5.58-.23,6-1,.84-1.56-1.68-5.21-5-7-3.92-2.12-6.03-.08-10-1-8.71-2.03-8.35-14.14-17-16-2.9-.62-6.44-.01-9,2Z"/>
      <path class="cls-4" d="m353.14,192.39c-1.29,1.94.78,5.61,2.52,5.8.65.07.84-.38,2.16-.59.3-.05,1.48-.22,2.82.15,2.01.55,2.22,2.42,3.42,2.31.7-.06,1.3-.72,1.49-1.34.1-.33.15-.9-.59-2.16-.95-1.61-2.15-2.58-2.67-2.98-1.55-1.18-2.86-2.19-4.83-2.39-.73-.05-3.31-.32-4.32,1.2Z"/>
      <path class="cls-4" d="m334.25,195.44c-.91.55-.76,2.47-.08,2.88.25.16.42.01,1.01.17.13.04.65.2,1.14.61.72.62.45,1.43.96,1.62.3.11.68-.05.87-.26.11-.12.24-.34.17-1.01-.08-.85-.39-1.48-.53-1.75-.41-.79-.76-1.46-1.53-1.92-.29-.17-1.3-.77-2.01-.34Z"/>
    </g>
    <path id="bras-d" class="cls-5" d="m420,85.31c-5.11-4.8-14.73-.09-19,2-3.48,1.7-7.34,3.66-9,8-.12.32-2.35,6.38,1,10,2.77,3,7.52,2.34,10,2,2.2-.3,2.66-.78,10-4,6.55-2.87,7.12-2.9,8-4,2.87-3.61,2.58-10.64-1-14Z"/>
    <path id="avant-bras-d" class="cls-5" d="m394,97.31c-2.89-.04-5.67,1.71-7,4-.83,1.43-.93,2.78-1,4-.37,6.75.2,11.75,1,18,.5,3.95.72,5.44,2,7,.33.4,2.48,2.92,6,3,2.92.06,5.92-1.57,7-4,.75-1.69.08-2.64,0-6-.08-3.49.6-4.14,1-8,.49-4.72.87-8.44-1-12-.4-.77-3.11-5.93-8-6Z"/>
    <g id="main-d">
      <ellipse class="cls-8" cx="395.5" cy="134.31" rx="5.62" ry="6"/>
      <path class="cls-8" d="m387.86,145.74c.3.23.93.24,1.23.24,2.6.02,3.33-1.78,4.18-4.03.1-.26,1.14-3.15-.38-4.81-.14-.15-.47-.52-1.02-.73-.73-.28-1.35-.1-1.49-.05-.21.28-.46.73-.57,1.33-.26,1.44.55,2.35.77,3.49.56,2.91-3.6,3.87-2.72,4.56Z"/>
      <path class="cls-8" d="m388.9,149.84c.49.38,1.52.39,2.01.39,4.23.03,5.42-2.9,6.8-6.56.16-.42,1.86-5.12-.62-7.82-.22-.24-.77-.84-1.67-1.19-1.2-.46-2.2-.15-2.43-.08-.33.46-.75,1.18-.93,2.17-.42,2.34.89,3.83,1.26,5.68.93,4.73-5.85,6.29-4.42,7.41Z"/>
      <path class="cls-8" d="m397.1,151c.58.21,1.56-.11,2.03-.26,4.02-1.31,4.22-4.47,4.37-8.38.02-.45.14-5.44-3.07-7.22-.29-.16-1-.55-1.96-.6-1.28-.06-2.14.55-2.33.69-.17.54-.34,1.36-.2,2.35.34,2.36,2.06,3.35,2.99,4.98,2.39,4.2-3.54,7.83-1.83,8.44Z"/>
    </g>
    <g>
      <circle class="cls-3" cx="504.5" cy="23.81" r="6"/>
      <circle class="cls-6" cx="504.5" cy="23.81" r="4.5"/>
      <circle cx="506" cy="23.81" r="3"/>
      <circle class="cls-1" cx="504.5" cy="23.81" r="1.5"/>
    </g>
  </g>
</svg>