<?xml version="1.0" encoding="UTF-8"?>
<svg id="Calque_2" data-name="Calque 2" xmlns="http://www.w3.org/2000/svg" xmlns:xlink="http://www.w3.org/1999/xlink" viewBox="0 0 937.38 358.5">
  <defs>
    <style>
      .cls-1 {
        fill: #fff;
      }

      .cls-2 {
        fill: #233d4d;
      }

      .cls-3 {
        fill: url(#Dégradé_sans_nom_2);
      }

      .cls-4 {
        fill: #3f70c6;
      }

      .cls-5 {
        fill: #ffe6d4;
      }

      .cls-6 {
        fill: #14746f;
      }

      .cls-7 {
        fill: #a1c181;
      }

      .cls-8 {
        fill: #56ab91;
      }

      .cls-9 {
        fill: #2b2c28;
      }

      .cls-10 {
        fill: #2e3192;
      }

      .cls-11 {
        fill: url(#Dégradé_sans_nom);
      }

      .cls-12 {
        fill: #ffe6b4;
      }

      .cls-13 {
        fill: #248277;
      }

      .cls-14 {
        fill: #051923;
      }

      .cls-15 {
        fill: #3c6e71;
      }

      .cls-16 {
        fill: #3fffc6;
      }

      .cls-17 {
        fill: #99e2b4;
      }

      .cls-18 {
        fill: #084c61;
      }

      .cls-19 {
        fill: #78c6a3;
      }

      .cls-20 {
        fill: #036666;
      }

      .cls-21 {
        fill: #bf0000;
      }
    </style>
    <linearGradient id="Dégradé_sans_nom" data-name="Dégradé sans nom" x1="351.54" y1="229.66" x2="630.43" y2="229.66" gradientTransform="translate(0 429) scale(1 -1)" gradientUnits="userSpaceOnUse">
      <stop offset="0" stop-color="#036666"/>
      <stop offset=".36" stop-color="#0b6d6a"/>
      <stop offset=".91" stop-color="#207f75"/>
      <stop offset="1" stop-color="#248277"/>
    </linearGradient>
    <linearGradient id="Dégradé_sans_nom_2" data-name="Dégradé sans nom 2" x1="367.18" y1="133.83" x2="367.18" y2="280.96" gradientTransform="translate(0 429) scale(1 -1)" gradientUnits="userSpaceOnUse">
      <stop offset="0" stop-color="#56ab91"/>
      <stop offset=".14" stop-color="#439b87"/>
      <stop offset=".41" stop-color="#207e75"/>
      <stop offset=".56" stop-color="#13736e"/>
    </linearGradient>
  </defs>
  <g id="Calque_1-2" data-name="Calque 1">
    <path id="cuisse-gauche" class="cls-20" d="m410.24,151.4c-2.81,1.4-8.81,4.8-13.97,11.4-3.04,3.89-8.08,11.83-9.25,29.03-.49,7.24,2.27,21.42,7.8,49.48,12.6,63.86,9.17,33.81,9.73,38.24.15,1.2.54,4.49,2.76,7.77,5.54,8.17,17.08,8.32,17.88,8.32,2.27,0,10.35-.02,14.54-5.43,2.5-3.22,1.62-5.79,2.83-12.33,1.45-7.86,3.77-9.9,7.22-18.78,2.75-7.08,3.78-12.28,5.84-22.67,2.38-12.01,1.81-14.49,4.21-39.59,2.3-24.06,3.5-28.81-.39-35.13-4.89-7.94-13.3-10.97-17.27-12.39-15.78-5.68-29.65.95-31.93,2.08Z"/>
    <path id="mollet-gauche" class="cls-20" d="m425.05,287c-6.87,1.06-10.21,9.1-11,11-2.1,5.05-1.65,9.53-1,16,.73,7.25,2.81,13.45,3,14,1.54,4.49,2.45,5.37,3,9,.75,4.94-.48,6.42,1,9,1.59,2.78,4.58,3.82,8,5,2.76.96,6.09,2.11,10,1,1.22-.35,4.4-1.25,6-4,1.41-2.43.77-4.87,0-9-1.22-6.57-1.8-12.21-2-15-.42-5.93.36-6.34,0-15-.23-5.46-.34-8.19-1-10-2.19-5.99-8.86-13.1-16-12Z"/>
    <path id="bras-gauche" class="cls-20" d="m595.05,157c-1.45-.36-13.81-3.27-24,4-5.59,3.99-7.74,9.05-11,17-5.87,14.33-6.57,27.57-7,37-.52,11.52.66,14.19-1,24-1.37,8.12-2.67,9.2-3,16-.5,10.35,2.29,12.62,0,19-2.04,5.69-5.1,6.26-6,12-.26,1.63-1.1,7.03,2,11,4.07,5.21,12.25,4.55,19,4,4.27-.35,6.4-.52,8-2,3.86-3.57.09-8.78,3-17,1.28-3.62,1.98-2.51,9-13,6.02-8.99,6.71-11.61,7-13,1.23-5.94-1.07-8.05-1-13,.13-9.59,8.91-12.19,18-25,4.21-5.93,12.51-17.63,11-32-.28-2.65-1.77-13.76-11-22-5.62-5.02-11.49-6.62-13-7Z"/>
    <path id="avant-bras-gauche" class="cls-20" d="m559.05,277c-4.8,1.18-7.36,5.04-8,6-.78,1.17-3.42,5.5-2,16,.93,6.87,2.31,6.93,6,19,3.74,12.25,5.61,18.37,6,20,.96,3.98,1.48,6.75,4,9,3.76,3.35,9.21,3.09,11,3,2.52-.12,4.95-.24,7-2,3.21-2.75,3.05-7.46,3-9-.13-3.97-1.71-5.07-3-10-.34-1.28-.62-2.7-1-10-.64-12.36-.12-13.88-1-20-1.02-7.12-2.43-9.94-3-11-.94-1.75-2.89-5.3-7-8-2.01-1.32-6.58-4.33-12-3Z"/>
    <g id="cou">
      <path class="cls-17" d="m617.05,202c-18.93-.09-30.7-25.23-32-28-2.25-4.8-11.54-24.65-2-39,4.28-6.43,10.48-8.95,18-12,13.91-5.64,20.46-3.17,45-6,15.69-1.81,13.8-2.92,32-5,19.46-2.23,31.32-2.08,35-2,7.61.16,15.43.32,25,2,13.42,2.36,16.01,5.2,38,13,15.79,5.6,26.71,9.48,42,13,4.64,1.07,14.82,3.29,28,8,12.74,4.55,16.41,7.19,19,11,3.94,5.81,5.46,14.5,2,22-4.17,9.03-13.44,11.69-18,13-7.88,2.26-14.48,1.06-20,0-8.51-1.64-12.06-4.08-25-10-9.18-4.2-15.79-6.8-29-12-15.18-5.98-22.78-8.96-28-10-14.34-2.85-26.09-1.37-37,0-7.48.94-14.32,2.63-28,6-14.74,3.63-22.2,5.52-27,9-8.63,6.26-7.25,10.7-17,18-4.68,3.5-12.08,9.04-21,9Z"/>
      <path class="cls-13" d="m617.05,192c-18.93-.09-30.7-25.23-32-28-2.25-4.8-11.54-24.65-2-39,4.28-6.43,10.48-8.95,18-12,13.91-5.64,20.46-3.17,45-6,15.69-1.81,13.8-2.92,32-5,19.46-2.23,31.32-2.08,35-2,7.61.16,15.43.32,25,2,13.42,2.36,16.01,5.2,38,13,15.79,5.6,26.71,9.48,42,13,4.64,1.07,14.82,3.29,28,8,12.74,4.55,16.41,7.19,19,11,3.94,5.81,5.46,14.5,2,22-4.17,9.03-13.44,11.69-18,13-7.88,2.26-14.48,1.06-20,0-8.51-1.64-12.06-4.08-25-10-9.18-4.2-15.79-6.8-29-12-15.18-5.98-22.78-8.96-28-10-14.34-2.85-26.09-1.37-37,0-7.48.94-14.32,2.63-28,6-14.74,3.63-22.2,5.52-27,9-8.63,6.26-7.25,10.7-17,18-4.68,3.5-12.08,9.04-21,9Z"/>
    </g>
    <g id="pied-gauche2">
      <path class="cls-12" d="m455.52,358.48h-6.39c-1.12,0-2.02-.91-2.02-2.02v-6.39c0-1.8,2.18-2.71,3.46-1.43l6.39,6.39c1.27,1.27.37,3.45-1.44,3.45Z"/>
      <path class="cls-2" d="m444.99,325.52h-8.23c-3.19,0-5.77,2.58-5.77,5.77-.02.82-.05,2.13,0,3.75.08,2.84.29,3.49,0,4.8-.16.72-.57,2.6-2.2,3.98-2.01,1.71-4.58,1.54-5.32,1.46-.38,0-2.38.04-4.01,1.66-1.03,1.02-1.66,2.44-1.66,4.01v1.85c0,3.13,2.54,5.66,5.66,5.66h22.89v-.22c2.53-.7,4.39-3.01,4.39-5.77v-21.17c.03-3.19-2.56-5.78-5.75-5.78Z"/>
      <path class="cls-5" d="m452.59,358.48h-6.39c-1.12,0-2.02-.91-2.02-2.02v-6.39c0-1.8,2.18-2.71,3.46-1.43l6.39,6.39c1.27,1.27.37,3.45-1.44,3.45Z"/>
    </g>
    <g id="pied-gauche">
      <path class="cls-12" d="m598.52,357.48h-6.39c-1.12,0-2.02-.91-2.02-2.02v-6.39c0-1.8,2.18-2.71,3.46-1.43l6.39,6.39c1.27,1.27.37,3.45-1.44,3.45Z"/>
      <path class="cls-2" d="m587.99,324.52h-8.23c-3.19,0-5.77,2.58-5.77,5.77-.02.82-.05,2.13,0,3.75.08,2.84.29,3.49,0,4.8-.16.72-.57,2.6-2.2,3.98-2.01,1.71-4.58,1.54-5.32,1.46-.38,0-2.38.04-4.01,1.66-1.03,1.02-1.66,2.44-1.66,4.01v1.85c0,3.13,2.54,5.66,5.66,5.66h22.89v-.22c2.53-.7,4.39-3.01,4.39-5.77v-21.17c.03-3.19-2.56-5.78-5.75-5.78Z"/>
      <path class="cls-5" d="m595.59,357.48h-6.39c-1.12,0-2.02-.91-2.02-2.02v-6.39c0-1.8,2.18-2.71,3.46-1.43l6.39,6.39c1.27,1.27.37,3.45-1.44,3.45Z"/>
    </g>
    <g id="machoire-sup">
      <g>
        <path class="cls-6" d="m929.05,156c2.01-.06,7.02-.25,8,2,.66,1.52-.68,3.77-2,5-1.7,1.59-3.79,1.87-5,2-6.43.72-11.95.11-13,0-1.81-.19-5.87-.13-14,0-9.33.15-16.7.79-19,1-13.33,1.23-17.43,2.81-23,0-2.13-1.07-6.45-3.78-6-6,.56-2.79,8.24-2.72,28-4,15.3-.99,30.67.49,46,0Z"/>
        <path class="cls-8" d="m841.05,136c-2.11,2.5-2.48,5.24-3,9-.54,3.93-1.82,13.28,4,19,5.21,5.13,13.16,4.43,18,4,4.9-.43,6.14-1.59,14-4,2.7-.83,12.06-3.62,23-5,11.25-1.42,16.88-2.14,22-1,1.84.41,8.4,2.01,15,0,1.13-.35,2.4-.84,3-2,1.41-2.76-1.89-7.46-5-10-2.18-1.78-4.86-2.99-12-4-9.66-1.36-18.73-1.12-22-1-6.48.24-9.6.75-14-1-2.98-1.18-3.57-2.22-7-4-5.73-2.97-10.95-3.64-14-4-6.81-.81-16.94-2.01-22,4Z"/>
        <path class="cls-10" d="m912.05,144c-2.9.01-4.51.02-5,1-.45.92.28,2.27,1,3,1.4,1.42,3.5,1.23,6,1,2.36-.22,2.85-.8,3-1,.62-.83.59-2.17,0-3-.71-.99-2.15-1.01-5-1Z"/>
      </g>
      <path class="cls-19" d="m862.05,130c-5.84-.33-9.98,2.58-12,4-4.13,2.9-6.13,6.42-7,8-1.92,3.47-4.39,7.93-3,13,1.95,7.1,9.9,9.65,11,10,5.21,1.67,9.64.41,11,0,5.46-1.63,8.54-5.24,10-7,1.71-2.06,4.64-5.59,5-11,.09-1.39.38-7.23-4-12-4.15-4.52-9.59-4.92-11-5Z"/>
    </g>
    <g id="machoire-inf">
      <path class="cls-21" d="m891.05,167c2.53.15,7.51.44,14,0,7.15-.49,12.21-1.59,19,0,1.97.46,4.08,1.15,5,3,.95,1.91.33,4.47-1,6-2.03,2.34-5.6,2.13-9,2-6.33-.24-12.67.14-19,0-9.69-.21-14.62-.29-19,1-3.54,1.05-4.42,1.89-9,3-5.67,1.37-9.07,2.2-13,1-.37-.11-9-2.88-10-10-.38-2.7.26-6.64,3-9,2.77-2.39,6.1-1.81,24,1,9.43,1.48,11.5,1.79,15,2Z"/>
      <path class="cls-7" d="m931.51,170.5h-60.22c-2.32-5.3-7.59-9-13.74-9-8.28,0-15,6.72-15,15s6.72,15,15,15c2.72,0,5.26-.73,7.46-2h49.57c9.92,0,17.96-8.04,17.96-17.96.01-.58-.45-1.04-1.03-1.04Z"/>
    </g>
    <g id="queue">
      <path class="cls-17" d="m395.05,238c13.43-10.53,17.9-34.23,10-50-13.37-26.69-61.58-29.45-91-23-14.3,3.14-15.84,6.62-52,17-11.9,3.41-21.43,5.82-38,10-13.47,3.4-29.28,7.39-50,12-28.9,6.43-53.34,10.96-59,12-29.87,5.49-28.93,4.44-37,7-15.18,4.81-26.79,11.54-50,25C14.75,255.71-.95,264.81.05,267c.58,1.26,6.52-.21,16-3,31.59-9.29,42.4-15.48,61-21,7.26-2.15,24.29-6.75,46-8,16.53-.95,17.51,1.08,46,2,17.54.56,34.98,1.12,57-1,22.23-2.14,23.26-4.53,41-5,3.63-.1,19.98-.43,42,3,23.81,3.71,25.58,7.36,44,9,19.17,1.7,32,2.85,42-5Z"/>
      <path class="cls-20" d="m395.05,233c13.43-10.53,17.9-34.23,10-50-13.37-26.69-61.58-29.45-91-23-14.3,3.14-15.84,6.62-52,17-11.9,3.41-21.43,5.82-38,10-13.47,3.4-29.28,7.39-50,12-28.9,6.43-53.34,10.96-59,12-29.87,5.49-28.93,4.44-37,7-15.18,4.81-26.79,11.54-50,25C14.75,250.71-.95,259.81.05,262c.58,1.26,6.52-.21,16-3,31.59-9.29,42.4-15.48,61-21,7.26-2.15,24.29-6.75,46-8,16.53-.95,17.51,1.08,46,2,17.54.56,34.98,1.12,57-1,22.23-2.14,23.26-4.53,41-5,3.63-.1,19.98-.43,42,3,23.81,3.71,25.58,7.36,44,9,19.17,1.7,32,2.85,42-5Z"/>
    </g>
    <path id="avant-bras-droit" class="cls-8" d="m602.71,281.93c-4.09,2.76-5.16,7.27-5.43,8.4-.33,1.37-1.3,6.35,3.66,15.7,3.25,6.13,4.57,5.7,12.2,15.75,7.74,10.2,11.62,15.3,12.55,16.69,2.27,3.4,3.72,5.82,6.87,7.06,4.69,1.84,9.71-.29,11.36-.99,2.32-.99,4.56-1.94,5.88-4.3,2.05-3.69.28-8.05-.3-9.48-1.49-3.68-3.36-4.16-6.27-8.35-.76-1.09-1.51-2.32-4.4-9.04-4.88-11.37-4.91-12.98-7.86-18.42-3.42-6.33-5.72-8.49-6.62-9.28-1.49-1.32-4.55-3.97-9.33-5.09-2.35-.53-7.68-1.77-12.31,1.35Z"/>
    <path id="mollet-droit" class="cls-8" d="m364.05,276c-4.03-2.15-8.2-1.46-11-1-1.11.18-6.18,1.1-11,5-6.58,5.32-8.49,12.77-10,19-3.08,12.72,1.23,12.74-2,24-1.9,6.6-2.99,13.43-5,20-.44,1.43-1.24,3.98,0,6,1.39,2.26,4.57,2.56,10,3,6.45.52,9.67.78,12-1,2.11-1.61,2.2-3.53,4-10,0,0,1.88-6.75,5-15,2.78-7.35,4.17-11.03,7-15,3.49-4.89,6.31-6.61,8-12,1.01-3.25,1.03-5.94,1-7-.05-1.87-.56-12.04-8-16Z"/>
    <g id="corps">
      <path class="cls-17" d="m551.55,123.5c14.71-1.6,32.45-3.52,48,6,16.57,10.14,22.25,28.14,26,40,3.72,11.79,7.13,22.58,3,34-2.76,7.65-7.01,10.34-12,24-1.02,2.78-2.21,6.42-5,11-3.27,5.36-6.82,8.87-9,11-5.06,4.93-9.81,8.06-13,10-9.65,5.88-19.58,9.85-35,15-15.33,5.12-22.99,7.68-33,10-13.64,3.17-25.6,5.94-41,6-20.48.07-35.9-4.7-53-10-18.45-5.72-27.67-8.57-36-14-22.12-14.42-39.49-41.86-40-72-.03-2.05-.27-43.07,22-54,3.62-1.78,9.42-2.52,21-4,12.82-1.64,17.66-1.17,34-2,21.16-1.08,19.46-2.2,39-3,12.35-.5,15.67-.16,29-1,11.85-.74,20.6-1.72,23-2,18.75-2.15,22.15-3.93,32-5Z"/>
      <g id="corps-2" data-name="corps">
        <g>
          <path class="cls-9" d="m71.05,222c-6.12,2.49-12.49,5.52-12.5,5.5-.03-.07,52.63-19.85,113.5-51.5,43-22.36,84.49-47.69,123-58,3.85-1.03,12.23-3.14,24-7,25.51-8.37,34.74-14.44,51-20,14.76-5.05,26.84-6.37,51-9,26.6-2.9,49.58-5.4,79-2,21.51,2.49,39.33,7.31,67,4,4.77-.57,23.3-2.99,25-11,1.13-5.3-5.36-11.84-4-13,1.01-.86,3.97,3.28,8,3,5.15-.36,9.52-7.75,11-14,2.09-8.78-1.2-16.65,0-17,.72-.21,1.51,2.69,5,6,2.75,2.61,5.32,3.72,6,4,2.19.91,5.42,2.24,8,1,1.49-.72,3.11-2.46,4-8,1.82-11.36-2.11-21.97-2-22,.1-.03,1.12,10.17,8,15,.75.52,5.41,3.69,9,2,1.27-.6,3.22-2.18,5-14,1.49-9.87,1.04-14.88,2-15,1.27-.16,5.19,8.3,6,18,.32,3.82.05,6.51,2,8,2.25,1.72,6.44,1.07,9-1,2.8-2.27,3.24-5.91,4-13,.78-7.3.14-10.81,1-11,1.39-.31,5.48,8.43,8,17,1.44,4.88,1.63,7.22,4,9,3.67,2.76,8.98,1.48,11,1,.99-.24,6.52-1.57,10-6C713.65,14.57,708.85.03,709.05,0s3.36,13.4,7,22c.49,1.15,1.54,3.53,4,5,2.06,1.23,4.99,1.76,7,1,7.23-2.71,5.22-22.93,7-23,1.48-.06,4.36,13.89,5,17,.61,2.98,1.04,5.44,3,8,.72.94,3.4,4.45,8,5,4.96.59,8.64-2.67,9-3,6.75-6.18,4.05-20,4-20-.06,0,1.59,16.69,4,27,.31,1.33,1.14,4.66,4,7,.61.5,3.83,3.01,7,2,2.03-.64,3.15-2.45,4-4,4.68-8.55,4.85-15.97,6-16,1.38-.04,2.92,10.59,4,18,.58,4.01,1.7,7.96,2,12,.28,3.82.13,6.38,2,8,1.5,1.3,4,1.75,6,1,5.12-1.92,5.43-11.14,7-11,1.52.14,1.37,8.8,3,9,1.7.21,3.13-9.04,5-9,1.88.04,3.05,9.39,6,34,2.54,21.19,2.77,23.55,4,29,2.58,11.48,4.23,13.09,3,15-5.51,8.53-43.07-16.39-90-24-13.89-2.25-26.2-2.6-112,10-40.1,5.89-60.15,8.83-90,14-151,26.15-147.39,13.68-230,33-100.1,23.41-150.15,35.12-163,42-6.08,3.26-39.45-1.05-74,13Z"/>
          <path class="cls-18" d="m74.05,225c-5.98,1.23-11.21,2.36-11.5,1.5-.93-2.71,50.55-16.74,112.5-47.5,44.63-22.16,83.53-47.43,123-58,3.85-1.03,12.23-3.14,24-7,25.51-8.37,34.74-14.44,51-20,14.76-5.05,26.84-6.37,51-9,26.6-2.9,49.58-5.4,79-2,21.51,2.49,39.33,7.31,67,4,4.77-.57,23.3-2.99,25-11,1.13-5.3-5.36-11.84-4-13,1.01-.86,3.97,3.28,8,3,5.15-.36,9.52-7.75,11-14,2.09-8.78-1.2-16.65,0-17,.72-.21,1.51,2.69,5,6,2.75,2.61,5.32,3.72,6,4,2.19.91,5.42,2.24,8,1,1.49-.72,3.11-2.46,4-8,1.82-11.36-2.11-21.97-2-22,.1-.03,1.12,10.17,8,15,.75.52,5.41,3.69,9,2,1.27-.6,3.22-2.18,5-14,1.49-9.87,1.04-14.88,2-15,1.27-.16,5.19,8.3,6,18,.32,3.82.05,6.51,2,8,2.25,1.72,6.44,1.07,9-1,2.8-2.27,3.24-5.91,4-13,.78-7.3.14-10.81,1-11,1.39-.31,5.48,8.43,8,17,1.44,4.88,1.63,7.22,4,9,3.67,2.76,8.98,1.48,11,1,.99-.24,6.52-1.57,10-6,6.6-8.43,1.8-22.97,2-23s3.36,13.4,7,22c.49,1.15,1.54,3.53,4,5,2.06,1.23,4.99,1.76,7,1,7.23-2.71,5.22-22.93,7-23,1.48-.06,4.36,13.89,5,17,.61,2.98,1.04,5.44,3,8,.72.94,3.4,4.45,8,5,4.96.59,8.64-2.67,9-3,6.75-6.18,4.05-20,4-20-.06,0,1.59,16.69,4,27,.31,1.33,1.14,4.66,4,7,.61.5,3.83,3.01,7,2,2.03-.64,3.15-2.45,4-4,4.68-8.55,4.85-15.97,6-16,1.38-.04,2.92,10.59,4,18,.58,4.01,1.7,7.96,2,12,.28,3.82.13,6.38,2,8,1.5,1.3,4,1.75,6,1,5.12-1.92,5.43-11.14,7-11,1.52.14,1.37,8.8,3,9,1.7.21,3.13-9.04,5-9,1.88.04,3.05,9.39,6,34,2.54,21.19,2.77,23.55,4,29,2.58,11.48,4.23,13.09,3,15-5.51,8.53-43.07-16.39-90-24-13.89-2.25-26.2-2.6-112,10-40.1,5.89-60.15,8.83-90,14-151,26.15-147.39,13.68-230,33-100.1,23.41-150.15,35.12-163,42-27.92,14.95-30.94,4.13-74,13Z"/>
        </g>
        <path class="cls-11" d="m551.55,116.5c14.71-1.6,32.45-3.52,48,6,16.57,10.14,22.25,28.14,26,40,3.72,11.79,7.13,22.58,3,34-2.76,7.65-7.01,10.34-12,24-1.02,2.78-2.21,6.42-5,11-3.27,5.36-6.82,8.87-9,11-5.06,4.93-9.81,8.06-13,10-9.65,5.88-19.58,9.85-35,15-15.33,5.12-22.99,7.68-33,10-13.64,3.17-25.6,5.94-41,6-20.48.07-35.9-4.7-53-10-18.45-5.72-27.67-8.57-36-14-22.12-14.42-39.49-41.86-40-72-.03-2.05-.27-43.07,22-54,3.62-1.78,9.42-2.52,21-4,12.82-1.64,17.66-1.17,34-2,21.16-1.08,19.46-2.2,39-3,12.35-.5,15.67-.16,29-1,11.85-.74,20.6-1.72,23-2,18.75-2.15,22.15-3.93,32-5Z"/>
      </g>
    </g>
    <g id="pied-droit2">
      <path class="cls-12" d="m358.55,358.5h-6.4c-1.12,0-2.03-.91-2.03-2.03v-6.4c0-1.81,2.18-2.71,3.46-1.43l6.4,6.4c1.28,1.28.37,3.46-1.43,3.46Z"/>
      <path class="cls-15" d="m348,325.5h-8.24c-3.19,0-5.78,2.59-5.78,5.78-.02.82-.05,2.13,0,3.75.08,2.84.29,3.49,0,4.81-.16.72-.57,2.6-2.2,3.99-2.02,1.72-4.59,1.54-5.33,1.47-.38,0-2.39.04-4.01,1.66-1.03,1.03-1.66,2.44-1.66,4.01v1.85c0,3.13,2.54,5.67,5.67,5.67h22.93v-.22c2.54-.7,4.4-3.02,4.4-5.77v-21.22c.01-3.19-2.58-5.78-5.78-5.78Z"/>
      <path class="cls-5" d="m355.62,358.5h-6.4c-1.12,0-2.03-.91-2.03-2.03v-6.4c0-1.81,2.18-2.71,3.46-1.43l6.4,6.4c1.28,1.28.37,3.46-1.43,3.46Z"/>
    </g>
    <g id="pied-droit">
      <path class="cls-12" d="m667.55,357.5h-6.4c-1.12,0-2.03-.91-2.03-2.03v-6.4c0-1.81,2.18-2.71,3.46-1.43l6.4,6.4c1.28,1.28.37,3.46-1.43,3.46Z"/>
      <path class="cls-15" d="m657,324.5h-8.24c-3.19,0-5.78,2.59-5.78,5.78-.02.82-.05,2.13,0,3.75.08,2.84.29,3.49,0,4.81-.16.72-.57,2.6-2.2,3.99-2.02,1.72-4.59,1.54-5.33,1.47-.38,0-2.39.04-4.01,1.66-1.03,1.03-1.66,2.44-1.66,4.01v1.85c0,3.13,2.54,5.67,5.67,5.67h22.93v-.22c2.54-.7,4.4-3.02,4.4-5.77v-21.22c.01-3.19-2.58-5.78-5.78-5.78Z"/>
      <path class="cls-5" d="m664.62,357.5h-6.4c-1.12,0-2.03-.91-2.03-2.03v-6.4c0-1.81,2.18-2.71,3.46-1.43l6.4,6.4c1.28,1.28.37,3.46-1.43,3.46Z"/>
    </g>
    <g id="bras-droit">
      <path class="cls-14" d="m601.91,158.25c-1.49.16-14.09,1.71-21.14,12.05-3.86,5.67-4.14,11.17-4.44,19.76-.55,15.47,3.37,28.14,6.23,37.14,3.5,10.99,5.53,13.09,7.36,22.86,1.52,8.09.67,9.56,2.72,16.05,3.11,9.89,6.51,11.05,6.57,17.83.05,6.04-2.62,7.64-1.48,13.33.32,1.62,1.4,6.97,5.68,9.63,5.62,3.49,13.07.03,19.21-2.82,3.88-1.8,5.82-2.7,6.81-4.64,2.39-4.68-2.95-8.27-3.06-16.99-.05-3.84.99-3.04,3.95-15.31,2.54-10.52,2.28-13.22,2.07-14.62-.9-6-3.79-7.19-5.43-11.85-3.2-9.04,4.15-14.52,8.24-29.68,1.9-7.02,5.64-20.87-.75-33.83-1.18-2.39-6.42-12.3-17.93-16.84-7-2.76-13.06-2.23-14.61-2.07Z"/>
      <path class="cls-8" d="m597.91,158.25c-1.49.16-14.09,1.71-21.14,12.05-3.86,5.67-4.14,11.17-4.44,19.76-.55,15.47,3.37,28.14,6.23,37.14,3.5,10.99,5.53,13.09,7.36,22.86,1.52,8.09.67,9.56,2.72,16.05,3.11,9.89,6.51,11.05,6.57,17.83.05,6.04-2.62,7.64-1.48,13.33.32,1.62,1.4,6.97,5.68,9.63,5.62,3.49,13.07.03,19.21-2.82,3.88-1.8,5.82-2.7,6.81-4.64,2.39-4.68-2.95-8.27-3.06-16.99-.05-3.84.99-3.04,3.95-15.31,2.54-10.52,2.28-13.22,2.07-14.62-.9-6-3.79-7.19-5.43-11.85-3.2-9.04,4.15-14.52,8.24-29.68,1.9-7.02,5.64-20.87-.75-33.83-1.18-2.39-6.42-12.3-17.93-16.84-7-2.76-13.06-2.23-14.61-2.07Z"/>
    </g>
    <g id="cuisse-droite">
      <path class="cls-14" d="m353.05,150c-2.94,1.12-9.23,3.93-15,10-3.4,3.58-9.18,11-12,28-1.19,7.16.19,21.54,3,50,6.39,64.78,5.87,34.54,6,39,.03,1.21.1,4.52,2,8,4.73,8.66,16.2,9.92,17,10,2.26.22,10.31.98,15-4,2.79-2.97,2.17-5.61,4-12,2.2-7.69,4.71-9.49,9-18,3.42-6.78,4.95-11.85,8-22,3.53-11.72,3.19-14.25,8-39,4.61-23.72,6.26-28.34,3-35-4.11-8.38-12.19-12.2-16-14-15.18-7.17-29.62-1.91-32-1Z"/>
      <path class="cls-3" d="m356.05,150c-2.94,1.12-9.23,3.93-15,10-3.4,3.58-9.18,11-12,28-1.19,7.16.19,21.54,3,50,6.39,64.78,5.87,34.54,6,39,.03,1.21.1,4.52,2,8,4.73,8.66,16.2,9.92,17,10,2.26.22,10.31.98,15-4,2.79-2.97,2.17-5.61,4-12,2.2-7.69,4.71-9.49,9-18,3.42-6.78,4.95-11.85,8-22,3.53-11.72,3.19-14.25,8-39,4.61-23.72,6.26-28.34,3-35-4.11-8.38-12.19-12.2-16-14-15.18-7.17-29.62-1.91-32-1Z"/>
    </g>
    <g>
      <circle class="cls-4" cx="862.55" cy="147.5" r="8"/>
      <circle class="cls-16" cx="862.55" cy="147.5" r="6"/>
      <circle cx="864.55" cy="147.5" r="4"/>
      <circle class="cls-1" cx="862.55" cy="147.5" r="2"/>
    </g>
  </g>
</svg>