<?xml version="1.0" encoding="UTF-8"?>
<svg id="Calque_2" data-name="Calque 2" xmlns="http://www.w3.org/2000/svg" viewBox="0 0 981.83 403.12">
  <defs>
    <style>
      .cls-1 {
        fill: #fff;
      }

      .cls-2 {
        fill: #9d721b;
      }

      .cls-3 {
        fill: #998675;
      }

      .cls-4 {
        fill: #ffb54d;
      }

      .cls-5 {
        fill: #ebe2c4;
      }

      .cls-6 {
        fill: #3f70c6;
      }

      .cls-7 {
        fill: #ddb54d;
      }

      .cls-8 {
        fill: #e38d31;
      }

      .cls-9 {
        fill: none;
      }

      .cls-10 {
        fill: #b28675;
      }

      .cls-11 {
        fill: #3fffc6;
      }

      .cls-12 {
        fill: #9d9843;
      }

      .cls-13 {
        fill: #b88d31;
      }

      .cls-14 {
        fill: #025c4f;
      }
    </style>
  </defs>
  <g id="Calque_1-2" data-name="Calque 1">
    <g id="queue">
      <path class="cls-7" d="m736.75,141.63c-20.95-4.37-37.39-9.28-46-12-20.15-6.36-28.88-10.61-66-25-31.7-12.29-47.68-18.45-54-19-22.18-1.93-61.72,3.15-76,30-16.96,31.88,8.39,81.87,41,97,6.24,2.9,13.1,4.68,102-2,16.42-1.23,24.63-1.85,38-3,73.32-6.31,88.93-7.96,102-10,15.08-2.35,27.05-4.95,51-10,16.7-3.52,18.99-4.27,21-5,4.87-1.76,17.55-6.8,30-10,1.79-.46,5.25-1.31,9,0,4.64,1.62,7.02,5.59,8,7,8.01,11.55,33.92,12.56,48,11,11.71-1.3,19.95-2.22,27-9,10.2-9.81,13.5-27.7,6-41-6.46-11.47-18.36-14.94-22-16-12.01-3.5-22.3-.36-30,2-8.53,2.61-15.68,6.74-30,15-9.73,5.62-11.58,7.31-17,9-11.19,3.48-20.86,1.7-25,1-36.88-6.21-55.16,2.9-117-10Z"/>
      <path class="cls-14" d="m736.75,133.63c-20.95-4.37-37.39-9.28-46-12-20.15-6.36-28.88-10.61-66-25-31.7-12.29-47.68-18.45-54-19-22.18-1.93-61.72,3.15-76,30-16.96,31.88,8.39,81.87,41,97,6.24,2.9,13.1,4.68,102-2,16.42-1.23,24.63-1.85,38-3,73.32-6.31,88.93-7.96,102-10,15.08-2.35,27.05-4.95,51-10,16.7-3.52,18.99-4.27,21-5,4.87-1.76,17.55-6.8,30-10,1.79-.46,5.25-1.31,9,0,4.64,1.62,7.02,5.59,8,7,8.01,11.55,33.92,12.56,48,11,11.71-1.3,19.95-2.22,27-9,10.2-9.81,13.5-27.7,6-41-6.46-11.47-18.36-14.94-22-16-12.01-3.5-22.3-.36-30,2-8.53,2.61-15.68,6.74-30,15-9.73,5.62-11.58,7.31-17,9-11.19,3.48-20.86,1.7-25,1-36.88-6.21-55.16,2.9-117-10Z"/>
      <path class="cls-5" d="m652.75,130.63c3.85-1.65,6.93-3.05,9-4,4.15-1.91,5.84-2.79,7-2,.92.62.96,2.43,1,6,.04,4.03.04,6.06-1,7-1.96,1.76-5.71.45-7,0-2.39-.84-4.05-2.29-6-4-1.34-1.17-2.34-2.25-3-3Z"/>
      <path class="cls-5" d="m675.75,136.63c3.85-1.65,6.93-3.05,9-4,4.15-1.91,5.84-2.79,7-2,.92.62.96,2.43,1,6,.04,4.03.04,6.06-1,7-1.96,1.76-5.71.45-7,0-2.39-.84-4.05-2.29-6-4-1.34-1.17-2.34-2.25-3-3Z"/>
      <path class="cls-5" d="m697.77,143.46c3.41-2.44,6.13-4.45,7.94-5.82,3.65-2.75,5.11-3.97,6.41-3.44,1.03.41,1.46,2.16,2.25,5.65.9,3.93,1.33,5.91.51,7.05-1.54,2.14-5.48,1.66-6.84,1.49-2.52-.31-4.44-1.37-6.71-2.63-1.54-.87-2.75-1.71-3.56-2.3Z"/>
      <path class="cls-5" d="m719.77,146.46c3.41-2.44,6.13-4.45,7.94-5.82,3.65-2.75,5.11-3.97,6.41-3.44,1.03.41,1.46,2.16,2.25,5.65.9,3.93,1.33,5.91.51,7.05-1.54,2.14-5.48,1.66-6.84,1.49-2.52-.31-4.44-1.37-6.71-2.63-1.54-.87-2.75-1.71-3.56-2.3Z"/>
      <path class="cls-5" d="m739.77,147.46c3.41-2.44,6.13-4.45,7.94-5.82,3.65-2.75,5.11-3.97,6.41-3.44,1.03.41,1.46,2.16,2.25,5.65.9,3.93,1.33,5.91.51,7.05-1.54,2.14-5.48,1.66-6.84,1.49-2.52-.31-4.44-1.37-6.71-2.63-1.54-.87-2.75-1.71-3.56-2.3Z"/>
      <path class="cls-5" d="m761.96,150.47c3.1-2.83,5.55-5.15,7.19-6.73,3.3-3.17,4.6-4.55,5.96-4.19,1.08.29,1.7,1.98,2.91,5.34,1.36,3.79,2.03,5.71,1.35,6.94-1.28,2.31-5.25,2.3-6.61,2.3-2.54-.01-4.57-.83-6.98-1.81-1.65-.67-2.95-1.36-3.82-1.85Z"/>
      <path class="cls-5" d="m782.96,150.47c3.1-2.83,5.55-5.15,7.19-6.73,3.3-3.17,4.6-4.55,5.96-4.19,1.08.29,1.7,1.98,2.91,5.34,1.36,3.79,2.03,5.71,1.35,6.94-1.28,2.31-5.25,2.3-6.61,2.3-2.54-.01-4.57-.83-6.98-1.81-1.65-.67-2.95-1.36-3.82-1.85Z"/>
      <path class="cls-5" d="m802.96,150.47c3.1-2.83,5.55-5.15,7.19-6.73,3.3-3.17,4.6-4.55,5.96-4.19,1.08.29,1.7,1.98,2.91,5.34,1.36,3.79,2.03,5.71,1.35,6.94-1.28,2.31-5.25,2.3-6.61,2.3-2.54-.01-4.57-.83-6.98-1.81-1.65-.67-2.95-1.36-3.82-1.85Z"/>
      <path class="cls-5" d="m824.96,150.47c3.1-2.83,5.55-5.15,7.19-6.73,3.3-3.17,4.6-4.55,5.96-4.19,1.08.29,1.7,1.98,2.91,5.34,1.36,3.79,2.03,5.71,1.35,6.94-1.28,2.31-5.25,2.3-6.61,2.3-2.54-.01-4.57-.83-6.98-1.81-1.65-.67-2.95-1.36-3.82-1.85Z"/>
      <path class="cls-5" d="m846.96,150.47c3.1-2.83,5.55-5.15,7.19-6.73,3.3-3.17,4.6-4.55,5.96-4.19,1.08.29,1.7,1.98,2.91,5.34,1.36,3.79,2.03,5.71,1.35,6.94-1.28,2.31-5.25,2.3-6.61,2.3-2.54-.01-4.57-.83-6.98-1.81-1.65-.67-2.95-1.36-3.82-1.85Z"/>
      <path class="cls-5" d="m631.75,119.63c3.33-.68,3.25-1.84,7-3,.44-.14,6.73-2.04,8,0,.3.48.2.99,0,2-.54,2.68-1.9,3.44-4,7-1.29,2.18-1.23,2.66-2,3-1.18.52-2.06-.29-6-2-3.38-1.47-4.41-1.61-6-3-.69-.61-2.36-2.07-2-3,.35-.89,2.2-.43,5-1Z"/>
      <path class="cls-5" d="m903.75,162.63c-.07-.8,6.62-3.54,20-9,16.86-6.88,19.67-7.55,22-8,12.21-2.33,27.01-1.22,28,3,.58,2.44-3.61,5.36-6,7-23.18,15.87-63.57,11.91-64,7Z"/>
      <path class="cls-5" d="m657.21,154.54c2.7,1.22,6.89,3,12.17,4.78,12.59,4.23,20.73,4.83,20.74,6.77.01,1.28-3.52,2.23-9.18,3.71-7.33,1.92-12.92,3.38-20.57,3.19-7.29-.18-17.63-1.89-17.86-4.68-.15-1.92,4.62-2.72,10.52-8.71,1.98-2.02,3.36-3.87,4.18-5.06Z"/>
      <path class="cls-5" d="m710.21,157.54c2.7,1.22,6.89,3,12.17,4.78,12.59,4.23,20.73,4.83,20.74,6.77.01,1.28-3.52,2.23-9.18,3.71-7.33,1.92-12.92,3.38-20.57,3.19-7.29-.18-17.63-1.89-17.86-4.68-.15-1.92,4.62-2.72,10.52-8.71,1.98-2.02,3.36-3.87,4.18-5.06Z"/>
      <path class="cls-5" d="m768.21,158.54c2.7,1.22,6.89,3,12.17,4.78,12.59,4.23,20.73,4.83,20.74,6.77.01,1.28-3.52,2.23-9.18,3.71-7.33,1.92-12.92,3.38-20.57,3.19-7.29-.18-17.63-1.89-17.86-4.68-.15-1.92,4.62-2.72,10.52-8.71,1.98-2.02,3.36-3.87,4.18-5.06Z"/>
      <path class="cls-5" d="m824.21,155.54c2.7,1.22,6.89,3,12.17,4.78,12.59,4.23,20.73,4.83,20.74,6.77.01,1.28-3.52,2.23-9.18,3.71-7.33,1.92-12.92,3.38-20.57,3.19-7.29-.18-17.63-1.89-17.86-4.68-.15-1.92,4.62-2.72,10.52-8.71,1.98-2.02,3.36-3.87,4.18-5.06Z"/>
    </g>
    <path id="cuisse-d" class="cls-8" d="m437.75,218.63c-2.72.86-12.4,3.91-18,13-8.95,14.53-.6,33.39,1,37,3.81,8.6,7.37,9.88,12,22,2.86,7.48,2.17,8.75,5,14,2.11,3.92,6.84,12.72,17,17,2.26.95,8.38,3.44,16,2,8.9-1.68,18.73-8.49,20-17,1.22-8.18-6.68-9.93-11-22-6.15-17.17,5.79-24.94,0-43-.86-2.69-5.15-16.05-18-22-10.79-5-21.3-1.85-24-1Z"/>
    <path id="avant-bras-d" class="cls-8" d="m233.75,262.63c-1.8-.11-8.74-.42-15,4-7.29,5.15-9.01,13.43-11,23-1,4.82-2.31,11.09-1,19,1.4,8.46,4.15,8.9,5,18,.34,3.65.18,6.61,1,14,.44,3.99.66,5.98,1,7,1.8,5.44,7.57,12.4,16,13,10.88.77,17.21-9.69,18-11,1.33-2.2,1.89-4.13,3-8,2.36-8.19,2.04-12.6,3-19,1.7-11.35,4.63-10.49,6-20,.72-4.99,2.1-14.57-3-24-.78-1.44-8.48-15.14-23-16Z"/>
    <g id="main-d">
      <path class="cls-10" d="m225.75,337.63c-1.33.51-4.12,1.6-7,4-3.9,3.26-3.87,5.51-8,12-4.41,6.92-6.71,10.53-11,14-1.54,1.24-4.4,3.33-6,7-.3.7-1.05,2.56-1,5,.03,1.53.06,2.92,1,4,0,0,.51.58,4,2,.73.86,2.03,2.14,4,3,3.14,1.37,4.59-.78,9,0,2.94.52,3.99,1.68,6,1,1.63-.55,1.62-1.53,3-2,2.73-.92,4.82,2.25,8,3,4.46,1.05,8.99-3.19,12-6,7.59-7.1,9.6-16.06,10-18,1.94-9.47,1.22-25.74-8-30-6.04-2.79-14.15.3-16,1Z"/>
      <path class="cls-5" d="m197.25,370.59v14.9c0,.9-.73,1.63-1.63,1.63h-11.18c-1.35,0-2.12-1.54-1.31-2.61l11.18-14.9c.94-1.25,2.94-.59,2.94.98Z"/>
      <path class="cls-5" d="m213.25,374.59v14.9c0,.9-.73,1.63-1.63,1.63h-11.18c-1.35,0-2.12-1.54-1.31-2.61l11.18-14.9c.94-1.25,2.94-.59,2.94.98Z"/>
    </g>
    <g id="pied-d">
      <path class="cls-10" d="m461.75,316.63c-2.8,1.45-8.54,4.43-10,10-1.04,3.97,1.05,5.63,0,11-1.01,5.18-3.94,8.75-5,10-4.35,5.17-7.07,3.83-11,9-3.14,4.13-3.73,8.05-4,10-.32,2.31-.76,5.54,1,7,0,0,.94.78,6,1h0s1.7,2.58,2,3c1.85,2.57,7.48,2.33,12,2,7.26-.53,12.77-1.37,17-2,10.98-1.64,11.06-1.56,12-2,7.96-3.7,10.61-13.73,12-19,1.61-6.09,8.06-30.51-6-40-8.07-5.45-19.24-3.51-26,0Z"/>
      <path class="cls-5" d="m440.25,359.59v14.9c0,.9-.73,1.63-1.63,1.63h-11.18c-1.35,0-2.12-1.54-1.31-2.61l11.18-14.9c.94-1.25,2.94-.59,2.94.98Z"/>
      <path class="cls-5" d="m450.25,364.59v14.9c0,.9-.73,1.63-1.63,1.63h-11.18c-1.35,0-2.12-1.54-1.31-2.61l11.18-14.9c.94-1.25,2.94-.59,2.94.98Z"/>
    </g>
    <path id="cuisse-g" class="cls-13" d="m526.75,120.63c-24.86-1.62-42.35,17.03-47,22-12.68,13.53-16.07,28.12-20,45-4.91,21.09-8.66,37.21,0,53,6.56,11.97,20.73,24.62,36,24,9.14-.37,17.43-6.58,34-19,5.58-4.19,11.82-8.86,18-15,12.66-12.58,33.39-33.17,31-59-2.28-24.61-25.11-49.25-52-51Z"/>
    <path id="mollet-g" class="cls-13" d="m484.75,233.63c-14.83,7.26-19.17,25.97-19,37,.03,2.23,2.02,9.18,6,23,6.99,24.28,8.44,27.51,12,31,9.11,8.93,21.32,9.01,23,9,9.29-.07,20.68-4.17,26-13,3.38-5.62.83-7.37,4-23,2.6-12.81,4.77-13.86,5-21,.39-11.79-5.12-21.11-7-24-9.54-14.67-32.11-27.76-50-19Z"/>
    <path id="bras-g" class="cls-13" d="m285.75,235.63c-1.26.53-6.01,2.62-11,7-2.5,2.2-7.14,6.35-10,13-4.2,9.77-1.98,18.96-1,23,1.11,4.58,3.62,14.97,13,22,11.03,8.27,28.5,9.6,39,1,6.54-5.36,8.48-13.03,10-19,2.59-10.2,1.06-18.53,0-24-2.1-10.82-3.56-18.31-10-23-11.02-8.02-27.4-1.1-30,0Z"/>
    <path id="avant-bras-g" class="cls-13" d="m282.75,269.63c-3.58,2.21-8.98,5.55-12,12-2.24,4.8-.96,6.62-3,19-1.11,6.77-1.54,6.52-3,15-1.31,7.64-1.97,11.47-2,16-.04,5.81-.08,11.63,3,18,1.59,3.29,4.55,9.41,11,12,7.46,3,14.96-.59,20-3,7.36-3.52,11.72-8.4,14-11,2.57-2.93,11.65-13.3,13-28,.69-7.51-1.06-11.63,2-19,2.21-5.32,4.06-5.43,5-9,2.37-8.95-5.56-22.13-17-27-13.55-5.78-26.72,2.36-31,5Z"/>
    <g id="corps">
      <path class="cls-7" d="m151.75,111.63c-12.01,7.89-27.25,18.29-41,37-7.5,10.2-18.78,25.11-21,47-2.31,22.83,3.89,53.51,25,67,8.12,5.19,15.75,6.14,22,7,50.07,6.89,38.29,11.52,89,18,53.82,6.88,90.61,11.26,140,5,48.41-6.14,74.28-9.42,95-29,6.11-5.78,12.39-13.55,24-16,21.15-4.46,29.7,15.14,54,15,12.64-.07,25.43-8.05,51-24,18.44-11.5,27.66-17.26,32-23,22.64-29.99,6.52-89.1-26-124-15.07-16.18-29.93-23.13-56-35-28.26-12.87-75.56-33.82-141-35-65.64-1.18-113.41,18.19-145,31-31.84,12.91-55.23,28.27-102,59Z"/>
      <path class="cls-14" d="m151.75,103.63c-12.01,7.89-27.25,18.29-41,37-7.5,10.2-18.78,25.11-21,47-2.39,23.59,7.07,52.79,25,67,53.72,42.58,150.88-75.25,245.5-35.5,34.53,14.51,73.05,51.82,100.5,36.5,9.2-5.13,11.72-13.41,24-16,21.15-4.46,29.7,15.14,54,15,12.64-.07,25.43-8.05,51-24,18.44-11.5,27.66-17.26,32-23,22.64-29.99,6.52-89.1-26-124-15.07-16.18-29.93-23.13-56-35-28.26-12.87-75.56-33.82-141-35-65.64-1.18-113.41,18.19-145,31-31.84,12.91-55.23,28.27-102,59Z"/>
      <path class="cls-4" d="m295.75,216.63c-1.22.42-8.48,4.95-23,14-14.34,8.94-19.29,12.35-20,18-.53,4.24,1.59,7.6,5,13,1.71,2.7,8.14,12.88,18,18,18.73,9.72,44.83-1.41,59-17,3.03-3.33,18.49-20.35,13-34-5.99-14.88-33.91-18.31-52-12Z"/>
      <path class="cls-5" d="m190.75,206.63c3.76,1.78,9.62,4.38,17,7,17.6,6.24,29.03,7.27,29,10-.02,1.8-5.01,3.05-13,5-10.35,2.52-18.24,4.45-29,4-10.24-.42-24.75-3.06-25-7-.17-2.71,6.55-3.72,15-12,2.83-2.78,4.82-5.35,6-7Z"/>
      <path class="cls-5" d="m250.54,190.84c3.79,1.71,9.69,4.22,17.11,6.72,17.7,5.95,29.14,6.79,29.16,9.52.01,1.8-4.95,3.13-12.92,5.21-10.31,2.69-18.16,4.75-28.93,4.48-10.25-.25-24.8-2.65-25.11-6.58-.22-2.71,6.49-3.83,14.8-12.25,2.79-2.83,4.73-5.43,5.89-7.1Z"/>
      <path class="cls-5" d="m318.54,179.84c3.79,1.71,9.69,4.22,17.11,6.72,17.7,5.95,29.14,6.79,29.16,9.52.01,1.8-4.95,3.13-12.92,5.21-10.31,2.69-18.16,4.75-28.93,4.48-10.25-.25-24.8-2.65-25.11-6.58-.22-2.71,6.49-3.83,14.8-12.25,2.79-2.83,4.73-5.43,5.89-7.1Z"/>
      <path class="cls-5" d="m391.54,172.84c3.79,1.71,9.69,4.22,17.11,6.72,17.7,5.95,29.14,6.79,29.16,9.52.01,1.8-4.95,3.13-12.92,5.21-10.31,2.69-18.16,4.75-28.93,4.48-10.25-.25-24.8-2.65-25.11-6.58-.22-2.71,6.49-3.83,14.8-12.25,2.79-2.83,4.73-5.43,5.89-7.1Z"/>
      <path class="cls-5" d="m167.75,187.63c1.87-1.02,1.73-.32,10-3,3.51-1.14,5.27-1.71,6-2,4.01-1.58,5.18-2.56,6-2,1.38.94.29,5.22-1,8-2.78,5.98-8.16,8.61-9,9-2.1.99-4.74,1.33-10,2-5.48.7-8.24,1.03-9,0-1.63-2.2,1.69-9.1,7-12Z"/>
      <path class="cls-5" d="m223.75,165.63c-.79-.97-2.48-.52-14,3-8.31,2.54-9.99,3.08-12,5-2.81,2.69-5.56,7.39-4,10,.73,1.22,2.16,1.57,4,2,6.11,1.42,11.32-.71,12-1,5.24-2.22,7.93-6.05,10-9,1.56-2.22,5.62-8,4-10Z"/>
      <path class="cls-5" d="m262.67,150.18c-.69-1.04-2.42-.76-14.23,1.59-8.52,1.69-10.25,2.07-12.44,3.78-3.07,2.39-6.27,6.8-4.98,9.55.6,1.29,1.99,1.78,3.78,2.39,5.94,2.02,11.33.42,12.04.2,5.43-1.69,8.49-5.23,10.85-7.96,1.78-2.05,6.4-7.4,4.98-9.55Z"/>
      <path class="cls-5" d="m299.84,142.89c-.51-1.14-2.26-1.14-14.3-.74-8.68.29-10.45.38-12.89,1.71-3.42,1.86-7.29,5.69-6.46,8.62.39,1.37,1.67,2.08,3.34,2.97,5.53,2.96,11.11,2.26,11.85,2.16,5.63-.78,9.23-3.78,12-6.09,2.08-1.76,7.51-6.28,6.46-8.63Z"/>
      <path class="cls-5" d="m337.84,134.89c-.51-1.14-2.26-1.14-14.3-.74-8.68.29-10.45.38-12.89,1.71-3.42,1.86-7.29,5.69-6.46,8.62.39,1.37,1.67,2.08,3.34,2.97,5.53,2.96,11.11,2.26,11.85,2.16,5.63-.78,9.23-3.78,12-6.09,2.08-1.76,7.51-6.28,6.46-8.63Z"/>
      <path class="cls-5" d="m375.4,128.94c-.37-1.19-2.11-1.4-14.11-2.42-8.65-.74-10.42-.85-13,.18-3.61,1.45-7.91,4.79-7.43,7.79.22,1.4,1.42,2.26,2.97,3.34,5.14,3.59,10.77,3.55,11.51,3.54,5.69-.11,9.61-2.67,12.63-4.63,2.27-1.48,8.19-5.34,7.43-7.8Z"/>
      <path class="cls-5" d="m413.4,124.94c-.37-1.19-2.11-1.4-14.11-2.42-8.65-.74-10.42-.85-13,.18-3.61,1.45-7.91,4.79-7.43,7.79.22,1.4,1.42,2.26,2.97,3.34,5.14,3.59,10.77,3.55,11.51,3.54,5.69-.11,9.61-2.67,12.63-4.63,2.27-1.48,8.19-5.34,7.43-7.8Z"/>
      <path class="cls-5" d="m450.4,120.94c-.37-1.19-2.11-1.4-14.11-2.42-8.65-.74-10.42-.85-13,.18-3.61,1.45-7.91,4.79-7.43,7.79.22,1.4,1.42,2.26,2.97,3.34,5.14,3.59,10.77,3.55,11.51,3.54,5.69-.11,9.61-2.67,12.63-4.63,2.27-1.48,8.19-5.34,7.43-7.8Z"/>
      <path class="cls-5" d="m487.4,117.94c-.37-1.19-2.11-1.4-14.11-2.42-8.65-.74-10.42-.85-13,.18-3.61,1.45-7.91,4.79-7.43,7.79.22,1.4,1.42,2.26,2.97,3.34,5.14,3.59,10.77,3.55,11.51,3.54,5.69-.11,9.61-2.67,12.63-4.63,2.27-1.48,8.19-5.34,7.43-7.8Z"/>
      <path class="cls-5" d="m526.4,112.94c-.37-1.19-2.11-1.4-14.11-2.42-8.65-.74-10.42-.85-13,.18-3.61,1.45-7.91,4.79-7.43,7.79.22,1.4,1.42,2.26,2.97,3.34,5.14,3.59,10.77,3.55,11.51,3.54,5.69-.11,9.61-2.67,12.63-4.63,2.27-1.48,8.19-5.34,7.43-7.8Z"/>
      <path class="cls-5" d="m565.73,114.26c-.21-1.23-1.91-1.66-13.68-4.23-8.49-1.85-10.22-2.2-12.91-1.51-3.77.97-8.46,3.73-8.38,6.77.04,1.42,1.11,2.43,2.51,3.7,4.64,4.22,10.22,4.92,10.96,5,5.65.62,9.88-1.4,13.12-2.96,2.45-1.17,8.82-4.23,8.38-6.77Z"/>
      <path class="cls-5" d="m143.75,160.63c-3.38-.42-6.31,3.44-9,7-2.49,3.29-3.59,6.18-5,10-2.02,5.46-3.57,9.65-2,11,.52.45,1.36.56,8-2,7.79-3,10.14-4.51,12-6,3.22-2.58,3.79-4.17,4-5,.13-.53.5-2.3-1-6s-3.47-8.56-7-9Z"/>
      <path class="cls-5" d="m172.75,141.63c-3.38-.42-6.31,3.44-9,7-2.49,3.29-3.59,6.18-5,10-2.02,5.46-3.57,9.65-2,11,.52.45,1.36.56,8-2,7.79-3,10.14-4.51,12-6,3.22-2.58,3.79-4.17,4-5,.13-.53.5-2.3-1-6s-3.47-8.56-7-9Z"/>
      <path class="cls-5" d="m203.75,121.63c-3.38-.42-6.31,3.44-9,7-2.49,3.29-3.59,6.18-5,10-2.02,5.46-3.57,9.65-2,11,.52.45,1.36.56,8-2,7.79-3,10.14-4.51,12-6,3.22-2.58,3.79-4.17,4-5,.13-.53.5-2.3-1-6s-3.47-8.56-7-9Z"/>
      <path class="cls-5" d="m236.6,107.83c-3.22-1.12-6.89,2.05-10.26,4.97-3.12,2.69-4.8,5.3-6.98,8.74-3.12,4.92-5.51,8.69-4.25,10.34.42.55,1.21.83,8.24-.29,8.25-1.31,10.86-2.29,12.99-3.36,3.69-1.85,4.58-3.28,4.96-4.05.24-.5.97-2.14.27-6.08-.7-3.94-1.61-9.1-4.97-10.27Z"/>
      <path class="cls-5" d="m268.6,95.83c-3.22-1.12-6.89,2.05-10.26,4.97-3.12,2.69-4.8,5.3-6.98,8.74-3.12,4.92-5.51,8.69-4.25,10.34.42.55,1.21.83,8.24-.29,8.25-1.31,10.86-2.29,12.99-3.36,3.69-1.85,4.58-3.28,4.96-4.05.24-.5.97-2.14.27-6.08-.7-3.94-1.61-9.1-4.97-10.27Z"/>
      <path class="cls-5" d="m300.6,85.83c-3.22-1.12-6.89,2.05-10.26,4.97-3.12,2.69-4.8,5.3-6.98,8.74-3.12,4.92-5.51,8.69-4.25,10.34.42.55,1.21.83,8.24-.29,8.25-1.31,10.86-2.29,12.99-3.36,3.69-1.85,4.58-3.28,4.96-4.05.24-.5.97-2.14.27-6.08-.7-3.94-1.61-9.1-4.97-10.27Z"/>
      <path class="cls-5" d="m332.6,75.83c-3.22-1.12-6.89,2.05-10.26,4.97-3.12,2.69-4.8,5.3-6.98,8.74-3.12,4.92-5.51,8.69-4.25,10.34.42.55,1.21.83,8.24-.29,8.25-1.31,10.86-2.29,12.99-3.36,3.69-1.85,4.58-3.28,4.96-4.05.24-.5.97-2.14.27-6.08-.7-3.94-1.61-9.1-4.97-10.27Z"/>
      <path class="cls-5" d="m370.12,70.58c-2.91-1.76-7.16.58-11.07,2.73-3.61,1.99-5.79,4.19-8.63,7.1-4.07,4.17-7.19,7.36-6.3,9.24.29.62,1.01,1.06,8.12,1.43,8.34.42,11.1.01,13.4-.6,3.99-1.05,5.16-2.27,5.69-2.94.34-.43,1.39-1.9,1.53-5.89.13-3.99.3-9.23-2.74-11.07Z"/>
      <path class="cls-5" d="m403.12,65.58c-2.91-1.76-7.16.58-11.07,2.73-3.61,1.99-5.79,4.19-8.63,7.1-4.07,4.17-7.19,7.36-6.3,9.24.29.62,1.01,1.06,8.12,1.43,8.34.42,11.1.01,13.4-.6,3.99-1.05,5.16-2.27,5.69-2.94.34-.43,1.39-1.9,1.53-5.89.13-3.99.3-9.23-2.74-11.07Z"/>
      <path class="cls-5" d="m436.12,64.58c-2.91-1.76-7.16.58-11.07,2.73-3.61,1.99-5.79,4.19-8.63,7.1-4.07,4.17-7.19,7.36-6.3,9.24.29.62,1.01,1.06,8.12,1.43,8.34.42,11.1.01,13.4-.6,3.99-1.05,5.16-2.27,5.69-2.94.34-.43,1.39-1.9,1.53-5.89.13-3.99.3-9.23-2.74-11.07Z"/>
      <path class="cls-5" d="m470.61,65.06c-2.64-2.16-7.17-.44-11.35,1.14-3.86,1.46-6.33,3.33-9.56,5.8-4.62,3.55-8.16,6.27-7.55,8.25.2.66.85,1.2,7.84,2.56,8.2,1.6,10.98,1.58,13.35,1.31,4.1-.47,5.43-1.51,6.05-2.1.4-.38,1.65-1.68,2.35-5.61.7-3.94,1.62-9.1-1.13-11.35Z"/>
      <path class="cls-5" d="m504.61,66.06c-2.64-2.16-7.17-.44-11.35,1.14-3.86,1.46-6.33,3.33-9.56,5.8-4.62,3.55-8.16,6.27-7.55,8.25.2.66.85,1.2,7.84,2.56,8.2,1.6,10.98,1.58,13.35,1.31,4.1-.47,5.43-1.51,6.05-2.1.4-.38,1.65-1.68,2.35-5.61.7-3.94,1.62-9.1-1.13-11.35Z"/>
      <path class="cls-5" d="m538.95,70.86c-2.28-2.53-7.02-1.53-11.39-.6-4.03.85-6.76,2.32-10.33,4.28-5.11,2.81-9.02,4.95-8.71,7,.1.68.66,1.31,7.36,3.73,7.86,2.83,10.61,3.23,13,3.32,4.12.16,5.6-.67,6.3-1.16.45-.32,1.88-1.41,3.17-5.19,1.29-3.77,2.98-8.74.6-11.38Z"/>
      <path class="cls-5" d="m570.95,75.86c-2.28-2.53-7.02-1.53-11.39-.6-4.03.85-6.76,2.32-10.33,4.28-5.11,2.81-9.02,4.95-8.71,7,.1.68.66,1.31,7.36,3.73,7.86,2.83,10.61,3.23,13,3.32,4.12.16,5.6-.67,6.3-1.16.45-.32,1.88-1.41,3.17-5.19,1.29-3.77,2.98-8.74.6-11.38Z"/>
      <path class="cls-5" d="m108.33,118.77c-.53.08-1.13.57-2.35,4.41-1.69,5.32-2.54,7.98-2.58,13.35-.06,6.82-.17,20.54,4.8,22.05,5.96,1.81,18.75-14.12,15.32-21.52-.67-1.44-1.38-1.35-3.93-3.68-7.75-7.08-8.86-14.99-11.26-14.61Z"/>
      <path class="cls-5" d="m138.72,97.75c-.53-.04-1.23.3-3.28,3.77-2.84,4.81-4.26,7.21-5.51,12.44-1.58,6.63-4.77,19.98-.26,22.56,5.41,3.1,21.44-9.56,19.75-17.55-.33-1.55-1.05-1.62-3.01-4.47-5.94-8.63-5.26-16.58-7.69-16.75Z"/>
      <path class="cls-5" d="m162.72,80.75c-.53-.04-1.23.3-3.28,3.77-2.84,4.81-4.26,7.21-5.51,12.44-1.58,6.63-4.77,19.98-.26,22.56,5.41,3.1,21.44-9.56,19.75-17.55-.33-1.55-1.05-1.62-3.01-4.47-5.94-8.63-5.26-16.58-7.69-16.75Z"/>
      <path class="cls-5" d="m190.72,64.75c-.53-.04-1.23.3-3.28,3.77-2.84,4.81-4.26,7.21-5.51,12.44-1.58,6.63-4.77,19.98-.26,22.56,5.41,3.1,21.44-9.56,19.75-17.55-.33-1.55-1.05-1.62-3.01-4.47-5.94-8.63-5.26-16.58-7.69-16.75Z"/>
      <path class="cls-5" d="m217.72,50.75c-.53-.04-1.23.3-3.28,3.77-2.84,4.81-4.26,7.21-5.51,12.44-1.58,6.63-4.77,19.98-.26,22.56,5.41,3.1,21.44-9.56,19.75-17.55-.33-1.55-1.05-1.62-3.01-4.47-5.94-8.63-5.26-16.58-7.69-16.75Z"/>
      <path class="cls-5" d="m246.72,34.75c-.53-.04-1.23.3-3.28,3.77-2.84,4.81-4.26,7.21-5.51,12.44-1.58,6.63-4.77,19.98-.26,22.56,5.41,3.1,21.44-9.56,19.75-17.55-.33-1.55-1.05-1.62-3.01-4.47-5.94-8.63-5.26-16.58-7.69-16.75Z"/>
      <path class="cls-5" d="m279.02,23.4c-.52-.13-1.26.08-3.88,3.15-3.62,4.25-5.44,6.37-7.56,11.3-2.7,6.26-8.13,18.86-4.14,22.18,4.8,3.98,22.77-5.73,22.47-13.89-.06-1.58-.75-1.78-2.19-4.92-4.37-9.52-2.33-17.24-4.7-17.82Z"/>
      <path class="cls-5" d="m309.02,13.4c-.52-.13-1.26.08-3.88,3.15-3.62,4.25-5.44,6.37-7.56,11.3-2.7,6.26-8.13,18.86-4.14,22.18,4.8,3.98,22.77-5.73,22.47-13.89-.06-1.58-.75-1.78-2.19-4.92-4.37-9.52-2.33-17.24-4.7-17.82Z"/>
      <path class="cls-5" d="m340.14,5.15c-.5-.19-1.26-.06-4.22,2.69-4.09,3.8-6.13,5.7-8.82,10.36-3.4,5.91-10.25,17.8-6.66,21.55,4.31,4.51,23.27-3.07,23.92-11.21.13-1.58-.54-1.85-1.61-5.14-3.24-9.97-.32-17.4-2.61-18.25Z"/>
      <path class="cls-5" d="m377.76,3.14c-.45-.29-1.22-.33-4.69,1.74-4.8,2.86-7.2,4.28-10.8,8.27-4.57,5.06-13.77,15.24-11.05,19.67,3.26,5.31,23.4,1.89,25.75-5.92.46-1.52-.14-1.93-.5-5.36-1.07-10.44,3.34-17.09,1.29-18.4Z"/>
      <path class="cls-5" d="m409.76.14c-.45-.29-1.22-.33-4.69,1.74-4.8,2.86-7.2,4.28-10.8,8.27-4.57,5.06-13.77,15.24-11.05,19.67,3.26,5.31,23.4,1.89,25.75-5.92.46-1.52-.14-1.93-.5-5.36-1.07-10.44,3.34-17.09,1.29-18.4Z"/>
      <path class="cls-5" d="m448.02,3c-.37-.38-1.12-.59-4.96.66-5.31,1.73-7.97,2.59-12.36,5.68-5.58,3.93-16.8,11.82-15.12,16.74,2.01,5.9,22.4,7.02,26.42-.09.78-1.38.29-1.91.7-5.34,1.26-10.41,7.03-15.92,5.32-17.65Z"/>
      <path class="cls-5" d="m481.06,9.24c-.34-.41-1.07-.68-4.99.25-5.44,1.28-8.15,1.92-12.79,4.63-5.88,3.45-17.72,10.39-16.46,15.43,1.51,6.05,21.74,8.85,26.34,2.11.89-1.31.45-1.88,1.14-5.26,2.11-10.28,8.33-15.3,6.76-17.16Z"/>
      <path class="cls-5" d="m516.09,21.49c-.26-.47-.91-.87-4.95-.74-5.58.19-8.37.28-13.45,2.04-6.45,2.23-19.41,6.72-19.16,11.91.3,6.23,19.59,12.94,25.41,7.22,1.13-1.11.81-1.76,2.15-4.94,4.09-9.65,11.17-13.35,10-15.49Z"/>
      <path class="cls-5" d="m550.5,37.3c-.15-.51-.71-1.04-4.69-1.75-5.5-.97-8.25-1.46-13.58-.79-6.77.85-20.38,2.55-21.22,7.68-1,6.15,16.48,16.72,23.36,12.33,1.34-.85,1.15-1.55,3.13-4.38,6.02-8.6,13.71-10.75,13-13.09Z"/>
      <path class="cls-5" d="m585.5,53.3c-.15-.51-.71-1.04-4.69-1.75-5.5-.97-8.25-1.46-13.58-.79-6.77.85-20.38,2.55-21.22,7.68-1,6.15,16.48,16.72,23.36,12.33,1.34-.85,1.15-1.55,3.13-4.38,6.02-8.6,13.71-10.75,13-13.09Z"/>
    </g>
    <g id="tete">
      <path class="cls-12" d="m17.75,234.63c-10.39,10.24-10.92,16.36-11,18-.03.51-.33,9.33,6,15,3.38,3.03,7.04,3.71,14,5,5.23.97,9.29.99,14,1,6.49.01,11.71-.54,16-1,9.28-1,11.29-1.88,16-1,4.41.82,4.05,1.85,9,3,1.51.35,8.36,1.84,17,0,4.04-.86,9.17-1.96,14-6,5.05-4.23,7.01-9.38,8-12,4.41-11.62,4.95-34.25-8-46-17.63-16-49.43-1.96-72,8-1.7.75-12.47,5.62-23,16Z"/>
      <path class="cls-2" d="m117.75,172.63c-10.13-7.1-20.39-7.62-28-8-6.72-.34-15.79-.79-25,4-2.43,1.26-5.95,3.84-13,9-9.16,6.7-7.96,6.57-12,9-6.77,4.08-10.06,4.42-14,9-1.74,2.02-2.88,4.02-4,6-2.67,4.69-2.37,5.89-5,11-2.14,4.16-3.39,6.58-6,9-3.39,3.14-4.82,2.32-7,5-1.85,2.27-2.26,5.21-3,11-.79,6.12-1.18,9.19,0,13,.6,1.93,1.73,5.42,5,8,2.41,1.9,4.77,2.37,8,3,2.26.44,6.93,1.11,13,0,6.01-1.1,5.5-2.5,10-3,4.53-.5,6.05.8,14,2,0,0,5.09.77,11,1,8.89.34,15.79-1.1,20-2,19.21-4.13,32.84-7.06,43-19,10.12-11.88,14.96-30.5,9-47-1.09-3.01-5.24-13.46-16-21Z"/>
      <path class="cls-5" d="m113.75,195.63c2.62-3.64,7.1-4.25,11-5,18.5-3.57,29.58-11.48,31-9,.16.28.11.55-1,3-3.34,7.37-6,12-6,12-3.78,6.58-3.72,6.02-4,7-1.27,4.46.16,7.03-2,10-.78,1.07-1.85,1.72-4,3-2.95,1.77-6.24,3.73-10,3-.89-.17-2.71-.53-4-2-1.37-1.56-.82-2.85-2-6-.76-2.02-1.42-3.8-3-5-2.72-2.07-5.34-.28-7-2-1.77-1.84-1-6.21,1-9Z"/>
      <path class="cls-9" d="m45.75,233.63c3.69-1.86,8.9-4.97,14-10,4.53-4.47,6.93-8.43,8-10,4.12-6.02,13.36-12.84,36-16"/>
      <path class="cls-5" d="m129.75,224.63c2.18-1.27,4.77.55,9,2,4.09,1.4,7.36,1.65,12,2,7.54.57,11.13-.7,12,1,.25.49.53,1.73-3,6-4.74,5.73-9.84,9.05-13,11-6.85,4.23-10.27,6.34-15,8-4.4,1.55-15.99,5.61-20,1-.86-.99-1.24-2.99-2-7-.74-3.91-1.13-6.13,0-8,.86-1.42,1.89-1.48,5-3,4.52-2.21,10.18-4.97,13-10,.87-1.56.94-2.38,2-3Z"/>
    </g>
    <g id="main-g">
      <path class="cls-3" d="m275.75,347.63c-2.83,1.31-7.47,3.45-11,7-3.94,3.96-2.29,5.44-6,10-1.93,2.37-5.65,4.61-13,9-4.37,2.61-8.53,5.57-13,8-1.17.64-3.84,2.06-6,5-1.22,1.66-3,4.77-2,6,.99,1.22,3.7-.62,6,1,1.28.9.83,1.75,2,3,1.88,2.01,4.02.85,10,2,4.23.82,5.15,1.78,7,1,1.58-.67,2.22-1.93,4-2,1.26-.05,2.08.54,3,1,2.56,1.28,5.04,1.15,8,1,4.59-.24,4.97-1.88,10-2,.66-.02.74.01,4,0,3.94-.01,4.09-.05,5,0,2.34.13,2.48.46,6,1,3.96.61,5.97.89,7,0,1.21-1.05.36-2.38,1-5,1.2-4.93,5.42-5.2,7-10,.34-1.05.23-3.03,0-7-.45-7.84-1.37-8.29-1-12,.52-5.25,2.47-5.63,2-9-.73-5.21-5.98-8.39-7-9-7.03-4.25-15.13-1.85-18-1-1.86.55-3.21,1.17-5,2Z"/>
      <path class="cls-5" d="m235.43,383.59v14.9c0,.9-.73,1.63-1.63,1.63h-11.18c-1.35,0-2.12-1.54-1.31-2.61l11.18-14.9c.94-1.25,2.94-.59,2.94.98Z"/>
      <path class="cls-5" d="m257.25,385.59v14.9c0,.9-.73,1.63-1.63,1.63h-11.18c-1.35,0-2.12-1.54-1.31-2.61l11.18-14.9c.94-1.25,2.94-.59,2.94.98Z"/>
      <path class="cls-5" d="m283.25,386.59v14.9c0,.9-.73,1.63-1.63,1.63h-11.18c-1.35,0-2.12-1.54-1.31-2.61l11.18-14.9c.94-1.25,2.94-.59,2.94.98Z"/>
    </g>
    <g id="pied-gauche">
      <path class="cls-3" d="m506.75,315.63c-9.32,3.04-16.99,11.19-19,20-1.33,5.83.98,6.93-1,14-.81,2.89-2.87,8.71-8,14-2.07,2.13-4.3,4.43-8,6-4.11,1.74-5.9.82-9,3-3.35,2.35-4.62,5.79-5,7-.57,1.8-1.67,5.28,0,8,2.69,4.39,10.87,4.05,12,4,1.96-.08,3.86-.48,7,0,1.91.29,3.21.75,4,1,4.26,1.35,8.17,1.23,16,1,5.5-.16,8.24-.24,10-1,1.39-.6,3.17-1.63,6-2,1.73-.22,3.05-.09,4,0,11.25,1.11,12.35,1.17,14,1,2.81-.29,5.95-.6,8-3,.51-.59,1.43-1.88,2-6,.56-4.05.15-6.29,0-10-.18-4.44-.36-8.9,1-14,1-3.77,1.85-4.14,3-9,.73-3.1,1.21-5.18,1-8-.12-1.65-.41-5.55-3-9-2.7-3.59-4.81-2.59-7-6-2.16-3.38-.81-5.47-3-8-1.33-1.54-3.2-2.34-7-3-6.65-1.16-11.73-2.05-18,0Z"/>
      <path class="cls-5" d="m478.25,377.59v14.9c0,.9-.73,1.63-1.63,1.63h-11.18c-1.35,0-2.12-1.54-1.31-2.61l11.18-14.9c.94-1.25,2.94-.59,2.94.98Z"/>
      <path class="cls-5" d="m496.25,379.59v14.9c0,.9-.73,1.63-1.63,1.63h-11.18c-1.35,0-2.12-1.54-1.31-2.61l11.18-14.9c.94-1.25,2.94-.59,2.94.98Z"/>
      <path class="cls-5" d="m517.25,378.59v14.9c0,.9-.73,1.63-1.63,1.63h-11.18c-1.35,0-2.12-1.54-1.31-2.61l11.18-14.9c.94-1.25,2.94-.59,2.94.98Z"/>
    </g>
    <g>
      <circle class="cls-6" cx="82.25" cy="217.13" r="12"/>
      <circle class="cls-11" cx="82.25" cy="217.13" r="9"/>
      <circle cx="79.25" cy="217.13" r="6"/>
      <circle class="cls-1" cx="82.25" cy="217.13" r="3"/>
    </g>
  </g>
</svg>