<?xml version="1.0" encoding="UTF-8"?>
<svg id="Calque_2" data-name="Calque 2" xmlns="http://www.w3.org/2000/svg" viewBox="0 0 1237.79 590.5">
  <defs>
    <style>
      .cls-1 {
        fill: #d4a373;
      }

      .cls-2 {
        fill: #fff;
      }

      .cls-3 {
        fill: #ccd5ae;
      }

      .cls-4 {
        fill: #2a9d8f;
      }

      .cls-5 {
        fill: #6d6875;
      }

      .cls-6 {
        fill: #3f70c6;
      }

      .cls-7 {
        fill: #d6ccc2;
      }

      .cls-8 {
        fill: #e9edc9;
      }

      .cls-9 {
        fill: none;
      }

      .cls-10 {
        fill: #fefae0;
      }

      .cls-11 {
        fill: #3fffc6;
      }

      .cls-12 {
        fill: #faedcd;
      }
    </style>
  </defs>
  <g id="Calque_1-2" data-name="Calque 1">
    <path id="avant-bras-gauche" class="cls-8" d="m792.29,461.5c-6.49.45-18.67,2.25-24,11-2.16,3.54-2.04,6.32-2,22,.04,19.67.07,29.51,0,31-.51,11.57-1.62,18.1,1,28,1.62,6.12,3.46,9.03,6,11,3.86,3,8.24,3,16,3,8.99,0,13.48,0,17-3,3.05-2.6,4.31-6.48,5-16,1.01-14.08-.85-18.11-1-31-.19-15.89,2-32,2-32,1.43-10.54,2.84-15.04,0-19-4.23-5.89-14.31-5.61-20-5Z"/>
    <path id="bras-gauche" class="cls-3" d="m812.29,372.5c-13.24,4.59-19.38,16.09-22,21-5.94,11.12-1.85,13.46-8,34-3.77,12.6-6.6,16.03-9,29-2.87,15.47-.57,19.87,1,22,5.21,7.06,15.62,7.01,18,7,15.19-.08,25.78-13.9,29-18,7.97-10.17,5.84-14.77,16-27,5.67-6.83,6.95-6.14,11-12,3.42-4.94,9.93-14.37,9-27-.3-4.05-1.85-14.95-11-23-10.04-8.83-23.88-9.51-34-6Z"/>
    <g id="pied-gauche-avany">
      <path class="cls-5" d="m816.28,590.5h-6.73c-1.25,0-2.26-1.01-2.26-2.26v-6.17c0-1.96,2.33-2.99,3.78-1.66,2.24,2.06,4.49,4.11,6.73,6.17,1.52,1.39.54,3.92-1.52,3.92Z"/>
      <path class="cls-7" d="m803.35,590.5h-28.12c-5.49,0-9.94-4.45-9.94-9.94v-6.38c0-10.87,8.81-19.68,19.68-19.68h18.38c5.49,0,9.94,4.45,9.94,9.94v16.12c0,5.49-4.45,9.94-9.94,9.94Z"/>
      <path class="cls-5" d="m812.28,590.5h-6.73c-1.25,0-2.26-1.01-2.26-2.26v-6.17c0-1.96,2.33-2.99,3.78-1.66,2.24,2.06,4.49,4.11,6.73,6.17,1.52,1.39.54,3.92-1.52,3.92Z"/>
    </g>
    <path id="mollet-gauche" class="cls-8" d="m697.29,448.5c-12.49,5.53-18.89,15.29-27,28-5.57,8.74-13.12,22.75-18,42,0,0-3.87,12.94-5,36-.28,5.63-.27,10.49,3,14,5.47,5.88,16.25,3.58,19,3,9.34-1.98,15.14-7.92,17-10,5.76-6.44,5.15-10.98,10-21,3.46-7.15,5.51-8.44,14-20,12.23-16.64,18.34-24.97,22-35,3.09-8.47,9.68-26.53,1-36-8.39-9.16-26.45-5.23-36-1Z"/>
    <path id="cuisse-gauche" class="cls-3" d="m672.29,256.5c-1.36-.06-27.16-.86-44,18-19.32,21.63-12.71,53.27-9,71,2.28,10.9,15.55,33.41,42,78,12.51,21.08,18.42,30.44,31,36,12.96,5.72,32.23,7.08,44-3,8.46-7.25,10.33-18.08,10-51-.5-50.14-.76-75.22-8-91-3.7-8.07-25.76-56.14-66-58Z"/>
    <g id="pied-gauche">
      <path class="cls-5" d="m691.28,590.5h-6.73c-1.25,0-2.26-1.01-2.26-2.26v-6.17c0-1.96,2.33-2.99,3.78-1.66,2.24,2.06,4.49,4.11,6.73,6.17,1.52,1.39.54,3.92-1.52,3.92Z"/>
      <path class="cls-7" d="m678.35,590.5h-28.12c-5.49,0-9.94-4.45-9.94-9.94v-6.38c0-10.87,8.81-19.68,19.68-19.68h18.38c5.49,0,9.94,4.45,9.94,9.94v16.12c0,5.49-4.45,9.94-9.94,9.94Z"/>
      <path class="cls-5" d="m687.28,590.5h-6.73c-1.25,0-2.26-1.01-2.26-2.26v-6.17c0-1.96,2.33-2.99,3.78-1.66,2.24,2.06,4.49,4.11,6.73,6.17,1.52,1.39.54,3.92-1.52,3.92Z"/>
    </g>
    <g id="corps">
      <path class="cls-12" d="m.29,377.5c2.45-2.66,20.26,17.57,58,30,17.38,5.72,31.09,7.19,48,9,9.42,1.01,34.86,3.35,79,0,33.55-2.55,54.37-4.13,81-11,38.91-10.04,65.25-24.92,99-44,36.32-20.53,65.41-41.64,85-57,43.41-34.04,44.59-43.34,77-63,21.64-13.13,45.93-27.86,80-32,24.21-2.94,49.18,5.09,99,20,19.49,5.84,42,12.57,71,25,32.51,13.93,35.56,18.89,54,23,32.71,7.29,60.46,0,75-4,9.15-2.51,45.63-13.33,80-46,18.93-17.99,31.28-40,56-84,10.37-18.47,24.95-45.95,49-83,17.26-26.59,25.86-37.24,40-40,20.95-4.08,47.33,10.49,48,25,.49,10.52-12.6,20.01-14,21-7.47,5.28-11.39,3.71-22,9-10.32,5.15-16.75,11.7-20,15-10.07,10.25-14.59,20.93-19,32-11.93,29.95-15.08,42.77-21,58-9.76,25.11-21.48,42.38-28,52-12.37,18.23-27.91,33.49-59,64-19.32,18.96-32.62,30.97-52,53-12.59,14.31-19.86,23.89-26,37-6.3,13.44-5.89,18.81-12,30-10.07,18.44-24.68,28.6-31,33-20.96,14.58-44.3,17.05-91,22-21.61,2.29-33.79,3.58-51,2-13.79-1.27-19.97-3.38-38-4-16.28-.56-17.33.95-31,0-20.81-1.45-23.54-5.31-37-5-15.49.35-19.06,5.63-36,10-24.94,6.43-46.35,2.5-60,0-29.51-5.41-31.66-14.48-58-18-9.1-1.22-18.83-1.47-49,3-54.45,8.07-61.85,14.68-92,18-24.38,2.68-44.92.12-86-5-43.79-5.46-44.35-9.39-95-17-60.29-9.06-67.1-4.64-89-15C19.74,420.38-2.83,380.88.29,377.5Z"/>
      <path class="cls-10" d="m527.29,274.5c-11.3,15.37-30.08,40.91-34,78-4.37,41.42,9.46,100.37,45,113,12.1,4.3,37.7,7.13,59-2,5.02-2.15,11.11-5.53,21-7,12.29-1.83,19.16.96,32,3,22.72,3.6,22.77-1.72,49,1,21.56,2.24,20.75,5.75,39,7,15.81,1.08,27.35-.81,46-4,19.29-3.29,35.68-6.09,55-14,22.51-9.21,38.9-15.92,50-31,23.8-32.34,15.43-92.57-14-112-20.37-13.44-42.49-1.84-72-24-10.16-7.63-7.56-9.03-18-17-22.55-17.22-39.26-14.2-77-25-37.1-10.62-33.45-17.11-59-21-12.59-1.92-37.09-5.35-64,5-29.6,11.38-45.54,33.06-58,50Z"/>
      <path class="cls-1" d="m412.29,345.5c-11.63,2.33-13.81,8.76-31,21-14.38,10.24-29.59,16.16-60,28-30.19,11.75-45.29,17.63-64,21-32.44,5.84-68,5-68,5-24.73-.59-42.43-3.62-46,4-2.6,5.56,3.82,13.58,5,15,8.26,9.92,21.43,10.81,32,12,26.86,3.02,9.11,4.86,57,12,33.54,5,50.31,7.5,69,7,8.78-.23,27.52-3.16,65-9,25.98-4.05,9.77-1.95,51-9,32.71-5.59,36.17-5.76,41-10,16.38-14.39,18.05-48.94,2-72-11.66-16.75-33.67-28.87-53-25Z"/>
      <path class="cls-8" d="m1063.29,117.5c-11.29,12.74-11.51,23.78-18,41-7.13,18.91-16.42,30.97-28,46-10.4,13.49-27.44,35.6-56,52-27.79,15.95-40.58,11.63-50,27-9.11,14.86-9.31,38.74,3,48,10.56,7.93,26.75,2.44,31,1,10.4-3.53,16.31-9.45,26-19,38.81-38.25,19.99-18.17,39-38,21.69-22.63,32.64-34.09,38-41,14.04-18.12,22.72-33.77,27-42,15.94-30.65,19.03-50.9,20-60,1.22-11.42,2.81-26.36-4-30-7.21-3.86-20.63,6.69-28,15Z"/>
    </g>
    <path id="machoire-inf" class="cls-8" d="m1133.29,35.33c-2.31,2.06-15.61,14.4-12.29,26.11,3.17,11.19,19.57,14.94,21.5,15.36,6.31,1.36,7.86-.1,23.04-1.54,16.02-1.52,31.69-1.54,33.79-1.54,15.98,0,18.74,1.24,23.04-1.54,7.66-4.94,12.06-17.28,9.22-26.11-7.53-23.4-70.37-35.65-98.3-10.74Z"/>
    <path class="cls-9" d="m449.24,562h-9.32c-1.73,0-3.13-1.4-3.13-3.13v-9.32c0-2.79,3.37-4.18,5.34-2.21,3.11,3.11,6.21,6.21,9.32,9.32,1.97,1.97.57,5.34-2.21,5.34Z"/>
    <g id="machoire-sup">
      <path class="cls-3" d="m1137.9,6.15c-7.86,5.35-18.51,17.24-15.36,29.18,3.2,12.15,18.61,16.53,19.97,16.9,5.94,1.6,10.01.74,16.9,0,0,0,15.26-1.64,39.94,0,24.99,1.67,32.9,7.78,36.86,3.07,4.89-5.81-2.49-20.66-9.22-29.18-13.17-16.7-32.85-20.68-44.54-23.04-14.88-3-30.87-6.23-44.55,3.07Z"/>
      <path class="cls-4" d="m1167.79,27s5.35,1,12,4c8.33,3.76,7.74,6.69,13,8,5.66,1.41,13.83-.11,16-5,2.3-5.19-2.93-12.47-8-16-4.66-3.24-7.07-1.86-22-4-12.73-1.83-16.35-3.61-19-1-2.93,2.88-2.79,9.28,0,12,1.62,1.58,3.32,1.13,8,2Z"/>
    </g>
    <path id="mollet-droit" class="cls-8" d="m640.29,448.5c-12.49,5.53-18.89,15.29-27,28-5.57,8.74-13.12,22.75-18,42,0,0-3.87,12.94-5,36-.28,5.63-.27,10.49,3,14,5.47,5.88,16.25,3.58,19,3,9.34-1.98,15.14-7.92,17-10,5.76-6.44,5.15-10.98,10-21,3.46-7.15,5.51-8.44,14-20,12.23-16.64,18.34-24.97,22-35,3.09-8.47,9.68-26.53,1-36-8.39-9.16-26.45-5.23-36-1Z"/>
    <path id="avant-bras-droit" class="cls-8" d="m822.29,461.5c-6.49.45-18.67,2.25-24,11-2.16,3.54-2.04,6.32-2,22,.04,19.67.07,29.51,0,31-.51,11.57-1.62,18.1,1,28,1.62,6.12,3.46,9.03,6,11,3.86,3,8.24,3,16,3,8.99,0,13.48,0,17-3,3.05-2.6,4.31-6.48,5-16,1.01-14.08-.85-18.11-1-31-.19-15.89,2-32,2-32,1.43-10.54,2.84-15.04,0-19-4.23-5.89-14.31-5.61-20-5Z"/>
    <path id="cuisse-droite" class="cls-3" d="m615.29,256.5c-1.36-.06-27.16-.86-44,18-19.32,21.63-12.71,53.27-9,71,2.28,10.9,15.55,33.41,42,78,12.51,21.08,18.42,30.44,31,36,12.96,5.72,32.23,7.08,44-3,8.46-7.25,10.33-18.08,10-51-.5-50.14-.76-75.22-8-91-3.7-8.07-25.76-56.14-66-58Z"/>
    <path id="bras-droit" class="cls-3" d="m842.29,372.5c-13.24,4.59-19.38,16.09-22,21-5.94,11.12-1.85,13.46-8,34-3.77,12.6-6.6,16.03-9,29-2.87,15.47-.57,19.87,1,22,5.21,7.06,15.62,7.01,18,7,15.19-.08,25.78-13.9,29-18,7.97-10.17,5.84-14.77,16-27,5.67-6.83,6.95-6.14,11-12,3.42-4.94,9.93-14.37,9-27-.3-4.05-1.85-14.95-11-23-10.04-8.83-23.88-9.51-34-6Z"/>
    <g id="pied-droit">
      <path class="cls-5" d="m634.28,590.5h-6.73c-1.25,0-2.26-1.01-2.26-2.26v-6.17c0-1.96,2.33-2.99,3.78-1.66,2.24,2.06,4.49,4.11,6.73,6.17,1.52,1.39.54,3.92-1.52,3.92Z"/>
      <path class="cls-7" d="m621.35,590.5h-28.12c-5.49,0-9.94-4.45-9.94-9.94v-6.38c0-10.87,8.81-19.68,19.68-19.68h18.38c5.49,0,9.94,4.45,9.94,9.94v16.12c0,5.49-4.45,9.94-9.94,9.94Z"/>
      <path class="cls-5" d="m630.28,590.5h-6.73c-1.25,0-2.26-1.01-2.26-2.26v-6.17c0-1.96,2.33-2.99,3.78-1.66,2.24,2.06,4.49,4.11,6.73,6.17,1.52,1.39.54,3.92-1.52,3.92Z"/>
    </g>
    <g id="pied-droit-avant">
      <path class="cls-5" d="m846.28,590.5h-6.73c-1.25,0-2.26-1.01-2.26-2.26v-6.17c0-1.96,2.33-2.99,3.78-1.66,2.24,2.06,4.49,4.11,6.73,6.17,1.52,1.39.54,3.92-1.52,3.92Z"/>
      <path class="cls-7" d="m833.35,590.5h-28.12c-5.49,0-9.94-4.45-9.94-9.94v-6.38c0-10.87,8.81-19.68,19.68-19.68h18.38c5.49,0,9.94,4.45,9.94,9.94v16.12c0,5.49-4.45,9.94-9.94,9.94Z"/>
      <path class="cls-5" d="m842.28,590.5h-6.73c-1.25,0-2.26-1.01-2.26-2.26v-6.17c0-1.96,2.33-2.99,3.78-1.66,2.24,2.06,4.49,4.11,6.73,6.17,1.52,1.39.54,3.92-1.52,3.92Z"/>
    </g>
    <g>
      <circle class="cls-6" cx="1167.29" cy="19.5" r="6"/>
      <circle class="cls-11" cx="1167.29" cy="19.5" r="4.5"/>
      <circle cx="1168.79" cy="19.5" r="3"/>
      <circle class="cls-2" cx="1167.29" cy="19.5" r="1.5"/>
    </g>
  </g>
</svg>