<?xml version="1.0" encoding="UTF-8"?>
<svg id="Calque_2" data-name="Calque 2" xmlns="http://www.w3.org/2000/svg" viewBox="0 0 881.6 207.87">
  <defs>
    <style>
      .cls-1 {
        fill: #e0e1dd;
      }

      .cls-2 {
        fill: #fff;
      }

      .cls-3 {
        fill: #3f70c6;
      }

      .cls-4 {
        fill: #415a77;
      }

      .cls-5 {
        fill: #3fffc6;
      }

      .cls-6 {
        fill: #1b263b;
      }

      .cls-7 {
        fill: #778da9;
      }
    </style>
  </defs>
  <g id="Calque_1-2" data-name="Calque 1">
    <g id="corps">
      <path class="cls-6" d="m234.59,2.74c-8.33,1.79-18.75,4.92-26,14-6.81,8.53-7.53,18.18-8,26-.34,5.68-2.08,34.22,19,54,11.83,11.1,25.28,14.21,33,16,13.84,3.2,18.39.53,40,1,24.36.53,21,3.98,47,5,21.55.85,30.33-1.26,51,2,11.07,1.75,11.62,3.53,19,4,4.93.31,27.8,1.78,43-13,19.61-19.06,17.67-56.61,1-71-2.62-2.27-5.45-3.54-11-6-21.62-9.58-40.58-11.33-47-12-15.91-1.67-3.52-1.84-61-13C286.32.37,260.52-2.82,234.59,2.74Z"/>
      <path class="cls-6" d="m425.59,61.74c-2.11-5.77,4.55-14.37,11-18,6.61-3.72,13.6-2.56,23-1,9.23,1.53,15.89,4.18,18,5,13.26,5.19,27.35,7.96,41,12,27.73,8.21,48.95,14.07,56,16,18.55,5.09,27.83,7.63,38,10,20.03,4.66,26.06,5.06,50,10,32.84,6.78,28.58,7.49,44,10,27.02,4.4,49.11,3.7,71,3,29.08-.93,33.46-3.41,53-2,4.23.31,43.77,2.57,44,8,.28,6.55-56.59,17.04-104,16-24.47-.54-51-4-51-4-13.74-1.79-24.59-3.8-31-5-21.63-4.04-37.49-8.1-45-10-63.97-16.14-70.33-12.96-118-27-27.45-8.09-29.15-10.27-45-13-31.65-5.46-51.86-1.41-55-10Z"/>
      <path class="cls-7" d="m808.59,112.74c.51-5.97,71.66-8.05,73,0,.43,2.58-6.39,5.78-9,7-6.57,3.08-14.21,4.25-30,2-2.56-.36-34.34-4.98-34-9Z"/>
      <path class="cls-7" d="m793.59,116.74c.51-5.97,71.66-8.05,73,0,.43,2.58-6.39,5.78-9,7-6.57,3.08-14.21,4.25-30,2-2.56-.36-34.34-4.98-34-9Z"/>
      <path class="cls-7" d="m815.59,119.74c43.4,2.39,53.91,3.17,54,5,.08,1.67-8.59,3.34-12,4-11.23,2.17-24.73,2.64-57-4-11.45-2.35-23.16-4.76-23-6,.13-.99,7.83-.66,38,1Z"/>
      <path class="cls-7" d="m788.59,120.74c43.4,2.39,53.91,3.17,54,5,.08,1.67-8.59,3.34-12,4-11.23,2.17-24.73,2.64-57-4-11.45-2.35-23.16-4.76-23-6,.13-.99,7.83-.66,38,1Z"/>
      <path class="cls-7" d="m509.59,71.74c-.54,1.51,25.53,11.99,38,17,7.07,2.84,44.22,17.77,45,16,.57-1.3-18.45-11.75-39-20-21.74-8.74-43.52-14.35-44-13Z"/>
      <path class="cls-7" d="m763.59,119.74c23.51,4.75,50.48,12.74,50,15-.48,2.28-28.79-1.16-54-7-18.17-4.21-40.43-10.99-40-13,.44-2.06,24.56,1.07,44,5Z"/>
      <path class="cls-7" d="m733.59,116.74c23.51,4.75,50.48,12.74,50,15-.48,2.28-28.79-1.16-54-7-18.17-4.21-40.43-10.99-40-13,.44-2.06,24.56,1.07,44,5Z"/>
      <path class="cls-7" d="m716.59,115.74c20.03,5.93,44.49,15.47,44,17-.98,3.07-102.74-24.78-102-28,.4-1.73,30.48,2.85,58,11Z"/>
      <path class="cls-7" d="m693.59,112.74c20.03,5.93,44.49,15.47,44,17-.98,3.07-102.74-24.78-102-28,.4-1.73,30.48,2.85,58,11Z"/>
      <path class="cls-7" d="m675.59,110.74c20.03,5.93,44.49,15.47,44,17-.98,3.07-102.74-24.78-102-28,.4-1.73,30.48,2.85,58,11Z"/>
      <path class="cls-7" d="m609.59,92.74c-.66,1.59,15.91,9.92,25,14,28.51,12.79,58.36,17.26,59,15,1.09-3.88-82.56-32.47-84-29Z"/>
      <path class="cls-7" d="m585.59,87.74c-.66,1.59,15.91,9.92,25,14,28.51,12.79,58.36,17.26,59,15,1.09-3.88-82.56-32.47-84-29Z"/>
      <path class="cls-7" d="m551.59,77.74c8.12,5.04,20.36,12.09,36,19,18.88,8.34,41.21,15.81,42,14,.74-1.69-17.21-11.77-34-19-17.75-7.65-33.27-11.72-44-14Z"/>
      <path class="cls-7" d="m522.59,72.74c-.54,1.51,25.53,11.99,38,17,7.07,2.84,44.22,17.77,45,16,.57-1.3-18.45-11.75-39-20-21.74-8.74-43.52-14.35-44-13Z"/>
      <path class="cls-7" d="m482.59,61.74c-1.81,3.52,38.98,30.6,42,27,1.37-1.64-5.29-9.38-9-13-7.81-7.61-16.28-10.27-22-12-5.39-1.63-10.41-3.15-11-2Z"/>
      <path class="cls-7" d="m506.59,67.74c-1.81,3.52,38.98,30.6,42,27,1.37-1.64-5.29-9.38-9-13-7.81-7.61-16.28-10.27-22-12-5.39-1.63-10.41-3.15-11-2Z"/>
    </g>
    <path id="cou" class="cls-6" d="m70.59,23.74c-1.86,2.19-2.49,4.85-3,7-2.32,9.76,2.27,20.11,9,26,4.79,4.19,9.96,5.51,12,6,28.74,6.98,56,5,56,5,53.86-3.91,66.98,9.67,79-3,11.01-11.61,11.13-34.73,2-42-6.08-4.84-17.44-3.61-23-3-6.76.74-11.63,2.51-13,3-17.8,6.3-45.54,6.87-60,6-32.45-1.94-51.13-14.29-59-5Z"/>
    <g id="pied">
      <path class="cls-1" d="m645.59,192.74c-4.35-.1-6.25-.21-7,1-.96,1.55.53,4.36,2,6,3.24,3.62,8.4,3.9,11,4,13.1.52,24.75.1,30,0,12.19-.24,18.28-.36,22,1,2.32.85,7.26,2.97,14,3,1.57.01,6.29-.01,7-2,.69-1.95-2.9-4.58-2-6,.45-.71,1.42-.19,3-1,.23-.12,2.72-1.45,3-4,.24-2.17-1.2-4.52-3-5-1.34-.36-2.35.45-5,2-3.34,1.95-5.67,3.31-8,4-3.31.98-3.75-.24-10,0-4.82.19-8.99,1.09-9,1-.02-.12,8.4-.35,9-3,.41-1.81-2.81-4.87-6-5-2.58-.11-2.93,1.78-7,3-3.45,1.04-3.96-.08-8,1-3.31.89-5.76,2.39-6,2-.19-.32,1.51-1.13,2-3,.36-1.36.07-3.27-1-4-1.42-.97-3.59.53-7,2,0,0-5.22,2.25-11,3-2,.26-5.67.17-13,0Z"/>
      <path class="cls-7" d="m721.59,202.74c1.6-.57,2.26.09,5,0,1.51-.05,3.31-.1,5-1,2.81-1.49,3.33-4.21,4-4,.78.25,1.15,4.27-1,7-1.88,2.39-4.86,2.75-7,3-3.78.45-8.69-.31-9-2-.2-1.08,1.51-2.47,3-3Z"/>
      <path class="cls-7" d="m724.59,191.74c-.46,1.07.45,2.42,1,3,1.86,1.96,5.76,1.56,8,0,4.55-3.18,3.3-11.96,3-12-.19-.02.39,3.71-2,6-3.25,3.11-9.02.71-10,3Z"/>
      <path class="cls-7" d="m697.59,190.74c1.15-1.62,3.84-.32,8-1,4.97-.81,7.37-3.69,8-3,.61.67-1.17,3.95-4,6-4.07,2.95-10.42,3.44-12,1-.55-.85-.6-2.16,0-3Z"/>
      <path class="cls-7" d="m674.59,189.74c.83-1.64,2.44-1.71,5-3,4.07-2.06,5.12-4.49,6-4,.95.53.65,3.82-1,6-.99,1.31-2.33,1.88-5,3-2.42,1.02-4.19,1.76-5,1-.66-.62-.49-2.04,0-3Z"/>
    </g>
    <g id="aile">
      <path class="cls-4" d="m239.59,8.82c-.19.01-.41.36-.72.38-.22.02-.55-.92-.82-.89-.23.02-.4.83-.66.86-.24.03-.67-1.15-.92-1.11-.24.04-.32,1.08-.58,1.13-.24.05-.51-.01-.75.05s-.43.33-.67.39c-.24.07-.75-.72-.99-.64s-.41.43-.64.52c-.23.09-.15.94-.38,1.04s-.73-.35-.95-.23c-.22.12.18,1.22-.03,1.36-.21.14-1.24-.88-1.43-.72-.2.16-.72.07-.9.24-.18.18.32,1.03.16,1.23-.15.19.57.93.44,1.14-.13.21-1.38-.2-1.48.03s.01.56-.05.8c-.07.24-.79.39-.83.63-.04.24,0,.58-.01.83s1.29.49,1.31.74c.01.25-1.39.65-1.35.9.04.24,1.19.3,1.24.54.06.24.21.43.29.67.07.24-.88.84-.79,1.07s.85.21.95.43c.1.23.71.19.82.41.12.22.36.33.49.54.13.22.31.34.45.54.14.21-.59,1.04-.45,1.23.16.21-.04.77.14.96.18.2,1.62-.85,1.81-.67s.18.49.38.66.28.42.49.58c.21.16.25.51.47.65.22.14.11.82.33.95.23.13.98-.73,1.21-.61.23.12.39.32.62.43.24.11.31.55.55.65s.69-.41.93-.32c.25.09.17,1.11.41,1.19.25.08.55-.01.8.06s.56-.08.81-.02c.26.06.39.61.64.67.26.06.65-.53.9-.48.26.05.55-.13.8-.08.26.05.41.67.66.71.27.05.62-.51.87-.47.27.04.42.74.66.78.27.05.33,1.11.57,1.15.28.06.75-.94.98-.88.29.08.5.29.7.38.31.15,1.19.28,1.2.51.01.2-.65.62-.88.83-.16.14-.62-.08-.86.06-.19.11-.39.23-.63.34-.21.09-.51-.04-.75.05-.22.08-.06,1.32-.3,1.4-.23.07-.77-.84-1.01-.77-.23.07-.5-.02-.74.04-.23.06-.5-.06-.75,0-.24.06-.33.72-.57.77s-.67-.87-.91-.83c-.24.05-.17,1.78-.42,1.82s-.54-.19-.78-.15c-.26.04-.61-.53-.86-.49-.26.03-.6-.69-.85-.67-.26.03-.46.51-.71.54-.26.02-.47.68-.73.7-.26.02-.58-1.18-.83-1.17-.26.01-.48,1.44-.73,1.44s-.53.07-.79.07-.54.34-.8.34c-.26-.01-.44-1.78-.7-1.8-.26-.01-.63,1.72-.89,1.7s-.44-1.01-.7-1.03-.6.76-.85.73c-.26-.03-.55.18-.8.15s-.35-1.39-.6-1.42-.66,1.11-.92,1.08c-.25-.03-.33-1.37-.59-1.4-.25-.03-.6.65-.86.62-.25-.03-.5-.08-.76-.11-.25-.03-.59.63-.85.6-.25-.03-.33-1.45-.59-1.48-.25-.03-.66,1.33-.92,1.3-.25-.03-.43-.78-.69-.8-.25-.02-.5-.11-.76-.13-.25-.02-.43-1.14-.69-1.16-.25-.02-.57.8-.84.78-.25-.01-.56.87-.82.86s-.49-.95-.74-.96c-.26-.01-.52-.39-.78-.4-.26,0-.54,1.24-.8,1.23-.26,0-.52-.11-.77-.11s-.52.06-.77.07c-.26.01-.57-1.5-.83-1.49s-.47,1.42-.72,1.43c-.26.01-.52-.01-.78,0-.27.02-.54-.17-.79-.15-.27.02-.47.61-.73.64-.26.02-.65-1.26-.9-1.23-.26.03-.55-.16-.8-.13-.26.03-.37,1.3-.63,1.33s-.58-.4-.83-.37c-.26.04-.67-.96-.92-.92-.26.04-.36,1.15-.61,1.19-.26.04-.65-.75-.9-.71-.26.04-.53.04-.77.08-.25.04-.36.95-.61.99-.25.04-.44.38-.69.42-.25.05-.64-.63-.89-.57-.25.05-.32.95-.56,1.01-.25.05-.58-.27-.82-.22-.25.06-.59-.24-.83-.18-.25.06-.59-.21-.83-.15-.25.06-.56-.08-.8-.01-.25.07-.35.67-.59.74-.25.07-.71-.56-.95-.48-.24.07-.19,1.13-.43,1.21s-.69-.45-.93-.37c-.24.08-.54.01-.78.09s-.37.49-.61.58-.26.77-.49.86c-.24.09-.37.44-.6.53-.24.09-.31.56-.55.65-.24.1-1.01-1.11-1.24-1.01-.24.1-.2.82-.44.92-.23.1-.44.26-.67.36-.23.1-.31.54-.54.64-.23.11-.31.52-.54.62-.23.11-.52.07-.75.17-.23.11-.61-.1-.83.01-.23.11-.28.59-.5.7-.23.11-1.06-1.02-1.29-.91s-.13.87-.36.98c-.23.11-.68-.24-.91-.13s-.01,1.12-.23,1.23c-.23.11-.86-.61-1.08-.5s-.43.25-.65.35c-.23.11-.13.91-.36,1.02-.23.11-.4.36-.63.47-.23.11-.62-.12-.85-.02-.23.11-.43.29-.66.4-.23.1-.56,0-.79.1s-.28.64-.51.74c-.23.1-.74-.44-.98-.34-.24.1-.24.74-.48.84-.24.1-.9-.85-1.14-.76-.24.1-.38.4-.62.5-.24.09-.35.5-.58.59-.24.09-.75-.53-.99-.44s-.48.16-.72.25-.03,1.38-.26,1.47c-.24.09-.81-.72-1.04-.63-.24.09-.46.23-.69.31-.24.09-.37.49-.61.57-.24.08-.32.65-.56.73-.24.08-.7-.47-.94-.39s-.42.36-.66.44c-.24.08-.42.36-.66.44-.24.08-.63-.29-.87-.21-.24.08-.32.7-.56.77-.24.08-.54-.03-.78.04s-.39.48-.63.55c-.24.07-.62-.3-.86-.23-.25.07-.61-.28-.85-.22-.25.07-.53-.03-.77.04-.25.07-.25,1.01-.49,1.08-.25.07-.54-.06-.79,0-.25.07-.4.48-.64.54-.25.06-.84-1.25-1.08-1.19-.25.06-.09,1.72-.34,1.78s-.76-.98-1.01-.92-.54-.11-.79-.05-.56-.2-.81-.14-.26,1.13-.5,1.19c-.25.06-.29,1.03-.54,1.09-.25.05-.91-1.77-1.15-1.72-.25.05-.47.2-.72.25s-.45.33-.7.38c-.25.05-.42.49-.67.54-.25.05-.3,1.09-.55,1.14-.25.05-.65-.64-.89-.59-.25.05-.63-.56-.87-.51-.25.05-.32,1.06-.56,1.1-.25.05-.41.6-.65.64-.26.05-.57-.25-.81-.21-.26.05-.49.18-.72.23-.26.05-.76-1.18-.99-1.13-.26.05-.5.19-.73.24-.27.06-.53.16-.74.21-.29.07-.43.59-.62.66-.39.14.23.27.25.41.02.15-.62,1.01-.22,1.07.21.03.51.37.81.39.23.01.53-.88.81-.88.24,0,.48-.41.75-.41.24,0,.49-.04.75-.05.24-.01.56,1.36.82,1.34.25-.01.49-.3.75-.31.25-.01.41-1.56.67-1.57.25-.02.54.65.8.64.25-.02.47-.5.73-.51.25-.02.59,1.18.84,1.16s.46-.55.71-.57c.25-.02.53.4.79.38.25-.02.44-.81.7-.83.25-.02.5-.11.75-.13.25-.02.55.58.8.56s.45-.79.7-.81.54.43.8.41c.25-.02.51-.01.77-.03.25-.02.53.22.78.2s.54.4.79.38c.26-.02.47-.56.72-.57.26-.02.52.22.78.2s.54.49.79.48c.26-.02.4-2,.65-2.02.26-.01.59,1.55.84,1.54.26-.01.44-1.61.69-1.62.26-.01.56,1.1.81,1.09.26-.01.5-.58.75-.58.26-.01.52-.29.77-.29s.53-.05.78-.04c.26,0,.51.82.75.83.27.01.53-.04.76-.02.28.02.56-.15.79-.12.29.05.35.78.55.85.33.11.32-.12.36.07.04.19.74.96.45,1.18-.17.12-.55.26-.82.39-.21.1-.57,0-.83.1-.22.09-.77-.65-1.02-.56-.23.08-.44.21-.7.29-.23.07-.45.23-.7.31-.24.07-.45.23-.71.3-.24.07-.65-.46-.9-.39-.24.07-.07,1.66-.32,1.73-.24.07-.78-.94-1.03-.88-.24.06-.49.12-.74.18-.24.06-.27,1-.52,1.07-.24.06-.52.02-.77.09-.24.06-.74-.86-.99-.79-.25.06-.5.07-.76.14-.25.06-.55-.12-.8-.06s-.49.15-.74.21c-.24.06-.19,1.33-.44,1.39-.24.06-.65-.56-.9-.5-.24.06-.47.19-.72.25-.24.06-.38.56-.63.62s-.45.29-.7.36c-.25.06-.82-1.23-1.07-1.16-.25.06-.09,1.76-.34,1.82s-.44.34-.69.4-.53-.04-.78.02-.49.13-.74.19-.52.03-.76.09c-.25.06-.87-1.38-1.12-1.32s-.29.93-.54.99-.68-.59-.92-.53c-.25.06-.38.58-.62.64-.25.06-.52.03-.77.09s-.16,1.4-.41,1.46-.66-.51-.91-.44-.43.37-.68.44-.9-1.36-1.14-1.29c-.25.07-.33.73-.58.79-.25.07-.17,1.32-.41,1.39-.25.07-.9-1.32-1.15-1.25s-.44.33-.69.4-.42.41-.66.48c-.25.07-.58-.15-.83-.08s-.1,1.46-.35,1.54c-.25.07-.54-.03-.79.05-.25.07-.69-.5-.93-.42-.25.08-.56-.07-.81.01-.25.08-.31.74-.55.82-.25.08-.43.33-.68.41-.25.08-.37.51-.61.59s-.54,0-.78.08-.87-.94-1.11-.85c-.24.08-.26.81-.5.9s-.67-.34-.91-.25-.23.86-.47.95c-.24.09-.29.67-.53.76s-1.09-1.4-1.33-1.31-.37.49-.61.58c-.24.1-.06,1.22-.29,1.31-.24.1-.75-.46-.99-.36s-.1,1.05-.33,1.15c-.24.1-.55,0-.79.11-.24.11-.34.46-.57.57-.23.11-1.3-1.51-1.53-1.4-.23.11-.08,1-.31,1.12s.06,1.2-.17,1.32-1.07-.9-1.29-.77c-.23.13-.79-.31-1.01-.18s-.39.39-.6.52c-.22.14-.48.25-.69.39-.22.14.5,1.64.29,1.78-.21.15-.64-.03-.84.12-.21.16-.73-.1-.93.06-.2.17-.43.3-.62.47s-.52.22-.7.4c-.18.18.68,1.32.51,1.51-.17.2-1.42-.53-1.57-.33-.16.21-.21.52-.35.73-.14.22.43.82.31,1.05-.12.23-.86.16-.95.4-.09.24-.61.4-.67.64-.06.25,1.44.75,1.41,1.01-.03.25-1.15.41-1.14.67.01.25.57.45.61.71.04.25-.73.67-.67.92.06.24-.29.68-.21.93.08.23,1.32.05,1.42.29.1.23-.2.65-.08.88.12.22.03.58.17.81.13.21.37.38.52.6.14.21.17.52.33.73.15.2.56.22.72.42.16.19.64.12.81.31.16.19.35.35.53.54.17.18.04.66.22.84.17.18.54.18.72.36s.68.01.86.19c.18.17.58.09.78.26.19.17-.1.86.1,1.03.19.16.11.66.31.82.19.16.69-.05.89.12.2.16-.36,1.28-.15,1.44.2.15.69-.06.9.1.2.15,1.14-.69,1.35-.54.2.15-.03.89.18,1.04.2.15.22.57.42.72.21.14.83-.32,1.04-.17.21.14.62-.03.83.12.21.14.41.29.62.43.21.14.29.47.51.6.21.14.49.17.7.3.21.13.16.69.38.82.21.13.13.76.35.89s1.1-.86,1.32-.73c.22.13.33.42.56.55.22.13-.17,1.31.05,1.44s.51.13.74.25c.22.12.66-.15.89-.02.22.12.02,1.01.25,1.13.22.12,1.22-1.19,1.45-1.07.22.12.11.87.33.99s.61-.08.84.04c.22.12.67-.21.9-.09.22.12-.13,1.36.1,1.47.23.11.29.56.52.67.23.11,1.04-.95,1.27-.84.23.11.52.09.75.2.23.11.06,1.03.29,1.14.23.11.83-.55,1.06-.44s-.03,1.25.2,1.36.6-.07.83.03c.23.11.83-.58,1.06-.47s-.12,1.49.11,1.6c.23.11.67-.24.9-.13.23.1.73-.39.96-.28.23.1-.07,1.41.16,1.51s.93-.86,1.17-.76c.23.1.43.29.66.39s.71-.36.94-.26c.23.1-.17,1.7.07,1.79.23.1,1.09-1.28,1.32-1.18s.21.82.45.91c.23.1.7-.38.94-.28.23.1.35.47.59.57s.03,1.29.27,1.39c.24.09.76-.52.99-.43.24.09.36.48.59.58.24.09.41.35.65.44s.34.54.58.63.83-.75,1.07-.66c.24.09.21.88.45.97.24.09.63-.22.87-.13s.26.76.5.85.8-.69,1.04-.61c.24.09.16,1.05.4,1.14.24.09.83-.8,1.07-.72.24.09.14,1.13.38,1.21.24.09.52.07.76.15.24.08.72-.51.96-.42.24.08.3.69.54.77.24.08.46.22.7.3.24.08.88-1,1.12-.92s.07,1.36.31,1.44c.24.08.46.24.7.32.24.08.91-1.14,1.16-1.06.24.08.25.86.49.94.24.08.75-.66.99-.58.24.08.46.21.71.29.24.08.03,1.57.27,1.65s.47.2.72.27c.24.08.88-1.11,1.13-1.03.24.08.57-.12.81-.05.24.08.11,1.36.35,1.43.24.07.68-.48.92-.4.24.07.16,1.22.41,1.29.24.07.8-.89,1.05-.82.24.07.63-.35.88-.27.24.07.45.25.7.32.24.07.29.8.54.87.24.07.69-.57.94-.49.24.07.31.77.55.84s.68-.55.93-.48c.24.07.53.01.77.08.24.07.04,1.73.29,1.8.25.07.56-.11.81-.04.25.07.61-.3.86-.23.25.07.31.79.56.86.25.07.62-.32.86-.25.25.07.67-.52.91-.45.25.07.4.49.64.55.25.07.43.35.68.41s.71-.72.96-.65c.25.06.34.72.59.78s.69-.63.93-.57c.25.06.31.86.55.93.25.06.53-.02.78.04s.35.69.6.75.49.13.74.19.38.61.63.67c.25.06.92-1.63,1.17-1.57s.12,1.67.37,1.73.45.31.7.36c.25.06.61-.37.86-.32.25.06.44.38.69.44s.6-.33.85-.27.58-.24.83-.18.34.81.59.87.42.47.67.53.73-.92.98-.86c.25.05.37.72.61.77.25.05.77-1.16,1.02-1.11.25.05.35.77.6.83.25.05.25,1.27.5,1.32.25.05.89-1.73,1.14-1.68.25.05.51.03.76.08s.2,1.54.45,1.6c.25.05.47.23.72.28s.56-.21.81-.16.65-.67.9-.62c.25.05.31,1.07.56,1.12s.62-.51.87-.46c.25.05.47.24.72.29.25.05.42.55.67.59.25.05.45.38.7.42.25.05.61-.49.86-.44s.42.52.68.57c.25.05.55-.19.81-.14.25.05.45.36.71.41.25.04.7-1.01.95-.96.25.04.56-.26.81-.21.25.04.29,1.32.54,1.36.25.04.47.3.72.35.25.04.45.41.7.45s.54-.13.79-.09.76-1.45,1.01-1.41.35,1.01.61,1.05c.25.04.44.51.69.55.25.04.47.29.73.33.25.04.49.16.75.2.25.04.51.04.77.08.25.04.61-.62.87-.58.25.04.6-.58.86-.54.25.04.5.12.75.16s.52-.05.78-.01c.25.04.4.8.66.83.25.04.44.53.7.57.25.04.66-1.04.91-1,.25.03.35,1.19.61,1.23.25.03.5.13.75.16s.59-.58.85-.55c.25.03.6-.63.85-.6s.43.65.69.69c.25.03.57-.46.83-.43.25.03.45.55.7.58s.51.05.76.08.4,1,.65,1.03.59-.64.85-.61c.25.03.55-.34.81-.32.25.03.51-.01.77.02.25.03.46.47.72.5.25.03.57-.52.83-.5.25.03.38,1.3.63,1.33s.57-.47.82-.45c.25.03.52-.09.78-.06.25.03.6-.86.85-.83s.38,1.35.64,1.37c.25.02.47.45.73.47.25.02.64-1.34.89-1.31.26.02.39,1.42.64,1.44.26.02.6-.99.86-.96.26.02.57-.6.82-.58.26.02.49.28.74.3.26.02.47.54.72.56.26.02.51.09.76.11.26.02.46.68.72.7.26.02.55-.42.8-.4.26.02.49.32.75.34s.48.57.73.59c.26.02.59-1.02.84-1,.26.02.51.03.77.05s.51.1.76.11c.26.02.53-.3.79-.29.26.02.52-.07.77-.05.26.02.46.88.72.9.26.01.5.21.76.22s.52-.04.77-.02c.26.01.56-.88.81-.87.26.01.45,1.3.71,1.31s.54-.61.8-.6c.26.01.55-.85.81-.84s.45,1.48.71,1.49c.26.01.57-1.38.82-1.37s.5.32.76.33c.26.01.52-.33.78-.32.26.01.47,1.5.72,1.51.26.01.51.11.77.11.26.01.53-.45.78-.45.26.01.5.52.76.53s.55-1.53.81-1.52.49,1.41.74,1.42c.26,0,.51.07.77.07s.53-.95.79-.94c.26,0,.5.92.76.93s.53-1.02.78-1.02.51.78.77.78.51-.17.77-.17.51-1.33.77-1.33.51,1.63.76,1.63.51-.91.77-.91.51-.22.76-.22.51.56.77.56.52.65.77.65.5-1.08.76-1.08.52.99.78.99.52.25.77.25.5-.48.76-.48.52.31.77.3c.26-.01.47-1.76.73-1.76.26-.01.52.27.77.27.26-.01.53.67.78.67.26-.01.48-1.04.74-1.05.26-.01.53.7.79.7.26-.01.53.57.79.56.26-.01.53.38.78.37.26-.01.51-.1.76-.11.26-.01.47-1.08.72-1.09.26-.01.51-.13.76-.14.26-.01.56,1.12.82,1.11s.49-.45.75-.46c.26-.01.53.36.79.34.26-.01.51-.03.77-.05.26-.01.44-1.31.7-1.32s.53.39.79.37c.26-.01.56.82.81.81.26-.01.48-.61.73-.62.26-.02.46-.8.72-.82.26-.02.55.57.8.55.26-.02.57.93.83.92.26-.02.41-1.48.67-1.5s.6,1.3.86,1.28.42-1.36.67-1.38c.26-.02.58.9.83.88.26-.02.54.41.8.39s.43-1.07.69-1.09.48-.36.74-.38c.26-.02.59.93.84.91s.5-.18.75-.2c.26-.02.48-.41.73-.43.26-.02.59.9.85.87.26-.02.37-1.57.63-1.6.26-.02.54.28.79.26.26-.02.5-.2.75-.22.26-.02.48-.35.74-.37s.64,1.24.89,1.22c.26-.03.5-.17.75-.2.26-.03.57.57.83.55.26-.03.4-1.15.65-1.18s.56.39.81.37c.25-.03.46-.55.71-.58s.56.43.82.4c.25-.03.44-.69.69-.72s.64,1.11.9,1.08c.25-.03.35-1.44.6-1.47s.65,1.11.9,1.08.35-1.41.6-1.44.51-.02.77-.05c.25-.03.48-.3.73-.33s.67,1.2.92,1.17.6.62.85.59.39-1.03.64-1.06.63.87.89.84c.25-.03.39-.95.65-.98.25-.03.61.69.87.65.25-.03.5-.12.76-.15.25-.04.45-.51.7-.55.25-.04.51-.04.77-.08.25-.04.45-.46.71-.5.25-.04.57.38.83.34.25-.04.58.37.83.33s.42-.65.68-.69c.25-.04.41-.7.67-.73.25-.04.64.76.89.72s.55.16.8.12.3-1.39.55-1.43c.25-.04.73,1.3.98,1.26.25-.04.35-1.02.61-1.06.25-.04.53.04.78-.01.25-.04.4-.71.65-.75s.52.02.78-.03c.25-.04.64.67.89.63s.4-.68.66-.72c.25-.04.66.76.91.72.25-.05.38-.77.64-.82.25-.05.57.28.82.23s.54.07.79.02c.25-.05.26-1.4.51-1.45.25-.05.72,1.05.97,1.01.25-.05.41-.58.66-.63.25-.05.71.96.96.91s.25-1.4.5-1.45c.25-.05.51-.07.76-.12s.67.71.92.66.26-1.28.51-1.34c.25-.05.63.53.89.48.25-.05.37-.71.62-.77.25-.05.51-.06.76-.12.25-.05.73.96.98.9.25-.05.55.1.8.04s.56.13.81.07.41-.54.66-.59c.25-.06.5-.1.75-.16s.59.28.84.22.32-.92.56-.98c.25-.06.72.8.96.74.25-.06.34-.79.59-.85s.58.2.83.14.54.04.79-.02.36-.7.61-.76.59.23.84.17.48-.19.73-.25.17-1.41.42-1.47.94,1.56,1.18,1.49c.25-.07.22-1.17.47-1.23.25-.07.56.11.81.04.25-.07.52-.06.76-.13.25-.07.69.57.94.5s.17-1.32.41-1.39c.25-.07.58.18.83.11s.69.53.93.46c.25-.07.33-.71.57-.79.25-.07.71.58.95.51.25-.07.55.04.8-.03s.44-.32.69-.4c.25-.07.03-1.67.27-1.75.25-.08.86,1.06,1.11.98s.16-1.2.4-1.28c.25-.08.72.57.96.49.24-.08.39-.47.63-.55s.64.32.89.24c.24-.08.2-1.01.45-1.09.24-.08.92,1.13,1.17,1.05.24-.08.38-.48.62-.56s.08-1.33.32-1.41c.24-.08.93,1.1,1.17,1.01s.54-.02.78-.11c.24-.09.31-.65.55-.74s.14-1.09.38-1.18.92.98,1.15.89c.24-.09.61.14.84.05.24-.09.13-1.08.37-1.17.24-.09.44-.26.68-.36.24-.1.82.65,1.05.56.24-.1.48-.2.71-.3.24-.1-.12-1.62.11-1.72.24-.1,1.12,1.32,1.35,1.22.24-.1.42-.33.65-.43.24-.1-.11-1.52.12-1.62s.56.01.79-.1c.23-.11.8.52,1.03.41.23-.11.7.28.93.17s.54-.08.76-.19c.23-.11.08-1.01.31-1.12s.66.17.89.06c.23-.12.41-.33.64-.44.23-.12.24-.65.46-.77.23-.12.01-1.05.23-1.17.22-.12,1.31,1.31,1.53,1.19.22-.13.48-.21.7-.33.22-.13.15-.77.37-.9s.73.2.94.07c.22-.13.17-.7.39-.83.22-.14.2-.64.41-.78.21-.14.99.57,1.2.42.21-.14.09-.8.29-.95.21-.15-.03-.93.17-1.08.21-.15.56-.1.76-.25.21-.16.65.01.85-.15.2-.16.75.11.95-.05.2-.16-.14-.97.05-1.14s1.09.45,1.28.28-.61-1.42-.43-1.59c.19-.18.28-.42.45-.6.18-.18.57-.14.74-.32.17-.19.42-.3.58-.49.17-.2.07-.59.23-.78.16-.2,1.3.35,1.45.14s-.18-.77-.04-.98c.14-.21.44-.33.57-.55s.21-.48.33-.7c.12-.23.36-.41.46-.64.1-.23-.86-.89-.77-1.12.09-.24,1.07-.16,1.14-.4s.86-.35.92-.59c.05-.25-.55-.66-.51-.91.03-.25.1-.52.12-.77.01-.26-.92-.51-.93-.76s.88-.56.85-.81-.65-.42-.7-.67-.08-.48-.15-.73c-.06-.24-.54-.33-.63-.57-.08-.24-.07-.47-.17-.71-.09-.23,1.3-1.13,1.19-1.37-.11-.23-1.98.43-2.1.21s1.23-1.28,1.09-1.5c-.13-.22-.72-.17-.86-.38s.19-.77.04-.98c-.15-.2-.24-.49-.4-.69-.15-.2-1.58.62-1.75.42-.16-.19-.17-.5-.34-.69-.17-.19.69-1.31.51-1.5-.17-.18-.54-.21-.72-.39-.18-.18-1.27.56-1.46.38-.18-.18.73-1.5.54-1.68-.18-.17-.96.29-1.15.11-.19-.17-.79.14-.99-.03-.19-.17.01-.79-.19-.95-.19-.16-.64-.01-.84-.17s-.58-.07-.79-.23c-.2-.16-.23-.53-.43-.68s.17-1.08-.03-1.23c-.2-.15-.64.01-.85-.15-.2-.15-1.03.58-1.24.43-.21-.15.62-1.77.41-1.92-.21-.14-1.31,1.01-1.52.86-.21-.14-.47-.19-.69-.33-.21-.14-.46-.21-.67-.35-.21-.14.49-1.69.27-1.83-.21-.14-1.37,1.22-1.59,1.09-.21-.13.57-1.89.35-2.02-.22-.13-.86.43-1.08.3-.22-.13-.49-.17-.71-.3-.22-.13-.37-.37-.59-.5-.22-.13-.54-.07-.76-.2-.22-.13-.86.48-1.08.36-.22-.12-.28-.52-.5-.64-.22-.12-.03-.99-.25-1.11s-.79.39-1.02.27c-.22-.12-.25-.59-.48-.71-.22-.12-.26-.58-.49-.7-.22-.12-.34-.45-.56-.57s-.39-.35-.62-.46c-.22-.12-1.13,1.08-1.36.97-.23-.12.02-1.16-.2-1.27-.23-.11-.3-.54-.52-.65-.23-.11-1.09,1.04-1.32.93-.23-.11.09-1.31-.14-1.43-.23-.11-.84.57-1.07.46-.23-.11-.14-.87-.37-.98-.23-.11-.5-.12-.73-.23-.23-.11-.18-.8-.41-.91-.23-.11-1.06,1.06-1.3.95-.23-.11.03-1.26-.2-1.37-.23-.11-.78.48-1.01.37-.23-.11-.32-.53-.55-.63-.23-.11-.15-.9-.38-1-.23-.11-.83.59-1.06.49s-.75.43-.98.32c-.23-.1-.44-.25-.68-.35-.23-.1-.56.01-.79-.09s.02-1.3-.21-1.41c-.23-.1-.17-.88-.41-.98-.23-.1-.68.28-.91.17-.23-.1-.63.18-.87.07-.23-.1-.59.08-.83-.02-.23-.1-.56.01-.79-.09s-.25-.72-.48-.82-.16-.93-.4-1.03c-.23-.1-.61.14-.85.05-.23-.1-.78.55-1.02.45-.24-.1-.02-1.28-.26-1.38s-.73.43-.96.33c-.24-.1-.63.18-.86.09-.24-.1-.1-1.11-.33-1.21-.24-.1-.58.06-.81-.03-.24-.1-.64.21-.87.12-.24-.1-.7.36-.93.27-.24-.09-.15-1-.38-1.09-.24-.09-.55,0-.78-.1-.24-.09-.52-.06-.76-.16-.24-.09-.46-.21-.7-.31-.24-.09-.13-1.06-.37-1.15s-1.14,1.51-1.38,1.42-.14-1.04-.38-1.13-.84.76-1.08.67-.22-.85-.45-.94c-.24-.09-.69.39-.93.3-.24-.09-.09-1.17-.33-1.26s-.33-.55-.57-.64c-.24-.09-.87.85-1.11.76s-.44-.27-.68-.36-.15-1.04-.39-1.13-.83.75-1.07.66-.52-.07-.76-.16-.27-.73-.51-.82-.64.27-.88.18.03-1.54-.21-1.62c-.24-.09-.64.26-.88.17s-.98,1.16-1.22,1.07-.42-.35-.66-.44-.52-.07-.76-.16-.38-.43-.62-.52-.29-.69-.53-.78c-.24-.09-.34-.56-.58-.64-.24-.09-.67.34-.91.25s-.53-.05-.77-.14c-.24-.09-.47-.21-.71-.29-.24-.09-.45-.25-.69-.34s-.3-.68-.54-.76c-.24-.09-.46-.23-.7-.31-.24-.09-.54-.01-.78-.1-.24-.09-.43-.32-.67-.41s-.7.44-.94.35-.7.44-.94.35.07-1.72-.17-1.81-.45-.26-.69-.35-.5-.13-.74-.21c-.24-.09-.41-.37-.65-.46-.24-.09-1.05,1.43-1.29,1.34s-.37-.49-.61-.58-.18-1.02-.42-1.11-.86.88-1.1.8c-.24-.09-.57.08-.82,0-.24-.09-.47-.22-.71-.31-.24-.09-.5-.12-.74-.2-.24-.09-.46-.23-.7-.32s-.46-.24-.7-.33-.36-.53-.6-.61c-.24-.09-.53-.03-.78-.11-.24-.09-.21-.95-.45-1.03-.24-.09-.77.64-1.01.55-.24-.09-.01-1.52-.25-1.6-.24-.09-.9,1.02-1.15.93-.24-.09-.55.03-.8-.06-.24-.09-.03-1.47-.27-1.56s-.7.44-.94.35-.46-.24-.7-.33-.46-.23-.7-.31c-.24-.09-.58.1-.82.01s-.61.19-.85.11c-.24-.09-.6.15-.84.07-.24-.09-.49-.15-.73-.23-.24-.09.01-1.57-.23-1.65-.24-.09-.88.96-1.12.88-.24-.09-.23-.89-.47-.97-.24-.09-.48-.19-.72-.27-.24-.09-.61.18-.85.09s-.75.57-.99.49c-.24-.09-.23-.9-.47-.98-.24-.09-.44-.3-.68-.38-.24-.09-.29-.72-.53-.81-.24-.09-1,1.29-1.24,1.2s-.31-.66-.55-.75-.59.13-.83.04-.54-.03-.78-.11c-.24-.09-.38-.46-.62-.54-.24-.09.04-1.63-.2-1.72s-1.07,1.48-1.31,1.39-.23-.88-.47-.96c-.24-.09-.8.71-1.04.62s-.28-.73-.52-.82-.6.16-.84.07c-.24-.09.02-1.58-.22-1.67-.24-.09-.57.07-.81-.02s-.99,1.21-1.23,1.13c-.24-.09-.05-1.38-.29-1.47s-.55.02-.79-.07-.43-.33-.67-.42c-.24-.09-.83.79-1.07.7s-.09-1.25-.33-1.34-.38-.46-.62-.55-.68.36-.92.27-.5-.12-.74-.21-.23-.86-.46-.95c-.24-.09-.41-.35-.65-.44-.24-.09-.89.91-1.13.82s-.63.22-.87.13-.46-.24-.7-.33-.49-.15-.73-.24-.63.2-.87.11c-.24-.09.03-1.51-.21-1.61-.24-.09-.79.61-1.03.52-.24-.09-.13-1.09-.37-1.18s-.66.27-.89.17c-.24-.09-.34-.55-.58-.64-.24-.09-.48-.19-.72-.28-.24-.1-1,1.12-1.24,1.02s-.08-1.17-.32-1.27c-.24-.1-.25-.76-.48-.86-.24-.1-.6.12-.84.03-.24-.1-.98,1.04-1.22.95-.24-.1-.18-.91-.42-1-.24-.1-.23-.78-.47-.87-.24-.1-.37-.44-.6-.54-.24-.1-.43-.28-.67-.38s-1.03,1.11-1.27,1.01c-.24-.1-.13-.98-.36-1.09-.24-.1-.25-.69-.49-.79-.23-.1-.81.57-1.04.46-.23-.1-.03-1.18-.26-1.28-.23-.11-.92.79-1.15.68-.23-.11-.07-1.05-.3-1.16-.23-.11-1.07,1.08-1.3.98-.23-.11-.02-1.15-.24-1.26-.23-.11-.54-.04-.77-.15-.23-.11-.17-.82-.39-.93-.23-.12-1.07,1-1.3.88s-.66.16-.89.04c-.23-.12-.29-.57-.51-.69-.23-.12-.04-1-.26-1.12-.23-.12-.57-.02-.79-.14-.22-.12-.05-.95-.26-1.07-.22-.13-.87.49-1.09.36-.22-.13-.37-.38-.58-.51-.22-.13-.72.19-.93.06-.22-.14-.5-.18-.71-.32s.07-1.02-.13-1.16c-.21-.15-1.14.71-1.34.56-.13-.1.46-1.37.19-1.57-.18-.13-.42-.25-.66-.42-.2-.13-.86.41-1.09.26-.21-.13-.54-.06-.77-.2-.21-.13.14-1.22-.09-1.36-.22-.12-.97.7-1.21.58-.22-.12-.37-.36-.6-.48-.22-.12.06-1.27-.18-1.38-.23-.11-1.04,1.01-1.28.91-.23-.1.19-1.7-.05-1.81-.23-.1-1.02,1.12-1.26,1.02-.24-.09-.62.23-.86.14s-.43-.24-.68-.33c-.24-.08-.31-.68-.55-.75s-.52-.03-.77-.1-.61.38-.86.32-.36-.63-.62-.68c-.25-.05-.46-.31-.71-.36s-.37-.98-.63-1.02c-.25-.04-.72,1.54-.98,1.51s-.42-.79-.68-.81-.48-.57-.74-.58c-.26-.01-.54,1-.8,1s-.5-.05-.76-.05c-.4-.14-.66-.65-.93-.64Z"/>
      <path class="cls-7" d="m347.59,66.74c6.94,1.99,16.04,5.58,31,16,3.12,2.18,25.4,17.7,24,20-1.18,1.94-20.12-8.38-58-29-5.97-3.25-13.58-7.45-13-9,.61-1.61,9.79.22,16,2Z"/>
      <path class="cls-7" d="m327.59,77.74c-.31,1.04,6.4,3,24,12,9.04,4.62,15.76,8.45,22,12,23.49,13.37,30.12,19.04,31,18,1.38-1.64-11.93-19.55-33-31-21.16-11.49-43.46-12.84-44-11Z"/>
      <path class="cls-7" d="m322.59,81.74c-.67,1.48,9.11,5.32,27,19,9.43,7.21,13.57,11.39,24,18,7.3,4.62,17.82,11.29,20,9,1.93-2.03-3.28-10.48-8-16-6.71-7.85-14.28-11.94-23-16-15.66-7.28-38.96-16.28-40-14Z"/>
      <path class="cls-7" d="m312.59,83.74c-.68,1.3,8.42,4.43,22,18,5.93,5.93,10.76,11.89,20,19,.19.15,3.78,2.89,9,6,5.52,3.29,12.55,7.48,14,6,1.65-1.68-4.3-10.32-8-15-20.63-26.15-55.69-36.52-57-34Z"/>
      <path class="cls-7" d="m295.59,78.74c-.33.55,4.33,3.03,13,11,5.8,5.33,9.65,9.67,17,18,9.68,10.97,10.94,13.32,17,19,3.58,3.35,13.25,12.42,15,11,2.08-1.69-6.45-18.58-19-32-18.59-19.88-42.28-28.18-43-27Z"/>
      <path class="cls-7" d="m279.59,72.74c-.81.98,4.02,6.35,10,13,5.5,6.12,8.68,8.66,14,14,4.56,4.58,8.04,8.72,15,17,15.67,18.64,19.85,25.65,21,25,1.62-.91-3.3-16.55-13-31-17.64-26.27-45.34-40.01-47-38Z"/>
      <path class="cls-7" d="m281.59,85.74c-.84.98,3.98,4.82,14,19,6.21,8.79,7.87,12.28,15,22,7.15,9.74,10.72,14.61,12,14,2.23-1.06-.84-17.37-10-31-11.39-16.95-29.5-25.74-31-24Z"/>
      <path class="cls-7" d="m273.74,83.61c-.94.88,3.42,5.23,11.82,20.43,5.2,9.42,6.46,13.07,12.48,23.52,6.03,10.47,9.04,15.7,10.38,15.24,2.34-.81,1.08-17.36-6.52-31.91-9.45-18.11-26.48-28.84-28.16-27.28Z"/>
      <path class="cls-7" d="m267.19,76.5c-1.16.64,2.05,6.08,6.48,23.39,2.74,10.72,3.06,14.69,6.34,26.65,3.29,11.98,4.94,17.96,6.38,17.84,2.52-.22,5.5-17.09,1.7-33.55-4.74-20.49-18.85-35.47-20.9-34.33Z"/>
      <path class="cls-7" d="m248.99,71.96c-1.31.32.17,6.52-.7,24.69-.54,11.26-1.41,15.23-1.79,27.85-.38,12.64-.57,18.96.86,19.22,2.49.46,10.38-15.27,11.6-32.44,1.51-21.36-7.65-39.88-9.97-39.32Z"/>
      <path class="cls-7" d="m256.32,70.33c-1.24.52,1.2,6.41,3.2,24.49,1.24,11.2,1,15.27,2.61,27.79,1.61,12.54,2.42,18.81,3.87,18.85,2.54.07,7.85-16.71,6.35-33.86-1.87-21.34-13.83-38.19-16.03-37.27Z"/>
      <path class="cls-7" d="m243.59,80.74c-3.73,28.68-10.34,38.56-16,42-1.57.95-8.12,4.48-8,9,.04,1.57.88,3.09,2,4,4.31,3.48,13.66-1.5,16-3,15.41-9.89,6.8-48.57,6-52Z"/>
      <path class="cls-7" d="m237.59,76.74c-1.95-.45-2.08,14.53-15,28-12.1,12.62-26.84,14.95-26,20,.52,3.11,6.52,4.7,10,5,9.09.78,15.92-5.96,19-9,16.33-16.11,14.61-43.4,12-44Z"/>
      <path class="cls-7" d="m227.59,79.74c-1.76-.38-3.61,4.78-7,10-6.62,10.18-15.74,15.41-22,19-12.64,7.25-22.17,7.51-22,10,.15,2.15,7.4,4.1,14,4,19.05-.3,38.14-17.8,39-34,.17-3.29-.29-8.63-2-9Z"/>
      <path class="cls-7" d="m221.59,76.74c-2.54-1.63-9.54,9.08-23,19-18.7,13.78-36.63,16.27-36,19,.42,1.84,8.81,1.58,14,1,1.89-.21,32.83-4.12,43-27,1.87-4.21,3.82-10.83,2-12Z"/>
      <path class="cls-7" d="m213.59,75.74c-1-1.17-8.13,6.77-29,17-24.42,11.97-42.46,14.72-42,18,.31,2.24,9.09,3.56,17,3,32.02-2.26,55.94-35.73,54-38Z"/>
      <path class="cls-7" d="m174.59,89.74c-21,9.66-35.35,11.55-35,14,.33,2.3,13.49,3.92,26,1,26.45-6.17,42.8-30.91,41-33-1.2-1.39-9.9,7.83-32,18Z"/>
      <path class="cls-7" d="m187.59,70.74c-12.64,5.79-17.12,7.26-33,14-27.19,11.55-28.19,13.25-28,14,.51,2.04,10.67,1.13,12,1,33.29-3.13,61.37-32.09,60-34-.22-.31-.98.41-11,5Z"/>
      <path class="cls-7" d="m140.59,79.74c-21.46,7.49-24.24,9.74-24,11,.38,2,8.53,2.19,13,2,6.18-.27,15.86-1.74,43-17,9.57-5.38,14.35-8.09,14-9-1.05-2.69-37.16,9.91-46,13Z"/>
      <path class="cls-7" d="m383.42,68.31c6.39,3.36,14.56,8.74,27.07,22,2.61,2.77,21.25,22.52,19.4,24.48-1.55,1.65-17.98-12.31-50.85-40.24-5.18-4.4-11.78-10.07-10.89-11.47.94-1.45,9.56,2.22,15.27,5.23Z"/>
      <path class="cls-7" d="m361.59,74.99c-.51.96,5.65,4.24,21.04,16.65,7.91,6.38,13.7,11.49,19.08,16.24,20.26,17.89,25.59,24.79,26.67,23.96,1.69-1.32-7.68-21.58-25.97-37.09-18.35-15.58-39.91-21.45-40.82-19.76Z"/>
      <path class="cls-7" d="m355.88,77.88c-.96,1.31,7.83,7.07,22.55,24.12,7.76,8.99,10.95,13.92,19.81,22.53,6.2,6.01,15.14,14.69,17.74,12.9,2.3-1.59-1.07-10.93-4.56-17.3-4.96-9.05-11.53-14.61-19.24-20.36-13.84-10.34-34.82-23.91-36.3-21.89Z"/>
      <path class="cls-7" d="m345.68,77.79c-.93,1.13,7.34,6.06,17.86,22.12,4.59,7.02,8.1,13.84,15.69,22.69.16.19,3.11,3.6,7.58,7.71,4.73,4.34,10.76,9.89,12.48,8.74,1.95-1.31-2.1-10.98-4.76-16.32-14.85-29.81-47.05-47.13-48.85-44.94Z"/>
      <path class="cls-7" d="m330.07,69.43c-.44.47,3.62,3.85,10.48,13.43,4.59,6.4,7.47,11.44,12.96,21.1,7.23,12.71,7.99,15.27,12.76,22.07,2.81,4.01,10.43,14.87,12.43,13.83,2.38-1.23-2.51-19.5-12.06-35.21-14.14-23.27-35.63-36.23-36.57-35.22Z"/>
      <path class="cls-7" d="m315.63,60.28c-.99.79,2.64,7.04,7.13,14.77,4.13,7.11,6.73,10.25,10.84,16.57,3.53,5.42,6.09,10.18,11.21,19.71,11.53,21.45,14.18,29.16,15.45,28.77,1.77-.56.15-16.88-6.39-33-11.9-29.33-36.2-48.45-38.24-46.82Z"/>
      <path class="cls-7" d="m314.93,73.42c-1.02.78,2.91,5.53,9.82,21.46,4.28,9.87,5.19,13.63,10.19,24.6,5.01,10.99,7.51,16.49,8.88,16.16,2.4-.58,2.73-17.18-3.45-32.39-7.69-18.93-23.62-31.23-25.44-29.83Z"/>
      <path class="cls-7" d="m307.68,69.73c-1.1.67,2.28,5.82,7.39,22.41,3.17,10.29,3.65,14.12,7.41,25.58,3.76,11.48,5.64,17.22,7.05,17.04,2.45-.31,4.61-16.77.14-32.57-5.55-19.66-20.03-33.65-21.99-32.46Z"/>
      <path class="cls-7" d="m302.72,61.42c-1.27.39.77,6.38,1.56,24.22.49,11.06-.01,15,.76,27.38.77,12.4,1.16,18.59,2.6,18.76,2.51.3,8.88-15.61,8.52-32.5-.44-21-11.19-38.55-13.44-37.86Z"/>
      <path class="cls-7" d="m285.83,53.26c-1.34.04-1.16,6.42-5.73,24.03-2.83,10.91-4.5,14.62-7.45,26.9-2.96,12.29-4.43,18.44-3.09,18.99,2.35.96,13.28-12.83,17.98-29.39,5.86-20.6.68-40.6-1.71-40.53Z"/>
      <path class="cls-7" d="m293.34,53.16c-1.32.25-.14,6.52-1.88,24.63-1.08,11.22-2.14,15.15-3.12,27.73-.98,12.6-1.48,18.91-.06,19.24,2.47.58,11.1-14.76,13.14-31.85,2.53-21.26-5.73-40.2-8.08-39.75Z"/>
      <path class="cls-7" d="m278.76,60.75c-9.51,27.32-18,35.63-24.25,37.84-1.73.61-8.86,2.72-9.67,7.17-.28,1.54.23,3.21,1.14,4.32,3.51,4.29,13.67,1.33,16.28.33,17.09-6.51,16.57-46.14,16.5-49.66Z"/>
      <path class="cls-7" d="m273.7,55.61c-1.82-.84-5.01,13.8-20.41,24.34-14.43,9.88-29.33,9.14-29.54,14.26-.13,3.15,5.42,5.94,8.77,6.94,8.74,2.62,16.8-2.58,20.44-4.93,19.28-12.43,23.17-39.49,20.74-40.61Z"/>
      <path class="cls-7" d="m263.3,56.5c-1.64-.73-4.51,3.94-8.9,8.36-8.56,8.61-18.56,11.87-25.42,14.1-13.86,4.51-23.24,2.82-23.58,5.29-.3,2.13,6.4,5.53,12.89,6.78,18.71,3.61,40.98-9.62,45.13-25.31.84-3.18,1.47-8.51-.12-9.22Z"/>
      <path class="cls-7" d="m258.04,52.34c-2.15-2.12-11.2,6.94-26.4,13.9-21.12,9.66-39.18,8.44-39.12,11.24.04,1.89,8.3,3.35,13.5,3.84,1.89.18,32.98,2.68,47.61-17.64,2.69-3.74,5.95-9.82,4.41-11.34Z"/>
      <path class="cls-7" d="m250.41,49.72c-.74-1.35-9.34,4.97-31.86,10.71-26.35,6.72-44.57,5.73-44.79,9.03-.15,2.25,8.17,5.34,16.03,6.41,31.8,4.35,62.06-23.53,60.62-26.15Z"/>
      <path class="cls-7" d="m209.37,55.46c-22.53,5.16-36.97,4.08-37.12,6.55-.15,2.32,12.41,6.59,25.25,6.29,27.15-.63,48.22-21.5,46.88-23.92-.89-1.61-11.29,5.64-35.01,11.08Z"/>
      <path class="cls-7" d="m225.98,39.52c-13.55,3.08-18.24,3.6-35.17,6.96-28.98,5.74-30.3,7.2-30.27,7.98.08,2.1,10.22,3.28,11.54,3.43,33.23,3.74,66.64-18.87,65.68-21.02-.14-.35-1.03.2-11.78,2.65Z"/>
      <path class="cls-7" d="m178.14,38.72c-22.54,2.95-25.72,4.58-25.74,5.86-.04,2.04,7.91,3.89,12.32,4.62,6.1,1,15.88,1.54,45.57-7.85,10.47-3.31,15.71-4.99,15.54-5.95-.49-2.86-38.41,2.1-47.69,3.32Z"/>
      <path class="cls-7" d="m335.42,77.31c6.39,3.36,14.56,8.74,27.07,22,2.61,2.77,21.25,22.52,19.4,24.48-1.55,1.65-17.98-12.31-50.85-40.24-5.18-4.4-11.78-10.07-10.89-11.47.94-1.45,9.56,2.22,15.27,5.23Z"/>
      <path class="cls-7" d="m313.59,83.99c-.51.96,5.65,4.24,21.04,16.65,7.91,6.38,13.7,11.49,19.08,16.24,20.26,17.89,25.59,24.79,26.67,23.96,1.69-1.32-7.68-21.58-25.97-37.09-18.35-15.58-39.91-21.45-40.82-19.76Z"/>
      <path class="cls-7" d="m307.88,86.88c-.96,1.31,7.83,7.07,22.55,24.12,7.76,8.99,10.95,13.92,19.81,22.53,6.2,6.01,15.14,14.69,17.74,12.9,2.3-1.59-1.07-10.93-4.56-17.3-4.96-9.05-11.53-14.61-19.24-20.36-13.84-10.34-34.82-23.91-36.3-21.89Z"/>
      <path class="cls-7" d="m297.68,86.79c-.93,1.13,7.34,6.06,17.86,22.12,4.59,7.02,8.1,13.84,15.69,22.69.16.19,3.11,3.6,7.58,7.71,4.73,4.34,10.76,9.89,12.48,8.74,1.95-1.31-2.1-10.98-4.76-16.32-14.85-29.81-47.05-47.13-48.85-44.94Z"/>
      <path class="cls-7" d="m282.07,78.43c-.44.47,3.62,3.85,10.48,13.43,4.59,6.4,7.47,11.44,12.96,21.1,7.23,12.71,7.99,15.27,12.76,22.07,2.81,4.01,10.43,14.87,12.43,13.83,2.38-1.23-2.51-19.5-12.06-35.21-14.14-23.27-35.63-36.23-36.57-35.22Z"/>
      <path class="cls-7" d="m267.63,69.28c-.99.79,2.64,7.04,7.13,14.77,4.13,7.11,6.73,10.25,10.84,16.57,3.53,5.42,6.09,10.18,11.21,19.71,11.53,21.45,14.18,29.16,15.45,28.77,1.77-.56.15-16.88-6.39-33-11.9-29.33-36.2-48.45-38.24-46.82Z"/>
      <path class="cls-7" d="m266.93,82.42c-1.02.78,2.91,5.53,9.82,21.46,4.28,9.87,5.19,13.63,10.19,24.6,5.01,10.99,7.51,16.49,8.88,16.16,2.4-.58,2.73-17.18-3.45-32.39-7.69-18.93-23.62-31.23-25.44-29.83Z"/>
      <path class="cls-7" d="m259.68,78.73c-1.1.67,2.28,5.82,7.39,22.41,3.17,10.29,3.65,14.12,7.41,25.58,3.76,11.48,5.64,17.22,7.05,17.04,2.45-.31,4.61-16.77.14-32.57-5.55-19.66-20.03-33.65-21.99-32.46Z"/>
      <path class="cls-7" d="m254.72,70.42c-1.27.39.77,6.38,1.56,24.22.49,11.06-.01,15,.76,27.38.77,12.4,1.16,18.59,2.6,18.76,2.51.3,8.88-15.61,8.52-32.5-.44-21-11.19-38.55-13.44-37.86Z"/>
      <path class="cls-7" d="m237.83,62.26c-1.34.04-1.16,6.42-5.73,24.03-2.83,10.91-4.5,14.62-7.45,26.9-2.96,12.29-4.43,18.44-3.09,18.99,2.35.96,13.28-12.83,17.98-29.39,5.86-20.6.68-40.6-1.71-40.53Z"/>
      <path class="cls-7" d="m245.34,62.16c-1.32.25-.14,6.52-1.88,24.63-1.08,11.22-2.14,15.15-3.12,27.73-.98,12.6-1.48,18.91-.06,19.24,2.47.58,11.1-14.76,13.14-31.85,2.53-21.26-5.73-40.2-8.08-39.75Z"/>
      <path class="cls-7" d="m230.76,69.75c-9.51,27.32-18,35.63-24.25,37.84-1.73.61-8.86,2.72-9.67,7.17-.28,1.54.23,3.21,1.14,4.32,3.51,4.29,13.67,1.33,16.28.33,17.09-6.51,16.57-46.14,16.5-49.66Z"/>
      <path class="cls-7" d="m225.7,64.61c-1.82-.84-5.01,13.8-20.41,24.34-14.43,9.88-29.33,9.14-29.54,14.26-.13,3.15,5.42,5.94,8.77,6.94,8.74,2.62,16.8-2.58,20.44-4.93,19.28-12.43,23.17-39.49,20.74-40.61Z"/>
      <path class="cls-7" d="m215.3,65.5c-1.64-.73-4.51,3.94-8.9,8.36-8.56,8.61-18.56,11.87-25.42,14.1-13.86,4.51-23.24,2.82-23.58,5.29-.3,2.13,6.4,5.53,12.89,6.78,18.71,3.61,40.98-9.62,45.13-25.31.84-3.18,1.47-8.51-.12-9.22Z"/>
      <path class="cls-7" d="m210.04,61.34c-2.15-2.12-11.2,6.94-26.4,13.9-21.12,9.66-39.18,8.44-39.12,11.24.04,1.89,8.3,3.35,13.5,3.84,1.89.18,32.98,2.68,47.61-17.64,2.69-3.74,5.95-9.82,4.41-11.34Z"/>
      <path class="cls-7" d="m202.41,58.72c-.74-1.35-9.34,4.97-31.86,10.71-26.35,6.72-44.57,5.73-44.79,9.03-.15,2.25,8.17,5.34,16.03,6.41,31.8,4.35,62.06-23.53,60.62-26.15Z"/>
      <path class="cls-7" d="m161.37,64.46c-22.53,5.16-36.97,4.08-37.12,6.55-.15,2.32,12.41,6.59,25.25,6.29,27.15-.63,48.22-21.5,46.88-23.92-.89-1.61-11.29,5.64-35.01,11.08Z"/>
      <path class="cls-7" d="m177.98,48.52c-13.55,3.08-18.24,3.6-35.17,6.96-28.98,5.74-30.3,7.2-30.27,7.98.08,2.1,10.22,3.28,11.54,3.43,33.23,3.74,66.64-18.87,65.68-21.02-.14-.35-1.03.2-11.78,2.65Z"/>
      <path class="cls-7" d="m165.98,54.52c-13.55,3.08-18.24,3.6-35.17,6.96-28.98,5.74-30.3,7.2-30.27,7.98.08,2.1,10.22,3.28,11.54,3.43,33.23,3.74,66.64-18.87,65.68-21.02-.14-.35-1.03.2-11.78,2.65Z"/>
      <path class="cls-7" d="m160.98,62.52c-13.55,3.08-18.24,3.6-35.17,6.96-28.98,5.74-30.3,7.2-30.27,7.98.08,2.1,10.22,3.28,11.54,3.43,33.23,3.74,66.64-18.87,65.68-21.02-.14-.35-1.03.2-11.78,2.65Z"/>
      <path class="cls-7" d="m153.98,70.52c-13.55,3.08-18.24,3.6-35.17,6.96-28.98,5.74-30.3,7.2-30.27,7.98.08,2.1,10.22,3.28,11.54,3.43,33.23,3.74,66.64-18.87,65.68-21.02-.14-.35-1.03.2-11.78,2.65Z"/>
      <path class="cls-7" d="m165.98,81.52c-13.55,3.08-18.24,3.6-35.17,6.96-28.98,5.74-30.3,7.2-30.27,7.98.08,2.1,10.22,3.28,11.54,3.43,33.23,3.74,66.64-18.87,65.68-21.02-.14-.35-1.03.2-11.78,2.65Z"/>
      <path class="cls-7" d="m172.98,86.52c-13.55,3.08-18.24,3.6-35.17,6.96-28.98,5.74-30.3,7.2-30.27,7.98.08,2.1,10.22,3.28,11.54,3.43,33.23,3.74,66.64-18.87,65.68-21.02-.14-.35-1.03.2-11.78,2.65Z"/>
      <path class="cls-7" d="m130.14,47.72c-22.54,2.95-25.72,4.58-25.74,5.86-.04,2.04,7.91,3.89,12.32,4.62,6.1,1,15.88,1.54,45.57-7.85,10.47-3.31,15.71-4.99,15.54-5.95-.49-2.86-38.41,2.1-47.69,3.32Z"/>
      <path class="cls-7" d="m373.66,57.32c5.71,3.01,13.02,7.81,24.21,19.67,2.34,2.48,19,20.14,17.35,21.89-1.39,1.48-16.08-11.01-45.46-35.98-4.63-3.94-10.53-9-9.73-10.25.82-1.3,8.52,1.98,13.63,4.67Z"/>
      <path class="cls-7" d="m354.14,63.29c-.46.85,5.05,3.79,18.81,14.89,7.07,5.7,12.25,10.27,17.06,14.52,18.11,15.99,22.89,22.17,23.84,21.42,1.51-1.18-6.87-19.3-23.22-33.16-16.4-13.92-35.68-19.18-36.49-17.67Z"/>
      <path class="cls-7" d="m349.04,65.88c-.86,1.17,7,6.32,20.16,21.56,6.93,8.04,9.79,12.45,17.72,20.14,5.54,5.38,13.54,13.14,15.86,11.53,2.06-1.42-.96-9.77-4.08-15.47-4.44-8.1-10.31-13.06-17.21-18.21-12.38-9.22-31.13-21.36-32.45-19.55Z"/>
      <path class="cls-7" d="m339.92,65.8c-.83,1.01,6.56,5.42,15.97,19.78,4.11,6.27,7.24,12.37,14.03,20.29.14.17,2.78,3.22,6.78,6.9,4.23,3.88,9.62,8.84,11.16,7.81,1.75-1.17-1.88-9.82-4.26-14.59-13.28-26.66-42.07-42.15-43.68-40.19Z"/>
      <path class="cls-7" d="m325.95,58.32c-.39.42,3.23,3.45,9.37,12,4.1,5.72,6.68,10.23,11.59,18.86,6.46,11.37,7.14,13.65,11.41,19.74,2.52,3.59,9.32,13.29,11.12,12.37,2.13-1.1-2.25-17.44-10.78-31.48-12.65-20.8-31.87-32.39-32.71-31.49Z"/>
      <path class="cls-7" d="m313.05,50.14c-.89.71,2.36,6.29,6.38,13.21,3.7,6.36,6.02,9.17,9.69,14.81,3.15,4.84,5.44,9.1,10.02,17.62,10.31,19.18,12.68,26.08,13.81,25.72,1.58-.5.14-15.09-5.71-29.51-10.64-26.21-32.37-43.3-34.19-41.85Z"/>
      <path class="cls-7" d="m312.42,61.89c-.91.7,2.6,4.94,8.78,19.19,3.83,8.83,4.64,12.18,9.11,22,4.48,9.83,6.71,14.74,7.94,14.45,2.15-.52,2.44-15.36-3.09-28.96-6.87-16.93-21.11-27.93-22.74-26.68Z"/>
      <path class="cls-7" d="m305.94,58.59c-.99.6,2.04,5.2,6.61,20.04,2.83,9.2,3.27,12.62,6.63,22.87,3.36,10.26,5.05,15.39,6.3,15.24,2.19-.28,4.12-14.99.13-29.12-4.97-17.59-17.92-30.09-19.67-29.03Z"/>
      <path class="cls-7" d="m301.5,51.17c-1.13.35.68,5.7,1.39,21.65.44,9.89-.01,13.42.68,24.48.69,11.08,1.04,16.63,2.32,16.78,2.24.27,7.94-13.96,7.62-29.06-.39-18.78-10-34.48-12.01-33.85Z"/>
      <path class="cls-7" d="m286.4,43.87c-1.2.04-1.04,5.74-5.12,21.48-2.53,9.76-4.02,13.08-6.66,24.05-2.64,10.99-3.96,16.49-2.76,16.98,2.1.86,11.87-11.47,16.08-26.28,5.23-18.42.6-36.3-1.54-36.23Z"/>
      <path class="cls-7" d="m293.12,43.78c-1.18.23-.12,5.83-1.68,22.02-.96,10.03-1.91,13.55-2.79,24.8-.88,11.27-1.32,16.9-.06,17.2,2.21.52,9.92-13.19,11.75-28.48,2.26-19.01-5.12-35.94-7.22-35.54Z"/>
      <path class="cls-7" d="m280.07,50.56c-8.51,24.42-16.09,31.86-21.68,33.84-1.55.55-7.92,2.43-8.65,6.41-.25,1.38.2,2.87,1.02,3.87,3.14,3.83,12.23,1.19,14.55.3,15.3-5.84,14.83-41.27,14.76-44.42Z"/>
      <path class="cls-7" d="m275.55,45.97c-1.63-.75-4.48,12.34-18.25,21.76-12.9,8.83-26.22,8.18-26.41,12.75-.12,2.82,4.85,5.31,7.84,6.2,7.81,2.34,15.02-2.3,18.27-4.4,17.25-11.11,20.73-35.31,18.55-36.31Z"/>
      <path class="cls-7" d="m266.25,46.76c-1.47-.65-4.03,3.53-7.95,7.47-7.65,7.7-16.6,10.61-22.73,12.61-12.39,4.03-20.78,2.52-21.08,4.73-.26,1.91,5.73,4.94,11.52,6.06,16.73,3.22,36.64-8.61,40.35-22.63.75-2.84,1.32-7.6-.11-8.24Z"/>
      <path class="cls-7" d="m261.55,43.04c-1.92-1.89-10.01,6.21-23.6,12.43-18.88,8.64-35.03,7.55-34.98,10.05.03,1.69,7.42,2.99,12.07,3.43,1.69.16,29.49,2.39,42.57-15.77,2.4-3.34,5.32-8.78,3.94-10.14Z"/>
      <path class="cls-7" d="m254.73,40.7c-.66-1.2-8.35,4.44-28.49,9.58-23.56,6.01-39.85,5.13-40.05,8.08-.14,2.02,7.3,4.78,14.33,5.73,28.44,3.88,55.5-21.04,54.21-23.39Z"/>
      <path class="cls-7" d="m218.04,45.83c-20.15,4.62-33.05,3.65-33.19,5.86-.13,2.08,11.09,5.89,22.57,5.63,24.27-.56,43.11-19.23,41.92-21.39-.8-1.44-10.1,5.04-31.3,9.9Z"/>
      <path class="cls-7" d="m232.89,31.58c-12.12,2.76-16.31,3.22-31.44,6.22-25.91,5.13-27.09,6.44-27.07,7.14.07,1.88,9.13,2.94,10.32,3.07,29.71,3.34,59.58-16.87,58.73-18.79-.14-.32-.93.17-10.54,2.36Z"/>
      <path class="cls-7" d="m190.11,30.86c-20.16,2.64-22.99,4.1-23.02,5.24-.04,1.82,7.07,3.48,11.01,4.13,5.46.89,14.2,1.38,40.74-7.02,9.36-2.96,14.04-4.46,13.9-5.32-.43-2.55-34.33,1.89-42.63,2.97Z"/>
    </g>
    <g id="jambe">
      <path class="cls-4" d="m453.59,72.74c-7.18.65-14.34,14.87-11,25,2.59,7.85,10.68,10.74,22,16,20.02,9.29-9.77-1.84,44,25,72.15,36.01,75.93,31.17,92,43,5.47,4.03,14.65,7.68,33,15,2.08.83,6.67,2.6,8,1,.82-.99.06-2.86,0-3-1.22-2.89-5.15-3.78-6-4-32.37-8.25-60.63-28.08-91-42-35.08-16.08-52.62-24.13-66-42-12.92-17.27-16.77-34.74-25-34Z"/>
      <path class="cls-4" d="m450.36,60.55c-.18.13.31,1.76.1,1.92-.18.14,2.42,3.8,2.22,3.96-.18.14-1.21-.82-1.41-.66-.18.15-.18.47-.37.63-.18.15-.25.38-.44.54-.18.16-4.36-4.14-4.55-3.98-.18.16,4.03,5.06,3.85,5.23-.17.16-1.32-.74-1.49-.57-.17.17-2.68-2.03-2.86-1.86-.17.17,1.88,2.51,1.71,2.69-.17.17-2.78-1.97-2.95-1.79-.16.17,3.58,3.92,3.41,4.1-.16.18-4.85-3.66-5.01-3.48-.16.18,4.41,4.39,4.25,4.58-.15.18-1.67-.81-1.83-.62-.15.19-4.33-2.8-4.48-2.61-.15.19,4.28,3.89,4.13,4.09-.14.19-1.49-.53-1.63-.33s-2.87-1.41-3.01-1.21-.68.19-.81.39.7,1.09.57,1.29-.46.33-.58.54c-.12.21.75,1.04.63,1.25s-1.67-.34-1.78-.13c-.12.21,4.76,3.07,4.65,3.28s-6.03-2.49-6.14-2.27,3.09,2.04,2.99,2.26c-.1.22-2.74-.67-2.84-.45-.1.22,2.81,1.72,2.72,1.95-.09.22.16.55.07.78-.09.23-2.91-.53-2.99-.3s4.23,1.91,4.16,2.14-5.55-1.2-5.62-.96c-.07.23-.88.34-.94.57s5.44,1.89,5.38,2.12c-.06.24-4.02-.41-4.07-.18-.05.24,2.85,1.06,2.8,1.3-.04.24-4.49-.25-4.53-.01-.04.24,5.24,1.26,5.21,1.5-.03.24-5.71-.16-5.73.08-.03.24,1.28.68,1.26.92-.02.24-.91.5-.92.74s-.43.56-.44.8,1.06.57,1.06.82,4.38.42,4.39.66-2.35.56-2.34.8c.01.24-2.47.7-2.45.94.02.24,5.93-.08,5.95.16.03.24-6.17,1.24-6.14,1.48.03.24,2.55.17,2.59.41.04.24,2.58.03,2.62.27s-4.28,1.36-4.23,1.6c.05.24,2.99-.15,3.05.09s2.33-.12,2.39.11c.06.24-5.56,2.06-5.5,2.29.07.23,3.63-.56,3.7-.33s1.32.05,1.4.28,1.62-.11,1.7.11c.08.23-2.28,1.34-2.19,1.57s.47.32.56.54,1.54-.17,1.64.05c.1.22,1.01.01,1.11.23s-5.55,3.19-5.45,3.41c.11.22.48.36.59.58.11.22,1,.07,1.11.29.12.21,3.29-1.25,3.41-1.04s-3.56,2.62-3.44,2.83,1.47-.27,1.6-.06.59.23.72.44c.13.21,3.51-1.7,3.64-1.49.13.2-1.63,1.65-1.5,1.85.14.2-2.25,2.17-2.11,2.36.14.2,5.12-3.06,5.26-2.87.14.2-4.19,3.67-4.04,3.87.15.2,3.09-1.72,3.24-1.53.15.19-3.26,3.18-3.11,3.37s5.07-3.44,5.22-3.25c.15.19-3.14,3.21-2.99,3.4.16.19,3.74-2.54,3.9-2.36.16.19-1.08,1.55-.92,1.73.16.18,1.18-.42,1.34-.24.16.18.69-.01.86.16.17.18-.19.8-.02.98.17.18-2.48,3.03-2.32,3.21.17.18.47.25.64.43.17.18.76-.04.93.13s-1.08,1.82-.9,1.99c.18.17,1.81-1.14,1.99-.98.18.17,2.28-1.7,2.46-1.53s1.31-.72,1.48-.56c.18.17.25.41.42.57.18.17.64-.01.81.14.19.17-1.2,2.07-1.02,2.22.19.16-2.34,3.41-2.16,3.57.19.16,4.19-4.09,4.37-3.94.19.16-3.63,4.98-3.46,5.13.19.16.96-.37,1.14-.22.19.16,4.08-4.1,4.27-3.95.19.16-3.05,4.53-2.86,4.68s1.93-1.67,2.13-1.52c.19.14,1.53-1.32,1.73-1.18.19.14-.5,1.49-.3,1.63.2.13-1.86,3.71-1.64,3.85.2.13.64-.02.86.12.2.12,3.18-4.27,3.39-4.14.2.12.76-.41.98-.28.2.12-.74,2.19-.52,2.32.2.12-1.62,3.85-1.4,3.97.21.12,3.31-4.95,3.53-4.83.21.11-.12,1.2.1,1.32.21.11-.45,1.84-.23,1.96.21.11-.66,2.27-.44,2.39.21.11,1.38-1.55,1.6-1.43.21.11-.23,1.47-.01,1.59.21.11,2.35-3.43,2.57-3.32.21.11.98-.85,1.21-.73.21.11-1.11,3.16-.89,3.27.21.11-.15,1.34.07,1.45.21.11,1.05-.97,1.27-.86.21.11,1.17-1.22,1.39-1.1.21.11.12.83.34.94s.74-.38.97-.27c.22.11-.38,1.8-.16,1.92.21.11-.8,2.62-.58,2.74.21.11.4.28.62.4.22.11,1.24-1.35,1.46-1.24s1.92-2.69,2.14-2.57c.22.11-1.09,3.22-.87,3.33.22.11-.24,1.55-.01,1.66.22.11.86-.6,1.08-.48.22.11,1.79-2.43,2.01-2.32.22.11-.11,1.3.11,1.41.22.11-.16,1.41.05,1.52.22.11.91-.7,1.12-.59.22.11.68-.25.9-.14.22.11-.59,2.24-.37,2.35s2.28-3.42,2.5-3.3c.22.11.46.19.67.3.22.11-1.42,3.9-1.21,4.01.22.11,1.1-1.08,1.32-.97.22.11-.01,1.11.21,1.21.22.11-.19,1.46.03,1.57s1.87-2.61,2.09-2.5c.22.11.86-.62,1.08-.51.22.11,1.17-1.24,1.39-1.13.22.11-1.95,4.96-1.73,5.07s.78-.45,1-.34c.22.11,1.65-2.18,1.86-2.07.22.11.04,1.01.26,1.12.22.11.47.16.69.27.22.11,1.66-2.2,1.87-2.1.22.11-1.86,4.79-1.64,4.9s2.23-3.34,2.44-3.24c.22.11-.06,1.21.16,1.31.22.11-1.07,3.23-.86,3.34.22.11,2.26-3.42,2.48-3.31.22.11-.63,2.35-.41,2.46.22.11-.35,1.81-.14,1.91.22.11.96-.83,1.18-.73.22.11,2.51-3.93,2.72-3.82.22.11.6-.1.81,0,.22.11-.79,2.69-.57,2.8s1.5-1.89,1.71-1.79c.22.11-1.32,3.77-1.11,3.88.22.11-.27,1.66-.06,1.77.22.11,2.01-2.94,2.22-2.83.22.11.76-.41.97-.31.22.11-1.51,4.16-1.3,4.27.22.11,1.54-1.99,1.75-1.88.22.11,1.42-1.76,1.64-1.66.22.11.37.35.59.46.22.11-1.2,3.52-.98,3.62.22.11,2.52-3.98,2.73-3.87.22.11.02,1.06.24,1.16.22.11-1.04,3.19-.82,3.29.22.11,2-2.91,2.21-2.8.22.11.84-.57,1.05-.46.22.11.56,0,.77.1.22.11-.83,2.76-.62,2.86.22.11-.15,1.38.06,1.49.22.11,1.51-1.89,1.72-1.79.22.11.31.48.52.59.22.11-1.39,3.75-1.18,3.86.22.11,1.52-1.86,1.73-1.75.22.12-1.08,3.04-.87,3.15.22.12,1.31-1.44,1.52-1.32.22.12,1.36-1.47,1.57-1.36.21.12-.98,2.73-.77,2.84.21.12,2.52-3.44,2.73-3.32.21.12.4.28.61.4.21.12-1.63,3.68-1.42,3.8s3.41-4.7,3.62-4.57c.2.12-2.56,5.11-2.35,5.24s1.52-1.54,1.73-1.42c.21.13-.41,1.56-.21,1.69.21.13-.08,1.01.12,1.14.21.13,2.89-3.58,3.09-3.45.21.13-1.18,2.69-.98,2.83.2.13,1.78-1.79,1.98-1.66.2.14.19.6.39.74.2.14-1.77,3.44-1.58,3.57.2.14,1.45-1.26,1.65-1.12s.35.33.54.47c.2.14.04.75.24.89s1.55-1.3,1.74-1.16c.2.15-1.69,3.05-1.5,3.19.2.15,1.33-.97,1.52-.82.2.15.38.29.57.44s2.45-2.28,2.63-2.13c.19.15-1.45,2.56-1.26,2.71.19.16,2.96-2.78,3.15-2.63.19.16-3.74,5.14-3.56,5.3.19.16,3.02-2.75,3.2-2.59s-.21.97-.03,1.13.01.71.18.87c.18.17.7-.04.87.12.18.17,2.81-2.21,2.98-2.05.18.17-4.51,5.32-4.34,5.48.17.17,1.88-1.23,2.05-1.06s1.93-1.23,2.1-1.05c.17.17.45.25.62.42.17.18-.23.89-.06,1.07s1.22-.48,1.39-.31c.17.18,1.42-.65,1.58-.48.16.18.04.63.21.8.16.18.7,0,.87.18.16.18.11.55.27.73.16.17-1.43,1.98-1.26,2.16.16.17,1.66-.92,1.83-.74.16.17.83-.15.99.02.16.17.51.14.67.31.17.17.43.2.6.38.17.17-1.15,1.79-.98,1.96.17.17.26.4.43.57.17.16-2.25,3.05-2.08,3.22.17.16.48.23.65.4.17.16,1.2-.58,1.38-.41.18.16.9-.27,1.08-.11s.62.02.8.18-.54,1.38-.35,1.54c.18.15.9-.31,1.09-.15.18.15,1.66-1.28,1.85-1.13s-.35,1.2-.16,1.35-.68,1.66-.48,1.81c.19.14,3.09-3.28,3.29-3.13.19.14-.31,1.17-.11,1.32.19.14-.77,1.85-.57,1.99.19.14.88-.4,1.08-.26.19.14,1.76-1.69,1.96-1.55s-.79,1.96-.59,2.1c.2.14-2.25,4.18-2.05,4.32s1.05-.65,1.25-.52,2.75-3.29,2.96-3.15c.2.13,1.32-1.18,1.53-1.05.2.13-1.16,2.69-.95,2.82.21.13.09.77.29.9.21.13,1.62-1.71,1.83-1.59.21.13-.61,1.93-.41,2.05.21.13,1.87-2.21,2.08-2.09s-2.31,4.87-2.1,5c.21.12-.07,1.13.14,1.25s2.25-2.95,2.46-2.83c.21.12-.38,1.68-.17,1.8s.98-.75,1.19-.64c.21.12,1.21-1.22,1.42-1.1.21.12-1.32,3.51-1.11,3.62s-.12,1.31.1,1.42c.22.11,1.09-1,1.3-.89.22.11,1-.88,1.22-.77.22.11.06.97.28,1.08.22.11.39.34.61.44.22.11.15.83.37.93.22.11,1.45-1.89,1.67-1.78.22.1,1.41-1.87,1.63-1.77.22.1-.55,2.34-.33,2.44s.78-.54,1-.44.22.7.44.8c.22.1-.11,1.47.11,1.57s.84-.7,1.06-.61c.22.1.29.57.52.66.22.09,1.58-2.56,1.81-2.47s-.25,1.88-.03,1.97c.23.09-.98,3.79-.76,3.88.23.09,1.71-2.98,1.93-2.89.23.09,1.27-1.97,1.5-1.88s-.29,2.12-.06,2.21,1.33-2.21,1.56-2.13.15.97.38,1.06c.23.08-.1,1.71.13,1.79.23.08.26.74.49.82.23.08.53-.04.76.04.23.08.31.6.54.68s.58-.21.81-.13.96-1.41,1.2-1.34c.23.07-.58,3.46-.35,3.53.23.07,2.08-5.09,2.31-5.01.23.07-.48,3.23-.25,3.3.23.07-.29,2.71-.06,2.78s2.11-5.54,2.34-5.48c.23.07-.12,2.15.12,2.21.24.07-.53,3.79-.3,3.85.24.06.37.55.61.61s1.06-2.08,1.29-2.02c.24.06.8-1.17,1.04-1.12.24.06-.02,2.11.22,2.17.24.06.14,1.56.38,1.62s1.58-4.61,1.81-4.55c.24.05-.44,4.17-.21,4.22.24.05.88-1.69,1.11-1.64.24.05-.12,2.97.12,3.02.24.05,1.64-5.58,1.88-5.53s.32.8.56.85c.24.05-.26,3.97-.02,4.01s1.04-3,1.28-2.95c.24.04.61-.71.84-.67.24.04-.14,3.82.1,3.86.24.04,1.13-4.07,1.37-4.04.24.04.31,1.15.54,1.19.24.04-.07,4.04.17,4.07s.43.66.67.69.6-.65.84-.62c.24.03.64-1.13.88-1.1s.61-1.03.84-1.01c.24.02.42.81.66.83s.39,1.36.63,1.38.76-3.62,1-3.6c.25.02.32,2.74.56,2.75.25.01.55-.88.79-.87.25.01.63-4.09.87-4.09.25.01.33,6,.57,6.01.25,0,.54-4.28.78-4.28s.49,2.08.72,2.08c.25,0,.56,2.55.8,2.54.25-.01.45-1.92.69-1.93.25-.01.62,1.75.86,1.73.25-.02.29-2.92.53-2.94.24-.02.26-2.02.49-2.05.24-.03.75,2.27.98,2.23.24-.03.69,1.09.92,1.05.24-.04.83,1.35,1.06,1.3.24-.05-.79-5.61-.56-5.67.24-.06.53.56.76.49.24-.07.9,1.38,1.12,1.3.24-.09-.23-1.54-.02-1.63.23-.11,2,2.77,2.19,2.65.22-.13.67-.25.84-.4.19-.16-.18-1.15-.03-1.32.16-.19-1.17-1.2-1.07-1.42s-1-.31-.96-.55c.04-.23-.52.06-.53-.19-.01-.23,5.34-1.23,5.29-1.48-.05-.22-5.08.97-5.16.73-.08-.22,3.25-1.75,3.14-1.98-.1-.21.48-.88.36-1.1-.11-.21-2.99,1.12-3.11.91-.12-.2-1.31.35-1.45.15-.13-.2,2.7-2.39,2.56-2.59-.14-.19-3.16,1.74-3.31,1.54-.14-.19.83-1.18.67-1.37-.15-.19,2.98-3.04,2.82-3.23-.15-.18-3.48,2.27-3.64,2.09-.15-.18,1.19-1.66,1.03-1.85-.16-.18,1.43-1.96,1.26-2.14-.16-.18-1.52.71-1.69.53-.16-.17-3.65,2.79-3.82,2.61-.16-.17,1.14-1.73.97-1.91-.17-.17-2.11,1.44-2.29,1.26-.17-.17,3.79-4.47,3.61-4.64-.17-.17-2.28,1.62-2.45,1.45-.17-.17.63-1.35.45-1.51-.17-.17-2.89,2.35-3.07,2.18-.17-.16,3.44-4.36,3.26-4.52s-.66-.02-.84-.19c-.18-.16-1.93,1.37-2.1,1.21-.18-.16-2.55,2.11-2.73,1.95-.18-.16-.24-.42-.42-.58-.18-.16,3.85-5.05,3.67-5.21s-2.4,1.98-2.58,1.82.9-1.77.72-1.93c-.18-.16-3.76,3.6-3.94,3.44s3.61-4.92,3.42-5.08c-.18-.16-3.58,3.44-3.76,3.28s1.96-3.05,1.78-3.21.27-1.08.08-1.23c-.18-.15-2.68,2.44-2.87,2.28-.18-.15-2,1.66-2.19,1.5-.19-.15-.11-.61-.3-.77-.18-.15.87-1.8.68-1.95-.19-.15.35-1.19.17-1.34-.19-.15-1.32.85-1.51.7s-1.16.67-1.35.51c-.19-.15,1.18-2.22.99-2.37s-1.31.86-1.5.71.53-1.42.34-1.57-.09-.66-.28-.81-1.03.51-1.22.36c-.19-.15.63-1.57.44-1.72s-.53-.12-.72-.27c-.19-.15-2.84,2.82-3.03,2.67s3.86-5.68,3.67-5.83-3.85,4.1-4.04,3.95.05-.85-.14-1,2.05-3.41,1.86-3.56-2.99,3.04-3.18,2.89-.35-.34-.54-.49,2.72-4.29,2.53-4.44c-.19-.15-3.14,3.25-3.34,3.1-.19-.15-1.17.71-1.36.57-.19-.15-.61-.01-.8-.16s.83-1.86.63-2.01c-.19-.15,1.88-3.23,1.69-3.38s-3.77,4.08-3.96,3.94c-.19-.15-.82.27-1.01.12s.25-1.11.06-1.26c-.19-.15,2.47-4,2.28-4.15-.19-.15-3.81,4.16-4,4.01s3.72-5.62,3.53-5.77-3.58,3.86-3.77,3.71c-.2-.16-.78.2-.97.05-.2-.15,2.48-4.08,2.29-4.22-.2-.15-.14-.66-.33-.81-.2-.15-2.68,2.72-2.87,2.58-.2-.15-1.2.79-1.4.65-.2-.15.57-1.6.38-1.74-.21-.15,1.72-3.22,1.53-3.36-.21-.15-3.63,4.18-3.83,4.04-.21-.15,1-2.26.8-2.39-.21-.15-1.43,1.18-1.62,1.04-.21-.14.6-1.73.4-1.87-.21-.14.33-1.37.13-1.51s-1.12.78-1.32.64c-.2-.14-1.84,1.88-2.05,1.74-.2-.13,1.25-2.74,1.04-2.88-.2-.13,1.36-2.89,1.15-3.03-.2-.13-3.42,4.22-3.63,4.08-.2-.13,1.14-2.54.93-2.68-.2-.13.11-1.01-.09-1.15-.2-.13-1.01.63-1.22.49-.19-.13-2.23,2.36-2.44,2.22-.19-.14,1-2.27.79-2.42-.19-.14,1.49-2.94,1.29-3.09-.19-.14-3.21,3.69-3.42,3.55-.19-.14,2.33-4.09,2.12-4.24-.19-.14-.77.25-.97.1-.19-.14.11-.98-.09-1.13-.19-.14-3.03,3.35-3.23,3.21-.19-.14-1.63,1.41-1.83,1.26-.19-.14.43-1.41.23-1.56-.19-.14,1.79-3.27,1.59-3.41-.2-.14-.56-.06-.76-.21-.19-.14-3.26,3.6-3.47,3.45-.2-.14.93-2.09.73-2.24s-1.56,1.27-1.77,1.12c-.2-.15,2.94-4.77,2.75-4.91-.2-.15-3.4,3.73-3.59,3.59-.2-.15,1.54-2.87,1.34-3.01-.2-.15.29-1.19.09-1.34-.2-.15.13-.98-.06-1.13-.2-.15-2.54,2.55-2.73,2.4-.2-.15-1.17.73-1.36.59-.2-.15,1.13-2.3.94-2.45-.2-.15,1.56-2.85,1.37-2.99-.19-.15-2.17,2.05-2.36,1.9s-2.09,1.92-2.28,1.77c-.19-.15,2.69-4.3,2.5-4.45-.19-.15-1.46,1.1-1.65.95s0-.79-.19-.93c-.19-.15-.07-.69-.26-.84s-2.04,1.82-2.23,1.67-.8.23-.99.08c-.19-.15,2.04-3.38,1.85-3.52-.19-.15-1.05.55-1.24.4s-1.22.76-1.4.61c-.19-.15-.28-.43-.46-.58-.19-.15,1.17-2.24.99-2.39-.19-.15-1.57,1.19-1.76,1.04s.74-1.68.55-1.83-.01-.75-.19-.9c-.19-.15-1.31.85-1.49.7-.19-.15-.93.38-1.11.23-.19-.16-2.43,2.19-2.62,2.03s3.33-4.81,3.15-4.96c-.19-.16-4.38,4.52-4.56,4.36-.19-.16,2.68-3.98,2.49-4.14s-3.59,3.53-3.78,3.37-.06-.7-.24-.85c-.19-.16-.05-.7-.23-.86-.19-.16,1.24-2.21,1.05-2.37s-.48-.19-.66-.34c-.19-.16-1.56,1.07-1.74.92-.19-.16,2.19-3.29,2.01-3.45-.19-.16-2.54,2.2-2.72,2.05-.19-.16.06-.82-.12-.97-.18-.16,1.51-2.48,1.33-2.64-.19-.16-4.22,4.12-4.41,3.97-.19-.16,3.1-4.32,2.92-4.48-.19-.16.66-1.51.48-1.67-.19-.16-1.79,1.32-1.97,1.16-.19-.16.6-1.46.42-1.61-.19-.16-.45-.24-.63-.39-.19-.16-2.84,2.61-3.03,2.46-.19-.16-1.28.79-1.46.64-.19-.15,1.66-2.76,1.47-2.92-.19-.15-1.5,1.09-1.68.94-.19-.15-.12-.61-.31-.76-.19-.15-1.16.74-1.35.59s-.83.35-1.02.21.68-1.68.48-1.82c-.19-.14-1.85,1.8-2.04,1.66-.19-.14,1.57-3.02,1.37-3.16-.19-.13-1.78,1.79-1.98,1.66-.2-.13.4-1.42.2-1.56-.2-.13-.45-.16-.65-.29s-.22-.52-.43-.64c-.2-.12-1.29,1.22-1.49,1.09-.2-.12.71-2.06.51-2.18s1.62-3.67,1.41-3.79c-.2-.12-1.04.8-1.25.67-.2-.12-2.11,2.71-2.32,2.59s.93-2.63.72-2.75-1.09.96-1.3.84c-.22-.12-.08-.9-.29-1.01-.22-.12-.19-.7-.4-.82-.22-.12-2.1,2.9-2.32,2.79-.22-.12,1.72-4.33,1.5-4.44-.22-.12-1.08,1-1.3.89s-1.57,1.98-1.78,1.87c-.22-.11-.39-.3-.61-.41-.22-.11-1.34,1.61-1.56,1.5s-.26-.56-.48-.66c-.22-.11.75-2.63.53-2.74s-1.2,1.36-1.42,1.25.28-1.7.06-1.8c-.23-.11-1.74,2.49-1.96,2.39-.23-.11,2.54-6.45,2.32-6.56s-1.78,2.58-2,2.48c-.22-.11-.92.77-1.14.67-.22-.11.42-1.98.2-2.09s.23-1.54.01-1.64c-.22-.11-.07-.87-.29-.98-.22-.11-2.73,4.21-2.94,4.09-.22-.11-.9.58-1.11.47-.22-.12,1.9-4.38,1.69-4.5s-3.32,4.66-3.53,4.53,1.01-2.64.8-2.77c-.21-.13-.42-.27-.62-.41s.87-2.06.67-2.21c-.2-.14-.78.31-.97.16-.19-.15-.9.38-1.09.22-.19-.15-1.92,1.45-2.1,1.28-.18-.16,3.01-4,2.83-4.17-.17-.16-4.64,4.06-4.81,3.89-.17-.17.28-1.06.11-1.24-.16-.18,1.38-1.95,1.22-2.14-.16-.18,1.41-1.81,1.26-2-.15-.18-3.35,2.1-3.51,1.91-.15-.19-1.39.39-1.54.19-.15-.2,2.94-2.8,2.8-2.99-.15-.2-2.08.83-2.21.63-.14-.21,3.06-2.56,2.94-2.76-.13-.21-2.86,1.2-2.98,1-.13-.22-1.97.49-2.09.28-.12-.22-.44-.42-.55-.64s.72-.96.62-1.18.61-.83.52-1.06c-.09-.22,2.63-1.56,2.54-1.79s-3.89.97-3.97.73c-.08-.23-.5-.36-.58-.59s3.05-1.58,2.97-1.82c-.08-.23.35-.63.27-.86-.08-.23-1.27-.07-1.35-.31-.08-.23.53-.7.45-.94-.08-.22-1.25-.07-1.34-.31-.08-.22-1.96.21-2.05-.03-.08-.22-1.4.03-1.48-.2-.08-.22.43-.66.34-.89-.09-.22-.51-.29-.6-.53-.09-.22.82-.84.73-1.07-.09-.22,2.87-1.73,2.77-1.96-.09-.22-4.81,1.54-4.91,1.31-.1-.22,1.81-1.3,1.71-1.53-.1-.22,1.98-1.42,1.88-1.65-.1-.22,1.3-1.15,1.19-1.38-.1-.22-4.48,1.56-4.59,1.34-.1-.22.05-.55-.06-.77s4.03-2.53,3.92-2.75c-.11-.22-5.84,2.36-5.95,2.13-.11-.22,1.27-1.18,1.16-1.4-.11-.22-.07-.51-.18-.73s-2.27.6-2.38.38,3.74-2.43,3.63-2.65-2.76.85-2.87.64c-.11-.22-1.53.24-1.64.03-.11-.22,4.58-2.9,4.47-3.11-.11-.22-.12-.5-.23-.71-.11-.22.03-.58-.08-.79-.11-.22-.33-.39-.44-.61-.12-.22-2.66.86-2.78.64-.12-.22-1.14.06-1.26-.15-.12-.22,4-2.77,3.88-2.98-.12-.22-1.22.09-1.34-.12-.12-.21-.03-.57-.15-.78s-.58-.26-.7-.47c-.13-.21.69-1.03.57-1.23-.13-.21-3.4,1.5-3.52,1.3-.13-.21-2.42.99-2.55.79-.13-.21,4.14-3.32,4.01-3.52-.14-.2.57-1.05.44-1.25-.14-.2-3.29,1.71-3.43,1.52-.14-.2.22-.78.08-.97-.15-.19-2.81,1.62-2.96,1.43s2.14-2.36,1.98-2.54c-.16-.19-3.17,2.19-3.34,2.01-.16-.18,3.22-3.61,3.05-3.78-.17-.18-3.32,2.63-3.49,2.46s3.66-4.58,3.48-4.74-3.89,3.66-4.07,3.51c-.18-.16,1.83-2.97,1.64-3.12s-.47-.25-.66-.39c-.2-.14-1.14.77-1.34.63-.2-.13.83-2.25.62-2.38-.2-.13-2.93,4.07-3.14,3.96-.21-.12.82-2.42.6-2.53-.21-.11,1.18-3.67.96-3.77-.19-.09-.51-.31-.76-.42-.2-.08-2.33,4.58-2.58,4.49-.21-.08-.07-1.11-.31-1.19-.22-.07.44-3.2.19-3.27-.22-.06-1.8,4.95-2.05,4.89-.23-.06.49-4.24.24-4.29-.23-.05-.79,1.42-1.03,1.38-.23-.04-.84,2.51-1.09,2.48-.24-.03-.01-3.61-.26-3.63-.24-.03-.46-.73-.71-.75-.24-.02-.76,4.71-1.01,4.69-.24-.01-.35-2.2-.6-2.21-.24,0-.46-.82-.71-.82s-.56-2.12-.81-2.11c-.24.01-.39,2.37-.64,2.39-.24.01-.35,1.34-.6,1.36-.24.02-.8-3.14-1.04-3.11-.24.03-.06,3.35-.31,3.39-.24.03-1.04-3.68-1.29-3.65-.24.04.28,4.4.03,4.44-.24.04-1.36-4.41-1.6-4.36-.24.05.01,2.43-.23,2.49-.24.05-.72-.88-.96-.82-.23.06.42,3.44.18,3.51-.23.06-.69-.82-.93-.75-.23.07-1.07-1.87-1.31-1.8-.23.07-.49.09-.73.17-.23.08-1.24-2-1.48-1.92-.23.08,1.02,4.22.79,4.31-.23.09.36,2.18.13,2.27-.18.17-2.95-5.25-3.18-5.15Z"/>
    </g>
    <g id="tete">
      <path class="cls-6" d="m51.59,53.74c-.41.97-2.15,5.38,0,9,.92,1.55,2.44,2.77,6,4,4.05,1.4,11.31,3.92,20,1,3.24-1.09,14.01-4.7,15-13,.77-6.43-4.7-12.67-10-15-8.96-3.94-22.12,1.24-31,14Z"/>
      <path class="cls-4" d="m3.59,56.74c-.11.18-2.72,4.54-1,7,.98,1.4,3.1,1.82,4,2,2.04.41,3.69.06,4,0,3.12-.63,5,.14,18,0,17.12-.19,13.87-1.53,22-1,4.77.31,7.52.88,10-1,3.09-2.34,4.84-7.78,3-11-2.49-4.37-9.9-1.7-34-1-14.25.41-22.81-.2-26,5Z"/>
      <path class="cls-7" d="m40.59,35.74c-4,.44-8.27,2-11,3-7.32,2.68-7.09,4.03-16,8-7.02,3.13-9.95,3.54-12,7-1.53,2.6-2.13,6.18-1,7,.39.29.79.08,3,0,1.24-.05,1.54,0,3,0,23.53,0,35-1,35-1,16.66-1.45,27.92-2.43,29-7,1.44-6.13-15.45-18.61-30-17Z"/>
      <path class="cls-6" d="m84.59,30.74c-3.89-7.46-12.53-14.12-21-13-3.15.42-10.02,2.4-13,7-.67,1.03-2.06,3.61-5,5-.99.47-1.27.38-3,1-1.32.47-4.71,1.68-6,3-2.57,2.62-.7,9.56,2,14,4.99,8.21,15.53,12.39,25,12,1.38-.06,18.66-1.01,23-13,2.6-7.18-.99-14.05-2-16Z"/>
    </g>
    <g>
      <circle class="cls-3" cx="61.09" cy="34.24" r="8"/>
      <circle class="cls-5" cx="61.09" cy="34.24" r="6"/>
      <circle cx="59.09" cy="34.24" r="4"/>
      <circle class="cls-2" cx="61.09" cy="34.24" r="2"/>
    </g>
  </g>
</svg>