<?xml version="1.0" encoding="UTF-8"?>
<svg id="Calque_2" data-name="Calque 2" xmlns="http://www.w3.org/2000/svg" viewBox="0 0 995.29 602.23">
  <defs>
    <style>
      .cls-1 {
        fill: #ffffea;
      }

      .cls-2 {
        fill: #fff;
      }

      .cls-3 {
        fill: #00296b;
      }

      .cls-4 {
        fill: #3f70c6;
      }

      .cls-5 {
        fill: #e294ff;
      }

      .cls-6 {
        fill: #2667ff;
      }

      .cls-7 {
        fill: #98e5c2;
      }

      .cls-8 {
        fill: #27187e;
      }

      .cls-9 {
        fill: #3fffc6;
      }

      .cls-10 {
        fill: #1565c0;
      }

      .cls-11 {
        fill: #0d47a1;
      }

      .cls-12 {
        fill: #1976d2;
      }

      .cls-13 {
        fill: #3b28cc;
      }
    </style>
  </defs>
  <g id="Calque_1-2" data-name="Calque 1">
    <path id="cuisse-droite" class="cls-8" d="m363.86,328.65c4.42-.11,7.78,3.21,9.96,5.36,5.83,5.77,7.4,12.75,8.43,17.63.95,4.51,2.69,12.74-.77,21.46-2.26,5.71-4.18,5.14-6.9,10.73-2.99,6.13-2.29,10.14-2.3,26.82,0,13.13-.01,19.69-.77,24.53-1.83,11.63-4.3,12.1-4.6,21.46-.12,3.71.3,2.57,1.53,19.93.45,6.35.66,10.2,0,15.33-.74,5.78-1.21,9.12-3.83,12.26-2.98,3.56-8.42,6.49-13.8,5.36-4.94-1.03-7.65-5.03-9.96-8.43-2.89-4.26-3.54-7.32-6.9-20.69-2.52-10.02-3.79-15.08-4.6-17.63-3.06-9.64-4.31-10.29-6.13-17.63-1.13-4.56-2.49-10.01-2.3-16.86.27-9.7,3.31-10.37,4.6-21.46,1.07-9.24-.95-9.58,0-20.69.39-4.54.99-11.13,3.83-19.16,3.52-9.95,8.48-16.5,9.96-18.39,1.35-1.72,5.5-5.49,13.8-13.03,5.73-5.19,7.74-6.82,10.75-6.9Z"/>
    <g id="pied-droit">
      <path id="pied-droit-2" data-name="pied-droit" class="cls-12" d="m352.1,486.53c-7.92-1.32-14.09,4.16-14.56,4.6-4.38,4.01-3.08,7.17-9.2,16.09-2.11,3.08-4,5.23-6.13,7.66-4.63,5.28-5.83,5.62-11.5,11.5-7.61,7.89-7.07,8.95-9.96,9.96-4.99,1.75-12.01.47-14.56,0-2.91-.53-5.27-1.28-7.66,0-2.07,1.11-3.63,3.47-3.07,4.6.67,1.33,3.9.22,4.6,1.53.58,1.09-1.1,2.88-3.07,5.36-3.81,4.82-7.18,9.1-6.13,11.5.65,1.49,2.81,1.81,6.13,2.3,3.03.45,7.31,1.09,11.5-.77,6.79-3.01,6.69-9.64,11.5-9.96,2.75-.18,5.73,1.79,6.13,3.83.28,1.42-1.09,3.27-3.83,6.9-2.49,3.29-3.3,3.83-3.07,4.6.63,2.08,7.6,1.73,11.5,1.53,3.26-.17,7.97-.64,14.56-2.3,7.06-1.78,10.58-2.67,12.26-4.6,2.76-3.16,2.86-7.47,3.07-16.09.14-5.94-.53-6.01,0-9.2.88-5.27,3.36-8.83,6.9-13.8,2.61-3.66,3.73-4.55,11.5-13.8,5.38-6.4,6.09-7.46,6.13-9.2.14-5.43-6.37-11.13-13.04-12.24Z"/>
      <path class="cls-7" d="m277.8,552.33c1.01-.33,3.02-.99,4.63.07,1.67,1.1,2.07,3.49,1.76,5.18-.38,2.08-1.77,2.81-5.07,5.78-5.47,4.92-6.6,7.37-8.05,6.87-1.67-.57-1.74-4.32-1.76-5.18-.07-3.98,2.06-6.84,3.18-8.34,1.18-1.59,2.67-3.52,5.31-4.38Z"/>
      <path class="cls-7" d="m278.25,536.47c.56.05,1.67.16,2.22,1.01.58.89.26,2.13-.25,2.88-.62.92-1.45.98-3.67,1.72-3.69,1.22-4.75,2.17-5.35,1.62-.69-.63.07-2.46.25-2.88.81-1.94,2.45-2.87,3.31-3.36.9-.51,2.03-1.13,3.49-.99Z"/>
      <path class="cls-7" d="m310.16,566.18c.24-.99.71-2.96-.42-4.41-1.18-1.51-3.49-1.7-5.08-1.28-1.95.52-2.55,1.91-5.12,5.28-4.27,5.59-6.52,6.86-5.93,8.21.68,1.55,4.26,1.33,5.08,1.28,3.8-.24,6.37-2.49,7.71-3.68,1.41-1.24,3.14-2.81,3.76-5.4Z"/>
    </g>
    <path id="bras-droit" class="cls-10" d="m285.78,371.73c-8.21-5-24.09-8.65-34,1-10.59,10.31-5.32,27.02-5,28,.21.64,4.39,12.6,16,18,7.59,3.53,11.31.98,27,5,7.09,1.82,12.76,3.32,13,6,.27,2.94-6.21,4.86-17,12-8.13,5.38-6.65,5.94-12,9-5.83,3.34-9.66,4.2-11,8-.76,2.16-.66,5.11,1,7,1.72,1.96,4.41,1.98,7,2,5.91.05,10.25-2.54,11-3,4.79-2.94,5.96-6.26,9-10,3.79-4.67,5.72-4.11,24-14,13.25-7.16,15.83-9.4,17-13,1.38-4.26.44-9.36-2-13-2.93-4.37-6.39-4.22-21-11-9.23-4.28-10.95-5.78-12-8-2.14-4.52.63-7.54-1-13-1.79-5.99-7.19-9.29-10-11Z"/>
    <g id="main-droite">
      <path class="cls-12" d="m279.78,454.73c-5.78-.24-13.21,10.84-12,20,.41,3.12,1.39,2.74,3,9,1.28,4.97,2.29,8.91,2,14-.28,4.91-1.54,6.98,0,10,1.23,2.4,3.32,3.61,4,4,.93.52,3.86,2.18,6,1,.84-.47,1.18-1.17,2-3,3.42-7.7,3.22-8.51,3-9-.85-1.88-2.99-1.26-5-3-4.36-3.77-2.56-13.82-1-14,2.55-.29,5.06,25.95,11,26,2.12.02,4.38-3.32,5-6,.8-3.46-1.33-4.9-1-10,.24-3.71,1.43-3.98,1-6-1.15-5.37-10.3-6.82-10-8,.25-.99,7.28-1.87,12,2,5.63,4.62,4.2,12.9,6,13,1.95.11,6.35-9.47,3-17-1.77-3.97-5.25-6.39-9-9-4.11-2.86-4.91-2.3-9-5-7.65-5.05-7.66-8.86-11-9Z"/>
      <path class="cls-7" d="m278.02,505.83c-.08-.77-.24-2.32.77-3.32,1.05-1.03,2.83-.94,4-.45,1.43.6,1.74,1.71,3.36,4.54,2.68,4.7,4.26,5.89,3.67,6.86-.67,1.11-3.38.57-4,.45-2.87-.57-4.59-2.55-5.49-3.59-.95-1.09-2.11-2.46-2.31-4.49Z"/>
      <path class="cls-7" d="m289.02,501.83c-.08-.77-.24-2.32.77-3.32,1.05-1.03,2.83-.94,4-.45,1.43.6,1.74,1.71,3.36,4.54,2.68,4.7,4.26,5.89,3.67,6.86-.67,1.11-3.38.57-4,.45-2.87-.57-4.59-2.55-5.49-3.59-.95-1.09-2.11-2.46-2.31-4.49Z"/>
      <path class="cls-7" d="m309.47,488.91c-.17-.52-.5-1.56-1.43-1.91-.96-.37-2.08.2-2.69.84-.75.79-.64,1.59-.88,3.86-.4,3.77-1.08,4.98-.43,5.44.75.52,2.33-.58,2.69-.84,1.68-1.18,2.23-2.93,2.52-3.85.31-.97.66-2.17.22-3.54Z"/>
    </g>
    <g id="corps">
      <g>
        <path class="cls-6" d="m591.88,216.17c-14.54-39.96-86.79-47.6-120.59-51.18-22.68-2.4-65.81-6.6-115.85,12.7-66.55,25.67-119.74,82.94-136.16,148.54-4.98,19.91-8.02,32.06-3,46.46,20.55,58.84,151.71,86.07,236.44,38.48,22.96-12.89,37.17-28.85,61.91-56.62,45.1-50.62,91.18-100.11,77.25-138.38Z"/>
        <g>
          <ellipse class="cls-13" cx="307.49" cy="311.74" rx="6.07" ry="2.76" transform="translate(-64.54 542.65) rotate(-77.22)"/>
          <ellipse class="cls-13" cx="307.49" cy="311.74" rx="4.58" ry="2.08" transform="translate(-64.54 542.65) rotate(-77.22)"/>
          <ellipse class="cls-13" cx="336.67" cy="322.69" rx="6.98" ry="3.17" transform="translate(-52.51 579.64) rotate(-77.22)"/>
          <ellipse class="cls-13" cx="327.12" cy="322.04" rx="6.98" ry="3.17" transform="translate(-59.3 569.82) rotate(-77.22)"/>
          <ellipse class="cls-13" cx="318.42" cy="321.74" rx="6.98" ry="3.17" transform="translate(-8.9 634.42) rotate(-88.99)"/>
          <g>
            <path class="cls-13" d="m591.88,203.17c-12.09-33.22-65.14-41.91-120.59-51.18-46.33-7.74-70.67-.61-79,2.23-7.46,2.55-21.3,8.21-34,14-5.4,2.46-20.03,9.13-32,16-30,17.22-49.39,39.22-57,48-9.67,11.15-28.28,33.01-41,67-10.13,27.09-16.55,44.24-12,60.46,15.16,53.96,149.05,87.57,236.44,38.48,22.96-12.89,37.17-28.85,61.91-56.62,45.09-50.61,91.17-100.1,77.24-138.37Z"/>
            <path class="cls-13" d="m292.13,384.48c-18.19,7.46-36.38,14.91-54.58,22.37,0,0-11.69,4.2-38.73,11.89-15.21,4.33-22.66,6.04-32.07,4.6-10.09-1.55-17.75-6.01-22.49-9.39h0c-6.97-9.48-8.12-22.05-2.96-32.5,5.4-10.94,16.8-17.76,29.12-17.42,9.62-1.57,22.86-4.93,37.01-12.53,24.82-13.34,38.7-32.35,45.05-42.52,2.51-1.32,16.02-8.09,32.5-2.96,10.42,3.25,19.6,10.47,25.07,20.89h0c10.96,20.85,2.93,46.63-17.92,57.57Z"/>
          </g>
          <path class="cls-13" d="m455.53,233.86h0c-11.36-27.25,2.91-58.4,30.97-67.59,68.02-12.12,121.32-28.23,157.16-40.58,62.73-21.61,91.28-38.34,165.75-66,57.71-21.43,105.76-35.6,136.74-44.09.47-.15,1.19-.38,2.08-.63,1.16-.33,2.02-.52,2.11-.54,3.11-.73,43.44-16.61,44.88-14.18,1.97,3.32-39.08,29.24-39.08,29.24-56.27,35.54-84.4,53.31-148.46,84.37-166.1,80.53-193.86,155.47-281.95,145.39-31.86-3.65-56.31-16.67-70.2-25.39Z"/>
        </g>
      </g>
      <path class="cls-5" d="m225.38,326.15c1.45.82,4.35,2.46,7.16,1.33,2.92-1.17,4.27-4.74,4.31-7.44.06-3.32-1.86-4.89-6.02-10.48-6.9-9.28-7.88-13.4-10.29-13.08-2.76.37-4.02,6.13-4.31,7.44-1.35,6.11,1.06,11.18,2.32,13.84,1.33,2.8,3.02,6.24,6.83,8.39Z"/>
      <path class="cls-5" d="m236.38,302.15c1.45.82,4.35,2.46,7.16,1.33,2.92-1.17,4.27-4.74,4.31-7.44.06-3.32-1.86-4.89-6.02-10.48-6.9-9.28-7.88-13.4-10.29-13.08-2.76.37-4.02,6.13-4.31,7.44-1.35,6.11,1.06,11.18,2.32,13.84,1.33,2.8,3.02,6.24,6.83,8.39Z"/>
      <path class="cls-5" d="m250.38,280.15c1.45.82,4.35,2.46,7.16,1.33,2.92-1.17,4.27-4.74,4.31-7.44.06-3.32-1.86-4.89-6.02-10.48-6.9-9.28-7.88-13.4-10.29-13.08-2.76.37-4.02,6.13-4.31,7.44-1.35,6.11,1.06,11.18,2.32,13.84,1.33,2.8,3.02,6.24,6.83,8.39Z"/>
      <path class="cls-5" d="m264.02,262.13c1.43.86,4.29,2.57,7.12,1.51,2.95-1.1,4.39-4.63,4.5-7.33.14-3.32-1.74-4.93-5.75-10.63-6.66-9.45-7.54-13.6-9.95-13.34-2.76.3-4.18,6.02-4.5,7.33-1.5,6.08.78,11.21,1.97,13.9,1.26,2.83,2.86,6.31,6.61,8.56Z"/>
      <path class="cls-5" d="m279.92,246.12c1.42.87,4.27,2.6,7.11,1.56,2.96-1.08,4.42-4.6,4.56-7.3.17-3.32-1.7-4.94-5.67-10.67-6.59-9.5-7.44-13.65-9.85-13.41-2.77.28-4.22,5.99-4.56,7.3-1.55,6.06.69,11.21,1.87,13.91,1.23,2.84,2.8,6.34,6.54,8.61Z"/>
      <path class="cls-5" d="m293.54,233.08c1.4.9,4.19,2.71,7.07,1.75,2.98-1,4.54-4.48,4.75-7.17.26-3.31-1.57-4.99-5.38-10.82-6.33-9.68-7.07-13.85-9.48-13.68-2.77.2-4.38,5.87-4.75,7.17-1.71,6.02.39,11.23,1.49,13.96,1.15,2.88,2.63,6.42,6.3,8.79Z"/>
      <path class="cls-5" d="m306.81,216.98c1.35.98,4.05,2.93,6.96,2.12,3.03-.84,4.77-4.23,5.12-6.91.43-3.29-1.3-5.06-4.8-11.09-5.81-10-6.33-14.2-8.75-14.16-2.78.05-4.69,5.63-5.12,6.91-2.02,5.92-.2,11.23.75,14.02,1,2.93,2.29,6.54,5.84,9.11Z"/>
      <path class="cls-5" d="m318.81,203.98c1.35.98,4.05,2.93,6.96,2.12,3.03-.84,4.77-4.23,5.12-6.91.43-3.29-1.3-5.06-4.8-11.09-5.81-10-6.33-14.2-8.75-14.16-2.78.05-4.69,5.63-5.12,6.91-2.02,5.92-.2,11.23.75,14.02,1,2.93,2.29,6.54,5.84,9.11Z"/>
      <path class="cls-5" d="m334.81,192.98c1.35.98,4.05,2.93,6.96,2.12,3.03-.84,4.77-4.23,5.12-6.91.43-3.29-1.3-5.06-4.8-11.09-5.81-10-6.33-14.2-8.75-14.16-2.78.05-4.69,5.63-5.12,6.91-2.02,5.92-.2,11.23.75,14.02,1,2.93,2.29,6.54,5.84,9.11Z"/>
      <path class="cls-5" d="m349.81,181.98c1.35.98,4.05,2.93,6.96,2.12,3.03-.84,4.77-4.23,5.12-6.91.43-3.29-1.3-5.06-4.8-11.09-5.81-10-6.33-14.2-8.75-14.16-2.78.05-4.69,5.63-5.12,6.91-2.02,5.92-.2,11.23.75,14.02,1,2.93,2.29,6.54,5.84,9.11Z"/>
      <path class="cls-5" d="m365.81,171.98c1.35.98,4.05,2.93,6.96,2.12,3.03-.84,4.77-4.23,5.12-6.91.43-3.29-1.3-5.06-4.8-11.09-5.81-10-6.33-14.2-8.75-14.16-2.78.05-4.69,5.63-5.12,6.91-2.02,5.92-.2,11.23.75,14.02,1,2.93,2.29,6.54,5.84,9.11Z"/>
      <path class="cls-5" d="m381.41,165.66c1.24,1.11,3.73,3.33,6.71,2.82,3.1-.52,5.18-3.72,5.8-6.35.76-3.23-.78-5.17-3.65-11.52-4.76-10.54-4.84-14.78-7.26-14.98-2.77-.23-5.24,5.13-5.8,6.35-2.62,5.68-1.35,11.15-.68,14.02.7,3.03,1.61,6.75,4.88,9.66Z"/>
      <path class="cls-5" d="m399.41,159.66c1.24,1.11,3.73,3.33,6.71,2.82,3.1-.52,5.18-3.72,5.8-6.35.76-3.23-.78-5.17-3.65-11.52-4.76-10.54-4.84-14.78-7.26-14.98-2.77-.23-5.24,5.13-5.8,6.35-2.62,5.68-1.35,11.15-.68,14.02.7,3.03,1.61,6.75,4.88,9.66Z"/>
      <path class="cls-5" d="m415.42,154.94c1.06,1.28,3.18,3.85,6.21,3.8,3.15-.05,5.68-2.9,6.69-5.41,1.24-3.08.01-5.23-1.88-11.94-3.13-11.13-2.57-15.34-4.93-15.9-2.71-.64-5.95,4.28-6.69,5.41-3.44,5.23-3.01,10.82-2.78,13.76.24,3.1.59,6.92,3.38,10.28Z"/>
      <path class="cls-5" d="m432.42,154.94c1.06,1.28,3.18,3.85,6.21,3.8,3.15-.05,5.68-2.9,6.69-5.41,1.24-3.08.01-5.23-1.88-11.94-3.13-11.13-2.57-15.34-4.93-15.9-2.71-.64-5.95,4.28-6.69,5.41-3.44,5.23-3.01,10.82-2.78,13.76.24,3.1.59,6.92,3.38,10.28Z"/>
      <path class="cls-5" d="m449.42,154.94c1.06,1.28,3.18,3.85,6.21,3.8,3.15-.05,5.68-2.9,6.69-5.41,1.24-3.08.01-5.23-1.88-11.94-3.13-11.13-2.57-15.34-4.93-15.9-2.71-.64-5.95,4.28-6.69,5.41-3.44,5.23-3.01,10.82-2.78,13.76.24,3.1.59,6.92,3.38,10.28Z"/>
      <path class="cls-5" d="m466.42,156.94c1.06,1.28,3.18,3.85,6.21,3.8,3.15-.05,5.68-2.9,6.69-5.41,1.24-3.08.01-5.23-1.88-11.94-3.13-11.13-2.57-15.34-4.93-15.9-2.71-.64-5.95,4.28-6.69,5.41-3.44,5.23-3.01,10.82-2.78,13.76.24,3.1.59,6.92,3.38,10.28Z"/>
    </g>
    <g id="machoire-sup">
      <path class="cls-3" d="m190.9,322.64c-4.76-.07-5.22,4.25-12.24,6.13-9.49,2.53-14.19-3.89-22.19-2.52-8.28,1.42-11.85,9.78-18.19,18.94-6.39,9.23-15.4,16.65-33.4,31.47-23.93,19.7-35.9,29.55-52.9,31.82-14.59,1.95-20.04-2.89-31.62,2.77-2.01.98-18.91,9.57-20.26,26.3-.16,1.93-.95,14.31,6.81,20.61,10.99,8.93,31.7-.44,67.28-16.55,24.34-11.02,36.51-16.52,45.26-24.62,8.29-7.67,13.7-15.44,25.6-18.72,10.29-2.83,12.61,1.23,24.15-1.14,19.45-3.99,30.33-19.12,31.22-20.4,2.59-3.71,10.43-14.97,8.3-29.44-1.69-11.49-9.61-24.52-17.82-24.65Z"/>
      <ellipse class="cls-3" cx="158.77" cy="358.36" rx="17.05" ry="9.83" transform="translate(-202.52 206.38) rotate(-43.29)"/>
      <ellipse class="cls-3" cx="158.77" cy="358.36" rx="14.42" ry="8.32" transform="translate(-202.52 206.38) rotate(-43.29)"/>
      <ellipse class="cls-3" cx="155.4" cy="362.43" rx="2.62" ry="6.56" transform="translate(-206.23 205.17) rotate(-43.29)"/>
      <circle class="cls-3" cx="152.7" cy="359.54" r="1.31"/>
    </g>
    <g id="machoire-inf">
      <path class="cls-11" d="m189.75,376.6c-4.71-.55-8.57,1.72-16.3,6.27-5.46,3.21-10.61,7.52-12.22,8.88-1.94,1.63-3.28,2.88-3.65,3.21-11.01,10.05-30.82,15.5-30.82,15.5-9.8,2.7-32.16,8.85-52.5,17.64-19.98,8.63-40.93,19.85-40.43,33.44.38,10.4,13.38,17.54,14.6,18.19,10.65,5.67,21.4,2.86,27.43,1.29,9.01-2.35,15.78-7.3,28.95-17.09,15.41-11.46,18.24-16.05,29.4-21.18,9.67-4.45,17.3-5.44,19.41-5.69,2.86-.33,5.25-.34,10.04-.37,14.08-.07,15.96,1.4,22.2-.01,2.78-.63,7.71-1.81,12.34-5.73,6.03-5.11,7.84-11.7,8.91-15.71.86-3.22,3.11-12.05-.83-21.86-.82-2.07-6.26-15.58-16.53-16.78Z"/>
      <g>
        <path class="cls-1" d="m70.85,445.99c1.09.75,3.27,2.25,5.57,1.56,2.39-.72,3.71-3.45,3.94-5.58.28-2.62-1.13-4-4.02-8.71-4.8-7.83-5.29-11.16-7.21-11.08-2.21.1-3.62,4.56-3.94,5.58-1.5,4.74.05,8.92.86,11.11.85,2.31,1.94,5.15,4.8,7.12Z"/>
        <path class="cls-1" d="m81.93,438.42c1.09.75,3.27,2.25,5.57,1.56,2.39-.72,3.71-3.45,3.94-5.58.28-2.62-1.13-4-4.02-8.71-4.8-7.83-5.29-11.16-7.21-11.08-2.21.1-3.62,4.56-3.94,5.58-1.5,4.74.05,8.92.86,11.11.84,2.31,1.94,5.15,4.8,7.12Z"/>
        <path class="cls-1" d="m93.14,431.83c1.09.75,3.27,2.25,5.57,1.56,2.39-.72,3.71-3.45,3.94-5.58.28-2.62-1.13-4-4.02-8.71-4.8-7.83-5.29-11.16-7.21-11.08-2.21.1-3.62,4.56-3.94,5.58-1.5,4.74.05,8.92.86,11.11.84,2.31,1.94,5.15,4.8,7.12Z"/>
        <path class="cls-1" d="m105.61,427.1c1.09.75,3.27,2.25,5.57,1.56,2.39-.72,3.71-3.45,3.94-5.58.28-2.62-1.13-4-4.02-8.71-4.8-7.83-5.29-11.16-7.21-11.08-2.21.1-3.62,4.56-3.94,5.58-1.5,4.74.05,8.92.86,11.11.85,2.31,1.94,5.15,4.8,7.12Z"/>
        <path class="cls-1" d="m118.08,422.36c1.09.75,3.27,2.25,5.57,1.56,2.39-.72,3.71-3.45,3.94-5.58.28-2.62-1.13-4-4.02-8.71-4.8-7.83-5.29-11.16-7.21-11.08-2.21.1-3.62,4.56-3.94,5.58-1.5,4.74.05,8.92.86,11.11.85,2.31,1.94,5.15,4.8,7.12Z"/>
        <path class="cls-10" d="m190.56,382.54c-4.71-.55-8.57,1.72-16.3,6.27-5.46,3.21-10.61,7.52-12.22,8.88-1.94,1.63-3.28,2.88-3.65,3.21-11.01,10.05-30.82,15.5-30.82,15.5-9.8,2.7-32.16,8.85-52.5,17.64-19.98,8.63-40.93,19.85-40.43,33.44.38,10.4,13.38,17.54,14.6,18.19,10.65,5.67,21.4,2.86,27.43,1.29,9.01-2.35,15.78-7.3,28.95-17.09,15.41-11.46,18.24-16.05,29.4-21.18,9.67-4.45,17.3-5.44,19.41-5.69,2.86-.33,5.25-.34,10.04-.37,14.08-.07,15.96,1.4,22.2-.01,2.78-.63,7.71-1.81,12.34-5.73,6.03-5.11,7.84-11.7,8.91-15.71.86-3.22,3.11-12.05-.83-21.86-.82-2.06-6.25-15.58-16.53-16.78Z"/>
      </g>
    </g>
    <path id="cuisse-gauche" class="cls-10" d="m447.91,322.52c-4.42-.11-7.78,3.21-9.96,5.36-5.83,5.77-7.4,12.75-8.43,17.63-.95,4.51-2.69,12.74.77,21.46,2.26,5.71,4.18,5.14,6.9,10.73,2.99,6.13,2.29,10.14,2.3,26.82,0,13.13.01,19.69.77,24.53,1.83,11.63,4.3,12.1,4.6,21.46.12,3.71-.3,2.57-1.53,19.93-.45,6.35-.66,10.2,0,15.33.74,5.78,1.21,9.12,3.83,12.26,2.98,3.56,8.42,6.49,13.8,5.36,4.94-1.03,7.65-5.03,9.96-8.43,2.89-4.26,3.54-7.32,6.9-20.69,2.52-10.02,3.79-15.08,4.6-17.63,3.06-9.64,4.31-10.29,6.13-17.63,1.13-4.56,2.49-10.01,2.3-16.86-.27-9.7-3.31-10.37-4.6-21.46-1.07-9.24.95-9.58,0-20.69-.39-4.54-.99-11.13-3.83-19.16-3.52-9.95-8.48-16.5-9.96-18.39-1.35-1.72-5.5-5.49-13.8-13.03-5.73-5.19-7.74-6.83-10.75-6.9Z"/>
    <g id="pied-gauche">
      <path class="cls-12" d="m456.74,483.43c-7.13,3.34-8.76,3.88-9.96,6.13-2.1,3.94-.48,8.59,0,9.96,1.33,3.8,3.12,4.4,6.13,8.43,5.31,7.1,2.69,9.16,8.43,18.39,2.94,4.74,4.81,6.09,4.6,9.2-.22,3.24-2.39,3.74-3.07,8.43-.15,1.07-.1,3.27,0,7.66.1,4.47.22,4.55,0,5.36-1.01,3.72-4.49,5.87-6.13,6.9,0,0-1.85,1.15-6.9,3.07,0,0-3.37,7.51-3.07,7.66.17.09,1.65-2.22,1.53-2.3-.21-.15-6.82,6.34-5.36,9.2.7,1.38,3.04,1.45,5.36,1.53,1.31.04,7.44.25,11.5-3.83,1.55-1.56,1.59-2.52,3.07-3.07,2.32-.85,3.88.92,6.13,0,1.7-.69,1.42-1.94,3.07-3.07,2.89-1.97,8.28-1.17,9.96,1.53.9,1.44.06,2.31,0,6.9-.05,4.28-.09,7.02,1.53,8.43,1.27,1.1,2.48.46,8.43,0,7.34-.57,8.93.13,10.73-1.53,2.03-1.87,2.21-4.78,2.3-6.13.35-5.56-3.2-9.17-2.3-9.96.84-.74,3.59,2.62,8.43,4.6,8.04,3.29,15.85.35,16.09,1.53.14.68-2.36,2.13-3.07,1.53-1.41-1.19,6.23-8.87,3.83-13.8-1.47-3.03-6.25-4-9.2-4.6-4.92-1-6.84.32-9.2-1.53-2.39-1.88-1.28-3.91-3.83-6.13-2.76-2.4-5.11-.92-7.66-3.07-2.24-1.88-1.82-4.19-3.07-8.43-1.15-3.94-1.9-3.31-6.9-12.26-3.19-5.72-5.18-9.33-6.9-14.56-1.02-3.1-1.79-6.32-2.3-8.43-.82-3.42-1.26-5.25-1.53-7.66-.56-5.01.35-5.83,0-9.2-.39-3.71-2.35-10.72-6.9-12.26-1.98-.67-2.86.27-13.77,5.38Z"/>
      <path class="cls-7" d="m498.16,579.33c-.89-.91-2.68-2.73-4.99-2.5-2.4.24-4.15,2.58-4.76,4.56-.75,2.43.33,3.99,2.2,9,3.1,8.3,2.95,11.55,4.79,11.82,2.11.32,4.27-3.65,4.76-4.56,2.29-4.21,1.6-8.46,1.24-10.69-.39-2.34-.9-5.23-3.24-7.63Z"/>
      <path class="cls-7" d="m447.17,576.7c.75-.46,2.26-1.38,3.78-.84,1.57.57,2.35,2.44,2.43,3.87.09,1.76-.9,2.63-3,5.67-3.49,5.05-3.94,7.26-5.22,7.14-1.47-.14-2.25-3.18-2.43-3.87-.83-3.22.36-5.96.98-7.39.64-1.51,1.48-3.37,3.46-4.58Z"/>
      <path class="cls-7" d="m524.24,567.33c-.98-.25-2.95-.75-4.42.36-1.53,1.15-1.75,3.47-1.35,5.06.5,1.96,1.87,2.57,5.21,5.19,5.53,4.35,6.77,6.61,8.13,6.04,1.56-.66,1.39-4.24,1.35-5.06-.18-3.8-2.41-6.4-3.57-7.76-1.23-1.42-2.77-3.17-5.35-3.83Z"/>
    </g>
    <g id="main-gauche">
      <path class="cls-12" d="m345.78,445.73c-3.43-1.76-9.21,3.12-15,8-4.37,3.68-7.09,6.05-8,10-.88,3.84,1,4.65,1,11,0,.95-.05,6-2,12-1.7,5.21-3.52,7.08-3,11,.08.6.42,2.82,2,5,.53.73,2.44,3.37,4,3,2.08-.5,1.98-5.98,3-6,1.07-.02.82,6.03,5,10,.94.89,2.48,2.36,4,2,2.17-.51,1.63-4.08,5-8,1.05-1.22,3.02-3.51,6-4,2.6-.43,3.86.85,5,0,1.29-.97.94-3.57,0-8-1.29-6.08-2.39-9.49-3-12-.88-3.58-.55-4.42-1-14-.59-12.61-.93-18.94-3-20Z"/>
      <path class="cls-7" d="m330.96,502.27c.36-.74,1.08-2.22,2.53-2.48,1.51-.27,3.05.91,3.82,2.07.95,1.42.6,2.61.47,6.13-.22,5.85.53,7.9-.53,8.4-1.22.58-3.33-1.57-3.82-2.07-2.24-2.28-2.68-5.12-2.91-6.6-.24-1.57-.51-3.51.44-5.45Z"/>
      <path class="cls-7" d="m320.29,500.82c.36-.69,1.08-2.07,2.47-2.35,1.44-.28,2.88.77,3.59,1.82.87,1.29.52,2.39.31,5.64-.34,5.4.33,7.26-.7,7.75-1.17.56-3.14-1.38-3.59-1.82-2.09-2.05-2.44-4.65-2.62-6.02-.19-1.42-.41-3.2.54-5.02Z"/>
      <path class="cls-7" d="m353.47,496.91c-.17-.52-.5-1.56-1.43-1.91-.96-.37-2.08.2-2.69.84-.75.79-.64,1.59-.88,3.86-.4,3.77-1.08,4.98-.43,5.44.75.52,2.33-.58,2.69-.84,1.68-1.18,2.23-2.93,2.52-3.85.31-.97.66-2.17.22-3.54Z"/>
    </g>
    <path id="bras-gauche" class="cls-10" d="m348.78,366.73c-8.21-5-24.09-8.65-34,1-10.59,10.31-5.32,27.02-5,28,.21.64,4.39,12.6,16,18,7.59,3.53,11.31.98,27,5,7.09,1.82,12.76,3.32,13,6,.27,2.94-6.21,4.86-17,12-8.13,5.38-6.65,5.94-12,9-5.83,3.34-9.66,4.2-11,8-.76,2.16-.66,5.11,1,7,1.72,1.96,4.41,1.98,7,2,5.91.05,10.25-2.54,11-3,4.79-2.94,5.96-6.26,9-10,3.79-4.67,5.72-4.11,24-14,13.25-7.16,15.83-9.4,17-13,1.38-4.26.44-9.36-2-13-2.93-4.37-6.39-4.22-21-11-9.23-4.28-10.95-5.78-12-8-2.14-4.52.63-7.54-1-13-1.79-5.99-7.19-9.29-10-11Z"/>
    <g>
      <circle class="cls-4" cx="148.28" cy="366.23" r="8"/>
      <circle class="cls-9" cx="148.28" cy="366.23" r="6"/>
      <circle cx="146.28" cy="366.23" r="4"/>
      <circle class="cls-2" cx="148.28" cy="366.23" r="2"/>
    </g>
  </g>
</svg>