<?xml version="1.0" encoding="UTF-8"?>
<svg id="Calque_2" data-name="Calque 2" xmlns="http://www.w3.org/2000/svg" viewBox="0 0 650.23 358.86">
  <defs>
    <style>
      .cls-1 {
        fill: #fff;
      }

      .cls-2 {
        fill: #5e6472;
      }

      .cls-3 {
        fill: #3f70c6;
      }

      .cls-4 {
        fill: #aed9e0;
      }

      .cls-5 {
        fill: #ffb1aa;
      }

      .cls-6 {
        fill: #b8f2e6;
      }

      .cls-7 {
        fill: #74d5e4;
      }

      .cls-8 {
        fill: #3fffc6;
      }
    </style>
  </defs>
  <g id="Calque_1-2" data-name="Calque 1">
    <g id="corps">
      <path class="cls-4" d="m108.04,133.28c-5.6,2.85-13.2,6.72-18,15-7.06,12.18-3.39,25.83-2,31,7.83,29.11,38.2,40.96,41,42,5.72,2.13,13.48,3.09,29,5,16.65,2.05,30.42,2.73,40,3,33.68.95,61.31-1.79,73-3,5.52-.57,15.02-1.64,30-3,15.21-1.38,22.82-2.1,24-2,29.8,2.58,47.64,40.25,55,36,1.6-.93.47-2.55,3-11,2.29-7.64,5.2-12.96,8-18,5.12-9.22,7.68-13.83,12-16,1.51-.76,5.36-1.52,13-3,4.33-.84,6.5-1.26,11-2,5.29-.87,12.19-2.25,26-5,18.13-3.62,29.76-6.09,49-10,60.92-12.38,56.88-10.48,58-11,3.96-1.84,14.84-7.24,20-3,1.46,1.2,1.84,2.66,3,6,2.01,5.79,4.9,11.24,7,17,5.5,15.05,4.06,10.25,9,24,3.94,10.98,4.01,11.69,9,26,9.13,26.18,5.15,13.06,13,35,4.53,12.66,5.92,17.2,11,22,6.73,6.36,16.49,9.92,18,8,.79-1-.92-3.18-3-7-2.27-4.16-3.84-9.44-7-20-9.04-30.26-11-62-11-62-1.27-20.6.76-23.83,1-50,.3-32.69-2.97-31.12-3-60-.05-40.99,5.55-43.24,6-71,0,0,.24-14.67,6-27,2.28-4.87,5-8,5-8,2.82-3.24,5.23-4.55,5-5-.47-.93-11.96,2.8-19,7-21.07,12.57-26.63,43.81-32,74,0,0-1.45,8.18-18,51-.39,1.01-1.46,3.66-4,5-3.13,1.65-6.75.4-8,0-7.14-2.25-11.11.02-26-1-18.55-1.26-45.45-7.04-50-8-14.6-3.08-33.73-4.72-72-8-40.03-3.43-49.48-1.7-92-5-22.89-1.78-34.64-2.69-46-4-12.22-1.41-13.65-2.09-20-2-7.92.12-11.1,1.26-14-1-3.89-3.02-3.59-9.26-3-19,1.23-20.09,1.84-30.14,2-31,7.74-41.24,17.49-61.32,13-64-5.65-3.38-27.93,24.42-30,27-10.05,12.54-16.18,23.87-20,31-6.61,12.35-10.13,18.92-13,29-4.76,16.72-1.9,22.56-8,28-3.26,2.91-5.56,2.56-26,6-3.01.51-9.34,1.67-22,4-25.4,4.67-29.14,6.03-33,8Z"/>
      <g>
        <path class="cls-5" d="m494.81,168.97c.19-.59.15-1.97-.32-1.71l-.41,2.3.73-.59Z"/>
        <path class="cls-5" d="m491.89,164.59c-.58,1.1-1.26,3.06-.99,5.2.61-2.21.7-1.28,1.37-3.91.47-.26.77.77.66,1.62.18-.59.69.53.99-.92-.53-1.81-1.29-1.91-2.13-.45-.14-.52.05-1.12.1-1.54Z"/>
        <path class="cls-5" d="m446.91,160.81l.3.27c-.09-.15-.19-.23-.3-.27Z"/>
        <path class="cls-5" d="m418.97,160.5c.21-.07.29-.3.29-.51-.19.16-.35.31-.29.51Z"/>
        <path class="cls-5" d="m414.09,158.16c.11.07.19.1.29.14-.12-.21-.23-.32-.29-.14Z"/>
        <path class="cls-5" d="m446.91,160.81l-.76-.71c-.04.76.39.55.76.71Z"/>
        <path class="cls-5" d="m485.56,169.98c.16-.11.29-.32.42-.6-.13.1-.25.18-.38.23-.01.13-.02.23-.04.37Z"/>
        <path class="cls-5" d="m459.2,158.74h.23c.06-.27.12-.59.18-.95l-.41.95Z"/>
        <path class="cls-5" d="m468.68,158.34c-.21-.09-.29,1.88-.37,2.74.12-.81.28-1.2.47-1.35-.01-.37-.03-.82-.1-1.39Z"/>
        <path class="cls-5" d="m483.65,161.96l.27-.27c-.07.09-.19.17-.27.27Z"/>
        <path class="cls-5" d="m452.42,158.4c-.02-.29-.06-.55-.1-.7,0,.25.04.48.1.7Z"/>
        <path class="cls-5" d="m189.1,178.83c.01-.14,0-.23,0-.35-.05.2-.07.34,0,.35Z"/>
        <path class="cls-5" d="m178.33,168.92l.15-.1c.02-.37.04-.74.05-1.1l-.2,1.2Z"/>
        <path class="cls-5" d="m405.25,156.05s.02.02.04.04c.22-.24.09-.19-.04-.04Z"/>
        <path class="cls-5" d="m325.71,161.26c.95,1.73-1.4,2.3.02,4.21-.15-.76,1.14-3.1-.02-4.21Z"/>
        <path class="cls-5" d="m485.33,169.71c-.13.02-.25.03-.38.01.17.07.29.07.38-.01Z"/>
        <path class="cls-5" d="m325.73,165.47v.02l.15.18c-.06-.08-.09-.13-.15-.2Z"/>
        <path class="cls-5" d="m385.26,158.27c.06.34.15.6.25.85,0-.2-.07-.45-.25-.85Z"/>
        <path class="cls-5" d="m400.34,160.29l-.38-.24c.15.17.27.22.38.24Z"/>
        <path class="cls-5" d="m377.67,161.45c-.21-.14-.29-.41-.55-.13.03.1.06.17.1.24.08-.27.21-.41.45-.11Z"/>
        <path class="cls-5" d="m369.62,161.89c.05.15.11.26.17.39.08-.04.17-.08.25-.12l-.42-.27Z"/>
        <path class="cls-5" d="m213.65,178.22c-.17-.56-.27-1.17-.35-1.77.11,1.4-1.08,1.88.35,1.77Z"/>
        <path class="cls-5" d="m485.59,168.87c-.06.49-.13.74-.26.84.09-.02.18-.06.27-.1.03-.29.04-.56-.01-.74Z"/>
        <path class="cls-5" d="m378.16,176.97l-1.3-.22c.38.17.85.25,1.3.22Z"/>
        <path class="cls-5" d="m271.67,178.27l-.29.24c.11.04.21-.02.29-.24Z"/>
        <path class="cls-5" d="m373.08,177.24c-.27-.68-.53-1.07-.79-1.32-.05.16-.1.29-.12.51l.91.81Z"/>
        <path class="cls-5" d="m204.79,180.99c1.22.07.61-2.52.89-4,1.47-.71.65,1.91,1.13,3.24.92-.67,1.65-3.04,2.33-2.93.05.43.18.58.01,1.11.99-2.04,2.86-.07,4.02-2.63.08.23.12.45.14.64-.17-1.3-.18-2.61-.13-3.55.55-.04,1.04-1.62,1.22.07-.34-.05-.37.63-.54,1.15l.58-.73c.49,2.44-.79.83-.82,2.63,1.13-.78,2.46-2.77,3.31-2.07.15,2.38-2.02.78-.9,2.9l-1.32-.93c.97,3.76-.8-.27.08,3.75,1.74.71,1.97-1.19,3.71-.47.41-1.32-.11-1.95.3-3.27,2.5-2.35,1.88,6,3.74,2.85.49-1.58.7-4.58,1.98-2.98l-.47,2.68c1.69.28,1.01-3.85,2.76-2.03-.33,1.05-1.34.88-1.09,1.2,1.13,2.13.83-1.52,1.71-1.51l.16,2.38c1.81-.36,3.81-2.06,5.81-2.48-.12.71-.47,1.45,0,2.18,2.53-1.17,5.37.34,7.79,1.76l.94-2.05c.22.02.39.93.16,1.33.94.78.06-1.3.52-2.11.54-.14.7,1.19.36,1.8,1.68-1.73,4.78-3.72,6.53-1.52l-.35.61c1.37.84,1.56-4.21,2.83-2.29l-.25.36c2.97.9,6.26-.97,8.53,2.13.43-2.96,2.95,1.32,3.14-2.81,1.7,2.05,1.21,2.78,3.61,4.16.64.19.95-2.58,1.74-3.01l.02,2.16,1.07-2.27.58,2.58.74-.56c-.3-.13-.63-.97-.59-1.59,1.15-.98,2.83,1.49,2.86,2.6l2.73-1.84c-.06.87-.51,1.17-.87,1.72,1.45-2.21.28,2.27,1.61.25-.18-.49.09-1.29.12-1.72.68,1.3,2.2,1.3,3.32.74l-.21,1.49c2.04.36,4.29-.75,6.57-.74-.83-.69-.66-3.27,0-3.52l.29,2.28c.42-1.41-.71-.85.16-2.59.85.26.6,2.59.12,3.33l1.03-.8c.07.68-.17,1.04-.23,1.91.41-1.42,1.82,2.27,2.4-.2l.07.68c2.29-.01,3.31-.81,5.17-.94.01-1.97.74-1.54,1.27-3.14,1.37.61,2.92,2.13,4.56,1.93,1.14-1,.31-1.67.81-2.85.12,1.79,1.76,1.6.93,2.9,1.97-.33,2.52-.4,4.99-1.9-.29-.73-.6-1.04-.45-1.65.45-.31,1.05.73,1,1.59l-.12.19c2.74-2.75,6.6,5.08,8.74,1.29l-.12.19,2.27-2.01c1.07.28-.6,1.37.22,2.45,2.42-3.06,3.97.32,5.97-1.73,1.76,5.25,5.64-.56,7.91,2.74l-.17-1.24c.51-1.24.7.69,1.12.96-.09-.96-.64-1.1-.32-1.79,4.65-1.66,9.79,1.44,14.68,2.36,1.78.25.71-6.48,3.07-3.62l-.53,2.34c3.43-2.93,7.29-.24,10.65-2.77-.18.54-.15,1.24-.49,1.24.82,1.64,2.72-.05,2.66-1.43.55.13.19,1.23.56,1.91.79.95,1.74-2.23,2.22-.58.08.27-.18.55-.31.69.44-.84,2.25.09,1.69-1.82,1.35.86,2.45-.99,3.55.1.56-2.2,2.29.92,2.34-2.15.07,3.17,2.42,2.43,3.17.9-.23.97.77.95.52,2.29.94-.09,1.77-.73,1.52-2.34,1.93,3.69,3.32-3.23,4.55,1.57,2.7-1.85,5.22-3.13,7.69-4.01.08,3.16-2.76.46-2.47,3.77,2.31-1.42,3.54-4.2,5.94-3.57.63.4-.28,1.38-.45,1.94,2.31-1.43,4.61.05,6.63-1.77.01.29-.2.63-.41.88.41-.13.99.41.87-1.02l-.39.41c-.77-2.05,1.44-4.43,1.46-5.53-.5,4.14,2.14.93,1.28,6.17.26-.28.57-.98.46-1.94.42.26.58.81.22,1.92,1.45-.85.85-2.36,2.2-2.39.03.7-.23.98-.33,1.8.62-1.39,1.24-2.77,2.41-2.24-.05.42.11.96-.23.97,1.95-.3,3.17-3.76,5.39-2.56-.5,3.05.78.96,1.01,3.56l1.12-.83-.52-1.25c1.01,0,1.83-1.94,2.74-1.12l-.71,1.11,1.88-.58-1.12-.94c.97-1.39-.25-3.3,1.13-2.63-.26.28,1.02-.01,1.61,1.51h0c.47-.84.95-1.74,1.72-1.12.23.83-.04,2.89.11,3.44.41-2.2,2.35-.71,2.88-3.06-.19.55-.14,1.92-.06,2.2l.35-1.79c.49.55.57.82.54,1.92,1.42.27-.58-3.3,1.16-1.93-.13.15-.05.41-.32.69,1.71.68,3.21-1.24,4.79-.43.55,2.61-1.33.69-.73,2.89,2.21-.56,4.51-3.32,6.69-2.75l-.41-.28c.19-3.72,1.66,1.79,2.7.01-.26.28-.29,2.07-.23,1.66,1.49.56,2.99-1,5.2-2.23l-.25.96c.89.83,2.3.45,3.25.86.26-.96.8-.81.45-2.19,3,5.38,5.49-3.04,8.13,1.48-.31.01-.72.84-.48.84l2.18-.9c-.19-1.62-.3-.98-.77-2.23.27-.96.88-1.71,1.43-1.71-.98,1.08.03,2.6.47,3.5-.08-.49.07-1.04.03-1.55,1.17,2.87.17-3.26,1.75-1.33l-.08.85c.58-.44,1.12-1.57,1.75-1.33.27,1.87-.62.88-.65,2.42.88-.11,1.74-3.56,2.55-1.7-.38.52-.92.53-1.29,1.05.88,2.19.98,1.63,1.63,1.98l-.06-.05,1.5,1-.38-.6c1.11-4.87,2.25-.88,3.76-4.07-1.47,3.02-.25,1.75-.37,3.87.38.59.95,1.25.79,1.85.71-1.71,1.16,1.35,2.17-1.15.04.68.75.07.58,1.78.92-.53-.21-1.19-.12-2.04,1.44-2.34,3.28,2.87,5.35-.3,1.77-1.29,2.14-3.58,3.8-4.7.53,1.1-.5,2.48-.5,2.48.87,1.02,1.53.85,2.39.08-.18.59-.02,1.1.21,1.87.67-.16.51-2.47,1.37-1.44-.17.76-.4,1.97-.74,2.72.8-.6,1.61-1.85,2.45-2.44.18,1.2-.55,1.79-.85,2.55.93-.51,2.4-1,2.75-2.87l-.57-.69c.34-.08.12,1.62-.14,1.96-.83,1.45-1.11-.69-1.14-1.38l.6-.42c-.48-4.02-2.36.57-3.52.3l.56-2.9-1.27,2.38c-.24-.76-.38-2.39.22-2.82-.81-1.45-.77,1.02-1.46-.59-.07-.25-.04-.39.04-.51l-.84.85c.17-.61-.1-2.06.4-1.63-1.45-1.7-2.44,2.14-2.95-.07l.13-.18c-2.08.95-.24,2.13-1.81,4.62l-.96-5.29-.23,2.13c-.21-.08-.63-.25-.54-1.1-.81,1.45.12.93-.35,2.31-1-1.97-2.82.89-3.02-2.52-.38,1.62.97,1.26-.13,2.38-.29-3.66-1.26.62-2.19-1.06.29-1.89,1.18-.88.25-2.58-.58,3.19-1.82-.7-2.61-.1-.04,2.54-1.72,1.05-3.04,1.9.08-.86-2.49-1.38-3.73-2.29l.03-.43c-.22,2.57-1.49,2.1-2.41,2.64.02-1.54.18-2.15.68-2.84l-.87.02c-.2.83-.46,1.26-1.03,1.56l.2-1.92c-1.16.12-2.31,2.27-3.81,1.02-.06,1.79,1.25,4.97-.3,6.19-.07-.97-.16-2.62.25-3.03-.13.13-.47.81-.74.41l.6-1.64c-.69-.7-.33,1.37-.88,1.23-.01-1.38-.42-.98-.36-2.08.14-.14.48.56.68.02-.61-.24-1.37-1.04-1.63-2.08.07.78.03,1.86-.41,2.05-1.15.12-.43-1.65-1.11-2.35-.26.97-1.02-.01-1,2.05-.34,0-.42-.97-.56-1.52-.58.92-2.79.32-2.07,2.5l.16.14s-.06.05-.1.09h0c-1.91,2.08-4.1-1.06-6.02-.13l-.02-.69c-1.14.82-2.57.54-3.35,2.05-.34.01-.85-1.24-.73-2.07-.87.55-.95,1.32-2.26.23.85-1.24-.34-1.06.89-.92-1.17-.55-1.47-1.65-2.65.28.36-1.79-.95-2.2-1.48-1.65l.85,1.24c-.61.28-1.15.14-1.7.01l.21-2.34c-2.47-2.74-4.08,4.97-6.06.3-.56,1.65,1.33,1.09.84,3.02-1.1-.27-2.36-3.56-2.7-3.55-1.54-1.23-1.25,3.46-2.84,2.64.23.82.52,3.03-.61,3.86-1.1-.26-1.48-3.42-.83-4.12.26-.08.39.18.4.46.34-.32.78-.69.31-1.57l-.11.84c-.58-.82-2.07-.67-1.78-2.05-.79.83-.29,1.38.34,1.78-1.45-1.14-2.18.06-3.65-.68.25.45.5,1.41.28,1.41-2.15-.93-.85,1.62-2.26,2.05-.87-1.23.15-3.03-1.23-1.91-.92-.82-.29-2.19.03-2.89-1.23,1.66-2.49-.94-3.25-1.19l.66-.7c-.39.42-.73.42-1.07.43l.47,1.64c-.42-.27-.76-.26-.79-.95-.36,1.11.45,2.75-.3,4.27-.58-.82-1.59.99-1.89-1.21,1.73.66-.3-2.2,1.12-2.63-.26.28-.6.28-1.02.01-.07-.24.03-.46.14-.59-1.72-1.89-.62,2.53-2.3,2.56.15-1.25-.51-2.33-.77-2.06.68-.01.43,2.05-.15,3.04-1.12-.91-1.13.78-1.7.69l.67.42c-.16,1.25-.7,1.12-1.43,1.55-.11-.96.65-.7.36-1.11-.72,2.22-2-2.16-3.08-.63-.58-.81-.17-2.33-.67-2.87-1.22,1.68-1.5-1.63-2.79-.22.48,1.65.53,1.24-.35,2.91l2.18-1.29-1.32,2.5c.68-.01,1.38-1.13,1.8-.86-.62,1.4-.57.98-.17,2.35-1.06-2.45-1.76,1.55-2.92-.08l-.18-4.13c-1.71-1.75-2.75,2.27-4.9,1.34l.71.68c-.19,1.65-1.28.3-1.92,1-.01-1.38-.46-1.86-.79-2.71.09,1.02-1.54-.01-1.58,2.75l-1.03-1.77c-1.73-.65-1.72,4.03-3.37,3.65.41-1.53-.38-2.46.65-3.6-.54.01-1.04-.21-1,.74-.36-.85-1.4,1.94-1.97.66-.2.62-.19,2.07-.81,1.99-.08-.28-.03-.68-.03-.68.03.68-.9.98-.29,2.48-1.9-4.22-4.65.56-6.29-3.06-1.16.52-2.56,1.04-3.63,1.2.05-.42-.03-.69.18-.55-1.54-1.21-.71,4.01-2.46,2.66-.97-2.19.83-1.25.25-2.07-.46-4.53-2,.72-3.27-1.87l.26-.28c-.94-1.5-2.03,1.83-3.46,1.57,0,0,.05-.4-.03-.69-.85,2.37-2.65,3.21-3.98,3.92.34-1.8.57-.97.23-2.76-.6.28.32,2.89-.88,3.45-.44-.95-1.36-1.76-1.56-3.69l1.14-.16c-.7-2.47-1.48.15-2.11-.25l.03-1.09c-1.74.43-1.64,3.18-3.54,3.07l.23.82c-.92,2.76-.93-1.49-1.88.57l-.43-2.75c-.65.69-2.28,2.77-3.48,3.34.61-2.08,2-3.18,2.83-4.43-.68.01-2.28.3-2.58,1.67.26-.28.58-.97.86-.55-.74,2.2-1.79,3.32-3.14,3.32.03-5.36-3.56-1.21-4.69-5.34-2.31,2.06-4.75-.68-7.5-.27,1.11,4.13-.81.14-.5,4.41-.64.29-.89.23-.95-.05l-2.04-2.5c-.5-1.23.59-.96.5-1.92-1.42-.29-.65-1.8-1.61-2.91.24,1.52-.43,2.21-1.25,1.64l1.19,1.94c-1.91,2.33-1.81-3.54-3.73-1.23l.59-1.36c-1,.83-3.76.07-4.68,3.53-.19-.49-.46-1.65-.02-1.97-2.45-.46-5.35,3.78-7.3,1.71l.16-1.05c-.45.31-.75,1.98-1.35.94.02-.43.16-1.05-.05-1.11-.23.36-1.18,1.85-1.79,1.26l.49-1.19c-2.41-1.33-3.6,2.93-5.6,3.68-.04-3.08-1.93-4.05-2.88-4.54l.03-.44c-2.78-.35-4.68,2.61-7.24,3.85-1.63-3.32-5.42-1.36-8-3.21.4.56-.05,2.4-.5,2.71-.61-.62-1.65,2.15-1.57-.68l.22.05c-.47-2.77-1.7-2.02-2.67-2.09l-.14,3.7c-2.55-5.37-6.62,2-8.01-2.81-.61.93-1.36.91-1.97,1.84l.03-1.98c-1.69-.51-2.53-.76-4.62-.28l.43-1.42c-1.18-.13-1.49,5.71-2.58,5.83l-.32-2.96c-2.06.05-4.13-2.56-6.17.12.03-.43.1-1.29.43-1.41-.97-.08-3.74-2.02-3.4,2.05-.01-2.65-2.12-.26-3.24.89l.18-1.95c-.95,2.49-.98,3.17-2.3,3.85-.31-.26-.26-1.56.15-1.06-1.03-1.03-.82,1.84-2.07.8l.48-1.24c-1.06-.16-.98.51-1.58,1.96-.68.78-2.02-.5-2.16-2.27-.15,1.07-.74,2.51-1.37,2-.08-.67.15-1.08.27-1.28-1.77-1.34-2.67,2.25-3.88.32-.02-.65-.1-.97-.2-1.17,1.41.06,2.55.18,2.45.32.01-1.8-1.13-2.12-.2-4.6-.93,1.35-2.52,4.28-3.63,3.42-.05-.17-.1-.35-.14-.62l.12-.2c-.26-.18-.49-.02-.71.28-.35-.3-.58-.52-.92-.55-.12-1.49-1.3-.81-1.87-.89.03,1.97-.71,1.65-.03,3.27-.09-.14.11-.23.49-.31.09-.06.19-.09.24-.2-.01.05-.03.11-.04.17.37-.05.86-.09,1.42-.12-.46,1-.94,1.83-1.56.73-.3,1.26-.64,2.56-.83,3.17-.75-2.75-2.24-4.25-2.43-5.94-1.75,1.09-4.11.68-5.24,4.37-.5.47-.56-1.07-.74-1.65.29-.37.63-.31.79-.84-1,.94-2.94.34-3.2,2.92-1.23-1.18.73-2.37-.99-1.97l.24-.79c-3.32-4.17-5.56,6.52-9.24,1.18.25.33.38.48.43.91-4.23-2.39-8.82,2.07-12.97-1.69-1.19-.76-1.34.88-2.09,2.13l-.23-2.12-1.28,2.42c-1.8,1.76-2.99-5.23-5.28-1.89l.27,1.43c-.8-.28-2.56.8-2.4-.83-.09.26-.29,1.48-.59.73v-1.11s-2.02,1.87-2.02,1.87c-1.52-.82.31-4.39-1.93-4.64-.84.41-2.42,3.18-2.11,3.93.33.06.85.7.86,1.81l-.77.56c-.19,3.26-.82,6.59,1.01,8.89l1.33-1.97.4,1.59-1.1.08c.6,1.5,1.01.19,1.47-.71.09.84.27,1.43.52,1.75l1.32-3.09c.14,1.28-.61,2.52.24,3.24.62-1.44-.53-2.87.47-3.8.6,1.49.4,2.69,1.15,1.44.09.84-.07,1.37-.37,1.74.67-1,1.73-.4,2.09-2.13.62,1.84,2.2-.44,2.09,2.64.22-.74,1.18-2.41,1.78-2.52-1.15,3.68,2.23.25,1.89,4.2.86-3.31,2.94-1.43,4.4-3.25-.08.26-.25.79-.37.62.8.29,1.02,1.29,1.53,1.93.14-2.74,1.41-3.35,2.11-5.03.95,2.66-.64,3.21-.37,5.76-.02-2.22,1.75-2.2,1.44-4.05.73,1.65.64.8,1,3.08.18-3.43.71-.57,1.37-2.67,1.07,1.71.24,3.22,1.45,2.19.46,1.15-.62,2.35-.62,2.35Zm28.63-5.61v.04c-.25.04-.46.08-.59.11.12-.03.29-.06.59-.15Zm2.4-.01c-.29-.08-.66-.1-1.04-.09-.08-.68.02-1.38.26-1.34-.13.46.43.86.78,1.43Zm-4.95-13.68c.38-.28.5.11.55.52-.18.03-.39.1-.66.23-.01.06-.03.17-.05.24.04-.38.09-.73.16-.99Z"/>
        <path class="cls-5" d="m230.16,164.27c-.06.04-.09.13-.16.14.08.17.15.32.22.44.05-.21.1-.42.14-.62-.06.02-.13.03-.2.04Z"/>
        <path class="cls-5" d="m447.26,161.13l-.05-.04c.04.08.08.15.11.28-.04-.1-.04-.17-.06-.24Z"/>
        <polygon class="cls-5" points="268.99 179.25 268.99 178.75 268.78 179.19 268.99 179.25"/>
        <path class="cls-5" d="m460.56,167.68c.03.17.08.35.18.5-.01-.13-.09-.31-.18-.5Z"/>
        <path class="cls-5" d="m466.24,168.08l.8.7c-.35-.4-.6-.59-.8-.7Z"/>
        <path class="cls-5" d="m470.6,169.07c.06-.34.07-.6.09-.84,0,0-.01,0-.01-.01l-.08.85Z"/>
        <path class="cls-5" d="m401.3,173.42c-.06.01-.11.04-.16.1-.38.4-.11.24.16-.1Z"/>
        <path class="cls-5" d="m421.77,167.86c-.2.37-.41.73-.63.96.38.13.67.16.63-.96Z"/>
        <path class="cls-5" d="m378.31,177v-.03s-.09,0-.14.01l.14.02Z"/>
        <path class="cls-5" d="m420.19,168.82c.39.38.69.28.96-.01-.31-.11-.67-.3-.96.01Z"/>
        <path class="cls-5" d="m489.43,170.28l.21.09c0-.13.02-.24.03-.32l-.24.23Z"/>
        <path class="cls-5" d="m489.67,170.06l.24-.22c-.11-.01-.2,0-.24.22Z"/>
        <path class="cls-5" d="m490.42,169.35l-.51.48c.17,0,.38.08.51-.48Z"/>
        <path class="cls-5" d="m483.7,169.21l-.08.71c.04-.14.07-.37.08-.71Z"/>
        <path class="cls-5" d="m481.95,169.39c.41.17,1.02,1.54,1.61,1.1l.07-.57c-.31,1.06-1.26-1.73-1.68-.53Z"/>
        <path class="cls-5" d="m474.72,160.45l1.48.59c-.25-.76-.58-1.79.1-1.96-1.86-2.3.36,1.7-1.58,1.37Z"/>
        <path class="cls-5" d="m470.12,159.34c.8-.35-.01-1.1.04-1.53-.51.68-.64.86-.04,1.53Z"/>
        <path class="cls-5" d="m436.84,159.84l.02-1.79c-.6.27.02.69-.02,1.79Z"/>
        <polygon class="cls-5" points="430.83 169.31 431.46 170.4 431.68 168.75 430.83 169.31"/>
        <polygon class="cls-5" points="426.6 156.7 426.86 156.43 425.86 157.12 426.6 156.7"/>
        <path class="cls-5" d="m370.96,160.08l.3,2.19c.39-.42.35-2.9-.3-2.19Z"/>
        <path class="cls-5" d="m347.13,163.49c-.31-1.09-1.01-1.77-1.38-.67.54.13,1.12.97,1.38.67Z"/>
        <polygon class="cls-5" points="275.3 161.54 275.78 160.8 274.87 161.42 275.3 161.54"/>
      </g>
    </g>
    <path id="nageoire" class="cls-6" d="m199.04,218.28c-1.43-1.41-9.91-9.8-19-8-8.94,1.77-14.22,12.56-16,20-2.69,11.23,1.64,18.96,7,34,11.11,31.16,5.36,33.91,17,61,9.4,21.88,16.67,28.27,24,31,6.01,2.23,15.6,3.32,16,2,.23-.74-2.51-2.07-4-3-9.52-5.95-10.65-22.1-11-28-2.68-45.8,6.28-88.95-14-109Z"/>
    <g id="tete">
      <path class="cls-2" d="m117.21,129.73c-11.3-3.39-27.26,1.33-59.19,10.76-3.06.9-14.77,4.41-29.59,10.76-16.92,7.24-25.37,10.87-25.56,13.45-1.08,15.26,132.97,54.83,150.65,24.21,9.06-15.66-11.25-51.65-36.31-59.18Z"/>
      <path class="cls-7" d="m21.71,167.4c-9.23-.76-20-1.33-21.52,2.69-2.97,7.83,29.99,30.93,61.88,41.7,52.58,17.76,114.36,6.09,115.68-6.73,1.83-17.82-113.6-34.16-156.04-37.66Z"/>
      <path class="cls-2" d="m130.66,148.56c2.31-4.49,6.62-12.87,14.8-14.8,11.64-2.74,24.33,9.23,29.59,20.18,7.45,15.51.78,30.6,0,32.28-7.22,15.63-25.84,27.45-37.66,22.87-15.57-6.02-17.44-39.68-6.73-60.53Z"/>
    </g>
    <g>
      <circle class="cls-3" cx="102.54" cy="155.78" r="8"/>
      <circle class="cls-8" cx="102.54" cy="155.78" r="6"/>
      <circle cx="100.54" cy="155.78" r="4"/>
      <circle class="cls-1" cx="102.54" cy="155.78" r="2"/>
    </g>
  </g>
</svg>