<?xml version="1.0" encoding="UTF-8"?>
<svg id="Calque_2" data-name="Calque 2" xmlns="http://www.w3.org/2000/svg" viewBox="0 0 841.92 422.91">
  <defs>
    <style>
      .cls-1 {
        fill: #a3b18a;
      }

      .cls-2 {
        fill: #fff;
      }

      .cls-3 {
        fill: #ffcdb2;
      }

      .cls-4 {
        fill: #3f70c6;
      }

      .cls-5 {
        fill: #3a5a40;
      }

      .cls-6 {
        fill: #344e41;
      }

      .cls-7 {
        fill: #3fffc6;
      }

      .cls-8 {
        fill: #e29578;
      }

      .cls-9 {
        fill: #588157;
      }

      .cls-10 {
        fill: #dad7cd;
      }
    </style>
  </defs>
  <g id="Calque_1-2" data-name="Calque 1">
    <g id="cou">
      <path class="cls-6" d="m536.51,232.67c1.59,3.46,8.85,18.28,26.11,26.11,1.98.9,25.78,11.32,42.44,0,6.42-4.37,6.45-8.34,16.32-26.11,9.28-16.72,11.19-16.68,22.85-35.91,15.57-25.68,12.49-26.29,22.85-42.44,16.26-25.35,34.31-40.18,48.96-52.23,0,0,15.99-13.14,39.17-22.85,5.51-2.31,10.47-3.8,16.32-3.26,6.54.6,7.83,3.15,13.06,3.26,7.47.16,17.35-4.79,19.59-13.06,2.63-9.75-6.75-18.99-13.06-22.85-6-3.67-12.98-4.78-26.11-3.26-23.32,2.68-40.66,10.68-45.7,13.06-17.24,8.12-36.51,17.2-58.76,35.91-18.8,15.81-33.45,33.2-52.23,55.49-16.98,20.16-25.53,32.52-42.44,35.91-12.68,2.54-18.87-2.2-26.11,3.26-11.75,8.89-10.63,32.92-3.26,48.97Z"/>
      <path class="cls-3" d="m564.75,185.57c.58-.47,6.99,5.42,12.63,13.03,15.79,21.32,17.99,46.01,17.06,46.26-.66.18-2.45-12.11-11.82-30.35-8.91-17.37-18.63-28.33-17.87-28.94Z"/>
      <path class="cls-3" d="m573.75,180.57c.58-.47,6.99,5.42,12.63,13.03,15.79,21.32,17.99,46.01,17.06,46.26-.66.18-2.45-12.11-11.82-30.35-8.91-17.37-18.63-28.33-17.87-28.94Z"/>
      <path class="cls-3" d="m586.75,174.57c.58-.47,6.99,5.42,12.63,13.03,15.79,21.32,17.99,46.01,17.06,46.26-.66.18-2.45-12.11-11.82-30.35-8.91-17.37-18.63-28.33-17.87-28.94Z"/>
      <path class="cls-3" d="m599.46,166.55c.52-.42,6.27,4.86,11.33,11.69,14.16,19.12,16.14,41.27,15.31,41.5-.59.16-2.2-10.87-10.6-27.23-8-15.58-16.72-25.41-16.04-25.96Z"/>
      <path class="cls-3" d="m606.38,152.2c.5-.44,6.47,4.59,11.81,11.2,14.96,18.51,17.86,40.55,17.04,40.81-.58.19-2.66-10.76-11.74-26.76-8.64-15.21-17.77-24.67-17.11-25.25Z"/>
      <path class="cls-3" d="m615.38,140.2c.5-.44,6.47,4.59,11.81,11.2,14.96,18.51,17.86,40.55,17.04,40.81-.58.19-2.66-10.76-11.74-26.76-8.64-15.21-17.77-24.67-17.11-25.25Z"/>
      <path class="cls-3" d="m623.38,130.2c.5-.44,6.47,4.59,11.81,11.2,14.96,18.51,17.86,40.55,17.04,40.81-.58.19-2.66-10.76-11.74-26.76-8.64-15.21-17.77-24.67-17.11-25.25Z"/>
    </g>
    <g id="queue">
      <path class="cls-6" d="m51.01,309.52c7.85.25,38.83,1.22,64,1,31.14-.28,67.68-.6,113-10,25-5.18,44.99-11.53,63-19,9.54-3.95,20.58-8.59,34-17,18.66-11.7,19.68-16.76,33-25,8.66-5.36,42.2-26.12,61-12,15.28,11.47,15.72,42.14,3,57-3.3,3.85-7.87,6.24-17,11-10.53,5.49-17.02,7.14-38,14-23.3,7.62-19.95,7.12-27,9-11.78,3.14-18.6,3.88-39,7-21.9,3.35-28.72,4.75-37,6-72.2,10.88-140,5-140,5C57.32,330.74-.65,312.36,0,308.52c.29-1.72,12.26-.22,51,1Z"/>
      <path class="cls-3" d="m316.34,277.4c.43-.14,2.77,4.62,4.29,10.19,4.25,15.6.04,30.1-.54,30.04-.41-.04,1.29-7.42,0-19.85-1.22-11.83-4.32-20.2-3.75-20.38Z"/>
      <path class="cls-3" d="m309.34,280.4c.43-.14,2.77,4.62,4.29,10.19,4.25,15.6.04,30.1-.54,30.04-.41-.04,1.29-7.42,0-19.85-1.22-11.83-4.32-20.2-3.75-20.38Z"/>
      <path class="cls-3" d="m301.34,282.4c.43-.14,2.77,4.62,4.29,10.19,4.25,15.6.04,30.1-.54,30.04-.41-.04,1.29-7.42,0-19.85-1.22-11.83-4.32-20.2-3.75-20.38Z"/>
      <path class="cls-3" d="m294.34,284.4c.43-.14,2.77,4.62,4.29,10.19,4.25,15.6.04,30.1-.54,30.04-.41-.04,1.29-7.42,0-19.85-1.22-11.83-4.32-20.2-3.75-20.38Z"/>
      <path class="cls-3" d="m288.58,288.01c.4-.13,2.55,4.25,3.95,9.38,3.91,14.35.04,27.69-.49,27.63-.38-.04,1.18-6.83,0-18.26-1.13-10.88-3.98-18.58-3.46-18.75Z"/>
      <path class="cls-3" d="m283.58,289.01c.4-.13,2.55,4.25,3.95,9.38,3.91,14.35.04,27.69-.49,27.63-.38-.04,1.18-6.83,0-18.26-1.13-10.88-3.98-18.58-3.46-18.75Z"/>
      <path class="cls-3" d="m278.32,295.84c.29-.09,1.88,3.14,2.92,6.93,2.89,10.6.03,20.46-.36,20.42-.28-.03.87-5.04,0-13.49-.84-8.04-2.95-13.73-2.56-13.86Z"/>
      <path class="cls-3" d="m273.32,296.84c.29-.09,1.88,3.14,2.92,6.93,2.89,10.6.03,20.46-.36,20.42-.28-.03.87-5.04,0-13.49-.84-8.04-2.95-13.73-2.56-13.86Z"/>
      <path class="cls-3" d="m268.32,297.84c.29-.09,1.88,3.14,2.92,6.93,2.89,10.6.03,20.46-.36,20.42-.28-.03.87-5.04,0-13.49-.84-8.04-2.95-13.73-2.56-13.86Z"/>
      <path class="cls-3" d="m262.32,299.84c.29-.09,1.88,3.14,2.92,6.93,2.89,10.6.03,20.46-.36,20.42-.28-.03.87-5.04,0-13.49-.84-8.04-2.95-13.73-2.56-13.86Z"/>
      <path class="cls-3" d="m256.32,300.84c.29-.09,1.88,3.14,2.92,6.93,2.89,10.6.03,20.46-.36,20.42-.28-.03.87-5.04,0-13.49-.84-8.04-2.95-13.73-2.56-13.86Z"/>
    </g>
    <path id="bras-g" class="cls-5" d="m540.97,236.33c-11.78,10.33-16.97,20.91-19.34,27.03-2.33,6.02-3.23,11.07-4.11,16.03-1.65,9.29-1.57,16.58-1.34,30.78.18,11.37.73,12.7,1.6,13.94,5.73,8.13,21.96,7.01,32.13,3.12,1.72-.66,15.57-6.17,20.82-19.17,1.45-3.59.75-4.05,3.13-15.85,2.48-12.28,3.6-13.56,4.54-19.17,1.22-7.27,4.12-24.49-5.29-33.6-7.23-6.97-19.97-7.54-32.14-3.11Z"/>
    <path id="avant-bras-g" class="cls-5" d="m547.23,294.78c-13.65-.87-25.71,10.78-28.31,22.61-2.83,12.83,5.77,24.51,8.3,27.95,4.36,5.92,6.13,4.97,10.26,11.3,6.64,10.16,4.04,15.59,9.96,20.51,5.31,4.42,12.3,4.13,17.02,3.93,4.65-.2,14.78-.62,18.92-7.62,3.08-5.22,1.29-11.46.18-15.3-2.59-9-7.04-9.72-10.39-17.38-4.79-10.97,1.71-15.49-1.85-26.11-2.99-8.9-12.06-19.13-24.09-19.89Z"/>
    <path id="cuisse-g" class="cls-5" d="m398.77,258.16c-11.07.78-19.43,8.92-23.21,16.47-1.36,2.72-3.26,7.63.71,33.23,4.68,30.21,9.16,35.19,11.36,37.31,1.31,1.27,9.95,9.35,22.55,8.82,13.25-.56,24.37-10.39,28.07-21.09.85-2.47,1.73-6.2-4.25-31.11-6.42-26.76-9.47-30.92-12.4-33.86-1.99-2-10.58-10.63-22.83-9.77Z"/>
    <path id="mollet-g" class="cls-5" d="m404.38,317.15c-4.06,3.27-11.11,10.02-13.4,20.11-.98,4.33-.91,8.46-.87,9.96.06,2.45.3,4.37,2.82,15.91,1.93,8.83,2.41,10.58,2.94,12.3,1.82,5.94,2.73,8.91,4.64,11.25,4.74,5.8,12.24,6.65,13.66,6.82,7.81.89,18.04-2.17,21.97-10.12.33-.67,2.75-5.76,1.19-11.34-.97-3.49-2.78-4.6-4.75-7.64-3.29-5.07-3.53-10.1-3.88-17.61-.65-13.78,3.36-15.47.69-21.62-2.31-5.32-8.04-10.32-14.92-10.74-4.74-.3-8.42,1.67-10.09,2.72Z"/>
    <path id="cuisse-d" class="cls-5" d="m392.01,254.52c-10.82-2.48-21.19,2.87-27,9-2.09,2.2-5.34,6.35-9,32-4.32,30.26-1.48,36.33,0,39,.88,1.59,6.79,11.84,19,15,12.84,3.32,26.34-2.84,33-12,1.53-2.11,3.46-5.43,5-31,1.65-27.47-.06-32.34-2-36-1.32-2.49-7.04-13.26-19-16Z"/>
    <path id="mollet-d" class="cls-5" d="m380.01,331.52c-5.17.63-14.73,2.64-22,10-3.12,3.16-5.24,6.71-6,8-1.24,2.11-2.05,3.87-6,15-3.02,8.52-3.54,10.26-4,12-1.59,6.01-2.39,9.01-2,12,.97,7.43,6.88,12.11,8,13,6.16,4.88,16.47,7.69,24,3,.64-.4,5.38-3.44,7-9,1.01-3.47.07-5.38,0-9-.11-6.05,2.34-10.44,6-17,6.73-12.05,11.02-11.37,12-18,.85-5.74-1.38-13.01-7-17-3.86-2.74-8.02-3.01-10-3Z"/>
    <g id="corps">
      <path class="cls-6" d="m471.01,185.52c-16.59,4.01-28.18,9.01-49,18-20.52,8.86-31.69,15.41-36,18-12.53,7.54-19.7,11.86-27,19-7.07,6.92-26.82,26.25-25,51,2.1,28.49,31.59,48.05,52,54,4.08,1.19,12.06,2.13,28,4,18.45,2.17,36.93,3.72,44,4,28.02,1.11,81.48-9.6,115-50,8.7-10.48,27.2-32.79,25-63-.34-4.64-2.09-28.7-21-45-13.01-11.22-27.28-12.86-46-15-26.14-3-46.77,1.8-60,5Z"/>
      <path class="cls-3" d="m503.01,185.52c1.61-.51,10.33,17.22,16,38,15.86,58.15.17,112.22-2,112-1.54-.16,4.79-27.66,0-74-4.56-44.11-16.1-75.34-14-76Z"/>
      <path class="cls-3" d="m489.01,189.52c1.61-.51,10.33,17.22,16,38,15.86,58.15.17,112.22-2,112-1.54-.16,4.79-27.66,0-74-4.56-44.11-16.1-75.34-14-76Z"/>
      <path class="cls-3" d="m475.01,193.52c1.61-.51,10.33,17.22,16,38,15.86,58.15.17,112.22-2,112-1.54-.16,4.79-27.66,0-74-4.56-44.11-16.1-75.34-14-76Z"/>
      <path class="cls-3" d="m461.01,197.52c1.61-.51,10.33,17.22,16,38,15.86,58.15.17,112.22-2,112-1.54-.16,4.79-27.66,0-74-4.56-44.11-16.1-75.34-14-76Z"/>
      <path class="cls-3" d="m446.49,210.27c1.4-.44,8.99,14.99,13.92,33.06,13.8,50.59.14,97.63-1.74,97.44-1.34-.14,4.17-24.07,0-64.38-3.97-38.38-14.01-65.54-12.18-66.12Z"/>
      <path class="cls-3" d="m433.47,216.72c1.26-.4,8.1,13.5,12.54,29.79,12.43,45.59.13,87.99-1.57,87.81-1.21-.12,3.76-21.69,0-58.02-3.57-34.58-12.62-59.06-10.97-59.58Z"/>
      <path class="cls-3" d="m416.67,221.02c1.24-.39,7.92,13.21,12.27,29.13,12.16,44.58.13,86.04-1.53,85.87-1.18-.12,3.67-21.21,0-56.73-3.51-33.82-12.36-57.76-10.74-58.27Z"/>
      <path class="cls-3" d="m404.67,224.02c1.24-.39,7.92,13.21,12.27,29.13,12.16,44.58.13,86.04-1.53,85.87-1.18-.12,3.67-21.21,0-56.73-3.51-33.82-12.36-57.76-10.74-58.27Z"/>
    </g>
    <g id="tete">
      <path class="cls-10" d="m834.89,59.52c1.34-2.64-3.28-5.83-5-16-.29-1.73-.75-5.14-1-7-.62-4.6-.83-6.73-1-8-.23-1.68-1.25-9.23-6-16-1.51-2.15-5.8-8.09-14-11-1.4-.49-10.92-3.7-21,1-5.41,2.52-8.63,6.23-10,8-2.02,2.61-4.77,6.16-5,11-.12,2.48.52,3.33,0,6-.72,3.67-2.44,4.68-3,7-1.07,4.42,3.19,9.04,5,11,4.81,5.21,11.59,8.45,36,13,19.21,3.58,23.86,3.23,25,1Z"/>
      <path class="cls-5" d="m834.89,55.52c-8.63-8.36-12.57-6.44-18-13-5.06-6.11-2.78-9.15-8-14-6.3-5.86-14.55-6-16-6-8.38,0-15.8,4.42-20,10-9.98,13.25-3.47,35.15,8,42,4.84,2.89,11.81,3.84,13,4,5.77.78,11.3.27,14,0,6.22-.61,7.14-1.51,11-1,4.2.55,4.94,1.85,9,2,2.29.08,5.84.22,9-2,3.58-2.51,5.29-7.08,5-11-.08-1.03-.49-4.7-7-11Z"/>
      <path class="cls-9" d="m826.42,86.64l-48.98-6.84c-2.73-.38-4.64-2.91-4.26-5.64l.28-1.98c.38-2.73,2.91-4.64,5.64-4.26l56,7.82c.8.11,1.35.85,1.24,1.64l-.28,1.98c-.65,4.67-4.97,7.93-9.64,7.28Z"/>
    </g>
    <path id="bras-d" class="cls-5" d="m536.72,236.03c-13.67,7.66-20.94,16.93-24.53,22.43-3.53,5.4-5.45,10.15-7.35,14.83-3.55,8.75-4.98,15.89-7.7,29.83-2.18,11.16-1.93,12.58-1.33,13.97,3.92,9.15,20.03,11.41,30.78,9.73,1.82-.29,16.52-2.8,24.35-14.43,2.16-3.21,1.57-3.81,6.35-14.85,4.97-11.5,6.33-12.52,8.42-17.81,2.71-6.86,9.12-23.1,1.8-33.97-5.62-8.34-17.97-11.54-30.79-9.73Z"/>
    <path id="avant-bras-d" class="cls-5" d="m526.12,308.62c-13.08-4.01-27.51,4.54-32.78,15.44-5.72,11.83-.06,25.18,1.6,29.11,2.87,6.77,4.81,6.25,7.37,13.37,4.1,11.42.32,16.1,4.94,22.26,4.14,5.53,11.01,6.86,15.65,7.76,4.57.89,14.52,2.82,20.17-3.03,4.21-4.36,3.9-10.85,3.72-14.84-.44-9.35-4.6-11.09-6.08-19.31-2.12-11.78,5.25-14.67,4.25-25.83-.86-9.36-7.32-21.4-18.84-24.93Z"/>
    <g id="main-d">
      <path class="cls-8" d="m562.83,418.52h-8.51c-.73,0-1.32-.59-1.32-1.32v-8.51c0-1.17,1.42-1.76,2.25-.93l8.51,8.51c.83.83.25,2.25-.93,2.25Z"/>
      <path id="main-d-2" data-name="main-d" class="cls-1" d="m530.86,379.99c-3.53,0-8.57,0-13.51,3.4-4.61,3.18-6.53,7.55-7.16,9.21-1.62,4.26-1.2,7.73-.57,13.03.68,5.67,1.08,9,3.64,11.52,1.46,1.43,2.9,1.9,9.69,3.19,14.51,2.75,18.7,2.64,20.85,2.52,7.76-.43,9.79-2.18,10.41-2.77,2.68-2.53,3.62-6.48,3.19-9.69-.57-4.24-3.19-4.79-5.87-9.78-4.1-7.64-.46-11.07-4.15-15.61-4.08-5.01-11.92-5.01-16.52-5.02Z"/>
      <path class="cls-8" d="m561.83,420.52h-8.51c-.73,0-1.32-.59-1.32-1.32v-8.51c0-1.17,1.42-1.76,2.25-.93l8.51,8.51c.83.83.25,2.25-.93,2.25Z"/>
      <path class="cls-8" d="m555.83,422.52h-8.51c-.73,0-1.32-.59-1.32-1.32v-8.51c0-1.17,1.42-1.76,2.25-.93l8.51,8.51c.83.83.25,2.25-.93,2.25Z"/>
    </g>
    <g id="pied-d">
      <path class="cls-8" d="m388.83,419.52h-8.51c-.73,0-1.32-.59-1.32-1.32v-8.51c0-1.17,1.42-1.76,2.25-.93l8.51,8.51c.83.83.25,2.25-.93,2.25Z"/>
      <path class="cls-1" d="m355.01,390.52c-4.03.57-10.42,1.47-14,7-2.76,4.26-2.84,9.74-1,14,2.06,4.77,6.08,6.98,8,8,2.3,1.22,4.45,1.8,20,2,8.18.1,9.4-.03,11-1,4.43-2.67,6.78-8.69,6-14-.59-4.04-2.85-6.69-4-8-4.03-4.6-9.27-5.86-14-7-3.26-.78-7.06-1.7-12-1Z"/>
      <path class="cls-8" d="m387.83,420.52h-8.51c-.73,0-1.32-.59-1.32-1.32v-8.51c0-1.17,1.42-1.76,2.25-.93l8.51,8.51c.83.83.25,2.25-.93,2.25Z"/>
      <path class="cls-8" d="m382.83,421.52h-8.51c-.73,0-1.32-.59-1.32-1.32v-8.51c0-1.17,1.42-1.76,2.25-.93l8.51,8.51c.83.83.25,2.25-.93,2.25Z"/>
    </g>
    <g id="pied-g">
      <path class="cls-8" d="m448.83,408.52h-8.51c-.73,0-1.32-.59-1.32-1.32v-8.51c0-1.17,1.42-1.76,2.25-.93l8.51,8.51c.83.83.25,2.25-.93,2.25Z"/>
      <path class="cls-1" d="m418.01,380.52c-4.03.57-10.42,1.47-14,7-2.76,4.26-2.84,9.74-1,14,2.06,4.77,6.08,6.98,8,8,2.3,1.22,4.45,1.8,20,2,8.18.1,9.4-.03,11-1,4.43-2.67,6.78-8.69,6-14-.59-4.04-2.85-6.69-4-8-4.03-4.6-9.27-5.86-14-7-3.26-.78-7.06-1.7-12-1Z"/>
      <path class="cls-8" d="m448.83,410.52h-8.51c-.73,0-1.32-.59-1.32-1.32v-8.51c0-1.17,1.42-1.76,2.25-.93l8.51,8.51c.83.83.25,2.25-.93,2.25Z"/>
      <path class="cls-8" d="m444.83,411.52h-8.51c-.73,0-1.32-.59-1.32-1.32v-8.51c0-1.17,1.42-1.76,2.25-.93l8.51,8.51c.83.83.25,2.25-.93,2.25Z"/>
    </g>
    <g id="pied-g-2" data-name="pied-g">
      <path class="cls-8" d="m604.83,406.52h-8.51c-.73,0-1.32-.59-1.32-1.32v-8.51c0-1.17,1.42-1.76,2.25-.93l8.51,8.51c.83.83.25,2.25-.93,2.25Z"/>
      <path class="cls-1" d="m570.14,369.64c-3.5.43-8.51,1.04-13,5.01-4.19,3.72-5.57,8.28-5.99,10.01-1.09,4.43-.26,7.82,1.01,13,1.36,5.54,2.16,8.81,5.01,11,1.62,1.24,3.11,1.54,10,1.99,14.74.97,18.88.36,21-.02,7.65-1.37,9.45-3.35,10-4.01,2.35-2.83,2.8-6.87,1.99-10-1.07-4.14-3.75-4.37-7.01-8.99-5-7.09-1.8-10.93-6.01-14.99-4.65-4.51-12.43-3.56-17-3Z"/>
      <path class="cls-8" d="m604.83,408.52h-8.51c-.73,0-1.32-.59-1.32-1.32v-8.51c0-1.17,1.42-1.76,2.25-.93l8.51,8.51c.83.83.25,2.25-.93,2.25Z"/>
      <path class="cls-8" d="m598.83,409.52h-8.51c-.73,0-1.32-.59-1.32-1.32v-8.51c0-1.17,1.42-1.76,2.25-.93l8.51,8.51c.83.83.25,2.25-.93,2.25Z"/>
    </g>
    <g>
      <circle class="cls-4" cx="799.51" cy="39.02" r="8"/>
      <circle class="cls-7" cx="799.51" cy="39.02" r="6"/>
      <circle cx="801.51" cy="39.02" r="4"/>
      <circle class="cls-2" cx="799.51" cy="39.02" r="2"/>
    </g>
  </g>
</svg>