<?xml version="1.0" encoding="UTF-8"?>
<svg id="Calque_2" data-name="Calque 2" xmlns="http://www.w3.org/2000/svg" viewBox="0 0 538.5 539.5">
  <defs>
    <style>
      .cls-1 {
        fill: #f0566f;
      }

      .cls-2 {
        fill: #fff;
      }

      .cls-3 {
        fill: #ef91a0;
      }

      .cls-4 {
        fill: #fdc7c5;
      }

      .cls-5 {
        fill: #ff8289;
      }

      .cls-6 {
        fill: #3f70c6;
      }

      .cls-7 {
        fill: #ffe6d4;
      }

      .cls-8 {
        fill: #ffe6b4;
      }

      .cls-9 {
        fill: #3fffc6;
      }

      .cls-10 {
        fill: #ea7088;
      }

      .cls-11 {
        fill: #fdb1b9;
      }

      .cls-12 {
        fill: #cd496c;
      }
    </style>
  </defs>
  <g id="Calque_1-2" data-name="Calque 1">
    <g id="mollet-gauche">
      <path class="cls-10" d="m350.38,538.5h-24.24c-4.22,0-7.65-3.42-7.65-7.65v-16.21c0-9.47,7.68-17.15,17.15-17.15h15.97c5.46,0,9.88,4.42,9.88,9.88v20c.01,6.15-4.97,11.13-11.11,11.13Z"/>
      <path class="cls-10" d="m334.04,525.47h0c-6.78-2.07-11.03-8.43-9.8-14.66l9.63-48.75c.27-1.36.68-2.71,1.33-3.94,3.57-6.71,12.17-10.02,20.54-7.47l2,.61c8.37,2.55,13.67,10.09,12.89,17.65-.14,1.38-.55,2.73-1.09,4.01l-19.18,45.84c-2.46,5.87-9.53,8.78-16.32,6.71Z"/>
    </g>
    <path id="cuisse-gauche" class="cls-12" d="m359.75,483.79h0c-7.56,2.55-15.99-.69-20.49-7.89l-27.37-43.77c-5.11-16.3,3.12-33.38,18.37-38.16h0c15.25-4.78,31.75,4.56,36.85,20.86l4.24,50.3c.7,8.45-4.07,16.12-11.6,18.66Z"/>
    <g id="pied-gauche">
      <path class="cls-8" d="m369.99,538.5h-8.73c-1.53,0-2.76-1.24-2.76-2.76v-8.73c0-2.46,2.98-3.7,4.72-1.95l8.73,8.73c1.74,1.73.51,4.71-1.96,4.71Z"/>
      <path class="cls-12" d="m355.62,493.5h-11.24c-4.35,0-7.88,3.53-7.88,7.88-.03,1.12-.07,2.91,0,5.12.11,3.88.4,4.76,0,6.56-.22.98-.78,3.55-3,5.44-2.75,2.34-6.26,2.1-7.26,2-.52,0-3.26.05-5.47,2.27-1.4,1.4-2.27,3.33-2.27,5.47v2.53c0,4.27,3.46,7.74,7.74,7.74h31.26v-.3c3.46-.95,6-4.11,6-7.87v-28.94c0-4.37-3.53-7.9-7.88-7.9Z"/>
      <path class="cls-7" d="m365.99,538.5h-8.73c-1.53,0-2.76-1.24-2.76-2.76v-8.73c0-2.46,2.98-3.7,4.72-1.95l8.73,8.73c1.74,1.73.51,4.71-1.96,4.71Z"/>
    </g>
    <g id="avant-bras-gauche">
      <path class="cls-10" d="m458.88,539h-24.24c-4.22,0-7.65-3.42-7.65-7.65v-16.21c0-9.47,7.68-17.15,17.15-17.15h15.97c5.46,0,9.88,4.42,9.88,9.88v20c.01,6.15-4.97,11.13-11.11,11.13Z"/>
      <path class="cls-10" d="m454.5,531.5h0c-7.17,0-13.16-5.75-13.81-13.27l-5.19-60.36c0-10.42,8.03-18.87,17.94-18.87h2.11c9.91,0,17.94,8.45,17.94,18.87l-5.19,60.36c-.64,7.52-6.63,13.27-13.8,13.27Z"/>
    </g>
    <path id="bras-gauche" class="cls-12" d="m454,467h0c-10.19,0-18.7-7.78-19.62-17.93l-7.38-81.57c0-14.08,11.42-25.5,25.5-25.5h3c14.08,0,25.5,11.42,25.5,25.5l-7.38,81.57c-.92,10.15-9.43,17.93-19.62,17.93Z"/>
    <g id="pied-gauche-2" data-name="pied-gauche">
      <path class="cls-8" d="m477.99,539.5h-8.73c-1.53,0-2.76-1.24-2.76-2.76v-8.73c0-2.46,2.98-3.7,4.72-1.95l8.73,8.73c1.74,1.73.51,4.71-1.96,4.71Z"/>
      <path class="cls-12" d="m464.12,494h-11.24c-4.35,0-7.88,3.53-7.88,7.88-.03,1.12-.07,2.91,0,5.12.11,3.88.4,4.76,0,6.56-.22.98-.78,3.55-3,5.44-2.75,2.34-6.26,2.1-7.26,2-.52,0-3.26.05-5.47,2.27-1.4,1.4-2.27,3.33-2.27,5.47v2.53c0,4.27,3.46,7.74,7.74,7.74h31.26v-.3c3.46-.95,6-4.11,6-7.87v-28.94c0-4.37-3.53-7.9-7.88-7.9Z"/>
      <path class="cls-7" d="m473.99,539.5h-8.73c-1.53,0-2.76-1.24-2.76-2.76v-8.73c0-2.46,2.98-3.7,4.72-1.95l8.73,8.73c1.74,1.73.51,4.71-1.96,4.71Z"/>
    </g>
    <path id="queue" class="cls-10" d="m0,535c-.22-2.73,19.78-.47,44-13,28.46-14.72,44.61-40.47,60-65,12.58-20.06,9.76-20.74,21-37,4.73-6.85,20.84-29.29,49-51,30.12-23.21,57.73-33.03,75-39,32.51-11.25,48.77-16.87,64-11,35.56,13.7,52,73.87,35,92-11.98,12.78-36.29.08-93,11-8.86,1.71-16.16,3.54-18,4-11.83,2.99-32.11,8.23-54,19-28.7,14.12-48.29,31.91-56,39-10.87,10-14.17,14.88-27,25-9.61,7.58-20.45,16.14-34,22C34.52,544.62.28,538.56,0,535Z"/>
    <g id="cou">
      <path class="cls-10" d="m461.5,362c12.7,0,23-10.57,23-23.62V37.5h-8.62c-20.65,0-37.38,17.19-37.38,38.39v262.49c0,13.05,10.3,23.62,23,23.62Z"/>
      <path class="cls-3" d="m501,13.5c-3.65-1.83-7.81-1.46-13-1-7.41.66-12.77,3.06-17,5-3.46,1.59-10.06,4.68-17,11-3.87,3.52-13.78,12.55-17,27-.6,2.7-.23,2.25-1,13-1.66,23.12-3.43,25.57-1,29,5.73,8.1,25.29,8.25,32,0,4.09-5.03.52-9.64,5-23,2.23-6.66,3.81-11.38,8-15,9.04-7.82,18.93-.74,26-7,9.37-8.29,6.31-33.34-5-39Z"/>
    </g>
    <g id="avant-bras-droit">
      <path class="cls-10" d="m425.88,539h-24.24c-4.22,0-7.65-3.42-7.65-7.65v-16.21c0-9.47,7.68-17.15,17.15-17.15h15.97c5.46,0,9.88,4.42,9.88,9.88v20c.01,6.15-4.97,11.13-11.11,11.13Z"/>
      <path class="cls-3" d="m421.5,531.5h0c-7.17,0-13.16-5.75-13.81-13.27l-5.19-60.36c0-10.42,8.03-18.87,17.94-18.87h2.11c9.91,0,17.94,8.45,17.94,18.87l-5.19,60.36c-.64,7.52-6.63,13.27-13.8,13.27Z"/>
    </g>
    <g id="corps">
      <path class="cls-10" d="m392.41,443.5h-127.5c-8.51,0-15.41-6.9-15.41-15.41v-41.82c0-49.02,39.74-88.76,88.76-88.76h127.82c8.51,0,15.41,6.9,15.41,15.41v41.5c.01,49.19-39.88,89.08-89.08,89.08Z"/>
      <circle class="cls-12" cx="421" cy="368" r="41"/>
      <path class="cls-12" d="m304,304c10.23-4.07,20.01-5.46,24-6,4.79-.65,8.47-.84,18-1,26.29-.45,39.44-.68,46,0,9.05.93,15.16,2.23,24,0,4.48-1.13,10.65-2.78,14-8,3.3-5.15.22-8.1,3-15,3.94-9.78,14.07-13.66,15-14,.83-.3,10.2-3.6,18,0,15.66,7.22,21.84,40.72,8,60-9.16,12.76-24.89,16.22-33,18-18.23,4.01-25.46-2.11-48,3-7.5,1.7-14.21,3.22-22,8-2.86,1.76-22.75,14.33-26,35-1.08,6.83.67,8.15-1,18-.9,5.27-2.27,13.32-7,21-6.65,10.77-16.64,15.48-22,18-13.52,6.36-25.35,5.24-49,3-5.52-.52-10.41-1.25-14-5-4.85-5.07-4.37-12.6-4-19,2.39-41.42.34-35.05,2-43,3.2-15.36,6.63-31.82,20-48,3.99-4.83,15.47-17.63,34-25Z"/>
    </g>
    <g id="mollet-droit">
      <path class="cls-10" d="m297.38,538.5h-24.24c-4.22,0-7.65-3.42-7.65-7.65v-16.21c0-9.47,7.68-17.15,17.15-17.15h15.97c5.46,0,9.88,4.42,9.88,9.88v20c.01,6.15-4.97,11.13-11.11,11.13Z"/>
      <path id="mollet-droite" class="cls-3" d="m281.04,525.47h0c-6.78-2.07-11.03-8.43-9.8-14.66l9.63-48.75c.27-1.36.68-2.71,1.33-3.94,3.57-6.71,12.17-10.02,20.54-7.47l2,.61c8.37,2.55,13.67,10.09,12.89,17.65-.14,1.38-.55,2.73-1.09,4.01l-19.18,45.84c-2.46,5.87-9.53,8.78-16.32,6.71Z"/>
    </g>
    <path id="cuisse-droite" class="cls-10" d="m306.75,483.79h0c-7.56,2.55-15.99-.69-20.49-7.89l-27.37-43.77c-5.11-16.3,3.12-33.38,18.37-38.16h0c15.25-4.78,31.75,4.56,36.85,20.86l4.24,50.3c.7,8.45-4.07,16.12-11.6,18.66Z"/>
    <path id="bras-droit" class="cls-10" d="m421,467h0c-10.19,0-18.7-7.78-19.62-17.93l-7.38-81.57c0-14.08,11.42-25.5,25.5-25.5h3c14.08,0,25.5,11.42,25.5,25.5l-7.38,81.57c-.92,10.15-9.43,17.93-19.62,17.93Z"/>
    <g id="tete">
      <path class="cls-5" d="m509.03,46h21.94c3.88,0,7.03-3.15,7.03-7.03v-8.94c0-3.88-3.15-7.03-7.03-7.03h-21.94c-3.88,0-7.03,3.15-7.03,7.03v8.94c0,3.88,3.15,7.03,7.03,7.03Z"/>
      <path class="cls-4" d="m517.33,37h6.13s.03-.02.03-.04v-6.65c0-4.03,2.58-7.31,5.77-7.31h3.47c3.19,0,5.77,3.27,5.77,7.31v10.33c0,2.41-1.54,4.36-3.45,4.36h-17.89c-1.84,0-3.31-1.99-3.15-4.36.15-2.1,1.65-3.64,3.32-3.64Z"/>
      <path class="cls-12" d="m507.71,57h19.29c3.87,0,7-3.13,7-7h0c0-3.87-3.13-7-7-7h-26.71c-1.82,0-3.29,1.47-3.29,3.29h0c0,5.92,4.79,10.71,10.71,10.71Z"/>
      <ellipse class="cls-5" cx="506.5" cy="12.5" rx="13.5" ry="12.5"/>
      <path class="cls-12" d="m493.78,55h1.44c4.85,0,8.78-3.93,8.78-8.78V13.78c0-4.85-3.93-8.78-8.78-8.78h-1.44c-4.85,0-8.78,3.93-8.78,8.78v32.44c0,4.85,3.93,8.78,8.78,8.78Z"/>
      <path class="cls-11" d="m493.59,5h1.41c4.74,0,8.59,3.93,8.59,8.78v18.32c2.23.46,3.91,2.48,3.91,4.9v1c0,2.76-2.19,5-4.89,5h-16.62c-.54,0-.98-.46-.98-1.01V13.78c-.01-4.85,3.84-8.78,8.58-8.78Z"/>
      <path class="cls-10" d="m529,45.5h-20c-.83,0-1.5-.67-1.5-1.5h0c0-.83.67-1.5,1.5-1.5h20c.83,0,1.5.67,1.5,1.5h0c0,.83-.67,1.5-1.5,1.5Z"/>
      <circle class="cls-1" cx="510.5" cy="8.5" r="3"/>
      <circle class="cls-1" cx="532.5" cy="28.5" r="1"/>
    </g>
    <g id="pied-droit">
      <path class="cls-8" d="m444.99,539.5h-8.73c-1.53,0-2.76-1.24-2.76-2.76v-8.73c0-2.46,2.98-3.7,4.72-1.95l8.73,8.73c1.74,1.73.51,4.71-1.96,4.71Z"/>
      <path class="cls-12" d="m431.12,494h-11.24c-4.35,0-7.88,3.53-7.88,7.88-.03,1.12-.07,2.91,0,5.12.11,3.88.4,4.76,0,6.56-.22.98-.78,3.55-3,5.44-2.75,2.34-6.26,2.1-7.26,2-.52,0-3.26.05-5.47,2.27-1.4,1.4-2.27,3.33-2.27,5.47v2.53c0,4.27,3.46,7.74,7.74,7.74h31.26v-.3c3.46-.95,6-4.11,6-7.87v-28.94c0-4.37-3.53-7.9-7.88-7.9Z"/>
      <path class="cls-7" d="m440.99,539.5h-8.73c-1.53,0-2.76-1.24-2.76-2.76v-8.73c0-2.46,2.98-3.7,4.72-1.95l8.73,8.73c1.74,1.73.51,4.71-1.96,4.71Z"/>
    </g>
    <g id="pied-droit-2" data-name="pied-droit">
      <path class="cls-8" d="m316.99,538.5h-8.73c-1.53,0-2.76-1.24-2.76-2.76v-8.73c0-2.46,2.98-3.7,4.72-1.95l8.73,8.73c1.74,1.73.51,4.71-1.96,4.71Z"/>
      <path class="cls-12" d="m302.62,493.5h-11.24c-4.35,0-7.88,3.53-7.88,7.88-.03,1.12-.07,2.91,0,5.12.11,3.88.4,4.76,0,6.56-.22.98-.78,3.55-3,5.44-2.75,2.34-6.26,2.1-7.26,2-.52,0-3.26.05-5.47,2.27-1.4,1.4-2.27,3.33-2.27,5.47v2.53c0,4.27,3.46,7.74,7.74,7.74h31.26v-.3c3.46-.95,6-4.11,6-7.87v-28.94c0-4.37-3.53-7.9-7.88-7.9Z"/>
      <path class="cls-7" d="m312.99,538.5h-8.73c-1.53,0-2.76-1.24-2.76-2.76v-8.73c0-2.46,2.98-3.7,4.72-1.95l8.73,8.73c1.74,1.73.51,4.71-1.96,4.71Z"/>
    </g>
    <g>
      <circle class="cls-6" cx="508.5" cy="23.5" r="5"/>
      <circle class="cls-9" cx="508.5" cy="23.5" r="3.75"/>
      <circle cx="509.75" cy="23.5" r="2.5"/>
      <circle class="cls-2" cx="508.5" cy="23.5" r="1.25"/>
    </g>
  </g>
</svg>