<?xml version="1.0" encoding="UTF-8"?>
<svg id="Calque_2" data-name="Calque 2" xmlns="http://www.w3.org/2000/svg" xmlns:xlink="http://www.w3.org/1999/xlink" viewBox="0 0 543.45 192.39">
  <defs>
    <style>
      .cls-1 {
        fill: #fff;
      }

      .cls-2 {
        fill: url(#Dégradé_sans_nom_2);
      }

      .cls-3 {
        fill: #fb8c21;
      }

      .cls-4 {
        fill: #e85d04;
      }

      .cls-5 {
        fill: #f1a51c;
      }

      .cls-6 {
        fill: #3f70c6;
      }

      .cls-7 {
        fill: #7f5200;
      }

      .cls-8 {
        fill: #ffbf00;
      }

      .cls-9 {
        fill: #9e2a2b;
      }

      .cls-10 {
        fill: #eba11c;
      }

      .cls-11 {
        fill: #0081a7;
      }

      .cls-12 {
        fill: #950000;
      }

      .cls-13 {
        fill: #d00000;
      }

      .cls-14 {
        fill: #e4541b;
      }

      .cls-15 {
        fill: #c35b1b;
      }

      .cls-16 {
        fill: url(#Dégradé_sans_nom_3);
      }

      .cls-17 {
        fill: url(#Dégradé_sans_nom_4);
      }

      .cls-18 {
        fill: #3fffc6;
      }

      .cls-19 {
        fill: url(#Dégradé_sans_nom_4-2);
      }

      .cls-20 {
        fill: #540b0e;
      }
    </style>
    <linearGradient id="Dégradé_sans_nom_4" data-name="Dégradé sans nom 4" x1="269.38" y1="136.81" x2="334.36" y2="136.81" gradientTransform="translate(0 215.47) scale(1 -1)" gradientUnits="userSpaceOnUse">
      <stop offset="0" stop-color="#f1a51c"/>
      <stop offset="1" stop-color="#ed6a1d"/>
    </linearGradient>
    <linearGradient id="Dégradé_sans_nom_2" data-name="Dégradé sans nom 2" x1="423.56" y1="71.62" x2="245.44" y2="249.75" gradientTransform="translate(0 215.47) scale(1 -1)" gradientUnits="userSpaceOnUse">
      <stop offset="0" stop-color="#75e0f4"/>
      <stop offset=".09" stop-color="#6cd9f1"/>
      <stop offset=".23" stop-color="#52c5e8"/>
      <stop offset=".41" stop-color="#29a5db"/>
      <stop offset=".45" stop-color="#1e9cd7"/>
      <stop offset=".87" stop-color="#0075be"/>
      <stop offset=".99" stop-color="#005b97"/>
    </linearGradient>
    <linearGradient id="Dégradé_sans_nom_3" data-name="Dégradé sans nom 3" x1="150.09" y1="124" x2="318.34" y2="124" gradientTransform="translate(0 215.47) scale(1 -1)" gradientUnits="userSpaceOnUse">
      <stop offset="0" stop-color="#fb8c21"/>
      <stop offset=".67" stop-color="#e4541b"/>
    </linearGradient>
    <linearGradient id="Dégradé_sans_nom_4-2" data-name="Dégradé sans nom 4" x1="230.38" y1="134.81" x2="295.36" y2="134.81" xlink:href="#Dégradé_sans_nom_4"/>
  </defs>
  <g id="Calque_1-2" data-name="Calque 1">
    <path id="bras-droit" class="cls-5" d="m137.19,93.24c-8.42,2.27-13.89,10.53-15,18-.87,5.9,1.42,10.6,6,20,2.4,4.92,6.6,12.26,14,19,6.3,5.74,9.44,6.03,11,6,4.17-.09,8.01-2.78,10-6,1.32-2.13,2.08-4.9,0-17-1.89-11-4.2-18.48-5-21-4.86-15.34-7.76-17.29-9-18-5.02-2.88-10.64-1.37-12-1Z"/>
    <g id="main-droite">
      <path class="cls-15" d="m148.72,170.21c2.87.84,2.26,5.75,2.21,6.06-.56,4.13-4.19,9.01-8.08,9.99-1.88.48-2.12-.39-4.62.25-2.35.59-2.99,1.57-6.27,2.55-2.59.77-3.35.51-3.58.42-1.31-.52-1.42-2.04-1.48-2.84-.14-1.96.82-4.29,1.5-4.39.44-.06.89.79.59,1.13-.35.4-1.45-.19-3.87-.14-1.73.03-2.15.36-2.83.03-1.22-.57-1.19-2.18-1.18-2.27.04-1.32.98-2.05.6-2.48-.41-.47-1.62.31-2.83.03-1.46-.33-2.41-2.1-1.78-3.4.64-1.31,2.76-1.85,7.01-2.94,2.46-.63,4.87-1.23,7.9-1.24,1.84,0,1.75.21,4.91.32,2.53.09,3.87.13,5.66-.07,3.92-.41,4.72-1.42,6.14-1.01Z"/>
      <path class="cls-7" d="m124.99,180.87c-.19-1.11-1.48-1.87-2.68-1.5-.21.07-.3.13-.75.39-1.89,1.09-2.33,1.09-3.73,1.95-1.18.72-1.9,1.16-2,1.62-.16.71,1.24.94,1.46.98.62.1,1.13.02,2.71-.26,3.51-.62,3.85-.74,4.21-1.04,1-.82.81-1.96.78-2.14Z"/>
      <path class="cls-7" d="m121.98,175.31c-.19-1.11-1.48-1.87-2.68-1.5-.21.07-.3.13-.75.39-1.89,1.09-2.33,1.09-3.73,1.95-1.18.72-1.9,1.16-2,1.62-.16.71,1.24.94,1.46.98.62.1,1.13.02,2.71-.26,3.51-.62,3.85-.74,4.21-1.04,1-.82.81-1.96.78-2.14Z"/>
      <path class="cls-7" d="m129.95,187.41c.47-1.1-.83-2.15-2.23-2.11-.69.02-1.4.29-1.64.39-.55.21-.81.41-1.52.89-1.89,1.26-2.12,1.28-2.22,1.58-.2.59.5,1.1,1.17,1.31.9.28,1.91.06,2.58-.08.83-.2,3.32-.73,3.86-1.98Z"/>
    </g>
    <path id="avant-bras-droit" class="cls-15" d="m156.19,142.24c-4.35-1.46-10.65-1.38-13,2-.7,1-.58,1.62-1,4-.41,2.34-.71,2.78-4,12-2.87,8.04-3.16,9.15-3,11,.13,1.5.41,4.9,3,7,3.03,2.45,8,2.14,11,0,2.86-2.04,1.47-3.97,6-11,.94-1.45,1.68-2.42,4-6,2.08-3.2,2.56-4.07,3-5,1.43-3.02,2.34-4.93,2-7-.75-4.56-7.06-6.68-8-7Z"/>
    <path id="mollet-droit" class="cls-15" d="m317.75,126.08c-4.49-2.19-10.59.59-13.72,4.18-2.83,3.24-1.33,4.95-4.77,10.74-1.1,1.84-3.21,5.4-7.16,8.35-4.45,3.33-6.48,2.34-8.95,5.37-1.98,2.44-3.06,6.01-2.39,9.55.76,4.01,3.68,7.64,7.76,8.95.52.17,4.46,1.37,8.35-.6,3.55-1.79,3.41-4.38,7.76-9.55,1.64-1.95,3.68-3.69,7.76-7.16,7.46-6.36,8.69-6.15,10.14-8.95,2.72-5.22,1.06-10.94.6-12.53-.82-2.77-1.95-6.68-5.38-8.35Z"/>
    <g id="pied-droite">
      <path class="cls-7" d="m263.41,178.39c-.39-.9-1.92-.98-3.88-1.08-1.09-.06-2.74-.13-4.79.52-2.07.65-4.73,2.09-4.53,2.92.1.41,1.07.55,3.02.84.85.13,2.19.29,4.55.34,3.02.06,3.51-.16,3.81-.33,1.21-.7,2.24-2.25,1.82-3.21Z"/>
      <path class="cls-15" d="m282.86,155.33c-2.53,2.09-1.29,3.77-4.2,7.79-3.35,4.64-8.27,6.94-11.39,8.39-3.61,1.68-6.02,2.1-9.59,4.8-1.48,1.12-2.77,2.33-3.6,4.2-.43.97-1.67,3.76-.6,5.4,3.18,4.85,23.11-1.54,17.38-.6h0s6.37.71,10.79-1.2c5.74-2.47,3.88-7.48,10.19-10.79,3.37-1.76,5.78-1.32,8.39-4.2.68-.75,2.14-2.39,2.4-4.8.44-4.1-2.96-7.21-3.6-7.79-4.41-4.05-12.13-4.54-16.17-1.2Z"/>
      <path class="cls-7" d="m263.41,184.39c-.39-.9-1.92-.98-3.88-1.08-1.09-.06-2.74-.13-4.79.52-2.07.65-4.73,2.09-4.53,2.92.1.41,1.07.55,3.02.84.85.13,2.19.29,4.55.34,3.02.06,3.51-.16,3.81-.33,1.21-.7,2.24-2.25,1.82-3.21Z"/>
    </g>
    <path id="cuisse-droit" class="cls-5" d="m308.67,85.52c-3.14-3.37-10.42-11.2-21.14-10.5-8.63.57-17.42,6.54-19.76,14.64-1.57,5.42,1.32,11.32,7.11,23.12,1.84,3.75,1.73,3.08,19.15,28.11,2.5,3.59,5.03,7.23,9.61,8.46,5.64,1.52,10.92-1.55,11.82-2.08,1.14-.66,4.9-2.92,6.84-7.29,1.82-4.11.88-7.48-.63-15.12-3.28-16.66-1.64-15.14-3.81-21.67-2.07-6.28-4.01-12.11-9.19-17.67Z"/>
    <g id="cou">
      <path class="cls-14" d="m56.19,130.24c7.01-4.02,10.29-3.79,20-7,7.53-2.49,14.36-6,28-13,17.34-8.9,17.65-10.44,27-14,6.95-2.64,14.69-5.52,25-6,10.41-.49,22.23-1.04,30,7,10.1,10.44,8.95,30.82,0,39-4.4,4.03-7.73,2.39-27,8-8.14,2.37-7.93,2.78-18,6-7.09,2.27-20.7,6.58-38,10-6.62,1.31-15.75,2.2-34,4-8.57.84-13.82,1.24-19-2-4.91-3.07-9.66-9.35-9-16,.78-7.84,8.71-12.39,15-16Z"/>
      <path class="cls-3" d="m56.19,124.24c7.01-4.02,10.29-3.79,20-7,7.53-2.49,14.36-6,28-13,17.34-8.9,17.65-10.44,27-14,6.95-2.64,14.69-5.52,25-6,10.41-.49,22.23-1.04,30,7,10.1,10.44,8.95,30.82,0,39-4.4,4.03-7.73,2.39-27,8-8.14,2.37-7.93,2.78-18,6-7.09,2.27-20.7,6.58-38,10-6.62,1.31-15.75,2.2-34,4-8.57.84-13.82,1.24-19-2-4.91-3.07-9.66-9.35-9-16,.78-7.84,8.71-12.39,15-16Z"/>
    </g>
    <path id="machoire-inf" class="cls-9" d="m26.19,146.24c-1.23-.38-2.33,3.64-7,9-6.6,7.58-13.71,10.26-13,12,.26.63,1.84.76,5,1,3.04.24,4.57.35,6,0,4.72-1.17,7.06-6.76,8-9,2.36-5.65,2.55-12.52,1-13Z"/>
    <path id="mollet-gauche" class="cls-15" d="m278.75,128.08c-4.49-2.19-10.59.59-13.72,4.18-2.83,3.24-1.33,4.95-4.77,10.74-1.1,1.84-3.21,5.4-7.16,8.35-4.45,3.33-6.48,2.34-8.95,5.37-1.98,2.44-3.06,6.01-2.39,9.55.76,4.01,3.68,7.64,7.76,8.95.52.17,4.46,1.37,8.35-.6,3.55-1.79,3.41-4.38,7.76-9.55,1.64-1.95,3.68-3.69,7.76-7.16,7.46-6.36,8.69-6.15,10.14-8.95,2.72-5.22,1.06-10.94.6-12.53-.82-2.77-1.95-6.68-5.38-8.35Z"/>
    <g id="pied-gauche">
      <path class="cls-7" d="m224.41,180.39c-.39-.9-1.92-.98-3.88-1.08-1.09-.06-2.74-.13-4.79.52-2.07.65-4.73,2.09-4.53,2.92.1.41,1.07.55,3.02.84.85.13,2.19.29,4.55.34,3.02.06,3.51-.16,3.81-.33,1.21-.7,2.24-2.25,1.82-3.21Z"/>
      <path class="cls-15" d="m243.86,157.33c-2.53,2.09-1.29,3.77-4.2,7.79-3.35,4.64-8.27,6.94-11.39,8.39-3.61,1.68-6.02,2.1-9.59,4.8-1.48,1.12-2.77,2.33-3.6,4.2-.43.97-1.67,3.76-.6,5.4,3.18,4.85,23.11-1.54,17.38-.6h0s6.37.71,10.79-1.2c5.74-2.47,3.88-7.48,10.19-10.79,3.37-1.76,5.78-1.32,8.39-4.2.68-.75,2.14-2.39,2.4-4.8.44-4.1-2.96-7.21-3.6-7.79-4.41-4.05-12.13-4.54-16.17-1.2Z"/>
      <path class="cls-7" d="m224.41,186.39c-.39-.9-1.92-.98-3.88-1.08-1.09-.06-2.74-.13-4.79.52-2.07.65-4.73,2.09-4.53,2.92.1.41,1.07.55,3.02.84.85.13,2.19.29,4.55.34,3.02.06,3.51-.16,3.81-.33,1.21-.7,2.24-2.25,1.82-3.21Z"/>
    </g>
    <path id="cuisse-gauche" class="cls-5" d="m269.67,87.52c-3.14-3.37-10.42-11.2-21.14-10.5-8.63.57-17.42,6.54-19.76,14.64-1.57,5.42,1.32,11.32,7.11,23.12,1.84,3.75,1.73,3.08,19.15,28.11,2.5,3.59,5.03,7.23,9.61,8.46,5.64,1.52,10.92-1.55,11.82-2.08,1.14-.66,4.9-2.92,6.84-7.29,1.82-4.11.88-7.48-.63-15.12-3.28-16.66-1.64-15.14-3.81-21.67-2.07-6.28-4.01-12.11-9.19-17.67Z"/>
    <g id="main-gauche">
      <path class="cls-15" d="m183.84,167.52c2.98.1,3.61,5.02,3.64,5.32.48,4.14-1.84,9.76-5.36,11.68-1.7.92-2.15.15-4.41,1.38-2.13,1.15-2.51,2.26-5.44,4.02-2.31,1.39-3.12,1.33-3.36,1.3-1.4-.18-1.88-1.63-2.14-2.38-.62-1.86-.27-4.36.37-4.63.41-.17,1.06.54.85.95-.24.47-1.45.17-3.79.82-1.67.46-1.99.88-2.73.73-1.32-.25-1.69-1.81-1.71-1.9-.28-1.29.45-2.23-.03-2.55-.52-.35-1.5.7-2.73.73-1.5.04-2.85-1.44-2.56-2.86.29-1.42,2.22-2.48,6.07-4.58,2.23-1.22,4.41-2.4,7.35-3.15,1.78-.46,1.75-.23,4.84-.91,2.47-.54,3.78-.83,5.47-1.47,3.67-1.38,4.2-2.55,5.67-2.5Z"/>
      <path class="cls-7" d="m163.49,183.72c-.45-1.03-1.9-1.45-2.97-.79-.19.12-.26.2-.63.56-1.56,1.53-1.99,1.64-3.13,2.81-.97.99-1.55,1.59-1.54,2.07.02.73,1.44.6,1.66.58.63-.06,1.1-.26,2.57-.92,3.25-1.47,3.55-1.67,3.82-2.05.76-1.04.3-2.09.22-2.26Z"/>
      <path class="cls-7" d="m159.2,179.08c-.45-1.03-1.9-1.45-2.97-.79-.19.12-.26.2-.63.56-1.56,1.53-1.99,1.64-3.13,2.81-.97.99-1.55,1.59-1.54,2.07.02.73,1.44.6,1.66.58.63-.06,1.1-.26,2.57-.92,3.25-1.47,3.55-1.67,3.82-2.05.76-1.04.29-2.09.22-2.26Z"/>
      <path class="cls-7" d="m169.91,188.82c.18-1.18-1.33-1.87-2.68-1.5-.66.19-1.28.63-1.49.78-.48.34-.69.6-1.25,1.23-1.52,1.69-1.74,1.76-1.76,2.08-.05.62.76.94,1.46.98.94.05,1.86-.41,2.48-.71.75-.38,3.03-1.51,3.24-2.86Z"/>
    </g>
    <path id="avant-bras-gauche" class="cls-15" d="m193.19,140.24c-4.35-1.46-10.65-1.38-13,2-.7,1-.58,1.62-1,4-.41,2.34-.71,2.78-4,12-2.87,8.04-3.16,9.15-3,11,.13,1.5.41,4.9,3,7,3.03,2.45,8,2.14,11,0,2.86-2.04,1.47-3.97,6-11,.94-1.45,1.68-2.42,4-6,2.08-3.2,2.56-4.07,3-5,1.43-3.02,2.34-4.93,2-7-.75-4.56-7.06-6.68-8-7Z"/>
    <g id="bras-gauche">
      <path class="cls-5" d="m174.19,91.24c-8.42,2.27-13.89,10.53-15,18-.87,5.9,1.42,10.6,6,20,2.4,4.92,6.6,12.26,14,19,6.3,5.74,9.44,6.03,11,6,4.17-.09,8.01-2.78,10-6,1.32-2.13,2.08-4.9,0-17-1.89-11-4.2-18.48-5-21-4.86-15.34-7.76-17.29-9-18-5.02-2.88-10.64-1.37-12-1Z"/>
      <ellipse class="cls-8" cx="173.17" cy="107.73" rx="3.39" ry="5.62" transform="translate(-30.66 101.02) rotate(-30)"/>
      <ellipse class="cls-8" cx="188.17" cy="112.73" rx="3.39" ry="5.62" transform="translate(-31.15 109.19) rotate(-30)"/>
    </g>
    <g id="corps">
      <path class="cls-17" d="m318.19,95.24c5.38-2.85,9.01-4.82,12-9,3.25-4.54,3.88-9.08,4-10,.7-5.51-.65-12.64-6-18-4.94-4.94-11.94-7.02-18-6-2.97.5-4.98,1.67-9,4-6.67,3.87-7.41,6.35-15,11-4.48,2.74-4.53,2.06-7,4-1.89,1.48-7.2,5.64-9,13-.52,2.15-2.29,9.37,2,15,3.8,4.99,10.03,5.67,13,6,5.26.58,10.51-1.28,21-5,7.54-2.67,11-4.47,12-5Z"/>
      <path class="cls-2" d="m125.19,98.24c-.91-3.23.17-6.36,2-10,4.55-9.04,10.72-15.33,21-25,6.98-6.57,10.48-9.86,12-11,3.28-2.45,11.93-8.54,26-13,5.72-1.81,11.26-3.01,35-5,23.01-1.92,43.06-2.91,45-3,19.57-.94,22.9-.71,33-2,10.89-1.39,12.5-2.37,28-5,16.61-2.82,29.42-4.2,37-5,12.15-1.28,25.3-2.67,42-3,24.21-.47,26.49,1.86,52,1,19.57-.66,29.51-1.07,37-5,6.11-3.21,12.29-8.19,24-11,9.55-2.29,13.29-.86,15,0,6.68,3.36,10.31,12.01,9,19-1.36,7.26-7.85,11.57-10,13-29.05,19.29-165,27-165,27-75.13,4.26-112.69,6.39-147,23,0,0-67.84,32.85-88,23-6.66-3.25-8-8-8-8Z"/>
      <path class="cls-14" d="m153.19,82.24c5.97-11.55,15.35-18.07,21-22,4.17-2.9,12.23-7.88,27-12,18.42-5.13,32.47-4.79,45-5,25.09-.42,16.33-2.58,65-6,27.21-1.91,46.61-3.28,73-3,30.13.32,45.2.47,62,2,16.91,1.54,28.44,3.43,43,0,17.45-4.11,26.18-6.17,31-11,.78-.78,3.48-3.63,6-3,2.44.61,3.85,4.25,4,7,.23,4.11-2.3,7.17-3,8-3.12,3.68-6.33,3.52-16,8-2.78,1.29-3.52,1.77-6,3-11.8,5.86-25.96,10.36-28,11-15.62,4.91-29.36,8.2-52,14-14.02,3.59-23.96,6.22-42,11-30.68,8.13-18.11,5.02-37,10-23.52,6.2-30.6,7.75-42,13-1.52.7-7.36,3.81-19,10-30.04,15.98-28.75,15.48-30,16-9.96,4.13-8.25,1.45-54,9-5.83.96-13.23,2.22-23,1-7.28-.91-14.37-1.8-20-6-13.85-10.33-14.2-37.21-5-55Z"/>
      <path class="cls-16" d="m310.19,44.24c9.11,6.52,8.27,20.93,8,24-.72,8.22-4.25,13.84-10,23-1.14,1.82-7.03,11.08-14,18-8.46,8.4-18.64,13.46-61,24-39.87,9.92-46.82,9.42-54,7-2.95-.99-23.01-7.75-28-25-6.16-21.27,15.45-41.69,20-46,19.66-18.59,45.52-21.09,55-22,17.82-1.72,20.22,2.71,37-1,7.87-1.74,17.43-4.94,32-5,9.14-.04,12.47,1.19,15,3Z"/>
      <path class="cls-19" d="m279.19,97.24c5.38-2.85,9.01-4.82,12-9,3.25-4.54,3.88-9.08,4-10,.7-5.51-.65-12.64-6-18-4.94-4.94-11.94-7.02-18-6-2.97.5-4.98,1.67-9,4-6.67,3.87-7.41,6.35-15,11-4.48,2.74-4.53,2.06-7,4-1.89,1.48-7.2,5.64-9,13-.52,2.15-2.29,9.37,2,15,3.8,4.99,10.03,5.67,13,6,5.26.58,10.51-1.28,21-5,7.54-2.67,11-4.47,12-5Z"/>
      <path class="cls-10" d="m176.19,79.24c-2.68,1.04-5.12,3.7-10,9-5.31,5.78-7.97,8.67-9,12-.3.99-3.02,10.32,3,17,.57.63,4.27,4.61,10,5,4.88.33,8.65-2.44,16-8,7.76-5.87,11.63-8.8,13-13,1.71-5.25,1.16-12.73-4-18-5.47-5.59-13.6-6.1-19-4Z"/>
      <ellipse class="cls-8" cx="207.17" cy="68.7" rx="17.54" ry="10.58" transform="translate(-4.8 16.67) rotate(-4.55)"/>
      <ellipse class="cls-8" cx="341.16" cy="68.7" rx="17.54" ry="10.58" transform="translate(-4.38 27.31) rotate(-4.55)"/>
      <ellipse class="cls-8" cx="394.16" cy="61.7" rx="17.54" ry="10.58" transform="translate(-3.65 31.49) rotate(-4.55)"/>
      <ellipse class="cls-8" cx="445.34" cy="53.97" rx="17.54" ry="8.3" transform="translate(-2.88 35.53) rotate(-4.55)"/>
      <ellipse class="cls-8" cx="212.17" cy="117.7" rx="2.92" ry="1.76" transform="translate(-8.68 17.22) rotate(-4.55)"/>
      <ellipse class="cls-8" cx="210.2" cy="101.78" rx="1.76" ry="2.92" transform="translate(36.11 257.46) rotate(-67.64)"/>
      <ellipse class="cls-8" cx="239.2" cy="59.78" rx="1.76" ry="2.92" transform="translate(92.92 258.26) rotate(-67.64)"/>
      <ellipse class="cls-8" cx="296.21" cy="61.78" rx="1.76" ry="2.92" transform="translate(126.39 312.22) rotate(-67.64)"/>
      <ellipse class="cls-8" cx="302.21" cy="80.78" rx="1.76" ry="2.92" transform="translate(112.54 329.54) rotate(-67.64)"/>
      <ellipse class="cls-8" cx="230.16" cy="119.71" rx="1.76" ry="2.92" transform="translate(-17.32 41.88) rotate(-10.02)"/>
      <ellipse class="cls-8" cx="222.16" cy="129.71" rx="1.76" ry="2.92" transform="translate(-19.18 40.64) rotate(-10.02)"/>
      <ellipse class="cls-8" cx="205.17" cy="129.71" rx="1.76" ry="2.92" transform="translate(-19.44 37.68) rotate(-10.02)"/>
    </g>
    <g id="machoire-sup">
      <path class="cls-11" d="m39.19,124.24c-3.85-2.21-6.3-2.06-7-2-4.49.41-7.27,4.04-8,5-2.46,3.21-2.79,6.59-3,9-.24,2.76-.95,11.01,5,17,.83.84,6.33,6.38,13,5,4.88-1.01,7.74-5.17,9-7,.85-1.24,2.48-3.66,3-7,1.38-8.86-6.23-16.69-12-20Z"/>
      <path class="cls-4" d="m52.19,122.24c-4.54-.97-6.14,2.21-18,6-3.7,1.18-4.71,1.25-10,3-7.93,2.63-9.68,3.81-11,5-1.94,1.74-2.2,2.79-5,5-1.17.92-2.19,1.58-3,3-.69,1.21-.9,2.42-1,4-.18,2.83-.38,6.01,1,10,1.18,3.43,2.17,6.29,5,8,4.56,2.76,10.25.33,11,0,2.81-1.25,2.57-2.36,6-4,3.44-1.65,6.53-1.9,8-2,4.43-.31,6.15.81,9,1,6.14.41,13.27-3.76,17-10,4.13-6.92,3.36-15.2,0-21-1.2-2.07-4.01-6.93-9-8Z"/>
      <path class="cls-20" d="m26.19,150.24c1.7-2.17,2.26-3.04,2-4-.33-1.18-1.79-2.11-3-2-.69.06-.89.43-2,1,0,0-1.33.68-3,1-2.5.47-4.7-.45-6-1-2.57-1.08-2.58-1.93-4-2-2.08-.1-3.74,1.66-5,3-2.43,2.58-3.41,5.3-4,7-1.48,4.26-1.26,7.36-1,11,.11,1.5.28,2.45,1,3,.57.44,1.67.77,6-1,2.94-1.2,5.72-2.34,9-5,.95-.77,2.3-2.18,5-5,0,0,1.68-1.76,5-6Z"/>
      <path class="cls-13" d="m67.19,145.24c.54-1.56,1.63-4.85,1-9-.67-4.41-2.91-7.31-5-10-2.82-3.64-4.99-6.44-9-8-7.37-2.86-14.4,1.04-16,2-1.84,1.1-4.58,2.75-6,6-1.67,3.8-.51,7.46,1,12,2,6,5.2,15.64,14,19,1.39.53,3.88,1.45,7,1,8.78-1.27,12.65-11.99,13-13Z"/>
      <ellipse class="cls-12" cx="10.19" cy="147.71" rx="2" ry="1.5" transform="translate(-90.35 39.02) rotate(-38.82)"/>
    </g>
    <g>
      <circle class="cls-6" cx="37.69" cy="135.74" r="5"/>
      <circle class="cls-18" cx="37.69" cy="135.74" r="3.75"/>
      <circle cx="36.44" cy="135.74" r="2.5"/>
      <circle class="cls-1" cx="37.69" cy="135.74" r="1.25"/>
    </g>
  </g>
</svg>