<?xml version="1.0" encoding="UTF-8"?>
<svg id="Calque_2" data-name="Calque 2" xmlns="http://www.w3.org/2000/svg" viewBox="0 0 811.75 325.42">
  <defs>
    <style>
      .cls-1 {
        fill: #fff;
      }

      .cls-2 {
        fill: #602437;
      }

      .cls-3 {
        fill: #b9375e;
      }

      .cls-4 {
        fill: #ff7aa2;
      }

      .cls-5 {
        fill: #3f70c6;
      }

      .cls-6 {
        fill: #481964;
      }

      .cls-7 {
        fill: #8a2846;
      }

      .cls-8 {
        fill: #3fffc6;
      }

      .cls-9 {
        fill: #522e38;
      }

      .cls-10 {
        fill: #332441;
      }

      .cls-11 {
        fill: #602441;
      }

      .cls-12 {
        fill: #34e900;
      }
    </style>
  </defs>
  <g id="Calque_1-2" data-name="Calque 1">
    <path id="bras-gauche" class="cls-2" d="m644.46,138.63c-5.09,3.52-6.11,9.52-7.66,18.74-1.42,8.39-.55,13.2.62,16.63.84,2.47,2.1,6.15,4.57,6.56,3.44.58,6.95-6.15,7.88-7.93,2.77-5.29,2.3-8.11,4.06-18.67,1.97-11.83,3.69-15.07,1.6-16.95-2.41-2.16-7.78-.65-11.07,1.62Z"/>
    <path id="avant-bras-gauche" class="cls-2" d="m639.31,171.47c-1.18,1.73.12,5.2,2.36,6.89,1.49,1.12,3.31,1.16,6.96,1.24,2.93.06,4.94-.24,8.03-.72,5.7-.89,6.5-1.68,6.89-2.36.6-1.06.59-2.57-.07-3.6-.84-1.31-2.42-1.44-6.14-1.82-7.11-.72-8.84-1.02-12.78-.85-4.09.18-4.84.62-5.25,1.22Z"/>
    <g id="main-gauche">
      <path class="cls-4" d="m658.23,174.14c-.89,1.44,2.48,3.02,2.93,7.71.19,2-.18,4.39-.92,9.17-.2,1.28-.39,2.34.07,3.6.86,2.35,3.25,3.35,3.68,3.53.72.3,3.1,1.3,5,.18,1.67-.99,2.01-3.06,2.39-5.32.36-2.18.32-4.31-.15-7.21-.87-5.36-1.31-8.04-3.25-9.92-3.14-3.02-8.72-3.4-9.75-1.74Z"/>
      <path class="cls-6" d="m671.68,190.53c-2.58-.58-5.62,3.11-5.12,5.03.19.71.74.74,1.51,2.04.17.3.83,1.48.99,3.06.23,2.36-1.66,3.33-1.06,4.56.35.72,1.29,1.09,2.02,1.03.39-.03,1.01-.2,2.04-1.51,1.32-1.66,1.86-3.34,2.07-4.04.62-2.12,1.15-3.93.56-6.09-.22-.79-.99-3.63-3.01-4.08Z"/>
      <path class="cls-6" d="m664.84,192.53c-2.33-1.26-6.26,1.46-6.3,3.45-.02.74.52.91.89,2.38.09.33.4,1.65.12,3.21-.42,2.33-2.5,2.76-2.26,4.1.14.79.95,1.4,1.66,1.54.39.08,1.03.08,2.38-.89,1.72-1.24,2.7-2.7,3.09-3.33,1.17-1.87,2.17-3.46,2.2-5.71.02-.82.05-3.77-1.78-4.75Z"/>
    </g>
    <path id="cuisse-gauche" class="cls-3" d="m570.84,81.84c9.36,9.12,5.01,19.84,7.69,51.92,2.47,29.58,6.99,30.32,3.85,42.31-3.39,12.93-8.37,11.04-25,38.46-10.4,17.15-11.94,23.64-21.15,28.85-6.92,3.91-19.06,7.59-26.92,1.92-6.08-4.38-6.91-12.41-7.69-21.15-1.41-15.8,3.01-21.32,5.77-42.31,1.75-13.31-.03-11.04,1.92-32.69,1.5-16.61,2.33-25.22,5.77-36.54,3.31-10.87,6.39-20.59,15.38-28.85,3.5-3.21,9.77-8.97,19.23-9.62,7.74-.52,15.82,2.51,21.15,7.7Z"/>
    <g id="pied-gauche">
      <path class="cls-6" d="m534.76,300.98c1.99,1.75.8,6.38-1.05,7.1-.69.27-1.03-.17-2.54-.01-.34.04-1.69.2-3.05,1-2.04,1.2-1.72,3.3-3.06,3.54-.79.14-1.64-.41-2.03-1.02-.21-.33-.43-.94.01-2.54.57-2.05,1.6-3.47,2.05-4.05,1.35-1.75,2.49-3.24,4.59-4.04.77-.3,3.52-1.35,5.08.02Z"/>
      <path class="cls-7" d="m522.76,227.99c3.44-.03,7.25-.03,11.54,1.92.94.43,3.04,1.47,5.77,3.85,5.4,4.71,8.05,10.16,9.62,13.46,4.94,10.41,8.68,19.02,9.62,21.15,6.95,15.94,8.73,18.53,11.54,21.15,5.51,5.13,11.54,7.69,11.54,7.69,7.2,3.06,11.99,2.33,13.46,5.77,1.03,2.41-.02,5.82-1.92,7.69-1.34,1.32-2.92,1.71-3.85,1.92-8.23,1.9-15.38,1.92-15.38,1.92-12.73.05-14.31-.88-15.38-1.92-2.48-2.41-2.62-5.85-3.85-5.77-1.48.09-.81,5.04-3.85,7.69-3.54,3.1-11.07,2.15-15.38-1.92-.61-.58-3.59-3.52-3.85-7.69-.2-3.22,1.39-4.5,1.92-9.62,0,0,.27-2.55,0-5.77-.5-5.98-3.05-10.97-5.77-15.38-2-3.24-5.5-8.47-13.46-17.31-8.68-9.64-11.53-11.21-11.54-15.38-.01-5,4.08-9.46,7.69-11.54,3.2-1.84,6.13-1.86,11.53-1.91Z"/>
      <path class="cls-6" d="m589.39,302.28c-2.11,1.6-1.25,6.3.54,7.16.67.32,1.04-.09,2.53.17.34.06,1.67.32,2.97,1.21,1.95,1.34,1.48,3.42,2.8,3.75.78.19,1.67-.29,2.09-.88.23-.32.5-.9.17-2.53-.42-2.08-1.35-3.57-1.76-4.19-1.22-1.84-2.26-3.41-4.29-4.36-.73-.34-3.4-1.58-5.05-.33Z"/>
      <path class="cls-6" d="m572.75,306.54c-2.2,1.47-1.64,6.21.1,7.18.65.36,1.05-.03,2.52.32.33.08,1.65.42,2.89,1.4,1.87,1.46,1.26,3.5,2.57,3.91.76.24,1.68-.18,2.14-.75.25-.3.55-.87.32-2.52-.29-2.1-1.13-3.65-1.5-4.29-1.1-1.91-2.04-3.54-4.01-4.61-.72-.38-3.31-1.79-5.03-.64Z"/>
    </g>
    <path id="bras-droit" class="cls-2" d="m644.16,139.42c-6.19-.02-10.45,4.32-17,11-5.95,6.07-8,10.52-9,14-.72,2.5-1.79,6.25,0,8,2.5,2.44,9.22-1.08,11-2,5.3-2.75,6.52-5.34,14-13,8.38-8.58,11.64-10.26,11-13-.74-3.16-6.01-4.99-10-5Z"/>
    <path id="avant-bras-droit" class="cls-2" d="m621.16,163.42c-1.96.74-2.87,4.34-2,7,.58,1.77,2.05,2.85,5,5,2.37,1.73,4.19,2.63,7,4,5.19,2.53,6.29,2.34,7,2,1.1-.53,1.95-1.77,2-3,.06-1.55-1.17-2.57-4-5-5.42-4.66-6.67-5.89-10-8-3.46-2.19-4.32-2.26-5-2Z"/>
    <path id="cuisse-droite" class="cls-3" d="m511.84,87.84c9.36,9.12,5.01,19.84,7.69,51.92,2.47,29.58,6.99,30.32,3.85,42.31-3.39,12.93-8.37,11.04-25,38.46-10.4,17.15-11.94,23.64-21.15,28.85-6.92,3.91-19.06,7.59-26.92,1.92-6.08-4.38-6.91-12.41-7.69-21.15-1.41-15.8,3.01-21.32,5.77-42.31,1.75-13.31-.03-11.04,1.92-32.69,1.5-16.61,2.33-25.22,5.77-36.54,3.31-10.87,6.39-20.59,15.38-28.85,3.5-3.21,9.77-8.97,19.23-9.62,7.74-.52,15.82,2.51,21.15,7.7Z"/>
    <g id="pied-droit">
      <path class="cls-6" d="m475.76,306.98c1.99,1.75.8,6.38-1.05,7.1-.69.27-1.03-.17-2.54-.01-.34.04-1.69.2-3.05,1-2.04,1.2-1.72,3.3-3.06,3.54-.79.14-1.64-.41-2.03-1.02-.21-.33-.43-.94.01-2.54.57-2.05,1.6-3.47,2.05-4.05,1.35-1.75,2.49-3.24,4.59-4.04.77-.3,3.52-1.35,5.08.02Z"/>
      <path class="cls-7" d="m463.76,233.99c3.44-.03,7.25-.03,11.54,1.92.94.43,3.04,1.47,5.77,3.85,5.4,4.71,8.05,10.16,9.62,13.46,4.94,10.41,8.68,19.02,9.62,21.15,6.95,15.94,8.73,18.53,11.54,21.15,5.51,5.13,11.54,7.69,11.54,7.69,7.2,3.06,11.99,2.33,13.46,5.77,1.03,2.41-.02,5.82-1.92,7.69-1.34,1.32-2.92,1.71-3.85,1.92-8.23,1.9-15.38,1.92-15.38,1.92-12.73.05-14.31-.88-15.38-1.92-2.48-2.41-2.62-5.85-3.85-5.77-1.48.09-.81,5.04-3.85,7.69-3.54,3.1-11.07,2.15-15.38-1.92-.61-.58-3.59-3.52-3.85-7.69-.2-3.22,1.39-4.5,1.92-9.62,0,0,.27-2.55,0-5.77-.5-5.98-3.05-10.97-5.77-15.38-2-3.24-5.5-8.47-13.46-17.31-8.68-9.64-11.53-11.21-11.54-15.38-.01-5,4.08-9.46,7.69-11.54,3.2-1.84,6.13-1.86,11.53-1.91Z"/>
      <path class="cls-6" d="m530.39,308.28c-2.11,1.6-1.25,6.3.54,7.16.67.32,1.04-.09,2.53.17.34.06,1.67.32,2.97,1.21,1.95,1.34,1.48,3.42,2.8,3.75.78.19,1.67-.29,2.09-.88.23-.32.5-.9.17-2.53-.42-2.08-1.35-3.57-1.76-4.19-1.22-1.84-2.26-3.41-4.29-4.36-.73-.34-3.4-1.58-5.05-.33Z"/>
      <path class="cls-6" d="m513.75,312.54c-2.2,1.47-1.64,6.21.1,7.18.65.36,1.05-.03,2.52.32.33.08,1.65.42,2.89,1.4,1.87,1.46,1.26,3.5,2.57,3.91.76.24,1.68-.18,2.14-.75.25-.3.55-.87.32-2.52-.29-2.1-1.13-3.65-1.5-4.29-1.1-1.91-2.04-3.54-4.01-4.61-.72-.38-3.31-1.79-5.03-.64Z"/>
    </g>
    <g id="main-droite">
      <path class="cls-4" d="m635.16,176.42c-1.55.67.31,3.9-2,8-.99,1.75-2.66,3.5-6,7-.89.94-1.66,1.7-2,3-.64,2.42.75,4.61,1,5,.42.66,1.8,2.84,4,3,1.94.14,3.4-1.36,5-3,1.54-1.58,2.73-3.35,4-6,2.35-4.9,3.53-7.35,3-10-.85-4.27-5.21-7.77-7-7Z"/>
      <path class="cls-6" d="m636.83,197.56c-1.79-1.95-6.39-.66-7.08,1.2-.26.69.19,1.03.07,2.54-.03.34-.16,1.69-.94,3.07-1.16,2.07-3.27,1.79-3.47,3.14-.12.79.44,1.63,1.07,2,.34.2.95.41,2.54-.07,2.03-.61,3.43-1.67,4.01-2.14,1.72-1.38,3.19-2.56,3.94-4.68.27-.76,1.26-3.54-.14-5.06Z"/>
      <path class="cls-6" d="m630.08,195.29c-1.19-2.36-5.97-2.38-7.14-.77-.43.6-.1,1.04-.63,2.46-.12.32-.62,1.58-1.74,2.7-1.68,1.68-3.63.83-4.2,2.08-.33.73-.02,1.69.48,2.22.27.28.8.65,2.46.63,2.12-.03,3.76-.68,4.44-.97,2.03-.86,3.76-1.6,5.06-3.43.49-.67,2.2-3.07,1.27-4.92Z"/>
    </g>
    <path id="machoire-inf" class="cls-2" d="m700.16,39.42c-2.98,7.69-2.46,17.8,3,25,3.93,5.18,9.36,7.47,13,9,5.23,2.2,9.95,2.83,13,3,8.74.49,12.12-2.29,21-4,3.94-.76,10.63-.5,24,0,14.62.55,20.81,1.47,29-2,3.76-1.6,6.98-3.02,8-6,2.68-7.85-12.31-19.39-17-23-6.23-4.8-42.58-32.78-75-19-4.56,1.94-14.85,6.31-19,17Z"/>
    <g id="coprs">
      <path class="cls-3" d="m8.16,87.42c7.84-7.17,17.26-9.44,48-13,12.45-1.44,18.67-2.16,24.07-2.55,17.41-1.24,30.23-1.04,52.93-.45,40.66,1.06,61.31,1.62,77,3,24.53,2.16,21.7,3.16,38,4,18.59.96,35.06-.03,68-2,17.95-1.08,18.42-1.38,45-3,21.24-1.29,23.7-1.27,31-2,21.93-2.2,35.51-6.02,49-9,21.15-4.67,17.98-1.93,77-9,51.84-6.21,62.72-9.33,78-5,22.37,6.34,33.55,9.51,39,14,1.11.92,4.39,3.76,9,4,6.19.32,11.12-4.25,13-6,2.64-2.44,5.04-5.59,9-15,4.8-11.41,4.51-14.53,9-25,3.47-8.11,5.29-12.22,9-15,7.28-5.45,16.35-4.33,19-4,3.86.48,11.65,1.45,16,7,6.28,8.02,1.82,21.07-5,41-2.89,8.45-6.32,16.2-8,20-2.37,5.35-3.53,7.55-9,19-9.02,18.89-8,17.38-9,19-7.28,11.72-11.77,11.3-21,25-4.55,6.75-3.7,7.21-8,13-2.87,3.86-8.59,11.57-17,17-10.93,7.06-22.02,7.46-37,8-14.2.51-12.75-1.62-26-1-12.28.57-25.47,1.19-38,9-9.77,6.09-7.97,9.59-17,14-15,7.32-30.47,2.78-33,2-10.93-3.38-10.08-7.73-23-15-6.26-3.52-27.78-15.63-49-10-11.08,2.94-14.03,8.58-25,8-9.78-.52-16.99-5.51-19-7-6.82-5.05-8.74-10.32-12-15-3.45-4.95-9.34-10.55-50-22-18.37-5.17-27.55-7.76-40-10-26.47-4.77-33.15-2.4-50-9-14.31-5.6-12.21-8.8-27-14-15.65-5.5-31.54-6.92-38.5-7.5-9.44-.79-9.36-.06-18-1-13.98-1.53-17.85-3.84-30-6-14.33-2.54-25.54-2.26-36-2-12.62.32-20.42.51-31,3-14.32,3.37-28,8-28,8-8.34,2.82-13.51,4.97-14.5,3.5-1.12-1.67,3.76-7.12,8-11Z"/>
      <path class="cls-4" d="m568.66,50.92c4.69.04,17.65.42,31,4,8.93,2.39,26.92,7.22,41,22,4.84,5.08,27.85,30.91,18,58-8.11,22.3-33.99,33.09-52,33-9.81-.05-12.21-3.3-27-3-6.68.14-19.65.53-33,7-12.58,6.1-13.04,11.56-21,16-20.85,11.64-51.76-6.78-84-26-31.06-18.51-46.6-27.77-47-41-.52-17.16,21.57-31.36,49-49,12.28-7.89,19.62-10.05,25-11,3.39-.6,4.06-.37,18-2,6.52-.76,11.51-1.41,16-2,14.99-1.96,14.57-2.14,22-3,9.24-1.08,16.38-1.56,23-2,10.51-.7,15.76-1.05,21-1Z"/>
      <path class="cls-9" d="m304.66,85.92c12.17,2.88,18.26,4.33,25,7,13.67,5.42,24.92,9.89,28,20,2.23,7.3.03,17.02-6,21-4.67,3.08-10.19,1.77-23-2-24.86-7.32-26.93-9.13-38-12-12.95-3.36-12.1-1.41-40-7-15.52-3.11-20.21-4.6-24-6-11.88-4.38-12.91-7.08-26-13-18.85-8.53-30.16-9.01-30-12,.19-3.46,15.41-5.47,23-6,4.18-.29,10.15-.41,22,1,17.9,2.13,17.74,4.02,29,5,16.82,1.47,17.78-2.69,35-1,6.65.65,12.77,2.1,25,5Z"/>
    </g>
    <g id="machoire-sup">
      <path class="cls-12" d="m784.76,64.03c-1.06-.24-2.3,1.27-2.1,2.06.08.29.31.3.62.84.07.12.34.61.41,1.25.1.97-.68,1.37-.43,1.87.14.29.53.45.83.42.16-.01.41-.08.84-.62.54-.68.76-1.37.85-1.66.25-.87.47-1.61.23-2.5-.1-.31-.42-1.48-1.25-1.66Z"/>
      <path class="cls-12" d="m788.76,64.03c-1.06-.24-2.3,1.27-2.1,2.06.08.29.31.3.62.84.07.12.34.61.41,1.25.1.97-.68,1.37-.43,1.87.14.29.53.45.83.42.16-.01.41-.08.84-.62.54-.68.76-1.37.85-1.66.25-.87.47-1.61.23-2.5-.1-.31-.42-1.48-1.25-1.66Z"/>
      <path class="cls-12" d="m792.25,63.97c-1.08-.06-2.07,1.63-1.74,2.37.12.28.35.25.74.73.09.11.43.54.6,1.17.25.94-.45,1.46-.13,1.91.19.27.6.36.89.29.16-.04.4-.15.73-.74.42-.76.53-1.47.57-1.77.11-.9.21-1.66-.17-2.5-.14-.31-.64-1.41-1.49-1.46Z"/>
      <path class="cls-12" d="m796.25,62.97c-1.08-.06-2.07,1.63-1.74,2.37.12.28.35.25.74.73.09.11.43.54.6,1.17.25.94-.45,1.46-.13,1.91.19.27.6.36.89.29.16-.04.4-.15.73-.74.42-.76.53-1.47.57-1.77.11-.9.21-1.66-.17-2.5-.14-.31-.64-1.41-1.49-1.46Z"/>
      <path class="cls-12" d="m800.25,61.97c-1.08-.06-2.07,1.63-1.74,2.37.12.28.35.25.74.73.09.11.43.54.6,1.17.25.94-.45,1.46-.13,1.91.19.27.6.36.89.29.16-.04.4-.15.73-.74.42-.76.53-1.47.57-1.77.11-.9.21-1.66-.17-2.5-.14-.31-.64-1.41-1.49-1.46Z"/>
      <path class="cls-12" d="m804.25,60.97c-1.08-.06-2.07,1.63-1.74,2.37.12.28.35.25.74.73.09.11.43.54.6,1.17.25.94-.45,1.46-.13,1.91.19.27.6.36.89.29.16-.04.4-.15.73-.74.42-.76.53-1.47.57-1.77.11-.9.21-1.66-.17-2.5-.14-.31-.64-1.41-1.49-1.46Z"/>
      <path class="cls-12" d="m780.76,63.03c-1.06-.24-2.3,1.27-2.1,2.06.08.29.31.3.62.84.07.12.34.61.41,1.25.1.97-.68,1.37-.43,1.87.14.29.53.45.83.42.16-.01.41-.08.84-.62.54-.68.76-1.37.85-1.66.25-.87.47-1.61.23-2.5-.1-.31-.42-1.48-1.25-1.66Z"/>
      <path class="cls-12" d="m776.76,62.03c-1.06-.24-2.3,1.27-2.1,2.06.08.29.31.3.62.84.07.12.34.61.41,1.25.1.97-.68,1.37-.43,1.87.14.29.53.45.83.42.16-.01.41-.08.84-.62.54-.68.76-1.37.85-1.66.25-.87.47-1.61.23-2.5-.1-.31-.42-1.48-1.25-1.66Z"/>
      <path class="cls-12" d="m772.84,60.05c-1.05-.26-2.34,1.22-2.15,2.01.07.29.3.31.6.85.07.12.33.61.37,1.26.07.97-.71,1.35-.48,1.86.14.3.52.46.82.44.16-.01.42-.07.85-.6.56-.67.79-1.35.89-1.64.28-.86.51-1.6.29-2.49-.08-.31-.37-1.49-1.19-1.69Z"/>
      <path class="cls-12" d="m768.84,58.05c-1.05-.26-2.34,1.22-2.15,2.01.07.29.3.31.6.85.07.12.33.61.37,1.26.07.97-.71,1.35-.48,1.86.14.3.52.46.82.44.16-.01.42-.07.85-.6.56-.67.79-1.35.89-1.64.28-.86.51-1.6.29-2.49-.08-.31-.37-1.49-1.19-1.69Z"/>
      <path class="cls-12" d="m764.84,56.05c-1.05-.26-2.34,1.22-2.15,2.01.07.29.3.31.6.85.07.12.33.61.37,1.26.07.97-.71,1.35-.48,1.86.14.3.52.46.82.44.16-.01.42-.07.85-.6.56-.67.79-1.35.89-1.64.28-.86.51-1.6.29-2.49-.08-.31-.37-1.49-1.19-1.69Z"/>
      <path class="cls-12" d="m760.84,55.05c-1.05-.26-2.34,1.22-2.15,2.01.07.29.3.31.6.85.07.12.33.61.37,1.26.07.97-.71,1.35-.48,1.86.14.3.52.46.82.44.16-.01.42-.07.85-.6.56-.67.79-1.35.89-1.64.28-.86.51-1.6.29-2.49-.08-.31-.37-1.49-1.19-1.69Z"/>
      <path class="cls-12" d="m756.84,53.05c-1.05-.26-2.34,1.22-2.15,2.01.07.29.3.31.6.85.07.12.33.61.37,1.26.07.97-.71,1.35-.48,1.86.14.3.52.46.82.44.16-.01.42-.07.85-.6.56-.67.79-1.35.89-1.64.28-.86.51-1.6.29-2.49-.08-.31-.37-1.49-1.19-1.69Z"/>
      <path class="cls-12" d="m752.62,52c-1.07-.19-2.25,1.38-2,2.16.09.29.32.29.65.81.08.12.37.59.46,1.23.14.96-.62,1.4-.35,1.89.16.29.55.42.85.39.16-.02.41-.1.81-.65.51-.71.7-1.4.77-1.69.21-.88.4-1.63.12-2.5-.1-.34-.47-1.49-1.31-1.64Z"/>
      <path class="cls-12" d="m748.62,51c-1.07-.19-2.25,1.38-2,2.16.09.29.32.29.65.81.08.12.37.59.46,1.23.14.96-.62,1.4-.35,1.89.16.29.55.42.85.39.16-.02.41-.1.81-.65.51-.71.7-1.4.77-1.69.21-.88.4-1.63.12-2.5-.1-.34-.47-1.49-1.31-1.64Z"/>
      <path class="cls-12" d="m744.62,51c-1.07-.19-2.25,1.38-2,2.16.09.29.32.29.65.81.08.12.37.59.46,1.23.14.96-.62,1.4-.35,1.89.16.29.55.42.85.39.16-.02.41-.1.81-.65.51-.71.7-1.4.77-1.69.21-.88.4-1.63.12-2.5-.1-.34-.47-1.49-1.31-1.64Z"/>
      <path class="cls-12" d="m740.62,51c-1.07-.19-2.25,1.38-2,2.16.09.29.32.29.65.81.08.12.37.59.46,1.23.14.96-.62,1.4-.35,1.89.16.29.55.42.85.39.16-.02.41-.1.81-.65.51-.71.7-1.4.77-1.69.21-.88.4-1.63.12-2.5-.1-.34-.47-1.49-1.31-1.64Z"/>
      <path class="cls-7" d="m716.16,1.42c-3.28.87-11.12,2.97-17,9-12.64,12.98-10.13,38.03-3,41,2.27.94,3.52-.97,10-1,4.82-.02,6.87,1.02,12,2,3.67.7,8.45.8,18,1,11.5.24,13.24-.26,18,1,1.77.47,4.54,1.65,10,4,13.81,5.93,12.74,6.18,16,7,9.17,2.29,16.93.13,21-1,5.6-1.56,8.66-2.41,10-5,1.01-1.96,2.05-6.86-9-20-19.33-22.99-46.46-36.47-68-39-7.6-.89-13.23-.27-18,1Z"/>
      <path class="cls-11" d="m740.96,17.23c9.96-5.94,23.26.57,25.89,1.94,7.5,3.9,17.95,12.53,15.9,18.22-1.55,4.32-10.24,6.79-15.49,4.13-4.35-2.2-3.36-6.42-7.85-8.62-4.74-2.32-7.58,1.52-14.32-.18-4.31-1.09-9.68-4.31-9.81-8.23-.12-3.79,4.73-6.69,5.68-7.26Z"/>
      <ellipse class="cls-10" cx="802.19" cy="54.37" rx="2.5" ry="3.5" transform="translate(420.22 761.87) rotate(-65.51)"/>
    </g>
    <g>
      <circle class="cls-5" cx="747.66" cy="22.92" r="8"/>
      <circle class="cls-8" cx="747.66" cy="22.92" r="6"/>
      <circle cx="749.66" cy="22.92" r="4"/>
      <circle class="cls-1" cx="747.66" cy="22.92" r="2"/>
    </g>
  </g>
</svg>