<?xml version="1.0" encoding="UTF-8"?>
<svg id="Calque_2" data-name="Calque 2" xmlns="http://www.w3.org/2000/svg" viewBox="0 0 917.59 400.62">
  <defs>
    <style>
      .cls-1 {
        fill: #fff;
      }

      .cls-2 {
        fill: #961623;
      }

      .cls-3 {
        fill: #ffd29d;
      }

      .cls-4 {
        fill: #e11623;
      }

      .cls-5 {
        fill: #918450;
      }

      .cls-6 {
        fill: #681623;
      }

      .cls-7 {
        fill: #ffb563;
      }

      .cls-8 {
        fill: #3f70c6;
      }

      .cls-9 {
        fill: #a41623;
      }

      .cls-10 {
        fill: #3fffc6;
      }

      .cls-11 {
        fill: #806e50;
      }

      .cls-12 {
        fill: #b81623;
      }
    </style>
  </defs>
  <g id="Calque_1-2" data-name="Calque 1">
    <g id="queue">
      <path class="cls-7" d="m412.02,94.7c1.01-1.57,11.94,1.71,11.96,5.73.01,1.62-1.75,2.93-4.31,4.84-1.74,1.3-5.42,3.66-6.26,2.81-.76-.77,1.91-2.97,1.76-6.53-.16-4-3.76-5.9-3.15-6.85Z"/>
      <path class="cls-7" d="m400.88,100.28c1.01-1.57,11.94,1.71,11.96,5.73.01,1.62-1.75,2.93-4.31,4.84-1.74,1.3-5.42,3.66-6.26,2.81-.76-.77,1.91-2.97,1.76-6.53-.17-4.01-3.77-5.9-3.15-6.85Z"/>
      <path class="cls-7" d="m389.73,107.24c1.01-1.57,11.94,1.71,11.96,5.73.01,1.62-1.75,2.93-4.31,4.84-1.74,1.3-5.42,3.66-6.26,2.81-.76-.77,1.91-2.97,1.76-6.53-.17-4-3.77-5.89-3.15-6.85Z"/>
      <path class="cls-7" d="m378.58,114.21c1.01-1.57,11.94,1.71,11.96,5.73.01,1.62-1.75,2.93-4.31,4.84-1.74,1.3-5.42,3.66-6.26,2.81-.76-.77,1.91-2.97,1.76-6.53-.17-4-3.76-5.89-3.15-6.85Z"/>
      <path class="cls-7" d="m367.43,121.18c1.01-1.57,11.94,1.71,11.96,5.73.01,1.62-1.75,2.93-4.31,4.84-1.74,1.3-5.42,3.66-6.26,2.81-.76-.77,1.91-2.97,1.76-6.53-.17-4-3.76-5.9-3.15-6.85Z"/>
      <path class="cls-7" d="m356.28,126.75c1.01-1.57,11.94,1.71,11.96,5.73.01,1.62-1.75,2.93-4.31,4.84-1.74,1.3-5.42,3.66-6.26,2.81-.76-.77,1.91-2.97,1.76-6.53-.17-4-3.76-5.89-3.15-6.85Z"/>
      <path class="cls-7" d="m345.13,133.72c1.01-1.57,11.94,1.71,11.96,5.73.01,1.62-1.75,2.93-4.31,4.84-1.74,1.3-5.42,3.66-6.26,2.81-.76-.77,1.91-2.97,1.76-6.53-.17-4-3.76-5.89-3.15-6.85Z"/>
      <path class="cls-7" d="m336.71,137.03c1.35-1.28,11.19,4.5,10.25,8.41-.38,1.57-2.39,2.43-5.34,3.68-2,.85-6.14,2.27-6.75,1.24-.55-.92,2.57-2.43,3.27-5.92.79-3.93-2.25-6.63-1.43-7.41Z"/>
      <path class="cls-7" d="m324.17,142.6c1.35-1.28,11.19,4.5,10.25,8.41-.38,1.57-2.39,2.43-5.34,3.68-2,.85-6.14,2.27-6.75,1.24-.55-.92,2.57-2.43,3.27-5.92.79-3.93-2.25-6.63-1.43-7.41Z"/>
      <path class="cls-7" d="m311.63,149.57c1.35-1.28,11.19,4.5,10.25,8.41-.38,1.57-2.39,2.43-5.34,3.68-2,.85-6.14,2.27-6.75,1.24-.55-.92,2.57-2.43,3.27-5.92.79-3.93-2.25-6.63-1.43-7.41Z"/>
      <path class="cls-7" d="m300.48,153.75c1.35-1.28,11.19,4.5,10.25,8.41-.38,1.57-2.39,2.43-5.34,3.68-2,.85-6.14,2.27-6.75,1.24-.55-.92,2.57-2.43,3.27-5.92.79-3.93-2.25-6.63-1.43-7.41Z"/>
      <path class="cls-7" d="m289.33,157.93c1.35-1.28,11.19,4.5,10.25,8.41-.38,1.57-2.39,2.43-5.34,3.68-2,.85-6.14,2.27-6.75,1.24-.55-.92,2.57-2.43,3.27-5.92.79-3.93-2.25-6.63-1.43-7.41Z"/>
      <path class="cls-7" d="m278.18,162.11c1.35-1.28,11.19,4.5,10.25,8.41-.38,1.57-2.39,2.43-5.34,3.68-2,.85-6.14,2.27-6.75,1.24-.55-.92,2.57-2.43,3.27-5.92.79-3.93-2.25-6.63-1.43-7.41Z"/>
      <path class="cls-7" d="m267.03,166.29c1.35-1.28,11.19,4.5,10.25,8.41-.38,1.57-2.39,2.43-5.34,3.68-2,.85-6.14,2.27-6.75,1.24-.55-.92,2.57-2.43,3.27-5.92.79-3.93-2.25-6.63-1.43-7.41Z"/>
      <path class="cls-7" d="m257.28,170.48c1.35-1.28,11.19,4.5,10.25,8.41-.38,1.57-2.39,2.43-5.34,3.68-2,.85-6.14,2.27-6.75,1.24-.55-.92,2.57-2.43,3.27-5.92.79-3.94-2.25-6.63-1.43-7.41Z"/>
      <path class="cls-7" d="m247.52,173.26c1.35-1.28,11.19,4.5,10.25,8.41-.38,1.57-2.39,2.43-5.34,3.68-2,.85-6.14,2.27-6.75,1.24-.55-.92,2.57-2.43,3.27-5.92.79-3.93-2.25-6.63-1.43-7.41Z"/>
      <path class="cls-7" d="m237.77,176.05c1.35-1.28,11.19,4.5,10.25,8.41-.38,1.57-2.39,2.43-5.34,3.68-2,.85-6.14,2.27-6.75,1.24-.55-.92,2.57-2.43,3.27-5.92.79-3.93-2.25-6.63-1.43-7.41Z"/>
      <path class="cls-7" d="m228.01,178.84c1.35-1.28,11.19,4.5,10.25,8.41-.38,1.57-2.39,2.43-5.34,3.68-2,.85-6.14,2.27-6.75,1.24-.55-.92,2.57-2.43,3.27-5.92.79-3.94-2.25-6.63-1.43-7.41Z"/>
      <path class="cls-7" d="m219.65,183.02c1.35-1.28,11.19,4.5,10.25,8.41-.38,1.57-2.39,2.43-5.34,3.68-2,.85-6.14,2.27-6.75,1.24-.55-.92,2.57-2.43,3.27-5.92.79-3.94-2.25-6.63-1.43-7.41Z"/>
      <path class="cls-7" d="m212.68,185.81c1.35-1.28,11.19,4.5,10.25,8.41-.38,1.57-2.39,2.43-5.34,3.68-2,.85-6.14,2.27-6.75,1.24-.55-.92,2.57-2.43,3.27-5.92.79-3.94-2.25-6.63-1.43-7.41Z"/>
      <path class="cls-7" d="m205.71,188.59c1.35-1.28,11.19,4.5,10.25,8.41-.38,1.57-2.39,2.43-5.34,3.68-2,.85-6.14,2.27-6.75,1.24-.55-.92,2.57-2.43,3.27-5.92.79-3.93-2.25-6.63-1.43-7.41Z"/>
      <path class="cls-7" d="m200.14,191.38c1.35-1.28,11.19,4.5,10.25,8.41-.38,1.57-2.39,2.43-5.34,3.68-2,.85-6.14,2.27-6.75,1.24-.55-.92,2.57-2.43,3.27-5.92.79-3.93-2.25-6.63-1.43-7.41Z"/>
      <path class="cls-7" d="m194.57,192.77c1.35-1.28,11.19,4.5,10.25,8.41-.38,1.57-2.39,2.43-5.34,3.68-2,.85-6.14,2.27-6.75,1.24-.55-.92,2.57-2.43,3.27-5.92.78-3.93-2.26-6.63-1.43-7.41Z"/>
      <path class="cls-7" d="m188.99,195.56c1.35-1.28,11.19,4.5,10.25,8.41-.38,1.57-2.39,2.43-5.34,3.68-2,.85-6.14,2.27-6.75,1.24-.55-.92,2.57-2.43,3.27-5.92.79-3.93-2.25-6.63-1.43-7.41Z"/>
      <path class="cls-7" d="m184.81,196.95c1.35-1.28,11.19,4.5,10.25,8.41-.38,1.57-2.39,2.43-5.34,3.68-2,.85-6.14,2.27-6.75,1.24-.55-.92,2.57-2.43,3.27-5.92.79-3.93-2.25-6.63-1.43-7.41Z"/>
      <path class="cls-9" d="m543.52,124.05c-11.9-35-59.37-46.88-86.4-39.02-4.48,1.3-9.49,3.66-19.51,8.36-10.96,5.15-19.33,9.84-44.6,25.08-27.13,16.37-26.61,16.47-34.84,20.9,0,0-15.83,8.58-34.84,16.72-25.42,10.89-80.8,31.04-167.23,48.78-20.22,4.15-33.41,6.37-59.93,12.54,0,0-25.72,5.98-68.29,19.51C6.9,243.59-.3,246.5,0,248.07c.34,1.7,9.47,1.25,27.87,0,29.96-2.04,44.88-3.91,54.35-4.18,31.14-.9,62.24-2.94,93.37-4.18,33.45-1.33,66.89-2.81,100.34-4.18,125.94-5.16,189.42-8.08,214.62-25.08,25.64-17.3,63.74-54.69,52.96-86.4Z"/>
      <path class="cls-7" d="m371.61,146.27c1.01-1.57,11.94,1.71,11.96,5.73.01,1.62-1.75,2.93-4.31,4.84-1.74,1.3-5.42,3.66-6.26,2.81-.76-.77,1.91-2.97,1.76-6.53-.17-4.01-3.76-5.9-3.15-6.85Z"/>
      <path class="cls-7" d="m360.46,153.23c1.01-1.57,11.94,1.71,11.96,5.73.01,1.62-1.75,2.93-4.31,4.84-1.74,1.3-5.42,3.66-6.26,2.81-.76-.77,1.91-2.97,1.76-6.53-.17-4-3.76-5.89-3.15-6.85Z"/>
      <path class="cls-7" d="m349.26,159.33c1.35-1.28,11.19,4.5,10.25,8.41-.38,1.57-2.39,2.43-5.34,3.68-2,.85-6.14,2.27-6.75,1.24-.55-.92,2.57-2.43,3.27-5.92.78-3.94-2.25-6.63-1.43-7.41Z"/>
      <path class="cls-7" d="m335.95,164.63c1.48-1.14,10.67,5.63,9.33,9.43-.54,1.53-2.63,2.17-5.69,3.11-2.08.64-6.34,1.62-6.84.54-.46-.98,2.8-2.15,3.86-5.55,1.19-3.85-1.55-6.84-.66-7.53Z"/>
      <path class="cls-7" d="m322.02,168.81c1.48-1.14,10.67,5.63,9.33,9.43-.54,1.53-2.63,2.17-5.69,3.11-2.08.64-6.34,1.62-6.84.54-.46-.98,2.8-2.15,3.86-5.55,1.18-3.84-1.56-6.84-.66-7.53Z"/>
      <path class="cls-7" d="m308.08,172.99c1.48-1.14,10.67,5.63,9.33,9.43-.54,1.53-2.63,2.17-5.69,3.11-2.08.64-6.34,1.62-6.84.54-.46-.98,2.8-2.15,3.86-5.55,1.19-3.84-1.56-6.84-.66-7.53Z"/>
      <path class="cls-7" d="m292.75,177.17c1.48-1.14,10.67,5.63,9.33,9.43-.54,1.53-2.63,2.17-5.69,3.11-2.08.64-6.34,1.62-6.84.54-.46-.98,2.8-2.15,3.86-5.55,1.19-3.84-1.56-6.84-.66-7.53Z"/>
      <path class="cls-7" d="m279.81,182.46c1.64-.9,9.67,7.21,7.76,10.76-.77,1.42-2.94,1.74-6.1,2.19-2.15.31-6.51.62-6.85-.53-.3-1.04,3.1-1.69,4.67-4.89,1.77-3.6-.47-6.98.52-7.53Z"/>
      <path class="cls-7" d="m266.34,185.17c1.7-.78,9.13,7.88,6.97,11.28-.87,1.37-3.05,1.52-6.24,1.75-2.17.15-6.54.16-6.79-1.01-.22-1.05,3.22-1.47,5.01-4.54,2.02-3.47.02-7.01,1.05-7.48Z"/>
      <path class="cls-7" d="m250.07,188.15c1.57-1.01,10.17,6.49,8.52,10.16-.66,1.48-2.8,1.94-5.92,2.63-2.12.46-6.45,1.1-6.87-.03-.37-1.01,2.97-1.92,4.3-5.22,1.51-3.71-.98-6.93-.03-7.54Z"/>
      <path class="cls-7" d="m218.02,192.33c1.57-1.01,10.17,6.49,8.52,10.16-.66,1.48-2.8,1.94-5.92,2.63-2.12.46-6.45,1.1-6.87-.03-.37-1.01,2.97-1.92,4.3-5.22,1.51-3.71-.98-6.92-.03-7.54Z"/>
      <path class="cls-7" d="m233.35,189.54c1.57-1.01,10.17,6.49,8.52,10.16-.66,1.48-2.8,1.94-5.92,2.63-2.12.46-6.45,1.1-6.87-.03-.37-1.01,2.97-1.92,4.3-5.22,1.51-3.71-.98-6.92-.03-7.54Z"/>
      <path class="cls-7" d="m201.3,196.51c1.57-1.01,10.17,6.49,8.52,10.16-.66,1.48-2.8,1.94-5.92,2.63-2.12.46-6.45,1.1-6.87-.03-.37-1.01,2.97-1.92,4.3-5.22,1.5-3.71-.99-6.92-.03-7.54Z"/>
      <path class="cls-7" d="m187.36,197.91c1.57-1.01,10.17,6.49,8.52,10.16-.66,1.48-2.8,1.94-5.92,2.63-2.12.46-6.45,1.1-6.87-.03-.37-1.01,2.97-1.92,4.3-5.22,1.51-3.72-.98-6.93-.03-7.54Z"/>
      <path class="cls-4" d="m452.24,117.77c9.37.07,16.32,12.94,18.81,17.42,26.02,46.81,56.22,62.79,49.47,78.74-4.09,9.66-17.62,9.57-73.16,13.24-33.33,2.2-175.29,11.94-196.5,12.54-7.04.2.95.02-89.19,4.18-28.08,1.3-55.53,3.04-91.98,4.18-45.09,1.41-68.07,2.13-68.29,0-.5-4.96,123.09-19.29,186.74-34.84,11.7-2.86,22.7-6.08,40.41-8.36,16.97-2.18,25.51-1.62,44.6-5.57,13.41-2.78,21.37-5.58,25.08-6.97,9.53-3.56,8.89-4.44,16.72-6.97,12.26-3.95,16.15-2.54,26.48-6.97,4.3-1.84,4.57-2.49,12.54-6.97,11.04-6.19,15.48-7.73,25.08-12.54,25.92-12.99,22.69-16.4,40.41-23.69,6.93-2.85,13.1-7.28,19.51-11.15,7.86-4.71,9.96-6.29,13.27-6.27Z"/>
    </g>
    <path id="bras-droite" class="cls-9" d="m696.84,174.28c-.57.01-5.48.12-8.4,3.6-2.73,3.25-2.08,7.47-1.2,13.2,1.01,6.59,2.03,13.22,7.2,18.01.94.87,4.63,2.98,12,7.2,4.5,2.58,5.67,3.13,7.2,4.8,1.17,1.27,2.89,3.57,4.8,10.8,2.61,9.91,1.46,13.47,3.6,14.4,2.87,1.25,8.24-3.72,10.8-8.4.36-.66,4.33-8.18,1.2-15.61-2.07-4.93-5.1-4.66-12-10.8-5.9-5.25-14.22-12.65-15.61-22.81-.7-5.13.63-9.09-2.4-12-2.53-2.43-6.33-2.39-7.19-2.39Z"/>
    <path id="cou" class="cls-9" d="m715.37,172.88c-7.95-14.27-8.18-28.63-8.97-57.04-.49-17.69-.66-26.97,3.65-30.83,6.54-5.86,15.69,7.65,37.24,7.75,5.57.02,8.92-.3,12.96-2.72,10.65-6.38,8.71-22.84,15.95-28.52,14.83-11.62,54.41,32.64,49.86,50.25-1.3,5.01-3.89,5.27-9.97,13.58-11.18,15.27-10.76,27.43-17.21,41.41-7.64,16.54-23.34,32.23-41.62,33.29-25.09,1.44-40.93-25.46-41.89-27.17Z"/>
    <path id="cuisse-droite" class="cls-12" d="m553.99,107.06c-6.53-2.97-26.46-10.79-49.22-3.6-21.76,6.88-45.85,27.41-44.42,49.22.83,12.66,12.16,22.05,34.81,40.81,19.6,16.23,34.37,23.27,63.62,37.21,15.4,7.34,22.47,9.71,31.21,8.4,13.53-2.02,27.88-12.35,30.01-25.21,1.08-6.54-1.5-10.64-8.4-25.21-13.87-29.29-10.14-26.89-16.81-38.41-8.76-15.15-19.34-33.45-40.8-43.21Z"/>
    <path id="mollet-droit" class="cls-12" d="m587.6,209.1c-7.78,3.66-12.2,9-15.61,13.2-6.95,8.58-9.93,17.44-15.61,34.81-3.09,9.47-4.64,14.2-4.8,18.01-.39,9.12,2.55,12.16,6,30.01,1.71,8.85,2.57,13.27,2.4,18.01-.44,12.33-5,14.99-3.6,22.81,1.39,7.75,7.93,16.7,16.81,18.01,11.81,1.74,22.59-10.82,24.01-20.41.07-.47.03-.35,0-9.6-.03-9.33-.05-13.99,0-15.61.24-8.41,2.98-12.73,7.2-24.01,10.09-26.98,5.01-30.69,14.4-46.82,4.09-7.03,6.54-8.87,7.2-14.4,1.12-9.41-3.86-21.78-14.4-26.41-9.78-4.3-19.42.24-24,2.4Z"/>
    <g id="pied-droit">
      <path class="cls-12" d="m579.2,329.14c-8.81.2-15.17,7.54-18.01,10.8-2.75,3.17-7.89,9.1-7.2,16.81.47,5.27,3.45,8.9,6,12,5.15,6.27,12.47,10.63,16.81,13.2,4.15,2.47,7.09,3.78,8.4,7.2,1.23,3.23-.23,5.08,1.2,7.2,1.79,2.65,5.66,2.11,13.2,2.4,13.34.51,18.52,2.87,20.41,0,1.58-2.4-1.09-5.52,1.2-8.4,1.48-1.86,3.94-2.26,4.8-2.4,1.9-.31,3.01.12,7.2,1.2,7.09,1.83,7.87,1.62,8.4,1.2,1.47-1.17.01-3.2,1.2-7.2,1.27-4.28,3.84-5.03,3.6-7.2-.3-2.71-4.57-3.99-9.6-6-9.15-3.66-16.53-7.98-20.41-10.8-5.58-4.06-4.23-5.21-12-13.2-9.88-10.18-16.52-17.01-25.2-16.81Z"/>
      <path class="cls-5" d="m620.01,387.96c-1.15-.34-1.91-.2-2.4,0-.55.23-1.51.84-2.4,3.6-.19.59-2.25,6.99,0,8.4.84.53,1.93.15,2.4,0,7.26-2.3,15.53,2.3,16.81,0,1.57-2.83-10.35-10.8-14.41-12Z"/>
      <path class="cls-5" d="m642.82,374.75c-.73.49-1.9,1.87-2.4,3.6-.54,1.86.2,2.37,0,4.8-.29,3.45-1.98,4.7-1.2,6,.46.76,1.44,1.01,3.6,1.2,3.44.31,5.16.46,8.4,0,8.57-1.22,12.38,1.5,13.2,0,1.86-3.38-16.6-18.94-21.6-15.6Z"/>
    </g>
    <g id="tete">
      <g>
        <path class="cls-2" d="m810.4,71.06c-6.15.43-10.26,6.58-12.35,9.7-3.92,5.86-7.27,16.13-2.65,22.93,2.23,3.28,5.56,4.64,11.47,7.06,5.8,2.37,10.64,3.15,13.23,3.53,12.3,1.8,22.91,1.85,30.87,1.76,14.13-.15,8.82-.55,26.46-.88,14.22-.27,20.1.01,23.81-4.41,2.77-3.3,4.33-9.22,2.65-10.58-.77-.63-2.07-.18-2.65,0-1.99.63-8.09.42-20.29,0-7.69-.26-11.53-.4-16.76-1.76-4.12-1.08-5.06-1.85-12.35-4.41-8.49-2.98-10.4-3.04-14.11-4.41-16.4-6.06-18.08-19.18-27.33-18.53Z"/>
        <path class="cls-4" d="m810.4,75.86c-6.15.43-10.26,6.58-12.35,9.7-3.92,5.86-7.27,16.13-2.65,22.93,2.23,3.28,5.56,4.64,11.47,7.06,5.8,2.37,10.64,3.15,13.23,3.53,12.3,1.8,22.91,1.85,30.87,1.76,14.13-.15,8.82-.55,26.46-.88,14.22-.27,20.1.01,23.81-4.41,2.77-3.3,4.33-9.22,2.65-10.58-.77-.63-2.07-.18-2.65,0-1.99.63-8.09.42-20.29,0-7.69-.26-11.53-.4-16.76-1.76-4.12-1.08-5.06-1.85-12.35-4.41-8.49-2.98-10.4-3.04-14.11-4.41-16.4-6.06-18.08-19.18-27.33-18.53Z"/>
        <g>
          <path class="cls-3" d="m849.03,92.05c-.4.46.1,1.03,0,2.65-.14,2.22-1.22,3.18-.88,3.53.7.74,6.59-2.22,6.17-4.41-.32-1.71-4.4-2.79-5.29-1.77Z"/>
          <path class="cls-3" d="m855.2,93.81c-.4.46.1,1.03,0,2.65-.14,2.22-1.22,3.18-.88,3.53.7.74,6.59-2.22,6.17-4.41-.32-1.7-4.39-2.79-5.29-1.77Z"/>
          <path class="cls-3" d="m861.38,95.58c-.4.46.1,1.03,0,2.65-.14,2.22-1.22,3.18-.88,3.53.7.74,6.59-2.22,6.17-4.41-.32-1.71-4.4-2.8-5.29-1.77Z"/>
          <path class="cls-3" d="m867.29,96.67c-.36.49.19,1.02.24,2.64.06,2.22-.93,3.27-.56,3.59.77.67,6.36-2.8,5.75-4.95-.47-1.66-4.62-2.38-5.43-1.28Z"/>
          <path class="cls-3" d="m873.11,97.03c-.29.54.33.98.6,2.58.37,2.19-.47,3.37-.06,3.64.85.56,5.91-3.65,5.01-5.69-.69-1.59-4.91-1.73-5.55-.53Z"/>
          <path class="cls-3" d="m879.29,97.03c-.29.54.33.98.6,2.58.37,2.19-.47,3.37-.06,3.64.85.56,5.91-3.65,5.01-5.69-.7-1.59-4.91-1.73-5.55-.53Z"/>
          <path class="cls-3" d="m884.58,97.03c-.29.54.33.98.6,2.58.37,2.19-.47,3.37-.06,3.64.85.56,5.91-3.65,5.01-5.69-.69-1.59-4.91-1.73-5.55-.53Z"/>
          <path class="cls-3" d="m890.63,96.3c-.26.55.39.96.74,2.54.49,2.17-.28,3.39.14,3.63.88.51,5.71-3.97,4.7-5.96-.79-1.53-5.01-1.44-5.58-.21Z"/>
          <path class="cls-3" d="m896.8,96.3c-.26.55.39.96.74,2.54.49,2.17-.28,3.39.14,3.63.88.51,5.71-3.97,4.7-5.96-.79-1.53-5-1.44-5.58-.21Z"/>
          <path class="cls-3" d="m902.8,96.3c-.26.55.39.96.74,2.54.49,2.17-.28,3.39.14,3.63.88.51,5.71-3.97,4.7-5.96-.78-1.53-5-1.44-5.58-.21Z"/>
          <path class="cls-3" d="m908.81,96.3c-.26.55.39.96.74,2.54.49,2.17-.28,3.39.14,3.63.88.51,5.71-3.97,4.7-5.96-.79-1.53-5.01-1.44-5.58-.21Z"/>
          <g>
            <path class="cls-11" d="m864.2,19.41c4.11-1.33,6.03-.36,11.47-.88,5.15-.5,6.41-1.66,7.06-.88,1.71,2.08-4.03,14.29-12.35,14.11-5.98-.13-11.62-6.62-10.58-9.7.45-1.37,2.18-1.93,4.4-2.65Z"/>
            <path class="cls-9" d="m779.53,45.87c-2.86,4.45-9.79,15.24-6.17,27.34,3.46,11.56,15.3,20.09,25.58,20.29,5.26.1,5.85-2.1,18.52-3.53,9.82-1.1,12.9-.17,14.99.88,2.12,1.06,3.38,2.32,6.17,2.65,2.51.29,3.27-.52,7.94-.88,2.03-.16,3.83-.3,6.17,0,2.84.36,3.53.99,7.06,1.76,1.8.39,3.28.56,6.17.88,1.65.18,6.49.72,11.47.88,8.88.3,10.39-.84,18.52-.88,12.89-.06,16.37,2.77,19.4,0,3.53-3.21,2.14-10.03.88-15.88-.94-4.36-3.51-18.15-14.99-29.99-4.09-4.21-8.44-7.31-10.58-8.82-6.77-4.78-9.63-5.3-15.88-10.58-2.2-1.86-3.09-2.85-6.17-5.29-4.64-3.67-7.01-5.52-9.7-6.17-4.52-1.09-6.29.97-8.82-.88-2.38-1.74-2.08-4.5-4.41-5.29-1.84-.63-3.74.51-4.41.88-5.77,3.25-10.27,1.7-24.7,7.94-17.87,7.72-29.3,12.66-37.04,24.69Z"/>
            <path class="cls-6" d="m799.82,44.11c1.18-2.49,4.92-3.46,12.35-5.29,12.28-3.03,18.46-4.56,25.58-1.76,2.26.89,8.29,3.26,11.47,9.7.43.87,3.34,7.03.88,14.11-3.26,9.4-13.08,12.08-14.11,12.35-10.96,2.8-20.26-5.06-24.7-8.82-4.95-4.19-14.39-14.16-11.47-20.29Z"/>
            <path class="cls-5" d="m817.46,24.7c-.64-2.29,1.29-3.8,5.29-9.7,7.35-10.85,6.95-14.76,9.7-14.99,3.81-.33,4.23,7.17,14.99,22.93,1.45,2.13,3.74,5.35,2.65,7.06-.79,1.23-2.88.98-8.82.88-8.27-.14-7.2.29-9.7,0-2.49-.29-12.8-1.47-14.11-6.18Z"/>
          </g>
        </g>
      </g>
      <ellipse class="cls-6" cx="906.88" cy="70.4" rx="3.6" ry="5.4" transform="translate(154.88 582.15) rotate(-38.68)"/>
    </g>
    <g id="corsp">
      <path class="cls-7" d="m709.19,62.47c1.58-.29,5.96,8.51,3.44,10.89-1.01.96-2.87.63-5.58.14-1.84-.33-5.5-1.25-5.46-2.28.03-.93,3-.55,5.14-2.74,2.43-2.45,1.5-5.83,2.46-6.01Z"/>
      <path class="cls-7" d="m697.19,60.07c1.58-.29,5.96,8.51,3.44,10.89-1.01.96-2.87.63-5.58.14-1.84-.33-5.49-1.25-5.46-2.28.03-.93,3-.55,5.14-2.74,2.42-2.46,1.5-5.83,2.46-6.01Z"/>
      <path class="cls-7" d="m686.38,56.47c1.58-.29,5.96,8.51,3.44,10.89-1.01.96-2.87.63-5.58.14-1.84-.33-5.49-1.25-5.46-2.28.03-.93,3-.55,5.14-2.74,2.43-2.46,1.5-5.83,2.46-6.01Z"/>
      <path class="cls-7" d="m674.38,54.07c1.58-.29,5.96,8.51,3.44,10.89-1.01.96-2.87.63-5.58.14-1.84-.33-5.49-1.25-5.46-2.28.03-.93,3-.55,5.14-2.74,2.43-2.46,1.5-5.83,2.46-6.01Z"/>
      <path class="cls-7" d="m662.38,51.67c1.58-.29,5.96,8.51,3.44,10.89-1.01.96-2.87.63-5.58.14-1.84-.33-5.5-1.25-5.46-2.28.03-.93,3-.55,5.14-2.74,2.42-2.46,1.5-5.83,2.46-6.01Z"/>
      <path class="cls-7" d="m649.94,49.23c1.55-.41,6.58,8.04,4.25,10.61-.94,1.03-2.82.84-5.55.56-1.86-.19-5.57-.83-5.61-1.86-.04-.93,2.95-.77,4.92-3.12,2.22-2.64,1.05-5.94,1.99-6.19Z"/>
      <path class="cls-7" d="m637.94,48.03c1.55-.41,6.58,8.04,4.25,10.61-.94,1.03-2.82.84-5.55.56-1.86-.19-5.57-.83-5.61-1.86-.04-.93,2.95-.77,4.92-3.12,2.22-2.64,1.04-5.94,1.99-6.19Z"/>
      <path class="cls-7" d="m624.73,46.83c1.55-.41,6.58,8.04,4.25,10.61-.94,1.03-2.82.84-5.55.56-1.86-.19-5.57-.83-5.61-1.86-.04-.93,2.95-.77,4.92-3.12,2.23-2.64,1.05-5.94,1.99-6.19Z"/>
      <path class="cls-7" d="m611.12,45.63c1.52-.52,7.14,7.55,5,10.27-.86,1.1-2.75,1.04-5.5.96-1.87-.06-5.62-.43-5.73-1.46-.1-.92,2.88-.98,4.69-3.46,2.02-2.79.61-6,1.54-6.31Z"/>
      <path class="cls-7" d="m597.91,45.63c1.52-.52,7.14,7.55,5,10.27-.86,1.1-2.75,1.04-5.5.96-1.87-.06-5.62-.43-5.73-1.46-.1-.92,2.88-.98,4.69-3.46,2.03-2.79.62-6,1.54-6.31Z"/>
      <path class="cls-7" d="m584.71,45.63c1.52-.52,7.14,7.55,5,10.27-.86,1.1-2.75,1.04-5.5.96-1.87-.06-5.62-.43-5.73-1.46-.1-.92,2.88-.98,4.69-3.46,2.02-2.79.61-6,1.54-6.31Z"/>
      <path class="cls-7" d="m571.5,46.83c1.52-.52,7.14,7.55,5,10.27-.86,1.1-2.75,1.04-5.5.96-1.87-.06-5.62-.43-5.73-1.46-.1-.92,2.88-.98,4.69-3.46,2.03-2.79.62-5.99,1.54-6.31Z"/>
      <path class="cls-7" d="m559.5,45.63c1.52-.52,7.14,7.55,5,10.27-.86,1.1-2.75,1.04-5.5.96-1.87-.06-5.62-.43-5.73-1.46-.1-.92,2.88-.98,4.69-3.46,2.02-2.79.62-6,1.54-6.31Z"/>
      <path class="cls-7" d="m545.6,45.69c1.45-.7,8.01,6.62,6.21,9.59-.72,1.19-2.6,1.37-5.34,1.62-1.86.17-5.63.26-5.87-.75-.21-.9,2.74-1.32,4.23-4.01,1.68-3.01-.11-6.02.77-6.45Z"/>
      <path class="cls-7" d="m533.06,47c1.37-.83,8.59,5.84,7.09,8.96-.61,1.25-2.46,1.6-5.17,2.11-1.84.35-5.58.78-5.91-.19-.3-.88,2.61-1.58,3.84-4.38,1.38-3.17-.68-6,.15-6.5Z"/>
      <path class="cls-7" d="m521.06,49.4c1.37-.83,8.59,5.84,7.09,8.96-.61,1.25-2.46,1.6-5.17,2.11-1.84.35-5.58.78-5.91-.19-.3-.88,2.61-1.58,3.84-4.38,1.38-3.17-.68-6,.15-6.5Z"/>
      <path class="cls-7" d="m510.26,50.6c1.37-.83,8.59,5.84,7.09,8.96-.61,1.25-2.46,1.6-5.17,2.11-1.84.35-5.58.78-5.91-.19-.3-.88,2.61-1.58,3.84-4.38,1.38-3.17-.69-6,.15-6.5Z"/>
      <path class="cls-7" d="m498.25,53c1.37-.83,8.59,5.84,7.09,8.96-.61,1.25-2.46,1.6-5.17,2.11-1.84.35-5.58.78-5.91-.19-.3-.88,2.61-1.58,3.84-4.38,1.38-3.17-.68-5.99.15-6.5Z"/>
      <path class="cls-7" d="m486.25,55.4c1.37-.83,8.59,5.84,7.09,8.96-.61,1.25-2.46,1.6-5.17,2.11-1.84.35-5.58.78-5.91-.19-.3-.88,2.61-1.58,3.84-4.38,1.38-3.17-.69-5.99.15-6.5Z"/>
      <path class="cls-7" d="m474.24,57.8c1.37-.83,8.59,5.84,7.09,8.96-.61,1.25-2.46,1.6-5.17,2.11-1.84.35-5.58.78-5.91-.19-.3-.88,2.61-1.58,3.84-4.38,1.38-3.17-.68-5.99.15-6.5Z"/>
      <path class="cls-7" d="m463.44,61.4c1.37-.83,8.59,5.84,7.09,8.96-.61,1.25-2.46,1.6-5.17,2.11-1.84.35-5.58.78-5.91-.19-.3-.88,2.61-1.58,3.84-4.38,1.38-3.16-.68-5.99.15-6.5Z"/>
      <path class="cls-7" d="m450.42,65.36c1.19-1.08,9.54,4.12,8.64,7.47-.36,1.35-2.12,2.04-4.68,3.05-1.74.69-5.33,1.82-5.84.92-.46-.81,2.26-2.04,2.94-5.03.77-3.36-1.79-5.75-1.06-6.41Z"/>
      <path class="cls-7" d="m438.88,71.77c1.02-1.24,10.04,2.69,9.64,6.13-.16,1.38-1.8,2.32-4.18,3.7-1.62.93-5.01,2.58-5.65,1.76-.57-.73,1.94-2.35,2.18-5.4.26-3.44-2.61-5.44-1.99-6.19Z"/>
      <path class="cls-7" d="m428.72,80.59c.87-1.35,10.29,1.47,10.3,4.94.01,1.39-1.51,2.52-3.71,4.17-1.5,1.12-4.67,3.16-5.39,2.42-.65-.66,1.65-2.56,1.52-5.62-.15-3.46-3.25-5.09-2.72-5.91Z"/>
      <path class="cls-7" d="m421.52,87.79c.87-1.35,10.29,1.47,10.3,4.94.01,1.39-1.51,2.52-3.71,4.17-1.5,1.12-4.67,3.16-5.39,2.42-.65-.66,1.65-2.56,1.52-5.62-.15-3.46-3.25-5.09-2.72-5.91Z"/>
      <path class="cls-9" d="m474.77,68.65c-9.52,2.17-24.85,5.92-39.61,18.01-.51.42-1.81,1.5-3.21,2.77-7.91,7.16-24.81,25.06-25.6,51.25-.99,32.49,23.64,58.6,40.81,66.02,2.79,1.21,8.04,3.06,15.61,7.2,9.03,4.93,11.28,7.6,24.01,15.61,8.7,5.47,13.15,8.23,18.01,9.6,5.65,1.59,9.9,1.55,20.41,1.2,16.75-.56,25.12-.83,28.81-1.2,33.96-3.37,42.65-11.28,73.22-13.2,12.22-.77,15.74.19,24.01,0,15.15-.34,71.1-3.51,92.43-42.01,21.48-38.78-1.85-96.33-31.21-109.24-2.02-.89-7.35-2.19-18.01-4.8-8.51-2.08-30.83-7.5-54.02-10.8-12.09-1.72-49.56-6.46-98.43-2.4-22.75,1.87-37.58,5.24-67.23,11.99Z"/>
      <path class="cls-4" d="m448.36,99.86c-8,4.96-15.03,12.58-15.61,13.2-12.75,13.8-24.79,12.56-40.21,30.61-4.72,5.53-5.77,8.19-6,10.8-.17,1.98-.21,7.69,15.61,24.01,4.53,4.68,8.65,8.87,15.61,14.4,9.38,7.45,17.11,11.73,26.41,16.81,16.59,9.06,19.98,8.99,40.21,19.81,12.02,6.43,11.2,6.67,15.61,8.4,15.2,5.96,29.09,5.06,42.01,3.6,43.23-4.88,50.29-13.14,82.83-14.4,15.9-.62,15.99,1.29,31.21,0,13.58-1.15,32.94-2.78,52.82-13.2,11.44-6,29.17-15.23,38.41-34.81,14.38-30.45,1.53-71.61-16.21-77.43-4.49-1.47-5.64.52-16.85-1.3-8.51-1.38-9.94-2.77-26.97-7.7-6.55-1.9-11.83-3.42-19.21-4.8-2.58-.48-6.95-1.13-15.61-2.4-6.74-.99-11-1.62-16.81-2.4-9.51-1.28-14.26-1.93-19.21-2.4-10.31-.99-18.29-1.13-22.81-1.2-15.28-.24-15.99.87-26.41,0-7.43-.62-8.68-1.32-14.4-1.2-4.94.1-6.16.67-18.01,2.4-6.85,1-5.86.73-18.01,2.4-4.53.62-10.47,1.44-16.81,2.4-18.26,2.77-27.57,4.21-36.01,7.2-4.27,1.52-9.43,3.38-15.58,7.2Z"/>
      <path class="cls-7" d="m713,87.7c1.59-.25,5.74,8.66,3.17,10.98-1.04.93-2.89.55-5.58,0-1.83-.38-5.46-1.39-5.4-2.42.06-.93,3.01-.47,5.21-2.61,2.48-2.4,1.64-5.8,2.6-5.95Z"/>
      <path class="cls-7" d="m701.06,84.99c1.59-.25,5.74,8.66,3.17,10.98-1.04.93-2.89.55-5.58,0-1.83-.38-5.46-1.39-5.4-2.42.06-.93,3.01-.47,5.21-2.61,2.48-2.4,1.64-5.8,2.6-5.95Z"/>
      <path class="cls-7" d="m690.36,81.12c1.59-.25,5.74,8.66,3.17,10.98-1.04.93-2.89.55-5.58,0-1.83-.38-5.46-1.39-5.4-2.42.06-.93,3.01-.47,5.21-2.61,2.47-2.4,1.63-5.8,2.6-5.95Z"/>
      <path class="cls-7" d="m678.42,78.41c1.59-.25,5.74,8.66,3.17,10.98-1.04.93-2.89.55-5.58,0-1.83-.38-5.46-1.39-5.4-2.42.06-.93,3.01-.47,5.21-2.61,2.47-2.4,1.63-5.8,2.6-5.95Z"/>
      <path class="cls-7" d="m666.48,75.7c1.59-.25,5.74,8.66,3.17,10.98-1.04.93-2.89.55-5.58,0-1.83-.38-5.46-1.39-5.4-2.42.06-.93,3.01-.47,5.21-2.61,2.47-2.4,1.63-5.79,2.6-5.95Z"/>
      <path class="cls-7" d="m654.11,72.95c1.56-.37,6.37,8.2,3.98,10.71-.96,1.01-2.84.77-5.57.42-1.86-.24-5.55-.97-5.56-2.01-.01-.93,2.97-.7,5-2.99,2.29-2.58,1.2-5.9,2.15-6.13Z"/>
      <path class="cls-7" d="m642.14,71.45c1.56-.37,6.37,8.2,3.98,10.71-.96,1.01-2.84.77-5.57.42-1.86-.24-5.55-.97-5.56-2.01-.01-.93,2.97-.7,5-2.99,2.29-2.59,1.2-5.91,2.15-6.13Z"/>
      <path class="cls-7" d="m628.97,69.91c1.56-.37,6.37,8.2,3.98,10.71-.96,1.01-2.84.77-5.57.42-1.86-.24-5.55-.97-5.56-2.01-.01-.93,2.97-.7,5-2.99,2.29-2.58,1.2-5.91,2.15-6.13Z"/>
      <path class="cls-7" d="m615.39,68.36c1.53-.48,6.95,7.72,4.74,10.4-.89,1.07-2.77.97-5.52.82-1.87-.1-5.61-.57-5.69-1.6-.08-.92,2.91-.91,4.77-3.34,2.1-2.75.77-5.99,1.7-6.28Z"/>
      <path class="cls-7" d="m602.19,68.02c1.53-.48,6.95,7.72,4.74,10.4-.89,1.07-2.77.97-5.52.82-1.87-.1-5.61-.57-5.69-1.6-.08-.92,2.91-.91,4.77-3.34,2.1-2.75.77-5.99,1.7-6.28Z"/>
      <path class="cls-7" d="m588.99,67.69c1.53-.48,6.95,7.72,4.74,10.4-.89,1.07-2.77.97-5.52.82-1.87-.1-5.61-.57-5.69-1.6-.08-.92,2.91-.91,4.77-3.34,2.09-2.75.77-5.99,1.7-6.28Z"/>
      <path class="cls-7" d="m575.76,68.55c1.53-.48,6.95,7.72,4.74,10.4-.89,1.07-2.77.97-5.52.82-1.87-.1-5.61-.57-5.69-1.6-.08-.92,2.91-.91,4.77-3.34,2.09-2.75.77-5.99,1.7-6.28Z"/>
      <path class="cls-7" d="m563.79,67.04c1.53-.48,6.95,7.72,4.74,10.4-.89,1.07-2.77.97-5.52.82-1.87-.1-5.61-.57-5.69-1.6-.08-.92,2.91-.91,4.77-3.34,2.09-2.75.77-5.98,1.7-6.28Z"/>
      <path class="cls-7" d="m549.89,66.75c1.46-.66,7.83,6.82,5.97,9.74-.75,1.17-2.63,1.3-5.38,1.48-1.87.12-5.63.11-5.85-.9-.19-.91,2.78-1.25,4.33-3.9,1.75-2.96.04-6.02.93-6.42Z"/>
      <path class="cls-7" d="m537.33,67.74c1.39-.8,8.44,6.06,6.86,9.14-.64,1.24-2.5,1.54-5.22,1.98-1.85.3-5.6.64-5.9-.35-.27-.89,2.65-1.51,3.95-4.29,1.45-3.12-.54-6,.31-6.48Z"/>
      <path class="cls-7" d="m525.27,69.83c1.39-.8,8.44,6.06,6.86,9.14-.64,1.24-2.5,1.54-5.22,1.98-1.85.3-5.6.64-5.9-.35-.27-.89,2.65-1.51,3.95-4.29,1.45-3.12-.54-5.99.31-6.48Z"/>
      <path class="cls-7" d="m514.44,70.76c1.39-.8,8.44,6.06,6.86,9.14-.64,1.24-2.5,1.54-5.22,1.98-1.85.3-5.6.64-5.9-.35-.27-.89,2.65-1.51,3.95-4.29,1.45-3.12-.54-6,.31-6.48Z"/>
      <path class="cls-7" d="m502.37,72.85c1.39-.8,8.44,6.06,6.86,9.14-.64,1.24-2.5,1.54-5.22,1.98-1.85.3-5.6.64-5.9-.35-.27-.89,2.65-1.51,3.95-4.29,1.46-3.12-.53-5.99.31-6.48Z"/>
      <path class="cls-7" d="m490.31,74.94c1.39-.8,8.44,6.06,6.86,9.14-.64,1.24-2.5,1.54-5.22,1.98-1.85.3-5.6.64-5.9-.35-.27-.89,2.65-1.51,3.95-4.29,1.46-3.11-.53-5.99.31-6.48Z"/>
      <path class="cls-7" d="m478.25,77.04c1.39-.8,8.44,6.06,6.86,9.14-.64,1.24-2.5,1.54-5.22,1.98-1.85.3-5.6.64-5.9-.35-.27-.89,2.65-1.51,3.95-4.29,1.45-3.12-.54-6,.31-6.48Z"/>
      <path class="cls-7" d="m467.36,80.36c1.39-.8,8.44,6.06,6.86,9.14-.64,1.24-2.5,1.54-5.22,1.98-1.85.3-5.6.64-5.9-.35-.27-.89,2.65-1.51,3.95-4.29,1.45-3.11-.54-5.99.31-6.48Z"/>
      <path class="cls-7" d="m454.24,83.99c1.22-1.04,9.43,4.37,8.45,7.69-.39,1.34-2.17,1.98-4.75,2.93-1.76.64-5.38,1.68-5.86.77-.44-.82,2.32-1.98,3.07-4.95.84-3.35-1.65-5.8-.91-6.44Z"/>
      <path class="cls-7" d="m442.54,90.1c1.05-1.21,9.96,2.95,9.48,6.38-.19,1.38-1.86,2.28-4.28,3.59-1.65.89-5.08,2.45-5.69,1.62-.55-.75,2-2.29,2.32-5.34.36-3.45-2.47-5.51-1.83-6.25Z"/>
      <path class="cls-7" d="m432.16,98.66c.9-1.33,10.24,1.73,10.17,5.2-.03,1.39-1.57,2.48-3.82,4.07-1.53,1.08-4.75,3.04-5.45,2.28-.64-.68,1.71-2.52,1.66-5.58-.05-3.46-3.1-5.17-2.56-5.97Z"/>
      <path class="cls-7" d="m424.78,105.67c.9-1.33,10.24,1.73,10.17,5.2-.03,1.39-1.57,2.48-3.82,4.07-1.53,1.08-4.75,3.04-5.45,2.28-.64-.68,1.71-2.52,1.66-5.58-.06-3.45-3.11-5.16-2.56-5.97Z"/>
      <path class="cls-7" d="m416.38,111.67c.9-1.33,10.24,1.73,10.17,5.2-.03,1.39-1.57,2.48-3.82,4.07-1.53,1.08-4.75,3.04-5.45,2.28-.64-.68,1.71-2.52,1.66-5.58-.06-3.45-3.11-5.16-2.56-5.97Z"/>
      <path class="cls-7" d="m406.77,117.68c.9-1.33,10.24,1.73,10.17,5.2-.03,1.39-1.57,2.48-3.82,4.07-1.53,1.08-4.75,3.04-5.45,2.28-.64-.68,1.71-2.52,1.66-5.58-.05-3.46-3.1-5.17-2.56-5.97Z"/>
      <path class="cls-7" d="m397.17,123.68c.9-1.33,10.24,1.73,10.17,5.2-.03,1.39-1.57,2.48-3.82,4.07-1.53,1.08-4.75,3.04-5.45,2.28-.64-.68,1.71-2.52,1.66-5.58-.05-3.45-3.11-5.16-2.56-5.97Z"/>
      <path class="cls-7" d="m387.57,129.68c.9-1.33,10.24,1.73,10.17,5.2-.03,1.39-1.57,2.48-3.82,4.07-1.53,1.08-4.75,3.04-5.45,2.28-.64-.68,1.71-2.52,1.66-5.58-.06-3.45-3.11-5.16-2.56-5.97Z"/>
      <path id="bras-gauche" class="cls-9" d="m723.25,165.88c-.57.01-5.48.12-8.4,3.6-2.73,3.25-2.08,7.47-1.2,13.2,1.01,6.59,2.03,13.22,7.2,18.01.94.87,4.63,2.98,12,7.2,4.5,2.58,5.67,3.13,7.2,4.8,1.17,1.27,2.89,3.57,4.8,10.8,2.61,9.91,1.46,13.47,3.6,14.4,2.87,1.25,8.24-3.72,10.8-8.4.36-.66,4.33-8.18,1.2-15.61-2.07-4.93-5.1-4.66-12-10.8-5.9-5.25-14.22-12.65-15.61-22.81-.7-5.13.63-9.09-2.4-12-2.53-2.43-6.33-2.4-7.19-2.39Z"/>
    </g>
    <path id="cuisse-gauche" class="cls-9" d="m479.57,104.66c-6.53-2.97-26.46-10.79-49.22-3.6-21.76,6.88-45.85,27.41-44.42,49.22.83,12.66,12.16,22.05,34.81,40.81,19.6,16.23,34.37,23.27,63.62,37.21,15.4,7.34,22.47,9.71,31.21,8.4,13.53-2.02,27.88-12.35,30.01-25.21,1.08-6.54-1.5-10.64-8.4-25.21-13.87-29.29-10.14-26.89-16.81-38.41-8.76-15.15-19.35-33.45-40.8-43.21Z"/>
    <path id="mollet-gauche" class="cls-9" d="m513.18,206.7c-7.78,3.66-12.2,9-15.61,13.2-6.95,8.58-9.93,17.44-15.61,34.81-3.09,9.47-4.64,14.2-4.8,18.01-.39,9.12,2.55,12.16,6,30.01,1.71,8.85,2.57,13.27,2.4,18.01-.44,12.33-5,14.99-3.6,22.81,1.39,7.75,7.93,16.7,16.81,18.01,11.81,1.74,22.59-10.82,24.01-20.41.07-.47.03-.35,0-9.6-.03-9.33-.05-13.99,0-15.61.24-8.41,2.98-12.73,7.2-24.01,10.09-26.98,5.01-30.69,14.4-46.82,4.09-7.03,6.54-8.87,7.2-14.4,1.12-9.41-3.86-21.78-14.4-26.41-9.78-4.3-19.42.24-24,2.4Z"/>
    <g id="pied-gauche">
      <path class="cls-9" d="m504.78,326.74c-8.81.2-15.17,7.54-18.01,10.8-2.75,3.17-7.89,9.1-7.2,16.81.47,5.27,3.45,8.9,6,12,5.15,6.27,12.47,10.63,16.81,13.2,4.15,2.47,7.09,3.78,8.4,7.2,1.23,3.23-.23,5.08,1.2,7.2,1.78,2.65,5.66,2.11,13.2,2.4,13.34.51,18.52,2.87,20.41,0,1.58-2.4-1.09-5.52,1.2-8.4,1.48-1.86,3.94-2.26,4.8-2.4,1.9-.31,3.01.12,7.2,1.2,7.09,1.83,7.87,1.62,8.4,1.2,1.47-1.17.01-3.2,1.2-7.2,1.27-4.28,3.84-5.03,3.6-7.2-.3-2.71-4.57-3.99-9.6-6-9.15-3.66-16.53-7.98-20.41-10.8-5.58-4.06-4.23-5.21-12-13.2-9.88-10.18-16.52-17.01-25.2-16.81Z"/>
      <path class="cls-5" d="m545.59,385.56c-1.15-.34-1.91-.2-2.4,0-.55.23-1.51.84-2.4,3.6-.19.59-2.25,6.99,0,8.4.84.53,1.93.15,2.4,0,7.26-2.3,15.53,2.3,16.81,0,1.57-2.83-10.36-10.8-14.41-12Z"/>
      <path class="cls-5" d="m568.4,372.35c-.73.49-1.9,1.87-2.4,3.6-.54,1.86.2,2.37,0,4.8-.29,3.45-1.98,4.7-1.2,6,.46.76,1.44,1.01,3.6,1.2,3.44.31,5.16.46,8.4,0,8.57-1.22,12.38,1.5,13.2,0,1.85-3.38-16.61-18.94-21.6-15.6Z"/>
    </g>
    <g>
      <circle class="cls-8" cx="833.8" cy="53.16" r="8"/>
      <circle class="cls-10" cx="833.8" cy="53.16" r="6"/>
      <circle cx="831.8" cy="53.16" r="4"/>
      <circle class="cls-1" cx="833.8" cy="53.16" r="2"/>
    </g>
  </g>
</svg>