<?xml version="1.0" encoding="UTF-8"?>
<svg id="Calque_2" data-name="Calque 2" xmlns="http://www.w3.org/2000/svg" viewBox="0 0 714.67 330.01">
  <defs>
    <style>
      .cls-1 {
        fill: #eb6424;
      }

      .cls-2 {
        fill: #7c6a0a;
      }

      .cls-3 {
        fill: #fff;
      }

      .cls-4 {
        fill: #3f70c6;
      }

      .cls-5 {
        fill: #c5d86d;
      }

      .cls-6 {
        fill: #1b4332;
      }

      .cls-7 {
        fill: #fa9500;
      }

      .cls-8 {
        fill: #40916c;
      }

      .cls-9 {
        fill: #3fffc6;
      }

      .cls-10 {
        fill: #2d6a4f;
      }

      .cls-11 {
        fill: #be5e0f;
      }

      .cls-12 {
        fill: #52b788;
      }

      .cls-13 {
        fill: #95d5b2;
      }

      .cls-14 {
        fill: #2e294e;
      }
    </style>
  </defs>
  <g id="Calque_1-2" data-name="Calque 1">
    <path id="bras-d" class="cls-12" d="m160.66,161.01c2.08,3.46,2.39,7.64,3,16,.71,9.75,1.01,14.68-2,17-2.78,2.15-6.82,1.26-8,1-.33-.07-5.69-1.34-8-6-1.09-2.21-.92-4.01-1-6-.38-9.85-6.36-11.82-6-19,.24-4.88,3.34-10.83,8-12,5.75-1.44,11.58,4.98,14,9Z"/>
    <path id="avant-bras-d" class="cls-8" d="m149.66,183.01c-1.53-.05-4.07-.1-7,1-.9.34-1.45.64-5,3-7.58,5.03-7.05,4.96-9,6-3.18,1.69-4.07,1.6-5,3-1.17,1.76-1.73,4.82,0,7,1.28,1.62,3.37,2.18,5,2,1.78-.2,2.12-1.21,4-2,2.86-1.21,4.69.01,8,0,2.52-.01,4.68-1.01,9-3,6.94-3.2,10.41-4.8,11-8,.51-2.76-1.29-5.55-3-7-2.15-1.82-4.61-1.9-8-2Z"/>
    <g id="main-d">
      <path class="cls-8" d="m126.66,196.01c-3.71-.3-6.41,2.41-7,3-3.19,3.2-1.33,5.36-5,11-3.55,5.45-4,6-4,6-.58.71-1.7,2.03-2,4-.12.8-.06,1.42,0,2,.15,1.49.37,3.67,2,5,.3.24,1.7,1.38,3,1,2.61-.77,2.78-7.03,3-7,.17.03.43,4.2-1,10-.89,3.59-1.71,4.93-1,7,.62,1.8,2.14,3.45,4,4,.58.17,1.44.43,2,0,.93-.72.07-2.63,0-5-.09-2.93,1.13-3.72,2-7,1.41-5.3.05-10,0-10s1.33,4.93,1,12c-.08,1.74-.27,3.69,1,5,.89.92,2.54,1.55,4,1,1.41-.53,1.97-1.91,2-2,.82-2.1-1.13-3.48-2-7-.75-3.02.41-3.08,0-8-.34-4.09-1.16-4.21-1-7,.16-2.71,1.05-4.8,2-7,1.94-4.52,3.41-5.21,3-7-.52-2.29-3.55-3.8-6-4Z"/>
      <path class="cls-14" d="m116.66,238.01c-1.99-.18-3.4,1.35-4,2-2,2.17-2,4.95-2,6s0,3.82,2,6c.59.65,2.13,2.33,4,2,2.19-.39,3.53-3.31,3-4-.09-.11-.26-.22-3,0-1.59.13-1.82.19-2,0-.74-.78,1.32-3.95,2-5,1.99-3.06,3.28-3.79,3-5-.28-1.18-1.84-1.89-3-2Z"/>
      <path class="cls-14" d="m110.66,224.01c-1.26-1.68-3.35-3.46-4-3-.33.23.02.81,0,2-.02,1.17-.38,1.96-2,5-1.84,3.45-1.93,3.46-2,4-.22,1.81.54,3.81,2,5s3.64,1.57,4,1c.23-.36-.39-.94-1-2-1.04-1.81-2.13-5.13-1-7,1.26-2.08,4.7-1.42,5-3,.1-.53-.27-1.02-1-2Z"/>
      <path class="cls-14" d="m127.66,237.01c-1.22,1.36-1.75,1.35-2,2-.1.25-.23.82,1,3,1.18,2.09,1.76,3.13,3,4,.34.24,2.66,1.86,4,1,.59-.38.77-1.1,1-2,.37-1.48.08-2.7,0-3-.48-1.81-1.76-3.12-2-3-.19.1.41,1,0,2-.03.07-.39.92-1,1-.96.12-1.86-1.71-2-2-.97-2.04-.5-3.89-1-4-.21-.05-.35.28-1,1Z"/>
    </g>
    <path id="pied-d" class="cls-12" d="m271.66,136.01c-7.83-10.46-23.37-19.32-36-15-15.68,5.37-19.57,28.53-22,43-1.24,7.37-1.16,16.24-1,34,.05,5.66.22,11.58,2,19,2.07,8.6,3.54,14.72,9,19,6.35,4.97,16.86,6.51,23,2,5.89-4.32,3.59-11.11,7-23,5.38-18.72,15.8-18.29,22-35,1.04-2.8,9.32-26.2-4-44Z"/>
    <path id="mollet-d" class="cls-12" d="m230.66,218.01c-6.99,5.34-8.32,17.22-4,23,1.56,2.09,2.38,1.4,9,6,4.41,3.07,7.49,5.78,10,8,5.81,5.15,5.9,7.53,11,11,4.64,3.16,6.98,3.11,8,3,2.82-.3,6.31-2.17,7-5,.76-3.12-2.54-4.68-5-11-1.18-3.02-1.45-5.35-2-10-1.05-8.91.59-10.08-1-15-.58-1.8-2.25-6.73-7-10-4.1-2.82-8.33-2.92-12-3-4.79-.11-9.79-.22-14,3Z"/>
    <path id="tibia-d" class="cls-8" d="m265.66,263.01c-3.34,1.1-7.34,4.01-8,8-.57,3.46,1.94,4.18,3,10,.84,4.64-.04,8.15-1,12-.32,1.27-1.79,6.85-4,7-.29.02-.47-.06-1,0-1.25.15-2.82.92-3,2-.11.66.33,1.27,1,2,1.39,1.53,2.52,2.78,5,4,2.09,1.03,4.06,1.35,8,2,3.07.5,4.04.43,5,0,1.76-.78,2.64-2.34,3-3,1.08-1.98.58-2.98,1-7,.3-2.83.58-5.33,2-8,.47-.89.98-1.59,2-3,2.51-3.46,3.22-3.54,4-5,1.36-2.52.8-5.2,0-9-.77-3.66-1.23-5.87-3-8-3-3.61-8.71-5.74-14-4Z"/>
    <g id="pied-d-2" data-name="pied-d">
      <path class="cls-8" d="m265.66,304.01c-4.37-2.46-6.56-3.69-9-3-2.68.75-2.82,2.98-6,5-1.4.89-2.79,1.37-9,2-11.16,1.14-16.74,1.71-20,1-1.07-.23-5.38-1.24-6,0-.26.51.29,1.05,0,2-.23.78-.79,1.07-2,2-1.86,1.43-2.79,2.15-3,3-.25,1.01.12,2.39,1,3,.87.6,1.69.1,5,0h9c.91-.13,1.39-.27,2,0,.89.39.99,1.17,2,2,.66.55,1.29.76,2,1,2.29.78,5.11.16,8,0,5-.28,6.02,1.04,10,0,.21-.05,1.14-.37,3-1,3.93-1.33,5.1-1.81,7-2,.54-.05,1.36-.04,3,0,5.54.12,6.61.51,9,0,1.71-.36,3.32-.71,4-2,.83-1.59-.25-3.64-1-5-.47-.86-2.48-4.33-9-8Z"/>
      <path class="cls-14" d="m213.66,314.01c-1.53.57-2.32-.23-5,0-.87.07-2.48.21-4,1-3.3,1.71-3.57,5.12-5,5-1.09-.09-2.22-2.18-2-4,.42-3.55,5.88-5.32,8-6,4.28-1.38,10.27-1.83,11,0,.46,1.16-1.16,3.32-3,4Z"/>
      <path class="cls-14" d="m231.66,320.01c-1.53.57-2.32-.23-5,0-.87.07-2.48.21-4,1-3.3,1.71-3.57,5.12-5,5-1.09-.09-2.22-2.18-2-4,.42-3.55,5.88-5.32,8-6,4.28-1.38,10.27-1.83,11,0,.46,1.16-1.16,3.32-3,4Z"/>
    </g>
    <g id="oreille-d">
      <path class="cls-11" d="m92.66,53.01C108.02,25.85,101.55.59,105.66.01c4.31-.61,14.75,26.61,18,59,4.63,46.16-7.73,78.99-14,93-6.88,15.36-18.8,35.71-24,34-4.19-1.38.59-15.57-1-40-2.5-38.43-17.32-49.35-9-70,4.41-10.95,8.9-8.67,17-23Z"/>
      <circle class="cls-1" cx="108.16" cy="13.51" r="3"/>
      <circle class="cls-1" cx="113.16" cy="27.51" r="3"/>
      <circle class="cls-1" cx="117.16" cy="45.51" r="3"/>
      <circle class="cls-1" cx="119.16" cy="63.51" r="3"/>
      <circle class="cls-1" cx="119.16" cy="84.51" r="3"/>
      <circle class="cls-1" cx="118.16" cy="106.51" r="3"/>
      <circle class="cls-1" cx="113.16" cy="127.51" r="3"/>
      <circle class="cls-1" cx="108.16" cy="144.51" r="3"/>
      <circle class="cls-1" cx="99.16" cy="160.51" r="3"/>
      <circle class="cls-1" cx="89.16" cy="177.51" r="3"/>
    </g>
    <path id="cuisse-gauche" class="cls-12" d="m311.66,140.01c-7.83-10.46-23.37-19.32-36-15-15.68,5.37-19.57,28.53-22,43-1.24,7.37-1.16,16.24-1,34,.05,5.66.22,11.58,2,19,2.07,8.6,3.54,14.72,9,19,6.35,4.97,16.86,6.51,23,2,5.89-4.32,3.59-11.11,7-23,5.38-18.72,15.8-18.29,22-35,1.04-2.8,9.32-26.2-4-44Z"/>
    <path id="mollet-g" class="cls-12" d="m270.66,222.01c-6.99,5.34-8.32,17.22-4,23,1.56,2.09,2.38,1.4,9,6,4.41,3.07,7.49,5.78,10,8,5.81,5.15,5.9,7.53,11,11,4.64,3.16,6.98,3.11,8,3,2.82-.3,6.31-2.17,7-5,.76-3.12-2.54-4.68-5-11-1.18-3.02-1.45-5.35-2-10-1.05-8.91.59-10.08-1-15-.58-1.8-2.25-6.73-7-10-4.1-2.82-8.33-2.92-12-3-4.79-.11-9.79-.22-14,3Z"/>
    <path id="tibia-g" class="cls-8" d="m305.66,267.01c-3.34,1.1-7.34,4.01-8,8-.57,3.46,1.94,4.18,3,10,.84,4.64-.04,8.15-1,12-.32,1.27-1.79,6.85-4,7-.29.02-.47-.06-1,0-1.25.15-2.82.92-3,2-.11.66.33,1.27,1,2,1.39,1.53,2.52,2.78,5,4,2.09,1.03,4.06,1.35,8,2,3.07.5,4.04.43,5,0,1.76-.78,2.64-2.34,3-3,1.08-1.98.58-2.98,1-7,.3-2.83.58-5.33,2-8,.47-.89.98-1.59,2-3,2.51-3.46,3.22-3.54,4-5,1.36-2.52.8-5.2,0-9-.77-3.66-1.23-5.87-3-8-3-3.61-8.71-5.74-14-4Z"/>
    <g id="pied-g">
      <path class="cls-8" d="m305.66,308.01c-4.37-2.46-6.56-3.69-9-3-2.68.75-2.82,2.98-6,5-1.4.89-2.79,1.37-9,2-11.16,1.14-16.74,1.71-20,1-1.07-.23-5.38-1.24-6,0-.26.51.29,1.05,0,2-.23.78-.79,1.07-2,2-1.86,1.43-2.79,2.15-3,3-.25,1.01.12,2.39,1,3,.87.6,1.69.1,5,0h9c.91-.13,1.39-.27,2,0,.89.39.99,1.17,2,2,.66.55,1.29.76,2,1,2.29.78,5.11.16,8,0,5-.28,6.02,1.04,10,0,.21-.05,1.14-.37,3-1,3.93-1.33,5.1-1.81,7-2,.54-.05,1.36-.04,3,0,5.54.12,6.61.51,9,0,1.71-.36,3.32-.71,4-2,.83-1.59-.25-3.64-1-5-.47-.86-2.48-4.33-9-8Z"/>
      <path class="cls-14" d="m253.66,318.01c-1.53.57-2.32-.23-5,0-.87.07-2.48.21-4,1-3.3,1.71-3.57,5.12-5,5-1.09-.09-2.22-2.18-2-4,.42-3.55,5.88-5.32,8-6,4.28-1.38,10.27-1.83,11,0,.46,1.16-1.16,3.32-3,4Z"/>
      <path class="cls-14" d="m271.66,324.01c-1.53.57-2.32-.23-5,0-.87.07-2.48.21-4,1-3.3,1.71-3.57,5.12-5,5-1.09-.09-2.22-2.18-2-4,.42-3.55,5.88-5.32,8-6,4.28-1.38,10.27-1.83,11,0,.46,1.16-1.16,3.32-3,4Z"/>
    </g>
    <path id="cou" class="cls-8" d="m44.66,73.01c4.31-10.82,14.74-14.77,18-16,6.42-2.43,12.1-2.22,18-2,5.33.2,10.38.39,16,3,4.83,2.25,7.62,5.2,13,11,7.82,8.43,7.76,11.12,15,18,4.2,3.99,7.96,6.64,10,8,2.77,1.84,8.52,5.62,16,8,11.63,3.7,14.34-.12,20,3,9.23,5.1,12.87,21.28,9,34-2.9,9.55-10.56,18.85-21,22-16.74,5.05-34.97-7.41-44-18-10.2-11.96-10.57-23.77-23-32-3.81-2.53-9.89-6.55-16-5-2.19.56-4.08,1.75-8,2-4.04.26-7.09-.7-8-1,0,0-4.24-1.43-8-5-5.54-5.28-11.87-17.78-7-30Z"/>
    <path id="machoire-inf" class="cls-2" d="m41.66,80.01s-14.68,4.72-28,15c-1.59,1.22-4.36,3.53-4,6,.3,2.08,2.67,3.32,4,4,3.96,2.02,8.18,1.92,14,1,7.78-1.23,8.19-2.31,13-3,8.42-1.21,9.69,1.73,21,2,7.63.18,12.88.3,18-3,4.29-2.77,9.87-8.83,9-16-1.01-8.31-10.01-12.55-11-13-3.25-1.47-7.24-2.25-36,7Z"/>
    <path id="bras-g" class="cls-12" d="m171.66,162.01c2.08,3.46,2.39,7.64,3,16,.71,9.75,1.01,14.68-2,17-2.78,2.15-6.82,1.26-8,1-.33-.07-5.69-1.34-8-6-1.09-2.21-.92-4.01-1-6-.38-9.85-6.36-11.82-6-19,.24-4.88,3.34-10.83,8-12,5.75-1.44,11.58,4.98,14,9Z"/>
    <path id="avant-bras-g" class="cls-8" d="m160.66,184.01c-1.53-.05-4.07-.1-7,1-.9.34-1.45.64-5,3-7.58,5.03-7.05,4.96-9,6-3.18,1.69-4.07,1.6-5,3-1.17,1.76-1.73,4.82,0,7,1.28,1.62,3.37,2.18,5,2,1.78-.2,2.12-1.21,4-2,2.86-1.21,4.69.01,8,0,2.52-.01,4.68-1.01,9-3,6.94-3.2,10.41-4.8,11-8,.51-2.76-1.29-5.55-3-7-2.15-1.82-4.61-1.9-8-2Z"/>
    <g id="main-g">
      <path class="cls-8" d="m137.66,197.01c-3.71-.3-6.41,2.41-7,3-3.19,3.2-1.33,5.36-5,11-3.55,5.45-4,6-4,6-.58.71-1.7,2.03-2,4-.12.8-.06,1.42,0,2,.15,1.49.37,3.67,2,5,.3.24,1.7,1.38,3,1,2.61-.77,2.78-7.03,3-7,.17.03.43,4.2-1,10-.89,3.59-1.71,4.93-1,7,.62,1.8,2.14,3.45,4,4,.58.17,1.44.43,2,0,.93-.72.07-2.63,0-5-.09-2.93,1.13-3.72,2-7,1.41-5.3.05-10,0-10s1.33,4.93,1,12c-.08,1.74-.27,3.69,1,5,.89.92,2.54,1.55,4,1,1.41-.53,1.97-1.91,2-2,.82-2.1-1.13-3.48-2-7-.75-3.02.41-3.08,0-8-.34-4.09-1.16-4.21-1-7,.16-2.71,1.05-4.8,2-7,1.94-4.52,3.41-5.21,3-7-.52-2.29-3.55-3.8-6-4Z"/>
      <path class="cls-14" d="m127.66,239.01c-1.99-.18-3.4,1.35-4,2-2,2.17-2,4.95-2,6s0,3.82,2,6c.59.65,2.13,2.33,4,2,2.19-.39,3.53-3.31,3-4-.09-.11-.26-.22-3,0-1.59.13-1.82.19-2,0-.74-.78,1.32-3.95,2-5,1.99-3.06,3.28-3.79,3-5-.28-1.18-1.84-1.89-3-2Z"/>
      <path class="cls-14" d="m121.66,225.01c-1.26-1.68-3.35-3.46-4-3-.33.23.02.81,0,2-.02,1.17-.38,1.96-2,5-1.84,3.45-1.93,3.46-2,4-.22,1.81.54,3.81,2,5s3.64,1.57,4,1c.23-.36-.39-.94-1-2-1.04-1.81-2.13-5.13-1-7,1.26-2.08,4.7-1.42,5-3,.1-.53-.27-1.02-1-2Z"/>
      <path class="cls-14" d="m138.66,238.01c-1.22,1.36-1.75,1.35-2,2-.1.25-.23.82,1,3,1.18,2.09,1.76,3.13,3,4,.34.24,2.66,1.86,4,1,.59-.38.77-1.1,1-2,.37-1.48.08-2.7,0-3-.48-1.81-1.76-3.12-2-3-.19.1.41,1,0,2-.03.07-.39.92-1,1-.96.12-1.86-1.71-2-2-.97-2.04-.5-3.89-1-4-.21-.05-.35.28-1,1Z"/>
    </g>
    <g id="machoire-sup">
      <path class="cls-6" d="m5.76,89.85c-1.87-1.02-2.65-4.13-4.21-10.36-1.02-4.06-2.6-10.36-.55-17.25.57-1.92.67-1.35,3.46-7.88,3.04-7.12,3.04-8.08,4.03-10.04,3.44-6.84,10.74-9.6,21.64-13.73,6.44-2.44,10.74-4.01,16.64-3.49,3.2.28,9.56.85,12.41,5.57,2.17,3.61,1.17,7.76.87,9.01-1.67,6.9-7.7,10.89-9.69,12.25-22.36,15.24-36.65,40.26-44.6,35.92Z"/>
      <circle class="cls-1" cx="8.06" cy="83.75" r="3"/>
      <circle class="cls-1" cx="6.12" cy="64.74" r="3"/>
      <circle class="cls-1" cx="11.86" cy="48.21" r="3"/>
      <circle class="cls-1" cx="27.63" cy="35.71" r="3"/>
      <circle class="cls-1" cx="52.51" cy="32.54" r="3"/>
      <g>
        <path class="cls-10" d="m72.66,82.01c-6.12.64-6.35.31-9,1-1.55.41-5.17,1.39-9,4-2.79,1.9-2.4,2.43-5,4-2.94,1.77-5.66,2.44-8,3-.98.23-3.54.8-7,1-4.26.24-5.55-.32-11,0-2.68.16-3.8.38-5,1-2.02,1.05-2.13,2.15-4,3-.21.09-3.35,1.46-6,0-3.17-1.75-3.02-7-3-8,.09-3.97,2.7-10.53,24-22,21.73-11.71,34.12-18.37,45-13,5.38,2.66,11.69,8.9,12,16,.05,1.19.2,4.62-2,7-.87.94-2.36,1.99-12,3Z"/>
        <path class="cls-13" d="m7.66,89.01c-1.62-1.38-1.74-4.59-2-11-.17-4.18-.42-10.67,3-17,.96-1.77.93-1.18,5-7,4.44-6.35,4.64-7.29,6-9,4.77-5.99,12.48-7.19,24-9,6.81-1.07,11.33-1.72,17,0,3.08.94,9.18,2.79,11,8,1.39,3.98-.45,7.84-1,9-3.05,6.41-9.77,9.08-12,10-25,10.33-44.11,31.88-51,26Z"/>
        <circle class="cls-1" cx="11.16" cy="83.51" r="3"/>
        <circle class="cls-1" cx="13.16" cy="64.51" r="3"/>
        <circle class="cls-1" cx="22.16" cy="49.51" r="3"/>
        <circle class="cls-1" cx="40.16" cy="40.51" r="3"/>
        <circle class="cls-1" cx="65.16" cy="42.51" r="3"/>
      </g>
    </g>
    <g id="oreille-g">
      <path class="cls-7" d="m109.66,56.01c15.36-27.16,8.89-52.42,13-53,4.31-.61,14.75,26.61,18,59,4.63,46.16-7.73,78.99-14,93-6.88,15.36-18.8,35.71-24,34-4.19-1.38.59-15.57-1-40-2.5-38.43-17.32-49.35-9-70,4.41-10.95,8.9-8.67,17-23Z"/>
      <circle class="cls-1" cx="125.16" cy="16.51" r="3"/>
      <circle class="cls-1" cx="130.16" cy="30.51" r="3"/>
      <circle class="cls-1" cx="134.16" cy="48.51" r="3"/>
      <circle class="cls-1" cx="136.16" cy="66.51" r="3"/>
      <circle class="cls-1" cx="136.16" cy="87.51" r="3"/>
      <circle class="cls-1" cx="135.16" cy="109.51" r="3"/>
      <circle class="cls-1" cx="130.16" cy="130.51" r="3"/>
      <circle class="cls-1" cx="125.16" cy="147.51" r="3"/>
      <circle class="cls-1" cx="116.16" cy="163.51" r="3"/>
      <circle class="cls-1" cx="106.16" cy="180.51" r="3"/>
    </g>
    <g id="corps">
      <path class="cls-8" d="m167.66,105.01c-5.64,2.31-9.16,5.51-13,9-15.16,13.79-18.39,31.62-17,37,.16.61,1.3,2.31,2,5,.65,2.5.37,3.3,1,5,.62,1.68,1.66,2.93,4,5,4.76,4.21,8,6,8,6,11.8,6.52,14.79,10.87,28,17,13.76,6.38,23.79,11.03,36,11,3.35-.01,10.78-.38,18,4,3.26,1.98,5.15,4.12,6,5,8.84,9.12,26.01,5.9,58,8,16.59,1.09,23.26,2.69,34-1,4.47-1.54,7.43-5.11,15-8,7.08-2.7,13.25-3.57,18-4,17.07-1.55,32.56.96,40,2,15.57,2.17,27.05,2.12,50,2,13.56-.07,32.23-.24,56-4,4.87-.77,22.09-3.61,44-10,21.98-6.41,26.06-9.78,42-13,7.95-1.6,18.49-3.09,40-3,48.55.21,76.48,8.17,77,6,.62-2.59-37.51-21.47-85-20-14.95.46-14.12,2.42-55,8-33.75,4.6-50.63,6.91-69,7-26.1.13-44.74-3.91-82-12-39.89-8.66-59.84-12.99-84-24-13.42-6.12-26.15-13.27-48-19-10.26-2.69-19.82-4.36-35-7-27.5-4.79-24.42-2.83-40-6-27.06-5.51-35.91-11.35-49-6Z"/>
      <path class="cls-5" d="m190.66,114.01c-2.81,1.26,3.77,12.79,2,29-2.18,19.89-15.33,32.08-13,34,1.69,1.39,9.56-4.19,15-11,1.1-1.38,15.07-19.42,8-38-3.08-8.09-9.67-15.04-12-14Z"/>
      <path class="cls-5" d="m205.66,118.01c-2.81,1.26,3.77,12.79,2,29-2.18,19.89-15.33,32.08-13,34,1.69,1.39,9.56-4.19,15-11,1.1-1.38,15.07-19.42,8-38-3.08-8.09-9.67-15.04-12-14Z"/>
      <path class="cls-5" d="m221.66,123.01c-2.81,1.26,3.77,12.79,2,29-2.18,19.89-15.33,32.08-13,34,1.69,1.39,9.56-4.19,15-11,1.1-1.38,15.07-19.42,8-38-3.08-8.09-9.67-15.04-12-14Z"/>
      <path class="cls-5" d="m237.66,126.01c-2.81,1.26,3.77,12.79,2,29-2.18,19.89-15.33,32.08-13,34,1.69,1.39,9.56-4.19,15-11,1.1-1.38,15.07-19.42,8-38-3.08-8.09-9.67-15.04-12-14Z"/>
      <path class="cls-5" d="m327.42,146.01c-2.91,1.01,2.64,13.07-.54,29.06-3.9,19.63-18.07,30.62-15.92,32.74,1.56,1.54,9.89-3.34,15.9-9.65,1.22-1.28,16.71-18.03,11.29-37.16-2.36-8.32-8.32-15.83-10.73-14.99Z"/>
      <path class="cls-5" d="m343.42,149.01c-2.91,1.01,2.64,13.07-.54,29.06-3.9,19.63-18.07,30.62-15.92,32.74,1.56,1.54,9.89-3.34,15.9-9.65,1.22-1.28,16.71-18.03,11.29-37.16-2.36-8.32-8.32-15.83-10.73-14.99Z"/>
      <path class="cls-5" d="m385.7,167.27c-1.41.49,1.28,6.34-.26,14.09-1.89,9.51-8.76,14.84-7.72,15.87.76.74,4.79-1.62,7.71-4.68.59-.62,8.1-8.74,5.47-18.01-1.15-4.04-4.04-7.68-5.2-7.27Z"/>
      <path class="cls-5" d="m395.7,168.27c-1.41.49,1.28,6.34-.26,14.09-1.89,9.51-8.76,14.84-7.72,15.87.76.74,4.79-1.62,7.71-4.68.59-.62,8.1-8.74,5.47-18.01-1.15-4.04-4.04-7.68-5.2-7.27Z"/>
      <path class="cls-5" d="m406.7,170.27c-1.41.49,1.28,6.34-.26,14.09-1.89,9.51-8.76,14.84-7.72,15.87.76.74,4.79-1.62,7.71-4.68.59-.62,8.1-8.74,5.47-18.01-1.15-4.04-4.04-7.68-5.2-7.27Z"/>
      <path class="cls-5" d="m417.7,171.27c-1.41.49,1.28,6.34-.26,14.09-1.89,9.51-8.76,14.84-7.72,15.87.76.74,4.79-1.62,7.71-4.68.59-.62,8.1-8.74,5.47-18.01-1.15-4.04-4.04-7.68-5.2-7.27Z"/>
      <path class="cls-5" d="m429.7,173.27c-1.41.49,1.28,6.34-.26,14.09-1.89,9.51-8.76,14.84-7.72,15.87.76.74,4.79-1.62,7.71-4.68.59-.62,8.1-8.74,5.47-18.01-1.15-4.04-4.04-7.68-5.2-7.27Z"/>
      <path class="cls-5" d="m440.7,174.27c-1.41.49,1.28,6.34-.26,14.09-1.89,9.51-8.76,14.84-7.72,15.87.76.74,4.79-1.62,7.71-4.68.59-.62,8.1-8.74,5.47-18.01-1.15-4.04-4.04-7.68-5.2-7.27Z"/>
      <path class="cls-5" d="m450.7,175.27c-1.41.49,1.28,6.34-.26,14.09-1.89,9.51-8.76,14.84-7.72,15.87.76.74,4.79-1.62,7.71-4.68.59-.62,8.1-8.74,5.47-18.01-1.15-4.04-4.04-7.68-5.2-7.27Z"/>
    </g>
    <g>
      <circle class="cls-4" cx="56.16" cy="77.51" r="8"/>
      <circle class="cls-9" cx="56.16" cy="77.51" r="6"/>
      <circle cx="54.16" cy="77.51" r="4"/>
      <circle class="cls-3" cx="56.16" cy="77.51" r="2"/>
    </g>
  </g>
</svg>