<?xml version="1.0" encoding="UTF-8"?>
<svg id="Calque_2" data-name="Calque 2" xmlns="http://www.w3.org/2000/svg" viewBox="0 0 954.07 260.66">
  <defs>
    <style>
      .cls-1 {
        fill: #fff;
      }

      .cls-2 {
        fill: #b392ac;
      }

      .cls-3 {
        fill: #9d8189;
      }

      .cls-4 {
        fill: #f7d1cd;
      }

      .cls-5 {
        fill: none;
        stroke: #8c6239;
        stroke-miterlimit: 10;
        stroke-width: 3px;
      }

      .cls-6 {
        fill: #3f70c6;
      }

      .cls-7 {
        fill: #d1b3c4;
      }

      .cls-8 {
        fill: #c08189;
      }

      .cls-9 {
        fill: #e8c2ca;
      }

      .cls-10 {
        fill: #3fffc6;
      }

      .cls-11 {
        fill: #735d78;
      }
    </style>
  </defs>
  <g id="Calque_1-2" data-name="Calque 1">
    <g id="corps">
      <g>
        <path class="cls-4" d="m839.48,59.05c-22.16,8.31-32.13,11.27-32,16,.12,4.38,8.82,7.6,18,11,10.86,4.02,18.53,4.78,31,7,16.28,2.9,13.11,3.35,28,6,6.11,1.09,4.63.65,47,4,7.34.58,15.65,1.25,17-2,.82-1.96-1.72-3.4-3-7-3.96-11.14,11.79-21.38,8-31-1.74-4.41-5.17-2.58-9-9-2.73-4.58-1.88-6.99-5-17-1.84-5.89-2.76-8.84-4-10-5.6-5.24-18.81,1.59-36,9-8.9,3.84-25.93,10.22-60,23Z"/>
        <path class="cls-2" d="m221.48,29.05c-22.12-3.02-33.34-4.44-41,0-14.22,8.24-22.05,29.89-16,48,4.07,12.17,15.06,24.83,28,26,8.5.77,10.17-4.12,24-8,1.7-.48,21.21-5.72,42,0,13.34,3.67,13.82,8.17,33,18,4.69,2.4,21.65,10.99,40,15,5.7,1.25,31.14,6.17,62-3,17.77-5.28,31.75-16.49,60-38,16.61-12.65,23.81-19.83,40-27,4.37-1.93,17.2-7.33,35-10,30.24-4.53,54.2,1.89,71,6,0,0,40.51,9.9,114,20,9.54,1.31,50.08,6.66,101,6,78.74-1.03,137.13-15.01,137-16-.12-.89-47.92,7.88-118,6-3.82-.1-11.14-.33-20.42-.83-39.36-2.12-72.58-6.93-106.58-13.17-26.2-4.81-55.16-11.61-112-25-61.32-14.45-72.27-17.74-102-23C452.82,3.03,432.99-.48,405.48.05c-39.18.75-66.22,1.27-95,17-16.15,8.83-23.48,17.32-41,19-13.67,1.31-18.5-2.98-48-7Z"/>
      </g>
      <path class="cls-9" d="m183.48,69.05c3.4.23,10.3.93,15,6,4.63,4.99,5.79,12.77,4,19-.63,2.21-2.74,8.05-14,15-8.71,5.37-16.79,7.65-35,11-10.09,1.86-19,3.26-38,6-28.32,4.09-28.04,3.79-33,5-10.2,2.49-15.19,4.66-33,9-8.45,2.06-13.01,2.95-19,3-6.84.06-19.13.16-23-6-5-7.95,6.1-23.05,9-27,0,0,36.63-49.85,167-41Z"/>
      <path class="cls-7" d="m197.48,58.05c.61-7.07,1.48-17.11-5-24-1.17-1.24-5.47-5.47-21-7-15.34-1.51-27.4,1-32,2-20.85,4.52-35.97,7.8-56,17-12.75,5.85-30.39,14.13-49,31C18.99,91.09-3.57,107.4.48,120.05c.08.26,1.7,5.06,6,7,8.58,3.86,16.84-8.66,37-10,2.97-.2,2,.13,8,0,12.44-.26,21.83-1.77,29-3,31.22-5.36,46.83-8.05,55-12,9.27-4.48,13.71-8.44,24-10,11.42-1.73,14.23,1.9,21-1,14.7-6.29,16.73-29.89,17-33Z"/>
      <path class="cls-11" d="m102.48,50.05c-4.17-3.18-12.17.17-28,7-18.16,7.83-27.36,11.94-33,21-1.77,2.85-8.22,13.21-4,22,3.31,6.89,11.34,9.03,15,10,13.87,3.69,25.96-3.25,29-5,14.43-8.29,19.35-22.12,21-27,1.02-3.02,7.54-22.26,0-28Z"/>
      <path class="cls-11" d="m122.48,50.05c-3.88.96-4.49,3.47-16,24-6.35,11.32-8.77,15.21-7,19,1.8,3.85,6.71,5,11,6,13.89,3.24,25.88-3.58,30-6,5.74-3.38,9.41-5.53,11-10,3.53-9.93-6.93-20.84-9-23-2.98-3.11-11.58-12.09-20-10Z"/>
    </g>
    <path id="jambe-arriere" class="cls-3" d="m455.48,22.05c-.72-.6-11.17-9.03-23-5-9.38,3.19-16.17,13.04-16,22,.29,15.28,20.65,18.84,34,39,1.24,1.87,3.61,5.69,8,7,4.66,1.39,7.54-1.26,15-2,1.64-.16,5.45.22,13,1,5.65.58,12.47,1.34,21,3,6.25,1.21,9.48,2.15,12,5,.36.41,1.52,1.78,3,6,1.65,4.71,2.16,8.57,3,17,1.05,10.53.94,11.21,2,13,2.41,4.06,6.3,6.08,10,8,.66.34,2.12,1.06,4,1,.68-.02,1.97-.08,3-1,.47-.42,1.28-1.38,1-2-.41-.92-2.86-.39-3-1-.08-.37.74-.85,1-1,1.32-.77,2.09-.34,3-1,.65-.47,1.25-1.41,1-2-.19-.44-.75-.45-4-1-1.01-.17-1.97-.34-3-1-.25-.16-1.1-.7-1-1,.13-.37,1.63.06,4,0,2-.05,3.31-.08,4-1,.62-.83.66-2.26,0-3-.64-.72-1.46-.23-4-1-1.24-.37-1.68-.68-2-1-.65-.65-.85-1.41-1-2-.27-1.04-.59-2.26,0-3,.74-.92,2.05-.04,4-1,.54-.27,1.67-.82,2-2,.3-1.07-.09-2.5-1-3-1.23-.67-2.61.82-4,0-.5-.29-.31-.48-1-1-1.23-.93-2.7-.99-3-1-1.18-.03-1.66.34-2,0-.36-.36.02-.95,0-2-.03-1.41-.74-1.83-1-3-.28-1.26.24-2.16,1-4,0,0,.88-2.13,2-6,1.09-3.77.8-4.66,2-7,.19-.37.8-1.53,2-3,4.88-5.99,12-10,12-10,13.49-7.59,21.37-12.03,21-13-.28-.74-4.35.11-7,1-2.54.85-4.21,1.89-6,3-12.66,7.84-8.48,5.07-13,8-6.85,4.45-6.83,4.55-8,5-5.87,2.23-11.27,1.32-13,1-2.44-.45-6.09-1.48-15-8-10.41-7.62-11.33-10.52-20-16-5.96-3.77-8.95-5.66-13-6-9.91-.84-17.46,6.79-19,5-1.07-1.24,3-4.38,4-10,1.36-7.67-3.76-15.63-9-20Z"/>
    <g id="aile">
      <path class="cls-8" d="m304.48,43.05c-12.46-3.08-30.81,4.09-34,16-2.67,9.99,5.53,22.6,15,28,10.11,5.76,24.67,5.03,28,11,.37.67,1.52,2.73,1,5-.51,2.23-2.38,3.51-3,4-4.41,3.44-3.15,10.99-5,20-2.41,11.73-9.02,20.7-10,22-4.53,6.02-7.83,7.58-8,12-.05,1.4.14,4.78,7,12,9.65,10.15,13.45,7.85,22,17,4.8,5.13,6.17,8.6,12,13,1.33,1.01,3.4,2.44,6,5,4.01,3.95,3.52,4.9,6,7,2.93,2.48,4.92,2.25,14,5,1.16.35,3.77,1.23,9,3,12.17,4.11,18.35,6.22,23,9,2.11,1.26,3.05,2,8,5,5.07,3.07,7.23,4.2,10,5,3.2.92,5.69.95,7,1,10.09.4,15.8,4.59,33,9,4.76,1.22,8.04,1.85,14,3,7.95,1.53,22.05,3.95,40,5,10.73.63,22.51,1.32,23-1,.39-1.84-6.69-3.87-18-11-6.24-3.93-10.4-7.29-15-11-3.37-2.72-14.34-11.78-27-27-11.17-13.43-18.97-22.8-25-37-4.57-10.77-12.35-29.09-8-49,6.98-31.94,41.7-52.21,38-57-.85-1.11-2.65.04-7-1-6.9-1.66-11.11-6.65-14-10-13.51-15.63-20.26-23.45-26-25-3.9-1.05-4.08.23-22,3-15.21,2.35-13.88,1.24-24,3-19.32,3.35-37,9-37,9-5.95,1.9-9.51,3.28-15,3-8.59-.43-11.44-4.38-18-6Z"/>
      <path class="cls-5" d="m322.48,52.05c3.12,7.58,6.5,13.24,9,17,6.84,10.29,11.66,13.19,16,23,2.39,5.4,4.03,9.1,4,14-.07,13.06-11.93,23.37-23,33-13.01,11.32-20.21,13.39-21,21-.48,4.62,1.73,8.16,6,15,7.02,11.24,12.19,10.24,20,21,1.43,1.97,3.39,4.95,7,6,2.88.84,4.43-.24,7,1,2.72,1.32,3.3,3.65,5,6,2.34,3.23,5.59,4.53,12,7,0,0,23.33,8.99,31,12,4.67,1.83,4.56,1.88,10,4,8.57,3.34,12.92,5.04,19,7,9.92,3.2,14.88,4.8,18,5,1.5.1,4.97.23,9,2,2.71,1.19,4.47,2.6,5,3,6.44,4.88,20.29,4.89,26,5,7.54.14,18.23.78,32,3"/>
      <path class="cls-8" d="m296.48,76.05c-5.88-1.95-13.72-2.6-15,0-1.39,2.84,6.41,6.67,12,18,3.67,7.44,4.44,14.16,5,19,1.23,10.74-.37,19.08-1,22-2.18,10.03-3.78,17.43-10,23-4.43,3.97-9.4,5.38-10,10-.27,2.07.28,5.25,2,6,1.27.55,2.84-.36,3,0,.18.38-1.75,1.09-3,3-.44.67-1.54,2.63-1,5,.03.14.67,2.75,3,4,1.93,1.04,3.94.56,4,1,.07.48-2.48.59-3,2-.6,1.62,1.88,3.95,3,5,.86.81,1.67,1.55,3,2,.61.2,2.29.77,4,0,.32-.15,1.95-.88,2-2,.02-.39-.15-1.04-3-3-2.87-1.98-3.74-2.04-4-3-.36-1.35.94-2.81,2-4,.27-.3,1.29-1.41,4-3,1.75-1.02,2.5-1.25,4-2,3.06-1.54,5.15-2.59,6-4,2.03-3.38-3.77-7.71-5-14-1.37-7.01,3.88-11.61,11-23,8.61-13.78,12.92-20.67,13-29,.14-14.86-12.98-28.69-26-33Z"/>
    </g>
    <g>
      <circle class="cls-6" cx="98.98" cy="60.55" r="8"/>
      <circle class="cls-10" cx="98.98" cy="60.55" r="6"/>
      <circle cx="96.98" cy="60.55" r="4"/>
      <circle class="cls-1" cx="98.98" cy="60.55" r="2"/>
    </g>
  </g>
</svg>