<?xml version="1.0" encoding="UTF-8"?>
<svg id="Calque_2" data-name="Calque 2" xmlns="http://www.w3.org/2000/svg" viewBox="0 0 873.94 313.13">
  <defs>
    <style>
      .cls-1 {
        fill: #fff;
      }

      .cls-2 {
        fill: #9cafce;
      }

      .cls-3 {
        fill: #3f70c6;
      }

      .cls-4 {
        fill: #9cafb7;
      }

      .cls-5 {
        fill: #e6b89c;
      }

      .cls-6 {
        fill: #3fffc6;
      }

      .cls-7 {
        fill: #ead2ac;
      }

      .cls-8 {
        fill: #4281a4;
      }
    </style>
  </defs>
  <g id="Calque_1-2" data-name="Calque 1">
    <path id="bras-g" class="cls-2" d="m232.94,180.13c-10.91-3.99-29.48,13.67-35,32-1.03,3.43-3.81,13.14,0,24,1.3,3.7,3.78,10.77,11,15,5.81,3.4,15.05,5.17,21,1,3.63-2.55,2.66-4.94,10-18,3.52-6.27,4.04-6.24,5-9,1.13-3.25,2.26-8.66,0-19-2.85-13.01-5.14-23.5-12-26Z"/>
    <path id="avant-bras-g" class="cls-2" d="m204.94,242.13c-.81.56-3.49,2.52-6,6-3.1,4.3-2.08,5.6-5,10-2.76,4.16-3.92,3.38-7,8-2.49,3.74-3.52,6.93-4,9-.7,3.01-1.3,5.54,0,8,1.21,2.3,3.42,3.29,5,4,3.59,1.61,6.88,1.3,10,1,3.36-.32,5.59-.53,8-2,2.38-1.45,3.59-3.31,6-7,1.52-2.33,1.16-2.23,4-7,2.2-3.7,3.13-4.95,4-6,1.91-2.29,2.86-2.75,4-4,2.87-3.14,5.14-9.25,3-15-1.68-4.52-5.97-8.47-11-9-4.59-.48-8.2,2.04-11,4Z"/>
    <path id="cuisse-g" class="cls-2" d="m357.94,146.13c-15.3,4.48-21.6,23.91-22,36-.15,4.44,2.57,12.62,8,29,5.78,17.43,8.48,21.55,13,24,7,3.79,14.81,1.61,17,1,10.29-2.87,15.82-11.1,19-16,2.25-3.46,17-26.13,6-49-6.88-14.31-24.4-29.86-41-25Z"/>
    <path id="mollet-g" class="cls-2" d="m344.94,206.13c-.86,3.53.42,5.2,5,17,5.66,14.6,5.36,16.33,9,22,1.39,2.17.75.85,9,11,9.17,11.29,10.99,14.17,16,17,2.81,1.58,6.87,3.79,12,3,1.38-.21,5.79-1.1,9-5,3.88-4.72,3.23-10.5,3-12-.88-5.78-4.36-6.71-8-14-2.15-4.3-1.89-5.86-4-14-2.84-10.93-4.26-16.39-7-21-5.8-9.76-19.18-19.23-31-16-5.45,1.49-11.52,5.94-13,12Z"/>
    <g id="pied-g">
      <path class="cls-5" d="m191.94,278.13c-4.92.33-9.76,5.64-11,7-1.72,1.88-2.12,2.93-4,4-2.9,1.65-5.01.9-7,3-1.07,1.13-.61,1.5-2,3-1.46,1.57-3.32,2.62-4,3-2.12,1.18-2.98,1.4-3,2-.03,1.09,2.85,1.96,3,2,2.86.84,5.4,0,6,0,6,0,12.01-.29,18,0,5.85.28,8.38.8,10-1,.6-.66,1.92-2.58,2-5,.05-1.56-.44-2.16,0-3,.96-1.82,4.18-.76,5-2,1.58-2.38-5.49-13.51-13-13Z"/>
      <path class="cls-7" d="m167.94,296v4.53c0,.89-.72,1.6-1.6,1.6h-4.53c-1.43,0-2.14-1.73-1.13-2.74,1.51-1.51,3.02-3.02,4.53-4.53,1-1,2.73-.29,2.73,1.14Z"/>
    </g>
    <g id="pied-g-2" data-name="pied-g">
      <path class="cls-5" d="m400.94,264.13c-3.25.83-4.96,3.42-8,8-2.26,3.41-3.76,5.68-4,9-.26,3.68,1.27,5.3,0,8-.76,1.61-2.01,2.54-4,4-2.28,1.68-3.58,1.88-6,4-.91.8-1.5,1.44-2,2-1.75,1.94-3.5,3.87-3,5,.33.75,1.53.87,3,1,3.44.31,5.14-.7,9-1,1.73-.13,1.45.06,4,0,2.21-.06,4.68-.26,9-1,6.92-1.19,10.39-1.78,12-3,3.6-2.72,4.73-6.84,5-8,.53-2.25-.08-2.26,0-8,.08-5.5.65-6.36,0-9-.21-.85-.89-3.51-3-6-2.32-2.74-7.17-6.24-12-5Z"/>
      <path class="cls-7" d="m379.94,299v4.53c0,.89-.72,1.6-1.6,1.6h-4.53c-1.43,0-2.14-1.73-1.13-2.74l4.53-4.53c1-1,2.73-.29,2.73,1.14Z"/>
      <path class="cls-7" d="m387.94,299v4.53c0,.89-.72,1.6-1.6,1.6h-4.53c-1.43,0-2.14-1.73-1.13-2.74l4.53-4.53c1-1,2.73-.29,2.73,1.14Z"/>
    </g>
    <g id="corps">
      <g>
        <path class="cls-7" d="m425.59,221.57c1.15-8.93,1.42-17.95,1.48-26.95.07-9.31-.67-18.42-1.88-27.65-.58-4.45-.97-8.9-2.43-13.17-1.07-3.14-2.11-6.05-2.56-9.27-10.34-7.4-16.86-11.61-24.27-14.42-11.92-4.52-21.83-5.25-32-6-15.79-1.16-27.68.39-40,2-16.98,2.22-29.74,5.55-35,7-13.63,3.76-23.47,7.72-34,12-13.61,5.53-13.53,6.31-36,16-16.61,7.17-23.57,9.73-32,12-14.15,3.82-21.91,3.98-24,4-6.04.06-15.4.15-25-4-17.2-7.44-24.87-24.06-29-33-4.62-10.01-6.08-18.34-9-35-2.65-15.1-1.38-15.64-4-29-2.42-12.31-4.58-22.91-11-35-3.65-6.86-8.01-14.88-17-22-3.75-2.97-15.98-12.65-29-10-2.08.42-6.37,1.36-10,5-3.22,3.23-4.17,6.83-5,10-.72,2.75-1.33,5.22,0,7,.33.44,1.04,1.18,4,2,3.91,1.08,7.14,1.02,8,1,7.42-.19,8.18-1.37,11-1,5.05.67,8.33,5.2,11,9,5.57,7.92,7.38,15.89,9,25,2.08,11.71,2.41,17.23,4,30,1.17,9.4,2.52,20.15,5,33,2.93,15.19,4.4,22.79,8,31,1.27,2.89,6.64,14.72,18,27,9.76,10.55,19.21,16.32,27,21,5.74,3.45,12.1,6.76,30,14,22.34,9.03,33.51,13.55,43,16,8.44,2.18,10.81,2.15,60,8,25.12,2.99,23.03,2.82,25,3,6.12.55,80-3,80-3,35.01-1.68,48.91,3.11,55.05-6.49,1.63-2.51,2.19-8.03,3.61-19.05Z"/>
        <path class="cls-8" d="m447.44,193.63c2.3-38.07-35.96-62.26-39.82-64.62-5.6-3.43-11.68-5.88-11.68-5.88-11.92-4.52-21.83-5.25-32-6-15.79-1.16-27.68.39-40,2-16.98,2.22-29.74,5.55-35,7-13.63,3.76-23.47,7.72-34,12-13.61,5.53-13.53,6.31-36,16-16.61,7.17-23.57,9.73-32,12-14.15,3.82-21.91,3.98-24,4-6.04.06-15.4.15-25-4-17.2-7.44-24.87-24.06-29-33-4.62-10.01-6.08-18.34-9-35-2.65-15.1-1.38-15.64-4-29-2.42-12.31-4.58-22.91-11-35-3.65-6.86-8.01-14.88-17-22-3.75-2.97-15.98-12.65-29-10-2.08.42-6.37,1.36-10,5-3.22,3.23-4.17,6.83-5,10-.72,2.75-1.33,5.22,0,7,.33.44,1.04,1.18,4,2,3.91,1.08,7.14,1.02,8,1,7.42-.19,8.18-1.37,11-1,5.05.67,8.33,5.2,11,9,5.57,7.92,7.38,15.89,9,25,2.08,11.71,2.41,17.23,4,30,1.17,9.4,2.52,20.15,5,33,2.93,15.19,4.4,22.79,8,31,1.27,2.89,6.64,14.72,18,27,9.76,10.55,19.21,16.32,27,21,5.74,3.45,12.1,6.76,30,14,22.34,9.03,33.51,13.55,43,16,8.44,2.18,10.81,2.15,60,8,25.12,2.99,23.03,2.82,25,3,31.47,2.82,45.98-1.17,80-3,16.97-.91,34.54-1.86,55.25-.47,4.91-4.05,23.71-20.54,25.25-46.03Z"/>
      </g>
      <path class="cls-5" d="m426.28,215.02c-1.34,2.68-2.16,4.57-1.34,7.11.11.35.26.69.42,1.02.08-.53.16-1.05.23-1.58.28-2.18.5-4.36.69-6.55Z"/>
      <path class="cls-5" d="m170.53,177.84c-2.7,3.21.26,6.48-1.6,15.97-1.92,9.8-6.15,11.8-4.79,15.97,2.63,8.12,21.98,11.06,24.76,6.39,1.67-2.8-4.06-5.9-3.99-12.78.1-10.68,14.03-14.75,12.78-20.76-1.43-6.87-21.63-11.37-27.16-4.79Z"/>
      <path class="cls-5" d="m143.46,175.91c-2.11,1.94-.39,4.43-2.48,10.72-2.16,6.5-5.21,7.48-4.66,10.44,1.08,5.75,13.97,9.44,16.27,6.51,1.38-1.76-2.24-4.37-1.6-9.04,1.01-7.25,10.83-8.8,10.51-13-.36-4.79-13.7-9.61-18.04-5.63Z"/>
      <path class="cls-5" d="m122.85,168.94c-1.73,1.29-.63,3.28-2.67,7.83-2.11,4.69-4.46,5.2-4.27,7.45.37,4.38,9.73,8.12,11.67,6.1,1.16-1.21-1.35-3.44-.51-6.88,1.3-5.35,8.76-5.76,8.84-8.92.08-3.61-9.52-8.23-13.06-5.58Z"/>
      <path class="cls-5" d="m111.47,151.85c-2.14.27-2.17,2.54-6.19,5.48-4.16,3.03-6.45,2.31-7.4,4.36-1.85,3.99,4.43,11.87,7.12,11.08,1.61-.47.53-3.65,2.96-6.23,3.78-4,10.46-.66,12.1-3.37,1.86-3.1-4.2-11.87-8.59-11.32Z"/>
      <path class="cls-5" d="m98.11,132.03c-2.15.14-2.32,2.41-6.51,5.1-4.33,2.78-6.58,1.92-7.65,3.91-2.08,3.87,3.71,12.12,6.44,11.49,1.63-.38.75-3.61,3.33-6.04,4.01-3.77,10.49-.03,12.28-2.64,2.05-2.99-3.48-12.1-7.89-11.82Z"/>
      <path class="cls-5" d="m94.64,108.64c-2.15-.19-2.65,2.03-7.2,4.06-4.7,2.1-6.79.91-8.15,2.72-2.64,3.51,1.85,12.54,4.65,12.32,1.67-.13,1.28-3.46,4.2-5.47,4.53-3.12,10.37,1.54,12.54-.77,2.46-2.64-1.63-12.48-6.04-12.86Z"/>
      <path class="cls-5" d="m91.63,88.19c-2.12-.4-2.84,1.75-7.58,3.3-4.89,1.61-6.85.21-8.38,1.87-2.98,3.23.56,12.66,3.36,12.74,1.68.04,1.63-3.31,4.74-5.01,4.83-2.64,10.16,2.59,12.55.51,2.72-2.38-.35-12.58-4.69-13.41Z"/>
      <path class="cls-5" d="m89.19,68.25c-1.97-.58-2.85,1.38-7.48,2.4-4.77,1.05-6.49-.46-8.1.97-3.13,2.76-.67,12.02,1.97,12.35,1.58.2,1.85-2.97,4.95-4.29,4.81-2.04,9.35,3.42,11.81,1.68,2.81-1.97.88-11.91-3.15-13.11Z"/>
      <path class="cls-5" d="m85.73,49.86c-1.82-.54-2.65,1.28-6.93,2.23-4.42.98-6.02-.42-7.51.9-2.9,2.56-.62,11.14,1.82,11.45,1.47.19,1.72-2.76,4.59-3.97,4.46-1.89,8.67,3.17,10.95,1.56,2.6-1.85.81-11.07-2.92-12.17Z"/>
      <path class="cls-5" d="m79.44,31.6c-1.78-.29-2.33,1.53-6.25,2.93-4.04,1.45-5.71.34-6.95,1.76-2.41,2.76.77,10.55,3.11,10.54,1.4,0,1.28-2.8,3.83-4.29,3.96-2.32,8.54,1.92,10.48.13,2.23-2.04-.57-10.48-4.22-11.07Z"/>
      <path class="cls-5" d="m67.85,16.57c-1.78.26-1.76,2.16-5.07,4.68-3.42,2.6-5.34,2.04-6.1,3.77-1.47,3.36,3.91,9.83,6.13,9.12,1.33-.42.38-3.06,2.36-5.25,3.08-3.4,8.72-.74,10.03-3.03,1.51-2.61-3.7-9.82-7.35-9.29Z"/>
      <path class="cls-5" d="m296.2,147.9c-5.01,7.54,2.13,13.84.44,34.69-1.75,21.52-10.34,26.82-6.42,35.46,7.62,16.79,49.87,18.42,54.71,7.72,2.9-6.41-10.15-11.69-11.67-26.47-2.36-22.96,26.56-35.07,22.41-47.69-4.73-14.4-49.19-19.17-59.47-3.71Z"/>
      <path class="cls-5" d="m231.6,159.87c-3.57,5.85,2.02,10.4,1.35,26.2-.69,16.31-7.03,20.57-3.82,26.99,6.25,12.47,38.23,12.47,41.58,4.24,2-4.93-8.01-8.54-9.59-19.67-2.46-17.29,19.05-27.28,15.54-36.7-4-10.75-37.74-13.05-45.06-1.06Z"/>
    </g>
    <g id="queue">
      <g>
        <path class="cls-7" d="m848.94,295.13c-35.67-2.26-67.45-7.51-131-18-13.78-2.27-34.83-6.06-61.75-12.46-2.21-.53-4.16-1.02-6.25-1.54-21.43-5.43-36.03-10.31-65-20-22.19-7.42-33.28-11.13-44-16-7.52-3.42-28.15-13.19-52-30-5.98-4.21-13.98-10.48-30-23-13.55-10.6-43.88-33.12-57.77-41.29-.46,7.33.22,14.77.9,22.03.75,8.05,1.31,17.17,1.88,30.97.84,20.37.03,41.67-.52,52.79,10.21,6.06,17.61,7.87,22.65,8.32,1.42.13,5.67.44,11.85,1.18,16.42,1.96,15.63,3.19,63,13,21.46,4.44,41.78,8.63,68,13,7.43,1.24,14.05,2.28,20.18,3.2,22.14,3.31,38.37,5.26,42.82,5.8,57.08,6.92,141.44,24.91,215,19,5.52-.44,27.03-2.17,27-4-.02-1.58-16.13-2.44-24.99-3Z"/>
        <path class="cls-8" d="m848.94,294.13c-13.94-1.51-53.15-9.03-131-24-50.86-9.78-57.8-11.41-68-14-21.43-5.43-36.03-10.31-65-20-22.19-7.42-33.28-11.13-44-16-7.52-3.42-28.15-13.19-52-30-5.98-4.21-13.98-10.48-30-23-14.55-11.38-19.98-17.04-31-24-10.72-6.77-20.24-11.01-26.5-13.5-1.93.03-4.73.22-8,1,0,0-4.95,1.18-10,4-5.84,3.26-24.16,17.14-29,32-7.05,21.63,11.05,55.77,49.16,72.34,10.57.09,21.87.67,34.34,2.16,16.42,1.96,15.63,3.19,63,13,21.46,4.44,41.78,8.63,68,13,26.31,4.39,42.4,6.28,63,9,85.98,11.34,156.54,25.19,217,24,5.86-.12,24.94-.49,25-2,.06-1.43-16.99-3.13-25-4Z"/>
      </g>
      <path class="cls-5" d="m432.94,182.13c-3.38,4.02.33,8.11-2,20-2.4,12.28-7.7,14.77-6,20,3.29,10.16,27.52,13.85,31,8,2.09-3.5-5.08-7.39-5-16,.13-13.37,17.57-18.47,16-26-1.79-8.6-27.08-14.23-34-6Z"/>
      <path class="cls-5" d="m479.9,205.49c-2.6,3.1.25,6.25-1.54,15.41-1.85,9.46-5.93,11.38-4.62,15.41,2.54,7.83,21.21,10.67,23.89,6.16,1.61-2.7-3.92-5.69-3.85-12.33.1-10.31,13.54-14.23,12.33-20.04-1.39-6.61-20.88-10.95-26.21-4.61Z"/>
      <path class="cls-5" d="m520.25,223.76c-1.99,2.36.19,4.77-1.18,11.76-1.41,7.22-4.53,8.69-3.53,11.76,1.94,5.98,16.18,8.14,18.23,4.71,1.23-2.06-2.99-4.35-2.94-9.41.08-7.87,10.33-10.86,9.41-15.29-1.05-5.06-15.92-8.37-19.99-3.53Z"/>
      <path class="cls-5" d="m556.99,236.92c-1.53,1.82.15,3.68-.91,9.06-1.09,5.56-3.49,6.69-2.72,9.06,1.49,4.61,12.47,6.28,14.05,3.63.95-1.59-2.3-3.35-2.27-7.25.06-6.06,7.96-8.37,7.25-11.78-.81-3.9-12.27-6.46-15.4-2.72Z"/>
      <path class="cls-5" d="m591.99,244.92c-1.53,1.82.15,3.68-.91,9.06-1.09,5.56-3.49,6.69-2.72,9.06,1.49,4.61,12.47,6.28,14.05,3.63.95-1.59-2.3-3.35-2.27-7.25.06-6.06,7.96-8.37,7.25-11.78-.81-3.9-12.27-6.46-15.4-2.72Z"/>
      <path class="cls-5" d="m623.54,254.73c-1.12,1.34.11,2.7-.67,6.65-.8,4.08-2.56,4.91-2,6.65,1.1,3.38,9.15,4.61,10.31,2.66.69-1.17-1.69-2.46-1.66-5.32.04-4.45,5.84-6.14,5.32-8.65-.59-2.85-9-4.72-11.3-1.99Z"/>
      <path class="cls-5" d="m648.48,261.44c-.88,1.04.09,2.11-.52,5.19-.62,3.19-2,3.84-1.56,5.19.86,2.64,7.15,3.6,8.05,2.08.54-.91-1.32-1.92-1.3-4.16.03-3.47,4.56-4.8,4.16-6.75-.47-2.22-7.03-3.69-8.83-1.55Z"/>
      <path class="cls-5" d="m672.42,268.15c-.63.75.06,1.51-.37,3.73-.45,2.29-1.44,2.76-1.12,3.73.62,1.9,5.14,2.59,5.79,1.49.39-.65-.95-1.38-.93-2.99.02-2.5,3.28-3.45,2.99-4.85-.35-1.6-5.07-2.65-6.36-1.11Z"/>
    </g>
    <g id="tete">
      <path class="cls-7" d="m33.71,18.59c.67.37,7.07,3.98,6.59,7.9-.46,3.67-6.82,6.51-11.86,6.59-2.24.03-6.78-.45-10.54-1.32-1.36-.31-3.29-.84-5.27,0-1.08.45-1.31.94-2.63,1.32-.37.1-1.98.52-3.95,0-.96-.25-2.05-.55-2.63-1.32-1.45-1.92.91-5.89,1.32-6.59,4.38-7.4,18.98-12.07,28.97-6.58Z"/>
      <path class="cls-4" d="m44.24,10.69c.19,1.15.69,4.52-1.32,7.9-1.63,2.74-4.62,5-7.9,5.27-2.61.21-3.17-1.02-6.59-1.32-.96-.08-2.45-.12-7.9,1.32-8.11,2.14-13.17,3.95-13.17,3.95-3.91,1.4-5.57,2.19-6.59,1.32-1.15-.98-.9-3.56,0-5.27.8-1.53,2.09-2.3,2.63-2.63,3.86-2.38,8.25-6.14,10.54-9.22,2.93-3.95,1.19-5.14,3.95-7.9C21.23.77,25.94.37,28.43.16c2.75-.23,5.9-.5,9.22,1.32.48.25,5.6,3.16,6.59,9.21Z"/>
    </g>
    <path id="cuisse-d" class="cls-4" d="m375.94,137.13c-2.43-.31-16.45-1.89-29,7-7.3,5.17-10.58,11.38-15,20-8.03,15.67-4.63,19.43-13,43-4.61,12.98-7.16,16.14-6,23,1.28,7.55,6.57,16.69,16,20,9.26,3.25,17.64-.85,20-2,5.9-2.88,7.08-5.89,17-18,9.95-12.14,15.5-18.92,24-26,9.41-7.83,11.31-6.77,15-12,5.79-8.21,7.78-20.3,4-31-7.17-20.29-30.88-23.73-33-24Z"/>
    <path id="mollet-d" class="cls-4" d="m335.94,221.13c-8.64-.38-14.4,6.09-17,9-1.73,1.94-8.83,9.91-7,18,.88,3.87,3.36,5.81,4,12,.25,2.44-.13,2.19,0,6,.13,4.09.6,5.16,2,14,1.11,7.01,1.03,7.65,2,9,2.49,3.47,6.75,4.47,9,5,3.93.92,7.07.36,9,0,2.77-.52,5.22-.98,7-3,1.18-1.34,1.63-2.86,2-5,1.07-6.28-.06-9.27,0-16,.03-2.81.06-5.97,1-10,1.14-4.88,2.45-6.03,4-11,1.39-4.46,2.55-8.18,2-12-1.07-7.46-8.69-15.59-18-16Z"/>
    <g id="pied-d">
      <path class="cls-5" d="m330.94,287.13c-5.05.98-8.76,5.01-10,8-.18.43-.42,1.12-1,2-.45.68-1.68,2.35-5,4-3.59,1.78-4.73,1.11-7,3-1.71,1.42-1.94,2.53-2,3-.11.91.12,2.11,1,3,.21.21.95.96,2,1,1.36.06,1.74-1.12,3-1,.84.08.93.62,2,1,1.21.42,2.23.13,3,0,2.22-.37,3.43.47,6,1,1.15.24,1.89.27,8,0,10.76-.48,12.09-.74,13-2,1.26-1.73,1.05-4.41,1-5-.18-2.22-1.09-2.82-1-5,.08-2.03.91-2.35,1-4,.16-2.93-2.26-5.29-3-6-4.32-4.2-10.73-3.05-11-3Z"/>
      <path class="cls-7" d="m310.94,305v4.53c0,.89-.72,1.6-1.6,1.6h-4.53c-1.43,0-2.14-1.73-1.13-2.74l4.53-4.53c1-1,2.73-.29,2.73,1.14Z"/>
      <path class="cls-7" d="m317.94,306v4.53c0,.89-.72,1.6-1.6,1.6h-4.53c-1.43,0-2.14-1.73-1.13-2.74l4.53-4.53c1-1,2.73-.29,2.73,1.14Z"/>
      <path class="cls-7" d="m325.94,307v4.53c0,.89-.72,1.6-1.6,1.6h-4.53c-1.43,0-2.14-1.73-1.13-2.74l4.53-4.53c1-1,2.73-.29,2.73,1.14Z"/>
    </g>
    <path id="bras-d" class="cls-4" d="m210.94,187.13c-10.84,3.97-14.5,14.48-15,16-2.95,8.94.06,16.68,1,19,2.96,7.28,6.3,6.86,14,17,8.1,10.67,6.59,14.03,13,19,1.52,1.18,11.23,8.71,20,5,7.29-3.09,9.32-12.01,10-15,1.99-8.74-1.1-15.98-2-18-4.2-9.48-9.72-8.63-13-17-3.68-9.38,1.96-13.76-2-20-4.45-7.02-16.62-9.44-26-6Z"/>
    <path id="avant-bras-d" class="cls-4" d="m229.94,224.13c-6.55,1.78-10.64,9.53-11,16-.52,9.4,7.16,9.83,9,23,.36,2.61.95,8.91,3,17,.52,2.04,1.13,4.19,3,6,2.84,2.75,6.7,2.88,10,3,4.06.14,9.42.33,12-3,.95-1.23,1.21-2.53,1-9-.24-7.3-.75-11.45-1-16-.51-9.4.77-8.42,0-13-.49-2.89-2.41-11.6-10-18-3.02-2.54-9.28-7.82-16-6Z"/>
    <g id="main-d">
      <path class="cls-5" d="m242.94,280.13c-4.76,1.2-9.95,5.15-10,9-.02,1.24.45,2.25,0,4-.52,2-2.03,3.24-3,4-6.72,5.27-12.16,6.95-12,9,.1,1.34,2.56,2.17,5,3,1.38.47,3.13.86,9,1,2.96.07,3.3-.01,8,0,4.65.01,5.43.1,8,0,7.55-.29,8.59-1.31,9-2,.41-.68.17-.97,0-4-.29-5.2.37-4.97,0-9-.16-1.74-.36-2.63,0-4,.31-1.18.75-1.64,1-3,0,0,.28-1.56,0-3-.63-3.19-8.16-6.73-15-5Z"/>
      <path class="cls-7" d="m223.94,303v4.53c0,.89-.72,1.6-1.6,1.6h-4.53c-1.43,0-2.14-1.73-1.13-2.74,1.51-1.51,3.02-3.02,4.53-4.53,1-1,2.73-.29,2.73,1.14Z"/>
      <path class="cls-7" d="m228.94,304v4.53c0,.89-.72,1.6-1.6,1.6h-4.53c-1.43,0-2.14-1.73-1.13-2.74,1.51-1.51,3.02-3.02,4.53-4.53,1-1,2.73-.29,2.73,1.14Z"/>
    </g>
    <g>
      <circle class="cls-3" cx="29.44" cy="10.63" r="6"/>
      <circle class="cls-6" cx="29.44" cy="10.63" r="4.5"/>
      <circle cx="27.94" cy="10.63" r="3"/>
      <circle class="cls-1" cx="29.44" cy="10.63" r="1.5"/>
    </g>
  </g>
</svg>