<?xml version="1.0" encoding="UTF-8"?>
<svg id="Calque_2" data-name="Calque 2" xmlns="http://www.w3.org/2000/svg" viewBox="0 0 1228.97 222.77">
  <defs>
    <style>
      .cls-1 {
        fill: #fff;
      }

      .cls-2 {
        fill: #ea9eba;
      }

      .cls-3 {
        fill: #114b5f;
      }

      .cls-4 {
        fill: #3f70c6;
      }

      .cls-5 {
        fill: #fdce35;
      }

      .cls-6 {
        fill: #f3ff8a;
      }

      .cls-7 {
        fill: #3fffc6;
      }

      .cls-8 {
        fill: #ea9e8d;
      }
    </style>
  </defs>
  <g id="Calque_1-2" data-name="Calque 1">
    <path id="machoire-inf" class="cls-2" d="m2.41,28.21c-.66.65-2.47,2.41-2.23,4.45.12.99.79,2.64,4.45,4.45,5.34,2.64,10.06,2.16,15.58,2.23.1,0,6.74.74,20.03,2.23,8.2.91,11.36,1.29,15.58,0,1.88-.58,3.09-1.21,6.68-2.23,5.64-1.59,6.84-1.2,8.9-2.23,4.13-2.06,7.4-7.7,6.68-11.13-2.8-13.3-68.21-5.04-75.67,2.23Z"/>
    <path id="n-d" class="cls-3" d="m748.03,54.92c-8.39-1.56-18.45,5.46-20.03,13.35-.61,3.04.33,5.78,2.23,11.13,3.01,8.46,6.26,12.8,8.9,17.81,4.76,9.02,5.04,15.47,6.68,22.26,3.72,15.41,12.98,26.4,24.48,40.06,29.11,34.56,80.07,69.37,86.8,62.32,2.01-2.11-2.37-11.05-11.13-28.93-9.34-19.07-12.29-21.11-17.81-33.39-10.45-23.27-3.97-25.1-13.35-42.29-7.24-13.26-16.46-30.15-31.16-33.39-3.77-.83-12.93-1.87-17.81-8.9-1.1-1.59-.9-1.91-2.23-4.45-2.41-4.61-7.36-14.05-15.57-15.58Z"/>
    <path id="n-g" class="cls-3" d="m946.11,54.92c-5.21.2-10.03,5.7-11.13,11.13-1.02,5.02,1.29,9.35,2.23,11.13,15.25,28.84,7.78,20.92,17.81,35.61,10.26,15.03,16.03,23.47,26.71,33.39,16.69,15.49,32.41,22.52,46.74,28.93,10.3,4.61,30.14,13.49,33.39,8.9,1.91-2.7-3.28-8.2-11.13-20.03-16-24.13-12.26-28.21-26.71-48.97-10.9-15.65-16.35-23.48-26.71-28.93-9.86-5.19-16.97-4.78-26.71-13.35-1.59-1.4-5.51-4.64-13.35-11.13-6.38-5.27-8.29-6.79-11.14-6.68Z"/>
    <g id="corps">
      <path class="cls-5" d="m73.64,14.86c-2.65.33-11.77,1.48-13.35,6.68-1.43,4.7,4.14,10.68,8.9,13.35,3.03,1.71,5.8,2.11,6.68,2.23,15.44,2.09,23.16,3.14,31.16,2.23,8.26-.94,29.99,1.6,73.45,6.68,16.48,1.93,47.74,5.93,86.8,13.35,27.43,5.21,25.83,5.89,53.42,11.13,8.61,1.64,31.56,5.9,86.8,13.35,47.51,6.41,71.26,9.62,91.25,11.13,35.75,2.7,62.25,4.7,97.93,2.23,0,0,46.67-4.45,66.77-4.45,1.05,0,10.55.02,24.48,0,4,0,4.07-.01,4.45,0,14.2.25,26.05,5.46,28.93,6.68,7.16,3.03,21.6,7.23,51.19,11.13,33.41,4.41,50.11,6.61,51.19,6.68,22.23,1.43,56.01,2.91,93.48-8.9,5.85-1.85,3.8-1.5,31.16-11.13,25.04-8.81,37.74-13.27,46.74-15.58,11.92-3.07,23.39-4.88,51.19-6.68,39.44-2.55,64.59-1.24,91.25-2.23,1.48-.05,5.61-.22,11.13,0,4.39.17,11.42.48,20.03,2.23,3.32.67,14.1,3.03,26.71,8.9,6.18,2.88,8.74,4.71,13.35,4.45,7.27-.41,12.28-5.57,13.35-6.68,5.49-5.66,6.3-12.44,6.68-15.58.31-2.62.7-8.74-2.23-15.58-1.13-2.65-4.23-9.91-11.13-13.35-8.58-4.28-18.29-.31-24.48,2.23-14.04,5.74-16.18,13.51-28.93,15.58-4.35.7-7.64.37-11.13,0-34.66-3.72-51.19-6.68-51.19-6.68-38.97-7.42-32.18-5.21-48.97-8.9-14.77-3.25-16.07-4.09-51.19-13.35-29.4-7.75-44.46-11.71-62.32-15.58-22.57-4.89-33.86-7.34-48.97-8.9-25.36-2.63-44.46-1.35-64.55,0-16.41,1.1-38.68,2.68-66.77,8.9-25.71,5.69-27.38,8.87-60.09,17.81-16.32,4.46-41.63,11.28-73.45,15.58-23.77,3.21-44.04,3.63-84.58,4.45-19.28.39-38.56.79-64.55,0-8.91-.27-40.12-1.33-91.25-6.68-26.38-2.76-30.34-3.76-86.8-11.13-64.29-8.39-96.44-12.58-111.29-13.35-46.08-2.4-92.88-.54-104.61-2.23-.3-.07-3.06-.47-6.64-.02Z"/>
      <path class="cls-8" d="m1167.57,64.94c.39-2.21,10.82-.47,28.93-2.23,19.64-1.91,26.12-5.78,28.93-2.23,4.11,5.2-3.06,21.99-13.35,24.48-5.57,1.35-8.1-2.44-26.71-11.13-12.49-5.83-18.09-7.26-17.8-8.89Z"/>
      <path class="cls-8" d="m738.01,20.42c-4.69,3.42-27.12,20.75-24.48,42.29,2.94,24.01,34.91,35.92,40.06,37.84,8.81,3.28,11.04,2.18,40.06,6.68,22.54,3.49,28.69,5.31,37.84,6.68,27.41,4.08,49.07-.93,91.25-11.13,42.93-10.38,64.48-15.83,69-28.93,5.29-15.35-5.77-36.55-20.03-46.74-5.16-3.68-9.86-5.31-24.48-8.9-24.89-6.12-37.33-9.18-53.42-11.13-28.8-3.49-49.43-2.32-86.8,0-51.95,3.21-61.67,8-69,13.34Z"/>
      <path class="cls-8" d="m664.56,42.68c9.68,3.92,9.07,39.17,0,42.29-6.35,2.19-22.29-9.51-20.03-24.48,1.78-11.83,14.09-20.22,20.03-17.81Z"/>
      <path class="cls-8" d="m631.18,47.13c9.68,3.92,9.07,39.17,0,42.29-6.35,2.19-22.29-9.51-20.03-24.48,1.78-11.83,14.08-20.21,20.03-17.81Z"/>
      <path class="cls-8" d="m593.34,49.36c9.68,3.92,9.07,39.17,0,42.29-6.35,2.19-22.29-9.51-20.03-24.48,1.78-11.83,14.09-20.22,20.03-17.81Z"/>
      <path class="cls-8" d="m559.95,51.58c9.68,3.92,9.07,39.17,0,42.29-6.35,2.19-22.29-9.51-20.03-24.48,1.79-11.83,14.09-20.21,20.03-17.81Z"/>
      <path class="cls-8" d="m524.34,51.58c9.68,3.92,9.07,39.17,0,42.29-6.35,2.19-22.29-9.51-20.03-24.48,1.79-11.83,14.09-20.21,20.03-17.81Z"/>
      <path class="cls-8" d="m491.73,56.21c7.56,3.06,7.08,30.57,0,33.01-4.96,1.71-17.4-7.42-15.63-19.11,1.39-9.24,10.99-15.78,15.63-13.9Z"/>
      <path class="cls-8" d="m462.8,53.98c7.56,3.06,7.08,30.57,0,33.01-4.96,1.71-17.4-7.42-15.63-19.11,1.39-9.23,10.99-15.78,15.63-13.9Z"/>
      <path class="cls-8" d="m433.86,49.53c7.56,3.06,7.08,30.57,0,33.01-4.96,1.71-17.4-7.42-15.63-19.11,1.39-9.23,11-15.78,15.63-13.9Z"/>
      <path class="cls-8" d="m404.93,47.31c7.56,3.06,7.08,30.57,0,33.01-4.96,1.71-17.4-7.42-15.63-19.11,1.39-9.24,10.99-15.78,15.63-13.9Z"/>
      <path class="cls-8" d="m379.08,49.45c5.55,2.25,5.2,22.45,0,24.24-3.64,1.25-12.78-5.45-11.48-14.04,1.02-6.78,8.07-11.58,11.48-10.2Z"/>
      <path class="cls-8" d="m361.27,47.22c5.55,2.25,5.2,22.45,0,24.24-3.64,1.25-12.78-5.45-11.48-14.04,1.02-6.77,8.08-11.58,11.48-10.2Z"/>
      <path class="cls-8" d="m341.24,42.77c5.55,2.25,5.2,22.45,0,24.24-3.64,1.25-12.78-5.45-11.48-14.04,1.02-6.77,8.07-11.58,11.48-10.2Z"/>
      <path class="cls-8" d="m321.21,38.32c5.55,2.25,5.2,22.45,0,24.24-3.64,1.25-12.78-5.45-11.48-14.04,1.02-6.78,8.07-11.58,11.48-10.2Z"/>
      <path class="cls-8" d="m301.18,33.87c5.55,2.25,5.2,22.45,0,24.24-3.64,1.25-12.78-5.45-11.48-14.04,1.02-6.78,8.07-11.58,11.48-10.2Z"/>
    </g>
    <g id="machoire-sup">
      <path class="cls-6" d="m10.2,29.33h-2.23v5.68c0,.55.45,1,1,1h1.23v-6.68Z"/>
      <path class="cls-6" d="m7.98,29.33h-2.23v5.68c0,.55.45,1,1,1h1.23v-6.68Z"/>
      <path class="cls-6" d="m12.43,29.33h-2.23v5.68c0,.55.45,1,1,1h1.23v-6.68Z"/>
      <path class="cls-6" d="m14.66,29.33h-2.23v5.68c0,.55.45,1,1,1h1.23v-6.68Z"/>
      <path class="cls-6" d="m16.88,29.33h-2.23v5.68c0,.55.45,1,1,1h1.23v-6.68Z"/>
      <path class="cls-6" d="m19.11,29.33h-2.23v5.68c0,.55.45,1,1,1h1.23v-6.68Z"/>
      <path class="cls-6" d="m21.33,29.33h-2.23v5.68c0,.55.45,1,1,1h1.23v-6.68Z"/>
      <path class="cls-6" d="m23.56,29.33h-2.23v5.68c0,.55.45,1,1,1h1.23v-6.68Z"/>
      <path class="cls-6" d="m25.78,29.33h-2.23v5.68c0,.55.45,1,1,1h1.23v-6.68Z"/>
      <path class="cls-6" d="m28.01,29.33h-2.23v5.68c0,.55.45,1,1,1h1.23v-6.68Z"/>
      <path class="cls-6" d="m30.24,29.33h-2.23v5.68c0,.55.45,1,1,1h1.23v-6.68Z"/>
      <path class="cls-6" d="m32.46,29.33h-2.23v5.68c0,.55.45,1,1,1h1.23v-6.68Z"/>
      <path class="cls-6" d="m34.69,29.33h-2.23v5.68c0,.55.45,1,1,1h1.23v-6.68Z"/>
      <path class="cls-6" d="m36.91,29.33h-2.23v5.68c0,.55.45,1,1,1h1.23v-6.68Z"/>
      <path class="cls-6" d="m39.14,29.33h-2.23v5.68c0,.55.45,1,1,1h1.23v-6.68Z"/>
      <path id="machoire" class="cls-8" d="m71.41,21.54c-1.37-4.17-4.98-7.48-8.9-8.9-5.35-1.94-8.05.78-24.48,4.45-2.66.59-6.25,1.4-11.13,2.23-1.92.33-10.81,1.81-20.03,4.45-2.23.64-5.88,1.75-6.68,4.45-.07.25-.38,1.29,0,2.23,1.15,2.81,7.64,2.28,17.81,2.23,14.88-.08,14.37.98,20.03,0,8.93-1.55,8.38-3.89,15.58-4.45,9.59-.75,15.39,3.02,17.81,0,1.54-1.96.48-5.2-.01-6.69Z"/>
    </g>
    <g>
      <circle class="cls-4" cx="50.05" cy="22.27" r="4.24"/>
      <circle class="cls-7" cx="50.05" cy="22.27" r="3.18"/>
      <circle cx="48.99" cy="22.27" r="2.12"/>
      <circle class="cls-1" cx="50.05" cy="22.27" r="1.06"/>
    </g>
  </g>
</svg>