<?xml version="1.0" encoding="UTF-8"?>
<svg id="Calque_2" data-name="Calque 2" xmlns="http://www.w3.org/2000/svg" viewBox="0 0 700.99 557.83">
  <defs>
    <style>
      .cls-1 {
        fill: #fff;
      }

      .cls-2 {
        fill: #6e5349;
      }

      .cls-3 {
        fill: #533b4d;
      }

      .cls-4 {
        fill: #ded2ce;
      }

      .cls-5 {
        fill: #77556f;
      }

      .cls-6 {
        fill: #faa4bd;
      }

      .cls-7 {
        fill: #fae39e;
      }

      .cls-8 {
        fill: #3f70c6;
      }

      .cls-9 {
        fill: #fae3b7;
      }

      .cls-10 {
        fill: #fae3c6;
      }

      .cls-11 {
        fill: #c1aba6;
      }

      .cls-12 {
        fill: #3fffc6;
      }
    </style>
  </defs>
  <g id="Calque_1-2" data-name="Calque 1">
    <path id="corps" class="cls-3" d="m68.98,14.93c-12.07,7.99-6.69,38.91,0,48.47.7,1,2.61,3.54,3.73,7.46,1.58,5.53.63,10.43,0,13.05-3.08,12.82-11.92,27.57-16.78,37.28-2.41,4.81-8.15,16.48-11.19,31.69-2.03,10.18-4.73,23.7,0,39.15,4.23,13.81,12.53,23.03,18.64,29.83,10.46,11.62,15.64,12.05,24.24,24.24,7.49,10.63,5.3,12.78,11.19,18.64,7.7,7.67,14.39,6.91,33.56,13.05,6.33,2.03,20.59,6.67,35.42,14.91,12.01,6.68,12.79,9.26,29.83,20.51,13.97,9.22,21.29,14.05,31.69,18.64,12.35,5.45,35.76,15.79,57.79,9.32,2.55-.75,9.16-3.61,22.37-9.32,3.85-1.67,8.21-3.59,13.05-7.46,0,0,3.97-3.17,7.46-7.46,30.25-37.14,20.51-74.57,20.51-74.57-10.16-39.01-48.32-53.84-57.79-55.93-.57-.13-4.37-.94-9.32-1.86-11.6-2.17-19.35-3.05-24.24-3.73-7.46-1.04-16.16-3.18-33.56-7.46-21.95-5.4-22.88-6.45-31.69-7.46-5.46-.62-15.39-1.69-27.96,0-7.81,1.05-14.29,2.84-24.24,5.59-10.05,2.78-14.02,4.44-22.37,5.59-8.24,1.14-12.35,1.71-16.78,0-10.29-3.99-14.01-15.78-14.91-18.64-2.72-8.63-1.31-15.97,0-22.37,1.52-7.44,3.25-9.24,11.19-27.96,4.27-10.08,6.41-15.12,7.46-18.64,4.5-15.17,3.97-27.88,3.73-31.69-.87-14.03-1.65-26.46-11.19-35.42-7.91-7.41-22-12.64-29.84-7.45Z"/>
    <path id="corps-2" data-name="corps" class="cls-3" d="m288.96,199.49c-19.74,17.38-15.65,68.34,11.19,89.48,18.78,14.8,43.78,11.11,55.93,9.32,35.47-5.23,59.16-25.86,72.71-37.28,0,0,53.31-44.93,139.82-98.81,75.32-46.91,133.69-57.5,132.36-61.52-1.61-4.88-91.25-.18-158.46,48.47-12.47,9.03-36.93,28.8-76.43,42.88-20.64,7.35-37.36,10.29-42.88,11.19-75.84,12.32-112.29-23.05-134.24-3.73Z"/>
    <g id="tete">
      <path class="cls-7" d="m9.32,55.94c-1.24,2.16-3.47,6.13-1.86,9.32,1.28,2.53,4.63,3.9,7.46,3.73,3.84-.24,4.71-3.21,9.32-5.59,5.97-3.08,12.15-2.03,13.05-1.86,5.07.93,11.11,4.27,14.91,9.32,1.3,1.73,1.95,3.14,3.73,3.73,3.47,1.14,7.41-2.14,9.32-3.73,2.67-2.22,9.49-7.9,9.32-16.78-.14-7.29-4.9-12.25-7.46-14.91-2.84-2.95-5.79-4.76-7.46-5.59-16.22-8.16-42.46,8.73-50.33,22.36Z"/>
      <path class="cls-9" d="m9.32,52.21c-1.24,2.16-3.47,6.13-1.86,9.32,1.28,2.53,4.63,3.9,7.46,3.73,3.84-.24,4.71-3.21,9.32-5.59,5.97-3.08,12.15-2.03,13.05-1.86,5.07.93,11.11,4.27,14.91,9.32,1.3,1.73,1.95,3.14,3.73,3.73,3.47,1.14,7.41-2.14,9.32-3.73,2.67-2.22,9.49-7.9,9.32-16.78-.14-7.29-4.9-12.25-7.46-14.91-2.84-2.95-5.79-4.76-7.46-5.59-16.22-8.16-42.46,8.73-50.33,22.36Z"/>
      <path class="cls-10" d="m9.32,48.49c-1.24,2.16-3.47,6.13-1.86,9.32,1.28,2.53,4.63,3.9,7.46,3.73,3.84-.24,4.71-3.21,9.32-5.59,5.97-3.08,12.15-2.03,13.05-1.86,5.07.93,11.11,4.27,14.91,9.32,1.3,1.73,1.95,3.14,3.73,3.73,3.47,1.14,7.41-2.14,9.32-3.73,2.67-2.22,9.49-7.9,9.32-16.78-.14-7.29-4.9-12.25-7.46-14.91-2.84-2.95-5.79-4.76-7.46-5.59-16.22-8.17-42.46,8.72-50.33,22.36Z"/>
      <path class="cls-4" d="m39.15,26.12c-2.4-3.3-2.04-7.28-1.86-9.32.68-7.7,6.34-12.2,7.46-13.05,1.47-1.12,4.66-3.48,9.32-3.73,6.99-.37,11.76,4.32,13.05,5.59,1.79,1.76,5.99,5.89,5.59,11.19-.56,7.48-9.89,11.74-14.91,13.05-.81.2-13.51,3.34-18.65-3.73Z"/>
      <path class="cls-11" d="m82.03,24.25c.61-2.83,2.27-10.51-1.86-14.91-7.74-8.25-31.35-.24-44.74,9.32-11.23,8.02-14.91,11.19-14.91,11.19-5.77,4.96-8.67,8.34-13.05,9.32-.76.17-2.47.47-3.73,1.86-1.21,1.33-.77,2.3-1.86,5.59-1.1,3.31-2.02,3.75-1.86,5.59.03.37.26,2.58,1.86,3.73,3.08,2.21,8.61-1.4,9.32-1.86,2.8-1.83,2.4-2.79,5.59-5.59,2.77-2.43,5.27-3.63,9.32-5.59,2.76-1.33,4.98-2.15,9.32-3.73,6.8-2.48,10.26-3.72,13.05-3.73,3.42-.02,6.1.84,9.32,1.86,6.43,2.05,6.62,3.64,9.32,3.73,6.37.21,13.11-8.45,14.91-16.78Z"/>
      <path class="cls-2" d="m33.56,24.25c-.06-.68.51-1.26,7.46-5.59,5.66-3.53,8.49-5.29,9.32-5.59,8.41-3.06,20.2,1.43,20.51,5.59.29,3.91-9.5,8.06-16.78,9.32-9.81,1.7-20.28-.95-20.51-3.73Z"/>
    </g>
    <path id="bras" class="cls-5" d="m137.95,206.95c-4.77-6.59-20.8-8.68-29.83,0-7.22,6.94-8.03,18.9-3.73,26.1,5.48,9.16,17.38,7.48,22.37,18.64,1.53,3.42.19,3.08,1.86,9.32,1.09,4.05,5.7,19.33,18.64,26.1,2.72,1.42,6.43,3.36,9.32,1.86,3.9-2.03,3.84-9.05,3.73-14.91-.09-4.51-.93-24.06-13.05-41.01-1.39-1.94-2.4-3.11-3.73-5.59-5.38-10.06-2.18-15.82-5.58-20.51Z"/>
    <g id="avant-bras">
      <path class="cls-6" d="m106.97,336.39c-1.11-2.22-7.73-2.7-11.34.29-8.66,7.16,1.89,32.63,2.97,32.42.68-.13-3.7-10.18,1.01-20.57,3.17-6.99,8.5-9.85,7.36-12.14Z"/>
      <path class="cls-5" d="m154.73,279.65c-5.79,1.46-8.82,4.41-13.05,7.46-2.79,2.01-9.7,6.92-18.64,9.32-6.16,1.66-6.19.22-11.19,1.86-2.52.83-11.44,3.91-16.78,13.05-4.2,7.2-3.89,14.13-3.73,16.78.29,4.83.67,11.32,5.59,14.91,5.24,3.83,13.62,2.92,14.91,0,1.4-3.15-5.54-8.47-3.73-11.19.68-1.02,1.84-.57,3.73-1.86,2.6-1.78,3.4-4.69,3.73-5.59,2.04-5.67,12.96-9.46,27.96-16.78,15.14-7.39,17.41-10.06,18.64-13.05,2.14-5.19,1.79-12.83-1.86-14.91-.7-.41-2.04-.89-5.58,0Z"/>
      <path class="cls-6" d="m108.13,341.17c-2.04,1.41-1.59,8.03,1.86,11.19,8.3,7.58,32.05-6.42,31.69-7.46-.23-.65-9.56,5.08-20.51,1.86-7.35-2.16-10.94-7.04-13.04-5.59Z"/>
      <path class="cls-6" d="m108.13,324.4c-2.04,1.41-1.59,8.03,1.86,11.19,8.3,7.58,32.05-6.42,31.69-7.46-.23-.65-9.56,5.08-20.51,1.86-7.35-2.16-10.94-7.05-13.04-5.59Z"/>
    </g>
    <path id="cuisse" class="cls-5" d="m321.14,214.49c-19.56-13.08-49.32-4.47-64.24,11.34-5.69,6.02-7.6,11.38-13.23,28.34-24.16,72.9-24.32,81.26-20.78,90.69,5.79,15.41,20.64,31.48,34.01,30.23,12.46-1.16,14.32-16.51,37.79-45.35,21.66-26.62,28.37-23.73,35.9-39.68,9.92-21.02,14.18-59.77-9.45-75.57Z"/>
    <path id="mollet" class="cls-5" d="m256.9,327.85c-16.31.18-33.65,13.24-34.01,26.45-.19,7.05,4.46,12.84,9.45,18.89,6.08,7.39,10.76,9.62,20.78,17,1.17.86,15.13,11.21,26.45,22.67,10.21,10.34,9.13,14.39,20.78,26.45,10.13,10.49,15.22,12.56,17,13.23,9.62,3.58,24.09,3.73,28.34-3.78,2.54-4.5.47-10.07,0-11.34-2.95-7.92-10.31-10.08-17-15.12-6.12-4.6-9.83-11.95-17-26.45-14.1-28.5-9.36-32.42-18.89-45.35-4.08-5.5-16.88-22.86-35.9-22.65Z"/>
    <path id="tibia" class="cls-5" d="m326.81,427.99c-10.22-.09-16.51,8.75-17,9.45-3.82,5.46-2.51,9.34-3.78,20.78-2.35,21.24-9.86,35.12-11.34,37.79-3.71,6.69-6.14,11.05-11.34,15.12-9.05,7.07-17.04,5.85-18.89,11.34-1.86,5.49,4.25,12.3,7.56,15.12,8.06,6.85,19.7,7.13,28.34,3.78,3.18-1.23,11.11-4.96,15.11-13.23,3.87-7.99-.35-11.09,1.89-22.67,1.93-9.98,6.92-17.25,13.23-26.45,4.41-6.43,7.27-7.94,11.34-15.11,3.78-6.67,5.85-10.31,5.67-15.12-.37-9.48-9.34-20.71-20.79-20.8Z"/>
    <g id="pied">
      <path class="cls-6" d="m238.3,549.03c1.4-1.67-.52-7.16-4.18-9.02-8.78-4.48-25.61,12.89-25.06,13.68.34.5,6.9-6.52,16.91-6.35,6.73.11,10.89,3.41,12.33,1.69Z"/>
      <path class="cls-5" d="m294.55,512.68c-3.75-1.75-7.49-.87-11.19,0-9.47,2.23-10.63,7.38-24.24,14.91-5.72,3.17-8.58,4.75-13.05,5.59-6.65,1.25-9.22-.52-13.05,1.86-4.04,2.51-7.24,8.25-5.59,13.05.86,2.5,3.03,4.72,5.59,5.59,2.4.82,4.57.26,5.59,0,10.27-2.61,21.44-5.44,22.37-3.73.51.94-2.36,2.75-1.86,3.73.97,1.92,11.65-5.63,24.24-3.73,6.38.96,9.25,3.75,13.05,1.86,3.57-1.77,4.75-6.08,5.59-9.32,2.55-9.77,1.64-25.57-7.45-29.81Z"/>
      <path class="cls-6" d="m240.17,552.76c1.4-1.67-.52-7.16-4.18-9.02-8.78-4.48-25.61,12.89-25.06,13.68.34.5,6.9-6.52,16.91-6.35,6.72.11,10.89,3.41,12.33,1.69Z"/>
      <path class="cls-6" d="m264.45,552.33c1.35-1.71-.72-7.14-4.43-8.9-8.9-4.23-25.24,13.6-24.67,14.38.36.49,6.72-6.71,16.72-6.82,6.73-.08,10.98,3.1,12.38,1.34Z"/>
    </g>
    <g>
      <circle class="cls-8" cx="51.98" cy="20.81" r="6"/>
      <circle class="cls-12" cx="51.98" cy="20.81" r="4.5"/>
      <circle cx="50.48" cy="20.81" r="3"/>
      <circle class="cls-1" cx="51.98" cy="20.81" r="1.5"/>
    </g>
  </g>
</svg>