<?xml version="1.0" encoding="UTF-8"?>
<svg id="Calque_2" data-name="Calque 2" xmlns="http://www.w3.org/2000/svg" viewBox="0 0 395.78 211.32">
  <defs>
    <style>
      .cls-1 {
        fill: #fff;
      }

      .cls-2 {
        fill: #ff8e98;
      }

      .cls-3 {
        fill: #3f70c6;
      }

      .cls-4 {
        fill: #ff9493;
      }

      .cls-5 {
        fill: #ff928f;
      }

      .cls-6 {
        fill: #83d6c5;
      }

      .cls-7 {
        fill: #c0d6df;
      }

      .cls-8 {
        fill: #1b1464;
      }

      .cls-9 {
        fill: #287592;
      }

      .cls-10 {
        fill: #3fffc6;
      }

      .cls-11 {
        fill: #fe9295;
      }

      .cls-12 {
        fill: #ea6185;
      }

      .cls-13 {
        fill: #ff7b8c;
      }
    </style>
  </defs>
  <g id="Calque_1-2" data-name="Calque 1">
    <path id="cou" class="cls-12" d="m152.63,88.86c-7.07-2.58-19.37,6.58-43.97,24.89-10.2,7.59-15.53,12.32-26.67,17.6-11.37,5.39-16.67,6.75-21.31,8.97-11.22,5.35-22.65,19-20,26,3.32,8.78,24.92-3.09,61.86,6.13,10.08,2.52,25.55,6.35,42.42.56,1.38-.47,2.69-1.15,4.11-2.11,24.7-16.66,20.03-76.03,3.56-82.04Z"/>
    <path id="bras-gauche" class="cls-4" d="m108.68,188.32h0c-6.63,0-12-5.37-12-12v-18c0-6.63,5.37-12,12-12h0c6.63,0,12,5.37,12,12v18c0,6.63-5.37,12-12,12Z"/>
    <path id="cuisse-gauche" class="cls-4" d="m216.68,185.32h0c-6.63,0-12-5.37-12-12v-18c0-6.63,5.37-12,12-12h0c6.63,0,12,5.37,12,12v18c0,6.63-5.37,12-12,12Z"/>
    <g id="patte-gauche">
      <path class="cls-6" d="m106.47,211.32h-8.05c-1.08,0-1.62-1.05-.86-1.66,2.68-2.15,5.37-4.31,8.05-6.46.76-.61,2.07-.18,2.07.69v6.46c0,.54-.54.97-1.21.97Z"/>
      <path class="cls-4" d="m117.89,211.32h-4.41c-5.41,0-9.79-4.38-9.79-9.79v-26.41c0-5.41,4.38-9.79,9.79-9.79h4.41c5.41,0,9.79,4.38,9.79,9.79v26.41c0,5.41-4.38,9.79-9.79,9.79Z"/>
      <path class="cls-6" d="m103.95,191.32h-11.53c-1.54,0-2.32-1.5-1.23-2.37,3.84-3.08,7.69-6.17,11.53-9.25,1.09-.88,2.96-.26,2.96.98v9.25c0,.77-.78,1.39-1.73,1.39Z"/>
      <path class="cls-7" d="m111.47,211.32h-8.05c-1.08,0-1.62-1.05-.86-1.66,2.68-2.15,5.37-4.31,8.05-6.46.76-.61,2.07-.18,2.07.69v6.46c0,.54-.54.97-1.21.97Z"/>
      <path class="cls-6" d="m120.47,211.32h-8.05c-1.08,0-1.62-1.05-.86-1.66,2.68-2.15,5.37-4.31,8.05-6.46.76-.61,2.07-.18,2.07.69v6.46c0,.54-.54.97-1.21.97Z"/>
    </g>
    <g id="corps">
      <path class="cls-6" d="m376.97,93.43l-5.04-.25c-1.41-.07-2.37-1.46-1.94-2.81,1.99-6.14,3.97-12.27,5.96-18.41.77-2.39,4.31-1.74,4.19.77l-.91,18.66c-.07,1.18-1.08,2.1-2.26,2.04Z"/>
      <path class="cls-9" d="m144.01,68.21l-31.9,19.82c-4.08,2.54-9.26-.92-8.48-5.66,3.08-18.76,6.16-37.52,9.24-56.28.84-5.1,7.55-6.44,10.28-2.05l22.65,36.45c1.64,2.64.84,6.09-1.79,7.72Z"/>
      <path class="cls-9" d="m108.78,90.02l-19.81,16.79c-2.54,2.15-6.42.31-6.37-3.01.21-13.14.42-26.28.62-39.43.06-3.57,4.51-5.17,6.82-2.44l19.19,22.64c1.38,1.63,1.18,4.07-.45,5.45Z"/>
      <path class="cls-9" d="m275.65,97.15l-24.43-8.8c-3.13-1.13-3.47-5.41-.56-7.02,11.5-6.37,22.99-12.74,34.49-19.12,3.12-1.73,6.73,1.33,5.52,4.7l-10.06,27.92c-.73,2-2.95,3.04-4.96,2.32Z"/>
      <path class="cls-9" d="m246.03,88.46l-34.75-14.24c-4.45-1.82-4.68-8.04-.38-10.19,17.01-8.49,34.02-16.98,51.02-25.47,4.62-2.31,9.64,2.35,7.68,7.13l-16.27,39.71c-1.17,2.86-4.44,4.23-7.3,3.06Z"/>
      <path class="cls-9" d="m203.89,75.32h-52.27c-6.69,0-10.27-7.88-5.86-12.92,17.42-19.91,34.84-39.82,52.27-59.73,4.74-5.41,13.65-2.06,13.65,5.13v59.73c0,4.3-3.49,7.79-7.79,7.79Z"/>
      <g>
        <path class="cls-2" d="m73.68,154.32c-5.49-13.69-2.85-26.24-2-30,3.84-17.07,14.95-27.5,24-36,3.98-3.74,12.76-11.4,26-18,5.02-2.5,23.3-11.14,49-12,18.84-.63,33.23,3.58,62,12,10.66,3.12,10.89,3.67,44,14,9.79,3.06,19.66,6.09,33,9,9.5,2.07,14.6,3.75,22,4,9.3.32,16.88-1.17,21-2,9.13-1.84,13.7-2.77,17-5,.66-.45,4.99-3.42,11-5,1.89-.5,3.46-.73,4,0,.77,1.04-.96,3.51-2,5-1.28,1.83-2.85,3.54-7,7-2.32,1.93-2.43,1.9-5,4-4.07,3.33-4.95,4.35-7,6-3.4,2.73-6.33,4.19-10,6-10.73,5.29-22.15,8.1-26,9-9.15,2.13-15.96,2.89-26,4-14.48,1.6-13.16.58-23,2-4.53.65-15.85,2.46-30,7-6.09,1.95-9.13,2.93-11,4-10.95,6.3-9.79,14.16-21,24-2.49,2.19-8.68,7.51-18,10-4.59,1.23-7.41,1.09-18,1-9-.08-18,.1-27,0-15.35-.17-23.02-.12-29,0-8.48.17-12.98.11-22,0-9.71-.12-11.13-.31-13-1-9.83-3.63-14.18-14.45-16-19Z"/>
        <path class="cls-13" d="m222.21,177.32h-117.71c-18.68,0-33.82-15.14-33.82-33.82v-5.53c0-10.3,8.35-18.65,18.65-18.65h112.65c18.62,0,33.71,15.09,33.71,33.71v10.82c-.01,7.44-6.04,13.47-13.48,13.47Z"/>
      </g>
      <circle class="cls-12" cx="108.68" cy="158.32" r="19"/>
      <circle class="cls-12" cx="216.68" cy="155.32" r="22"/>
      <path class="cls-6" d="m121.52,105.59l-23.26,5.19c-2.98.66-5.35-2.49-3.89-5.17,5.78-10.59,11.55-21.18,17.33-31.77,1.57-2.88,5.87-2.27,6.58.93l5.93,26.58c.43,1.91-.77,3.81-2.69,4.24Z"/>
      <path class="cls-6" d="m237.67,113.83l-22.05-9.04c-2.82-1.16-2.97-5.1-.24-6.46,10.79-5.39,21.59-10.78,32.38-16.17,2.93-1.46,6.12,1.49,4.87,4.52l-10.33,25.2c-.74,1.83-2.82,2.69-4.63,1.95Z"/>
      <path class="cls-6" d="m181.74,102.32h-33.17c-4.25,0-6.52-5-3.72-8.2,11.06-12.63,22.11-25.27,33.17-37.9,3.01-3.43,8.66-1.31,8.66,3.25v37.9c0,2.74-2.21,4.95-4.94,4.95Z"/>
      <path class="cls-9" d="m310.01,106.09l-17.4-4.81c-2.23-.62-2.69-3.57-.76-4.84,7.63-5.03,15.26-10.05,22.89-15.08,2.07-1.37,4.73.57,4.07,2.96l-5.5,19.89c-.39,1.43-1.87,2.27-3.3,1.88Z"/>
      <path class="cls-9" d="m337.91,106.32h-11.89c-1.52,0-2.34-1.79-1.33-2.94,3.96-4.53,7.93-9.06,11.89-13.59,1.08-1.23,3.11-.47,3.11,1.17v13.59c0,.98-.8,1.77-1.78,1.77Z"/>
      <path class="cls-9" d="m357.21,102.34l-6.12,1.65c-.78.21-1.45-.6-1.09-1.33,1.41-2.88,2.82-5.76,4.23-8.65.38-.78,1.53-.67,1.76.17l1.89,6.99c.13.51-.16,1.03-.67,1.17Z"/>
      <path class="cls-6" d="m372.35,95.66l-.11-5.15c-.03-1.44,1.31-2.52,2.71-2.17,6.39,1.58,12.77,3.15,19.16,4.73,2.48.61,2.08,4.26-.48,4.31l-19.04.42c-1.21.03-2.21-.93-2.24-2.14Z"/>
    </g>
    <g id="machoire-inf">
      <path class="cls-6" d="m52.94,158.32h-16.66c-2.44,0-3.66,2.95-1.93,4.67l16.66,16.66c1.72,1.72,4.67.5,4.67-1.93v-16.66c0-1.52-1.22-2.74-2.74-2.74Z"/>
      <g>
        <ellipse class="cls-11" cx="39.68" cy="152.32" rx="20" ry="19"/>
        <path class="cls-12" d="m11.68,159.32c.18,1.36.62,4.32,3,7,2.82,3.16,6.41,3.74,8,4,1.8.29,5.57.9,7-1,1.21-1.61-.32-3.62,1-5,1.1-1.15,2.56-.17,5-1,1.99-.67,4.38-2.46,5-5,.76-3.1-1.23-6.89-4-8-3.75-1.5-5.94,3.11-12,3-5.87-.11-8.31-4.52-11-3-2.98,1.68-2.1,8.27-2,9Z"/>
      </g>
    </g>
    <g id="machoire-sup">
      <path class="cls-6" d="m52.94,138.32h-16.66c-2.44,0-3.66-2.95-1.93-4.67l16.66-16.66c1.72-1.72,4.67-.5,4.67,1.93v16.66c0,1.52-1.22,2.74-2.74,2.74Z"/>
      <path class="cls-6" d="m32.94,144.32h-16.66c-2.44,0-3.66-2.95-1.93-4.67l16.66-16.66c1.72-1.72,4.67-.5,4.67,1.93v16.66c0,1.52-1.22,2.74-2.74,2.74Z"/>
      <path class="cls-12" d="m48.62,155.32H7.58c-3.19,0-5.78-2.96-5.78-6.6,0-9.06,6.42-16.4,14.35-16.4h32.47c5.56,0,10.06,5.15,10.06,11.5s-4.51,11.5-10.06,11.5Z"/>
      <path class="cls-5" d="m1.65,153.69c-1.46-1.47-1.56-3.58-1.63-4.9-.05-.97-.16-3.73,1.63-6.53.29-.45,1.82-2.76,4.9-4.08.83-.36,2.97-1.25,5.71-.82.52.08,5.43.91,6.53,4.08.61,1.74-.33,3.02.82,4.9.24.39.71,1.17,1.63,1.63,1.84.93,3.03-.63,4.9,0,2.1.71,2.86,3.46,3.26,4.9.09.32.58,2.09,0,2.45-.16.1-.31.04-.82,0H4.91c-1.01-.01-2.39-.75-3.26-1.63Z"/>
      <circle class="cls-8" cx="7.68" cy="147.32" r="3"/>
    </g>
    <g id="mollet-gauche">
      <g>
        <path class="cls-6" d="m216.47,211.32h-8.05c-1.08,0-1.62-1.37-.86-2.18,2.68-2.83,5.37-5.66,8.05-8.48.76-.8,2.07-.23,2.07.9v8.48c0,.71-.54,1.28-1.21,1.28Z"/>
        <path class="cls-4" d="m230.74,211.32h-11.12c-3.28,0-5.94-2.66-5.94-5.94v-30.12c0-3.28,2.66-5.94,5.94-5.94h11.12c3.28,0,5.94,2.66,5.94,5.94v30.12c0,3.28-2.66,5.94-5.94,5.94Z"/>
        <path class="cls-7" d="m221.47,211.32h-8.05c-1.08,0-1.62-1.37-.86-2.18,2.68-2.83,5.37-5.66,8.05-8.48.76-.8,2.07-.23,2.07.9v8.48c0,.71-.54,1.28-1.21,1.28Z"/>
        <path class="cls-6" d="m230.47,211.32h-8.05c-1.08,0-1.62-1.37-.86-2.18,2.68-2.83,5.37-5.66,8.05-8.48.76-.8,2.07-.23,2.07.9v8.48c0,.71-.54,1.28-1.21,1.28Z"/>
      </g>
      <path class="cls-6" d="m214.95,185.32h-11.53c-1.54,0-2.32-1.5-1.23-2.37,3.84-3.08,7.69-6.17,11.53-9.25,1.09-.88,2.96-.26,2.96.98v9.25c0,.77-.78,1.39-1.73,1.39Z"/>
    </g>
    <g>
      <circle class="cls-3" cx="38.97" cy="141.14" r="5.71"/>
      <circle class="cls-10" cx="38.97" cy="141.14" r="4.28"/>
      <circle cx="37.55" cy="141.14" r="2.85"/>
      <circle class="cls-1" cx="38.97" cy="141.14" r="1.43"/>
    </g>
  </g>
</svg>