<?xml version="1.0" encoding="UTF-8"?>
<svg id="Calque_2" data-name="Calque 2" xmlns="http://www.w3.org/2000/svg" viewBox="0 0 844.52 199.57">
  <defs>
    <style>
      .cls-1 {
        fill: #fff;
      }

      .cls-2 {
        fill: #3f70c6;
      }

      .cls-3 {
        fill: #624cab;
      }

      .cls-4 {
        fill: #a0ddff;
      }

      .cls-5 {
        fill: #c1cefe;
      }

      .cls-6 {
        fill: #3fffc6;
      }

      .cls-7 {
        fill: #758ecd;
      }

      .cls-8 {
        fill: #7189ff;
      }
    </style>
  </defs>
  <g id="Calque_1-2" data-name="Calque 1">
    <g id="corps">
      <path class="cls-4" d="m99.37,22.35c-1.13-.32-6.31-1.95-11.91,0-1.42.49-5.67,1.97-7.94,6.13-3.79,6.95,1.3,15.27,1.99,16.36,3.45,5.46,8.66,7.5,10.92,8.18,4.35,1.31,7.66.6,11.91,0,7.22-1.01,14.57-.54,21.84-1.02,12.52-.83,22.43-.46,34.75,0,14.89.55,25.78,1.74,37.73,3.07,22.17,2.46,34.73,3.85,51.63,8.18,13.38,3.43,21.09,5.4,30.78,10.22,20.1,10.02,25.36,20.69,39.71,31.7,19,14.56,38.24,17.69,61.56,21.47,36.42,5.91,65.07-.42,85.38-5.11,25.92-5.99,45.04-14.33,75.45-27.61,35.16-15.34,42.95-22.09,68.5-28.63,22.62-5.79,41.86-6.98,53.61-7.16,23.91-.35,41.49,3.18,71.48,9.2,34.82,6.99,46.07,12.23,71.48,11.25,14.3-.56,30.84-3,30.78-4.09-.05-.89-11.13-.56-20.85-1.02-25.19-1.2-38.41-7.59-69.5-17.38-20.7-6.52-40.47-12.74-65.53-17.38-29.12-5.39-30.95-2.27-66.52-8.18-22.82-3.79-25.04-5.57-58.58-12.27-18.67-3.73-40.36-8.06-64.53-11.25-26.52-3.49-56.66-7.47-95.31-5.11-30.14,1.84-65.27,7.52-88.36,11.25-9.28,1.5-12.58,2.14-19.86,3.07-29.21,3.72-44.9,2.13-72.48,2.04-64.35-.21-104.51,8-118.13,4.09Z"/>
      <path class="cls-3" d="m99.52,20.69c-1.14-.32-6.36-1.9-12,0-1.43.48-5.71,1.93-8,6-3.82,6.8,1.31,14.93,2,16,3.48,5.34,8.72,7.33,11,8,4.38,1.28,7.71.58,12,0,7.27-.99,14.67-.53,22-1,12.61-.81,22.59-.45,35,0,14.99.54,25.96,1.7,38,3,22.33,2.41,34.98,3.77,52,8,13.48,3.35,21.25,5.28,31,10,20.25,9.8,25.55,20.24,40,31,19.13,14.25,38.52,17.3,62,21,36.68,5.78,65.54-.41,86-5,26.1-5.86,45.36-14.02,76-27,35.42-15.01,43.26-21.61,69-28,22.78-5.66,42.16-6.83,54-7,24.08-.34,41.79,3.11,72,9,35.07,6.84,46.4,11.97,72,11,14.4-.54,31.06-2.93,31-4-.05-.87-11.21-.55-21-1-25.38-1.17-38.69-7.43-70-17-20.85-6.37-40.76-12.46-66-17-29.33-5.27-31.17-2.22-67-8-22.99-3.71-25.22-5.45-59-12-18.8-3.65-40.65-7.88-65-11-26.71-3.42-57.07-7.3-96-5-30.36,1.8-65.75,7.35-89,11-9.35,1.47-12.67,2.09-20,3-29.42,3.64-45.22,2.09-73,2-64.83-.21-105.27,7.82-119,4Z"/>
      <path class="cls-5" d="m305.02,18.19c-4.26,3.47-10.29,8.5-13,17-5.66,17.72,7.75,35.89,13,43,25.77,34.92,70.64,41.92,84,44,31.17,4.86,55.55-.45,81-6,21.33-4.65,39.22-11.77,75-26,30.35-12.08,6.96-4.91,44-22,10.33-4.77,15.37-6.81,17-12,3.41-10.85-10.7-27.07-26-34-3.37-1.53-4.78-1.69-23-5-31.88-5.79-26.65-5.14-38-7-10.33-1.7-24.05-3.93-42-6C457.09,1.9,441.62.12,421.02.19c-8.39.03-17.71.69-36,2-57.37,4.12-69.26,7.26-80,16Z"/>
      <path class="cls-5" d="m124.02,23.19c-.4.35,6.49,5.64,6,13-.38,5.71-4.96,8.92-4,10,1.08,1.23,8.46-1.22,10-6,2.49-7.7-11.44-17.49-12-17Z"/>
      <path class="cls-5" d="m142.02,22.19c-.4.35,6.49,5.64,6,13-.38,5.71-4.96,8.92-4,10,1.08,1.23,8.46-1.22,10-6,2.49-7.7-11.44-17.49-12-17Z"/>
      <path class="cls-5" d="m160.02,22.19c-.4.35,6.49,5.64,6,13-.38,5.71-4.96,8.92-4,10,1.08,1.23,8.46-1.22,10-6,2.49-7.7-11.44-17.49-12-17Z"/>
      <path class="cls-5" d="m178.02,22.19c-.4.35,6.49,5.64,6,13-.38,5.71-4.96,8.92-4,10,1.08,1.23,8.46-1.22,10-6,2.49-7.7-11.44-17.49-12-17Z"/>
    </g>
    <path id="machoire-inf" class="cls-5" d="m26.92,40.81c-4.44,1.07-26.03,6.27-25.61,10.24.23,2.15,6.83,3.18,12.8,3.84,32.71,3.6,90.81.77,90.91-7.68.06-5.36-23.25-9.39-28.17-10.24-19.78-3.42-34.98.24-49.93,3.84Z"/>
    <path id="machoire-sup" class="cls-8" d="m83.25,15.2c-5.28-1.26-7.02,3.57-16.64,3.84-5.7.16-7.87-1.35-12.8,0-4.75,1.3-7.74,4.06-8.96,5.12C30.67,36.46-1.28,40.88.04,45.93c.19.72,1.01,2.42,10.24,3.84,18.12,2.8,29.98-1.43,48.65-5.12,26.64-5.26,34.76-3.03,37.13-8.96,2.72-6.83-4.55-18.51-12.81-20.49Z"/>
    <g id="n-d">
      <path class="cls-7" d="m554.52,50.69c-8.59-2.51-20.91,2.93-24,12-3.54,10.41,6.74,20.72,12,26,6.31,6.33,10.63,7.37,18,12,14.35,9.03,15.36,16.03,30,31,8.85,9.04,19.92,20.36,37,28,18.67,8.35,35.4,8.23,48,8,19.94-.36,45.8-5.02,46-11,.11-3.26-7.46-5.16-22-11-15.01-6.03-7.98-4.42-47-23-44.94-21.4-46.41-19.8-56-28-13.46-11.51-20.19-17.26-27-27-6.34-9.07-8.37-15.06-15-17Z"/>
      <path class="cls-5" d="m653.02,124.19c1.03.29,3.69,1.53,9,4,6.41,2.99,11.43,5.62,14,7,4.59,2.46,6.89,3.69,9,5,2.19,1.36,4.01,2.6,7,4,1.64.77,2.94,1.26,5,2,6.87,2.47,12.01,4.03,18,7,3.31,1.64,3.96,2.26,4,3,.13,2.57-7.34,4.89-11,6-10.07,3.05-18.6,3.66-27,4-12.74.51-19.11.76-26,0-10.31-1.14-18.4-2.14-26-8-3.7-2.85-8.55-6.59-9-12-1-11.96,20.06-25.61,33-22Z"/>
    </g>
    <g id="n-g">
      <path class="cls-7" d="m329.52,67.69c-5.13,2.64-9.08,9.02-9,15,.09,6.38,4.7,8.63,7,19,1.01,4.56.93,7.8,1,10,.5,15.8,10.55,33.64,13,38,4.6,8.17,18.32,32.55,47,44,5.46,2.18,27.02,10.79,47,2,2.15-.95,14.23-6.26,14-13-.17-4.87-6.69-8.18-12-11,0,0-17.78-9.45-38-23-9.95-6.67-19.64-18.11-39-41-1.33-1.57-3.49-4.19-4-8-.86-6.41,3.89-9.18,4-14,.22-9.82-18.9-24.21-31-18Z"/>
      <path class="cls-5" d="m367.02,178.19c.98,2.3,3.49,4.55,4,5,2.36,2.12,4.31,2.79,9,5,5.25,2.47,4.88,2.59,8,4,2.69,1.21,8.6,3.65,16,5,9.88,1.8,18.18.87,23,0,0,0,11.86-2.14,18-8,.78-.75,2.49-2.38,3-5,.11-.59.34-1.74,0-3-.55-2.07-2.2-2.87-9-7-4.42-2.69-4.2-2.64-5-3-2.79-1.26-4.25-1.3-6-3-.65-.63-.95-1.12-2-2-1.4-1.18-2.63-1.81-3-2-3.35-1.75-9.57-6.13-13-8-2.09-1.14-13.04-7.12-24-4-12.81,3.64-22.12,18.7-19,26Z"/>
    </g>
    <g>
      <circle class="cls-2" cx="67.08" cy="30.95" r="5.94"/>
      <circle class="cls-6" cx="67.08" cy="30.95" r="4.46"/>
      <circle cx="65.59" cy="30.95" r="2.97"/>
      <circle class="cls-1" cx="67.08" cy="30.95" r="1.49"/>
    </g>
  </g>
</svg>