<?xml version="1.0" encoding="UTF-8"?>
<svg id="Calque_2" data-name="Calque 2" xmlns="http://www.w3.org/2000/svg" viewBox="0 0 747.39 375.65">
  <defs>
    <style>
      .cls-1 {
        fill: #0090bf;
      }

      .cls-2 {
        fill: #253d59;
      }

      .cls-3 {
        fill: #fff;
      }

      .cls-4 {
        fill: #b40040;
      }

      .cls-5 {
        fill: #2c4f6e;
      }

      .cls-6 {
        fill: #bb2f43;
      }

      .cls-7 {
        fill: #0965a8;
      }

      .cls-8 {
        fill: #24221c;
      }

      .cls-9 {
        fill: #c9f3dc;
      }

      .cls-10 {
        fill: #ce1e43;
      }

      .cls-11 {
        fill: #a90044;
      }

      .cls-12 {
        fill: #a3234b;
      }

      .cls-13 {
        fill: #feffdd;
      }

      .cls-14 {
        fill: #242258;
      }

      .cls-15 {
        fill: #ccf2da;
      }

      .cls-16 {
        fill: #42c7bd;
      }

      .cls-17 {
        fill: #192643;
      }

      .cls-18 {
        fill: #002f52;
      }

      .cls-19 {
        fill: #f15839;
      }

      .cls-20 {
        fill: #243d58;
      }

      .cls-21 {
        fill: #243e56;
      }

      .cls-22 {
        fill: #0d8ac3;
      }

      .cls-23 {
        fill: #094e8c;
      }

      .cls-24 {
        fill: #b77737;
      }

      .cls-25 {
        fill: #feffdf;
      }

      .cls-26 {
        fill: #406f8d;
      }

      .cls-27 {
        fill: #800053;
      }

      .cls-28 {
        fill: #3b7d96;
      }
    </style>
  </defs>
  <g id="Calque_1-2" data-name="Calque 1">
    <g id="main-gauche">
      <path class="cls-25" d="m675.61,237.45c6.97-.59,13.4,19.22,14.18,21.6,2.62,8.08,7.1,27.53-.48,31.95-5.38,3.14-15.57-2.06-20.76-8.92-11.78-15.56-1.04-43.94,7.06-44.63Z"/>
      <path class="cls-6" d="m678.7,224.91c-3.07,1.07-4.06,4.94-4.13,5.24-.72,2.98.59,5.18,2.25,9.52,1.34,3.51,2.08,7.22,3.24,10.8,2.52,7.8,4.04,14.24,5.48,20.32,3.24,13.7,3.44,19.27,8.45,24.16,3.12,3.05,5.42,3.21,6.52,3.14,2.81-.18,5.66-2.33,6.4-4.95.75-2.65-1.29-3.5-1.26-8.24.01-.79.06-.69.73-5.68.48-3.61.72-5.41.73-5.68.13-7.04-9.65-12.12-8.62-13.8.53-.86,2.93.77,5.82-.41,2.64-1.08,4.84-4.15,4.28-6.38-.45-1.77-2.42-2.16-6.38-4.28-3.24-1.73-6.36-3.4-8.5-5.7-4.71-5.06-1.44-9.68-6.21-14.64-.34-.34-4.77-4.83-8.8-3.42Z"/>
    </g>
    <g id="avant-bras-gauche">
      <path class="cls-28" d="m591.23,218.95c-5.8,10.74-2.02,22.05,1.19,31.18,3.73,10.6,12.65,36,32.51,41.82,13.48,3.95,25.1-3.13,31.65-7.13,4.21-2.57,26.26-16.02,19.51-37.81-7.58-24.47-47.35-46.12-68.41-41.6-10.34,2.23-14.78,10.45-16.45,13.54Z"/>
      <path class="cls-15" d="m589.3,230.31c-2.98.97-1.41,7.16-.06,12.24,1.57,5.9,5.32,20.02,14.69,32.57,6.36,8.52,12.05,11.94,15.25,13.87,2.06,1.24,12.86,7.75,10.07-3.9-3.13-13.08-21.69-41.92-31.84-51.24-4.97-4.57-7.25-3.82-8.11-3.54Z"/>
      <path class="cls-12" d="m631.71,206.1c-1.85-.61-11.93-3.96-19.9,1.9-2.97,2.19-8.12,7.46-6.83,11.98,1.19,4.17,6.93,4.38,26.11,9.3,15.55,3.99,16.98,5.19,31.9,8.55,5.07,1.14,10.38,5.42,15.58,3.19,3.77-1.62,5.33-5.26,5.41-5.45,1.29-3.14.82-6.88-.77-9.41-3.06-4.88-8.82-2.84-22.84-6.78-4.11-1.15-10.6-2.98-18.13-7.16-6.19-3.44-6.35-4.73-10.53-6.12Z"/>
    </g>
    <path id="bras-gauche" class="cls-12" d="m641.59,198.43c-.01-6.31.07-7.85-.51-10.79-.88-4.51-1.95-9.97-6.5-14.15-.61-.56-8.06-7.18-17.22-4.42-5.21,1.57-9,5.59-10.72,9.74-.99,2.39-.99,4.09-.18,14.34.7,8.88,1.07,13.42,1.7,18.02,1.97,14.47,3.49,16.19,4.81,17.15,3.49,2.51,8.15,1.56,12.78.61,4.53-.93,11.18-2.28,14.71-7.49,1.88-2.73,1.16-4,1.13-23.01Z"/>
    <g id="cuisse-gauche">
      <path class="cls-9" d="m535.2,232.79c-7.81,6.67-7.98,16.92-8,25.24-.02,9.66-.06,32.81,14.43,43.91,9.83,7.54,21.32,5.67,27.79,4.62,4.16-.68,25.97-4.23,26.74-23.79.86-21.97-25.27-52.17-43.7-55.42-9.03-1.59-15.01,3.52-17.26,5.44Z"/>
      <path class="cls-21" d="m541.5,203.19c-6.52,7.5-6.6,16.69-6.58,18.37.04,4.79,1.37,8.29,4.56,15.31,6.47,14.25,12.33,24.73,13.23,26.32,6.67,11.88,11.31,19.4,17.46,27.63,7.99,10.69,10.59,11.93,12.9,12.32,8.39,1.39,18.63-7.54,22.02-17.33,3.04-8.77-1.87-11.14-.65-28.02.73-10.06,2.62-11.23,2.35-19.68-.13-3.94-.4-12.4-4.69-20.92-5.44-10.78-17.32-21.65-32.77-23.07-3.39-.3-18.48-1.68-27.83,9.07Z"/>
    </g>
    <g id="mollet-gauche">
      <path class="cls-13" d="m580.47,302.23c6.32-2.99,19.28,13.31,20.84,15.27,5.29,6.65,16.29,23.3,10.74,30.1-3.95,4.82-15.31,3.53-22.57-1.08-16.48-10.46-16.35-40.81-9.01-44.29Z"/>
      <path class="cls-21" d="m586.89,285.63c-3.15,1.25-4.3,5.71-4.5,6.52-1.17,4.56.83,8.67,2.02,11.03,7.71,15.3,11.87,18.33,16.57,28.31,4.34,9.19,3.98,13.34,8.54,15.53,4.26,2.05,10.6,1.32,13.78-2.52,4.24-5.11.74-13.14.23-14.29-1.65-3.77-3.4-4.06-5.9-8.89-2.18-4.22-2.74-7.64-3.14-9.4-3.01-13.04-20.04-29.3-27.6-26.29Z"/>
    </g>
    <g id="corps">
      <path class="cls-26" d="m320.59,186.5c-.97,6.57-11.03,12.01-21.8,17.83-10.43,5.64-14.26,4.62-15.85,3.96-5.15-2.11-6.48-8.34-9.91-7.93-2.49.3-2.33,3.64-5.95,5.94-3.98,2.54-9.86,2.12-13.87,0-6.29-3.32-6.93-10.24-9.91-9.91-2.37.27-1.93,4.66-5.94,7.93-3.61,2.93-9.52,3.89-13.87,1.98-6.22-2.72-6.67-10.14-9.91-9.91-2.92.21-2.54,6.27-7.93,9.91-5,3.38-11.22,2.13-11.89,1.98-7.94-1.71-10.27-8.98-13.87-7.93-3.07.9-1.65,6.25-5.94,11.89-3.29,4.32-9.6,8.36-15.85,7.93-8.87-.62-13.08-9.94-17.83-7.93-1.6.68-1.57,1.92-3.96,5.94-1.17,1.96-4.83,8.11-9.91,11.89-3.95,2.94-12.06,6.91-17.83,3.96-4.69-2.39-4.54-7.66-7.93-7.93-3.41-.27-4.19,5.04-9.91,7.93-5.96,3.01-12.57,1-15.85,0-3.33-1.01-11.37-3.45-13.87-9.91-2.46-6.36,1.98-12.66,0-13.87-1.96-1.19-5.41,5.46-11.89,5.95-5.52.41-11.02-3.83-13.87-7.93-4.49-6.44-2.57-12.7-5.94-13.87-2.81-.98-4.57,3.21-9.91,3.96-7.22,1.02-13.3-5.33-13.87-5.95-4.92-5.28-7.34-14.18-3.96-19.82,4.57-7.63,16.16-3.28,21.8-11.89,3.01-4.61.39-6.91,3.96-13.87,1.4-2.72,5.3-10.31,11.89-11.89,10.06-2.41,17.72,11.26,25.76,7.93,3.73-1.55,2.65-4.74,7.93-7.93.45-.27,8.23-4.83,15.85-1.98,6.61,2.47,8.08,8.62,11.89,7.93,2.68-.49,2.31-3.61,5.94-5.95,5.85-3.77,14.38-.55,15.85,0,5.68,2.14,6.23,4.84,11.89,5.95,1.43.28,3.62.19,7.93,0,15.25-.67,16.13-.73,17.83,0,5.64,2.42,5.37,7.07,9.91,7.93,5.48,1.03,10.75-4.82,11.89-5.94,18.07-17.88,142.33,19.03,138.7,43.62Z"/>
      <path class="cls-5" d="m368.15,186.5c-.97,6.57-11.03,12.01-21.8,17.83-10.43,5.64-14.26,4.62-15.85,3.96-5.15-2.11-6.48-8.34-9.91-7.93-2.49.3-2.33,3.64-5.95,5.94-3.98,2.54-9.86,2.12-13.87,0-6.29-3.32-6.93-10.24-9.91-9.91-2.37.27-1.93,4.66-5.95,7.93-3.61,2.93-9.52,3.89-13.87,1.98-6.22-2.72-6.67-10.14-9.91-9.91-2.92.21-2.54,6.27-7.93,9.91-5,3.38-11.22,2.13-11.89,1.98-7.94-1.71-10.27-8.98-13.87-7.93-3.07.9-1.65,6.25-5.94,11.89-3.29,4.32-9.6,8.36-15.85,7.93-8.87-.62-13.08-9.94-17.83-7.93-1.6.68-1.57,1.92-3.96,5.94-1.17,1.96-4.83,8.11-9.91,11.89-3.95,2.94-12.06,6.91-17.83,3.96-4.69-2.39-4.54-7.66-7.93-7.93-3.41-.27-4.19,5.04-9.91,7.93-5.96,3.01-12.57,1-15.85,0-3.33-1.01-11.37-3.45-13.87-9.91-2.46-6.36,1.98-12.66,0-13.87-1.96-1.19-5.41,5.46-11.89,5.95-5.52.41-11.02-3.83-13.87-7.93-4.49-6.44-2.57-12.7-5.94-13.87-2.81-.98-4.57,3.21-9.91,3.96-7.22,1.02-13.3-5.33-13.87-5.95-4.92-5.28-7.34-14.18-3.96-19.82,4.57-7.63,16.16-3.28,21.8-11.89,3.01-4.61.39-6.91,3.96-13.87,1.4-2.72,5.3-10.31,11.89-11.89,10.06-2.41,17.72,11.26,25.76,7.93,3.73-1.55,2.65-4.74,7.93-7.93.44-.27,8.23-4.83,15.85-1.98,6.61,2.47,8.08,8.62,11.89,7.93,2.68-.49,2.31-3.61,5.94-5.95,5.85-3.77,14.38-.55,15.85,0,5.68,2.14,6.23,4.84,11.89,5.95,1.43.28,3.62.19,7.93,0,15.25-.67,16.13-.73,17.83,0,5.64,2.42,5.37,7.07,9.91,7.93,5.48,1.03,10.75-4.82,11.89-5.94,18.08-17.88,142.34,19.03,138.71,43.62Z"/>
      <path class="cls-17" d="m677.29,57.69c-4.82-2.29-11.07,1.66-17.83,5.94-10.72,6.79-17.51,15.35-21.8,21.8-6.12,9.2-7.87,15.04-13.87,29.72-12.61,30.85-11.93,32.31-15.85,35.67-5.82,4.98-11.96,6.05-43.6,7.93-3.09.18,1.8.08-39.63,1.98-32.05,1.47-34.43,1.37-39.63,3.96-4.64,2.31-10.61,6.3-15.85,3.96-4.77-2.12-6.19-8.23-9.91-7.93-2.82.23-3.23,3.84-5.95,3.96-4.1.19-5.64-7.92-9.91-7.93-2.65-.01-5.21,3.12-5.95,5.95-1.23,4.74,3.01,7.38,1.98,9.91-1.71,4.23-15.61,1.86-35.67,0-16.68-1.55-13.59-.52-27.74-1.98-16.01-1.66-26.54-3.65-39.63-5.94,0,0-30.68-5.37-63.41-9.91-23.81-3.3-35.71-4.95-51.52-5.94-26.84-1.68-47.5-.7-61.43,0-38.02,1.92-31.79,5.36-41.61,3.96-2.56-.37-8.99-1.46-11.89,1.98-2.12,2.51-1.99,6.99,0,9.91,2.49,3.65,7.19,3.85,9.91,3.96,4.79.2,8.39-1.37,9.91-1.98,4.48-1.79,10.92-1.86,23.78-1.98,23.76-.23,47.56,1.98,47.56,1.98,31.56,2.93,47.35,4.4,57.47,5.94,54.48,8.31,50.03,15.79,81.25,17.83,0,0,21.57,1.41,21.8,5.95.09,1.82-4.2,3.21-3.96,5.94.17,1.99,2.63,3.27,3.96,3.96,6.03,3.14,13.76,1.38,13.87,0,.08-.99-3.73-2.36-3.96-1.98-.31.49,4.32,5.68,9.91,5.94,2.9.14,3.62-1.16,7.93-1.98,0,0,3.89-.74,9.91,0,17.87,2.21,35.67,13.87,35.67,13.87,19.4,12.71,21.53,17.82,35.67,27.74,11.44,8.03,26.03,18.27,45.58,21.8,27.88,5.03,51.37-6.21,67.38-13.87,11.03-5.28,21.22-13.43,41.61-29.72,11.6-9.27,19.43-16.44,21.8-27.74,1.79-8.53,0-13.87,0-13.87-.29-4.85-.72-6.83,0-9.91,1.21-5.16,4.5-8.37,5.94-9.91,7.07-7.53,4.99-12.21,15.85-35.67,5.63-12.15,5.9-10.28,9.91-19.82,3.88-9.24,7.17-17.23,7.93-27.74.38-5.75,1.57-22.15-5.98-25.74Z"/>
    </g>
    <g id="cuisse-droite">
      <path class="cls-9" d="m441.47,212.29c-10.22-1.04-17.75,5.91-23.78,11.65-7,6.66-23.77,22.61-21.8,40.76,1.34,12.32,10.62,19.34,15.85,23.29,3.36,2.54,20.99,15.86,35.67,2.91,16.49-14.54,20.29-54.3,9.91-69.88-5.09-7.64-12.9-8.43-15.85-8.73Z"/>
      <path class="cls-21" d="m453.44,196.8c-9.47,3.01-14.32,10.82-15.19,12.26-2.46,4.11-3.15,7.79-4.08,15.45-1.89,15.53-2.35,27.53-2.42,29.36-.49,13.62-.45,22.45.52,32.68,1.26,13.29,2.83,15.7,4.6,17.23,6.44,5.56,19.83,3.27,27.83-3.33,7.16-5.9,4.21-10.48,14.03-24.26,5.86-8.21,8.08-8.23,12.25-15.58,1.94-3.43,6.12-10.79,6.89-20.3.97-12.04-3.51-27.5-15.97-36.76-2.72-2.02-14.88-11.06-28.46-6.75Z"/>
    </g>
    <g id="mollet-droite">
      <path class="cls-13" d="m436.51,288.93c5.99,3.61-.44,23.43-1.21,25.81-2.62,8.08-10.43,26.45-19.16,25.57-6.2-.62-11.39-10.81-11.56-19.41-.39-19.5,24.97-36.17,31.93-31.97Z"/>
      <path class="cls-21" d="m460.13,289.64c-2.3-2.48-6.88-1.95-7.71-1.85-4.67.55-7.79,3.9-9.56,5.86-11.49,12.71-12.82,17.68-20.42,25.67-7,7.36-11,8.53-11.41,13.57-.37,4.71,2.59,10.36,7.32,11.95,6.3,2.11,12.52-4.05,13.41-4.93,2.93-2.9,2.56-4.63,6.17-8.71,3.15-3.56,6.14-5.31,7.63-6.32,11.07-7.53,20.1-29.28,14.57-35.24Z"/>
    </g>
    <g id="pied-gauche">
      <path class="cls-24" d="m608.22,344.97c2.09.9,2.36,4.99,1.04,6.08-.49.4-.89.14-2.08.67-.27.12-1.32.61-2.22,1.63-1.35,1.53-.52,3.16-1.56,3.71-.61.32-1.45.11-1.93-.3-.26-.22-.6-.65-.67-2.08-.08-1.82.38-3.26.59-3.86.63-1.79,1.17-3.31,2.67-4.52.56-.43,2.53-2.03,4.16-1.33Z"/>
      <path class="cls-2" d="m625.77,337.1c-3.42-3.4-11.39-.21-11.89,0-2.29.95-3.68,2.09-5.94,3.96-3.22,2.66-5.92,4.89-5.95,7.93-.01,1.71.82,3.72,1.98,3.96,1.45.31,2.57-2.29,3.96-1.98,1.2.26,1.54,2.43,1.98,3.96,1.45,5.01,5.57,8.51,7.93,9.91,2.85,1.69,6.52,1.79,13.87,1.98,3.24.09,2.97-.14,5.95,0,5.94.28,7.61,1.23,9.91,0,2.21-1.17,1.55-2.5,3.96-3.96,3.44-2.08,5.95-.1,7.93-1.98,2.02-1.92,1.92-6.37,0-7.93-1.38-1.12-3.05-.23-5.95,0-1.79.14-2.91-.05-13.87-3.96-9.24-3.29-10.78-3.99-11.89-5.95-1.51-2.66-.26-4.23-1.98-5.94Z"/>
      <path class="cls-24" d="m644.61,359.52c-2.17.68-2.84,4.73-1.64,5.95.45.45.87.23,2,.87.26.15,1.26.74,2.05,1.84,1.19,1.65.2,3.19,1.18,3.84.57.38,1.43.25,1.95-.1.28-.19.66-.59.87-2,.26-1.8-.06-3.28-.21-3.9-.45-1.84-.84-3.41-2.21-4.77-.49-.48-2.29-2.27-3.99-1.73Z"/>
      <path class="cls-24" d="m655.02,356.25c-1.28,1.88.69,5.48,2.39,5.69.63.08.83-.36,2.11-.55.29-.04,1.45-.19,2.75.18,1.96.56,2.13,2.38,3.3,2.29.69-.05,1.28-.69,1.47-1.29.1-.32.16-.87-.55-2.11-.91-1.58-2.07-2.54-2.57-2.93-1.49-1.17-2.77-2.16-4.68-2.38-.7-.08-3.22-.37-4.22,1.1Z"/>
    </g>
    <g id="pied-droit">
      <path class="cls-2" d="m427.21,337.73c-3.32-1.01-3.31-1.81-7.36-2.94-3.8-1.06-5.27-.77-6.26-.37-1.82.74-2.82,2.2-3.31,2.95-.97,1.46-1.59,3.29-1.65,6.81-.07,4.13-.14,7.7,1.84,11.41,2.95,5.5,8.47,7.67,11.41,8.83,5.79,2.27,7.05.47,13.62,3.31,3.01,1.3,4.2,2.3,7.36,2.94,2.86.58,6.26,1.26,8.83-.74,2.99-2.33,3.76-7.45,1.84-9.94-.99-1.29-1.98-.93-5.52-2.21-.39-.14-5.61-2.07-10.31-6.25-.27-.24-4.91-4.42-4.05-5.89.42-.71,1.77-.17,2.58-1.1.85-1,.61-3.1-.37-4.42-1.48-1.99-3.7-.88-8.65-2.39Z"/>
      <path class="cls-24" d="m441.45,364.23c-1.95,1.17-1.67,5.26-.22,6.17.54.34.9.02,2.15.38.28.08,1.39.43,2.42,1.32,1.54,1.33.94,3.06,2.04,3.47.64.24,1.45-.09,1.87-.55.23-.25.51-.73.38-2.15-.16-1.82-.81-3.18-1.1-3.74-.87-1.69-1.6-3.13-3.25-4.13-.6-.37-2.76-1.69-4.29-.77Z"/>
      <path class="cls-24" d="m449.2,361.2c-1.55,1.66-.15,5.52,1.49,5.99.61.17.87-.23,2.17-.22.29,0,1.46.03,2.69.6,1.85.86,1.75,2.68,2.92,2.77.69.05,1.37-.48,1.65-1.05.15-.3.29-.84-.22-2.17-.66-1.7-1.66-2.83-2.09-3.29-1.3-1.38-2.4-2.56-4.26-3.07-.69-.19-3.13-.86-4.35.44Z"/>
      <path class="cls-24" d="m432.3,340.57c-.84,2.11,1.88,5.19,3.58,5.02.63-.06.73-.53,1.94-1,.27-.11,1.37-.51,2.73-.43,2.03.12,2.61,1.85,3.73,1.51.66-.2,1.1-.95,1.15-1.58.03-.34-.04-.89-1-1.94-1.23-1.34-2.58-2.03-3.15-2.3-1.71-.81-3.18-1.5-5.09-1.3-.71.09-3.23.36-3.89,2.02Z"/>
    </g>
    <g id="main-droite">
      <path class="cls-25" d="m590.08,248.95c6.79,1.67,6.54,22.5,6.51,25-.1,8.5-2.1,28.36-10.7,30.11-6.11,1.24-14.09-6.94-16.81-15.1-6.15-18.51,13.12-41.95,21-40.01Z"/>
      <path class="cls-6" d="m597.03,238.06c-3.26.03-5.43,3.38-5.59,3.64-1.63,2.6-1.1,5.09-.92,9.74.15,3.76-.34,7.51-.39,11.27-.11,8.2-.73,14.78-1.32,21.01-1.32,14.02-2.91,19.35.27,25.6,1.98,3.89,4.11,4.78,5.17,5.07,2.72.73,6.11-.4,7.65-2.64,1.56-2.27-.1-3.73,1.45-8.21.26-.74.28-.64,2.51-5.15,1.61-3.26,2.42-4.89,2.51-5.15,2.38-6.62-5.26-14.57-3.75-15.83.78-.65,2.53,1.67,5.65,1.48,2.85-.17,5.91-2.38,6.1-4.67.15-1.82-1.6-2.82-4.67-6.1-2.51-2.68-4.94-5.26-6.23-8.13-2.84-6.3,1.74-9.63-1.19-15.86-.22-.44-2.98-6.12-7.25-6.07Z"/>
    </g>
    <g id="avant-bras-droit">
      <path class="cls-28" d="m516.08,204.39c-8.94,8.32-8.98,20.24-8.87,29.92.13,11.24.45,38.15,17.4,50.03,11.51,8.07,24.78,5.07,32.26,3.39,4.81-1.08,30.01-6.76,30.59-29.57.66-25.6-30.08-58.86-51.47-61.33-10.49-1.2-17.33,5.17-19.91,7.56Z"/>
      <path class="cls-15" d="m510.61,214.53c-3.14-.03-3.63,6.33-3.98,11.58-.41,6.09-1.38,20.67,3.48,35.56,3.3,10.11,7.59,15.18,10,18.03,1.55,1.84,9.7,11.46,10.79-.47,1.22-13.39-7.11-46.66-13.74-58.74-3.24-5.93-5.64-5.95-6.55-5.96Z"/>
      <path class="cls-12" d="m558.54,205.19c-1.56-1.18-10.03-7.57-19.46-4.58-3.52,1.12-10.08,4.47-10.3,9.16-.2,4.33,5.16,6.37,21.75,17.17,13.46,8.77,14.42,10.36,27.48,18.32,4.43,2.7,8.1,8.46,13.74,8.01,4.09-.32,6.73-3.28,6.87-3.43,2.22-2.56,2.98-6.26,2.29-9.16-1.34-5.61-7.45-5.51-19.46-13.74-3.52-2.41-9.09-6.22-14.88-12.59-4.77-5.23-4.51-6.51-8.03-9.16Z"/>
    </g>
    <path id="bras-droit" class="cls-12" d="m563.12,212.06c5.49-3.1,6.88-3.79,9.16-5.72,3.5-2.98,7.74-6.58,9.16-12.59.19-.81,2.31-10.54-4.58-17.17-3.93-3.78-9.28-5.11-13.74-4.58-2.57.31-4.05,1.14-12.59,6.87-7.4,4.96-11.18,7.5-14.88,10.3-11.65,8.81-12.41,10.97-12.59,12.59-.49,4.27,2.63,7.87,5.72,11.45,3.03,3.5,7.47,8.63,13.74,9.16,3.29.27,4.04-.98,20.6-10.31Z"/>
    <g id="tete">
      <path class="cls-19" d="m636.45,77.72s-22.56,1.21-40.21-8.04c-2.83-1.49-6.49-3.82-8.04-8.04-1.63-4.44-.85-10.69,2.68-13.4,2.37-1.82,5.13-1.39,5.36-2.68.28-1.59-3.91-2.23-5.36-5.36-1.75-3.78.97-10.14,5.36-13.4,5.54-4.11,11.57-1.66,13.4-5.36,1.32-2.66-1.42-4.68,0-8.04,1.34-3.16,5.04-4.38,8.04-5.36,2.07-.68,8.02-2.63,13.4,0,2.72,1.33,3.45,2.93,5.36,2.68,2.32-.3,3.06-2.86,5.36-5.36C645.08,1.8,650.01.02,652.52,0c10.88-.07,20.22,32.61,21.44,32.16.53-.19-2.45-5.91,0-10.72,1.87-3.69,6.76-6.51,10.72-5.36.63.18,3.11,1.01,5.36,5.36,5.49,10.62-.55,22.57,2.68,24.12,1.8.87,3.64-2.87,8.04-2.68,3.45.15,6.57,2.64,8.04,5.36,2.33,4.3.55,9.19,0,10.72-5.5,15.19-46.32,17.37-72.35,18.76Z"/>
      <path class="cls-10" d="m653.51,75.52s-16.68.89-29.72-5.94c-2.1-1.1-4.8-2.82-5.95-5.94-1.21-3.28-.63-7.9,1.98-9.91,1.75-1.35,3.79-1.03,3.96-1.98.21-1.17-2.89-1.65-3.96-3.96-1.29-2.79.72-7.5,3.96-9.91,4.1-3.04,8.55-1.23,9.91-3.96.97-1.97-1.05-3.46,0-5.94.99-2.34,3.72-3.23,5.94-3.96,1.53-.5,5.93-1.94,9.91,0,2.01.98,2.55,2.16,3.96,1.98,1.71-.22,2.26-2.12,3.96-3.96,2.43-2.64,6.07-3.95,7.93-3.96,8.04-.05,14.95,24.11,15.85,23.78.39-.14-1.81-4.37,0-7.93,1.39-2.72,5-4.82,7.93-3.96.47.14,2.3.75,3.96,3.96,4.06,7.85-.41,16.69,1.98,17.83,1.33.64,2.69-2.12,5.95-1.98,2.55.11,4.85,1.95,5.94,3.96,1.72,3.18.41,6.8,0,7.93-4.06,11.21-34.25,12.83-53.49,13.85Z"/>
      <path class="cls-11" d="m639.64,93.36c-1.05.41-6.32,2.46-9.91,0-3.35-2.3-2.61-6.74-5.95-7.93-2.28-.81-3.46.98-5.95,0-2.08-.82-4.09-3.18-3.96-5.95.18-3.98,5.35-5.74,5.95-5.94,2.3-.79,3.42-.27,7.93,0,6.97.42,7.34-.65,11.89,0,4.3.62,8.45,1.21,9.91,3.96,2.32,4.4-2.85,13.11-9.91,15.86Z"/>
      <path class="cls-27" d="m625.77,119.12c.29,2.92,1.13,5.59,1.13,5.59.45,1.44.85,2.34.85,2.34.75,1.67,2.34,5.1,5.95,7.93,3.89,3.05,8.2,3.73,9.91,3.96,1.26.17,8.19,1.02,14.86-2.97,4.06-2.43,5.87-5.37,9.91-11.89,9.25-14.94,12.93-22.96,13.87-25.76,2.43-7.25,9.48-28.32,0-37.65-.45-.44-3.42-3.29-7.93-3.96-1.5-.23-7.45-.85-19.82,9.91-7.97,6.94-13.09,13.8-15.85,17.83-13.55,19.73-13.04,33.13-12.88,34.67Z"/>
      <ellipse class="cls-4" cx="684.22" cy="85.43" rx="24.77" ry="27.74"/>
      <ellipse class="cls-20" cx="695.12" cy="84.44" rx="21.8" ry="20.81"/>
      <path class="cls-22" d="m712.05,73.54c-.76.43-.22,2.93,0,3.96.68,3.18,1.99,3.94,1.92,5.94-.06,1.8-1.18,3.1-1.92,3.96-2.98,3.46-7.7,3.84-9.61,3.96-5.43.36-8.16-1.71-9.61,0-.92,1.09-.86,3.17,0,3.96.72.67,1.82.25,3.85,0h5.77c15.36,0,15.17-.01,15.38,0,8.97.6,21.72,3.64,23.07,3.96,2.34.56,4.8,1.21,5.77,0,1.42-1.77-1.02-6.72-3.85-9.91-4.74-5.35-11.71-7.04-15.38-7.93-4.03-.97-5.07-.56-7.69-1.98-4.57-2.44-6.66-6.51-7.7-5.92Z"/>
      <path class="cls-7" d="m740.7,103.27c.47.26,1.42.86,1.98,1.98.6,1.18.79,2.98,0,3.96-1.18,1.47-4.1.53-7.93,0-4.88-.67-4.7.23-11.89,0-1.68-.05-7.99-.31-15.85-1.98-8.02-1.71-12.07-2.63-13.87-5.95-1.18-2.17-1.76-5.83,0-7.93,3.16-3.75,9.93,2.22,27.74,3.96.01.01,11.18,1.11,19.82,5.96Z"/>
      <path class="cls-1" d="m744.82,102.44c-7.48-2.24-15.81-4.35-24.93-6.11-9.36-1.8-18.09-2.93-26.04-3.62.14.45.25,1,.27,1.64.06,2.05-.93,3.58-1.39,4.2,3.53-.28,7.3-.39,11.3-.24,16.48.62,30.04,5.37,39.67,9.96,1.6.31,3.17-.76,3.48-2.36.31-1.61-.74-3.16-2.36-3.47Z"/>
      <path class="cls-23" d="m743.96,101.48c-11.97-3.13-25.32-5.7-39.92-7.13-3.87-.38-7.65-.66-11.35-.86-1.61-.25-2.73-1.78-2.48-3.39.25-1.62,1.77-2.73,3.39-2.48l51.27,7.99c1.62.25,2.73,1.77,2.48,3.39-.25,1.62-1.77,2.73-3.39,2.48Z"/>
      <ellipse class="cls-8" cx="738.7" cy="90.34" rx="1.98" ry="2.97" transform="translate(452.56 777.34) rotate(-74.36)"/>
    </g>
    <g id="oeil">
      <ellipse class="cls-14" cx="697.16" cy="75.5" rx="10.38" ry="9.91"/>
      <circle class="cls-16" cx="698.15" cy="73.51" r="5.94"/>
      <circle class="cls-18" cx="698.15" cy="73.51" r="3.96"/>
      <circle class="cls-3" cx="700.13" cy="71.53" r="1.98"/>
    </g>
  </g>
</svg>