<?xml version="1.0" encoding="UTF-8"?>
<svg id="Calque_2" data-name="Calque 2" xmlns="http://www.w3.org/2000/svg" viewBox="0 0 686.1 217.72">
  <defs>
    <style>
      .cls-1 {
        fill: #fff;
      }

      .cls-2 {
        fill: #00a896;
      }

      .cls-3 {
        fill: #02c39a;
      }

      .cls-4 {
        fill: #3f70c6;
      }

      .cls-5 {
        fill: #05668d;
      }

      .cls-6 {
        fill: #028090;
      }

      .cls-7 {
        fill: #3fffc6;
      }

      .cls-8 {
        fill: #f0f3bd;
      }
    </style>
  </defs>
  <g id="Calque_1-2" data-name="Calque 1">
    <path id="n-d" class="cls-2" d="m215.77,129.63c-.57-1.16-4.18-8.49-10.1-10.1-8.06-2.19-19.31,6.55-20.19,15.14-.69,6.72,5.47,8.41,12.62,22.72,5.07,10.13,3.57,12.47,7.57,20.19,5.82,11.25,14.72,17.36,22.72,22.72,18.39,12.32,45.6,22.01,50.48,15.14.8-1.13,1.02-2.73-5.05-17.67-6.47-15.91-9.7-23.87-12.62-27.76-3.27-4.37-12.59-16.8-27.76-22.72-4.91-1.91-12.11-3.8-15.14-10.1-1.31-2.7-.79-4.04-2.53-7.56Z"/>
    <path id="n-g" class="cls-2" d="m405.07,139.72c-4.9-4.51-4.4-9.49-7.57-10.1-4.18-.8-11.01,6.7-10.1,12.62.54,3.5,3.42,4.08,7.57,10.1,3.19,4.62,4.36,8.43,5.05,10.1,5.48,13.23,39.15,32,45.43,25.24,6.08-6.54-11.03-39.58-27.76-42.91-2.63-.52-8.08-.88-12.62-5.05Z"/>
    <g id="corps">
      <path class="cls-3" d="m122.38,99.34c-8.12,5.01-9.72,10.9-10.1,12.62-2.53,11.62,9.09,24.85,20.19,27.76,4.26,1.12,7.13.23,15.14,2.52,1.13.32,5.37,1.57,12.62,5.05,7.1,3.4,11.9,6.46,17.67,10.1,12.21,7.7,18.32,11.55,20.19,12.62,6.33,3.62,13.79,6.53,37.86,10.1,24.26,3.6,36.47,5.41,53,5.05,6.79-.15,21.66-.82,83.29-17.67,30.77-8.41,29.12-8.81,53-15.14,32.04-8.5,54.71-13.02,78.24-17.67,67.94-13.41,77.99-10.97,85.82-7.57,15.39,6.69,13.74,13.42,42.91,35.34,6.3,4.73,45.93,34.52,53,27.76,6.63-6.32-25.67-34.73-27.76-75.72-2.07-40.44,34.09-67.24,27.76-73.2-5.33-5.01-33.16,10.2-53,27.76-13.8,12.21-22.51,24.47-40.38,27.76-7.4,1.36-13.05.58-17.67,0-36.56-4.61-30.16.47-80.77-5.05-47.81-5.21-36.98-7.95-68.15-10.1-17.81-1.23-31.83-1.06-47.96-10.1-6.96-3.9-18.3-10.26-22.72-22.72-4.31-12.16-1.09-27.57,0-32.81,1.99-9.52,4.48-13.29,2.52-15.14-3.71-3.52-19.3,3.78-30.29,15.14-11.68,12.08-9.7,19.99-20.19,27.76-8.14,6.03-15.89,6.14-27.76,7.57-1.17.14-19.29,4.3-55.53,12.62-33.42,7.67-50.54,11.68-70.67,20.19-13.26,5.64-23.64,11.31-30.26,15.17Z"/>
      <path class="cls-8" d="m155.19,96.81c3.34-7.69,15.35-9,22.72-10.1,31.04-4.6,30.77-12.82,58.05-17.67,26.03-4.63,45.58-.58,75.72,5.05,0,0,47.8,8.93,136.3,22.72,104.15,16.23,55.95,1.01,111.06,10.1,15.15,2.5,43.32,7.7,63.1-7.57,3.39-2.61,2.9-3.03,15.14-15.14,9.46-9.36,32.78-32.44,35.34-30.29,1.58,1.34-7.68,10-12.62,27.76-4.01,14.43-.72,18.87-5.05,25.24-6.82,10.04-22.69,10.33-42.91,10.1-36.54-.42-54.81-.63-68.15-2.52-42.08-5.97-74.76-6.76-108.53-7.57-57.5-1.38-86.24-2.07-113.58,5.05-23.11,6.02-36.32,13.09-55.53,7.57-19.73-5.67-23.21-18.13-50.48-25.24-11.61-3.03-25.4-6.63-37.86,0-11.04,5.87-15.65,16.91-20.19,15.14-3.13-1.22-4.6-7.88-2.53-12.63Z"/>
    </g>
    <path id="machoire-sup" class="cls-5" d="m168.82,109.39c2.49-4.91,2.65-11.24,0-15.35-6.04-9.36-27.1-7.77-40.92-2.56-7.11,2.68-6.85,4.26-20.46,10.23-5.03,2.21-11.63,5.07-20.46,7.67-9.36,2.75-16.39,3.78-25.58,5.12-11.29,1.64-18.33,2.67-28.14,2.56-4.21-.05-9.37-.31-17.9,0-13.4.49-15.2,1.66-15.35,2.56-.03.18-.11,1.07,2.56,2.56,10.71,5.96,33.24,3.35,43.48,2.56,8.51-.66.77.55,28.14,0,58.49-1.17,87.88-2.03,94.63-15.35Z"/>
    <g id="machoire-inf">
      <path class="cls-8" d="m22.68,128.36h-5.05v-8.1c0-1.1.9-2,2-2h3.05v10.1Z"/>
      <path class="cls-8" d="m30.25,128.36h-5.05v-8.1c0-1.1.9-2,2-2h3.05v10.1Z"/>
      <path class="cls-8" d="m37.82,128.36h-5.05v-8.1c0-1.1.9-2,2-2h3.05v10.1Z"/>
      <path class="cls-8" d="m45.39,128.36h-5.05v-8.1c0-1.1.9-2,2-2h3.05v10.1Z"/>
      <path class="cls-8" d="m52.97,128.36h-5.05v-8.1c0-1.1.9-2,2-2h3.05v10.1Z"/>
      <path class="cls-8" d="m60.54,128.36h-5.05v-8.1c0-1.1.9-2,2-2h3.05v10.1Z"/>
      <path class="cls-8" d="m68.11,128.36h-5.05v-8.1c0-1.1.9-2,2-2h3.05v10.1Z"/>
      <path class="cls-8" d="m75.68,128.36h-5.05v-8.1c0-1.1.9-2,2-2h3.05v10.1Z"/>
      <path class="cls-8" d="m83.25,128.36h-5.05v-8.1c0-1.1.9-2,2-2h3.05v10.1Z"/>
      <path class="cls-8" d="m90.83,128.36h-5.05v-8.1c0-1.1.9-2,2-2h3.05v10.1Z"/>
      <path class="cls-8" d="m98.4,128.36h-5.05v-8.1c0-1.1.9-2,2-2h3.05v10.1Z"/>
      <path class="cls-8" d="m105.97,128.36h-5.05v-8.1c0-1.1.9-2,2-2h3.05v10.1Z"/>
      <path class="cls-8" d="m113.54,128.36h-5.05v-8.1c0-1.1.9-2,2-2h3.05v10.1Z"/>
      <path class="cls-6" d="m166.26,104.28c2.23-.05,6.31.08,10.23,2.56,4.24,2.68,8.19,8.06,7.67,12.79-.98,8.9-17.5,13.23-25.58,15.35-10.16,2.66-15.98,2.46-43.48,2.56-31.23.11-31.29.4-40.92,0-28.69-1.2-24.08-3.61-35.81-2.56-9.87.89-20.38,3.25-30.69-2.56-1.58-.89-5.43-3.06-5.12-5.12.61-4.02,16.64-4.69,28.14-5.12,85.36-3.14,85.38-.58,94.64-5.12,2.02-.98,25.14-12.43,40.92-12.78Z"/>
    </g>
    <g>
      <circle class="cls-4" cx="135.42" cy="99.41" r="5.71"/>
      <circle class="cls-7" cx="135.42" cy="99.41" r="4.28"/>
      <circle cx="134" cy="99.41" r="2.85"/>
      <circle class="cls-1" cx="135.42" cy="99.41" r="1.43"/>
    </g>
  </g>
</svg>