<?xml version="1.0" encoding="UTF-8"?>
<svg id="Calque_2" data-name="Calque 2" xmlns="http://www.w3.org/2000/svg" viewBox="0 0 855.99 440.35">
  <defs>
    <style>
      .cls-1 {
        fill: #fff;
      }

      .cls-2 {
        fill: #bb2f43;
      }

      .cls-3 {
        fill: #ba2f41;
      }

      .cls-4 {
        fill: #363f5a;
      }

      .cls-5 {
        fill: #ef7b02;
      }

      .cls-6 {
        fill: #3f70c6;
      }

      .cls-7 {
        fill: #cb5230;
      }

      .cls-8 {
        fill: #a3234b;
      }

      .cls-9 {
        fill: #361a54;
      }

      .cls-10 {
        fill: #cf502d;
      }

      .cls-11 {
        fill: #3fffc6;
      }

      .cls-12 {
        fill: #36195a;
      }

      .cls-13 {
        fill: #f7a921;
      }

      .cls-14 {
        fill: #d7bddd;
      }
    </style>
  </defs>
  <g id="Calque_1-2" data-name="Calque 1">
    <path id="avant-bras-gauche" class="cls-8" d="m684.33,176.39c-2.86-.66-18.42-4.27-29.55,5.61-4.15,3.69-11.12,12.31-8.56,18.89,2.37,6.08,10.99,5.59,40.39,10.3,23.85,3.82,26.15,5.42,48.96,8.37,7.75,1,16.31,6.67,23.78,2.61,5.43-2.95,7.25-8.62,7.34-8.92,1.49-4.88.27-10.43-2.45-13.99-5.27-6.89-13.6-3.02-35.15-6.98-6.31-1.16-16.29-2.99-28.15-8.2-9.73-4.28-10.16-6.19-16.61-7.69Z"/>
    <path class="cls-8" d="m694.82,183.03c5.66-7.62,7.14-9.41,9.09-13.47,2.99-6.23,6.61-13.78,4.88-22.91-.23-1.23-3.27-15.91-16.8-20.8-7.7-2.79-15.88-1.34-21.68,2.11-3.35,1.99-4.87,4.04-13.1,17.14-7.14,11.35-10.77,17.15-14.15,23.26-10.63,19.23-10.34,22.67-9.6,25.01,1.95,6.17,8.43,9.21,14.87,12.23,6.3,2.96,15.54,7.29,24.48,4.18,4.69-1.62,4.96-3.79,22.01-26.75Z"/>
    <path id="bras-gauche" class="cls-8" d="m644.08,200.04c8.26-4.66,10.35-5.69,13.78-8.61,5.27-4.48,11.65-9.9,13.78-18.94.29-1.22,3.48-15.86-6.89-25.83-5.91-5.68-13.97-7.68-20.66-6.89-3.87.46-6.09,1.71-18.94,10.33-11.13,7.47-16.81,11.29-22.39,15.5-17.53,13.25-18.67,16.5-18.94,18.94-.73,6.43,3.96,11.84,8.61,17.22,4.55,5.26,11.23,12.98,20.66,13.78,4.94.41,6.08-1.46,30.99-15.5Z"/>
    <path id="mollet-gauche" class="cls-9" d="m604.47,229.31c-10.25-3.34-22.41,7.79-32.72,17.22-2.66,2.43-7.9,7.49-13.78,15.5-9.32,12.69-9.63,18.34-22.39,48.22-8.51,19.94-12.02,25.97-8.61,31,3.68,5.42,13.05,6.14,18.94,5.17,7.75-1.28,12.86-6.04,15.5-8.61,14.62-14.24,21.08-27.1,31-41.33,16.89-24.23,24.75-25.11,25.83-37.88,1-11.75-4.35-26.22-13.77-29.29Z"/>
    <path id="pied-gauche" class="cls-9" d="m544.2,334.36c-1.87.3-6.46,1.3-10.33,5.17-.46.45-5.26,5.35-5.17,10.33.13,7.23,10.52,11.8,41.33,29.27,9.76,5.54,19.71,11.31,18.94,17.22-.54,4.19-6.25,6.73-5.17,10.33.6,1.99,3.04,3.57,5.17,3.44,3.6-.21,4.49-5.21,6.89-5.17,3.32.07,3.28,9.7,8.61,15.5,4.71,5.13,11.31,4.74,25.83,5.17,31.29.92,39.7,3.89,41.33,0,1.79-4.27-6.27-12.79-13.78-17.22-11.08-6.53-18.59-2.76-27.55-10.33-4.4-3.71-3.3-5.23-8.61-12.05-7.24-9.32-11.37-9.19-25.83-20.66-12.89-10.23-19.33-15.34-25.83-22.39-3.71-4.02-8.25-9.41-15.5-10.33-4.22-.54-7.88.63-10.33,1.72Z"/>
    <path id="cuisse-gauche" class="cls-4" d="m594.14,122.55c-3.93.48-18.65,2.28-27.55,13.78-2.77,3.57-6.23,9.7-5.17,44.77.89,29.35,3.31,24.9,3.44,46.49.12,19.56-1.83,29.1,5.17,39.61,1.85,2.78,6.63,9.74,15.5,12.05,11.7,3.05,21.38-4.37,22.39-5.17,3.6-2.86,4.95-5.54,10.33-17.22,10.9-23.64,15.5-34.44,15.5-34.44,5.22-12.26,7.84-18.43,8.61-20.66,4.93-14.37,7.7-22.46,6.89-32.72-1.49-18.98-14.11-31.39-15.5-32.72-2.32-2.21-17.72-16.45-39.61-13.77Z"/>
    <path id="machoire-inf" class="cls-7" d="m821.45,41.61c-8.31.66-14.85,1.21-24.11,3.44-13.46,3.25-16.95,6.26-18.94,8.61-1.29,1.53-4.56,5.4-3.44,8.61,1.99,5.7,16.38,5.29,20.66,5.17,12.5-.36,13.12-3.89,31-6.89,10.31-1.73,15.31-1.42,17.22-5.17,1.84-3.6-.11-9.12-3.44-12.05-2.08-1.82-4.91-2.84-18.95-1.72Z"/>
    <g>
      <path class="cls-14" d="m18.98,72.61c5-1.18,8.79,1.59,32.72,22.39,12.05,10.48,21.72,18.78,36.16,29.27,5.25,3.82,22.66,15.79,65.44,24.11,22.09,4.3,37.34,4.97,122.26,3.44,72.01-1.3,95.04-2.4,125.71-8.61,14.37-2.91,34.1-7.69,37.88-8.61,40.76-9.88,61.37-16.85,75.77-20.66,74.51-19.77,101.87,13.16,146.37-8.61,17.98-8.79,19.49-31.32,58.55-74.05,4.24-4.64,10.02-10.79,17.22-10.33,16.83,1.07,30.82,37.56,31,67.16.03,4.81-.27,41.58-25.83,67.16-10.98,10.99-13.51,6.79-34.44,24.11-16.46,13.61-18.92,19.53-37.88,36.16-9.82,8.61-18.54,16.25-31,24.11-12.62,7.96-34.96,22.05-63.72,24.11-19.08,1.37-33.22-3.12-49.94-8.61-45.65-14.99-53.08-34.61-99.88-51.66-20.41-7.44-36.78-10.19-48.22-12.05-39.88-6.5-60.16-1.31-99.88,0-37.49,1.24-78.05,2.58-125.71-12.05-32.86-10.09-64.61-19.84-84.38-44.77-7.27-9.17-13.33-20.9-29.27-31-14.88-9.42-28.63-11.23-29.27-18.94-.4-4.99,4.76-10.76,10.34-12.07Z"/>
      <path class="cls-8" d="m10.37,65.72c5-1.18,8.79,1.59,32.72,22.39,12.05,10.48,21.72,18.78,36.16,29.27,5.25,3.82,22.66,15.79,65.44,24.11,22.09,4.3,37.34,4.97,122.26,3.44,72.01-1.3,95.04-2.4,125.71-8.61,14.37-2.91,34.1-7.69,37.88-8.61,40.76-9.88,61.37-16.85,75.77-20.66,74.51-19.77,101.87,13.16,146.37-8.61,17.98-8.79,19.49-31.32,58.55-74.05,4.24-4.64,10.02-10.79,17.22-10.33,16.83,1.07,30.82,37.56,31,67.16.03,4.81-.27,41.58-25.83,67.16-10.98,10.99-13.51,6.79-34.44,24.11-16.46,13.61-18.92,19.53-37.88,36.16-9.82,8.61-18.54,16.25-31,24.11-12.62,7.96-34.96,22.05-63.72,24.11-19.08,1.37-33.22-3.12-49.94-8.61-45.65-14.99-53.08-34.61-99.88-51.66-20.41-7.44-36.78-10.19-48.22-12.05-39.88-6.5-60.16-1.31-99.88,0-37.49,1.24-78.05,2.58-125.71-12.05-32.86-10.09-64.61-19.84-84.38-44.77-7.27-9.17-13.33-20.9-29.27-31C14.42,87.31.67,85.5.03,77.79c-.4-4.98,4.76-10.76,10.34-12.07Z"/>
      <path class="cls-12" d="m10.37,65.72c5-1.18,8.79,1.59,32.72,22.39,12.05,10.48,21.72,18.78,36.16,29.27.91.66,1.6,1.13,1.84,1.3,11.3,7.93,21.21,16.46,28.3,20.23,6.98,3.71,5.7-.15,35.3,2.58,24.77,2.29,31.49,5.53,35.3,7.75,7.97,4.63,8.11,7.65,13.78,8.61,13.12,2.23,22.29-12.26,29.27-8.61,5.56,2.9,2.05,13.26,6.89,15.5,8.36,3.87,25.15-24.11,37.02-19.8,4.17,1.51,4.61,5.88,11.19,7.75,4.29,1.22,6.59.06,12.05,0,8.36-.1,10.68,2.51,17.22,3.44,14.85,2.11,19.04-9.04,31-6.89,11.72,2.11,11.94,13.6,20.66,13.78,13.44.28,18.8-26.84,33.58-26.69,7.31.07,8.67,6.73,16.36,6.03,9.51-.86,11.06-11.36,21.53-14.64,9.01-2.82,12.75,3.44,23.25,4.31,25.08,2.08,41.91-30.43,52.52-24.97,7.11,3.66,3.64,20.33,9.47,21.53,3.59.73,5.49-5.46,15.5-12.05,4.03-2.65,9.58-6.22,17.22-6.89,1.2-.11,15.32-1.17,20.66,6.89,2.72,4.11,1.29,7.75,3.44,8.61,4.51,1.8,11.86-13.64,18.94-12.05,3.83.86,3.86,5.87,8.61,6.89,3.43.74,5.26-1.49,10.33-3.44,8.33-3.21,16.12-2.12,18.94-1.72,10.7,1.5,13.67,7.15,17.22,5.17,5.31-2.97-.43-16.12,6.03-21.53,4.18-3.5,8.65.28,14.64-.86,17.95-3.41,14.76-44.39,43.91-73.19,6.23-6.15,10.99-10.73,17.22-10.33,16.83,1.07,30.82,37.56,31,67.16.03,4.81-.27,41.58-25.83,67.16-10.98,10.99-13.51,6.79-34.44,24.11-16.46,13.61-18.92,19.53-37.88,36.16-9.82,8.61-18.54,16.25-31,24.11-12.62,7.96-34.96,22.05-63.72,24.11-19.08,1.37-33.22-3.12-49.94-8.61-45.65-14.99-53.08-34.61-99.88-51.66-20.41-7.44-36.78-10.19-48.22-12.05-39.88-6.5-60.16-1.31-99.88,0-37.49,1.24-78.05,2.58-125.71-12.05-32.86-10.09-64.61-19.84-84.38-44.77-7.27-9.17-13.33-20.9-29.27-31C14.41,87.34.66,85.53.02,77.82c-.39-5.01,4.77-10.79,10.35-12.1Z"/>
      <path class="cls-3" d="m680.12,70.97c-.56,2.95-2.55,13.54,3.75,23.39,7.42,11.58,22.82,16.63,35.66,14.39,13.78-2.4,21.68-12.66,24.4-16.19,1.99-2.58,2.57-3.95,7.51-14.39,12.39-26.2,12.72-26.01,13.14-28.78,1.47-9.73-.33-26.55-13.14-34.18-11.44-6.82-24.92-2.28-26.28-1.8-6.2,2.19-9.8,5.71-15.02,10.79-4.32,4.21-6.64,7.46-16.89,23.39-11.51,17.89-12.46,19.83-13.13,23.38Z"/>
      <circle class="cls-8" cx="142.11" cy="156.13" r="5.17"/>
      <circle class="cls-8" cx="217.88" cy="169.9" r="5.17"/>
      <circle class="cls-8" cx="236.82" cy="175.07" r="5.17"/>
      <circle class="cls-8" cx="297.09" cy="169.9" r="5.17"/>
      <circle class="cls-8" cx="321.2" cy="168.18" r="3.44"/>
      <circle class="cls-8" cx="360.81" cy="168.18" r="3.44"/>
      <circle class="cls-8" cx="412.47" cy="171.62" r="3.44"/>
      <circle class="cls-8" cx="334.98" cy="159.57" r="2.66"/>
      <circle class="cls-8" cx="341.86" cy="171.62" r="2.66"/>
      <circle class="cls-8" cx="390.08" cy="150.96" r="2.66"/>
      <circle class="cls-8" cx="260.93" cy="164.74" r="8.61"/>
      <ellipse class="cls-8" cx="185.16" cy="174.21" rx="5.17" ry="7.75"/>
      <circle class="cls-2" cx="550.23" cy="238.78" r="7.99"/>
      <circle class="cls-2" cx="533.01" cy="152.68" r="7.99"/>
      <circle class="cls-2" cx="569.17" cy="150.96" r="5.33"/>
      <circle class="cls-2" cx="579.5" cy="221.56" r="3.71"/>
      <ellipse class="cls-2" cx="550.19" cy="190.59" rx="23.28" ry="19.11" transform="translate(-32.05 196.14) rotate(-19.65)"/>
      <ellipse class="cls-2" cx="700" cy="135.48" rx="5.79" ry="4.75" transform="translate(-4.79 243.32) rotate(-19.65)"/>
      <path id="main-droite" class="cls-2" d="m746.31,210.69c-1.45,4.68,2.33,9.32,2.64,9.69,2.96,3.53,6.78,3.93,13.52,5.81,5.45,1.52,10.6,3.95,15.95,5.76,11.68,3.93,20.83,7.86,29.47,11.56,19.46,8.35,26.37,13.09,36.78,11.41,6.48-1.05,8.73-3.68,9.64-5.07,2.3-3.55,2.25-8.93-.26-12.17-2.53-3.28-5.39-1.57-11.08-5.86-.94-.71-.78-.69-6.21-5.96-3.93-3.81-5.9-5.71-6.21-5.96-8.39-6.46-23.29.82-24.4-1.92-.57-1.41,3.55-2.85,4.72-7.41,1.06-4.16-.68-9.56-3.88-10.88-2.55-1.05-4.78.99-10.88,3.88-5,2.37-9.81,4.65-14.51,5.18-10.33,1.16-12.99-6.93-23.26-5.6-.74.07-10.13,1.41-12.03,7.54Z"/>
      <path id="pied-droit" class="cls-9" d="m382.89,315.03c-1.88-.26-6.56-.63-11.39,1.94-.57.3-6.59,3.59-7.94,8.39-1.97,6.96,6.64,14.35,31.04,40.02,7.73,8.14,15.57,16.55,13.12,21.98-1.74,3.85-7.94,4.62-7.94,8.39,0,2.08,1.88,4.3,3.94,4.8,3.5.84,5.82-3.68,8.09-2.94,3.15,1.03.32,10.24,3.74,17.33,3.02,6.28,9.45,7.82,23.22,12.45,29.67,9.97,36.86,15.25,39.55,12,2.96-3.57-2.28-14.06-8.18-20.48-8.7-9.47-16.99-8.04-23.36-17.89-3.13-4.83-1.64-5.96-4.74-14.04-4.22-11.02-8.21-12.09-18.71-27.28-9.36-13.53-14.04-20.29-18.21-28.92-2.38-4.93-5.16-11.4-11.83-14.39-3.9-1.74-7.75-1.69-10.4-1.36Z"/>
      <path id="mollet-droit" class="cls-9" d="m473.6,282.69c-5.8-5.74-13.38-6.5-17.22-6.89-5.58-.56-9.92.44-15.5,1.72-7.4,1.7-12.8,4-15.5,5.17-29.2,12.65-27.47,17.16-41.33,20.66,0,0-10.07,2.55-16.47,8.32-2.33,2.1-3.53,4.09-4.19,5.46,0,0-1.57,3.22-1.72,6.89-.33,7.81,6.03,17.49,13.78,18.94,4.52.85,8.1-1.36,12.05-3.44,9.41-4.96,18.33-7.33,36.16-12.05,16.69-4.43,18.4-1.64,34.44-6.89,16.79-5.49,19.65-10.08,20.66-12.05,4.15-8.08,1.36-19.38-5.16-25.84Z"/>
      <path id="main-droite-2" data-name="main-droite" class="cls-2" d="m690.58,244.81c-4.38,2.19-5.11,8.14-5.17,8.61-.5,4.59,1.86,7.61,5.17,13.78,2.67,4.98,4.48,10.38,6.89,15.5,5.25,11.15,8.75,20.47,12.05,29.27,7.44,19.82,8.8,28.09,17.22,34.44,5.24,3.95,8.7,3.76,10.33,3.44,4.16-.8,8-4.56,8.61-8.61.62-4.1-2.59-4.98-3.44-12.05-.14-1.17-.04-1.04,0-8.61.03-5.47.04-8.21,0-8.61-1.14-10.52-16.72-16.24-15.5-18.94.62-1.39,4.52.59,8.61-1.72,3.74-2.11,6.43-7.11,5.17-10.33-1.01-2.56-4.03-2.76-10.33-5.17-5.17-1.97-10.14-3.86-13.78-6.89-7.99-6.65-3.99-14.17-12.05-20.66-.58-.46-8.04-6.32-13.78-3.45Z"/>
      <path id="cuisse-droit" class="cls-4" d="m468.43,160.43c-3.93.48-18.65,2.28-27.55,13.78-2.77,3.57-6.23,9.7-5.17,44.77.89,29.35,3.31,24.9,3.44,46.49.12,19.56-1.83,29.1,5.17,39.61,1.85,2.78,6.63,9.74,15.5,12.05,11.7,3.05,21.38-4.37,22.39-5.17,3.6-2.86,4.95-5.54,10.33-17.22,10.9-23.64,15.5-34.44,15.5-34.44,5.22-12.26,7.84-18.43,8.61-20.66,4.93-14.37,7.7-22.46,6.89-32.72-1.49-18.98-14.11-31.39-15.5-32.72-2.32-2.21-17.72-16.45-39.61-13.77Z"/>
      <g id="machoire-sup">
        <path class="cls-10" d="m759.46,2c-4.52,1.05-12.3,2.93-20.66,8.61-4.42,3-9.91,6.73-13.78,13.78-5.53,10.08-4.03,20.19-3.44,24.11.6,4.06,2.71,18.22,15.5,27.55,11.01,8.03,23.01,7.42,27.55,6.89,3.19-.37,19.18-2.25,25.83-13.78,7.83-13.58-1.94-32.51,5.17-36.16,2.86-1.47,7.31.11,10.33-3.44.35-.41.93-1.19,1.72-3.44.32-.92,2.69-7.68,1.72-12.05-1.61-7.27-12.99-10.41-18.94-12.05-13.88-3.84-25.65-1.26-31-.02Z"/>
        <ellipse class="cls-1" cx="800.78" cy="49.36" rx="2.58" ry="6.89"/>
        <ellipse class="cls-1" cx="807.67" cy="49.36" rx="2.58" ry="6.89"/>
        <ellipse class="cls-1" cx="814.56" cy="49.36" rx="2.58" ry="6.89"/>
        <ellipse class="cls-1" cx="821.45" cy="49.36" rx="2.58" ry="6.89"/>
        <path class="cls-13" d="m828.34,31.28c6.63,1.85,9.23,4.1,10.33,5.17.5.49,6.54,6.36,5.17,10.33-2.06,5.93-18.02-.05-41.33,5.17-17.52,3.92-27.89,11.65-32.72,6.89-2.46-2.43-1.96-6.59-1.72-8.61,1.47-12.24,17.15-18.28,18.94-18.94,3.51-1.3,10.37-1.44,24.11-1.72,5.47-.13,10.79-.08,17.22,1.71Z"/>
        <path class="cls-5" d="m783.56,26.11c-2.89-4.04-6.66-9.31-13.78-12.05-1.82-.7-10.1-3.9-17.22,0-2.71,1.48-4.21,3.42-6.89,6.89-1.16,1.5-5.24,6.77-6.89,12.05-4.38,14,8.07,28.65,8.61,29.27,8.63,9.89,22.98,15.6,31,12.05,4.19-1.86,6.89-5.17,6.89-5.17,1.49-1.83,2.49-3.83,3.44-6.89,1.3-4.17,3.54-11.36,1.72-20.66-1.54-7.91-5.21-13.16-6.88-15.49Z"/>
      </g>
      <g id="avant-bras-droit">
        <path class="cls-8" d="m646.19,196.71c-2.34-1.77-15.09-11.39-29.27-6.89-5.29,1.68-15.17,6.72-15.5,13.78-.31,6.52,7.77,9.58,32.72,25.83,20.24,13.19,21.69,15.58,41.33,27.55,6.67,4.07,12.19,12.72,20.66,12.05,6.16-.48,10.12-4.93,10.33-5.17,3.35-3.86,4.48-9.42,3.44-13.78-2.01-8.44-11.2-8.29-29.27-20.66-5.29-3.62-13.67-9.36-22.39-18.94-7.15-7.87-6.76-9.79-12.05-13.77Z"/>
        <circle class="cls-2" cx="620.83" cy="199.18" r="3.71"/>
      </g>
      <g id="bras-droit">
        <path class="cls-8" d="m644.08,200.04c8.26-4.66,10.35-5.69,13.78-8.61,5.27-4.48,11.65-9.9,13.78-18.94.29-1.22,3.48-15.86-6.89-25.83-5.91-5.68-13.97-7.68-20.66-6.89-3.87.46-6.09,1.71-18.94,10.33-11.13,7.47-16.81,11.29-22.39,15.5-17.53,13.25-18.67,16.5-18.94,18.94-.73,6.43,3.96,11.84,8.61,17.22,4.55,5.26,11.23,12.98,20.66,13.78,4.94.41,6.08-1.46,30.99-15.5Z"/>
        <circle class="cls-2" cx="631.17" cy="161.29" r="3.44"/>
        <circle class="cls-2" cx="624.28" cy="176.79" r="7.99"/>
        <circle class="cls-2" cx="660.44" cy="164.74" r="7.99"/>
        <circle class="cls-2" cx="601.89" cy="185.4" r="3.71"/>
      </g>
    </g>
    <g>
      <circle class="cls-6" cx="772.98" cy="37.89" r="8"/>
      <circle class="cls-11" cx="772.98" cy="37.89" r="6"/>
      <circle cx="774.98" cy="37.89" r="4"/>
      <circle class="cls-1" cx="772.98" cy="37.89" r="2"/>
    </g>
  </g>
</svg>