<?xml version="1.0" encoding="UTF-8"?>
<svg id="Calque_2" data-name="Calque 2" xmlns="http://www.w3.org/2000/svg" viewBox="0 0 788.63 336.46">
  <defs>
    <style>
      .cls-1 {
        fill: #fff;
      }

      .cls-2 {
        fill: #0b366f;
      }

      .cls-3 {
        fill: #9fffcb;
      }

      .cls-4 {
        fill: #00a5cf;
      }

      .cls-5 {
        fill: #004e64;
      }
    </style>
  </defs>
  <g id="Calque_1-2" data-name="Calque 1">
    <g>
      <path class="cls-4" d="m484.34,29.3h0c5.52,0,10,4.48,10,10v6h-10v-16h0Z" transform="translate(35.38 -149.15) rotate(17.97)"/>
      <path class="cls-4" d="m473.34,23.3h0c5.52,0,10,4.48,10,10v6h-10v-16h0Z" transform="translate(32.99 -146.05) rotate(17.97)"/>
      <path class="cls-4" d="m460.34,19.3h0c5.52,0,10,4.48,10,10v6h-10v-16h0Z" transform="translate(12.1 -81.6) rotate(10.15)"/>
      <path class="cls-4" d="m447.34,18.3h0c5.52,0,10,4.48,10,10v6h-10v-16h0Z" transform="translate(1.31 -16.98) rotate(2.15)"/>
      <path class="cls-4" d="m435.34,17.3h0c5.52,0,10,4.48,10,10v6h-10v-16h0Z" transform="translate(1.26 -16.53) rotate(2.15)"/>
      <path class="cls-4" d="m423.34,17.3h0c5.52,0,10,4.48,10,10v6h-10v-16h0Z" transform="translate(-.74 22.55) rotate(-3.01)"/>
      <path class="cls-4" d="m411.34,17.3h0c5.52,0,10,4.48,10,10v6h-10v-16h0Z" transform="translate(-.75 21.92) rotate(-3.01)"/>
      <path class="cls-4" d="m399.34,20.3h0c5.52,0,10,4.48,10,10v6h-10v-16h0Z" transform="translate(-.93 21.29) rotate(-3.01)"/>
      <path class="cls-4" d="m387.34,21.3h0c5.52,0,10,4.48,10,10v6h-10v-16h0Z" transform="translate(-1 20.66) rotate(-3.01)"/>
      <path class="cls-4" d="m375.34,22.3h0c5.52,0,10,4.48,10,10v6h-10v-16h0Z" transform="translate(-1.07 20.03) rotate(-3.01)"/>
      <path class="cls-4" d="m364.34,23.3h0c5.52,0,10,4.48,10,10v6h-10v-16h0Z" transform="translate(-1.13 19.46) rotate(-3.01)"/>
      <path class="cls-4" d="m352.34,26.3h0c5.52,0,10,4.48,10,10v6h-10v-16h0Z" transform="translate(-1.31 18.83) rotate(-3.01)"/>
      <path class="cls-4" d="m340.34,29.3h0c5.52,0,10,4.48,10,10v6h-10v-16h0Z" transform="translate(-1.48 18.2) rotate(-3.01)"/>
      <path class="cls-4" d="m328.34,31.3h0c5.52,0,10,4.48,10,10v6h-10v-16h0Z" transform="translate(-1.6 17.57) rotate(-3.01)"/>
      <path class="cls-4" d="m317.34,34.3h0c5.52,0,10,4.48,10,10v6h-10v-16h0Z" transform="translate(-1.78 17) rotate(-3.01)"/>
      <path class="cls-4" d="m306.34,37.3h0c5.52,0,10,4.48,10,10v6h-10v-16h0Z" transform="translate(-1.95 16.43) rotate(-3.01)"/>
      <path class="cls-4" d="m296.34,42.3h0c5.52,0,10,4.48,10,10v6h-10v-16h0Z" transform="translate(-2.23 15.91) rotate(-3.01)"/>
      <path class="cls-4" d="m286.34,45.3h0c5.52,0,10,4.48,10,10v6h-10v-16h0Z" transform="translate(-2.4 15.39) rotate(-3.01)"/>
      <g>
        <path class="cls-3" d="m612.44,93.31c4.68,10.53,27.31,13.53,42.62,7.52,8.96-3.52,10.88-8.35,25.04-14.64,9.17-4.07,11.26-3.33,21.52-6.79,25.26-8.51,24.53-17.06,47.27-24.16,10.35-3.23,15.84-3.13,24.97-8.8,6.02-3.74,16.27-11.64,14.6-16.64-1.44-4.29-11.08-4.67-15.55-4.81-17.01-.52-30.62,5.38-57.14,17.18-31.24,13.91-35.96,16.02-45.12,15.95-14.41-.11-17.81-5.46-28.44-3.07-18.58,4.18-34.97,26.54-29.77,38.25Z"/>
        <path class="cls-5" d="m1.27,267.41c-6.26-4.8,11.48-41.73,33-71,29.16-39.67,62.29-61.24,87-77,44.76-28.56,83.15-41.85,116-53,27.08-9.19,72.59-24.32,134-30,55.83-5.17,83.75-7.75,114,5,9.03,3.81,19.95,9.64,37,11,31.78,2.53,58.56-12.58,61-14,22.54-13.08,25.71-26.6,43-27,8.91-.21,14.34,3.24,25,0,9.67-2.94,11.31-7.63,20-9,8.82-1.39,11.8,2.7,23,5,8.66,1.78,18.44.19,38-3,19.24-3.13,23.36-5.36,34-4,6.81.87,17.44,2.23,21,10,2.13,4.64,1.56,11.16-2,15-4.8,5.17-12.09,2.29-23,3-11.08.72-10.92,4.17-41,17-14.96,6.38-22.66,9.62-33,12-17.59,4.05-19.53.71-29,4-16.82,5.84-14.64,17.71-38,42-1.1,1.15-15.07,12.76-43,36-5.26,4.38-10.49,8.71-18,14,0,0-13.89,9.79-28,17-24.18,12.36-52.52,8.8-118,12-20.36,1-20.95,1.52-51,3-37.14,1.83-55.96,2.71-68,1-19.25-2.73-18.05-5.78-61-16-21.79-5.18-32.87-7.78-42-8-27.34-.66-48.72,10.13-63,18C53.97,221.89,9.43,273.67,1.27,267.41Z"/>
        <circle class="cls-4" cx="232.34" cy="99.3" r="12"/>
        <circle class="cls-4" cx="267.34" cy="125.3" r="12"/>
        <circle class="cls-4" cx="237.34" cy="149.3" r="12"/>
        <circle class="cls-4" cx="308.34" cy="117.3" r="12"/>
        <circle class="cls-4" cx="348.34" cy="111.3" r="12"/>
        <circle class="cls-4" cx="391.34" cy="111.3" r="12"/>
        <circle class="cls-4" cx="428.34" cy="111.3" r="12"/>
        <circle class="cls-4" cx="412.34" cy="149.3" r="12"/>
        <circle class="cls-4" cx="448.34" cy="145.3" r="12"/>
        <circle class="cls-4" cx="372.34" cy="153.3" r="12"/>
        <circle class="cls-4" cx="334.34" cy="161.3" r="12"/>
        <circle class="cls-4" cx="469.34" cy="111.3" r="12"/>
        <circle class="cls-4" cx="507.34" cy="111.3" r="12"/>
        <circle class="cls-4" cx="279.34" cy="84.3" r="12"/>
        <circle class="cls-4" cx="320.34" cy="76.3" r="12"/>
        <circle class="cls-4" cx="364.34" cy="69.3" r="12"/>
        <circle class="cls-4" cx="406.34" cy="69.3" r="12"/>
        <circle class="cls-4" cx="448.34" cy="69.3" r="12"/>
        <circle class="cls-4" cx="489.34" cy="72.3" r="12"/>
        <circle class="cls-4" cx="527.34" cy="69.3" r="12"/>
        <circle class="cls-4" cx="602.34" cy="64.3" r="12"/>
      </g>
    </g>
    <path class="cls-2" d="m298.27,143.41c-6.22-3.05-14.33-2.51-20,1-4.53,2.8-7.36,8.54-13,20-4.17,8.46-4,9.93-7,13-2.49,2.55-4.36,3.33-14,9-3.35,1.97-6.66,4.02-10,6-12,7.12-20.81,22.37-27,31-4.29,5.98-16.53,15.65-41,35-21.79,17.23-38.5,22.83-37,28,.94,3.23,8.08,3.8,11,4,55.08,3.85,126-58,126-58,45.34-39.54,45.76-57.81,45-65-.39-3.63-1.98-18.6-13-24Z"/>
    <path class="cls-2" d="m488.27,137.41c-10.47,2.23-13.41,10.08-26,21-12.24,10.61-20.24,12.55-29,18-26.85,16.7-36.08,51.01-42,73-10.12,37.6-10.97,84.61-1,87,1.77.42,5.62-.35,36-59,28.49-55.02,43.07-89.04,64-98,1.77-.76,9.84-4.01,16-12,1.61-2.09,10.25-13.3,6-22-3.7-7.57-15.5-9.82-24-8Z"/>
    <circle class="cls-1" cx="674.84" cy="18.8" r="10.5"/>
    <circle cx="674.84" cy="18.8" r="5.5"/>
    <path class="cls-5" d="m656.63,16.14c.9,3.04,18.48-5.56,34.35,5.44,4.49,3.11,6.89,6.44,7.27,6,.8-.93-7.25-18.14-19.94-21.26-11.64-2.86-22.42,7.31-21.67,9.82Z"/>
  </g>
</svg>