<?xml version="1.0" encoding="UTF-8"?>
<svg id="Calque_2" data-name="Calque 2" xmlns="http://www.w3.org/2000/svg" viewBox="0 0 665.86 362.27">
  <defs>
    <style>
      .cls-1 {
        fill: #2b194d;
      }

      .cls-2 {
        fill: #fff;
      }

      .cls-3 {
        fill: #ede0d4;
      }

      .cls-4 {
        fill: #3b1a61;
      }

      .cls-5 {
        fill: #491867;
      }

      .cls-6 {
        fill: #a9215a;
      }

      .cls-7 {
        fill: #481964;
      }

      .cls-8 {
        fill: #ffd45f;
      }

      .cls-9 {
        fill: #f72585;
      }

      .cls-10 {
        fill: #841888;
      }

      .cls-11 {
        fill: #b01b68;
      }

      .cls-12 {
        fill: #3b1b60;
      }

      .cls-13 {
        fill: #3a1d63;
      }

      .cls-14 {
        fill: #e5383b;
      }

      .cls-15 {
        fill: #561884;
      }
    </style>
  </defs>
  <g id="Calque_1-2" data-name="Calque 1">
    <g id="queu">
      <path class="cls-15" d="m142.27,105.59c6.44-5.94,18.32-15.29,35.57-20.32,16.64-4.86,30.06-3.41,44.04-1.69,10.28,1.26,29.81,3.63,50.81,15.24,11.16,6.17,13.83,10.01,27.1,20.32,1.67,1.3,30.29,23.37,57.59,35.57,13.75,6.14,34.57,9.18,76.22,15.24,41.45,6.04,52.19,5.67,79.6,11.86,9.44,2.13,21.83,6.82,47.42,13.55,10.93,2.88,16.92,4.27,23.71,1.69,12.32-4.68,16.13-18.21,23.71-16.94,5.67.96,7.34,9.18,11.86,8.47,3.61-.57,3.29-5.94,8.47-8.47,4.13-2.02,10.27-1.51,13.55,1.69,4.03,3.94,1.4,9.7,5.08,11.86,3.21,1.88,6.24-1.89,10.16,0,3.4,1.64,5.13,6.43,5.08,10.16-.08,5.75-4.35,7.45-3.39,11.86.69,3.14,3.07,3.23,5.08,6.77,2.71,4.77,2.43,11.69,0,15.24-5.15,7.53-22.4,3.56-30.49,1.69-20.94-4.82-24.91-12.95-45.73-16.94-3.8-.73-4.33-.58-22.02-1.69-33.08-2.08-38.22-3.02-47.42-3.39-16.91-.68-34.99,2.93-71.14,10.16-35.94,7.19-38.76,9.65-64.36,13.55-13.26,2.02-30.73,4.62-52.5,5.08-28.1.59-51.94,1.09-79.6-8.47-34.04-11.77-54.08-31.94-74.52-52.5-19.86-19.98-39.69-40.52-37.26-66.05.54-5.74,2.09-10.4,3.38-13.54Z"/>
      <path class="cls-11" d="m329.42,158.94c17.44,1.95,17.41,18.61,38.96,30.49,9.75,5.38,15.53,5.15,77.91,5.08,42.95-.04,48.68.06,59.28,1.69,16.86,2.6,15.42,4.35,49.12,11.86,44.14,9.82,54.18,8.5,60.97,6.77,13.72-3.48,19.72-10,32.18-11.86,1.99-.3,8.46-1.12,10.16-5.08.41-.96.75-2.58,0-3.39-.57-.62-1.53-.5-6.77,0-1.77.17-2.67.25-3.39,0-1.89-.65-2.87-2.43-3.39-3.39-1.56-2.9-.56-4.13-1.69-6.77-.21-.49-1.75-3.95-5.08-5.08-4.81-1.64-9.58,2.84-10.16,3.39-1.61,1.51-1.25,3.29-3.39,5.08-.74.62-1.8,1.49-3.39,1.69-2.48.31-4.49-1.24-5.08-1.69-.53-.41-.72-.66-1.69-1.69-2.02-2.14-3.08-3.16-3.39-3.39-.85-.63-3.13-2.34-5.08-1.69-1.47.49-1.21,1.8-3.39,3.39-1.59,1.16-2.03.68-3.39,1.69-2.03,1.51-1.49,2.9-3.39,5.08-.96,1.1-1.35,1.04-5.08,3.39-3.68,2.32-3.72,2.65-5.08,3.39-2.38,1.3-5.21,1.91-10.16,1.69-7.39-.32-13.18-2.21-16.94-3.39,0,0-11.08-3.47-25.41-6.77-7.83-1.81-13.43-2.6-18.63-3.39-40.62-6.12-47.6-10.18-71.14-11.86-34.72-2.47-32.15,5.46-49.12,0-18.64-6-26.77-17.2-49.12-18.63-9.32-.6-9.71,1.23-18.63,0-21.91-3.03-29.62-15.47-37.26-11.86-8.66,4.1-10.7,25.74-3.39,30.49,8.7,5.64,22.77-17.61,44.05-15.24Z"/>
    </g>
    <path class="cls-5" d="m121.95,171.65c-3.63.18-5.58.27-6.77,1.69-2.59,3.07.62,9.65,1.69,11.86,2.44,5.01,4.17,4.64,6.77,10.16,1.85,3.91,1.56,5.34,3.39,6.77,2.77,2.18,7.89,2.37,10.16,0,1.95-2.03.35-4.43-1.69-16.94-1.3-7.93-1.17-10.09-3.39-11.86-2.59-2.06-6.25-1.88-10.16-1.68Z"/>
    <path id="main-droite" class="cls-1" d="m130.41,205.52c-1.27,2.52-3.53,3.57-6.77,5.08-3.17,1.48-4.86,2.26-6.77,1.69-2.46-.73-2.58-2.86-5.08-3.39-1.86-.39-4.48.24-5.08,1.69-1.19,2.89,6.34,7.09,5.08,10.16-.51,1.24-2.22,1.78-3.39,1.69-2.63-.19-4.8-3.73-5.08-6.77-.24-2.58.96-4.12,0-5.08-.76-.77-2.54-.83-3.39,0-1.87,1.84,1.63,7.31,0,8.47-.27.19-.75.13-1.69,0-2.12-.3-4.16-.58-5.08-1.69-1.54-1.85.3-5.61,1.69-8.47,1.56-3.2,3.14-6.44,6.77-8.47,2.97-1.66,5.82-1.68,8.47-1.69,6.17-.03,6.96,2.18,11.86,1.69,4.85-.48,6.89-2.93,8.47-1.69,1.52,1.2,1.08,4.61,0,6.78Z"/>
    <path id="Cuisse-droit" class="cls-5" d="m196.47,149.63c-8.24,8.03-4.42,17.47-6.77,45.73-2.18,26.05-6.15,26.7-3.39,37.26,2.98,11.39,7.37,9.72,22.02,33.87,9.16,15.1,10.51,20.82,18.63,25.41,6.1,3.44,16.79,6.69,23.71,1.69,5.36-3.86,6.09-10.93,6.77-18.63,1.24-13.92-2.65-18.77-5.08-37.26-1.54-11.73.03-9.72-1.69-28.79-1.32-14.63-2.05-22.21-5.08-32.18-2.91-9.58-5.63-18.13-13.55-25.41-3.08-2.83-8.61-7.9-16.94-8.47-6.82-.46-13.94,2.21-18.63,6.78Z"/>
    <g id="machoire-inf">
      <path class="cls-3" d="m7.07,84.64l-.71,8.31c-.03.32.25.58.57.53l3.98-.63c.32-.05.51-.39.38-.69l-3.26-7.67c-.21-.47-.91-.36-.96.15Z"/>
      <path class="cls-3" d="m12.15,84.64l-.71,8.31c-.03.32.25.58.57.53l3.98-.63c.32-.05.51-.39.38-.69l-3.26-7.67c-.21-.47-.91-.36-.96.15Z"/>
      <path class="cls-3" d="m17.23,82.95l-.71,8.31c-.03.32.25.58.57.53l3.98-.63c.32-.05.51-.39.38-.69l-3.26-7.67c-.21-.48-.91-.37-.96.15Z"/>
      <path class="cls-3" d="m23.12,82.49l-2.01,8.09c-.08.31.16.62.48.62h4.03c.32,0,.56-.3.48-.62l-2.01-8.09c-.13-.5-.84-.5-.97,0Z"/>
      <path class="cls-3" d="m28.2,81.12l-2.01,8.09c-.08.31.16.62.48.62h4.03c.32,0,.56-.3.48-.62l-2.01-8.09c-.13-.51-.84-.51-.97,0Z"/>
      <path class="cls-3" d="m33.28,80.8l-2.01,8.09c-.08.31.16.62.48.62h4.03c.32,0,.56-.3.48-.62l-2.01-8.09c-.13-.51-.84-.51-.97,0Z"/>
      <path class="cls-3" d="m38.36,80.8l-2.01,8.09c-.08.31.16.62.48.62h4.03c.32,0,.56-.3.48-.62l-2.01-8.09c-.13-.51-.84-.51-.97,0Z"/>
      <path class="cls-15" d="m96.54,75.11c-3.84-3.78-11.06-.05-30.49,5.08,0,0-15,3.96-30.49,6.77-21.32,3.87-32.71,3.54-33.87,8.47-.69,2.91,2.58,6.01,3.39,6.77,4,3.79,9.65,3.86,16.94,3.39,12.34-.8,21.8-2.66,25.41-3.39,19.16-3.85,15.11-4.17,28.79-6.77,12.54-2.39,17.39-2.4,20.32-6.77,2.66-3.97,3.08-10.53,0-13.55Z"/>
    </g>
    <circle class="cls-4" cx="77.06" cy="31.92" r="11.86"/>
    <path class="cls-4" d="m87.23,33.61c-1.07.67-2.8-2.42-8.47-5.08-6.08-2.86-9.96-2.06-10.16-3.39-.29-1.93,7.38-7.1,13.29-4.37,5.88,2.72,6.97,11.82,5.34,12.84Z"/>
    <g id="corps">
      <path class="cls-12" d="m84.69,90.35c5.63-4.14,15.45-10.04,28.79-11.86,6.75-.92,24.21-3.3,35.57,6.77,6.9,6.12,4.97,11.01,11.86,16.94,9.51,8.18,22.69,7.03,28.79,6.77,16.22-.69,33.96,5.19,69.44,16.94,0,0,47.15,15.61,76.22,47.42,4.59,5.02,9.55,11.58,10.16,20.32.69,9.75-4.32,17.99-6.77,22.02-3.06,5.04-6.58,8.85-11.86,13.55-9.11,8.1-18.78,16.7-32.18,22.02-12.97,5.14-24.63,4.63-47.42,3.39-23.16-1.26-34.73-1.89-49.12-6.77-25.71-8.73-42.02-24.09-54.2-35.57-15.11-14.24-24.34-27.6-32.18-38.95-6.84-9.9-13.03-20.19-18.63-32.18-9.26-19.83-10.28-30.17-10.16-37.26.09-5.7.94-10.39,1.69-13.55Z"/>
      <path class="cls-5" d="m149.05,183.5c-3.63.18-5.58.27-6.77,1.69-2.59,3.07.62,9.65,1.69,11.86,2.44,5.01,4.17,4.64,6.77,10.16,1.85,3.91,1.56,5.34,3.39,6.77,2.77,2.18,7.89,2.37,10.16,0,1.95-2.03.35-4.43-1.69-16.94-1.3-7.93-1.17-10.09-3.39-11.86-2.6-2.05-6.25-1.87-10.16-1.68Z"/>
      <path class="cls-15" d="m117.86,74.45l-10.79,3.17c-1.01.3-1.91.88-2.6,1.67l-7.36,8.5c-.69.79-1.13,1.77-1.28,2.81l-1.6,11.13c-.15,1.04,0,2.1.44,3.06l4.67,10.23c.44.96,1.14,1.77,2.02,2.33l9.46,6.08c.88.57,1.91.87,2.96.87h11.24c1.05,0,2.08-.3,2.96-.87l9.46-6.08c.88-.57,1.59-1.38,2.02-2.33l4.67-10.23c.44-.96.59-2.02.44-3.06l-1.6-11.13c-.15-1.04-.59-2.01-1.28-2.81l-7.36-8.5c-.69-.79-1.59-1.37-2.6-1.67l-10.79-3.17c-1-.3-2.07-.3-3.08,0Z"/>
      <path class="cls-10" d="m94.15,91.39l-10.79,3.17c-1.01.3-1.91.88-2.6,1.67l-7.36,8.5c-.69.79-1.13,1.77-1.28,2.81l-1.6,11.13c-.15,1.04,0,2.1.44,3.06l4.67,10.23c.44.96,1.14,1.77,2.02,2.33l9.46,6.08c.88.57,1.91.87,2.96.87h11.24c1.05,0,2.08-.3,2.96-.87l9.46-6.08c.88-.57,1.59-1.38,2.02-2.33l4.67-10.23c.44-.96.59-2.02.44-3.06l-1.6-11.13c-.15-1.04-.59-2.01-1.28-2.81l-7.36-8.5c-.69-.79-1.59-1.37-2.6-1.67l-10.79-3.17c-1-.3-2.07-.3-3.08,0Z"/>
      <path class="cls-15" d="m224.41,148.78c-7.56-4.69-19.94,5.39-23.71,8.47-5.09,4.14-13.7,11.16-11.86,18.63,1.71,6.9,11.43,10.4,18.63,10.16,11.97-.4,18.24-11.16,18.63-11.86,4.74-8.43,4.78-21.39-1.69-25.4Z"/>
      <path class="cls-15" d="m171.47,133.82c-3.18-1.97-8.39,2.27-9.98,3.56-2.14,1.74-5.77,4.7-4.99,7.84.72,2.9,4.81,4.38,7.84,4.28,5.04-.17,7.68-4.7,7.84-4.99,1.99-3.56,2.01-9.01-.71-10.69Z"/>
      <path class="cls-15" d="m208.73,215.11c-3.18-1.97-8.39,2.27-9.98,3.56-2.14,1.74-5.77,4.7-4.99,7.84.72,2.9,4.81,4.38,7.84,4.28,5.04-.17,7.68-4.7,7.84-4.99,1.99-3.55,2.01-9-.71-10.69Z"/>
    </g>
    <g id="patte-gauche">
      <path class="cls-7" d="m301.08,346.02c-1.75,1.54-.71,5.62.92,6.26.61.24.91-.15,2.24-.01.3.03,1.49.18,2.69.88,1.8,1.06,1.51,2.91,2.7,3.12.69.12,1.45-.36,1.78-.9.18-.29.38-.83-.01-2.24-.5-1.8-1.41-3.05-1.81-3.57-1.19-1.54-2.2-2.86-4.04-3.56-.68-.25-3.1-1.18-4.47.02Z"/>
      <path class="cls-1" d="m311.64,281.74c-3.03-.03-6.38-.02-10.16,1.69-.82.37-2.68,1.29-5.08,3.39-4.76,4.15-7.09,8.94-8.47,11.86-4.35,9.16-7.65,16.75-8.47,18.63-6.13,14.04-7.69,16.32-10.16,18.63-4.85,4.52-10.16,6.77-10.16,6.77-6.34,2.69-10.56,2.05-11.86,5.08-.91,2.12.02,5.12,1.69,6.77,1.18,1.16,2.58,1.51,3.39,1.69,7.24,1.67,13.55,1.69,13.55,1.69,11.21.04,12.61-.78,13.55-1.69,2.19-2.13,2.3-5.15,3.39-5.08,1.3.08.71,4.44,3.39,6.77,3.12,2.73,9.75,1.9,13.55-1.69.54-.51,3.16-3.1,3.39-6.77.17-2.84-1.22-3.97-1.69-8.47,0,0-.24-2.25,0-5.08.44-5.27,2.69-9.66,5.08-13.55,1.76-2.86,4.84-7.46,11.86-15.24,7.65-8.49,10.16-9.87,10.16-13.55.01-4.41-3.59-8.33-6.77-10.16-2.84-1.62-5.42-1.65-10.18-1.69Z"/>
      <path class="cls-7" d="m252.96,347.17c1.85,1.41,1.1,5.55-.48,6.31-.59.28-.92-.08-2.23.15-.3.05-1.47.28-2.62,1.07-1.72,1.18-1.3,3.01-2.47,3.3-.68.17-1.47-.25-1.84-.77-.2-.28-.44-.8-.15-2.23.37-1.83,1.19-3.15,1.55-3.69,1.07-1.62,1.99-3,3.78-3.84.65-.31,3.01-1.4,4.46-.3Z"/>
      <path class="cls-7" d="m267.62,350.92c1.94,1.29,1.44,5.47-.09,6.32-.57.32-.92-.03-2.22.29-.29.07-1.45.37-2.55,1.23-1.64,1.29-1.11,3.08-2.26,3.45-.67.21-1.48-.16-1.89-.66-.22-.27-.49-.77-.29-2.22.26-1.85.99-3.21,1.32-3.78.97-1.68,1.8-3.12,3.53-4.06.65-.34,2.93-1.58,4.45-.57Z"/>
    </g>
    <path id="Cuisse-gauche" class="cls-5" d="m269.3,153.02c-8.24,8.03-4.42,17.47-6.77,45.73-2.18,26.05-6.15,26.7-3.39,37.26,2.98,11.39,7.37,9.72,22.02,33.87,9.16,15.1,10.51,20.82,18.63,25.41,6.1,3.44,16.79,6.69,23.71,1.69,5.36-3.86,6.09-10.93,6.77-18.63,1.24-13.92-2.65-18.77-5.08-37.26-1.54-11.73.03-9.72-1.69-28.79-1.32-14.63-2.05-22.21-5.08-32.18-2.91-9.58-5.63-18.13-13.55-25.41-3.08-2.83-8.61-7.9-16.94-8.47-6.82-.46-13.94,2.2-18.63,6.78Z"/>
    <path id="main-gauche" class="cls-1" d="m157.51,217.38c-1.27,2.52-3.53,3.57-6.77,5.08-3.17,1.48-4.86,2.26-6.77,1.69-2.46-.73-2.58-2.86-5.08-3.39-1.86-.39-4.48.24-5.08,1.69-1.19,2.89,6.34,7.09,5.08,10.16-.51,1.24-2.22,1.78-3.39,1.69-2.63-.19-4.8-3.73-5.08-6.77-.24-2.58.96-4.12,0-5.08-.76-.77-2.54-.83-3.39,0-1.87,1.84,1.63,7.31,0,8.47-.27.19-.75.13-1.69,0-2.12-.3-4.16-.58-5.08-1.69-1.54-1.85.3-5.61,1.69-8.47,1.56-3.2,3.14-6.44,6.77-8.47,2.97-1.66,5.82-1.68,8.47-1.69,6.17-.03,6.96,2.18,11.86,1.69,4.85-.48,6.89-2.93,8.47-1.69,1.52,1.19,1.08,4.61,0,6.78Z"/>
    <g id="machoire-sup">
      <path class="cls-14" d="m5.93,82.73c.11-1.02.85-2.5,6.77-5.08,4.03-1.76,6.36-2.77,10.16-3.39,8.98-1.45,10.86,1.81,16.94,0,5.26-1.57,5.49-4.5,10.16-6.77,6.29-3.06,17.48-4.41,22.02,1.69,2.79,3.75,3.16,10.44,0,13.55-3.99,3.93-10.21-1.21-25.41,0-3.56.28-6.16.8-10.16,0-3.83-.77-5.06-1.96-8.47-1.69-1.66.13-3.37.65-6.77,1.69-1.52.46-1.89.62-5.08,1.69-6.24,2.09-7.39,2.35-8.47,1.69-1.1-.67-1.83-2.12-1.69-3.38Z"/>
      <path class="cls-3" d="m11.28,50.34l5.79-6c.22-.23.17-.61-.11-.78l-3.49-2.01c-.28-.16-.64-.02-.73.29l-2.3,8.01c-.14.5.48.86.84.49Z"/>
      <path class="cls-3" d="m15.99,53.53l6.25-5.51c.24-.21.22-.6-.05-.78l-3.31-2.29c-.27-.18-.63-.07-.75.23l-2.94,7.8c-.18.49.41.89.8.55Z"/>
      <path class="cls-3" d="m20.81,56.77l6.56-5.14c.25-.2.25-.58,0-.78l-3.18-2.48c-.25-.2-.63-.11-.76.19l-3.39,7.62c-.2.47.36.91.77.59Z"/>
      <path class="cls-3" d="m27.84,60.31l6.25-5.51c.24-.21.22-.6-.05-.78l-3.31-2.29c-.27-.18-.63-.07-.75.23l-2.94,7.8c-.17.48.41.89.8.55Z"/>
      <path class="cls-3" d="m34.62,63.69l6.25-5.51c.24-.21.22-.6-.05-.78l-3.31-2.29c-.27-.18-.63-.07-.75.23l-2.94,7.8c-.18.49.41.9.8.55Z"/>
      <path class="cls-3" d="m41.39,67.08l6.25-5.51c.24-.21.22-.6-.05-.78l-3.31-2.29c-.27-.18-.63-.07-.75.23l-2.94,7.8c-.17.49.41.89.8.55Z"/>
      <path class="cls-6" d="m11.86,37.84c-3.26-.9-5.95-.93-8.47-3.39C0,31.13,0,26.4,0,25.98c.04-2.29,1.15-4.38,3.39-8.47,2.21-4.05,4.5-7.33,6.77-10.16C13.39,3.33,15,1.31,16.93.58c3.78-1.44,7.63.06,11.86,1.69,5.08,1.97,5.04,3.26,10.16,5.08,3.23,1.15,6.35,2.26,10.16,1.69,4.48-.66,4.96-2.91,8.47-3.39,2.91-.4,5.42.76,13.55,6.77,8.49,6.27,9.27,7.6,15.24,11.86,6.8,4.84,10.19,7.25,13.55,8.47,5.57,2.02,10.88,2.36,13.55,6.77,1.03,1.71.59,2.23,1.69,3.39,3.28,3.43,8.52.22,11.86,3.39,1.78,1.69,2.55,4.75,1.69,6.77-.86,2.03-2.93,2.03-5.08,5.08-.88,1.25-1.3,2.34-1.69,3.39-5.12,13.63-5.72,17.42-8.47,20.32-5.19,5.5-15.17,4.76-20.32,3.39-5.63-1.5-5.58-3.79-16.94-10.16-6.05-3.4-6.06-2.74-13.55-6.77-7.62-4.1-8.02-5-16.94-10.16-12.83-7.43-12.1-5.63-18.63-10.16-8.33-5.78-9.18-8.48-15.23-10.16Z"/>
      <ellipse class="cls-9" cx="63.51" cy="75.95" rx="10.16" ry="15.24"/>
      <path class="cls-15" d="m6.78,29.38c.27-2.22.54-4.34,1.69-6.77,1.4-2.97,2.31-2.59,3.39-5.08,1.66-3.83-.03-5.76,1.69-8.47,1.28-2.01,3.37-2.77,5.08-3.39,3.39-1.23,6.78-1.11,11.86,0,6.54,1.43,8.96,2.99,15.24,5.08,4.06,1.35,7.23,2.03,13.55,3.39,19.14,4.11,20.49,1.67,25.41,5.08,2.93,2.03,1.91,2.52,11.86,16.94,5.22,7.56,7.83,11.34,10.16,13.55,4.84,4.58,10.72,8.12,16.94,11.86,6.43,3.86,9.54,5.18,10.16,8.47.58,3.07-1.25,6.48-3.39,8.47-4.06,3.78-9.09,2.23-10.16,5.08-.83,2.2,2.05,3.46,1.69,6.77-.29,2.77-2.42,3.11-6.77,8.47-2.95,3.63-2.58,4.22-5.08,6.77-1.88,1.92-3.79,3.87-6.77,5.08-4.73,1.91-9.49.88-13.55,0-3.28-.71-3.64-1.27-6.77-1.69-3.43-.47-4.48,0-8.47,0-4.83,0-11.95-.01-13.55-3.39-.52-1.09-.32-2.24,0-3.39,2.86-10.3,13.57-13.24,13.55-20.32-.01-3.55-2.7-6.89-5.08-8.47-1.85-1.23-3.47-1.37-5.08-1.69-4.02-.8-5.62-2.24-15.24-8.47-7.39-4.78-11.09-7.18-13.55-8.47-6.22-3.27-6.98-2.71-15.24-6.77-11.34-5.57-12.93-8.1-13.55-10.16-.75-2.44-.42-5.17-.02-8.48Z"/>
      <ellipse class="cls-13" cx="15.26" cy="14.14" rx="2.27" ry="4.09" transform="translate(-3.98 22.03) rotate(-65.1)"/>
      <circle class="cls-4" cx="43.19" cy="33.61" r="11.86"/>
      <circle class="cls-4" cx="38.11" cy="21.75" r="8.47"/>
      <path class="cls-10" d="m55.74,23.08c.46-2.58,3.29-3.84,6.69-5.35,3.52-1.57,7.8-3.47,13.38-2.68,5.94.85,11.03,4.42,10.71,5.35-.17.51-1.86.08-5.35,0-2.96-.06-7.91-.17-12.04,1.34-6.49,2.36-7.86,7.55-10.71,6.69-1.85-.56-3.05-3.28-2.68-5.35Z"/>
    </g>
    <g id="oeil">
      <circle class="cls-8" cx="77.06" cy="31.92" r="8.47" transform="translate(33.21 102.87) rotate(-80.78)"/>
      <circle cx="77.06" cy="31.92" r="6.77" transform="translate(18.08 90.9) rotate(-67.5)"/>
      <circle class="cls-2" cx="80.45" cy="31.92" r="3.39" transform="translate(20.17 94.03) rotate(-67.5)"/>
    </g>
    <g id="patte-droite">
      <path class="cls-7" d="m227.08,344.02c-1.75,1.54-.71,5.62.92,6.26.61.24.91-.15,2.24-.01.3.03,1.49.18,2.69.88,1.8,1.06,1.51,2.91,2.7,3.12.69.12,1.45-.36,1.78-.9.18-.29.38-.83-.01-2.24-.5-1.8-1.41-3.05-1.81-3.57-1.19-1.54-2.2-2.86-4.04-3.56-.68-.25-3.1-1.18-4.47.02Z"/>
      <path class="cls-1" d="m238.81,278.35c-3.03-.03-6.38-.02-10.16,1.69-.82.37-2.68,1.29-5.08,3.39-4.76,4.15-7.09,8.94-8.47,11.86-4.35,9.16-7.65,16.75-8.47,18.63-6.13,14.04-7.69,16.32-10.16,18.63-4.85,4.52-10.16,6.77-10.16,6.77-6.34,2.69-10.56,2.05-11.86,5.08-.91,2.12.02,5.12,1.69,6.77,1.18,1.16,2.58,1.51,3.39,1.69,7.24,1.67,13.55,1.69,13.55,1.69,11.21.04,12.61-.78,13.55-1.69,2.19-2.13,2.3-5.15,3.39-5.08,1.3.08.71,4.44,3.39,6.77,3.12,2.73,9.75,1.9,13.55-1.69.54-.51,3.16-3.1,3.39-6.77.17-2.84-1.22-3.97-1.69-8.47,0,0-.24-2.25,0-5.08.44-5.27,2.69-9.66,5.08-13.55,1.76-2.86,4.84-7.46,11.86-15.24,7.65-8.49,10.16-9.87,10.16-13.55.01-4.41-3.59-8.33-6.77-10.16-2.84-1.62-5.42-1.65-10.18-1.69Z"/>
      <path class="cls-7" d="m178.96,343.17c1.85,1.41,1.1,5.55-.48,6.31-.59.28-.92-.08-2.23.15-.3.05-1.47.28-2.62,1.07-1.72,1.18-1.3,3.01-2.47,3.3-.68.17-1.47-.25-1.84-.77-.2-.28-.44-.8-.15-2.23.37-1.83,1.19-3.15,1.55-3.69,1.07-1.62,1.99-3,3.78-3.84.65-.31,3.01-1.4,4.46-.3Z"/>
      <path class="cls-7" d="m196.62,346.92c1.94,1.29,1.44,5.47-.09,6.32-.57.32-.92-.03-2.22.29-.29.07-1.45.37-2.55,1.23-1.64,1.29-1.11,3.08-2.26,3.45-.67.21-1.48-.16-1.89-.66-.22-.27-.49-.77-.29-2.22.26-1.85.99-3.21,1.32-3.78.97-1.68,1.8-3.12,3.53-4.06.65-.34,2.93-1.58,4.45-.57Z"/>
    </g>
  </g>
</svg>