<?xml version="1.0" encoding="UTF-8"?>
<svg id="Calque_2" data-name="Calque 2" xmlns="http://www.w3.org/2000/svg" viewBox="0 0 853.29 382.44">
  <defs>
    <style>
      .cls-1 {
        fill: #fff;
      }

      .cls-2 {
        fill: #450c4a;
      }

      .cls-3 {
        fill: #9c364a;
      }

      .cls-4 {
        fill: #dabfff;
      }

      .cls-5 {
        fill: #7fdeff;
      }

      .cls-6 {
        fill: #4f518c;
      }

      .cls-7 {
        fill: #7fb6ff;
      }

      .cls-8 {
        fill: #ac7ad6;
      }

      .cls-9 {
        fill: #2c2a4a;
      }

      .cls-10 {
        fill: #45434a;
      }

      .cls-11 {
        fill: #452a4a;
      }
    </style>
  </defs>
  <g id="Calque_1-2" data-name="Calque 1">
    <g id="corps">
      <path class="cls-9" d="m101.51,133.27c1.94.4,5.86,1.24,10,4,8.92,5.95,10.7,15.37,15,27,7.52,20.33,11.72,17.56,15,30,4.81,18.24,1.6,46.26-15,54-10.6,4.94-26.58,1.58-32-7-1.77-2.8-2.18-5.87-3-12-.28-2.13-.71-6.14,0-19,.54-9.66,1-11.34,1-18,0-11.09-1.27-13.73-2-15-2.89-5.03-6.5-4.75-11-9-6.22-5.87-11.16-17.6-7-26,4.89-9.86,20.18-10.81,29-9Z"/>
      <g id="corps-2" data-name="corps">
        <path class="cls-5" d="m732.68,273.2c16.12,2.04,28.98-5.33,57.04-24.49,43.35-29.6,65.02-44.39,63.49-47.85-5.94-13.39-152.6,25.96-150.66,53.97.65,9.33,17.76,16.8,30.13,18.37Z"/>
        <path class="cls-9" d="m146.55,191.28c-5.06-2.39-14.95-6.89-26-4-10.5,2.74-19.68,11.54-23,22-3.89,12.26,1.27,23.61,6,34,2.59,5.69,5.64,10.38,8,14,0,0,6.2,9.52,13,17,7.72,8.49,17.57,15.31,37,25,24.92,12.43,44.99,19.32,47,20,39.94,13.54,59.65,21.06,80,19,4.86-.49,16.19-2.07,32-1,10.07.68,17.43,2.13,22,3,18.25,3.49,36.71,5.75,55,9,47.61,8.47,95.53-1.5,113-5,17.98-3.61,32.99-8.41,63-18,33.51-10.71,48.07-17.23,56-21,23.77-11.28,48.23-26.41,47-29-.94-1.98-16.65,3.72-42,13-43.25,15.82-50.59,20.81-83,32-34.48,11.9-51.02,14.84-66,16-11.35.88-20.94.68-32,0-41.19-2.52-71.87-3.13-108-17-24.23-9.3-41.35-20.57-51-27-19.69-13.12-21.49-17.85-49-41,0,0-38.71-32.57-99-61Z"/>
        <path class="cls-6" d="m552.51,326.27c1.11,2.56,6.31,1.07,25,1,22.18-.08,25.35,1.99,37,0,9.51-1.63,15.99-4.48,24-8,9.36-4.11,29.3-13.13,47-33,8.1-9.1,19.57-21.97,16-28-1.81-3.06-6.66-2.95-54,6-22.44,4.24-32.47,6.32-44,14-4.42,2.94-4.23,3.5-17,15-25.63,23.1-35.63,29.23-34,33Z"/>
        <path class="cls-7" d="m592.86,294.89c.6-4.15,3.31-6.84,10.01-12.51,10.34-8.75,15.5-13.13,16.26-12.51,2.92,2.4-16.93,36.17-23.76,33.77-2.28-.8-2.96-5.57-2.5-8.75Z"/>
        <path class="cls-7" d="m581.08,298.37c.63-4.39,3.51-7.25,10.59-13.24,10.94-9.27,16.42-13.9,17.22-13.24,3.09,2.54-17.93,38.3-25.16,35.76-2.41-.85-3.14-5.9-2.65-9.27Z"/>
        <path class="cls-7" d="m604.64,290.42c.56-3.9,3.12-6.44,9.42-11.77,9.73-8.23,14.59-12.35,15.3-11.77,2.75,2.25-15.93,34.04-22.36,31.78-2.14-.75-2.79-5.24-2.35-8.24Z"/>
        <path class="cls-7" d="m618.16,283.94c.68-4.68,3.74-7.72,11.29-14.12,11.67-9.88,17.5-14.81,18.35-14.12,3.3,2.7-19.11,40.83-26.82,38.11-2.57-.9-3.34-6.29-2.82-9.88Z"/>
        <path class="cls-7" d="m627.17,279.54c.72-4.99,3.99-8.24,12.04-15.05,12.44-10.53,18.66-15.8,19.57-15.05,3.52,2.88-20.38,43.54-28.6,40.64-2.74-.96-3.56-6.7-3.01-10.54Z"/>
        <path class="cls-7" d="m637.3,275.07c.76-5.27,4.21-8.68,12.7-15.87,13.12-11.11,19.68-16.66,20.64-15.87,3.71,3.04-21.49,45.91-30.16,42.86-2.89-1.02-3.76-7.07-3.17-11.11Z"/>
        <path class="cls-7" d="m648.32,269.29c.85-5.89,4.7-9.71,14.2-17.75,14.67-12.42,22-18.63,23.07-17.75,4.15,3.4-24.02,51.33-33.72,47.92-3.23-1.14-4.2-7.9-3.55-12.42Z"/>
        <path class="cls-7" d="m661.04,263.69c.95-6.61,5.28-10.89,15.93-19.91,16.46-13.93,24.68-20.9,25.89-19.91,4.65,3.81-26.96,57.59-37.83,53.76-3.63-1.28-4.71-8.87-3.98-13.94Z"/>
        <path class="cls-7" d="m670.38,259.32c1.07-7.44,5.95-12.27,17.95-22.43,18.54-15.7,27.81-23.54,29.16-22.43,5.24,4.3-30.37,64.88-42.62,60.57-4.08-1.44-5.31-9.99-4.49-15.7Z"/>
        <path class="cls-7" d="m678.3,251.27c5.08-10.12,14.34-14.71,36.32-23.51,33.96-13.6,50.94-20.4,52.35-18.17,5.44,8.64-74.27,78.25-89.73,66.25-5.15-4-2.83-16.8,1.06-24.57Z"/>
        <path class="cls-7" d="m568.51,307.27c.48-3.32,2.65-5.47,8-10,8.26-7,12.4-10.49,13-10,2.34,1.92-13.54,28.92-19,27-1.82-.64-2.37-4.45-2-7Z"/>
        <path class="cls-7" d="m562.51,308.27c.48-3.32,2.65-5.47,8-10,8.26-7,12.4-10.49,13-10,2.34,1.92-13.54,28.92-19,27-1.82-.64-2.37-4.45-2-7Z"/>
        <path class="cls-5" d="m619.92,315.89c3.45,2.38,7.28,2.21,15.98,1.13,13.44-1.66,20.16-2.49,20.22-3.46.22-3.77-38.06-12.1-40.93-5.45-.96,2.22,2.08,5.95,4.73,7.78Z"/>
        <path class="cls-5" d="m609.37,322.19c3.66,2.51,7.7,2.34,16.92,1.2,14.23-1.75,21.35-2.63,21.41-3.66.23-3.99-40.3-12.81-43.34-5.77-1.01,2.35,2.21,6.3,5.01,8.24Z"/>
        <path class="cls-5" d="m631.2,310.28c3.25,2.24,6.85,2.08,15.03,1.07,12.65-1.56,18.97-2.34,19.03-3.26.21-3.55-35.82-11.39-38.52-5.13-.9,2.09,1.96,5.6,4.46,7.32Z"/>
        <path class="cls-5" d="m645.13,304.74c3.9,2.68,8.21,2.49,18.03,1.28,15.17-1.87,22.76-2.81,22.82-3.91.25-4.26-42.96-13.66-46.2-6.15-1.08,2.5,2.35,6.72,5.34,8.78Z"/>
        <path class="cls-5" d="m654.47,301.1c4.16,2.86,8.76,2.66,19.23,1.36,16.18-1.99,24.27-2.99,24.34-4.16.27-4.54-45.81-14.57-49.26-6.56-1.15,2.67,2.51,7.17,5.7,9.36Z"/>
        <path class="cls-5" d="m664.63,296.69c4.38,3.01,9.23,2.8,20.28,1.44,17.06-2.1,25.59-3.15,25.66-4.39.28-4.79-48.31-15.36-51.95-6.92-1.21,2.81,2.64,7.56,6.01,9.87Z"/>
        <path class="cls-5" d="m676.36,292.52c4.9,3.37,10.32,3.13,22.67,1.61,19.07-2.35,28.61-3.53,28.69-4.91.31-5.35-54.01-17.17-58.08-7.73-1.36,3.15,2.96,8.45,6.72,11.04Z"/>
        <path class="cls-5" d="m689.09,286.98c5.5,3.78,11.58,3.51,25.44,1.81,21.4-2.64,32.1-3.96,32.19-5.51.35-6.01-60.6-19.27-65.17-8.68-1.52,3.53,3.32,9.48,7.54,12.38Z"/>
        <path class="cls-5" d="m698.64,283.08c6.2,4.26,13.05,3.96,28.66,2.03,24.11-2.97,36.16-4.46,36.27-6.21.4-6.77-68.27-21.71-73.42-9.78-1.72,3.98,3.74,10.68,8.49,13.95Z"/>
        <path class="cls-5" d="m709.93,282.72c10.88,3.14,20.53-.56,41.91-10.74,33.03-15.72,49.55-23.59,48.86-26.13-2.65-9.86-107.88,1.48-109.55,20.98-.56,6.5,10.42,13.48,18.78,15.89Z"/>
        <path class="cls-5" d="m594.3,325.39c2.76,1.9,5.82,1.76,12.77.91,10.75-1.33,16.12-1.99,16.17-2.77.18-3.02-30.43-9.68-32.73-4.36-.76,1.77,1.67,4.76,3.79,6.22Z"/>
        <path class="cls-5" d="m589.5,329.12c2.76,1.9,5.82,1.76,12.77.91,10.75-1.33,16.12-1.99,16.17-2.77.18-3.02-30.43-9.68-32.73-4.36-.76,1.77,1.67,4.76,3.79,6.22Z"/>
        <path class="cls-5" d="m584.64,331.43c2.76,1.9,5.82,1.76,12.77.91,10.75-1.33,16.12-1.99,16.17-2.77.18-3.02-30.43-9.68-32.73-4.36-.76,1.77,1.67,4.76,3.79,6.22Z"/>
      </g>
    </g>
    <g id="patte-arriere">
      <path class="cls-6" d="m307.51,338.27c-.61,3.8,12.64,8.44,38,18,50.72,19.11,54.66,22,70,24,18.79,2.45,35.03,4.57,52-4,21.56-10.89,40.85-37.27,34-57-4.07-11.72-15.91-16.87-30-23-24.65-10.72-69.56-20.28-94,2-10.17,9.27-6.55,14.71-18,24-22.04,17.87-51.11,10.41-52,16Z"/>
      <path class="cls-4" d="m269.51,312.27c-1.82-1.8-4.73-4.75-5-9-.03-.42-.25-5.09,3-8,2.51-2.24,5.86-2.35,10-2,11.03.93,19.62,4.43,21,5,15.2,6.32,27,13,27,13,4.33,2.45,9.44,5.52,17,7,6.74,1.32,9.96.3,12-1,2.7-1.72,3.67-4.18,5-7,0,0,4.04-8.55,13-20,4.29-5.48,9.52-12.17,14-11,2.29.6,3.51,3.02,4,4,2.81,5.62-1.25,11.9-2,13-1.86,2.74-3.69,3.62-7,6-2.4,1.72-8.67,6.24-13,12-4,5.32-4.81,9.68-11,18-.75,1.01-2,2.64-4,3-3.26.58-5.78-2.71-9-5-5.04-3.58-9.96-3.37-16-4-19.41-2.01-43.71-11.91-44-11-.17.54,8.78,2.85,20,9,12.56,6.88,17.86,9.42,21,15,1.96,3.49,3.99,9.21,2,11-1.3,1.18-4.16.52-16-6-10.75-5.92-16.12-8.88-23-14-3.08-2.29-8.39-7.53-19-18Z"/>
      <path class="cls-11" d="m378.51,290.27c7.66-3.38,19.79,1.32,25,10,7.8,13-3.51,28.97-5,31-7.95,10.88-19.86,13.76-25,15-8.41,2.03-15.39,1.05-29-1-23.72-3.57-35.71-5.55-42-15-4.7-7.05-5.68-17.23-2-20,2.87-2.16,7.26,1.14,22,7,14.06,5.59,21.19,8.36,26,7,7.05-1.99,11.61-8.68,20-21,5.85-8.58,6.11-11.29,10-13Z"/>
      <path class="cls-5" d="m422.51,314.27c.22-1.07,10.77,1.18,29,2,17.53.79,33,0,33,0,15.57-.8,24.2-2.43,25,0,.78,2.36-6.43,6.66-7,7-6,3.54-11.86,3.9-14,4-18.26.86-37.15-3.91-45-6-5.42-1.45-21.27-5.68-21-7Z"/>
      <path class="cls-5" d="m422.77,314.45c.36-1.03,10.52,2.62,28.46,5.9,17.26,3.15,32.7,4.46,32.7,4.46,15.54,1.31,24.3.87,24.77,3.38.45,2.44-7.27,5.73-7.88,5.99-6.43,2.69-12.28,2.26-14.41,2.07-18.21-1.62-36.28-8.89-43.78-12.03-5.17-2.16-20.31-8.5-19.86-9.77Z"/>
      <path class="cls-5" d="m423.31,315.02c.47-.99,10.18,3.73,27.67,8.9,16.83,4.97,32.04,7.91,32.04,7.91,15.31,2.96,24.07,3.45,24.27,6,.19,2.48-7.84,4.93-8.47,5.12-6.68,2-12.45.94-14.55.53-17.93-3.55-35.13-12.7-42.25-16.62-4.91-2.7-19.29-10.61-18.71-11.83Z"/>
      <path class="cls-5" d="m422.6,315.17c.54-.95,9.89,4.44,26.97,10.84,16.43,6.16,31.39,10.17,31.39,10.17,15.06,4.04,23.77,5.15,23.78,7.71.01,2.48-8.17,4.36-8.82,4.5-6.8,1.52-12.49.05-14.55-.51-17.64-4.81-34.14-15.17-40.96-19.58-4.71-3.05-18.49-11.96-17.82-13.13Z"/>
      <path class="cls-5" d="m422.23,314.57c.65-.88,9.28,5.59,25.47,14,15.57,8.09,29.94,13.87,29.94,13.87,14.47,5.82,22.98,7.97,22.69,10.51-.28,2.47-8.64,3.34-9.29,3.41-6.93.69-12.4-1.45-14.38-2.25-16.93-6.9-32.07-19.16-38.31-24.36-4.31-3.59-16.92-14.09-16.11-15.18Z"/>
      <path class="cls-5" d="m421.69,315.18c.73-.82,8.71,6.45,24.03,16.36,14.73,9.53,28.49,16.66,28.49,16.66,13.85,7.17,22.11,10.12,21.58,12.62-.52,2.43-8.92,2.51-9.58,2.51-6.97.02-12.21-2.62-14.1-3.61-16.2-8.48-30.1-22.12-35.82-27.89-3.95-3.98-15.5-15.64-14.6-16.64Z"/>
      <path class="cls-5" d="m423.07,313.23c.02-1.1,10.81-.79,28.88-3.27,17.39-2.38,32.46-5.96,32.46-5.96,15.17-3.6,23.36-6.76,24.59-4.51,1.19,2.18-5.12,7.72-5.62,8.15-5.27,4.56-10.96,5.98-13.05,6.46-17.81,4.14-37.24,2.86-45.34,2.22-5.59-.44-21.95-1.74-21.92-3.09Z"/>
      <path class="cls-5" d="m422.83,312.97c-.14-1.09,10.56-2.44,28.04-7.66,16.81-5.03,31.16-10.87,31.16-10.87,14.44-5.88,22.05-10.26,23.61-8.23,1.51,1.97-3.88,8.41-4.3,8.91-4.5,5.32-9.92,7.59-11.9,8.39-16.96,6.82-36.36,8.55-44.47,9.16-5.59.42-21.96,1.65-22.13.31Z"/>
      <path class="cls-5" d="m422.19,314.27c-.28-1.06,10.17-3.73,26.87-11.09,16.06-7.08,29.57-14.66,29.57-14.66,13.6-7.63,20.6-12.92,22.4-11.11,1.75,1.77-2.8,8.83-3.16,9.38-3.81,5.84-8.89,8.76-10.77,9.8-15.98,8.88-35.02,13-42.98,14.61-5.5,1.11-21.58,4.36-21.92,3.06Z"/>
      <path class="cls-5" d="m421.8,313.48c-.39-1.03,9.74-4.75,25.6-13.78,15.25-8.68,27.91-17.6,27.91-17.6,12.75-8.98,19.17-14.96,21.15-13.33,1.92,1.58-1.88,9.07-2.19,9.65-3.19,6.19-7.95,9.63-9.71,10.85-14.99,10.47-33.51,16.51-41.26,18.93-5.35,1.67-21.02,6.54-21.5,5.28Z"/>
      <path class="cls-9" d="m381.97,296.17c-.15-3.32,4.58-6.37,8.56-8.93,2.14-1.38,3.97-2.28,5.39-4.58.76-1.22,1.21-2.53,1.47-3.29.87-2.52.68-3.5,1.25-5.52.21-.75.9-3.17,2.63-5.2.57-.68,3.67-4.14,8.15-3.95,5.04.21,8.55,4.9,8.18,5.49-.21.34-1.78-.48-6.9-1.57-2.11-.45-2.87-.53-3.6-.09-1.3.77-1.53,2.59-1.79,4.67-.24,1.96-.48,3.84.44,4.45.76.5,2.01-.07,4.76-1.82,6.91-4.38,7.29-5.99,10.15-6.39,3.13-.44,5.91,1.04,6.9,1.57.3.16,2.64,1.42,2.44,2.01-.23.67-3.43-.57-7.21-.19-5.95.6-9.94,4.86-9.84,5.01.08.13,3.22-2.47,7.84-2.57,1.21-.03,2.75-.04,4.14.94,2.47,1.74,2.81,5.4,2.35,5.61-.43.2-1.06-2.91-3.51-3.7-2.16-.69-4.65.76-8.68,3.1-.72.42-1.47.86-2.54,1.6-4.11,2.85-5.73,5.18-8.24,7.55-3.08,2.92-5.76,4.27-11,6.93-6.26,3.17-8.09,2.91-9.21,2.26-1.08-.62-2.07-1.94-2.13-3.38Z"/>
    </g>
    <g>
      <path class="cls-6" d="m181.51,248.27c14.63,21.38,49.86,20.29,92,19,38.56-1.18,60.48-10.85,73-18,6.88-3.93,12.15-7.8,15-10,24.52-18.88,32.14-38.44,43-53,15.99-21.43,33.35-24.46,63-40,76-39.85,136.2-111.36,127-126-3.58-5.69-17.59-2.72-26-1-116.36,23.74-110.41-.18-186,23-43.92,13.47-159.09,48.79-197,140-5.1,12.26-18.58,44.71-4,66Z"/>
      <path class="cls-5" d="m552.64,48.19c6.13-7.38,13.09-10.14,28.99-15.09,24.56-7.65,36.84-11.48,37.01-9.65.65,7.1-68.46,54.1-74.12,43.58-1.88-3.51,3.4-13.18,8.11-18.84Z"/>
      <path class="cls-5" d="m534.37,62.94c6.96-6.6,14.2-8.53,30.57-11.58,25.29-4.71,37.94-7.07,37.89-5.23-.19,7.13-74.35,45.68-78.73,34.56-1.46-3.71,4.93-12.69,10.27-17.76Z"/>
      <path class="cls-5" d="m512.37,82.94c6.96-6.6,14.2-8.53,30.57-11.58,25.29-4.71,37.94-7.07,37.89-5.23-.19,7.13-74.35,45.68-78.73,34.56-1.46-3.71,4.93-12.69,10.27-17.76Z"/>
      <path class="cls-5" d="m491.37,103.94c6.96-6.6,14.2-8.53,30.57-11.58,25.29-4.71,37.94-7.07,37.89-5.23-.19,7.13-74.35,45.68-78.73,34.56-1.46-3.71,4.93-12.69,10.27-17.76Z"/>
      <path class="cls-5" d="m460.37,128.94c6.96-6.6,14.2-8.53,30.57-11.58,25.29-4.71,37.94-7.07,37.89-5.23-.19,7.13-74.35,45.68-78.73,34.56-1.46-3.71,4.93-12.69,10.27-17.76Z"/>
      <path class="cls-5" d="m418.39,155.88c7.43-6.07,14.79-7.45,31.34-9.27,25.57-2.82,38.36-4.23,38.17-2.4-.72,7.1-77.54,40.03-81.08,28.62-1.18-3.8,5.86-12.29,11.56-16.94Z"/>
      <path class="cls-5" d="m386.39,178.88c7.43-6.07,14.79-7.45,31.34-9.27,25.57-2.82,38.36-4.23,38.17-2.4-.72,7.1-77.54,40.03-81.08,28.62-1.18-3.8,5.86-12.29,11.56-16.94Z"/>
      <path class="cls-5" d="m356.39,201.88c7.43-6.07,14.79-7.45,31.34-9.27,25.57-2.82,38.36-4.23,38.17-2.4-.72,7.1-77.54,40.03-81.08,28.62-1.18-3.8,5.86-12.29,11.56-16.94Z"/>
      <path class="cls-5" d="m340.39,219.88c7.43-6.07,14.79-7.45,31.34-9.27,25.57-2.82,38.36-4.23,38.17-2.4-.72,7.1-77.54,40.03-81.08,28.62-1.18-3.8,5.86-12.29,11.56-16.94Z"/>
      <path class="cls-5" d="m566.64,25.19c6.13-7.38,13.09-10.14,28.99-15.09,24.56-7.65,36.84-11.48,37.01-9.65.65,7.1-68.46,54.1-74.12,43.58-1.88-3.51,3.4-13.18,8.11-18.84Z"/>
      <path class="cls-5" d="m544.45,23.53c6.56-6.99,13.68-9.33,29.85-13.32,24.98-6.16,37.47-9.24,37.53-7.4.22,7.13-71.6,49.88-76.61,39.03-1.67-3.62,4.19-12.95,9.23-18.32Z"/>
      <path class="cls-5" d="m506.45,32.53c6.56-6.99,13.68-9.33,29.85-13.32,24.98-6.16,37.47-9.24,37.53-7.4.22,7.13-71.6,49.88-76.61,39.03-1.67-3.62,4.19-12.95,9.23-18.32Z"/>
      <path class="cls-5" d="m474.45,40.53c6.56-6.99,13.68-9.33,29.85-13.32,24.98-6.16,37.47-9.24,37.53-7.4.22,7.13-71.6,49.88-76.61,39.03-1.67-3.62,4.19-12.95,9.23-18.32Z"/>
      <path class="cls-5" d="m438.45,49.53c6.56-6.99,13.68-9.33,29.85-13.32,24.98-6.16,37.47-9.24,37.53-7.4.22,7.13-71.6,49.88-76.61,39.03-1.67-3.62,4.19-12.95,9.23-18.32Z"/>
      <path class="cls-5" d="m419.45,49.53c6.56-6.99,13.68-9.33,29.85-13.32,24.98-6.16,37.47-9.24,37.53-7.4.22,7.13-71.6,49.88-76.61,39.03-1.67-3.62,4.19-12.95,9.23-18.32Z"/>
      <path class="cls-5" d="m405.45,49.53c6.56-6.99,13.68-9.33,29.85-13.32,24.98-6.16,37.47-9.24,37.53-7.4.22,7.13-71.6,49.88-76.61,39.03-1.67-3.62,4.19-12.95,9.23-18.32Z"/>
      <path class="cls-5" d="m384.45,50.53c6.56-6.99,13.68-9.33,29.85-13.32,24.98-6.16,37.47-9.24,37.53-7.4.22,7.13-71.6,49.88-76.61,39.03-1.67-3.62,4.19-12.95,9.23-18.32Z"/>
      <path class="cls-5" d="m364.45,50.53c6.56-6.99,13.68-9.33,29.85-13.32,24.98-6.16,37.47-9.24,37.53-7.4.22,7.13-71.6,49.88-76.61,39.03-1.67-3.62,4.19-12.95,9.23-18.32Z"/>
      <path class="cls-5" d="m319.45,64.53c6.56-6.99,13.68-9.33,29.85-13.32,24.98-6.16,37.47-9.24,37.53-7.4.22,7.13-71.6,49.88-76.61,39.03-1.67-3.62,4.19-12.95,9.23-18.32Z"/>
      <path class="cls-4" d="m160.51,210.27c-13.51,3.99-21.96.83-24,5-2.35,4.79,5.79,15.09,15,21,14.73,9.46,30.82,6.81,54,3,20.32-3.34,24.07-7.75,25-11,1.1-3.83-1.66-6.29-2-14-.32-7.31,1.83-12.67,3-16,6.87-19.55,3.04-34.63,10-53,5.31-14.02,14.21-22.01,32-38,18.62-16.73,36.53-26.6,52-35,23.32-12.67,37.57-17.24,37-19-.73-2.25-25.27,1.44-50,11-20.85,8.06-61.4,23.72-82,61-7.22,13.07-8.12,21.8-21,42-9.82,15.4-17.81,23.68-26,30-6.59,5.08-13.04,10.06-23,13Z"/>
      <path class="cls-9" d="m234.49,138.7c-.83,1.09-4.15,5.46-8.5,5.36-1.74-.04-1.52-.74-5.36-1.79-3.57-.98-4.08-.46-6.26-1.35-2.81-1.15-4.51-3.06-5.36-4.03-1.03-1.17-3.11-3.55-3.57-7.16-.13-1.02-.53-4.15,1.35-6.26.11-.12,1.63-1.79,2.68-1.34.77.33.88,1.61.89,1.79.1,1.22-.59,2.23-.9,2.68-.76,1.11-1.41,1.26-1.34,1.79.08.6.99.99,1.79,1.34.72.32.83.22,1.34.45,1.16.51,1.79,1.53,2.23,2.24.83,1.33.57,1.76,1.34,2.68.61.73,1.29,1.09,1.79,1.34,2.34,1.2,5.53,1.27,5.81.45.19-.54-1.11-.93-2.68-3.13-.71-1-1.47-2.06-1.78-3.58-.36-1.76.15-2.71-.44-3.13-.76-.54-1.83.84-3.13.44-1.47-.45-2.18-2.85-2.23-4.47-.05-1.48.47-1.68.45-3.58-.02-1.52-.35-1.54-.44-3.13-.07-1.12-.19-3.06.9-4.92.24-.42.91-1.52,2.24-2.23,1.3-.69,2.94-.86,3.13-.44.09.2-.2.42-1.34,1.79-.81.97-1.22,1.46-1.34,1.79-.35.94-.03,1.85.44,3.13.66,1.77,1.12,1.8,1.78,3.58.49,1.32.83,2.23.44,3.13-.43,1-1.39,1.13-1.34,1.79.05.65,1.04,1.17,1.79,1.34.99.23,1.36-.21,2.24,0,.87.21,1.4.86,1.79,1.34,1.45,1.79.79,3.34,2.23,4.47.09.07.92.71,1.34.45.46-.29.22-1.53,0-2.24-.86-2.74-3.1-2.77-3.57-4.92-.29-1.34.57-1.38.45-3.58-.06-1.09-.28-1.24-.89-4.03-.53-2.42-.49-2.85-.44-3.13.27-1.68,1.39-2.78,1.79-3.13.92-.81,1.79-1.03,2.68-1.34,4.53-1.58,5.6-4.22,7.16-3.57,1.03.43,1.38,1.91,1.78,3.58.17.7.47,1.93,0,2.24-.61.39-1.76-1.25-2.68-.9-.94.36-.2,2.25-1.35,4.02-1.27,1.96-3.33,1.41-4.03,3.13-.61,1.51.44,3.27.89,4.03,1.12,1.88,2.32,2.13,4.02,3.58.33.28,4.98,4.35,4.46,8.95-.2,1.79-1.1,2.97-2.24,4.47Z"/>
    </g>
    <g>
      <path class="cls-3" d="m101.01,138.77c-5.41-1.45-13.72-3.45-24-5-21.04-3.17-36.41-2.35-37-6-.31-1.94,3.98-2.49,10-9,5.04-5.44,4.68-7.91,9-12,1.44-1.36,3.25-2.76,13-7,12.84-5.58,19.33-8.34,23-7,5.58,2.04,9.01,8.31,10,13,1.46,6.93-2.73,8.85-1,17,1.06,4.99,3.31,7.49,2,11-.95,2.53-3.18,4.08-5,5Z"/>
      <path class="cls-8" d="m94.51,162.27c.87,4.17-2.14,9.21-5,12-3.32,3.23-7.01,3.98-12,5-7.54,1.54-13.72.65-18,0-5.39-.82-9.55-2.18-12-3-5.06-1.68-5.51-2.38-10-4-5.88-2.12-10.7-2.93-17-4-9.51-1.61-12.32-1.21-15-4-1.66-1.73-3.69-5.13-3-8,2.4-9.92,36.61-10.26,60-7,12.23,1.71,30.2,4.38,32,13Z"/>
      <path class="cls-10" d="m59.01,153.77c-3.08-1.06-7.03-3.06-13-3-2.72.03-4.05.47-7,1-9.38,1.7-10.5-.1-20,1-9.94,1.15-14.04,3.72-17,1-1.32-1.22-2.09-3.2-2-5,.15-2.92,2.55-4.86,4-6,3.23-2.54,5.75-2.64,10-4,2.1-.67,6.06-2.78,14-7,5.98-3.18,10.14-5.52,11-6,10.2-5.64,31.03-10.42,51-4,7.56,2.43,24.57,9.55,24,17-.68,8.92-26.18,13.84-35,15-9.64,1.27-14.45,1.91-20,0Z"/>
      <path class="cls-2" d="m15.01,140.77c.33-.14,1.88-.79,3,0,.84.6.96,1.68,1,2,.17,1.55-.79,2.74-1,3-1.62,2-4.44,2-6,2-1.31,0-3.87-.21-4-1-.11-.7,1.84-.86,4-3,1.49-1.48,1.57-2.4,3-3Z"/>
    </g>
    <g>
      <circle class="cls-5" cx="48.01" cy="132.77" r="6"/>
      <circle cx="48.01" cy="132.77" r="3.6"/>
      <circle class="cls-1" cx="51.01" cy="130.52" r="1.5"/>
    </g>
  </g>
</svg>