<?xml version="1.0" encoding="UTF-8"?>
<svg id="Calque_2" data-name="Calque 2" xmlns="http://www.w3.org/2000/svg" viewBox="0 0 926.28 344.61">
  <defs>
    <style>
      .cls-1 {
        fill: #fff;
      }

      .cls-2 {
        fill: #3f70c6;
      }

      .cls-3 {
        fill: #004242;
      }

      .cls-4 {
        fill: #ffe3d3;
      }

      .cls-5 {
        fill: #002e42;
      }

      .cls-6 {
        fill: #ff9300;
      }

      .cls-7 {
        fill: #007877;
      }

      .cls-8 {
        fill: #ff8a72;
      }

      .cls-9 {
        fill: #ffb092;
      }

      .cls-10 {
        fill: none;
      }

      .cls-11 {
        fill: #b55200;
      }

      .cls-12 {
        fill: #3fffc6;
      }
    </style>
  </defs>
  <g id="Calque_1-2" data-name="Calque 1">
    <g id="queue">
      <path class="cls-7" d="m392.09,204.24c-10.87,15.86-20.31,12.79-78,43-4.43,2.32-13.73,7.24-27,10-7.83,1.63-13.83,1.84-26,2-21.83.28-32.75.42-42,0-47.85-2.17-93.15-13.29-100-15-41.63-10.4-68.16-22.26-82-29-7.97-3.88-38.97-18.97-37-25,.97-2.99,9.6-2.35,23-2,19.33.51,38.67-1.41,58-1,27.29.57,49.71-3.56,90-11,65.09-12.01,97.64-18.02,125-36,8.47-5.57,16.69-12.04,31-16,3.79-1.05,49.16-12.88,69,13,14.72,19.2,7.99,49.51-4,67Z"/>
      <path class="cls-6" d="m377.09,151.24c7.96,8.49,2.76,27.32-4,39-13.59,23.5-40.78,30.7-66,37-13.01,3.25-39.19,4.88-91,8-25.18,1.52-36.55,1.96-50,2-28.87.09-43.31.14-58-3-36.83-7.87-67.79-29.49-66-34,.98-2.47,11.97-.12,18,1,48.3,8.97,99-1.75,138-10,21.07-4.46,73.93-17.29,133-37,14.74-4.92,36.97-12.64,46-3Z"/>
      <path class="cls-4" d="m262.09,168.24c-3.01.6-9.13,1.81-14,6-5.21,4.48-6.3,10.07-8,15-7.31,21.2-25.44,29.01-23,33,2.06,3.36,15.65-1.03,24-5,5.1-2.43,21.26-10.4,29-28,.37-.84,7.23-16.76,2-21-1.97-1.59-4.98-1-10,0Z"/>
      <path class="cls-4" d="m222.09,177.24c-1.7.4-6.89,1.82-12,7-4.03,4.09-5.66,8.14-7,11-8.87,18.98-24.63,28.16-22,32,.4.59,1.09.82,2,1,9.37,1.81,24.41-5.68,36-18,0,0,7.59-8.06,13-22,1.96-5.05,2.51-8.11,1-10-2.39-3.01-8.73-1.53-11-1Z"/>
      <path class="cls-4" d="m183.09,188.24c-4.35,2.38-6.53,3.57-8,5-2.16,2.1-3.38,4.21-5,7-1.57,2.7-2.42,4.71-3,6-3.23,7.15-7.4,12.6-10,16-5.39,7.05-8.62,8.99-8,10,1.02,1.66,10.65-2,18-6,3.55-1.94,13.8-7.89,22-19,0,0,3.38-4.58,6-13,.75-2.4,1.37-5.03,0-7-.99-1.43-2.59-1.89-3-2-1.62-.44-3.29-.12-9,3Z"/>
      <path class="cls-4" d="m154.09,191.24c-1.62.06-4.47.14-7,2-1.1.81-1.73,1.65-2,2-3.15,4.11-10.82,12.15-17,17-5.67,4.45-9.39,5.67-9,7,.48,1.64,6.59,1.18,9,1,6.07-.46,14.88-2.15,25-8,8.53-4.93,11.3-8.95,12-10,.73-1.11,5.29-7.98,3-11-1.03-1.36-2.29-.41-14,0Z"/>
      <path class="cls-4" d="m124.09,195.24c-3.11.85-4.69,1.28-6,2-1.6.88-2.76,1.93-5,4-2.01,1.85-3.15,3.09-5,5-3.05,3.15-4.58,4.73-6,6-6.16,5.52-11.35,6.66-11,8,.3,1.16,4.37,1.05,6,1,4-.11,6.93-1.02,10-2,8.33-2.66,12.53-4.01,14-5,1.11-.74,3.41-3.16,8-8,3.68-3.88,5.12-5.65,5-8-.01-.24-.18-2.83-2-4-.66-.42-1.64-.73-8,1Z"/>
      <path class="cls-4" d="m99.09,196.24c-.85.14-1.69.41-7,4-2.75,1.86-3.34,2.34-4,3-1.53,1.53-1.94,2.52-3,4-3.4,4.75-7.4,6.03-7,7,.37.91,4.08.18,5,0,4.03-.79,6.87-2.28,10-4,10.63-5.85,11.72-7.33,12-9,.04-.24.39-2.55-1-4-1.51-1.57-4.14-1.14-5-1Z"/>
      <path class="cls-4" d="m80.09,195.24c-2.3-.71-4.44.52-7,2-1.52.88-2.48,1.69-4,3-3.7,3.18-3.53,3.98-7,7-1.97,1.72-3.21,2.49-3,3,.12.29.73.58,4,0,5.43-.96,9.49-2.8,12-4,5.88-2.81,8.82-4.25,9-6,.21-2.07-1.86-4.34-4-5Z"/>
      <path class="cls-4" d="m23.09,182.24c-2.03,1.32-2.58,5.28-1,7,.49.54,1.07.71,2,1,.78.24,2.98.81,6,0,.95-.25,4.97-1.34,5-3,.02-1.05-1.55-1.82-4-3-4.24-2.04-6.36-3.06-8-2Z"/>
      <path class="cls-4" d="m45.09,182.24c-1.66.93-1.95,5.12,0,7,1.01.98,2.36,1,5,1,1.57,0,7.51.01,8-2,.25-1.02-1-2.12-2-3-1.71-1.51-4.16-2.02-9-3-.99-.2-1.5-.28-2,0Z"/>
      <path class="cls-4" d="m64.09,180.24c-1.75.69-1.98,3.66-2,4-.02.27-.16,3.2,2,5,1.81,1.51,4.05,1.24,6,1,3.6-.44,8.15-2.34,8-4-.12-1.39-3.37-.83-9-4-2.44-1.38-3.68-2.52-5-2Z"/>
      <path class="cls-4" d="m82.09,180.24c-1.56,1.57-.63,6.12,2,8,.77.55,1.56.78,3,1,2.96.45,10.4,1.08,11-1,.46-1.57-3.24-3.9-5-5-.79-.5-8.62-5.41-11-3Z"/>
      <path class="cls-4" d="m105.09,177.24c-.77.76-.03,1.94,0,6,.02,3.01-.39,3.26,0,4,1.88,3.57,13.97,2.59,15-1,.27-.96-.3-1.88-1-3-1.66-2.66-4.24-3.64-8-5-3.29-1.19-5.12-1.85-6-1Z"/>
      <path class="cls-4" d="m124.09,174.24c-1.09.6-1.83,1.89-2,3-.18,1.15.31,1.79,1,4,.89,2.87.54,3.3,1,4,2.36,3.62,16.93.23,17-3,.01-.4-.21-.82-6-4-7.89-4.34-9.63-4.76-11-4Z"/>
      <path class="cls-4" d="m146.09,172.24c-1.28.75-1.63,2.36-2,4-.42,1.88-.56,5.15,1,6,.63.34,1.27.15,2,0,4.12-.87,5.12.63,9,0,2.41-.39,5.98-1.61,6-3,.01-.86-1.35-1.33-5-3-7.68-3.52-9.32-4.98-11-4Z"/>
      <path class="cls-4" d="m172.09,167.24c-2.39-.57-3.33-.52-4,0-1,.78-1.01,2.27-1,4,.02,2.47.04,5.34,2,7,1.59,1.35,3.65,1.2,6,1,4.77-.41,11.09-2.64,11-5-.03-.9-2.02-1.93-6-4-1.08-.56-3.98-2.04-8-3Z"/>
      <path class="cls-4" d="m190.09,163.24c-1.18.6-1.74,1.56-2,2-1.8,3.07-.53,7.88,2,9,.58.25,1.03.24,3,0,3.65-.44,5.47-.66,7-1,5.97-1.33,8.95-2,9-3,.04-.8-1.62-1.19-6-3-8.07-3.34-10.42-5.32-13-4Z"/>
      <path class="cls-4" d="m211.09,159.24c-.48.75-.71,1.77,0,5,.65,2.95.99,4.44,2,5,1.07.59,2.34.21,3,0,9.35-2.96,15.31-4.86,15-7-.12-.84-2.41-1.56-7-3-6.35-2-9.93-2.42-12-1-.21.14-.64.45-1,1Z"/>
      <path class="cls-4" d="m243.09,155.24c-1.03-.5-2.34-1.29-4-1-.19.03-2.04.39-3,2-1.24,2.08-.08,4.67,1,6,.28.35,1.28,1.49,3,2,.56.17,2.43.63,6-1,2.93-1.34,7.57-4.36,7-6-.53-1.53-4.71.56-10-2Z"/>
      <path class="cls-4" d="m260.09,148.24c-1.07.2-1.71.46-2,1-.41.76.16,1.54,1,4s.58,2.58,1,3c1.6,1.57,5.47.02,8-1,1.91-.77,6.23-2.5,6-4-.05-.3-.3-.69-5-2-3.65-1.01-6.18-1.52-9-1Z"/>
    </g>
    <g id="corps">
      <path class="cls-7" d="m375.09,55.24c1.76-1.22,10.16-6.76,21-13,1.33-.76,17.92-10.32,31-16,21.36-9.27,40.11-11.54,61-14,19.37-2.28,41.16-4.84,69-1,16.27,2.24,48.13,6.64,73,17,4.32,1.8,17.35,7.5,34,6,5.58-.5,9.67-1.64,11-2,34.78-9.42,85.85-23.24,122-8,34.07,14.37,52.91,53.72,56,84,.93,9.14,3.84,37.61-12,57-4.34,5.32-12.36,12.71-17,17-6.68,6.17-13.41,12.38-23,19-11.06,7.63-20.16,11.84-27,15-36.08,16.68-43.03,21.59-58,28-59.61,25.54-133.04,26.41-249,33-3.08.18-11.34.65-22-1,0,0-14.72-2.27-29-9-29.17-13.74-48.16-43.09-50-46-38.58-60.97-18.46-146.93,9-166Z"/>
      <path class="cls-6" d="m661.09,53.24c58.85,16.66,67,15.04,72,24,13.43,24.07-26.75,69.23-47,92-5.11,5.75-10.13,10.76-18,14-22.22,9.14-49.13-3.35-57-7-13.86-6.43-19.1-12.51-32-13-4.53-.17-10.61.32-19,1-4.57.37-11.99.97-19,2-20.55,3.01-36.69,9.57-45,13-12.99,5.36-11.42,6.15-22,10-16.54,6.02-29.89,7.58-34,8-18.08,1.85-31.88-.45-35-1-5.87-1.03-22.44-3.95-35-12-22.99-14.73-35.66-48.65-31-74,10.65-57.93,112.94-77,129-80,67.64-12.62,133.28,5.67,156,12,10.04,2.8,14.61,4.66,37,11Z"/>
      <path class="cls-8" d="m653.09,26.24c-5.48-1.38-10.01-.25-15,1-5.71,1.43-6.52,2.68-19,8-7.81,3.33-7.64,2.91-12,5-7.66,3.68-11.83,5.68-16,10-1.98,2.05-6.49,6.82-8,14-1.1,5.24-.07,9.19,1,14,.45,2.01,2.3,14,6,38,1.89,12.28,1.67,12.99,3,19,.45,2.06,3.38,15.32,7,23,11.17,23.7,48.47,35.6,55,28,2.08-2.42.72-6.94-2-16-3.74-12.48-8.05-15.77-11-26-1.25-4.34-1.5-9.23-2-19-.89-17.42-1.51-29.66,2-45,2.07-9.02,3.68-15.73,9-22,.83-.98,1.81-2.01,8-9,7.07-7.98,8-9.11,8-11,.01-5.49-7.74-10.42-14-12Z"/>
      <path class="cls-4" d="m619.09,48.24c-5.52-.66-9.7.65-14,2-6.34,1.98-10.98,3.43-14,8-3.81,5.75-2.39,12.41-2,14,1.96,7.96,8.61,11.96,12,14,2.53,1.52,11.23,6.76,22,4,2.22-.57,13.68-3.5,17-14,3.01-9.52-3.04-17.74-4-19-5.85-7.67-14.62-8.72-17-9Z"/>
      <path class="cls-10" d="m595.09,65.24c3.16-1.81,8.69-4.4,16-5,11.93-.97,20.83,4.01,24,6"/>
      <path class="cls-4" d="m606.09,129.24c5.93-2.93,11.53-2.28,14-2,2.9.33,9.07,1.04,14,6,1.25,1.26,4.12,4.22,5,9,1.41,7.66-3.49,13.42-4,14-4.3,4.89-10.11,5.55-14,6-2.24.26-7.86.83-14-2-2.15-.99-12.63-5.82-13-15-.39-9.68,10.82-15.42,12-16Z"/>
      <path class="cls-10" d="m600.09,144.24c2.53-1.43,5.53-2.84,9-4,10.18-3.39,19.31-2.87,25-2"/>
      <path class="cls-4" d="m695.09,96.24c-3.64.34-8.93.91-13,5-.96.97-3.77,3.79-4,8-.15,2.83.94,4.94,2,7,.83,1.6,2.78,5.37,7,8,6.16,3.84,12.82,2.55,15,2,1.02-.26,10.63-2.85,14-12,.62-1.68,2.67-7.26,0-12-4.25-7.56-16.79-6.39-21-6Z"/>
      <path class="cls-4" d="m705.09,161.24c-2.58.49-6.86,1.31-10,5-.81.95-2.79,3.35-3,7-.2,3.52,1.38,6.1,2,7,2.5,3.62,6.33,4.58,8,5,4.82,1.21,8.82-.2,11-1,3.75-1.38,9.78-3.59,11-9,1.19-5.28-2.85-10.65-7-13-4.35-2.46-8.82-1.61-12-1Z"/>
      <path class="cls-10" d="m695.09,175.24c2.43-1.65,5.42-3.42,9-5,4.9-2.17,9.4-3.34,13-4"/>
      <path class="cls-10" d="m683.09,111.24c2.33-1.37,5.34-2.85,9-4,5.58-1.75,10.51-2.07,14-2"/>
      <path class="cls-4" d="m411.09,27.24c-4.52.27-7.04.47-10,2-1.69.87-4.92,2.53-6,6-1.03,3.3.13,7.47,2,8,.6.17.99-.11,3-1,2.73-1.21,1.97-.67,5-2,6.44-2.82,12-6,12-6,6.88-3.93,10.32-5.9,10-7-.26-.92-5.51-.62-16,0Z"/>
      <path class="cls-4" d="m441.09,13.24c-3.46,1.82-4.73,4.41-5,5-1.02,2.21-1.59,5.75,0,7,.91.72,2.17.41,4,0,3.32-.74,6.78-.92,10-2,13.72-4.59,20.13-5.36,20-7-.08-1.05-4.05-1.7-12-3-11.26-1.85-14.32-1.41-17,0Z"/>
      <path class="cls-4" d="m500.09,3.24c-2.68-.3-4.61-.17-7,0-3.8.27-4.63.76-5,1-1.99,1.32-2.61,3.58-3,5-.44,1.59-1.09,3.98,0,5,1.16,1.09,3.35-.26,7-1,3.5-.71,4.32-.05,10,0,5.19.05,13.48.12,14-2,.46-1.89-5.42-4.9-8-6-3.44-1.46-6.46-1.83-8-2Z"/>
      <path class="cls-4" d="m546.09,6.24c-3.61-2.72-6.85-3.72-11-5-5.48-1.69-7.24-1.25-8-1-2.79.91-4.38,3.13-5,4-.79,1.11-2.9,4.06-2,6,.97,2.1,4.92,1.89,10,2,14.81.33,21.16,3.09,22,1,.76-1.9-3.95-5.45-6-7Z"/>
      <path class="cls-4" d="m576.09,8.24c-.85-.49-3-1.7-6-2-1.5-.15-3.87-.39-6,1-2.29,1.49-3.88,4.56-3,6,.63,1.02,2.37,1,3,1,9.6.04,25.89,7.55,27,5,.82-1.89-7.78-6.84-15-11Z"/>
      <path class="cls-4" d="m619.09,20.24c-.77-.54-4.06-2.81-9-4-3.22-.78-5.68-1.33-8,0-.26.15-2.96,1.74-3,4-.06,3.52,6.43,6.01,9,7,7.18,2.76,16.97,3.7,18,1,.92-2.41-5.44-6.9-7-8Z"/>
      <path class="cls-4" d="m564.09,42.24c-3.43-1.01-7.37-2.17-10,0-.12.1-1.92,1.63-2,4-.11,3.16,2.95,5.28,4,6,2.69,1.85,5.42,1.93,8,2,3.19.09,6.3.17,8-2,.07-.09,1.42-1.87,1-4-.7-3.55-5.68-5.02-9-6Z"/>
      <path class="cls-4" d="m537.09,34.24c-3.3-.67-7.73-1.58-10,1-1.95,2.21-1.1,5.61-1,6,.95,3.6,4.36,5.22,6,6,.35.16,6.34,2.9,12,0,1.33-.68,3.69-1.89,4-4,.38-2.58-2.53-4.85-4-6-2.67-2.08-5.36-2.67-7-3Z"/>
      <path class="cls-4" d="m515.09,30.24c-1.95-.58-4.12-1.2-7-1-2.47.17-4.6.31-6,2-1.67,2.01-1.06,4.74-1,5,.52,2.16,2.09,3.33,3,4,2.1,1.56,4.25,1.8,6,2,4.21.48,7.33-.73,8-1,1.98-.8,4.7-1.9,5-4,.24-1.69-1.2-3.17-2-4-1.64-1.69-3.48-2.26-6-3Z"/>
      <path class="cls-4" d="m491.09,30.24c-2.79-1.59-5.39-1.85-7-2-2.69-.24-5.33-.48-8,1-.76.42-3.93,2.19-4,5-.05,1.84,1.26,3.22,2,4,1.99,2.1,4.46,2.67,6,3,1.44.31,7.5,1.62,12-2,.83-.67,3.32-2.67,3-5-.26-1.87-2.2-2.98-4-4Z"/>
      <path class="cls-4" d="m460.09,30.24c-.59-.1-4.14-.68-8,1-2.7,1.17-3.78,2.67-4,3-.48.69-1.22,1.77-1,3,.24,1.37,1.53,2.14,3,3,1.66.97,3.47,2.02,6,2,3.43-.03,5.73-2.03,8-4,1.93-1.68,3.13-2.72,3-4-.28-2.76-6.46-3.91-7-4Z"/>
      <path class="cls-4" d="m433.09,33.24c-2.93.17-5.17.29-7,2-.49.46-1.99,1.86-2,4-.01,2.34,1.76,3.81,2,4,1.72,1.38,3.78,1.2,6,1,.83-.07,3.35-.37,6-2,1.3-.8,2.47-1.54,3-3,.11-.29.59-1.62,0-3-.11-.25-.53-1.15-2-2-.47-.27-2.23-1.21-6-1Z"/>
      <path class="cls-4" d="m560.09,62.24c-2.61-.98-5.36-1.98-9-2-2.34-.01-3.71-.02-5,1-1.49,1.17-2.22,3.19-2,5,.33,2.69,2.69,4.17,4,5,1.02.64,2.13,1.12,8,2,6.77,1.01,7.98.78,9,0,1.25-.95,1.98-2.53,2-4,.03-2.52-2.05-4.22-3-5-.28-.23-1.18-.94-4-2Z"/>
      <path class="cls-4" d="m535.09,54.24c-1.93-1.43-2.62-.49-9-2-2.97-.7-3.97-1.18-6-1-1.28.11-3.8.34-5,2-1.67,2.32-.15,6.57,2,9,5.45,6.16,16.33,2.25,17,2,3.16-1.18,3.8-2.47,4-3,.88-2.33-.87-5.42-3-7Z"/>
      <path class="cls-4" d="m496.09,46.24c-6.18-1.44-8.73-.58-10,0-.93.43-3.5,1.61-4,4-.36,1.72.52,3.22,1,4,2.04,3.34,5.8,4.41,8,5,2.68.72,8.34,2.24,13-1,.55-.38,4.45-3.09,4-6-.51-3.33-6.39-4.69-12-6Z"/>
      <path class="cls-4" d="m464.09,46.24c-4.35-.03-8.75-.06-12,3-.29.27-4.02,3.87-3,7,1.43,4.39,10.95,4.04,12,4,5.47-.2,10.51-2.49,13-6,1.01-1.43,1.1-2.36,1-3-.36-2.24-3.47-3.42-5-4-1.68-.64-3.5-.98-6-1Z"/>
      <path class="cls-4" d="m433.09,50.24c-2.42.24-3.66.37-5,1-1.03.49-2.02,1.32-4,3-1.74,1.47-2.62,2.23-3,3-.66,1.35-1.01,3.48,0,5,.64.97,1.8,1.63,5,2,4.57.53,9.4,1.08,14-2,1.4-.94,5.42-3.64,5-7-.41-3.29-4.79-4.93-5-5-1.51-.54-3.34-.36-7,0Z"/>
      <path class="cls-4" d="m409.09,56.24c-2.26.09-3.93.64-5,1-2.01.68-4.72,1.59-7,4-.87.92-4.08,4.32-3,7,.97,2.4,4.82,2.78,7,3,4.54.45,8.04-1.1,10-2,3.09-1.41,8.04-3.68,8-7-.03-2.76-3.51-4.73-4-5-2.11-1.16-4.19-1.07-6-1Z"/>
    </g>
    <g id="tete">
      <path class="cls-11" d="m698.09,84.24c.55.22,2.96-13.13,14-29,5.29-7.6,23.59-33.93,57-40,19.74-3.59,35.69,1.55,43,4,5.16,1.73,21.33,7.65,36,22,3.6,3.52,10.13,9.9,16,20,5.1,8.77,4.56,11.5,9,16,6.11,6.19,16.68,10.69,27,8,7.96-2.08,16.78-8.69,17-16,.08-2.76-1.14-2.97-3-8-4.12-11.15-2.63-22.3-2-27,.65-4.84,1.34-5.77,1-9-.69-6.56-4.42-11.12-6-13-.98-1.17-5.76-6.67-14-9-3.17-.9-5.27-.88-10-1-13.79-.36-11.95-.92-21-1,0,0-25.75-.22-51,5-11.34,2.34-14,3-14,3-3.22.8-5.39,1.41-9,2-2.69.44-4.83.63-9,1-7.42.65-8.24.44-12,1-3.72.56-6.4,1.29-9,2-5.12,1.4-9.36,2.56-14,5-3.59,1.89-6.44,4.28-12,9-5.31,4.5-9.56,8.55-11,10-13.9,13.97-23.86,44.66-23,45Z"/>
      <path class="cls-10" d="m769.09,16.24c.75,1.09.9,2.89,0,4-.9,1.12-2.46,1.06-4,1-1.05-.04-4.38-.17-5-2-.47-1.38.9-2.89,1-3,1.98-2.13,6.47-2.24,8,0Z"/>
      <path class="cls-10" d="m770.09,16.24c-1.27,1.71-1.23,4.27,0,6,1.03,1.45,2.58,1.89,3,2,.94.25,1.67.17,3,0,2.08-.26,3.11-.39,4-1,1.78-1.22,2.91-3.97,2-6-.45-1.01-1.27-1.53-2-2-2.55-1.62-5.32-1.13-6-1-1.32.26-2.93.57-4,2Z"/>
      <path class="cls-10" d="m785.09,15.24c-2.45,1.81-3.38,5.9-2,8,.37.56.69.67,3,2,4.02,2.32,3.33,2.16,5,3,3.69,1.87,4.33,1.29,7,3,.48.3,1.06.71,2,1,.34.1,2.36.72,4,0,3-1.31,3.01-6.3,3-7-.01-.85-.08-3.62-2-6-1.92-2.39-4.98-2.96-11-4-4.86-.84-7.33-1.23-9,0Z"/>
      <path class="cls-10" d="m810.09,20.24c-2.53,1.06-3.48,4.24-4,6-.47,1.57-1.28,4.31,0,7,1.05,2.19,3.04,3.41,4,4,1.37.84,1.87.75,4,2,.97.57,1.65,1.05,3,2,1.23.87,2.48,1.75,4,3,2.76,2.27,2.92,2.89,4,3,1.9.2,3.52-1.49,4-2,1.07-1.12,1.45-2.27,2-4,.47-1.49,1.09-3.42,1-6-.04-1.1-.15-4.27-2-7-1.3-1.91-2.46-2.14-12-6-5.17-2.09-6.41-2.66-8-2Z"/>
      <path class="cls-6" d="m834.09,32.24c-3.59.91-3.92,10.71-4,13-.13,3.9-.31,9.29,3,14,3.07,4.37,7.58,5.91,14,8,11.45,3.74,15.02,1.1,19,5,4.55,4.46,4.34,12.26,3,17-.56,1.98-2.05,7.25-7,10-5.32,2.95-11.05,1-14,0-6.92-2.35-10.8-7.33-12-9-5.22-7.29-6.63-17.79-3-26,3.95-8.93,11.13-8.95,12-16,.99-8.01-7.17-16.98-11-16Z"/>
      <path class="cls-6" d="m700.09,60.24c-2.33,6.34-6.08,16.52-2,27,2.53,6.51,7.36,10.34,17,18,6.48,5.15,17.33,13.77,21,11,2.1-1.58-.03-5.48,0-14,0,0,.03-10.12,4-20,5.02-12.51,15.06-19.33,19-22,20.71-14.06,46.13-9.93,57-8,37.72,6.68,55.95,29.08,60,25,4.55-4.58-11.71-39.61-44-57-37.33-20.1-83.48-9.86-109,10-4.94,3.84-16.89,13.39-23,30Z"/>
      <path class="cls-7" d="m714.09,84.24c-9.85,17.16-2.45,43.03,7,58,10.47,16.59,26.31,24.31,32,27,4.66,2.2,13.63,6.33,26,7,2.47.13,10.33.41,20-2,4.1-1.02,9.63-2.4,16-6,6.67-3.77,8.77-6.86,15-8,2.1-.39,3.39-.31,9,0,6.57.37,7.78.21,18,1,12.53.97,28.33-5.85,39-14,6.43-4.91,22.87-17.46,21-31-1.66-12.01-16.99-19.23-29-24-32.92-13.06-149.45-50.75-174-8Z"/>
      <path class="cls-3" d="m731.09,113.24c.06,3.91,13.62,9.23,25,7,4.85-.95,11.9-4.63,26-12,1.68-.88,5.96-3.13,12-4,0,0,2.8-.4,5.75-.34,9.06.19,18.99,4.98,29.25,10.34,9.11,4.76,13.66,7.14,20,11,11.74,7.15,11.67,8.38,19,12,6.8,3.36,14.14,6.9,24,7,4.1.04,9.99.1,16-3,14.12-7.3,21.32-28.18,15-36-2.7-3.34-8.62-5.24-11-6-3.12-1-5.21-1.15-7-1-1.58.13-5.28.43-7,3-.69,1.03-.34,1.36-1,3-1.02,2.55-2.56,3.52-5,6-3.48,3.54-2.81,4.08-5,6,0,0-3.59,3.14-9,4-8.05,1.28-14.24-6.02-22-11-7.15-4.59-15.1-5.72-31-8-37.06-5.31-94.12,3.94-94,12Z"/>
      <path class="cls-3" d="m922.09,117.24c3.32-1.71,3.58-6.94,4-15,.38-7.29.78-17.64-5-29-3.64-7.15-6.68-13.13-12-14-9.11-1.49-12.98,14.01-25,15-12.52,1.03-23.44-14.54-25-13-1.07,1.05,5.52,6.9,7,17,.4,2.7,1.62,11.01-3,15-4.88,4.22-13.7,1.38-18,0-8.68-2.79-9.25-6.41-16-7-1.44-.13-8.15-.55-14,4-4.64,3.61-6.18,8.37-7,11-2.17,7.01-2.6,18.65,3,22,4.24,2.54,8.02-2.02,20-5,13.85-3.45,26.17-1.69,31-1,14.93,2.13,18.23,6.85,26,4,7.3-2.68,7.32-7.91,14-9,9.27-1.51,14.9,7.64,20,5Z"/>
      <path class="cls-4" d="m689.09,54.24c-1.67-1.73-7.29-7.66-13-17-2.78-4.55-4.3-7.81-3-10,.57-.95,1.49-1.4,3-2,6.97-2.74,11-3,11-3,12-.77,15.37-4.05,44-5,11.47-.38,26.51-.82,27,2,.19,1.06-1.84,1.63-7,6-5.09,4.32-8.32,8.17-9,9-1.28,1.54-.99,1.36-7,10-4.33,6.23-4.93,6.97-6,8-2.91,2.8-5.68,4.26-9,6-2.53,1.33-5.62,2.93-10,4-3.32.81-6.03,1.48-9,1-1.7-.27-4.35-1.06-12-9Z"/>
      <path class="cls-4" d="m690.09,58.24c-3.43,1.66-4.68,3.51-5,4-2.78,4.33-1.45,10.27,1,14,2.5,3.8,6.14,5.28,8,6,1.55.6,8.54,3.32,14,0,6.85-4.17,9.04-16.51,3-23-7.03-7.55-19.92-1.53-21-1Z"/>
      <path class="cls-5" d="m850.09,87.24c.54-.59,2.17,1.09,5,1,2.6-.09,4.53-1.63,5-2,2.83-2.26,2.68-4.94,4-5,1.48-.07,3.61,3.21,3,6-.75,3.47-5.4,4.61-7,5-1.21.3-5.21,1.28-8-1-1.59-1.3-2.52-3.43-2-4Z"/>
      <path class="cls-4" d="m721.09,87.24c4.62.14,12.01.55,21,2,5.71.92,32.84,5.29,33,12,.03,1.06-.64,1.79-3,4-13.04,12.17-17.1,12.61-24,20-2.15,2.3-4.1,4.77-8,7-3.49,2-6.14,2.75-8,3-2.02.27-3.43.12-5,0-4.7-.36-3.55.14-14,0-5.55-.08-8.92-.26-13-1-3.55-.64-5.33-.99-6-2-.86-1.3-.83-3.61,9-19,6.17-9.65,6.71-9.62,8-13,.91-2.41,1.65-5.08,4-8,2.03-2.52,4.33-4.07,6-5Z"/>
      <path class="cls-10" d="m769.09,103.24c-6.35.39-14.62,1.42-24,4-2.53.69-11.76,3.32-23,9-6.13,3.09-13.82,7.58-22,14"/>
    </g>
    <g id="pied-droit">
      <g>
        <path class="cls-7" d="m393.09,68.24c.89-4.01-7.91-11.13-16-11-3.79.06-4.95,1.68-14,6-1.54.74-6.69,2.82-17,7-17.61,7.14-16.44,6.41-20,8-5.74,2.56-17.33,7.83-29,18-7.03,6.13-14.49,12.77-19,24-2.16,5.39-4.71,11.72-3,19,1.04,4.44,2.93,6.08,4,12,.97,5.35.11,7.78,0,13-.06,2.9-.04,13.27,5,24,1.77,3.77,4.98,10.6,12,16,5.67,4.36,9,4.07,17,10,.38.28,4.77,3.56,9,8,13.15,13.81,11.44,24.9,17,26,9.57,1.89,27.56-28.44,26-48-.14-1.72-.72-7.07-1-15-.33-9.41.11-12.59,0-17-.15-5.78-1.17-10.44-12-38-3.6-9.17-8.14-12.57-8-20,.08-4.49,1.48-8.55,3-13,.65-1.89,3.53-10.29,7-15,10.81-14.65,37.53-7.37,39-14Z"/>
        <path class="cls-9" d="m347.09,216.24c-6.14-.01-10.6,1.51-15,3-6.18,2.1-10.78,4.76-14,7-5.68,3.95-7.34,6.74-8,8-1.16,2.23-.54,2.26-2,6-1.2,3.07-3.03,7.64-7,11-1.78,1.51-2.23,1.28-5,3-7.36,4.57-11.46,10.66-13,13-2.32,3.53-4.27,6.48-5,11-.43,2.65-1.31,8.09,2,12,2.85,3.37,7.41,3.93,8,4,4.32.48,6.77-1.63,9,0,1.37,1,1.07,2.25,2,4,2.45,4.6,9.52,5.39,15,6,4.69.52,9.33,1.04,15-1,1.84-.66,9-3.24,13-10,4.82-8.15,2.44-17.97,3-18,.44-.02.05,6.19,3,13,2.52,5.82,6.33,9.45,8,11,1.75,1.63,5.31,4.88,11,7,2.42.9,9.62,3.23,18,1,3.96-1.05,7.52-2,9-5,1.57-3.18-.32-6.39,2-9,1.13-1.27,2.43-1.49,4-2,5.62-1.84,10.47-6.14,12-9,1.91-3.58,0-7.5-5-18-12.49-26.25-12.79-27.51-16-30-3.92-3.03-3.79-1.39-19-10-3.83-2.17-6.12-3.56-10-5-3.08-1.14-8.22-2.99-15-3Z"/>
        <path class="cls-3" d="m309.09,279.24c-1.95.33-3.07,2.42-5,6-.86,1.61-2.29,4.31-3,8-1.44,7.51.25,18.29,4,19,4.12.78,9.24-10.86,11-16,1.63-4.76,1.48-7.18,1-9-1.11-4.2-4.86-8.52-8-8Z"/>
        <path class="cls-3" d="m285.09,271.24c-1.16.58-2.94,1.9-5,9-1.91,6.55-2.96,10.19-2,15,1.01,5.03,4.03,10.31,6,10,1.41-.22,1.11-3.11,4-9,1.94-3.95,2.58-3.69,4-7,.89-2.06,2.55-6.06,2-11-.28-2.49-.62-5.56-3-7-1.87-1.13-4.32-.84-6,0Z"/>
        <path class="cls-3" d="m381.09,281.24c-3.08,1.18-2.13,10.71-2,12,.25,2.5.64,3.25,3,11,2.83,9.3,3.34,11.7,5,12,2.17.39,4.47-3.17,5-4,5.26-8.17.44-19.05,0-20-2.66-5.78-8.16-12.09-11-11Z"/>
        <path class="cls-3" d="m402.09,269.24c-3.2,1.25-2.59,10.09-2,14,.19,1.28,1.13,4.2,3,10,2.86,8.86,3.63,10.87,5,11,1.68.16,3.23-2.61,4-4,.59-1.06,2.49-4.76,2-12-.3-4.39-.7-10.26-5-15-.82-.91-4.51-4.97-7-4Z"/>
      </g>
      <path class="cls-10" d="m296.09,293.24c1.16-5.36,2.77-11.07,5-17,9.63-25.63,26.06-42.85,38-53"/>
      <path class="cls-9" d="m396.09,291.24c-1.36-5.29-3.28-11.03-6-17-10.21-22.45-26.33-36.42-37-44"/>
    </g>
    <g id="bras-droit">
      <path class="cls-7" d="m567.09,172.24c-8.19,2.56-19.87,9.17-28,16-5.08,4.27-8.36,7.09-10,12-1.11,3.31-.9,5.86-3,9-2.11,3.15-4.86,4.28-8,6,0,0-4.01,2.21-14,10-6.08,4.74-9.39,9.49-16,19-7.03,10.1-10.54,15.15-12,21-.2.79-4,16.84,3,27,15.92,23.09,85.99,13.24,101-11,1.88-3.04,7.41-13.59,19-18,3.78-1.44,6.35-1.52,10-2,12.94-1.71,26.04-6.74,34-12,8.54-5.64,22.39-18.95,22-33-.82-30.01-66.28-53.91-98-44Z"/>
      <path class="cls-7" d="m512.09,250.24c-9.15,3.51-18.05,6.92-25,16-7.23,9.45-12.85,25.7-6,37,3.14,5.18,8.43,7.45,19,12,15.54,6.69,29.76,8.59,40,9,7.09.29,13.37.54,21-1,20.21-4.08,47.73-20.28,47-40-.47-12.65-12.37-21.71-18-26-12.65-9.64-25.97-10.93-37-12-21.79-2.11-37.68,3.73-41,5Z"/>
      <path class="cls-9" d="m590.09,271.24c-13.99-.95-25.8,7.53-29,10-5.71,4.41-17.52,13.53-17,27,.45,11.73,9.98,19.45,12,21,6.06,4.64,14.95,7.6,23,8,4.32.21,8.12-.32,13,2,4.43,2.11,4.26,3.97,8,5,4.68,1.29,6.31-1.24,14-1,4.99.15,4.25,1.22,8,1,2.13-.13,9.96-.58,14-5,.52-.57,1.46-1.72,3-2,1.58-.28,2.53.59,4,1,2.3.65,4.27-.27,8-2,4.35-2.02,7.11-3.3,8-6,.92-2.8-.6-5.79,0-6,.4-.14.9,1.26,2,2,2.32,1.56,6.69.53,9-2,1.87-2.05,1.96-4.62,2-7,.17-9.19-5.71-15.69-6-16-3.44-3.69-7.17-5.13-12-7-7.11-2.75-8.1-1.31-15-4-3.46-1.35-6.64-3.23-13-7-7.06-4.18-6.73-4.52-10-6-4.31-1.96-7.86-2.72-14-4-4.13-.86-8.43-1.76-12-2Z"/>
      <path class="cls-3" d="m631.09,327.24c-.44.1-2.3.51-3,2-.15.32-.34.89,0,3,.23,1.4.45,2.76,1,4,1.97,4.43,7.48,5.87,8,6,2.09.51,6.84,1.13,8-1,.76-1.41-.4-3.34-2-6-1.14-1.89-3.11-5.07-7-7-1.27-.63-2.99-1.45-5-1Z"/>
      <path class="cls-3" d="m650.09,319.24c-.42.2-2.24,1.06-3,3-.83,2.11.13,4.15,1,6,.52,1.11,1.58,3.36,4,5,1.39.94,3.6,1.3,8,2,3.85.62,4.59.48,5,0,.51-.61.47-1.71-1-5-2.76-6.19-4.29-9.62-8-11-.66-.25-3.35-1.25-6,0Z"/>
      <path class="cls-3" d="m664.09,306.24c-.53.17-1.99.63-3,2-1.11,1.51-1.04,3.24-1,4,.2,3.52,2.82,5.92,4,7,3.46,3.16,7.41,3.78,9,4,2.81.4,8.96.61,10-2,.17-.41.48-1.6-2-5-4.07-5.59-11.67-11.69-17-10Z"/>
      <path class="cls-3" d="m480.09,297.24c1.17-.01,5.52.16,13,8,.5.53,1,1.07,5,6,7.94,9.79,9.91,12.5,9,14-.39.65-1.18.82-2,1-.81.17-4.31.77-11-5-3.34-2.88-2.37-2.94-9-10-1.03-1.1-2.9-3.06-5-6-3.81-5.34-3.22-6.64-3-7,.59-.95,2.13-.99,3-1Z"/>
      <path class="cls-3" d="m505.09,315.24c-.66,1.15.53,3,2,5,3.5,4.75,5.26,7.13,9,10,7.41,5.68,17.05,10.36,18,9,.22-.32-.15-.81-4-6-5.21-7.01-5.28-7.14-6-8-4.39-5.28-7.13-7.36-8-8-2.3-1.69-4.41-2.82-7-3-.86-.06-3.3-.23-4,1Z"/>
      <path class="cls-3" d="m531.09,319.24c-1.4-.06-3.32-.12-4,1-.84,1.38.76,3.66,1,4,1.26,1.79,2.73,2.23,6,4,3.34,1.81,2.8,1.89,5,3,4.02,2.02,7.56,2.61,10,3,.86.14,9.56,1.52,10,0,.24-.82-2.15-1.76-9-6-1.82-1.13-6.16-3.85-12-7-.88-.48-3.5-1.85-7-2Z"/>
      <path class="cls-10" d="m647.09,336.24c-1.85-6.14-4.4-11.08-7-15-19.79-29.8-62.25-30.06-69-30"/>
      <path class="cls-10" d="m667.09,325.24c-4.16-6.86-10.51-15.33-20-23-25.56-20.66-55.27-20.48-65-20"/>
    </g>
    <g id="main-gauche">
      <path class="cls-7" d="m689.09,213.24c-3.48,5.08-4.32,13.06-6,29-1.39,13.21-2.54,25.48,4,30,1.76,1.22,4.51,1.48,10,2,9.27.88,16.46.16,18,0,20.74-2.19,31.1-3.28,33-4,2.96-1.13,17.85-7.08,27-22,2.47-4.03,4.77-7.77,5-13,.57-12.73-11.62-22.33-15-25-21.8-17.19-62.52-16.68-76,3Z"/>
      <path class="cls-9" d="m728.09,223.24c-8.09,4.52-19.92,15.07-19,26,.69,8.21,8.28,13.03,6,21-.73,2.56-2.49,4.37-6,8-6.67,6.88-11.74,8.97-20,15-10.12,7.39-11.38,8.06-12,10-2.27,7.05,3.34,17.44,10,19,4.59,1.08,8.45-2.33,11,0,2.02,1.84.47,4.78,3,7,.6.53,2.41,1.03,6,2,4.47,1.21,5.05,1.23,6,2,1.9,1.54,1.62,3.1,3,5,2.6,3.58,7.9,3.93,9,4,6.21.4,12.04-3.57,20-9,1.4-.95,3.2-2.25,6-3,4.21-1.13,7.73-.25,9,0,6.35,1.26,12.9-2.16,26-9,7.84-4.09,12.74-7.78,21-14,8.42-6.34,10.02-8.47,11-10,5.22-8.14,4.36-17.18,4-21-1.37-14.53-9.97-24.29-15-30-2.75-3.12-10.59-11.48-24-18-9.26-4.5-34.19-16.62-55-5Z"/>
      <path class="cls-3" d="m701.09,316.24c-.71.26-.9.55-3,3-3.38,3.93-4.39,4.92-5,7-.29.99-.65,2.28,0,3,.53.58,1.56.6,4,0,4.75-1.18,7.12-1.77,9-4,.77-.91,2.91-3.45,2-6-.93-2.62-4.61-3.87-7-3Z"/>
      <path class="cls-3" d="m692.09,306.24c-4.08-.09-6.76,3.57-10,8-1.81,2.47-4.17,5.7-3,8,.69,1.36,2.32,1.81,3,2,5.61,1.54,11.44-4.41,13-6,2.44-2.49,4.44-4.53,4-7-.51-2.85-4.01-4.93-7-5Z"/>
      <path class="cls-3" d="m808.09,301.24c-1.72-1.31-5.22.58-6,1-.58.31-2.68,1.52-4,4-.72,1.34-.91,2.51-1,3-1.22,6.59-6.2,11.81-5,13,1,1,5.32-1.88,7-3,2.79-1.86,5.96-3.97,8-8,1.56-3.08,3.05-8.44,1-10Z"/>
      <path class="cls-3" d="m810.09,299.24c-1.38,6.47-.52,14.4,2,15,2.58.62,6.3-6.64,7-8,.89-1.73,2.85-6.01,3-12,.07-2.65.23-9.33-2-10-2.63-.79-8.27,6.86-10,15Z"/>
      <path class="cls-10" d="m694.09,321.24c7.57-8.09,19.05-18.64,35-28,16.16-9.48,31.16-14.36,42-17"/>
      <path class="cls-10" d="m714.09,332.24c5.88-4.99,12.53-10.08,20-15,21.76-14.34,42.98-22.35,60-27"/>
    </g>
    <g>
      <circle class="cls-2" cx="816.59" cy="58.74" r="12"/>
      <circle class="cls-12" cx="816.59" cy="58.74" r="9"/>
      <circle cx="819.59" cy="58.74" r="6"/>
      <circle class="cls-1" cx="816.59" cy="58.74" r="3"/>
    </g>
  </g>
</svg>