<?xml version="1.0" encoding="UTF-8"?>
<svg id="Calque_2" data-name="Calque 2" xmlns="http://www.w3.org/2000/svg" viewBox="0 0 1195.19 304.74">
  <defs>
    <style>
      .cls-1 {
        fill: #8aa4ff;
      }

      .cls-2 {
        fill: #fff;
      }

      .cls-3 {
        fill: #f7ff94;
      }

      .cls-4 {
        fill: #3f70c6;
      }

      .cls-5 {
        fill: #3f9bff;
      }

      .cls-6 {
        fill: #3fffc6;
      }

      .cls-7 {
        fill: #fffcdf;
      }

      .cls-8 {
        fill: #8abbff;
      }
    </style>
  </defs>
  <g id="Calque_1-2" data-name="Calque 1">
    <g>
      <path class="cls-8" d="m216.42,76.85c-3.88,5.9-6.17,12.81-1.56,57.85,5.81,56.77,11.44,65.34,18.76,68.79,4.3,2.03,11.21,1.35,25.02,0,16.44-1.61,19.68-4.42,35.96-6.25,14.66-1.65,21.99-2.47,29.71,0,14.56,4.66,16.08,14.49,29.71,21.89,11.3,6.13,22.78,6.17,39.09,4.69,41.73-3.8,80.91-14.46,101.63-20.33,45.71-12.94,63.11-19.95,79.74-10.94,4.47,2.42,11.27,7.29,20.33,6.25,8.94-1.02,13.38-7.03,26.58-17.2,0,0,4.81-3.71,23.45-15.63,20.19-12.92,43.2-13.01,65.67-14.07,57.42-2.72,44.72-8.69,101.63-10.94,21.65-.86,49.35.47,104.75,3.13,46.96,2.25,59.98,3.93,76.61,10.94,20.03,8.45,23.5,15.45,40.65,18.76,21.27,4.11,37.83-2.44,67.23-14.07,9.58-3.79,44.15-18.04,78.17-50.03,14.25-13.4,15.74-18,15.63-21.89-.55-20.96-47.9-47.03-85.99-37.52-35.64,8.89-55.36,46.96-62.54,42.21-5.76-3.81,6-29,1.56-31.27-5.52-2.82-28.11,33.8-32.83,31.27-4.1-2.2,9.7-31.39,4.69-34.4-5.92-3.55-32.36,33-37.52,29.71-4.03-2.57,9.17-26.63,4.69-29.71-5.96-4.09-36.11,33.82-42.21,29.71-5.1-3.43,10.21-33.78,6.25-35.96-4.12-2.27-21.11,30.29-39.09,28.14-1.18-.14-4.89-.58-6.25-3.13-3.71-6.91,13.68-22.21,12.51-23.45-1.54-1.64-30.75,26.05-35.96,21.89-3.62-2.89,6.65-19.27,3.13-21.89-4.73-3.53-27.1,23.26-34.4,18.76-5.12-3.15,1.96-18.72-3.13-21.89-7.49-4.68-31.47,23.76-35.96,20.33-3.41-2.61,8.1-20.87,4.69-23.45-4.08-3.09-25.2,19.68-28.14,17.2-2.26-1.91,8.56-16.78,6.25-18.76-3.28-2.83-28.69,24.49-34.4,20.33-3.54-2.59,2.99-15.48,0-17.2-4.05-2.33-19.12,19.58-23.45,17.2-3.67-2.02,4.04-19.51,0-21.89-4.78-2.82-20.23,18.94-26.58,15.63-4.22-2.2-.32-13.36-4.69-15.63-6.11-3.19-19.6,15.58-25.02,12.51-3.91-2.22.67-13.4-3.13-15.63-6.03-3.55-24.45,20.5-29.71,17.2-3.51-2.2,2.51-14.28-1.56-17.2-5.38-3.86-21.4,13.22-26.58,9.38-3.72-2.76,1.65-13.78-1.56-15.63-4.12-2.37-14.35,14.87-25.02,12.51-2.29-.51-5.32-2.08-6.25-4.69-1.64-4.6,4.29-9.41,3.13-10.94-2.18-2.89-24.95,11.6-26.58,9.38-1.15-1.57,9.36-9.89,7.82-12.51-2.21-3.74-26.04,9.44-31.27,3.13-3.1-3.75,2.89-11.28,0-14.07-4.8-4.62-25.45,12.11-29.71,7.82-2.78-2.8,3.97-11.97,1.56-14.07-3.95-3.45-25.42,18.37-31.27,14.07-3.68-2.71,1.74-13.67-1.56-15.63-4.67-2.79-19.96,16.5-23.45,14.07-2.1-1.46,2.26-9.23,0-10.94-3.79-2.87-20.17,15.74-25.02,12.51-3.24-2.16,1.53-12.2-1.56-14.07-4.38-2.65-16.88,15.68-25.02,12.51-4.51-1.76-3.8-8.62-7.82-9.38-5.55-1.04-8.64,11.71-17.2,12.51-6.95.65-9.47-7.33-15.63-6.25-7.7,1.34-8,14.56-15.63,15.63-5.62.79-8.32-5.96-14.07-4.69-4.87,1.07-4.15,6.18-9.38,9.38-8.5,5.2-16.65-4.47-28.14,0-6.29,2.44-5.41,5.95-12.51,9.38-8.86,4.29-16.36,1.81-23.45,1.56-18.31-.68-36.21,13.45-43.8,24.97Z"/>
      <path class="cls-1" d="m216.42,67.47c-3.88,5.9-6.17,12.81-1.56,57.85,5.81,56.77,11.44,65.34,18.76,68.79,4.3,2.03,11.21,1.35,25.02,0,16.44-1.61,19.68-4.42,35.96-6.25,14.66-1.65,21.99-2.47,29.71,0,14.56,4.66,16.08,14.49,29.71,21.89,11.3,6.13,22.78,6.17,39.09,4.69,41.73-3.8,80.91-14.46,101.63-20.33,45.71-12.94,63.11-19.95,79.74-10.94,4.47,2.42,11.27,7.29,20.33,6.25,8.94-1.02,13.38-7.03,26.58-17.2,0,0,4.81-3.71,23.45-15.63,20.19-12.92,43.2-13.01,65.67-14.07,57.42-2.72,44.72-8.69,101.63-10.94,21.65-.86,49.35.47,104.75,3.13,46.96,2.25,59.98,3.93,76.61,10.94,20.03,8.45,23.5,15.45,40.65,18.76,21.27,4.11,37.83-2.44,67.23-14.07,9.58-3.79,44.15-18.04,78.17-50.03,14.25-13.4,15.74-18,15.63-21.89-.55-20.96-47.9-47.03-85.99-37.52-35.64,8.89-55.36,46.96-62.54,42.21-5.76-3.81,6-29,1.56-31.27-5.52-2.82-28.11,33.8-32.83,31.27-4.1-2.2,9.7-31.39,4.69-34.4-5.92-3.55-32.36,33-37.52,29.71-4.03-2.57,9.17-26.63,4.69-29.71-5.96-4.09-36.11,33.82-42.21,29.71-5.1-3.43,10.21-33.78,6.25-35.96-4.12-2.27-21.11,30.29-39.09,28.14-1.18-.14-4.89-.58-6.25-3.13-3.71-6.91,13.68-22.21,12.51-23.45-1.54-1.64-30.75,26.05-35.96,21.89-3.62-2.89,6.65-19.27,3.13-21.89-4.73-3.53-27.1,23.26-34.4,18.76-5.12-3.15,1.96-18.72-3.13-21.89-7.49-4.68-31.47,23.76-35.96,20.33-3.41-2.61,8.1-20.87,4.69-23.45-4.08-3.09-25.2,19.68-28.14,17.2-2.26-1.91,8.56-16.78,6.25-18.76-3.28-2.83-28.69,24.49-34.4,20.33-3.54-2.59,2.99-15.48,0-17.2-4.05-2.33-19.12,19.58-23.45,17.2-3.67-2.02,4.04-19.51,0-21.89-4.78-2.82-20.23,18.94-26.58,15.63-4.22-2.2-.32-13.36-4.69-15.63-6.11-3.19-19.6,15.58-25.02,12.51-3.91-2.22.67-13.4-3.13-15.63-6.03-3.55-24.45,20.5-29.71,17.2-3.51-2.2,2.51-14.28-1.56-17.2-5.38-3.86-21.4,13.22-26.58,9.38-3.72-2.76,1.65-13.78-1.56-15.63-4.12-2.37-14.35,14.87-25.02,12.51-2.29-.51-5.32-2.08-6.25-4.69-1.64-4.6,4.29-9.41,3.13-10.94-2.18-2.89-24.95,11.6-26.58,9.38-1.15-1.57,9.36-9.89,7.82-12.51-2.21-3.74-26.04,9.44-31.27,3.13-3.1-3.75,2.89-11.28,0-14.07-4.8-4.62-25.45,12.11-29.71,7.82-2.78-2.8,3.97-11.97,1.56-14.07-3.95-3.45-25.42,18.37-31.27,14.07-3.68-2.71,1.74-13.67-1.56-15.63-4.67-2.79-19.96,16.5-23.45,14.07-2.1-1.46,2.26-9.23,0-10.94-3.79-2.87-20.17,15.74-25.02,12.51-3.24-2.16,1.53-12.2-1.56-14.07-4.38-2.65-16.88,15.68-25.02,12.51-4.51-1.76-3.8-8.62-7.82-9.38-5.55-1.04-8.64,11.71-17.2,12.51-6.95.65-9.47-7.33-15.63-6.25-7.7,1.34-8,14.56-15.63,15.63-5.62.79-8.32-5.96-14.07-4.69-4.87,1.07-4.15,6.18-9.38,9.38-8.5,5.2-16.65-4.47-28.14,0-6.29,2.44-5.41,5.95-12.51,9.38-8.86,4.29-16.36,1.81-23.45,1.56-18.31-.68-36.21,13.45-43.8,24.97Z"/>
    </g>
    <path id="n-d" class="cls-5" d="m386.91,187.28c-7.15-7.55-4.79-12.99-10.15-18.61-8.83-9.26-26.63-6.42-35.53-3.38-3.92,1.34-14.7,5.01-20.3,15.23-3.66,6.68-3.51,13.25-3.38,16.92,1.41,40.29,2.11,60.43,5.08,65.99,12.23,22.93,39.29,29.48,64.3,35.53,47.24,11.43,102.01,4.79,104.91-10.15.71-3.66-2.19-5.28-16.92-22-25.53-28.97-21.68-29.63-35.53-42.3-15.87-14.51-25.58-23.4-38.92-28.77-3.02-1.21-8.56-3.19-13.56-8.46Z"/>
    <path id="n-g" class="cls-5" d="m632.72,140.59c-7.51-9.04-21.62-8.53-23.69-8.46-12.65.45-26.56,8-32.15,20.3-7.3,16.07,2.78,33.17,10.15,45.69,10.86,18.43,25.72,30.92,43.99,42.3,40.87,25.45,100.57,46.41,109.98,32.15,4.77-7.23-3.85-22.77-10.15-30.46-8.3-10.12-13.41-7.62-22-16.92-12.28-13.3-5.9-22.83-18.61-42.3-5.92-9.06-11.44-17.52-22-22-12.46-5.28-23.68-1.53-30.46-10.15-3.15-4.03-1.55-5.92-5.06-10.15Z"/>
    <path id="machoire-inf" class="cls-7" d="m237.99,136.28c11.35,6.84,17.81,12.86,20.33,21.38,4.93,16.66-6.73,37.77-22.56,44.56-7.33,3.14-13.07,2.15-32.02-.58-16.55-2.38-33.21-4.01-49.69-6.78-44.76-7.51-67.14-11.26-90.76-11.19-14.78.04-29.69,1.18-45.26-8.02C11.89,172.02.11,165.07,0,156.81c-.28-22.83,88.77-46.08,161.41-43.66,4.18.14,41.16,1.78,76.58,23.13Z"/>
    <g id="machoire-sup">
      <path class="cls-3" d="m54.48,130.56l-8.16-.05-.12,17.68c-.03,4.26,3.4,7.73,7.66,7.76h0c.25,0,.45-.2.46-.45l.16-24.94Z"/>
      <path class="cls-3" d="m75.16,130.41l-8.16-.05-.12,17.68c-.03,4.26,3.4,7.73,7.66,7.76h0c.25,0,.45-.2.46-.45l.16-24.94Z"/>
      <path class="cls-3" d="m95.58,129.39l-8.16-.05-.12,17.68c-.03,4.26,3.4,7.73,7.66,7.76h0c.25,0,.45-.2.46-.45l.16-24.94Z"/>
      <path class="cls-3" d="m114.51,129.73l-8.16-.05-.12,17.68c-.03,4.26,3.4,7.73,7.66,7.76h0c.25,0,.45-.2.46-.45l.16-24.94Z"/>
      <path class="cls-3" d="m133.44,130.07l-8.16-.05-.12,17.68c-.03,4.26,3.4,7.73,7.66,7.76h0c.25,0,.45-.2.46-.45l.16-24.94Z"/>
      <path class="cls-3" d="m152.36,130.42l-8.16-.05-.12,17.68c-.03,4.26,3.4,7.73,7.66,7.76h0c.25,0,.45-.2.46-.45l.16-24.94Z"/>
      <path class="cls-3" d="m171.29,130.76l-8.16-.05-.12,17.68c-.03,4.26,3.4,7.73,7.66,7.76h0c.25,0,.45-.2.46-.45l.16-24.94Z"/>
      <path class="cls-3" d="m190.22,131.1l-8.16-.05-.12,17.68c-.03,4.26,3.4,7.73,7.66,7.76h0c.25,0,.45-.2.46-.45l.16-24.94Z"/>
      <path class="cls-3" d="m34.2,128.71l-8.16-.05-.12,17.68c-.03,4.26,3.4,7.73,7.66,7.76h0c.25,0,.45-.2.46-.45l.16-24.94Z"/>
      <path class="cls-1" d="m237.85,78.97c-.96-2.66-10.95-29.26-29.55-31.54-9.78-1.2-13.1,5.4-31.67,12.06-14.71,5.28-22,4.5-36.28,6.98-13.1,2.28-27.44,8.79-56.36,20.58-20.88,8.52-21.2,9.36-35.68,14.78-10.1,3.79-19.65,9.36-30.19,11.65-3.77.82-7.85,1.47-11.4,4.79-5.5,5.14-7.39,14.51-5.78,19.15,5.34,15.46,57.68,1.97,140.74,1.96,54.9-.01,79.02,5.89,92.35-11.55,10.63-13.91,8.74-35.29,3.82-48.86Z"/>
    </g>
    <g>
      <circle class="cls-4" cx="186.11" cy="96.38" r="13.94"/>
      <circle class="cls-6" cx="186.11" cy="96.38" r="10.46"/>
      <circle cx="182.62" cy="96.38" r="6.97"/>
      <circle class="cls-2" cx="186.11" cy="96.38" r="3.49"/>
    </g>
  </g>
</svg>