<?xml version="1.0" encoding="UTF-8"?>
<svg id="Calque_2" data-name="Calque 2" xmlns="http://www.w3.org/2000/svg" viewBox="0 0 1074.15 514.86">
  <defs>
    <style>
      .cls-1 {
        fill: #246a75;
      }

      .cls-2 {
        fill: #fff;
      }

      .cls-3 {
        fill: #235964;
      }

      .cls-4 {
        fill: #59802d;
      }

      .cls-5 {
        fill: #57802b;
      }

      .cls-6 {
        fill: #40a282;
      }

      .cls-7 {
        fill: #3f70c6;
      }

      .cls-8 {
        fill: #245966;
      }

      .cls-9 {
        fill: #4c2354;
      }

      .cls-10 {
        fill: #852354;
      }

      .cls-11 {
        fill: #248776;
      }

      .cls-12 {
        fill: #244859;
      }

      .cls-13 {
        fill: #266b46;
      }

      .cls-14 {
        fill: #3fffc6;
      }

      .cls-15 {
        fill: #8c234e;
      }

      .cls-16 {
        fill: #236c49;
      }

      .cls-17 {
        fill: #a72a44;
      }

      .cls-18 {
        fill: #c4a43b;
      }

      .cls-19 {
        fill: #652456;
      }

      .cls-20 {
        fill: #5f8f23;
      }

      .cls-21 {
        fill: #a82b4b;
      }

      .cls-22 {
        fill: #244959;
      }

      .cls-23 {
        fill: #3da084;
      }
    </style>
  </defs>
  <g id="Calque_1-2" data-name="Calque 1">
    <g id="corps">
      <path class="cls-15" d="m813.07,279.8c2.54-40.33-32.22-71.31-41.45-79.7-3.65-3.32-11.12-9.73-22.74-16.59-36.14-21.32-74.35-22.94-116.04-24.69-34.25-1.44-34.55,2.15-122.21,7.41-70.61,4.23-105.91,6.35-120.98,2.47-28.18-7.25-57.89-6.59-86.41-12.34-4.76-.96-15.16-3.13-23.45,2.47-11.29,7.62-12.88,25.74-11.11,37.03,4.16,26.58,31.22,42.85,46.91,51.85,74.91,42.94,146.36,66.51,154.31,69.13,127.54,42.08,131.75,45.6,161.71,49.38,50.06,6.32,101.41,12.04,141.96-19.75,6.26-4.93,37.13-29.13,39.5-66.67Z"/>
      <path class="cls-21" d="m510.63,164.99c-70.61,4.23-105.91,6.35-120.98,2.47-28.18-7.25-57.89-6.59-86.41-12.34-4.76-.96-15.16-3.13-23.45,2.47-11.29,7.62-12.88,25.74-11.11,37.03,4.16,26.58,31.22,42.85,46.91,51.85,74.91,42.94,146.36,66.51,154.31,69.13,127.53,42.08,128.39-155.86,40.73-150.61Z"/>
      <path class="cls-20" d="m985.89,182.28c-9.77-6.54-21.86-5.14-23.45-4.94-8.3,1.07-13.5,4.85-20.99,9.88-12.42,8.34-25.69,15.36-38.27,23.45-12.35,7.95-22.78,14.66-35.8,22.22-32.72,18.99-39.67,18.86-44.44,17.28-9.82-3.24-11.58-12.96-18.52-23.45-16.9-25.59-48.87-32.11-85.18-39.5-8.97-1.83-29.6-5.6-91.35-4.94-34.65.37-48.03,1.78-109.87,4.94-60.8,3.11-91.6,4.64-111.1,3.7-27.13-1.3-63.79-3.28-108.63-16.05-7.2-2.05-33.91-9.46-65.43-23.45C120.66,101.57,5.24-5.07.18.19c-4.58,4.77,77.25,106.37,191.96,187.02,60.69,42.66,124.44,75.15,129.62,77.77,9.18,4.64,38.35,19.55,77.77,35.8,39.37,16.23,41.17,15.37,86.41,33.33,60.34,23.95,65.36,28.75,92.58,35.8,15.49,4.01,41.96,10.69,76.54,11.11,39.9.48,72.27-8.32,137.02-25.92,11.21-3.05,24.68-6.93,40.74-12.34,32.54-10.98,56.78-22.22,56.78-22.22,20.99-9.73,72.59-33.65,73.45-57.4.07-1.81-.14-4.32,1.23-7.41,5.21-11.7,22.28-7.38,31.48-16.66,11.88-11.99,8.59-44.44-9.87-56.79Z"/>
      <path class="cls-5" d="m455.08,212.29c-6.67,6.05-25.03,24.88-23.45,48.45,1.55,23.05,21.52,41.15,35.8,54.09,3.3,2.99,13.1,11.61,25.92,19.16,12.98,7.63,54.36,29.03,161.71,23.66,58.93-2.95,88.75-4.76,106.16-21.41,24.73-23.65,31.06-65.56,13.58-93.52-16.66-26.65-58.24-32.4-140.73-42.82-93.1-11.76-145.8-17.72-178.99,12.39Z"/>
      <path class="cls-8" d="m643.95,173.63c-21.8,2.52-38.09,9.64-46.91,13.58-16.4,7.31-35.37,15.77-50.61,35.8-5.34,7.01-16.44,22-18.52,44.44-.58,6.26-2.17,31.73,14.81,54.32,12.58,16.72,28.67,23,45.67,29.63,17.89,6.97,34.65,9.8,54.32,11.11,55.26,3.68,87.66,5.84,117.27-14.81,3.22-2.25,47.84-34.34,43.21-79-3.56-34.25-33.81-54.07-56.78-69.13-14.69-9.63-53.44-31.62-102.46-25.94Z"/>
      <path class="cls-12" d="m661.85,295.23c-10.89,7.73-18.52,16.05-18.52,16.05-9.43,10.27-10.06,15.04-16.05,17.28-9.58,3.59-22.49-3.15-29.63-11.11-12.21-13.63-9.5-33.1-7.41-48.14,1.64-11.75,5.55-37.18,27.16-59.25,18.51-18.91,40-25.14,51.63-27.37,1.79-.34,3.9-.71,6.38-1.02,19.79-2.49,30.02,2.15,66.66,11.11,9.11,2.23,18.14,4.81,27.16,7.41,62.06,17.88,93.08,26.82,114.8,22.22,41.9-8.87,52.24-46.59,70.36-39.5,16.31,6.37,23.1,41.5,12.34,65.43-4.27,9.51-9.91,15.44-20.99,24.69-16.04,13.39-32.15,22.69-49.38,30.86-22.67,10.76-35.05,16.63-51.85,19.75-23.93,4.45-42.4.62-67.89-4.94-61.34-13.39-95.07-37.47-114.77-23.47Z"/>
      <path class="cls-18" d="m762.45,213.14c-.26,2.1.53,4.64,2.47,6.17,2.6,2.05,6.28,1.51,8.64,0,3.59-2.31,3.7-6.61,3.7-7.41,0-.63,0-4.67-2.47-6.17-3.69-2.25-11.67,1.94-12.34,7.41Z"/>
      <path class="cls-18" d="m820.47,302.02c-.26,2.1.53,4.64,2.47,6.17,2.6,2.05,6.28,1.51,8.64,0,3.59-2.31,3.7-6.61,3.7-7.41,0-.64,0-4.67-2.47-6.17-3.69-2.25-11.67,1.94-12.34,7.41Z"/>
      <path class="cls-18" d="m777.27,285.97c-.26,2.1.53,4.64,2.47,6.17,2.6,2.05,6.28,1.51,8.64,0,3.59-2.31,3.7-6.61,3.7-7.41,0-.64,0-4.67-2.47-6.17-3.7-2.25-11.68,1.94-12.34,7.41Z"/>
      <path class="cls-18" d="m716.78,240.29c-.26,2.1.53,4.64,2.47,6.17,2.6,2.05,6.28,1.51,8.64,0,3.59-2.31,3.7-6.61,3.7-7.41,0-.64,0-4.67-2.47-6.17-3.7-2.24-11.67,1.94-12.34,7.41Z"/>
      <path class="cls-18" d="m748.87,255.11c-.26,2.1.53,4.64,2.47,6.17,2.6,2.05,6.28,1.51,8.64,0,3.59-2.31,3.7-6.61,3.7-7.41,0-.64,0-4.67-2.47-6.17-3.69-2.25-11.67,1.94-12.34,7.41Z"/>
      <path class="cls-18" d="m792.08,255.11c-.26,2.1.53,4.64,2.47,6.17,2.6,2.05,6.28,1.51,8.64,0,3.59-2.31,3.7-6.61,3.7-7.41,0-.64,0-4.67-2.47-6.17-3.7-2.25-11.67,1.94-12.34,7.41Z"/>
      <path class="cls-18" d="m651.35,247.7c-.26,2.1.53,4.64,2.47,6.17,2.6,2.05,6.28,1.51,8.64,0,3.59-2.31,3.7-6.61,3.7-7.41,0-.63,0-4.67-2.47-6.17-3.69-2.25-11.67,1.94-12.34,7.41Z"/>
      <path class="cls-18" d="m680.98,263.75c-.26,2.1.53,4.64,2.47,6.17,2.6,2.05,6.28,1.51,8.64,0,3.59-2.31,3.7-6.61,3.7-7.41,0-.63,0-4.67-2.47-6.17-3.7-2.25-11.67,1.94-12.34,7.41Z"/>
      <path class="cls-18" d="m713.08,205.73c-.26,2.1.53,4.64,2.47,6.17,2.6,2.05,6.28,1.51,8.64,0,3.59-2.31,3.7-6.61,3.7-7.41,0-.64,0-4.67-2.47-6.17-3.7-2.25-11.68,1.94-12.34,7.41Z"/>
      <path class="cls-18" d="m630.37,288.44c-.26,2.1.53,4.64,2.47,6.17,2.6,2.05,6.28,1.51,8.64,0,3.59-2.31,3.7-6.61,3.7-7.41,0-.64,0-4.67-2.47-6.17-3.7-2.25-11.67,1.94-12.34,7.41Z"/>
      <path class="cls-18" d="m634.07,220.54c-.26,2.1.53,4.64,2.47,6.17,2.6,2.05,6.28,1.51,8.64,0,3.59-2.31,3.7-6.61,3.7-7.41,0-.64,0-4.67-2.47-6.17-3.7-2.24-11.67,1.94-12.34,7.41Z"/>
      <path class="cls-18" d="m608.15,240.29c-.26,2.1.53,4.64,2.47,6.17,2.6,2.05,6.28,1.51,8.64,0,3.59-2.31,3.7-6.61,3.7-7.41,0-.64,0-4.67-2.47-6.17-3.7-2.24-11.67,1.94-12.34,7.41Z"/>
      <path class="cls-18" d="m713.69,186.6c-1.14-1.8-3.79-2.47-8.64-3.7-5.06-1.28-8.14-2.07-10.49-.62-3.9,2.4-.75,7.83-4.32,15.43-3.85,8.19-11.07,9.45-10.49,14.2.34,2.85,3.32,5.42,6.17,6.17,12.18,3.18,32.43-24.11,27.77-31.48Z"/>
      <path class="cls-18" d="m952.56,209.43c2.23,1.52,1.43,6.27,1.23,7.41-.29,1.74-1.08,4.26-3.7,7.41-3.37,4.03-7.09,5.9-9.88,7.41-1.38.75-7.92,5.03-20.99,13.58-7.58,4.96-9.97,6.77-13.58,6.17-3.33-.55-7.08-3.05-7.41-6.17-.09-.8-.09-3.01,4.94-7.41,5.28-4.62,7.96-4.52,14.81-8.64,4.24-2.55,2.88-2.38,13.58-9.88,1.48-1.04,5-3.48,9.88-6.17,8.84-4.87,10.51-4.12,11.12-3.71Z"/>
      <path class="cls-18" d="m876.02,255.11c-3.04.72-7.8,1.83-11.11,6.17-.62.81-4.27,5.6-2.47,8.64,1.3,2.19,4.77,2.39,6.17,2.47,2.21.12,3.79-.41,6.17-1.23,3.5-1.22,6.36-2.21,8.64-4.94,1.1-1.32,2.85-3.41,2.47-6.17-.31-2.23-1.9-4.07-3.7-4.94-.48-.23-2.13-.95-6.17,0Z"/>
      <path class="cls-18" d="m362.27,276.81c-1.88,3.63-6.35,5.06-9.98,3.18-8.33-3.97-16.65-7.95-24.98-11.92-8.64-4.53-17.28-9.05-25.92-13.58-.62-.75-1.65-2.22-2.11-4.33-.15-.68-.68-3.42.48-5.65,1.88-3.63,6.35-5.06,9.98-3.18,2.17,1.68,5.46,4.16,9.57,7.03,10.14,7.07,17.11,11.87,26.85,15.26,2.95,1.03,7.34,2.35,12.93,3.21,3.44,2.7,4.73,6.98,3.18,9.98Z"/>
      <path class="cls-18" d="m244.29,212.31c-2.27,3.4-6.87,4.32-10.27,2.05-7.83-4.87-15.67-9.75-23.5-14.62-8.09-5.46-16.17-10.92-24.26-16.37-.53-.81-1.4-2.39-1.61-4.54-.07-.7-.29-3.47,1.1-5.56,2.27-3.4,6.87-4.32,10.27-2.05,1.97,1.91,4.97,4.74,8.73,8.05,9.29,8.15,15.69,13.69,24.99,18.15,2.82,1.35,7.03,3.15,12.5,4.62,3.11,3.07,3.92,7.46,2.05,10.27Z"/>
    </g>
    <path id="epaule" class="cls-1" d="m714.31,262.51c-8.52,3.14-13.06,9.19-17.28,14.81-4.69,6.26-11.75,15.67-9.88,25.92,1.57,8.57,7.94,9.91,7.41,17.28-.23,3.16-3.04,7.08-8.64,14.81-7.25,10-8.98,10.71-9.88,14.81-1.88,8.59,3.46,15.73,3.7,16.05,4.18,5.41,10.02,6.86,12.34,7.41,9.96,2.32,18.63-2.29,23.45-4.94,12.47-6.86,10.03-12.34,25.92-23.45,5.23-3.66,8.57-5.21,11.11-9.88,2.73-5.02,1.93-8.86,2.47-17.28.9-14.12,3.85-14.09,3.7-22.22-.05-2.84-.72-20.07-14.81-29.63-8.65-5.86-20.02-7.22-29.61-3.69Z"/>
    <path id="bras" class="cls-11" d="m695.79,357.57c-3.17.48-7.65,1.22-11.11,4.94-2.73,2.94-3.47,6.28-3.7,7.41-1.07,5.16.91,8.18,3.7,17.28.9,2.93,2.52,8.2,3.7,14.81,1.61,8.97.91,12.04,3.7,17.28,1.12,2.1,2.76,5.09,6.17,7.41,6.12,4.15,13.05,2.81,14.81,2.47,1.67-.32,10.44-2.01,13.58-8.64,1.66-3.49.47-5.67-2.47-18.52-2.09-9.12-4.35-20.48-4.94-23.45-2.59-13.05-2.46-14.9-4.94-17.28-5.81-5.63-15.61-4.15-18.5-3.71Z"/>
    <path id="main" class="cls-23" d="m708.14,410.65c-.69.14-5.21,1.09-8.64,4.94-1.61,1.8-1.06,2.09-4.94,12.34-1.38,3.64-1.99,5.03-1.23,6.17,1.23,1.86,4.38.46,7.41,2.47,2.69,1.78,3.44,5.04,3.7,6.17,1.67,7.21-5.03,9.9-3.7,16.05,1.1,5.1,6.01,4.66,8.64,12.34.6,1.76.9,3.39,2.47,4.94,2.8,2.74,6.89,2.51,7.41,2.47,4-.29,6.63-2.93,7.41-3.7,2.46-2.47,4.23-6.27,3.7-25.92-.32-12.16-1.17-17.37-2.47-22.22-2.27-8.48-4.6-11.01-6.17-12.34-.67-.57-6.25-5.15-13.59-3.71Z"/>
    <g id="cuisse-droit">
      <path class="cls-13" d="m499.52,403.24c-2.29,6.68-.59,12.79,0,14.81.77,2.64,3.49,10.37,11.11,14.81,1.69.99,7.18,3.89,18.52,2.47,11.29-1.41,19.31-5.98,29.63-12.34,24.68-15.23,37.17-23.06,44.44-33.33,4.44-6.27,9.65-13.86,9.88-24.69.04-2.08.18-18.83-9.88-24.69-11.95-6.97-31.09,5.62-43.21,13.58-9.58,6.29-9.41,8.33-25.92,19.75-1.95,1.35-8.63,5.94-17.28,12.34-12.28,9.08-15.55,12.21-17.29,17.29Z"/>
      <path class="cls-6" d="m516.8,398.3c-7.42,1.55-11.3,10.06-12.34,12.34-4.02,8.82-2.06,17.43,0,25.92,2.24,9.25,5.72,16.26,11.11,27.16,6.37,12.86,9.17,15.75,8.64,22.22-.46,5.55-2.87,7.68-2.47,14.81.15,2.65.58,10.25,4.94,12.34,2.51,1.21,4.45-.31,9.88-1.23,1.15-.2,4.02-.63,13.58,0,18.98,1.26,26.18,4.19,39.5,2.47,9.64-1.25,11.58-3.53,12.34-4.94,2.48-4.56-.99-11.75-4.94-16.05-9.49-10.34-20.53-2.67-32.1-11.11-8.87-6.47-11.49-17.62-16.05-37.03-3.71-15.78-1.59-18.54-6.17-27.16-4.71-8.87-15.45-21.93-25.92-19.74Z"/>
      <path class="cls-16" d="m576.05,240.29c-11.4-3.73-21.18-2.89-24.69-2.47-3.48.42-14.51,2.06-25.92,9.88-3.74,2.56-16.66,11.67-22.22,28.39-4,12.03-2.13,21.81,1.23,38.27,3.65,17.82,9.07,30.11,16.05,45.67,11.91,26.57,18.13,40.02,30.86,48.14,4.67,2.98,15.71,10.03,29.63,7.41,1.19-.22,15.98-3.24,23.45-16.05,5.63-9.65,2.13-16.33,2.47-37.03.24-14.57,1.99-12.12,4.94-40.74,2.69-26.12,4.04-39.18,1.23-46.91-9.06-24.96-35.72-34.13-37.03-34.56Z"/>
      <path class="cls-4" d="m556.3,288.44c-4.78.71-17.72,2.81-28.39,13.58-11.56,11.66-13.13,26.07-13.58,30.86-2.31,24.55,13.28,43.03,25.92,58.02,10.17,12.05,16.5,19.33,27.16,20.99,18.86,2.94,34.32-14.35,35.8-16.05,24.97-28.73,3.42-75.65,1.23-80.24-8.04-16.88-17.27-22.14-19.75-23.45-11.64-6.19-23.38-4.45-28.39-3.71Z"/>
    </g>
    <g id="tete">
      <path class="cls-22" d="m1072.3,230.42c4.65-8.57-27.55-37.28-58.02-56.78-46.06-29.48-92.68-40.84-99.99-45.67-.36-.24-1.79-1.23-3.7-1.23-3.85,0-6.72,3.98-7.41,4.94-3.27,4.55-4.67,12.19-1.23,17.28,1.51,2.24,2.94,2.47,14.81,7.41,7.53,3.13,11.34,4.73,13.58,6.17,7.76,5.01,11.6,11.13,12.34,12.34.7,1.15,3.33,5.6,4.94,13.58,1.99,9.89-.05,13.01,0,27.16.05,12.3.14,18.54,3.7,23.45,5.16,7.11,13.93,9.11,17.28,9.88,4.82,1.1,4.27-.1,19.75,0,6.58.04,13.19-.5,19.75,0,5.15.4,8.66,1,11.11-1.23,2.7-2.46,1.48-5.98,2.47-8.64,4.23-11.37,45.97-.08,50.62-8.66Z"/>
      <path class="cls-17" d="m922.93,129.19c-3.42-.8-9.16-1.89-12.34,1.23-2.63,2.58-3.1,7.6-1.23,11.11.45.85,1.51,2.5,6.17,4.94,5.47,2.86,8.84,3.1,14.81,4.94,3.21.99,1.76.77,12.34,4.94,9.31,3.66,10.06,3.69,16.05,6.17,4.23,1.75,8.48,3.52,13.58,6.17,3.95,2.05,8.03,4.69,16.05,9.88,11.82,7.65,9.18,6.31,18.52,12.34,7.54,4.87,10.02,6.23,13.58,9.88,3.21,3.28,6.02,6.23,7.41,11.11.49,1.72,2.06,8.09-1.23,14.81-2.23,4.56-6.44,4.94-6.17,7.41.33,3.05,6.43,4.68,7.41,4.94,3.82,1.02,6.07.39,11.11,0,8.48-.66,8.96.57,18.52,0,5.26-.31,8.23.77,11.11-1.23,0,0,2.38-1.51,3.7-4.94,3.62-9.4-13.07-26.62-14.81-28.39-19.41-19.72-39.99-32.68-53.08-40.74-.03,0-40.58-24.96-81.5-34.57Z"/>
      <path class="cls-18" d="m922.93,129.19c-3.42-.8-9.16-1.89-12.34,1.23-2.63,2.58-3.1,7.6-1.23,11.11.45.85,1.51,2.5,6.17,4.94,5.47,2.86,8.84,3.1,14.81,4.94,3.21.99,1.76.77,12.34,4.94,9.31,3.66,10.06,3.69,16.05,6.17,4.23,1.75,8.48,3.52,13.58,6.17,3.94,2.06-8.46-29.89-49.38-39.5Z"/>
      <path class="cls-17" d="m1058.72,235.36c.93,3.02-1.59,6.27-2.47,7.41-2.41,3.1-5.58,4.28-7.41,4.94-2.58.92-5.04,1.04-9.88,1.23-11.08.45-10.7-1.04-16.05,0-1.4.27-2.52.59-3.7,0-2.69-1.33-3.66-6.29-2.47-9.88,1.28-3.86,4.92-5.65,8.64-7.41,11.72-5.54,22.59-2.29,25.92-1.23,6.23,1.96,7.16,4.1,7.42,4.94Z"/>
      <circle class="cls-3" cx="967.99" cy="228.57" r="27.16" transform="translate(386.39 1035.41) rotate(-67.5)"/>
      <path class="cls-19" d="m1017.86,235.07c2.7-2.49,7.47-.91,13.94,0,.98.14,11.31,1.54,20.91,0,11.72-1.88,18.72-7.57,20.91-5.23,1.06,1.12.24,3.3,0,3.93-1.17,3.09-4.55,5.04-9.76,6.54-8.22,2.37-12.59,1.19-25.09,1.31-14.06.13-20.69,1.73-22.3-1.31-.86-1.62.02-3.98,1.39-5.24Z"/>
      <path class="cls-10" d="m1030.94,184.13c-2.56,1.49-2.53,6.34-2.47,16.05.09,13.95,3.46,18.66,0,24.69-3.27,5.69-9.16,6.47-8.64,8.64.7,2.96,11.91,2.67,19.75,2.47,5.59-.14,10.72-.92,20.99-2.47,9.64-1.46,11.46-2.07,12.34-3.7,1.76-3.23-1.3-8.38-7.41-16.05-6.44-8.11-27.06-34-34.56-29.63Z"/>
      <circle class="cls-9" cx="1037.12" cy="227.33" r="3.7"/>
    </g>
    <g>
      <circle class="cls-7" cx="999.15" cy="200.05" r="8"/>
      <circle class="cls-14" cx="999.15" cy="200.05" r="6"/>
      <circle cx="1001.15" cy="200.05" r="4"/>
      <circle class="cls-2" cx="999.15" cy="200.05" r="2"/>
    </g>
  </g>
</svg>