<?xml version="1.0" encoding="UTF-8"?>
<svg id="Calque_2" data-name="Calque 2" xmlns="http://www.w3.org/2000/svg" viewBox="0 0 833.77 232.45">
  <defs>
    <style>
      .cls-1 {
        fill: #086375;
      }

      .cls-2 {
        fill: #1dd3b0;
      }

      .cls-3 {
        fill: #fff;
      }

      .cls-4 {
        fill: #541f5c;
      }

      .cls-5 {
        fill: #c7b299;
      }

      .cls-6 {
        fill: #3f70c6;
      }

      .cls-7 {
        fill: #54425c;
      }

      .cls-8 {
        fill: #3fffc6;
      }
    </style>
  </defs>
  <g id="Calque_1-2" data-name="Calque 1">
    <g id="corps">
      <path class="cls-1" d="m767.37,73.54l35.5,1.56c6.38.28,11.78-4.66,12.06-11.05l2.28-51.96c.5-11.36-13.98-16.54-20.81-7.44l-37.78,50.4c-5.57,7.44-.54,18.09,8.75,18.49Z"/>
      <path class="cls-2" d="m196.28,42.17c-9.05-1.55-29.24-5-45.71,7.08-2.59,1.9-12.76,9.36-16.17,22.44-8.18,31.44,32.26,58.98,34.38,60.38,6.63,4.39,16.9,11.19,30.54,11.01,12.44-.17,14.77-5.98,28.22-6.91,11.05-.76,19.49,2.68,36.38,9.58,21.94,8.95,21,12.8,34.89,16.1,11.84,2.82,13.77.32,34.72,2.79,12.96,1.53,18.06,3.18,29.12,5.19,0,0,23.27,4.23,52.69,4.56,26.69.29,46.13-4.6,82.19-13.96,43.55-11.3,43.17-15.28,85.42-26.05,25.84-6.58,30.89-6.35,70.54-15.22,37.73-8.44,56.58-12.77,72.01-17.63,60.08-18.93,110.88-53.56,107.97-60.32-1.84-4.28-29.84,2.44-85.85,15.88-36.45,8.75-55.32,14.59-82.17,9.85-10.9-1.93-11.52-3.55-37.09-12.48-11.83-4.13-52.17-18.1-93.13-26.49-42.53-8.71-76.04-9.4-82.78-9.51-30.39-.48-69.04-1.1-114.25,13.6-30.42,9.89-45.7,20.81-74.22,21.25-28.34.44-48.8-5.51-48.8-5.51-9.38-2.73-10.88-4.26-18.9-5.63Z"/>
      <path class="cls-4" d="m196.04,44.73c-9.04-1.56-29.19-5.05-45.63,7.05-2.58,1.9-12.73,9.37-16.12,22.48-8.14,31.51,32.27,59.15,34.39,60.56,6.62,4.41,16.89,11.24,30.51,11.06,12.42-.16,14.74-5.98,28.17-6.9,11.03-.75,19.47,2.71,36.33,9.64,21.91,9,20.98,12.85,34.85,16.18,11.83,2.84,13.75.33,34.67,2.84,12.94,1.55,18.04,3.21,29.08,5.23,0,0,23.23,4.27,52.61,4.62,26.65.32,46.05-4.57,82.05-13.91,43.47-11.28,43.09-15.27,85.26-26.02,25.79-6.57,30.83-6.33,70.41-15.18,37.67-8.42,56.47-12.74,71.88-17.6,59.97-18.92,110.65-53.57,107.74-60.35-1.84-4.3-29.79,2.41-85.69,15.83-36.38,8.73-55.22,14.57-82.03,9.79-10.89-1.94-11.5-3.57-37.05-12.55-11.82-4.16-52.1-18.2-93.01-26.65-42.47-8.77-75.92-9.5-82.66-9.62-30.34-.51-68.93-1.17-114.06,13.51-30.36,9.88-45.61,20.82-74.08,21.23-28.3.41-48.72-5.57-48.72-5.57-9.4-2.75-10.89-4.29-18.9-5.67Z"/>
      <path class="cls-1" d="m770.04,62.95l34.07-10.1c6.12-1.81,12.56,1.68,14.37,7.8l14.78,49.87c3.23,10.9-9.57,19.43-18.39,12.25l-48.85-39.77c-7.2-5.86-4.89-17.41,4.02-20.05Z"/>
      <path class="cls-7" d="m16.65,77.33c-4.97.08-14.32.32-16.27,5.01-2.04,4.88,4.5,13.22,11.56,17.76,9.51,6.12,15.88,2.71,34.41,5.99,4.95.88,15,2.72,26.64,7.89,15.83,7.04,18.28,12.99,32.9,16.65,4.02,1.01,7.62,1.51,14.29,3.71,7.36,2.43,10.11,4.17,15.98,6.38,7.65,2.89,15.71,4.73,20.83,5.19,15.81,1.45,36.88-7.11,38.89-17.76,3.13-16.51-39.8-36.69-46.86-40-26.65-12.52-61.89-11.95-132.37-10.82Z"/>
      <path class="cls-5" d="m24.99,85.78l-8.24-3.62-2.21,5.04c-2,4.55.07,9.86,4.62,11.86h0l5.83-13.28Z"/>
      <path class="cls-5" d="m34.29,86.9l-8.65-2.5-1.53,5.28c-1.38,4.77,1.37,9.77,6.14,11.15h0l4.04-13.93Z"/>
      <path class="cls-5" d="m45.29,88.9l-8.65-2.5-1.53,5.28c-1.38,4.77,1.37,9.77,6.14,11.15h0l4.04-13.93Z"/>
      <path class="cls-5" d="m56.29,88.9l-8.65-2.5-1.53,5.28c-1.38,4.77,1.37,9.77,6.14,11.15h0l4.04-13.93Z"/>
      <path class="cls-5" d="m66.65,90.26l-8.86-1.58-.97,5.41c-.87,4.89,2.39,9.57,7.28,10.44h0l2.55-14.27Z"/>
      <path class="cls-5" d="m77.65,90.26l-8.86-1.58-.97,5.41c-.87,4.89,2.39,9.57,7.28,10.44h0l2.55-14.27Z"/>
      <path class="cls-5" d="m88.65,91.26l-8.86-1.58-.97,5.41c-.87,4.89,2.39,9.57,7.28,10.44h0l2.55-14.27Z"/>
      <path class="cls-5" d="m99.65,90.26l-8.86-1.58-.97,5.41c-.87,4.89,2.39,9.57,7.28,10.44h0l2.55-14.27Z"/>
      <path class="cls-5" d="m110.65,91.26l-8.86-1.58-.97,5.41c-.87,4.89,2.39,9.57,7.28,10.44h0l2.55-14.27Z"/>
      <path class="cls-5" d="m121.65,93.26l-8.86-1.58-.97,5.41c-.87,4.89,2.39,9.57,7.28,10.44h0l2.55-14.27Z"/>
      <path class="cls-4" d="m1.38,73.86c.62-5.23,8.2-8.22,14.85-10.84,13.16-5.2,24.84-4.09,27.91-3.74,8.54.96,9.59,3.08,18.65,4.7,2.89.52,11.1,1.79,27.65-.59,17.8-2.56,24.96-6.42,48.33-12.86,18.75-5.17,21.57-8.74,27.2-6.66,11.4,4.22,16.68,20.78,16.33,33.06-.12,4.27-.51,17.71-9.58,23.96-5.7,3.93-10.81,2.25-36.37-1.39-14.85-2.11-23.99-3.41-33.94-4.05-16.68-1.06-16.78.96-36.87.79-33.23-.28-44.32-3.61-52.59-8.74-3.42-2.13-12.28-7.64-11.57-13.64Z"/>
    </g>
    <path id="n-d" class="cls-1" d="m556.53,78.98c-3.83-.66-16.94-2.91-23.55,4.74-5.67,6.56-3.18,16.52-2.99,17.21,2.79,10.53,11.94,12.01,24.14,22.92,9.01,8.05,6.75,9.69,25.05,35.05,11.47,15.9,17.21,23.85,22.42,28.49,8.77,7.81,23.51,11.48,52.05,19.17,31.23,8.42,37.73,8.16,41.21,4.32,4.41-4.87,2.92-14.36.1-20.62-8.74-19.4-32.83-13.62-49.06-36.38-5.81-8.15-3-9.28-9.61-18.24-9.75-13.21-18.12-13.81-36.25-26.13-25.04-17.01-26.29-27.57-43.51-30.53Z"/>
    <path id="n-g" class="cls-1" d="m325.53,97.98c-3.83-.66-16.94-2.91-23.55,4.74-5.67,6.56-3.18,16.52-2.99,17.21,2.79,10.53,11.94,12.01,24.14,22.92,9.01,8.05,6.75,9.69,25.05,35.05,11.47,15.9,17.21,23.85,22.42,28.49,8.77,7.81,23.51,11.48,52.05,19.17,31.23,8.42,37.73,8.16,41.21,4.32,4.41-4.87,2.92-14.36.1-20.62-8.74-19.4-32.83-13.62-49.06-36.38-5.81-8.15-3-9.28-9.61-18.24-9.75-13.21-18.12-13.81-36.25-26.13-25.04-17.01-26.29-27.57-43.51-30.53Z"/>
    <g>
      <circle class="cls-6" cx="151.95" cy="68.86" r="8"/>
      <circle class="cls-8" cx="151.95" cy="68.86" r="6"/>
      <circle cx="149.95" cy="68.86" r="4"/>
      <circle class="cls-3" cx="151.95" cy="68.86" r="2"/>
    </g>
  </g>
</svg>