<?xml version="1.0" encoding="UTF-8"?>
<svg id="Calque_2" data-name="Calque 2" xmlns="http://www.w3.org/2000/svg" viewBox="0 0 676.11 346.23">
  <defs>
    <style>
      .cls-1 {
        fill: #fff;
      }

      .cls-2 {
        fill: #dea168;
      }

      .cls-3 {
        fill: #2c6e49;
      }

      .cls-4 {
        fill: #e9c09b;
      }

      .cls-5 {
        fill: #3f70c6;
      }

      .cls-6 {
        fill: #fefee3;
      }

      .cls-7 {
        fill: #d68c45;
      }

      .cls-8 {
        fill: none;
      }

      .cls-9 {
        fill: #3fffc6;
      }

      .cls-10 {
        fill: #d68545;
      }

      .cls-11 {
        fill: #43270f;
      }
    </style>
  </defs>
  <g id="Calque_1-2" data-name="Calque 1">
    <path id="mollet-gauche" class="cls-6" d="m286.04,184.1c-7.26-10.99-22.72-11.98-32-10-5.68,1.21-12.2,6.16-25,16-16.13,12.4-14.91,13.3-25,20-8.37,5.56-12.44,7.1-21,14-11.1,8.96-12.58,13.11-13,16-1.2,8.26,4.97,14.89,6,16,7.1,7.64,19.49,10.19,27,6,4.1-2.29,4.7-5.44,12-10,3.34-2.08,6.09-3.22,8-4,19.28-7.86,29.36-10.28,40-16,9.36-5.03,18.16-9.76,23-20,1.07-2.27,7.53-16.6,0-28Z"/>
    <path id="avant-bras-gauche" class="cls-6" d="m415.04,236.1c-4.8,3.79-7.34,10.32-7,16,.45,7.51,5.84,12.48,12,18,8.22,7.36,14.63,9.89,26,16,16.04,8.63,16.51,13.8,25,15,1.1.16,15.88,2.05,22-7,3.48-5.15,2.45-11.3,2-14-.33-1.95-1.76-9.11-14-21-5.34-5.18-11.98-11.52-23-17-9.24-4.59-31.05-15.43-43-6Z"/>
    <path id="queue" class="cls-7" d="m306.04,83.1c-13.88-20.35-49.24-23.87-73-16-18.33,6.07-30.02,17.33-46,36-31.1,36.33-47.91,63.03-71,97-49.44,72.73-65.5,86.48-83,98C14.36,310.4-.85,315.55.04,318.1c.75,2.13,31.22-1.96,67-16,49.82-19.55,63.93-40.34,125.5-75.5,28.02-16,55.41-29.62,55.41-29.62,13.38-6.66,13.09-6.17,16.09-7.88,35.65-20.29,61.45-77.47,42-106Z"/>
    <path class="cls-8" d="m653.04,108.1c-.09,0-2-.24-3,1-1.98,2.44.91,8.87,4,9,1.32.06,2.48-1.04,3-2,1.56-2.87-.89-7.58-4-8Z"/>
    <path id="cou" class="cls-7" d="m584.04,207.1c-8.28,4.75-15.86,6.32-24,8-14.72,3.05-21.18,1.18-39,5-8.05,1.72-12.29,3.3-15,4-26.28,6.83-89.52-20.79-95-73-3.14-29.87,12.88-65.35,38-74,19.71-6.79,27.29,9.05,82,22,37.88,8.96,48.97,4.86,63,18,13.81,12.94,23.7,36.24,17,58-6.17,20.06-23.78,30.16-27,32Z"/>
    <g id="corps">
      <path id="cuisse-gauche" class="cls-6" d="m287.04,83.1c-13.44.53-22.92,8.24-26,11-16.74,15.03-15.26,37.95-15,42,2.29,35.5,38.07,54.35,45,58,6.57,3.46,13.93,7.22,24,7,14.99-.33,30.17-9.36,37-22,15.29-28.29-16.6-64.82-22-71-8.2-9.4-22.54-25.81-43-25Z"/>
      <path class="cls-7" d="m256.04,55.1c-19.25,12.7-28.05,30.01-31,36-8.06,16.34-9.14,30.43-10,43-1.51,22.02-3.2,46.74,13,66,12.09,14.38,28.65,18.92,33,20,15.89,3.92,22.79-1.26,40,0,19.63,1.44,28.91,9.52,44,16,47.41,20.36,103.54,4.08,159-12,4.65-1.35,13.21-1.58,22-7,18.83-11.62,28.63-36.64,28-56-1.19-36.61-39.85-61.02-81-87-25.18-15.9-53.23-33.19-95-39-36.82-5.12-64.8,1.49-89,7-12.06,2.75-22.28,5.93-33,13Z"/>
      <path class="cls-10" d="m354.04,113.1c-2.59-6.01-12.4-26.41-36-36-5.04-2.05-22.63-8.88-43-2-29.22,9.87-38.19,39.18-39,42-8.98,31.23,10.19,55.76,12,58,14.89,18.38,35.09,22.21,40,23,21.01,3.37,49.43-2.89,64-26,16.28-25.81,3.89-54.6,2-59Z"/>
      <path class="cls-10" d="m486.04,160.1c-15.42.76-23.93,13.82-26,17-7.27,11.15-11.89,30.83-1,43,12.47,13.93,39.19,11.24,52-4,8.41-10.01,11.31-26.01,4-39-5.29-9.41-16.16-17.63-29-17Z"/>
    </g>
    <g id="tete">
      <path class="cls-4" d="m660.04,172.1c2.04,1.35-1.56,9.97-2,11-1.9,4.47-3.88,9.14-9,13-5.92,4.46-12.12,4.89-14,5-4.89.27-5.77-1.1-12-2-7.62-1.11-10.3.36-22,1,0,0-7.14.39-17,0-13.04-.51-42.48-7.09-46-25-2.76-14.05,10.87-32.93,23-33,16.28-.09,21.42,33.73,43,35,5.39.32,11.24-1.43,25-1,4,.12,8-.01,12,0,7,.01,9.07.04,12-1,4.28-1.52,5.89-3.74,7-3Z"/>
      <path class="cls-7" d="m454.04,76.1c-3.11-3.16-12.45-12.62-14-27-.53-4.94,1.31-11.96,5-26,4.22-16.06,6.67-19.44,10-21,4.31-2.02,9.11-.54,13,1,46.36,18.36,56,55,56,55,2.13,8.09,6.51,24.76-2,33-7.59,7.35-21.45,4.14-35,1-10.09-2.34-22.32-5.17-33-16Z"/>
      <path class="cls-2" d="m669.04,175.1c-2.5.19-2.13-6.92-9-12-5.99-4.43-14.34-5.05-21-3-1.54.48-6.78,2.16-11,7-6.15,7.05-3.13,12.75-8,16-4.58,3.06-8.11-1.43-19,0-8.95,1.17-9.37,4.57-15,4-8.84-.9-9.31-9.43-19-13-11.47-4.22-19.22,5.35-25,0-6.14-5.69-5.87-17.96-1-25,4.15-5.99,9.87-5.65,11-11,1.02-4.86-2.54-10.7-7-13-2.22-1.14-3.64-.89-10-1-8.88-.15-13.33-.22-16-1-4.36-1.27-4.29-2.91-15-12-7.21-6.12-7.76-5.81-15-12-3.41-2.92-9.22-7.88-13-12-9.5-10.35-12.53-22.26-15-32-3.86-15.18-2.57-25.45,0-46,.31-2.51,1.08-8.16,4-9,2.74-.79,4.73,3.43,12,8,5.06,3.18,5.43,1.98,13,6,5.52,2.93,5.41,3.62,13,8,7.32,4.23,7.33,3.54,11,6,6.04,4.05,5.61,5.66,13,12,1.43,1.23,5.97,4.5,15,11,6.05,4.35,7.7,5.51,11,8,11.27,8.48,13.2,10.86,14,14,.48,1.9.46,3.66,2,5,1.96,1.7,4.22.77,8,1,6.29.39,11.03,3.65,13,5,5.05,3.47,4.39,5.67,8,7,3.73,1.38,6.51-.2,13-2,6.24-1.74,12.86-3.58,19-3,8.22.77,14,5.72,19,10,6.14,5.25,9.38,10.46,14,18,5.61,9.16,8.93,14.59,11,22,5.13,18.38-.32,38.64-5,39Z"/>
      <path class="cls-11" d="m472.04,8.1c-5.24,2.36-2.53,21.7,3,36,3.5,9.07,8.51,22.02,22,30,2.01,1.19,22.23,12.79,36,3,5.78-4.11,10.87-12.3,9-19-1.73-6.2-8.98-9.51-21-15-6.52-2.98-5.91-1.92-10-4-10.27-5.22-12.16-10.86-25-22-7.75-6.72-11.62-10.07-14-9Z"/>
      <path class="cls-11" d="m608.04,142.1c2.12,1.89,6.11,2.29,14,3,9.31.84,13.96,1.26,17,0,5.81-2.42,11.71-8.79,12-17,.37-10.53-8.73-16.62-11-18-9.21-5.61-18.77-2.43-20-2-7.48,2.63-13.04,8.84-15,16-.22.82-3.24,12.44,3,18Z"/>
    </g>
    <path id="cuisse-droite" class="cls-6" d="m287.04,83.1c-13.44.53-22.92,8.24-26,11-16.74,15.03-15.26,37.95-15,42,2.29,35.5,38.07,54.35,45,58,6.57,3.46,13.93,7.22,24,7,14.99-.33,30.17-9.36,37-22,15.29-28.29-16.6-64.82-22-71-8.2-9.4-22.54-25.81-43-25Z"/>
    <path id="mollet-droit" class="cls-6" d="m337.04,177.1c-25.19-2.39-45.83,26.84-48,30-3.63,5.29-.84,2.62-16,32-4.1,7.95-7.89,16.05-12,24-7.25,14.04-10.3,19.08-10,27,.11,3.02.41,10.98,6,16,9.26,8.32,28.44,4.46,35-5,3.29-4.74,1.83-8.63,7-16,3.31-4.72,6.83-7.31,9-9,9.32-7.26,15.9-15.21,24-25,3.54-4.28,14.34-17.94,21-38,3.74-11.26,6.49-19.97,2-27-4.96-7.77-15.75-8.79-18-9Z"/>
    <path id="bras-gauche" class="cls-6" d="m494.04,186.1c-6.1-4.48-13.2-4.1-15-4-8.36.45-13.94,5.03-20,10-10.38,8.51-16.2,18.4-20,25-4.26,7.39-3.59,8.18-8,15-6.07,9.4-9.26,10.87-10,16-1.34,9.26,7.21,17.28,8,18,11.05,10.08,30.87,9.2,37,1,3.25-4.35.71-8.15,5-16,2.63-4.81,5.55-6.99,10-11,12.34-11.13,18.51-16.7,21-24,3.33-9.75.92-23.46-8-30Z"/>
    <path id="bras-droit" class="cls-6" d="m494.04,186.1c-6.1-4.48-13.2-4.1-15-4-8.36.45-13.94,5.03-20,10-10.38,8.51-16.2,18.4-20,25-4.26,7.39-3.59,8.18-8,15-6.07,9.4-9.26,10.87-10,16-1.34,9.26,7.21,17.28,8,18,11.05,10.08,30.87,9.2,37,1,3.25-4.35.71-8.15,5-16,2.63-4.81,5.55-6.99,10-11,12.34-11.13,18.51-16.7,21-24,3.33-9.75.92-23.46-8-30Z"/>
    <path id="avant-bras-droit" class="cls-6" d="m446.04,245.1c-14.32.43-25.72,12.46-27,23-.26,2.11.83,6.41,3,15,2.21,8.73,3.74,14.68,7,22,3.57,8.01,5.35,12.02,9,15,5.71,4.66,15.06,7.46,24,4,6.22-2.41,12.38-7.89,14-15,1.43-6.26-1.92-8.33-3-18-1.4-12.48,3.5-14.95,2-23-1.99-10.68-13.81-23.46-29-23Z"/>
    <g id="pied-droit">
      <path class="cls-6" d="m270.04,281.1c-5.84,3.06-8.37,8.5-10,12-1.18,2.54-5.12,10.98-2,20,1.52,4.41,4.05,6.97,9,12,3.18,3.22,6.91,6.95,13,10,4.25,2.13,9.58,4.8,16,4,2.68-.33,3.16-.97,6-1,4.72-.05,6.03,1.69,11,2,2.98.18,5.46.34,8-1,4.17-2.19,4.21-6.14,8-7,2.51-.57,3.55.91,5,0,2.38-1.5,2.71-7.51,0-11-3.23-4.16-10.25-4.05-13-4-4.27.07-5.67,1.2-8,0-.8-.41-1.45-.97-5-7-3.69-6.27-3.58-6.68-5-8-2.13-1.98-3.68-2.27-4-4-.31-1.69.96-2.51,1-5,0,0,.03-1.74-1-4-2.12-4.64-16.98-14.3-29-8Z"/>
      <path class="cls-3" d="m292.04,338.1c-1.05-1.93.32-4.65,2-6,2.39-1.92,5.49-1.13,6-1,5.07,1.29,8.43,7.72,7,10-.69,1.1-2.68,1.54-4,1-1.65-.68-1.48-2.56-3-3-1.36-.39-1.96.98-4,1-1.36.01-3.23-.58-4-2Z"/>
      <path class="cls-3" d="m315.04,330.1c-1.65.71-2.72,2.39-3,4-.46,2.6,1.09,5.17,3,6,1.3.56,1.84-.08,4,0,4.22.15,5.98,2.74,7,2,1.24-.91.11-5.84-3-9-.52-.53-4.45-4.52-8-3Z"/>
      <path class="cls-3" d="m331.04,321.1c-1.65.71-2.72,2.39-3,4-.46,2.6,1.09,5.17,3,6,1.3.56,1.84-.08,4,0,4.22.15,5.98,2.74,7,2,1.24-.91.11-5.84-3-9-.52-.53-4.45-4.52-8-3Z"/>
    </g>
    <g id="pied-gauche">
      <path class="cls-6" d="m184.04,235.1c-7.86.7-14.28,6.04-17,12-4.6,10.08.94,23,5,29,1.98,2.92,4.06,4.87,5,9,1.04,4.58-.34,7.41,2,11,.48.74,1.65,1.82,4,4,3.01,2.8,4.52,4.19,6,5,1.17.64,4.64,2.34,9,2,3.12-.24,3.08-1.24,7-2,3.94-.76,7.18-.37,10,0,5.92.77,5.45,1.97,9,2,5.25.05,5.93-2.58,12-3,4.99-.34,6.92,1.27,8,0,1.75-2.05-.9-8.99-6-12-2.45-1.45-3.6-.88-12-2-6.98-.93-10.5-1.42-12-3-2.81-2.95-.43-5.59-4-12-1.43-2.57-2.56-3.49-3-6-.53-3.05.51-5.26,1-7,2.36-8.34-4.62-17.51-5-18-1.02-1.31-8.03-9.98-19-9Z"/>
      <path class="cls-3" d="m235.23,293.77c-1.53.94-2.34,2.75-2.39,4.39-.08,2.64,1.82,4.96,3.83,5.5,1.36.37,1.81-.34,3.96-.58,4.2-.46,6.31,1.85,7.22.97,1.1-1.08-.73-5.79-4.27-8.47-.59-.45-5.05-3.83-8.35-1.81Z"/>
      <path class="cls-3" d="m223.23,296.77c-1.53.94-2.34,2.75-2.39,4.39-.08,2.64,1.82,4.96,3.83,5.5,1.36.37,1.81-.34,3.96-.58,4.2-.46,6.31,1.85,7.22.97,1.1-1.08-.73-5.79-4.27-8.47-.59-.45-5.05-3.83-8.35-1.81Z"/>
    </g>
    <g id="main-gauche">
      <path class="cls-6" d="m491.04,284.1c-5.1,1.31-11.42,6.11-11,12,.28,3.91,3.48,7.73,7,9,3.41,1.23,6.07-.32,10,2,1.76,1.04,1.64,1.59,3,2,3.15.95,4.57-1.79,9-2,3.06-.15,3.17,1.11,7,1,3.11-.09,3.15-.93,6-1,4.42-.11,5.58,1.88,8,1,2.24-.81,4.03-3.53,4-6-.04-2.79-2.69-4.86-8-9-3.04-2.37-4.56-3.55-6-4-5.6-1.74-7.97,2.5-13,1-4.18-1.25-3.99-4.61-9-6-3.29-.91-6.12-.23-7,0Z"/>
      <path class="cls-3" d="m529.04,297.1c-1.65.71-2.72,2.39-3,4-.46,2.6,1.09,5.17,3,6,1.3.56,1.84-.08,4,0,4.22.15,5.98,2.74,7,2,1.24-.91.11-5.84-3-9-.52-.53-4.45-4.52-8-3Z"/>
      <path class="cls-3" d="m513.04,298.1c-1.65.71-2.72,2.39-3,4-.46,2.6,1.09,5.17,3,6,1.3.56,1.84-.08,4,0,4.22.15,5.98,2.74,7,2,1.24-.91.11-5.84-3-9-.52-.53-4.45-4.52-8-3Z"/>
      <path class="cls-3" d="m500.04,299.1c-1.65.71-2.72,2.39-3,4-.46,2.6,1.09,5.17,3,6,1.3.56,1.84-.08,4,0,4.22.15,5.98,2.74,7,2,1.24-.91.11-5.84-3-9-.52-.53-4.45-4.52-8-3Z"/>
    </g>
    <g id="main-droite">
      <path class="cls-6" d="m462.04,306.1c-3.71.5-10.27,1.39-15,7-2.99,3.55-6.24,10.16-4,16,2.18,5.7,8.56,7.98,17,11,2.64.94,4.85,1.74,8,2,4.4.37,5.59-.71,10,0,3.74.61,4.4,1.63,6,1,3.06-1.2,2.07-5.48,5-7,3.44-1.78,7.25,2.84,10,1,2.43-1.63.93-6.24,4-8,1.47-.85,2.67-.28,3-1,.63-1.38-3.15-4.79-7-7-4.43-2.54-5.99-1.81-10-4-4.44-2.43-4.29-4.3-8-7-7.6-5.54-17.21-4.24-19-4Z"/>
      <path class="cls-3" d="m482.04,334.1c-1.65.71-2.72,2.39-3,4-.46,2.6,1.09,5.17,3,6,1.3.56,1.84-.08,4,0,4.22.15,5.98,2.74,7,2,1.24-.91.11-5.84-3-9-.52-.53-4.45-4.52-8-3Z"/>
      <path class="cls-3" d="m500.04,322.1c-1.65.71-2.72,2.39-3,4-.46,2.6,1.09,5.17,3,6,1.3.56,1.84-.08,4,0,4.22.15,5.98,2.74,7,2,1.24-.91.11-5.84-3-9-.52-.53-4.45-4.52-8-3Z"/>
      <path class="cls-3" d="m496.04,328.1c-1.65.71-2.72,2.39-3,4-.46,2.6,1.09,5.17,3,6,1.3.56,1.84-.08,4,0,4.22.15,5.98,2.74,7,2,1.24-.91.11-5.84-3-9-.52-.53-4.45-4.52-8-3Z"/>
    </g>
    <g>
      <circle class="cls-5" cx="581.54" cy="113.6" r="8"/>
      <circle class="cls-9" cx="581.54" cy="113.6" r="6"/>
      <circle cx="583.54" cy="113.6" r="4"/>
      <circle class="cls-1" cx="581.54" cy="113.6" r="2"/>
    </g>
  </g>
</svg>