<?xml version="1.0" encoding="UTF-8"?>
<svg id="Calque_2" data-name="Calque 2" xmlns="http://www.w3.org/2000/svg" viewBox="0 0 776.74 717.08">
  <defs>
    <style>
      .cls-1 {
        fill: #fff;
      }

      .cls-2 {
        fill: #c81d25;
      }

      .cls-3 {
        fill: #bfc8ea;
      }

      .cls-4 {
        fill: #bfd7ea;
      }

      .cls-5 {
        fill: #3f70c6;
      }

      .cls-6 {
        fill: #ff5a5f;
      }

      .cls-7 {
        fill: #087e8b;
      }

      .cls-8 {
        fill: #3fffc6;
      }

      .cls-9 {
        fill: #d25a5f;
      }

      .cls-10 {
        fill: #0b3954;
      }
    </style>
  </defs>
  <g id="Calque_1-2" data-name="Calque 1">
    <path id="aile-d" class="cls-3" d="m326.07,186.22c-4.58.13-3.3.82-22.19,5.12-25.8,5.88-32.43,5.58-34.14,10.24-2.36,6.44,8.97,10.66,11.95,27.31.55,3.06,1.96,11.55-1.71,20.48-.79,1.91-1.86,3.99-11.95,15.36-8.69,9.8-10.24,10.9-17.07,18.78-8.55,9.86-7.2,9.36-10.24,11.95-8.04,6.84-13.8,7.15-17.07,13.66-1.28,2.55-.59,2.89-1.71,10.24-.46,3.04-2.39,14.93-8.53,27.31-4.39,8.85-6.97,9.96-8.53,10.24-3.3.6-5.84-1.76-8.53,0-1.64,1.07-2.56,3.17-3.41,5.12-.71,1.62-1.02,2.93-1.21,3.71-.46,1.96-2.72,11.52-2.21,11.65.36.09,1.06-4.77,5.12-8.53,1.91-1.77,2.92-1.78,3.41-1.71,2.1.32,3.07,3.88,3.41,5.12,2.86,10.34-8.53,29.02-8.53,29.02-3.97,6.52-6.06,21.98-10.24,52.92-6.41,47.43-4.02,89.36-3.41,99,4.2,66.49,22.83,164.38,40.97,163.87,2.75-.08,8.64-2.51,27.31-81.93,12.18-51.8,25.39-108.04,34.14-168.99,4.06-28.28,13.09-55.64,18.78-83.64.42-2.05,1.64-8.14,5.12-15.36,4.75-9.86,10.8-15.78,13.66-18.78,5.69-5.96,11.76-16.49,23.9-37.55,13.18-22.87,19.77-34.3,23.9-47.8,6.27-20.49,12.25-40.02,1.71-56.33-9.54-14.73-28.71-20.89-42.7-20.48Z"/>
    <g id="corps">
      <path class="cls-7" d="m478,191.34c3.16-12.44,79.52-5.22,92.18,5.12,1.04.85,4.66,4.18,8.53,3.41,3.33-.66,4.23-3.83,8.53-5.12,2.87-.86,5.36-.32,6.83,0,5.32,1.15,8.46,4.91,15.36,13.66,11.77,14.92,12.48,16.46,11.95,17.07-.93,1.07-5.45-.96-8.53-3.41-3.45-2.75-3.16-4.48-6.83-8.53-.92-1.01-7.68-8.49-11.95-6.83-1.57.61-1.34,1.9-3.41,3.41-3.25,2.37-7.4,1.85-8.53,1.71-5.76-.73-6.99-4.5-13.66-5.12-.78-.07-1.66-.05-3.41,0-7.83.22-13.02,1.23-17.07,1.71-3.31.39-5.2.35-15.36,0-34.54-1.18-38.86-1.59-44.38-5.12-2.1-1.35-11.43-7.33-10.25-11.96Z"/>
      <path class="cls-10" d="m286.81,164.03c-8.12-2.43-19.19-5.87-34.14-10.24-19.95-5.84-23.06-6.47-27.31-5.12-13.66,4.34-18.71,24.56-20.48,34.14-1.61,8.7,9.49,13.64,11.95,15.36,6.36,4.45,11.28,4.54,20.48,6.83,8.97,2.23,16.22,5.47,30.73,11.95,17.92,8,17.59,10.12,30.73,15.36,12.53,5,22.63,6.99,30.73,8.53,4.74.91,22.93,4.21,47.8,3.41,13.78-.44,35.85-2.58,85.35-17.07,47.05-13.77,49.62-18.52,90.47-29.02,27.62-7.1,41.43-10.65,61.45-11.95,25.73-1.67,56.78.53,73.4,1.71,8.64.61,12.82,1,12.82,1,14.92,1.38,24.62,3.02,24.74,2.42.19-.97-24.22-5.56-23.9-8.53.23-2.18,13.65-2.18,13.66-3.41,0-1.39-17.07-2.11-17.07-3.41s18.79-2.2,18.78-3.41c-.01-1.2-18.51-.96-18.78-3.41-.3-2.85,24.14-6.96,23.9-8.53-.21-1.34-17.51,4.14-40.97,1.71-14.18-1.47-32.69-6.04-35.85,0-.9,1.73-.76,4.73-3.41,6.83-1.9,1.5-4.12,1.65-5.12,1.71-15.14.82-40.97,0-40.97,0-15.75-.5-15.78,1.95-25.6,0-10.87-2.16-22.72-7.54-22.19-10.24.21-1.09,2.37-1.48,3.41-1.71,15.11-3.32,31.51-24.74,30.73-25.6-.52-.57-7.88,8.32-22.19,15.36-13.36,6.58-25.29,7.85-32.43,8.53-44.13,4.23-66.2,6.34-93.88,3.41-19.82-2.09-39.5-5.96-59.74-1.71-10.53,2.21-20.48,5.12-20.48,5.12-17.46,5.1-18.13,7.22-25.6,8.53-3.67.62-8.87,1.06-41.02-8.55Z"/>
      <g>
        <path class="cls-6" d="m205.01,133.32c-11.95-2.23-21.94,2.26-28.53,5.32-43.17,20.09-76.69,41.19-77.6,41.76-45.67,28.74-77.95,40.34-76.48,43.9.73,1.78,9.11-.41,26.38-4.21,33.26-7.31,59.92-11.88,66.73-12.97,59.7-9.57,79.11,9.62,105.11-9.82,3.56-2.66,17.64-13.19,17.89-28.37.3-16.95-16.84-32.5-33.5-35.61Z"/>
        <path class="cls-9" d="m178.72,142.93c5.48-1.49,12.13-2.98,12.94-1.29,1.16,2.42-10.31,10.14-14.9,13.2-30.6,20.41-64.2,32.01-71.78,34.64-53.19,18.51-76.26,31.42-77.26,29.34-1.04-2.17,25.54-12.5,74.34-42.78,0-.01,35.17-21.83,76.66-33.11Z"/>
      </g>
      <path class="cls-2" d="m250.97.16c-4.05-2.4-20.36,22.2-75.11,87.06-13.17,15.6-25.8,30.26-44.38,47.8-6.63,6.26-19.63,18.18-35.85,30.73C43.32,206.22-1.5,221.49.04,225.49s46.73-10.02,52.92-11.95c43.58-13.61,73.46-29.17,131.44-59.74,2.89-1.52,40.76-21.75,37.55-32.43-1.01-3.35-5.67-4.49-11.95-13.66-2.58-3.77-4.48-6.54-5.12-10.24-1.36-7.9,3.92-14.88,6.83-18.78,0,0,5.34-7.15,23.9-34.14C248.42,25.9,254.58,2.29,250.97.16Z"/>
    </g>
    <path id="aile-g" class="cls-4" d="m411.42,165.73c-38.42-.22-51.34,10.65-54.62,13.66-1.22,1.12-10.83,10.1-8.53,15.36,1.28,2.93,5.01,2.22,6.83,5.12,2.85,4.54-2.93,11.64-8.53,22.19-5.27,9.91-12.24,23.02-10.24,35.85.48,3.1,1.29,4.91,8.53,17.07,0,0,6.77,11.36,29.02,52.92.46.85,5.47,10.32,3.41,11.95-1.54,1.22-5.52-3.18-8.53-1.71-3.4,1.67-3.24,9.71-1.71,10.24,1.02.35,1.99-2.86,5.12-3.41,1.7-.3,4.16.16,5.12,1.71,1.93,3.1-3.25,8.81-1.71,10.24.82.76,2.41-.76,5.12,0,2.11.59,2.9,2.01,3.41,1.71,1.17-.68-2.21-8.29-1.71-8.53.6-.28,4.66,10.63,8.53,10.24,1.84-.18,3.29-2.89,3.41-5.12.17-3.02-4.46-3.45-5.12-6.83-.4-2.02.54-4.54,1.71-5.12,5.13-2.56,24.98,27.26,27.31,30.73,33.88,50.46,100.03,96.68,122.9,112.66,57.33,40.06,108.3,59.08,124.61,64.87,50.59,17.93,109.15,29.39,110.95,23.9.63-1.92-5.89-5.3-17.07-11.95t-64.87-44.38c-21.04-14.4-43.62-35.2-88.76-76.81-39.24-36.17-59.16-54.64-73.4-73.4-14.6-19.23-25.4-37.45-42.67-66.57-29.35-49.5-25.67-52.19-35.85-63.16-2.08-2.24-8.41-8.78-10.24-18.78-1.42-7.71.42-14.33,1.71-18.78,4.8-16.6,13.47-19.86,11.95-25.6-2.62-10.01-31.47-10.18-46.08-10.27Z"/>
    <g>
      <circle class="cls-5" cx="157.38" cy="146.09" r="8"/>
      <circle class="cls-8" cx="157.38" cy="146.09" r="6"/>
      <circle cx="155.38" cy="146.09" r="4"/>
      <circle class="cls-1" cx="157.38" cy="146.09" r="2"/>
    </g>
  </g>
</svg>