<?xml version="1.0" encoding="UTF-8"?>
<svg id="Calque_2" data-name="Calque 2" xmlns="http://www.w3.org/2000/svg" viewBox="0 0 717.98 471.61">
  <defs>
    <style>
      .cls-1 {
        fill: #fff;
      }

      .cls-2 {
        fill: #ef6442;
      }

      .cls-3 {
        fill: #306b62;
      }

      .cls-4 {
        fill: #9e2734;
      }

      .cls-5 {
        fill: #4d4d4d;
      }

      .cls-6 {
        fill: #4c9f60;
      }

      .cls-7 {
        fill: #3f70c6;
      }

      .cls-8 {
        fill: #10337d;
      }

      .cls-9 {
        fill: #306b33;
      }

      .cls-10 {
        fill: #3fffc6;
      }

      .cls-11 {
        fill: #48a162;
      }
    </style>
  </defs>
  <g id="Calque_1-2" data-name="Calque 1">
    <path id="aile-droite" class="cls-8" d="m469.6,306.67c-2.78,14.73-18.8,9.85-51.21,41.35-5.97,5.8-27.47,27.4-50.74,38.06-3.17,1.45-9.7,4.23-13.63,1.41-4.42-3.17-3.03-11.64-2.35-18.79.97-10.21-1.56,3.73-2.35-42.29-.56-32.14.34-58.42.47-62.02.85-24.03,1.91-52.51,6.1-89.74,4.53-40.27,5.07-22.79,12.21-73.77,0,0,3.34-23.8,19.26-52.63,2.39-4.32,6.39-10.98,9.87-10.34,3.26.61,4.79,7.41,5.17,10.81.43,3.89-.26,6.76-1.88,13.16-2.29,9.05-3.44,13.57-3.76,14.57-2.13,6.68-24.66,93.79,12.7,157.87,25.92,44.47,64.37,49.86,60.14,72.35Z"/>
    <path id="bec-inferieur" class="cls-4" d="m37.63,343.04c.21,2.83,16.52,5.76,49.14,11.63,33.15,5.96,45.67,7.17,76.86,10.36,60.75,6.2,94.09,17.92,97.64,9.4,1.61-3.87-3.14-11.07-11.51-23.77,0,0-3.73-5.65-7.41-10.08-17.86-21.46-205.85-12.97-204.72,2.46Z"/>
    <g id="tete">
      <path class="cls-2" d="m0,330.98c.18,1.73,9.25,1.2,41.62,3.47,19.22,1.35,18.46,1.71,41.62,3.47,21.35,1.62,21.54,1.28,55.49,3.47,19.65,1.26,39.37,1.46,58.96,3.47,24.22,2.48,30.59,4.57,34.68,0,8.91-9.95-1.84-41.61-20.81-48.56-6.65-2.43-10.66-.5-31.21,3.47-14.93,2.89-30.06,4.58-45.09,6.94-26.99,4.23-30.86,3.54-55.49,6.94C45.54,318.36-.41,327.07,0,330.98Z"/>
      <g>
        <path class="cls-3" d="m204.62,303.24c-1.49,5.68,4.53,7.31,17.34,34.68,7.73,16.52,7.62,20.38,13.87,27.75,4.62,5.44,15.23,17.94,31.21,17.34,11.06-.42,23.71-7.06,27.75-17.34,4.09-10.43-2.83-19.11,3.47-27.75,3.17-4.34,7.73-6,10.4-6.94,39.65-13.86,59.47-20.79,79.77-24.28,48.23-8.29,91.37-29.02,90.17-34.68-.85-4.03-24.47-2.21-52.02,0-51.28,4.12-70.16,9.3-107.52,13.87-71.35,8.74-110.68,3.05-114.44,17.35Z"/>
        <path class="cls-6" d="m190.75,303.24c-1.49,5.68,4.53,7.31,17.34,34.68,7.73,16.52,7.62,20.38,13.87,27.75,4.62,5.44,15.23,17.94,31.21,17.34,11.06-.42,23.71-7.06,27.75-17.34,4.09-10.43-2.83-19.11,3.47-27.75,3.17-4.34,7.73-6,10.4-6.94,39.65-13.86,59.47-20.79,79.77-24.28,48.23-8.29,91.37-29.02,90.17-34.68-.85-4.03-24.47-2.21-52.02,0-51.28,4.12-70.16,9.3-107.52,13.87-71.35,8.74-110.69,3.05-114.44,17.35Z"/>
      </g>
      <g>
        <ellipse class="cls-5" cx="172.21" cy="322.63" rx="6.43" ry="6.94" transform="translate(-68.29 47.12) rotate(-13.03)"/>
        <ellipse cx="173.41" cy="322.35" rx="3.5" ry="4.67" transform="translate(-68.19 47.38) rotate(-13.03)"/>
      </g>
    </g>
    <g id="corps">
      <path id="corps-droite" class="cls-3" d="m454.34,421.16c2.15-6.5,19.95-4.13,69.36-3.47,19.65.26,39.31-.01,58.96,0,36.42.02,54.63.03,55.49,0,33.12-1.17,50.85-4.19,52.02,0,.19.68.13,2.2-17.34,13.87-15.4,10.29-23.26,15.47-31.21,17.34-7.39,1.74-15.75,3.71-24.28,0-10.55-4.59-13.13-14.3-20.81-13.87-4.43.25-6.87,3.65-10.4,6.94-8.03,7.46-16.91,9.6-34.68,13.87-16.73,4.02-37.51,9.02-58.96,0-7.98-3.36-13.76-7.68-17.34-10.4-6.91-5.25-23.05-17.51-20.81-24.28Z"/>
      <g id="corps-gauche">
        <path class="cls-9" d="m273.99,335.98c4.18,3.99,9.94,8.95,17.34,13.87,4.98,3.31,14.58,9.18,27.75,13.87,12.1,4.31,21.71,5.67,31.21,6.94,31.54,4.21,47.31,6.31,58.96,6.94,57.78,3.1,114.45,0,114.45,0,125.8-6.89,192.08-10.51,194.22,0,1.55,7.62-29.38,20.15-41.62,24.28-12.6,4.25-19.9,6.59-27.75,3.47-8.18-3.26-11.97-10.48-20.81-10.4-5.05.04-8.74,2.44-10.4,3.47-4.66,2.88-39.64,23.81-69.36,31.21-8.8,2.19-16.39,3.01-20.81,3.47-12.29,1.28-18.44,1.92-24.28,0-8.66-2.85-11.06-7.79-17.34-6.94-4.97.67-7.95,4.38-10.4,6.94-4.99,5.21-18.42,10.48-45.09,20.81-16.15,6.26-24.22,9.38-27.75,10.4-12.36,3.59-29.97,8.69-52.02,6.94-11.65-.93-33.26-2.65-52.02-17.34-10.1-7.91-7.1-9.97-31.21-41.62-15.91-20.88-19.83-23.42-20.81-31.21-.85-6.67-.26-22.84,27.74-45.1Z"/>
        <path id="corps-gauche-2" data-name="corps-gauche" class="cls-11" d="m273.99,330.98c4.18,3.99,9.94,8.95,17.34,13.87,4.98,3.31,14.58,9.18,27.75,13.87,12.1,4.31,21.71,5.67,31.21,6.94,31.54,4.21,47.31,6.31,58.96,6.94,57.78,3.1,114.45,0,114.45,0,125.8-6.89,192.08-10.51,194.22,0,1.55,7.62-29.38,20.15-41.62,24.28-12.6,4.25-19.9,6.59-27.75,3.47-8.18-3.26-11.97-10.48-20.81-10.4-5.05.04-8.74,2.44-10.4,3.47-4.66,2.88-39.64,23.81-69.36,31.21-8.8,2.19-16.39,3.01-20.81,3.47-12.29,1.28-18.44,1.92-24.28,0-8.66-2.85-11.06-7.79-17.34-6.94-4.97.67-7.95,4.38-10.4,6.94-4.99,5.21-18.42,10.48-45.09,20.81-16.15,6.26-24.22,9.38-27.75,10.4-12.36,3.59-29.97,8.69-52.02,6.94-11.65-.93-33.26-2.65-52.02-17.34-10.1-7.91-7.1-9.97-31.21-41.62-15.91-20.88-19.83-23.42-20.81-31.21-.85-6.67-.26-22.84,27.74-45.1Z"/>
      </g>
    </g>
    <g id="aile-droite-2" data-name="aile-droite">
      <path class="cls-11" d="m554.92,383.01c-16.33,14.94-30.93-5.02-97.11,3.47-12.19,1.56-56.71,8.02-93.64,0-5.03-1.09-15.2-3.6-17.34-10.4-2.41-7.66,6.74-16.43,13.87-24.28,10.19-11.21-5.14,3.02,34.68-52.02,27.81-38.44,52.15-68.69,55.49-72.83,22.29-27.63,48.77-60.32,86.71-100.58,41.02-43.54,26.17-22.43,79.77-76.3,0,0,25.03-25.16,69.36-45.09,6.65-2.99,17.28-7.31,20.81-3.47,3.31,3.6-.91,13-3.47,17.34-2.93,4.97-6.29,7.76-13.87,13.87-10.73,8.65-16.09,12.98-17.34,13.87-8.44,6-112.21,88.92-124.86,197.69-8.78,75.49,31.86,115.92,6.94,138.73Z"/>
      <path class="cls-3" d="m561.85,383.01c-16.33,14.94-30.93-5.02-97.11,3.47-12.19,1.56-56.71,8.02-93.64,0-5.03-1.09-15.2-3.6-17.34-10.4-2.41-7.66,6.74-16.43,13.87-24.28,10.19-11.21-5.14,3.02,34.68-52.02,27.81-38.44,52.15-68.69,55.49-72.83,22.29-27.63,48.77-60.32,86.71-100.58,41.02-43.54,26.17-22.43,79.77-76.3,0,0,25.03-25.16,69.36-45.09,6.65-2.99,17.28-7.31,20.81-3.47,3.31,3.6-.91,13-3.47,17.34-2.93,4.97-6.29,7.76-13.87,13.87-10.73,8.65-16.09,12.98-17.34,13.87-8.44,6-112.21,88.92-124.86,197.69-8.77,75.49,31.86,115.92,6.94,138.73Z"/>
    </g>
    <g>
      <circle class="cls-7" cx="235.98" cy="307.96" r="8"/>
      <circle class="cls-10" cx="235.98" cy="307.96" r="6"/>
      <circle cx="233.98" cy="307.96" r="4"/>
      <circle class="cls-1" cx="235.98" cy="307.96" r="2"/>
    </g>
  </g>
</svg>