<?xml version="1.0" encoding="UTF-8"?>
<svg id="Calque_2" data-name="Calque 2" xmlns="http://www.w3.org/2000/svg" viewBox="0 0 1009.99 532.36">
  <defs>
    <style>
      .cls-1 {
        fill: #fff;
      }

      .cls-2 {
        fill: #127475;
      }

      .cls-3 {
        fill: #3f70c6;
      }

      .cls-4 {
        fill: #d59020;
      }

      .cls-5 {
        fill: #99270a;
      }

      .cls-6 {
        fill: #cd542d;
      }

      .cls-7 {
        fill: #e2a23c;
      }

      .cls-8 {
        fill: #aa542d;
      }

      .cls-9 {
        fill: #3fffc6;
      }

      .cls-10 {
        fill: #562c2c;
      }

      .cls-11 {
        fill: #ba7878;
      }

      .cls-12 {
        fill: #f69279;
      }

      .cls-13 {
        fill: #0e9594;
      }
    </style>
  </defs>
  <g id="Calque_1-2" data-name="Calque 1">
    <path id="patte-droite" class="cls-8" d="m627.07,458.93c.21-7.92,25.9-14.84,44.61-17.35,25.33-3.4,44.5.4,54.53,2.48,16.82,3.49,26.23,5.57,34.7,13.63,6.35,6.05,6.63,10.19,13.63,13.63,9.55,4.7,15.46.15,26.02,4.96,6.68,3.04,7.25,6.19,13.63,11.15,10.7,8.31,22.38,9.77,33.46,11.15,26.72,3.33,33.89-6.45,50.81,1.24,2.58,1.17,7.09,3.67,16.11,8.67,13.02,7.22,18.13,10.57,23.55,8.67,3.88-1.35,6.42-4.87,8.67-3.72,1.65.84.92,3.04,2.48,4.96,2.58,3.16,8.07,1.39,16.11,1.24,9.75-.19,18.54,2.09,18.59,3.72.02.79-2.05.81-6.2,3.72-1.67,1.17-2.19,1.77-3.72,2.48-1.36.63-2.25.76-4.96,1.24-6.92,1.23-7.83,1.6-9.91,1.24-2.04-.36-1.7-.8-3.72-1.24-5.9-1.27-8.28,2.67-12.39,1.24-2.35-.82-1.8-2.19-6.2-4.96-1.71-1.08-3.19-1.75-4.96-2.48-7.04-2.9-13.89-4.7-14.87-4.96-7.55-1.96-11.32-2.94-16.11-3.72-8.67-1.4-15.13-1.35-23.55-1.24-4.47.06-15.95.34-30.98,2.48-5.07.72-3.7.68-22.31,3.72-12.3,2.01-15.32,2.42-19.83,2.48-6.04.08-12.39.16-19.83-2.48-2.15-.76-8.22-3.11-17.35-11.15-9.11-8.03-11.47-13.09-17.35-19.83-13.9-15.92-34.78-26.61-54.53-28.5-1.61-.15-7.37-.65-14.87,0-15.78,1.37-21.72,6.29-37.18,6.2-6.36-.04-12.28-.91-14.87-4.96-.18-.32-1.26-2.05-1.21-3.71Z"/>
    <path id="aile-droite" class="cls-2" d="m658.05,424.23c-.33,6.57-8.73,11.03-13.63,13.63-19.78,10.5-47.49,7.05-52.05-3.72-1.52-3.58-.23-7.4-3.72-13.63-2.03-3.62-4.49-5.95-6.2-7.44-10.45-9.1-22.36-12.6-34.7-21.07-6.73-4.62-18.4-12.86-23.55-27.26-1.65-4.62-1.28-6.09-2.48-12.39-1.32-6.92-6.93-36.37-28.5-53.29-9.03-7.09-20.26-11.5-19.83-12.39.36-.76,8.04,3.39,9.91,1.24,3.03-3.47-11.15-21.07-11.15-21.07,0,0,15.91,27.03,22.31,24.79,3.58-1.26,2.62-11.16,2.48-23.55,0,0-.22-19.16,4.96-55.77,4.84-34.21,17.47-58.93,21.07-65.68,12.31-23.08,30.77-45.55,34.7-43.37,2.09,1.16-.3,9.11-1.24,12.39-14.04,49.37-3.83,122.11-2.48,131.36.95,6.47,8.07,31.57,22.31,81.79,2,7.05,6.16,21.33,16.11,37.18,4.12,6.56,8.83,13.93,17.35,21.07,8.06,6.75,10.91,6.08,24.79,14.87,14.85,9.42,23.89,15.29,23.54,22.31Z"/>
    <g id="corps">
      <path class="cls-11" d="m268.92,427.9c-4.36,5.33-5.48,11.15-6.2,14.83-.97,5.01-2.37,12.26,1.24,16.18,2.05,2.22,4.79,2.39,9.91,2.7,5.77.35,8.07-.79,14.87-1.35,4.83-.4,8.35-.21,12.39,0,7.97.42,12.43,1.61,18.59,2.7,8.25,1.45,8.08.69,35.94,2.7,7.41.54,6.13.5,17.35,1.35,15.1,1.15,28.74,2.18,38.42,2.7,13.7.73,13.19.07,52.05,0,25.62-.04,38.43-.07,43.37,0,5.31.07,24.85.36,40.9-1.35,6.84-.73,11.15-1.35,11.15-1.35,10.24-1.47,11.46-2.29,17.35-2.7,6.81-.47,11.16-.77,16.11,1.35,3.55,1.52,5.86,3.63,11.15,9.44,11.75,12.9,12.74,16.08,17.35,20.23,7.9,7.09,16.78,8.33,24.79,9.44,35.44,4.91,84.07-19.62,105.34-39.1,0,0,14.06-12.88,33.46-22.92,3.01-1.56,5.73-2.53,6.2-2.7,6.54-2.32,11.83-2.58,13.63-2.7,12.2-.78,29.81-4.44,29.74-5.39-.09-1.32-34.44-1.02-47.09,0-.72.06-2.52.21-4.96,0-8.05-.7-13.61-4.59-14.87-5.39-9.49-6.05-56.82-16.79-107.82-13.48-14.79.96-34.43,2.23-58.25,9.44-8.01,2.43-15.34,5.18-28.5,8.09-3.23.72-12.16,2.63-35.94,5.39-18.09,2.11-28.84,3.36-43.37,4.05-12.49.59-13.46.09-44.61,0-36.51-.11-34.57.58-48.33,0-28.34-1.2-47.7-4.61-52.05-5.39-20.52-3.7-30.78-5.55-38.42-9.44-6.19-3.15-10.82-6.51-18.59-6.74-2.12-.09-14.24-.45-22.3,9.41Z"/>
      <path class="cls-10" d="m268.92,426.71c-4.36,4.9-5.48,10.24-6.2,13.63-.97,4.6-2.37,11.27,1.24,14.87,2.05,2.04,4.79,2.19,9.91,2.48,5.77.32,8.07-.72,14.87-1.24,4.83-.37,8.35-.2,12.39,0,7.97.39,12.43,1.48,18.59,2.48,8.25,1.33,8.08.63,35.94,2.48,7.41.49,6.13.46,17.35,1.24,15.1,1.05,28.74,2.01,38.42,2.48,13.7.67,13.19.06,52.05,0,25.62-.04,38.43-.06,43.37,0,5.31.07,24.85.33,40.9-1.24,6.84-.67,11.15-1.24,11.15-1.24,10.24-1.35,11.46-2.1,17.35-2.48,6.81-.43,11.16-.71,16.11,1.24,3.55,1.4,5.86,3.33,11.15,8.67,11.75,11.85,12.74,14.78,17.35,18.59,7.9,6.52,16.78,7.66,24.79,8.67,35.44,4.51,84.07-18.03,105.34-35.94,0,0,14.06-11.84,33.46-21.07,3.01-1.43,5.73-2.33,6.2-2.48,6.54-2.13,11.83-2.37,13.63-2.48,12.2-.72,29.81-4.08,29.74-4.96-.09-1.21-34.44-.94-47.09,0-.72.05-2.52.19-4.96,0-8.05-.64-13.61-4.22-14.87-4.96-9.49-5.56-56.82-15.43-107.82-12.39-14.79.88-34.43,2.05-58.25,8.67-8.01,2.23-15.34,4.76-28.5,7.44-3.23.66-12.16,2.41-35.94,4.96-18.09,1.94-28.84,3.08-43.37,3.72-12.49.54-13.46.08-44.61,0-36.51-.1-34.57.54-48.33,0-28.34-1.11-47.7-4.24-52.05-4.96-20.52-3.4-30.78-5.1-38.42-8.67-6.19-2.9-10.82-5.98-18.59-6.2-2.12-.05-14.24-.38-22.3,8.69Z"/>
    </g>
    <g id="tete">
      <path class="cls-4" d="m6.2,466.36c.08.81,11,.45,24.79,0,7.05-.23,9.51-.42,26.02-1.24,21.18-1.06,19.73-.88,24.79-1.24,11.08-.78,12.63-1.24,28.5-2.48,7.68-.6,8.59-.59,17.35-1.24,12.39-.92,21.68-1.75,29.74-2.48,71.44-6.45,61.19-9.01,80.55-8.67,8.23.14,17.57.73,18.59-2.48,1.06-3.35-7.46-9.26-13.63-12.39-10.14-5.14-21.6-6.62-44.61-3.72-14.67,1.85-19.79,3.69-53.29,11.15-14.78,3.29-23.26,5.18-34.7,7.44-4.48.88-18.76,3.66-50.81,8.67-36.22,5.67-53.39,7.66-53.29,8.68Z"/>
      <path class="cls-7" d="m39.66,461.41C7.63,464.9.19,466.03,0,465.13c-.31-1.49,19.81-5.37,52.05-16.11,0,0,29.04-9.96,63.2-24.79.5-.22,6.12-2.62,17.35-7.44,8.06-3.45,12.15-5.2,14.87-6.2,4.84-1.77,7.46-2.48,13.63-4.96.47-.19,3.62-1.78,9.91-4.96,2.58-1.31,4-2.04,4.96-3.72,1.06-1.86.57-3.14,1.24-6.2.68-3.11,1.99-5.46,2.48-6.2,3.99-6,18.98-3.71,27.26-1.24,8.49,2.54,15.2,6.84,16.11,7.44,5.51,3.58,6.39,5.45,11.15,7.44,3.92,1.63,7.57,1.91,14.87,2.48,9.85.76,11.41-.2,17.35,1.24,4.43,1.08,7.6,2.59,9.91,3.72,7.82,3.8,12.69,6.17,13.63,9.91,1.87,7.43-11.73,20.11-26.02,22.31-2.88.44-2.76,0-19.83-1.24-8.72-.63-15.44-1.12-21.07-1.24-7.77-.17-14.14.36-29.74,2.48-16.47,2.24-30.74,4.57-54.53,8.67-7.54,1.3-9.26,1.62-28.5,4.96-27.36,4.74-31.52,5.41-37.18,6.2-8.54,1.2-8.88,1.05-33.44,3.73Z"/>
      <path class="cls-5" d="m292.47,422.99c.22-.7,1.01-3.31,0-6.2-1.17-3.33-5.51-9.16-48.33-12.39-9.58-.72-20.07-1.49-34.7-1.24-18.06.3-27.1.46-38.42,3.72-22.79,6.56-31.67,18.36-33.46,23.55-.31.89-1.23,3.56,0,4.96,1.11,1.25,3.37.81,8.67,0,2.89-.44,5.82-.64,8.67-1.24,9.44-1.99,19.02-3.22,28.5-4.96,10.98-2.01,32.69-5.99,55.77,0,11.56,3,13.77,5.99,23.55,6.2,10.91.22,26.9-3.11,29.75-12.4Z"/>
      <path class="cls-12" d="m277.6,430.42c-5.38-3.09-10.49,3.12-30.98,7.44-3.44.72-8.08,1.31-17.35,2.48-25.75,3.25-29.31,2.18-40.9,4.96-13.05,3.13-26.52,8.81-26.02,11.15.28,1.32,4.83.72,23.55,1.24,14.17.4,23.91,1.09,26.02,1.24,8.36.61,12.54.91,14.87,1.24,4.85.69,7.59,1.38,12.39,1.24,1.86-.06,2.94-.2,4.96,0,3.31.33,5.57,1.26,8.67,2.48,6.1,2.39,9.15,3.58,9.91,3.72,5.74,1.01,11.66-2.03,14.87-4.96,9.59-8.74,7.55-27.89.01-32.23Z"/>
    </g>
    <path id="patte-gauche" class="cls-6" d="m653.09,445.29c.21-7.92,25.9-14.84,44.61-17.35,25.33-3.4,44.5.4,54.53,2.48,16.82,3.49,26.23,5.57,34.7,13.63,6.35,6.05,6.63,10.19,13.63,13.63,9.55,4.7,15.46.15,26.02,4.96,6.68,3.04,7.25,6.19,13.63,11.15,10.7,8.31,22.38,9.77,33.46,11.15,26.72,3.33,33.89-6.45,50.81,1.24,2.58,1.17,7.09,3.67,16.11,8.67,13.02,7.22,18.13,10.57,23.55,8.67,3.88-1.35,6.42-4.87,8.67-3.72,1.65.84.92,3.04,2.48,4.96,2.58,3.16,8.07,1.39,16.11,1.24,9.75-.19,18.54,2.09,18.59,3.72.02.79-2.05.81-6.2,3.72-1.67,1.17-2.19,1.77-3.72,2.48-1.36.63-2.25.76-4.96,1.24-6.92,1.23-7.83,1.6-9.91,1.24-2.04-.36-1.7-.8-3.72-1.24-5.9-1.27-8.28,2.67-12.39,1.24-2.35-.82-1.8-2.19-6.2-4.96-1.71-1.08-3.19-1.75-4.96-2.48-7.04-2.9-13.89-4.7-14.87-4.96-7.55-1.96-11.32-2.94-16.11-3.72-8.67-1.4-15.13-1.35-23.55-1.24-4.47.06-15.95.34-30.98,2.48-5.07.72-3.7.68-22.31,3.72-12.3,2.01-15.32,2.42-19.83,2.48-6.04.08-12.39.16-19.83-2.48-2.15-.76-8.22-3.11-17.35-11.15-9.11-8.03-11.47-13.09-17.35-19.83-13.9-15.92-34.78-26.61-54.53-28.5-1.61-.15-7.37-.65-14.87,0-15.78,1.37-21.72,6.29-37.18,6.2-6.36-.04-12.28-.91-14.87-4.96-.17-.31-1.25-2.04-1.21-3.71Z"/>
    <path id="aile-gauche" class="cls-13" d="m599.8,452.73c-1.09-4.17.21-10.16,3.72-12.39,3.04-1.94,5.39.45,12.39,0,1.79-.11,8.69-.72,14.87-4.96,5.31-3.64,3.97-5.76,9.91-9.91,5.05-3.53,7.45-3,9.91-6.2,2.32-3,2.19-6.07,2.48-11.15.63-11.31,1.11-19.79,4.96-27.26,3.47-6.74,5.99-5.48,8.67-12.39,1.95-5.02,1.64-8.32,4.96-13.63,1.13-1.81,1.58-2.09,4.96-6.2,0,0,3.63-4.41,8.67-11.15,4.75-6.35,6.89-13.33,11.15-27.26,5.44-17.76,5.25-24.08,8.67-28.5,2.1-2.71,2.64-4.7,3.72-8.67.13-.47.37-1.44,0-2.48-.35-.97-1.03-1.44-2.48-2.48-2.72-1.95-4.09-2.94-4.96-3.72-.53-.48-.21-.24-2.48-2.48-1.61-1.59-1.85-1.8-2.48-2.48-1.44-1.57-2.84-3.11-2.48-3.72.36-.61,2.32-.05,2.48,0,2.99.88,4.09,3.26,7.44,7.44,2.86,3.57,5.47,6.76,7.44,6.2.57-.17,1.18-.68,1.24-1.24.11-1-1.55-1.86-2.48-2.48-2.13-1.42-3.07-3.42-4.96-7.44-2.41-5.12-3.2-10.91-2.48-11.15.75-.26,3.34,5.39,3.72,6.2,1.49,3.23,1.26,3.67,2.48,6.2,1.39,2.87,4.41,7.94,6.2,7.44.84-.24,1.19-1.65,1.24-2.48.14-2.17-1.52-3.73-2.48-4.96-2.34-3-2.4-6.52-2.48-11.15-.13-7.39,3.01-13.78,3.72-13.63.28.06.09,1.17,0,7.44-.05,3.27-.04,5.59,0,7.44.07,3.84.27,6.7,1.24,9.91.51,1.7,1.15,3.17,2.48,3.72.89.37,1.81.2,2.48,0,5.67-1.7,12.39-9.91,12.39-9.91,6.45-7.87-.87,2.41,9.91-11.15,7.98-10.04,11.92-15.59,16.11-21.07,7.04-9.2,12.72-15.52,21.07-24.79,7.51-8.34,7.82-8.19,18.59-19.83,8.41-9.08,14.37-15.82,22.31-24.79,7.11-8.03,15-16.94,24.79-28.5,13.02-15.38,12.7-15.72,23.55-28.5,6.85-8.08,14.48-16.54,29.74-33.46,35.97-39.89,28.83-30.74,30.98-33.46,2.99-3.79,11.56-14.85,26.02-23.55,8.7-5.23,10.6-4.24,11.15-3.72,1.7,1.61-.85,6.8-4.96,14.87-7.56,14.86-14.02,26.97-16.11,30.98-4.04,7.76-2.11,5.24-12.39,28.5-5.1,11.53-9.11,20.58-14.87,32.22-4.96,10.01-8.91,17.31-13.63,26.02-3.87,7.15-6.25,11.35-17.35,30.98-10.47,18.51-15.71,27.78-16.11,28.5-8.82,15.8-9.07,16.72-22.31,40.9-15.82,28.9-15.17,27.05-21.07,38.42-7.7,14.85-9.17,18.73-16.11,30.98-6,10.6-9.38,16.57-14.87,24.79-6.79,10.16-9.44,12.73-13.63,21.07-2.58,5.13-1.74,4.5-7.44,17.35-6,13.55-8.3,17.36-9.91,19.83-2.11,3.22-4.24,5.98-9.91,12.39-8.26,9.32-12.38,13.98-21.07,22.31-22.09,21.18-33.14,31.77-43.37,37.18-4.54,2.4-26.95,13.78-55.77,11.15-5.18-.5-33.77-3.11-37.17-16.14Z"/>
    <g>
      <circle class="cls-3" cx="198" cy="412.21" r="8"/>
      <circle class="cls-9" cx="198" cy="412.21" r="6"/>
      <circle cx="196" cy="412.21" r="4"/>
      <circle class="cls-1" cx="198" cy="412.21" r="2"/>
    </g>
  </g>
</svg>