<?xml version="1.0" encoding="UTF-8"?>
<svg id="Calque_2" data-name="Calque 2" xmlns="http://www.w3.org/2000/svg" viewBox="0 0 951.73 596.02">
  <defs>
    <style>
      .cls-1 {
        fill: #fff;
      }

      .cls-2 {
        fill: #f97639;
      }

      .cls-3 {
        fill: #3f70c6;
      }

      .cls-4 {
        fill: #5f9bab;
      }

      .cls-5 {
        fill: #a1c084;
      }

      .cls-6 {
        fill: #f0a8b1;
      }

      .cls-7 {
        fill: #b6ff1f;
      }

      .cls-8 {
        fill: #3fffc6;
      }

      .cls-9 {
        fill: #e05263;
      }

      .cls-10 {
        fill: #f96039;
      }

      .cls-11 {
        fill: #659157;
      }
    </style>
  </defs>
  <g id="Calque_1-2" data-name="Calque 1">
    <path id="aile-d" class="cls-10" d="m334.17,306.76c-1.92,3.88,1.36-1.68-5.55,16.65-9.17,24.33-11.21,24.18-12.21,29.97-3.44,19.9,19.76,26.3,24.42,51.06,5.32,28.3-20.26,44.98-12.21,55.51,5.38,7.03,19.25,2.81,91.03-6.66,11.88-1.57,15.02-1.92,19.98-1.11,20.58,3.35,37.34,20.9,56.62,41.07,2.68,2.8,8.52,9.08,17.76,14.43,4.39,2.54,9.34,4.76,11.1,5.55,6.58,2.93,11.82,4.7,14.43,5.55,10.16,3.33,50.2,15.81,51.06,13.32.32-.93-5.17-2.87-17.76-9.99-11.24-6.36-20.99-11.88-29.97-19.98-4.32-3.9-6.04-6.2-18.87-23.31-23.24-30.98-22.99-30.58-23.31-31.08-9.63-14.91-13.95-27.54-22.2-52.17-6.92-20.68-12.02-35.9-15.54-56.62-1.66-9.78-6.84-41.49-2.22-75.49,10.04-73.99,62-126.08,55.51-130.99-1.06-.8-2.93.22-6.66,2.22-39.35,21.07-33.88,15.4-45.51,23.31-15.94,10.83-49.03,36.97-73.27,71.05-10.49,14.75-24.06,27.07-35.52,41.07,0,0-7.26,8.87-8.88,7.77-.75-.51,1.13-3.1,0-5.55-1.35-2.94-6.27-4.04-9.99-3.33-5.02.96-8,5.24-7.77,5.55.21.28,2.93-2.59,6.66-2.22.77.08,2.93.42,4.44,2.22.97,1.15,1.23,2.39,1.38,3.12.25,1.26.35,3.34-.27,3.54-.65.21-1.24-1.94-3.33-3.33-2.22-1.48-4.82-1.21-5.55-1.11-5.56.79-8.19,7.4-7.77,7.77.28.25,1.89-2.24,5.55-3.33,1.29-.38,3.47-1.04,5.55,0,2.87,1.43,3.81,5.22,3.33,5.55-.34.24-1.16-1.45-3.33-2.22-2.02-.72-4.73-.47-6.66,1.11-2.09,1.72-3.02,4.83-2.22,5.55.53.48,1.48-.41,4.44-1.11,2.16-.51,4.29-1.01,5.55,0,1.05.85,1.11,2.43,1.11,3.33-.04,6.65-3.35,13.33-3.35,13.33Z"/>
    <path id="patte-d" class="cls-5" d="m588.38,526.56c.87.27,4,1.22,7.77,3.33,3.88,2.17,5.11,3.71,7.77,5.55,3.07,2.12,7.27,3.29,15.54,5.55,9.39,2.56,12.13,2.57,14.43,5.55,2.53,3.27,2.6,7.63,2.22,7.77-.29.1-.96-2.12-3.33-4.44-1.46-1.42-3.11-2.45-3.33-2.22-.25.26,1.51,2.03,3.33,5.55.76,1.47,1.52,2.97,1.11,3.33-.4.35-1.58-.63-4.44-2.22-.62-.35-2.46-1.35-4.44-2.22-2.7-1.18-6.47-2.61-6.66-2.22-.04.07,0,.3,4.44,3.33,3.62,2.47,4.6,2.99,5.55,4.44,1.08,1.65,1.77,3.93,1.11,4.44-.72.56-2.89-1.06-4.44-2.22-3.94-2.94-5.55-4.44-5.55-4.44-.55-.51-1.36-1.29-2.22-1.11-.55.11-1.12.61-1.11,1.11.01.71,1.19,1.03,3.33,2.22,1.81,1,2.71,1.5,3.33,2.22,1.78,2.06,1.72,5.33,1.11,5.55-.38.14-.78-.98-2.22-2.22-1.59-1.38-2.88-1.54-4.44-2.22-3.2-1.38-3.24-3.03-6.66-5.55-2.49-1.84-4.49-2.46-6.66-3.33-6.26-2.52-8.41-4.93-16.65-9.99-5.63-3.46-9.78-5.5-16.65-8.88-13.83-6.81-24.37-9.64-32.19-12.21-5.23-1.72-18.73-8.57-45.51-22.2-49.69-25.29-46.09-24.16-54.4-27.75-7.59-3.29-14.73-7.55-22.2-11.1-9.72-4.61-15.83-7.19-15.54-9.99.28-2.72,6.45-4.14,7.77-4.44,15.44-3.54,30.84,6.55,34.41,8.88,22.54,14.66,57.4,34.36,82.15,45.51,8.91,4.01,53.27,23.48,63.27,26.64Z"/>
    <g id="corps">
      <path class="cls-6" d="m205.22,468.78c-7.63,4.92-14.3,14.64-12,22,2.76,8.83,18.16,11.71,30,12,7.05.17,11.33-4.56,16-2,3.57,1.95,3.25,5.17,7,10,3.72,4.79,8.11,6.86,15,10,11.41,5.21,21.49,6.58,25,7,5.18.62,26.47,2.82,58-5,16.22-4.02,31.2-7.74,48-19,13.15-8.82,21.22-18.21,27-25,10.91-12.81,17.03-20,15-24-3.76-7.4-30.8,5.16-74,11-50.34,6.8-81.02,10.95-116,2-9.07-2.32-25.91-7.43-39,1Z"/>
      <path class="cls-4" d="m204.28,447.74c-4.25.16-9.76.38-14.43,3.33-11.12,7.04-14.04,27.43-6.66,34.41,3.15,2.98,9.03,4.32,14.43,5.55,3.39.77,6,1.04,6.66,1.11,9.83.98,12.95-1.8,24.42-2.22,6.75-.25,10.7-.34,14.43,2.22,3.96,2.72,4.76,6.45,6.66,9.99,4.34,8.09,12.43,11.46,22.2,15.54,25.9,10.8,61.58,1.15,69.94-1.11,10.54-2.85,30.33-8.39,51.06-23.31,21.34-15.35,19.92-23.54,36.63-31.08,15.93-7.19,30.53-5.77,55.51-3.33,17.95,1.75,20.16,3.91,56.62,11.1,30.73,6.06,32.05,5.09,55.51,9.99,5.66,1.18,14.55,3.11,61.06,15.54,42.56,11.37,63.84,17.06,79.93,22.2,35.01,11.19,35.26,13.39,57.73,19.98,12.13,3.56,23.43,9.62,35.52,13.32,1.17.36,4.92,1.48,8.88,4.44,2.91,2.18,4.66,4.4,5.55,5.55,7.16,9.22,10.92,14.82,13.32,17.76,5.78,7.08,12.87,10.04,21.09,13.32,24.14,9.64,36.32-1.77,62.17,2.22,2.01.31,7.47,1.23,8.88-1.11,1.42-2.35-1.95-6.8-4.44-9.99-10.84-13.89-16.26-20.84-23.31-26.64-12-9.87-18-14.81-26.64-16.65-11.55-2.46-24.9.13-29.97,1.11-2.88.56-8.58,1.82-16.65,2.22,0,0-5.12.25-9.99,0-14.75-.77-29.97-8.33-31.08-8.88-19.19-9.5-40.73-13.25-61.06-19.98-25.67-8.49-38.5-12.74-55.51-17.76-24.03-7.1-42.75-11.8-53.28-14.43-14.51-3.63-31.17-7.77-53.28-12.21-9.94-2-8.91-1.63-42.18-7.77-31.95-5.9-33.14-6.28-42.18-7.77-21.03-3.46-36.76-5.04-53.28-6.66-52.6-5.17-78.9-7.75-99.91-5.55-18.64,1.95-34.49,5.63-65.5,7.77-12.73.88-20.76,1-28.86,1.11-18.94.25-28.4.38-34.41-1.11-3.9-.96-8.65-2.48-15.58-2.22Z"/>
    </g>
    <g id="tete">
      <path class="cls-9" d="m199.84,474.38c2.79-9.69-2.11-24.37-9.99-27.75-1.4-.6-3.52-.77-7.77-1.11-3.94-.32-10.1-.78-17.76,0-1.22.12-13.52,1.46-25.53,6.66-18.54,8.03-29.79,22.42-33.3,26.64C72.39,518.65-1.65,532.62.03,537.66c1.33,3.98,46.77-7.23,75.49-15.54,18.57-5.38,16.32-5.54,44.4-14.43,59.13-18.72,76.16-20.23,79.92-33.31Z"/>
      <path class="cls-4" d="m107.22,479.78c-1.81,4.27-1.98,7.84-2,9-.05,2.47-.18,8.5,4,13,.85.91,3.48,3.75,7,4,.31.02.25,0,3,0,4,0,4.26.06,5,0,2.48-.18,3.98-1.09,6-2,2.29-1.04,2.4-.8,10-3,5.13-1.49,4.46-1.42,16-5,5.68-1.76,8.68-2.69,13-4,7.17-2.16,10.26-3.02,15-5,3.82-1.59,6.38-2.94,9-5,2.11-1.66,3.69-2.91,5-5,3.55-5.68,1.87-12.47,1-16-.75-3.03-1.68-6.8-5-10-2.5-2.42-5.19-3.37-7-4-3.42-1.18-6.66-1.14-13-1-2.94.06-6.86.16-12,1-3.42.56-5.91,1.2-9,2-3.06.79-6.16,1.59-10,3-5.45,2-9.44,4.14-11,5-2.28,1.26-7.77,4.46-14,10-5.6,4.98-8.8,7.83-11,13Z"/>
      <path class="cls-7" d="m14.52,532.78c.74,1.74,1.49,3.47,2.23,5.21-.61.26-1.23.53-1.84.79-.12-2-.26-4-.39-6Z"/>
      <path class="cls-7" d="m12.52,533.78c.74,1.74,1.49,3.47,2.23,5.21-.61.26-1.23.53-1.84.79-.12-2-.26-4-.39-6Z"/>
      <path class="cls-7" d="m10.52,534.78c.74,1.74,1.49,3.47,2.23,5.21-.61.26-1.23.53-1.84.79-.12-2-.26-4-.39-6Z"/>
      <path class="cls-7" d="m8.52,535.78c.74,1.74,1.49,3.47,2.23,5.21-.61.26-1.23.53-1.84.79-.12-2-.26-4-.39-6Z"/>
      <path class="cls-7" d="m16.52,531.78c.74,1.74,1.49,3.47,2.23,5.21-.61.26-1.23.53-1.84.79-.12-2-.26-4-.39-6Z"/>
      <path class="cls-7" d="m18.52,530.78c.74,1.74,1.49,3.47,2.23,5.21-.61.26-1.23.53-1.84.79-.12-2-.26-4-.39-6Z"/>
      <path class="cls-7" d="m20.52,529.78c.74,1.74,1.49,3.47,2.23,5.21-.61.26-1.23.53-1.84.79-.12-2-.26-4-.39-6Z"/>
      <path class="cls-7" d="m22.52,529.78c.74,1.74,1.49,3.47,2.23,5.21-.61.26-1.23.53-1.84.79-.12-2-.26-4-.39-6Z"/>
      <path class="cls-7" d="m24.52,528.78c.74,1.74,1.49,3.47,2.23,5.21-.61.26-1.23.53-1.84.79-.12-2-.26-4-.39-6Z"/>
      <path class="cls-7" d="m26.52,527.78c.74,1.74,1.49,3.47,2.23,5.21-.61.26-1.23.53-1.84.79-.12-2-.26-4-.39-6Z"/>
      <path class="cls-7" d="m28.52,527.78c.74,1.74,1.49,3.47,2.23,5.21-.61.26-1.23.53-1.84.79-.12-2-.26-4-.39-6Z"/>
      <path class="cls-7" d="m30.52,527.78c.74,1.74,1.49,3.47,2.23,5.21-.61.26-1.23.53-1.84.79-.12-2-.26-4-.39-6Z"/>
      <path class="cls-7" d="m32.52,526.78c.74,1.74,1.49,3.47,2.23,5.21-.61.26-1.23.53-1.84.79-.12-2-.26-4-.39-6Z"/>
      <path class="cls-7" d="m34.52,525.78c.74,1.74,1.49,3.47,2.23,5.21-.61.26-1.23.53-1.84.79-.12-2-.26-4-.39-6Z"/>
      <path class="cls-7" d="m36.52,524.78c.74,1.74,1.49,3.47,2.23,5.21-.61.26-1.23.53-1.84.79-.12-2-.26-4-.39-6Z"/>
      <path class="cls-7" d="m38.52,523.78c.74,1.74,1.49,3.47,2.23,5.21-.61.26-1.23.53-1.84.79-.12-2-.26-4-.39-6Z"/>
      <path class="cls-7" d="m40.52,522.78c.74,1.74,1.49,3.47,2.23,5.21-.61.26-1.23.53-1.84.79-.12-2-.26-4-.39-6Z"/>
      <path class="cls-7" d="m42.52,521.78c.74,1.74,1.49,3.47,2.23,5.21-.61.26-1.23.53-1.84.79-.12-2-.26-4-.39-6Z"/>
      <path class="cls-7" d="m44.52,520.78c.74,1.74,1.49,3.47,2.23,5.21-.61.26-1.23.53-1.84.79-.12-2-.26-4-.39-6Z"/>
      <path class="cls-7" d="m46.52,519.78c.74,1.74,1.49,3.47,2.23,5.21-.61.26-1.23.53-1.84.79-.12-2-.26-4-.39-6Z"/>
      <path class="cls-7" d="m48.52,518.78c.74,1.74,1.49,3.47,2.23,5.21-.61.26-1.23.53-1.84.79-.12-2-.26-4-.39-6Z"/>
      <path class="cls-7" d="m50.52,518.78c.74,1.74,1.49,3.47,2.23,5.21-.61.26-1.23.53-1.84.79-.12-2-.26-4-.39-6Z"/>
      <path class="cls-7" d="m51.52,517.78c.74,1.74,1.49,3.47,2.23,5.21-.61.26-1.23.53-1.84.79-.12-2-.26-4-.39-6Z"/>
      <path class="cls-7" d="m52.52,516.78c.74,1.74,1.49,3.47,2.23,5.21-.61.26-1.23.53-1.84.79-.12-2-.26-4-.39-6Z"/>
      <path class="cls-7" d="m54.52,516.78c.74,1.74,1.49,3.47,2.23,5.21-.61.26-1.23.53-1.84.79-.12-2-.26-4-.39-6Z"/>
      <path class="cls-7" d="m55.52,515.78c.74,1.74,1.49,3.47,2.23,5.21-.61.26-1.23.53-1.84.79-.12-2-.26-4-.39-6Z"/>
      <path class="cls-7" d="m56.52,514.78c.74,1.74,1.49,3.47,2.23,5.21-.61.26-1.23.53-1.84.79-.12-2-.26-4-.39-6Z"/>
      <path class="cls-7" d="m58.52,513.78c.74,1.74,1.49,3.47,2.23,5.21-.61.26-1.23.53-1.84.79-.12-2-.26-4-.39-6Z"/>
      <path class="cls-7" d="m60.52,513.78c.74,1.74,1.49,3.47,2.23,5.21-.61.26-1.23.53-1.84.79-.12-2-.26-4-.39-6Z"/>
      <path class="cls-7" d="m61.52,512.78c.74,1.74,1.49,3.47,2.23,5.21-.61.26-1.23.53-1.84.79-.12-2-.26-4-.39-6Z"/>
      <path class="cls-6" d="m214.49,487.09c-5.52-7.13-16.28-7.11-22.96-6.86-36.79,1.39-71.94,13.56-71.94,13.56-17.42,6.04-52.67,18.24-74.5,31.31-3.88,2.32-9.36,5.88-17.94,8.86-13.18,4.58-24.22,4.52-24.27,6.49-.02,1.19,3.96,2.35,7.28,2.93,12.71,2.2,23.05-2.94,33.77-7.41,0,0,13.35-5.57,28.96-10.19,0,0,27.86-8.24,57.74-8.95,1.03-.02,6.23-.14,12.94-.21,12.44-.14,13.72.02,21.89-.17,10.89-.26,16.33-.39,18.46-.88,1.77-.4,5.07-1.28,9.51-.92,3.84.31,4.58,1.23,6.88,1.41,6.25.49,14.35-5.22,16.73-13.41.15-.52,2.48-9.06-2.55-15.56Z"/>
    </g>
    <g id="patte-g">
      <path class="cls-2" d="m528.43,463.28c-.08.74-6.64-.63-13.32,3.33-3.94,2.34-7.37,6.2-8.88,9.99-1.32,3.32-3.4,12.21,18.87,42.18,13.47,18.13,18.96,21.25,17.76,23.31-3.86,6.63-65.53-16.74-122.11-55.51,0,0-10.9-6.06-37.74-28.86-7.14-6.07-12.26-10.8-11.1-13.32,1.59-3.45,14.02-.67,23.31,1.11,23.46,4.49,8.35-.95,69.94,6.66,47.21,5.85,63.41,9.95,63.27,11.11Z"/>
      <path class="cls-5" d="m383.01,449.96c-3.14,1.45-6.73,5.12-6.66,8.88.06,3.24,2.81,5.21,9.99,11.1,12.2,10.01,9.49,8.64,14.43,12.21,8.59,6.2,15.36,9.31,21.09,12.21,20.56,10.39,18.98,13.52,34.41,21.09,19.52,9.58,22.12,4.6,43.29,14.43,8.28,3.84,15.88,8.85,31.08,18.87,22.65,14.93,37.81,26.77,38.85,25.53.91-1.09-9.86-11.1-8.88-12.21,1.02-1.16,13.72,8.64,14.43,7.77.65-.81-9.91-9.64-8.88-11.1,1.11-1.58,14.86,6.64,15.54,5.55.6-.96-9.3-8.29-8.88-8.88.36-.5,7.24,4.8,8.88,3.33,1.25-1.12-.99-5.71-2.22-7.77-9.6-16.08-40.18-15.88-39.96-18.87.13-1.88,12.21-2.21,12.21-3.33s-12.28-1.95-15.54-2.22c-13.17-1.09-23.59-5.2-51.06-19.98-34.51-18.57-51.76-27.86-62.17-35.52-17.64-13-30.44-25.5-39.95-21.09Z"/>
    </g>
    <g id="aile-g">
      <path class="cls-2" d="m262.02,472.94c8.16,5.8,21.36-6.49,46.62-15.54,4.08-1.46,33.39-11.7,61.06-8.88,20.2,2.06,24.94,9.59,74.38,38.85,32.89,19.47,72.39,40.76,74.38,37.74.89-1.35-6.38-6.62-17.76-18.87-12.38-13.34-19.41-24.01-24.42-31.08-13.92-19.65-26.39-31.94-67.72-78.82-31.19-35.38-46.79-53.07-63.28-73.27-37.37-45.78-56.06-68.67-69.94-95.47-18.89-36.49-26.09-67.64-36.63-113.23C221.06,38.04,223.47,1.17,213.18.03c-17.45-1.93-42.32,102.08-45.51,115.45-1.75,7.33-13.27,50.85-17.76,108.79-3.25,41.98-.04,54.46,4.44,64.39,7.41,16.4,13.59,15.37,38.85,53.28,10.52,15.79,12.18,20.07,22.2,33.3,11.35,14.99,15.09,17.26,23.31,29.97,6.75,10.44,12.83,19.86,16.65,33.3,5.9,20.82.32,29.93,6.66,34.43Z"/>
      <path class="cls-11" d="m287.54,413.33c-1.93,1.93-4.59,2.14-5.55,2.22-4.49.36-8.11-2.11-11.1-4.44-6.92-5.4-10.63-10.19-14.43-14.43-2.98-3.32-7.16-7.03-15.54-14.43-11.09-9.81-16.64-14.71-21.09-16.65-7.82-3.41-12.11-2.56-14.43-6.66-2.76-4.88-.6-13.02,3.33-14.43,3.41-1.23,6.82,3.08,16.65,11.1,5.91,4.83,10.6,8.03,19.98,14.43,15.8,10.79,27.75,17.76,27.75,17.76,8.45,4.93,13.43,7.4,15.54,13.32.22.6,2.84,8.26-1.11,12.21Z"/>
      <path class="cls-11" d="m213.17,351.16c.1,1.71-.39,4.33-2.22,5.55-3.22,2.15-9.04-1.05-12.21-4.44-2.34-2.49-2.14-3.92-4.44-7.77-1.52-2.56-4-5.07-8.88-9.99-6.33-6.38-9.49-9.57-14.43-13.32-2.84-2.16-2.78-1.86-7.77-5.55-3.42-2.53-4.44-3.4-6.66-4.44-1.23-.57-.67-.19-6.66-2.22-3.35-1.13-4.28-1.51-5.55-1.11-1.51.48-2.81,1.82-3.33,3.33-1.38,4,3.02,8.19,2.22,8.88-.61.53-3.82-1.38-5.55-4.44-.53-.94-2.25-3.99-1.11-6.66,1.33-3.09,5.41-3.14,5.55-5.55.05-.91-.49-1.79-1.11-2.22-1.53-1.06-4.21.09-5.55,1.11-5.04,3.85-2.29,14.29-3.33,14.43-.71.1-2.53-4.64-2.22-9.99.15-2.58.43-7.33,3.33-8.88,1.15-.62,1.67-.17,6.66-1.11,2.83-.54,3.29-.8,3.33-1.11.1-.77-2.32-1.88-4.44-2.22-1.32-.21-2.37-.1-3.33,0-1.48.16-3.17.34-4.44,1.11-3.11,1.87-2.87,6.71-3.33,6.66-.45-.05-1.5-4.91,1.11-8.88,2.26-3.43,6-4.3,6.66-4.44,3.95-.84,7.37.81,9.99,2.22,9,4.86,15.64,10.74,22.2,16.65,8.05,7.26,12.08,10.89,13.32,12.21,8.57,9.15,8.76,12.3,15.54,16.65,2.72,1.74,5.6,3.1,9.99,6.66,5.53,4.49,6.54,6.86,6.66,8.88Z"/>
      <path class="cls-11" d="m259.79,468.83c0,2.55,0,7.74,3.33,11.1,6.86,6.91,22.41.6,26.64-4.44.93-1.11,2.42-3.14,4.44-11.1,4.19-16.52,1.17-.2,3.33-24.42,1.24-13.97,1.33-16.36,0-19.98-.78-2.11-3.81-10.38-9.99-11.1-5.9-.69-10.63,5.98-11.1,6.66-1.69,2.45-1.77,4.05-3.33,9.99-.73,2.79-1.97,6.67-4.44,14.43-3.22,10.11-5.55,16.65-5.55,16.65-2.48,6.96-3.33,8.76-3.33,12.21Z"/>
    </g>
    <g>
      <circle class="cls-3" cx="134.72" cy="471.28" r="8"/>
      <circle class="cls-8" cx="134.72" cy="471.28" r="6"/>
      <circle cx="132.72" cy="471.28" r="4"/>
      <circle class="cls-1" cx="134.72" cy="471.28" r="2"/>
    </g>
  </g>
</svg>