<?xml version="1.0" encoding="UTF-8"?>
<svg id="Calque_2" data-name="Calque 2" xmlns="http://www.w3.org/2000/svg" viewBox="0 0 825.89 387.32">
  <defs>
    <style>
      .cls-1 {
        fill: #fff;
      }

      .cls-2 {
        fill: #55beff;
      }

      .cls-3 {
        fill: #3f70c6;
      }

      .cls-4 {
        fill: #ff5f5f;
      }

      .cls-5 {
        fill: #ff836a;
      }

      .cls-6 {
        fill: #b17fff;
      }

      .cls-7 {
        fill: #ffd45f;
      }

      .cls-8 {
        fill: #3fffc6;
      }

      .cls-9 {
        fill: #d7ff9f;
      }

      .cls-10 {
        fill: #ffbb5f;
      }

      .cls-11 {
        fill: #00bfbc;
      }
    </style>
  </defs>
  <g id="Calque_1-2" data-name="Calque 1">
    <path id="cuisse-droite" class="cls-4" d="m570.16,207.17c-8.43-1.4-14.93.92-20.58,2.94-3.95,1.41-15.13,5.57-23.52,16.17-5.37,6.79-4.4,9.67-10.29,23.52-8.24,19.4-12.15,18.49-16.17,30.87-2.35,7.25-8.98,27.67,1.47,39.69,10.39,11.94,31.33,8.29,36.75,7.35,8.09-1.41,13.33-4.19,22.05-8.82,14.95-7.94,27.76-14.74,36.75-29.4,2.89-4.71,9.85-16.43,8.82-32.34-.43-6.59-2.68-12.07-5.88-20.58-3.32-8.82-4.98-13.24-8.82-17.64-2.36-2.7-9.36-9.9-20.58-11.76Z"/>
    <path id="mollet-droite" class="cls-5" d="m536.35,301.24c-4.86,1.22-9.53,2.4-14.7,5.88-4.07,2.75-6.35,5.51-10.29,10.29-4.82,5.85-7.23,8.78-7.35,11.76-.07,1.74.34,4.04,8.82,14.7,7.07,8.89,9.37,10.54,8.82,13.23-.72,3.51-5.16,3.23-11.76,8.82-1.84,1.56-10.64,9-8.82,14.7,1.19,3.72,6.41,5.2,8.82,5.88,5.39,1.52,9.78.58,13.23,0,15.22-2.56,15.74,1.36,29.4-1.47,8.8-1.82,13.76-2.85,17.64-7.35,6.15-7.13,4.82-17.44,4.41-20.58-.91-7.02-4.15-12.99-5.88-16.17-2.77-5.09-3.36-4.37-4.41-7.35-1.83-5.23-.14-7.88,0-19.11.1-7.6-.64-9.18-1.47-10.29-2.4-3.22-6.55-3.85-10.29-4.41-6.32-.96-11.31.24-16.17,1.47Z"/>
    <path id="bras-droite" class="cls-5" d="m165.22,219.66c-5.08,1.04-11,2.34-16.17,7.35-.9.88-3.89,3.91-5.88,8.82-1.03,2.55-3.32,9.38,0,22.05,3.06,11.67,6.36,11.04,11.76,24.99.63,1.64,4.63,12.18,5.88,26.46.72,8.17,1.02,12.34-1.47,16.17-2.91,4.48-6.45,3.96-16.17,10.29-7.48,4.87-11.68,7.69-11.76,11.76-.09,4.59,5.11,8.61,8.82,10.29,3.15,1.43,5.84,1.44,8.82,1.47,16.88.19,18.46.89,30.87,0,6.01-.43,8.89-.83,11.76-2.94,3.69-2.72,5.07-6.58,5.88-8.82,7.9-21.84,7.33-14.73,10.29-26.46,3.98-15.74,6.65-26.3,5.88-41.16-.99-19.09-6.97-32.16-11.76-42.63-4.89-10.69-8.12-14.04-11.76-16.17-8.35-4.88-18.02-2.9-24.99-1.47Z"/>
    <path id="bras-gauche" class="cls-5" d="m235.77,240.24c-5.08,1.04-11,2.34-16.17,7.35-.9.88-3.89,3.91-5.88,8.82-1.03,2.55-3.32,9.38,0,22.05,3.06,11.67,6.36,11.04,11.76,24.99.63,1.64,4.63,12.18,5.88,26.46.72,8.17,1.02,12.34-1.47,16.17-2.91,4.48-6.45,3.96-16.17,10.29-7.48,4.87-11.68,7.69-11.76,11.76-.09,4.59,5.11,8.61,8.82,10.29,3.15,1.43,5.84,1.44,8.82,1.47,16.88.19,18.46.89,30.87,0,6.01-.43,8.89-.83,11.76-2.94,3.69-2.72,5.07-6.58,5.88-8.82,7.9-21.84,7.33-14.73,10.29-26.46,3.98-15.74,6.65-26.3,5.88-41.16-.99-19.09-6.97-32.16-11.76-42.63-4.89-10.69-8.12-14.04-11.76-16.17-8.34-4.88-18.02-2.9-24.99-1.47Z"/>
    <path id="mollet-gauche" class="cls-5" d="m436.4,296.83c-4.86,1.22-9.53,2.4-14.7,5.88-4.07,2.75-6.35,5.51-10.29,10.29-4.82,5.85-7.23,8.78-7.35,11.76-.07,1.74.34,4.04,8.82,14.7,7.07,8.89,9.37,10.54,8.82,13.23-.72,3.51-5.16,3.23-11.76,8.82-1.84,1.56-10.64,9-8.82,14.7,1.19,3.72,6.41,5.2,8.82,5.88,5.39,1.52,9.78.58,13.23,0,15.22-2.56,15.74,1.36,29.4-1.47,8.8-1.82,13.76-2.85,17.64-7.35,6.15-7.13,4.82-17.44,4.41-20.58-.91-7.02-4.15-12.99-5.88-16.17-2.77-5.09-3.36-4.37-4.41-7.35-1.83-5.23-.14-7.88,0-19.11.1-7.6-.64-9.18-1.47-10.29-2.4-3.22-6.55-3.85-10.29-4.41-6.32-.95-11.3.25-16.17,1.47Z"/>
    <g id="corps">
      <path class="cls-11" d="m662.2,241.19c3.68-.51,6.49-5.67,6.91-9.96.15-1.49-.41-3.8-1.52-8.43-1.05-4.37-1.6-6.57-2.63-7.47-2.54-2.2-6.62-1.41-10.37-.69-1.14.22-3.92.84-7.47,2.63-4.17,2.11-10.03,5.07-9.95,8.71.06,2.65,3.23,4.54,8.85,7.88,3.59,2.13,3.54,1.44,10.1,4.84,4.03,2.09,4.69,2.69,6.08,2.49Z"/>
      <path class="cls-11" d="m601.24,196.7c3.61.89,8.13-2.86,10.11-6.68.69-1.33,1.03-3.68,1.71-8.4.64-4.44.95-6.69.33-7.91-1.54-2.99-5.62-3.77-9.38-4.49-1.14-.22-3.95-.68-7.91-.33-4.66.41-11.19.99-12.48,4.4-.93,2.48,1.32,5.41,5.3,10.6,2.54,3.31,2.75,2.65,7.58,8.24,2.98,3.44,3.38,4.24,4.74,4.57Z"/>
      <path class="cls-11" d="m624.29,227.45c3.61.89,8.13-2.86,10.11-6.68.69-1.33,1.03-3.68,1.71-8.4.64-4.44.95-6.69.33-7.91-1.54-2.99-5.62-3.77-9.38-4.49-1.14-.22-3.95-.68-7.91-.33-4.66.41-11.19.99-12.48,4.4-.93,2.48,1.32,5.41,5.3,10.6,2.54,3.31,2.75,2.65,7.58,8.24,2.98,3.44,3.37,4.23,4.74,4.57Z"/>
      <path class="cls-2" d="m778.88,199.82c-5.2-.9-5.08-7.84-13.23-23.52-5.33-10.25-12.51-21-19.11-30.87-5.51-8.25-8.41-12.05-7.35-13.23,1.65-1.83,11.46,4.1,17.64,8.82,6.66,5.08,10.87,10.09,14.7,14.7,5.4,6.51,3.68,5.78,13.23,19.11,5.9,8.23,7.6,9.97,7.35,13.23-.49,6.24-7.76,12.71-13.23,11.76Z"/>
      <path class="cls-2" d="m815.15,149.07c3.43-4.01-1.09-9.28-4.82-26.55-2.44-11.3-3.76-24.16-4.98-35.96-1.02-9.87-1.21-14.65-2.78-14.88-2.43-.36-6.2,10.47-7.96,18.04-1.89,8.16-1.93,14.71-1.94,20.7-.01,8.46.85,6.8,2,23.15.71,10.1.51,12.53,2.78,14.88,4.37,4.51,14.08,4.85,17.7.62Z"/>
      <path class="cls-7" d="m822.97,136.62c-3.73-2.46-22.14,16.84-35.28,35.28-12.28,17.24-10.91,21.02-23.52,38.22-10.18,13.89-17.76,24.22-30.87,32.34-20.48,12.69-41.69,12.05-51.44,11.76-6.01-.18-39.74-1.7-69.08-26.46-11.03-9.31-8.15-10.69-41.16-57.32-24.97-35.28-33.3-43.94-39.69-49.97-8.16-7.72-21.71-20.34-42.63-30.87-28.47-14.32-53.92-16.37-72.02-17.64-31.71-2.23-55.87,2.74-70.55,5.88-17.93,3.83-41.86,10.76-67.61,23.52-17.74,8.79-39.59,21.95-61.73,35.28-19.54,11.77-26.11,16.26-38.22,17.64-22.93,2.61-44.67-8.35-45.56-8.82-12.59-6.52-15.91-12.63-27.93-14.7-8.82-1.52-15.26.37-24.99,2.94-48.19,12.74-64.54,12.6-73.49,26.46-.18.29-.33.55-.49.83,15.31-.01,31.12-.9,46.15,1.94,2.28.43,3.75,1.6,4.56,3.11,3.04,1.25,5.96,2.72,8.2,5.26,3.55,4.05,5.22,9.39,5.61,14.67.3,3.98-3.6,7.35-7.35,7.35-.46,0-.89-.06-1.32-.13-.24,6.4-3.36,13.74.5,19.89,3.65,5.82,9.79,4.58,22.05,8.82,17.32,5.99,18.95,13.27,35.28,22.05,12.91,6.93,17.23,5.25,42.63,11.76,17.31,4.44,29.18,8.84,52.91,17.64,37.72,13.99,43.76,19.45,66.14,23.52,6.68,1.22,15.83,1.64,33.81,2.94,20.51,1.48,52.9,3.75,92.6,2.94,18.04-.37,12.65-.86,63.2-2.94,41.33-1.7,48.91-1.53,58.79,0,29.96,4.64,33.8,14.5,60.26,22.05,48.02,13.7,92.05-2.61,104.36-7.35,11.64-4.48,44.95-18.75,72.02-51.44,8.27-9.98,21.19-39.48,47.03-98.48,6.56-14.99,11.36-26.31,8.83-27.97Z"/>
      <path class="cls-10" d="m47.41,166.58c-12.9-1.83-16.83,3-28.04,1.27-1.69-.26-13.9-2.28-16.24-8.91-.26-.75-1.39-4.38,2.95-10.18,8.99-11.99,25.41-11.87,73.8-22.9,9.77-2.23,16.23-3.86,25.09-2.54,12.06,1.79,15.4,7.08,28.04,12.72.9.4,22.73,9.89,45.75,7.63,12.16-1.19,18.75-5.08,38.37-15.27,22.23-11.54,44.17-22.93,61.99-30.54,25.86-11.04,49.89-17.05,67.89-20.36,14.75-2.71,39-7.02,70.84-5.09,18.18,1.1,43.73,2.87,72.32,15.27,21,9.11,34.61,20.04,42.8,26.72,6.41,5.22,14.78,12.72,39.85,43.26,33.14,40.37,30.25,41.56,41.33,49.62,29.46,21.43,63.34,22.75,69.37,22.9,9.8.25,31.09.8,51.66-10.18,13.16-7.03,20.77-15.97,30.99-27.99,12.66-14.88,11.28-18.16,23.61-33.08,13.19-15.96,31.68-32.67,35.42-30.54,2.54,1.44-2.28,11.24-8.86,24.18-25.95,51.07-38.93,76.61-47.23,85.25-27.18,28.3-60.63,40.65-72.32,44.53-12.36,4.11-56.57,18.22-104.79,6.36-26.57-6.53-30.43-15.07-60.51-19.09-9.92-1.33-17.53-1.47-59.04,0-50.76,1.8-45.35,2.23-63.46,2.54-39.87.7-72.39-1.26-92.98-2.54-18.05-1.13-27.23-1.49-33.95-2.54-22.47-3.52-28.54-8.25-66.42-20.36-23.83-7.62-35.75-11.43-53.13-15.27-25.5-5.63-29.84-4.18-42.8-10.18-16.4-7.59-18.03-13.9-35.42-19.09-12.31-3.67-18.47-2.6-22.14-7.63-5.66-7.78,3.65-17.75-2.95-24.18-2.56-2.48-6.03-2.97-11.79-3.79Z"/>
      <path class="cls-9" d="m54.78,165.91c-9.03-.33-15.76-2.08-22.84-3.92-16.36-4.26-23.76-9.69-28.55-4.9-2.17,2.17-2.87,5.5-3.07,6.47-.95,4.51.26,9.12,3.37,14.58,8.46,14.84,23.77,23.33,28.85,25.96,3.52,1.82,10.34,4.14,23.96,8.78,18.83,6.41,22.13,6.61,24.74,4.25,5.64-5.09,3.94-18.33,2.77-27.53-1.22-9.51-2.3-18.02-7.91-22.36-4.84-3.76-8.48-.86-21.32-1.33Z"/>
      <path class="cls-11" d="m138.03,145.43c-2.04-3.1-.01-8.62,2.94-11.76,1.02-1.09,3.13-2.2,7.35-4.41,3.98-2.09,5.99-3.13,7.35-2.94,3.33.46,5.42,4.05,7.35,7.35.58,1,1.95,3.5,2.94,7.35,1.16,4.53,2.79,10.89,0,13.23-2.03,1.7-5.54.56-11.76-1.47-3.97-1.29-3.42-1.71-10.29-4.41-4.23-1.65-5.11-1.76-5.88-2.94Z"/>
      <path class="cls-11" d="m586.24,183.7c3.61.89,8.13-2.86,10.11-6.68.69-1.33,1.03-3.68,1.71-8.4.64-4.44.95-6.69.33-7.91-1.54-2.99-5.62-3.77-9.38-4.49-1.14-.22-3.95-.68-7.91-.33-4.66.41-11.19.99-12.48,4.4-.93,2.48,1.32,5.41,5.3,10.6,2.54,3.31,2.75,2.65,7.58,8.24,2.98,3.44,3.38,4.24,4.74,4.57Z"/>
      <path class="cls-11" d="m608.29,220.45c3.61.89,8.13-2.86,10.11-6.68.69-1.33,1.03-3.68,1.71-8.4.64-4.44.95-6.69.33-7.91-1.54-2.99-5.62-3.77-9.38-4.49-1.14-.22-3.95-.68-7.91-.33-4.66.41-11.19.99-12.48,4.4-.93,2.48,1.32,5.41,5.3,10.6,2.54,3.31,2.75,2.65,7.58,8.24,2.98,3.44,3.37,4.23,4.74,4.57Z"/>
      <path class="cls-11" d="m646.2,247.19c3.68-.51,6.49-5.67,6.91-9.96.15-1.49-.41-3.8-1.52-8.43-1.05-4.37-1.6-6.57-2.63-7.47-2.54-2.2-6.62-1.41-10.37-.69-1.14.22-3.92.84-7.47,2.63-4.17,2.11-10.03,5.07-9.95,8.71.06,2.65,3.23,4.54,8.85,7.88,3.59,2.13,3.54,1.44,10.1,4.84,4.03,2.09,4.69,2.69,6.08,2.49Z"/>
      <path class="cls-11" d="m203.6,154.62c-10.22-2.56-16.59-17.97-16.48-30.2.04-4.25,2.31-10.61,6.86-23.34,4.29-12,6.5-18.05,9.68-20.27,7.83-5.45,19.11-1.98,29.48,1.2,3.15.97,10.8,3.54,20.27,9.68,11.13,7.22,26.77,17.35,25.45,27.61-.96,7.47-10.49,11.83-27.37,19.55-10.77,4.93-10.42,2.99-29.96,10.59-12.02,4.68-14.06,6.15-17.93,5.18Z"/>
      <path class="cls-11" d="m563.5,144.06c10.54.21,20.73-12.98,23.83-24.82,1.08-4.11.55-10.85-.49-24.32-.99-12.71-1.53-19.12-4.03-22.1-6.12-7.32-17.92-6.93-28.76-6.57-3.29.11-11.35.59-22.1,4.03-12.64,4.04-30.38,9.72-31.8,19.97-1.03,7.46,7.02,14.16,21.28,26.05,9.1,7.58,9.27,5.62,26.13,18.08,10.36,7.64,11.94,9.6,15.94,9.68Z"/>
      <path class="cls-11" d="m294.73,116.41c-10.22-2.56-16.59-17.97-16.48-30.2.04-4.25,2.31-10.61,6.86-23.34,4.29-12,6.5-18.05,9.68-20.27,7.83-5.45,19.11-1.98,29.48,1.2,3.15.97,10.8,3.54,20.27,9.68,11.13,7.22,26.77,17.35,25.45,27.61-.96,7.47-10.49,11.83-27.37,19.55-10.77,4.93-10.42,2.99-29.96,10.59-12.02,4.67-14.06,6.15-17.93,5.18Z"/>
      <path class="cls-11" d="m385.23,85.89c-10.44-8.65-9.27-30.07-2.35-44.21,2.41-4.91,8.58-11.03,20.93-23.28,11.65-11.55,17.57-17.34,22.51-18.15,12.11-1.98,23.28,8.32,33.54,17.78,3.11,2.87,10.57,10.12,18.15,22.51,8.91,14.56,21.42,35.01,14.19,46.19-5.26,8.13-18.75,7.9-42.63,7.48-15.23-.27-13.76-2.32-40.65-4.36-16.55-1.26-19.73-.68-23.69-3.96Z"/>
      <path class="cls-2" d="m805.33,166.01c-5.2-.9-5.08-7.84-13.23-23.52-5.33-10.25-12.51-21-19.11-30.87-5.51-8.25-8.41-12.05-7.35-13.23,1.65-1.83,11.46,4.1,17.64,8.82,6.66,5.08,10.87,10.09,14.7,14.7,5.4,6.51,3.68,5.78,13.23,19.11,5.9,8.23,7.6,9.97,7.35,13.23-.48,6.25-7.75,12.71-13.23,11.76Z"/>
      <path class="cls-2" d="m762.71,217.46c-5.2-.9-5.08-7.84-13.23-23.52-5.33-10.25-12.51-21-19.11-30.87-5.51-8.25-8.41-12.05-7.35-13.23,1.65-1.83,11.46,4.1,17.64,8.82,6.66,5.08,10.87,10.09,14.7,14.7,5.4,6.51,3.68,5.78,13.23,19.11,5.9,8.23,7.6,9.97,7.35,13.23-.49,6.24-7.76,12.7-13.23,11.76Z"/>
      <ellipse class="cls-6" cx="18.89" cy="148.85" rx="6" ry="4" transform="translate(-54.3 17.87) rotate(-21.96)"/>
    </g>
    <path id="cuisse-gauche" class="cls-4" d="m470.21,202.76c-8.43-1.4-14.93.92-20.58,2.94-3.95,1.41-15.13,5.57-23.52,16.17-5.37,6.79-4.4,9.67-10.29,23.52-8.24,19.4-12.15,18.49-16.17,30.87-2.35,7.25-8.98,27.67,1.47,39.69,10.39,11.94,31.33,8.29,36.75,7.35,8.09-1.41,13.33-4.19,22.05-8.82,14.95-7.94,27.76-14.74,36.75-29.4,2.89-4.71,9.85-16.43,8.82-32.34-.43-6.59-2.68-12.07-5.88-20.58-3.32-8.82-4.98-13.24-8.82-17.64-2.36-2.7-9.36-9.9-20.58-11.76Z"/>
    <g>
      <circle class="cls-3" cx="84.91" cy="145.85" r="8"/>
      <circle class="cls-8" cx="84.91" cy="145.85" r="6"/>
      <circle cx="82.91" cy="145.85" r="4"/>
      <circle class="cls-1" cx="84.91" cy="145.85" r="2"/>
    </g>
  </g>
</svg>