<?xml version="1.0" encoding="UTF-8"?>
<svg id="Calque_2" data-name="Calque 2" xmlns="http://www.w3.org/2000/svg" viewBox="0 0 975.33 530.02">
  <defs>
    <style>
      .cls-1 {
        fill: #df6d66;
      }

      .cls-2 {
        fill: #3f4a39;
      }

      .cls-3 {
        fill: #282a20;
      }

      .cls-4 {
        fill: #5fcbff;
      }

      .cls-5 {
        fill: #f7e1c0;
      }

      .cls-6 {
        fill: #c0a586;
      }

      .cls-7 {
        fill: #808863;
      }

      .cls-8 {
        fill: #6d675d;
      }

      .cls-9 {
        fill: #fffc3f;
      }

      .cls-10 {
        fill: #dfd066;
      }

      .cls-11 {
        fill: #9b9437;
      }
    </style>
  </defs>
  <g id="Calque_1-2" data-name="Calque 1">
    <g id="bras-g">
      <path class="cls-10" d="m710.03,168.45c-5.16-4.32-13.48-6.52-20-4-14.13,5.46-14.03,30.83-14,37,.03,6.23.12,29.64,17,42,3.31,2.42,11.9,8.72,22,6,8.65-2.33,14.88-10.33,16-18,.58-3.95-.58-5.23-4-16-4.56-14.35-4.04-16.88-9-31-4.34-12.33-6.16-14.46-8-16Z"/>
      <path class="cls-5" d="m719.03,225.45c-6.9,2.11-10.41,8.92-12,12-1.5,2.91-5.95,11.54-2,18,2.21,3.61,6.08,4.97,9,6,2.16.76,4.44,1.22,15,1,8.44-.17,12.66-.26,15-1,6.02-1.9,5.46-4.07,13-7,5.73-2.22,10.69-2.76,13-3,4.13-.42,7.12-.24,11,0,6.63.41,9.95.61,12,2,3.91,2.64,4.86,7.37,6,13,.77,3.81,1.94,9.59,0,16-3.1,10.26-11.91,14.75-11,16,.79,1.09,8.15-1.31,14-7,6.94-6.75,8.89-15.37,10-15,.36.12.31,1.08,0,6-.48,7.55-.59,8.7,0,9,1.33.69,5.42-3.36,8-8,5.04-9.06,3.28-18.57,3-20-.3-1.53-2.2-5.69-6-14-1.5-3.29-3.18-6.83-6-11-2.26-3.34-3.39-5.01-5-6-3.09-1.89-5.77-1.23-14-1-3.33.09-6.67-.04-10,0-11.94.16-17.9.24-23,0-5.92-.27-11.64-.54-19-2-12.93-2.57-15.32-5.73-21-4Z"/>
    </g>
    <path id="cuisse-g" class="cls-10" d="m544.03,120.45c-24.22-4.74-59.32,3.42-74,29-16.15,28.15,1.7,61.22,14,84,17.76,32.89,46.89,54.64,59,59,1.69.61,9.55,3.22,19,9,5.18,3.17,8.6,5.92,10,7,6.34,4.9,28.74,22.24,50,18,15.93-3.18,27.37-17.7,32-30,5.7-15.12,1.67-28.36-4-47-2.81-9.25-8.64-27.73-24-46-17.98-21.37-26.99-16.27-38-35-9.22-15.69-6.41-25.27-18-36-9.47-8.77-20.6-10.94-26-12Z"/>
    <path id="mollet-g" class="cls-10" d="m638.03,307.45c-7.81-6.6-17.7-5.89-30-5-2.24.16-10.03.82-20,4-8.52,2.72-17.87,5.7-26,13-8.69,7.8-12.24,17.18-19,35-4.82,12.73-4.3,15.59-9,22-7.49,10.2-13.52,9.34-17,17-4.4,9.69-1.44,25.81,10,33,10.68,6.72,24.85,3.22,32-3,4.14-3.6,4.82-7.16,12-13,4.27-3.47,7.63-5.15,11-7,9.96-5.48,19.18-12.06,25-17,7.16-6.08,3.88-5.17,22-25,6.05-6.61,8.85-9.39,12-15,3.09-5.5,6.55-11.67,6-20-.14-2.09-1.05-12.28-9-19Z"/>
    <path id="cou" class="cls-11" d="m770.03,12.45c-8.34-.15-16.65,3.52-20,5-9.22,4.07-14.83,9.3-22,16-9.34,8.72-14.02,13.08-17,21-1.82,4.83-4.05,10.75-3,18,.57,3.96,1.89,6.7,1,11-.75,3.63-2.69,6.51-5,9-9.61,10.36-25.47,13.79-31,20-16.16,18.15,21.5,98.7,59,97,15.49-.7,35.21-15.62,37-17,7.75-5.95,10.51-10.16,21-17,11.75-7.65,16.49-7.72,23-12,16.9-11.11,20.58-34.11,22-43,5.84-36.53-15.63-64.96-27-80-9.17-12.14-21.27-27.71-38-28Z"/>
    <path id="queue" class="cls-11" d="m528.03,197.45c8.94-33.09-9.24-69.04-34-86-20.83-14.27-44.89-14.13-67-14-19.26.11-35.31,3.65-46,6-10.94,2.41-22.63,6.27-46,14-17.62,5.82-35.37,11.23-53,17-65.4,21.42-113.46,37.16-169,43C48.69,184.22,1.75,174.98.03,182.45c-.44,1.91,3.59,6,30,16,45.75,17.32,83.32,23.86,96,26,55.69,9.4,102.48,14.15,138,17,39.34,3.16,32.02,1.36,61,4,89.73,8.17,104.01,20.33,137,10,8.76-2.74,54.99-17.22,66-58Z"/>
    <g id="corps">
      <path id="corps-2" data-name="corps" class="cls-11" d="m526.03,80.45c-13.98,1.75-25.12,4.23-33,6-13.19,2.97-26.47,5.93-39,11-7.83,3.17-31.53,12.69-48,33-18.34,22.61-27.98,58.88-17,89,20.14,55.23,102.53,70.31,139,67,6.88-.62,26.04-3.16,56-5,18.47-1.13,20.97-.77,33-2,24.26-2.49,27.4-5.33,53-9,33.67-4.82,37.33-1.19,48-7,17.46-9.5,23.98-28.1,29-42,5.23-14.49,21.03-58.29-3-90-12.71-16.77-35.8-29.15-56-30-5.55-.23-16.4.17-33-2-12.33-1.61-19.31-3.53-21-4-13.82-3.88-21.69-8.92-28-12-21.24-10.36-43.58-7.56-80-3Z"/>
      <path class="cls-1" d="m699.4,120.8c-5.49-1.72-22.71,22.75-26.1,50.67-5.22,42.92,23.6,82.69,29.94,80.62,4.76-1.56-5.25-26-4.61-78.31.43-34.46,5.11-51.62.77-52.98Z"/>
      <path class="cls-1" d="m660.4,120.8c-5.49-1.72-22.71,22.75-26.1,50.67-5.22,42.92,23.6,82.69,29.94,80.62,4.76-1.56-5.25-26-4.61-78.31.43-34.46,5.11-51.62.77-52.98Z"/>
      <path class="cls-1" d="m619.4,120.8c-5.49-1.72-22.71,22.75-26.1,50.67-5.22,42.92,23.6,82.69,29.94,80.62,4.76-1.56-5.25-26-4.61-78.31.43-34.46,5.11-51.62.77-52.98Z"/>
    </g>
    <path id="cuisse-d" class="cls-10" d="m475.03,114.45c-24.22-4.74-59.32,3.42-74,29-16.15,28.15,1.7,61.22,14,84,17.76,32.89,46.89,54.64,59,59,1.69.61,9.55,3.22,19,9,5.18,3.17,8.6,5.92,10,7,6.34,4.9,28.74,22.24,50,18,15.93-3.18,27.37-17.7,32-30,5.7-15.12,1.67-28.36-4-47-2.81-9.25-8.64-27.73-24-46-17.98-21.37-26.99-16.27-38-35-9.22-15.69-6.41-25.27-18-36-9.47-8.77-20.6-10.94-26-12Z"/>
    <g id="bras-d">
      <path class="cls-10" d="m699.03,176.45c-5.16-4.32-13.48-6.52-20-4-14.13,5.46-14.03,30.83-14,37,.03,6.23.12,29.64,17,42,3.31,2.42,11.9,8.72,22,6,8.65-2.33,14.88-10.33,16-18,.58-3.95-.58-5.23-4-16-4.56-14.35-4.04-16.88-9-31-4.34-12.33-6.16-14.46-8-16Z"/>
      <path class="cls-5" d="m708.03,233.45c-6.9,2.11-10.41,8.92-12,12-1.5,2.91-5.95,11.54-2,18,2.21,3.61,6.08,4.97,9,6,2.16.76,4.44,1.22,15,1,8.44-.17,12.66-.26,15-1,6.02-1.9,5.46-4.07,13-7,5.73-2.22,10.69-2.76,13-3,4.13-.42,7.12-.24,11,0,6.63.41,9.95.61,12,2,3.91,2.64,4.86,7.37,6,13,.77,3.81,1.94,9.59,0,16-3.1,10.26-11.91,14.75-11,16,.79,1.09,8.15-1.31,14-7,6.94-6.75,8.89-15.37,10-15,.36.12.31,1.08,0,6-.48,7.55-.59,8.7,0,9,1.33.69,5.42-3.36,8-8,5.04-9.06,3.28-18.57,3-20-.3-1.53-2.2-5.69-6-14-1.5-3.29-3.18-6.83-6-11-2.26-3.34-3.39-5.01-5-6-3.09-1.89-5.77-1.23-14-1-3.33.09-6.67-.04-10,0-11.94.16-17.9.24-23,0-5.92-.27-11.64-.54-19-2-12.93-2.57-15.32-5.73-21-4Z"/>
    </g>
    <g>
      <path class="cls-5" d="m547.03,403.45c-4.72-7.21-10.76-11.18-14-13-5.86-3.29-13.2-7.41-22-5-7.54,2.06-14.32,8.42-16,16-1.08,4.89.37,8.46,5,20,6.44,16.04,9.66,24.06,10,25,6.63,18.3,9.94,27.44,9,39-.5,6.16-2.06,11.98,1,19,.8,1.83,3.1,6.47,8,10,5.16,3.71,9.87,3.78,19,5,0,0,8.25,1.1,22,4,21.05,4.44,27.15,9.06,33,5,2.8-1.95,4.57-5.2,10-7,2.55-.84,4.63-.95,7-1,15.53-.36,17.33,1.92,22,0,6-2.47,10.29-9.21,10-15-.05-1.03-.26-5.19-3-7-2.41-1.59-4.9-.12-7-2-1.68-1.5-.94-3.19-2-5-2.26-3.86-9.79-3.27-17-3-8.48.32-16.66.22-20,0-12.67-.82-26.09-7.76-34-18-6.14-7.95-7.87-16.47-10-27-1.89-9.32-1.83-16.42-6-29-1.64-4.94-3.01-7.96-5-11Z"/>
      <path class="cls-8" d="m644.03,495.45c2.35-.59,4.23-.29,6,0,1.62.26,8.09,1.5,13,7,6.56,7.34,6.78,18.26,5,19-.59.25-1.73-.84-4-3-2.36-2.25-2.79-3.29-5-5-1.64-1.27-2.58-1.98-4-2-1.44-.02-3.15.68-4,2-.79,1.23-.24,2.08-1,3-.8.98-2.27,1.06-4,1-5.49-.18-8.24-.27-10-2-3-2.95-2.2-7.8-2-9,.88-5.3,5.08-9.76,10-11Z"/>
      <path class="cls-8" d="m618.03,498.45c2.35-.59,4.23-.29,6,0,1.62.26,8.09,1.5,13,7,6.56,7.34,6.78,18.26,5,19-.59.25-1.73-.84-4-3-2.36-2.25-2.79-3.29-5-5-1.64-1.27-2.58-1.98-4-2-1.44-.02-3.15.68-4,2-.79,1.23-.24,2.08-1,3-.8.98-2.27,1.06-4,1-5.49-.18-8.24-.27-10-2-3-2.95-2.2-7.8-2-9,.88-5.3,5.08-9.76,10-11Z"/>
    </g>
    <g id="pied-d">
      <path class="cls-5" d="m478.03,397.45c-4.72-7.21-10.76-11.18-14-13-5.86-3.29-13.2-7.41-22-5-7.54,2.06-14.32,8.42-16,16-1.08,4.89.37,8.46,5,20,6.44,16.04,9.66,24.06,10,25,6.63,18.3,9.94,27.44,9,39-.5,6.16-2.06,11.98,1,19,.8,1.83,3.1,6.47,8,10,5.16,3.71,9.87,3.78,19,5,0,0,8.25,1.1,22,4,21.05,4.44,27.15,9.06,33,5,2.8-1.95,4.57-5.2,10-7,2.55-.84,4.63-.95,7-1,15.53-.36,17.33,1.92,22,0,6-2.47,10.29-9.21,10-15-.05-1.03-.26-5.19-3-7-2.41-1.59-4.9-.12-7-2-1.68-1.5-.94-3.19-2-5-2.26-3.86-9.79-3.27-17-3-8.48.32-16.66.22-20,0-12.67-.82-26.09-7.76-34-18-6.14-7.95-7.87-16.47-10-27-1.89-9.32-1.83-16.42-6-29-1.64-4.94-3.01-7.96-5-11Z"/>
      <path class="cls-8" d="m535.03,500.45c2.35-.59,4.23-.29,6,0,1.62.26,8.09,1.5,13,7,6.56,7.34,6.78,18.26,5,19-.59.25-1.73-.84-4-3-2.36-2.25-2.79-3.29-5-5-1.64-1.27-2.58-1.98-4-2-1.44-.02-3.15.68-4,2-.79,1.23-.24,2.08-1,3-.8.98-2.27,1.06-4,1-5.49-.18-8.24-.27-10-2-3-2.95-2.2-7.8-2-9,.88-5.3,5.08-9.76,10-11Z"/>
      <path class="cls-8" d="m574.03,494.45c4.43-.95,8.07.95,12,3,2,1.04,7.26,3.87,11,10,3.08,5.06,5.17,12.42,3,14-1.41,1.03-4.31-.61-5-1-3.23-1.82-2.7-3.9-6-6-1.84-1.17-3.55-1.51-6-2-3.05-.61-3.77-.16-4,0-1.2.86-.57,2.24-2,4-1.05,1.29-2.42,1.79-3,2,0,0-2.45.87-5,0-3.9-1.33-6.12-6.68-6-11,.18-6.24,5.29-11.78,11-13Z"/>
    </g>
    <path id="mollet-d" class="cls-10" d="m569.03,301.45c-7.81-6.6-17.7-5.89-30-5-2.24.16-10.03.82-20,4-8.52,2.72-17.87,5.7-26,13-8.69,7.8-12.24,17.18-19,35-4.82,12.73-4.3,15.59-9,22-7.49,10.2-13.52,9.34-17,17-4.4,9.69-1.44,25.81,10,33,10.68,6.72,24.85,3.22,32-3,4.14-3.6,4.82-7.16,12-13,4.27-3.47,7.63-5.15,11-7,9.96-5.48,19.18-12.06,25-17,7.16-6.08,3.88-5.17,22-25,6.05-6.61,8.85-9.39,12-15,3.09-5.5,6.55-11.67,6-20-.14-2.09-1.05-12.28-9-19Z"/>
    <g>
      <path class="cls-2" d="m790.17,67.33c-5.79-.41-13.3-.94-19.61,4.04-6.5,5.12-7.7,12.9-7.9,14.37-1.7,12.59,8.11,22.97,12.33,27.44,3.58,3.79,4.16,3.2,10.57,9.5,6.86,6.74,8.34,9.53,12.17,13.3,8.92,8.79,19.45,11.96,22.21,12.76,16.69,4.83,31.16-.61,36.04-2.53,13.05-5.12,12.18-9.98,24.7-16.97,16.97-9.47,23.91-3.52,53.9-11.36,19.33-5.05,31.1-8.31,36.56-18.8,6.19-11.89,2.52-29.7-2.75-30.94-2.21-.52-4.24,1.97-6.46,4.03-15.28,14.21-44.51,13.08-60.29,9.31-6.32-1.51-12.52-3.93-24.1-5.39-9.87-1.24-13.47-.49-16.12.46-6.62,2.39-6.93,5.97-13.91,8.22-6.87,2.22-13,.82-15.13.31-6-1.44-7.93-3.97-14.37-7.9-4.28-2.59-14.91-8.94-27.84-9.85Z"/>
      <path class="cls-5" d="m866.18,80.95l13.21.05c.63,0,1.14.22,1.14.48l-.07,19.55c0,.55-1.89.66-2.24.12-4.38-6.53-8.76-13.07-13.14-19.6-.21-.3.34-.6,1.1-.6Z"/>
      <path class="cls-5" d="m882.18,82.95l13.21.05c.63,0,1.14.22,1.14.48l-.07,19.55c0,.55-1.89.66-2.24.12-4.38-6.53-8.76-13.07-13.14-19.6-.21-.3.34-.6,1.1-.6Z"/>
      <path class="cls-5" d="m900.18,85.95l13.21.05c.63,0,1.14.22,1.14.48l-.07,19.55c0,.55-1.89.66-2.24.12-4.38-6.53-8.76-13.07-13.14-19.6-.21-.3.34-.6,1.1-.6Z"/>
      <path class="cls-5" d="m918.18,84.95l13.21.05c.63,0,1.14.22,1.14.48l-.07,19.55c0,.55-1.89.66-2.24.12-4.38-6.53-8.76-13.07-13.14-19.6-.21-.3.34-.6,1.1-.6Z"/>
      <path class="cls-5" d="m934.18,80.95l13.21.05c.63,0,1.14.22,1.14.48l-.07,19.55c0,.55-1.89.66-2.24.12-4.38-6.53-8.76-13.07-13.14-19.6-.21-.3.34-.6,1.1-.6Z"/>
      <path class="cls-5" d="m947.18,73.95l13.21.05c.63,0,1.14.22,1.14.48l-.07,19.55c0,.55-1.89.66-2.24.12-4.38-6.53-8.76-13.07-13.14-19.6-.21-.3.34-.6,1.1-.6Z"/>
      <g>
        <path class="cls-6" d="m770.47,102.12c-5.28.2-9.69-12.11-11.55-17.31-4.58-12.79-11.12-31.02-2.71-51.41,6.49-15.72,22.51-34.31,38.57-33.37,7.25.43,8.56,4.49,23.12,6.76,6.84,1.07,12.78,1.99,20.82,1.59,7.35-.37,10.17-1.53,14.86.37,2.49,1,2.87,1.81,10.48,6.18,3.8,2.19,5.71,3.28,7.11,3.81,6.23,2.35,12.08.94,14.86.37,8.65-1.78,15.96-1.24,30.08-.2,13.14.97,24.08,1.77,32.81,9.42,9.71,8.51,7.75,17.69,19.45,24.63,2.39,1.42,6.92,3.68,6.96,6.97.03,2.23-2.03,3.85-4.38,5.81-10.35,8.64-7.93,8.48-13.22,12.06-8.06,5.46-15.67,7.18-23.84,9.04-6.17,1.4-18.96,4.18-33.96,1.92-11.14-1.67-16.94-3.31-16.94-3.31-5.43-1.53-7.99-2.73-12.85-2.81-1.97-.03-6.45-.05-11.49,2.01-4.28,1.75-4.47,3.18-9.77,5.88-3.11,1.59-6.28,3.21-9.98,3.66-5.21.63-9.27-1.42-17.16-5.54-8.47-4.42-8.73-5.95-15.72-9.27-7.8-3.7-11.7-5.55-15.29-4.82-12.04,2.46-12.82,27.28-20.26,27.56Z"/>
        <path class="cls-7" d="m929.09,46.4c-3.1-6.16-10.67-7.72-18.88-9.41-9.04-1.87-11.74-.5-27.5-.94-11.54-.32-17.31-.49-24.91-2.09-7.63-1.61-15.46-4.26-24.98-7.48-9.95-3.36-10.34-3.91-13.42-4.1-7.46-.47-12.98,2.22-23.12,7.17-10.99,5.36-11.89,8.04-12.14,9.26-.49,2.41.83,3.09,3.3,10.91,2.28,7.24,1.83,8.82,3.66,9.98,3.14,2,6.34-1.46,12.06-.71,4.21.55,6.25,2.91,10.48,6.18,7.49,5.78,16.24,12.55,24.48,11.57,7.64-.91,8.27-7.71,17.52-9.33,4.52-.79,7.33.32,15.08,2.59,18.32,5.37,27.48,8.05,34.82,6.98,3.01-.44,14.61-2.56,20.83-12.34.88-1.42,6.54-10.66,2.72-18.24Z"/>
        <path class="cls-3" d="m857.66,37.11c-4.49-2.36-5.89-2-15.29-4.82-11.73-3.52-12.82-5.07-16.58-4.24-7.56,1.67-11.2,9.72-11.56,10.55-3.01,6.91-1.56,14.98,2.86,20.39,5.39,6.59,13.53,7.19,16.44,7.4,3.58.26,8.56-1.02,18.52-3.58,5.1-1.31,6.25-1.82,7.4-2.51,4.25-2.55,9.66-8.26,8.55-13.85-.87-4.37-5.31-6.7-10.34-9.34Z"/>
      </g>
      <circle class="cls-4" cx="835.53" cy="46.95" r="14"/>
      <ellipse class="cls-9" cx="835.53" cy="46.95" rx="7" ry="14"/>
      <ellipse cx="836.03" cy="46.95" rx="4.5" ry="14"/>
    </g>
  </g>
</svg>