<?xml version="1.0" encoding="UTF-8"?>
<svg id="Calque_2" data-name="Calque 2" xmlns="http://www.w3.org/2000/svg" viewBox="0 0 1254.04 563.52">
  <defs>
    <style>
      .cls-1 {
        fill: #fff;
      }

      .cls-2 {
        fill: #455890;
      }

      .cls-3 {
        fill: #f4a4a6;
      }

      .cls-4 {
        fill: #3f70c6;
      }

      .cls-5 {
        fill: #eeb868;
      }

      .cls-6 {
        fill: #3fffc6;
      }

      .cls-7 {
        fill: #456990;
      }

      .cls-8 {
        fill: #ef767a;
      }
    </style>
  </defs>
  <g id="Calque_1-2" data-name="Calque 1">
    <path class="cls-2" d="m697.01,122.63c-27.19,5.46-41.71,38.54-52,62-18.16,41.39-14.94,78.44-12,108,4.15,41.79,7.21,72.55,32,90,16.43,11.56,39.66,15.35,60,9,5.34-1.67,28.89-9.02,36-28,3.74-9.98.18-15.86,5-34,2.77-10.44,6.32-17.43,8-21,8.58-18.28,21.73-61.42,19-91-4.51-48.85-56.24-102.98-96-95Z"/>
    <g>
      <path class="cls-2" d="m392.01,361.63c-24.14,6.05-45.22,27.9-45,48,.1,8.89,4.28,10.1,8,24,5.75,21.5,1.49,40.13-1,51-7.74,33.84-26.75,54.94-21,60,1.15,1.01,2.04.27,14,1,5.27.32,7.87.63,12,1,48.18,4.26,77.81,6.88,82-3,1.73-4.08-2.72-5.95-5-17-2.47-11.99.36-21.54,4-34,5.59-19.12,11-37.62,13-45,8.37-30.87,12.56-46.31,6-60-9.96-20.78-40.81-32.56-67-26Z"/>
      <path class="cls-5" d="m355.71,508c5.41.9,8.27,10.62,8.94,15.54.23,1.74,1.57,11.61-5.44,18.77-7.67,7.85-21.62,8.64-25.62,3.45-6.81-8.83,11.78-39.48,22.12-37.76Z"/>
      <path class="cls-5" d="m396.01,513.63c-9.64-4.14-23.71,6.54-26,18-.26,1.3-1.45,7.22,2,12,5.64,7.84,21.23,9.19,29,1,8.69-9.17,4.43-26.96-5-31Z"/>
    </g>
    <g>
      <path class="cls-2" d="m702.01,337.63c-3.93.72-18.87,3.45-28,16-11.56,15.88-.1,28.64-3,65-2.05,25.78-4.13,51.93-22,67-5.42,4.57-13.9,9.49-17,20-1.77,6.01-2.19,15.23,3,20,4.01,3.68,9.78,3.25,14,3,29.19-1.75-16.21,5.1,42,0,41.55-3.64,45.24-5.42,47-9,3-6.09-2.46-11.5-6-24-4.68-16.54-1.65-30.2,3-50,11.65-49.67,32.58-56.26,27-76-5.76-20.38-34.65-36.64-60-32Z"/>
      <path class="cls-5" d="m689.01,485.63c-7.87-.51-14.33,10.23-16,13-1,1.67-10.19,17.33-3,26,5.69,6.86,17.81,4.73,22,4,4.65-.82,9.19-1.61,12-5,8.3-10-2.88-37.22-15-38Z"/>
      <path class="cls-5" d="m654.71,492c5.41.9,8.27,10.62,8.94,15.54.23,1.74,1.57,11.61-5.44,18.77-7.67,7.85-21.62,8.64-25.62,3.45-6.81-8.83,11.78-39.48,22.12-37.76Z"/>
    </g>
    <path class="cls-2" d="m363.01,254.63c-30.97,12.29-35.48,56.98-36,63-2.55,29.39,9.09,67.12,42,86,30.3,17.38,77.19,17.95,98-10,27.83-37.38-14.76-93.82-18-98-15.44-19.92-52.88-54.14-86-41Z"/>
    <path class="cls-8" d="m740.01,100.63c-46.36,11.8-74.92,69.13-74,116,1.22,62.18,54.23,102.65,94,133,20.55,15.68,60.11,41.63,116,54,46.16,10.22,81.93,6.41,114,3,76.21-8.11,131.59-33.16,168-50,50.86-23.52,97.43-53.16,96-56-.62-1.23-9.82,3.32-28,9-34.23,10.69-62.18,13.5-78,15-18.07,1.72-38.26,3.63-64,1-16.12-1.65-56.83-6.23-99-31-30.76-18.07-48.17-38.57-74-69-41.06-48.37-36-60.08-65-85-16.17-13.89-60.14-51.67-106-40Z"/>
    <path class="cls-8" d="m608.01,1.63c-43.26,4.06-77.91,18.29-104,29-22.72,9.33-58.32,23.94-87,47-74.03,59.52-119.62,189.48-70,266,22.35,34.47,60.82,53.14,77,61,7.98,3.87,37.88,17.81,93,23,16.95,1.6,80.8,6.56,178-20,80.35-21.96,120.52-32.94,148-66,50.09-60.27,35.82-142.05,31-164-17.12-78-72.89-120.2-89-132C711.67-8.11,631.08-.54,608.01,1.63Z"/>
    <path class="cls-7" d="m512.01,264.63c-30.97,12.29-35.48,56.98-36,63-2.55,29.39,9.09,67.12,42,86,30.3,17.38,77.19,17.95,98-10,27.83-37.38-14.76-93.82-18-98-15.44-19.92-52.88-54.14-86-41Z"/>
    <g>
      <path class="cls-5" d="m160.12,50.75c-2.74,1.92-3.64,6-3.82,6.81-.67,3.05-.07,5.51.3,7.06,3.56,15.07,2,16.8,4.46,18.5,4.88,3.37,13.43-1.72,20.28-5.81,4.41-2.63,8.37-5.06,8.55-8.71.06-1.24-.27-3.5-5.58-8.12-1.85-1.61-17-14.78-24.19-9.73Z"/>
      <path class="cls-3" d="m165.01,423.63c-4.57-1.92,1.54-17.2-6-24-1.98-1.79-3.87-2.05-6-5-2.1-2.9-2.75-6.09-3-9-.24-2.86-3.05-40.61,15-49,3.45-1.6,6.69-1.68,9-5,2.68-3.85.87-7.42,3-14,1.51-4.68,3.9-7.44,5-9,5.86-8.3,11.32-33.69,5-60-6.95-28.92-23.8-40.97-17-53,3.2-5.67,7.6-4.16,11-10,8.69-14.94-10.32-41.63-17-51-19.82-27.83-39.26-37.2-36-45,2.2-5.28,13.41-6.51,27-8,14.34-1.58,18.06.86,23-3,7.91-6.18,3.41-16.33,12-22,4.65-3.07,10.43-3.03,16-3,6.52.04,8.19,1.45,14,2,3.37.32,13.9.89,23-4,11.44-6.14,10.04-15.23,20-18,2.64-.73,7.09-.16,16,1,12.5,1.62,12.89,2.99,19,3,9.27,0,16.68-3.12,21-5,11.37-4.94,12.67-9.51,19-9,3.42.28,3.17,1.62,14,7,4.78,2.37,8.68,4.29,14,6,6.08,1.96,9.88,3.18,15,3,7.54-.26,8.98-3.25,14-2,4.67,1.16,7.47,4.76,10,8,4.88,6.26,3.76,9.9,7,17,1.42,3.12,6.3,13.81,16,18,7.98,3.45,11.94-.66,23,4,3.24,1.36,6.39,2.74,9,6,4.79,5.99,4.17,13.86,4,16-.68,8.56-4.8,10.57-3,16,1.41,4.25,5.42,7.54,6,8,2.99,2.4,4.29,1.96,6,4,2.74,3.26,2.3,7.86,2,11-.59,6.17-2.67,6.64-4,14-.86,4.74-1.39,7.72,0,11,1.56,3.66,3.84,3.73,6,8,.72,1.42,1.49,3.44,2,9,.6,6.54.1,10.04,0,15-.23,12.16,2.23,19.66,1,20-1.14.31-4.06-5.96-4-6,.09-.05,8.58,9.42,7,19-.34,2.03-1.52,6.45-5,10-3.37,3.43-6.18,3.28-7,6-.72,2.4,1.04,3.94,4,10,2.97,6.09,4.46,9.13,4,12-.7,4.38-5.66,7.46-12,10-16.06,6.43-26.29,3.46-48,6-12.34,1.44-26.08,3.19-28,10-1,3.57,1.91,6.14,4,11,6.48,15.08-3.3,32.9-5,36-12.85,23.42-45.48,29.62-58,32-16.57,3.15-23.59.78-32,8-5.66,4.86-13.59,15.48-16,29-1.48,8.27-.58,15.88-5,18-1.53.73-2.51.24-8-1-14.4-3.24-16.64-1.84-20-5-3.45-3.25-1.93-5.53-6-9-.9-.76-5.19-4.25-11-4-5.54.23-9.38,3.72-13,7-4.03,3.65-8,9-8,9h0c5.02.91-10.16-1.4-15-3-7.02-2.32-6.89-4.17-14-6-3.31-.85-6.26-1.58-10-1-5.69.89-6.98,3.85-9,3Z"/>
      <path class="cls-5" d="m211.01,195.63c6.12,4.3,8.24,11.79,10,18,1.38,4.89,4.98,17.58-2,28-.96,1.43-4.55,6.63-11,9-5.95,2.18-11.22,1.38-14,1-13.12-1.81-24.71,1.02-41,5-11.97,2.92-23.11,7.31-30,10-12.65,4.94-12.85,5.88-28,12-13.62,5.5-24.23,9.08-27,10-30.23,9.98-44.77,10.49-54,10-3.96-.21-13.72-.72-14-3-.44-3.49,22.1-5.36,49-20,8.44-4.59,14.96-9.4,28-19,22.77-16.77,24.92-21.62,40-31,11.36-7.06,19.87-10.64,35-17,32.33-13.59,48.7-20.24,59-13Z"/>
      <path class="cls-5" d="m282.01,193.63c-4.5,1.41-36.71,11.95-54,41-4.36,7.32-6.19,12.39-14,25-3.43,5.54-9.5,15.35-19,24-12.55,11.43-25.68,15.92-35,19-26.74,8.84-46.9,5.73-47,8-.09,2.06,16.52,5.51,33,5,11.77-.36,20.67-2.8,29-5,6.18-1.63,3.43-1.26,34-12,6.42-2.26,12.25-4.28,20-8,6.11-2.93,10.23-5.39,13-7,14.32-8.3,34.45-19.98,58-25,5.17-1.1,7.7-1.29,14-3,13.28-3.61,21.42-5.83,26-11,9.95-11.23,5.59-39.22-11-51-14.36-10.19-32.59-4.5-47,0Z"/>
      <path class="cls-5" d="m103.01,334.63c2.31-2.16,7.59,2.54,20,5,1.14.23,9.82,1.89,20,1,18.01-1.57,22.97-9.58,32-6,6.67,2.64,9.74,9.28,11,12,4.68,10.12,1.35,20.03-1,27-2.03,6.02-3.77,11.2-9,15-6.11,4.44-13.05,4.13-16,4-3.16-.14-8.76-.88-19-7-6.24-3.73-18.6-11.31-29-27-4.38-6.61-12.47-20.76-9-24Z"/>
      <path class="cls-5" d="m165.01,423.63c-2.66,6.22-.48,12.64,1,17,2.52,7.42,6.61,12.08,11,17,2.41,2.69,8.51,9.14,18,15,0,0,9.05,6.26,22,10,1.66.48,3.54.96,5,0,2.77-1.82,1.39-7.12,1-19-.15-4.56-.08-7.88,0-12,.16-7.99.67-14.37,1-19,.26-3.71.49-6.83,1-11,1.51-12.3,2.99-13.01,2-15-4.15-8.32-33.12-1.97-51,7-4.32,2.17-8.82,4.9-11,10Z"/>
      <path class="cls-5" d="m234.01,405.63c2.39-.43,5.59,1.05,12,4,6.56,3.02,7.36,4.22,16,9,9.51,5.27,11.67,5.55,14,9,2.84,4.21,2.97,8.75,3,11,.04,2.54-.27,8.08-11,24-9.05,13.42-14.28,17.57-18,20-3.97,2.59-7.88,5.07-12,4-4.27-1.11-6.84-5.53-10-14-6.6-17.67-10.41-27.89-8-42,.66-3.88,4.39-23.26,14-25Z"/>
      <path class="cls-5" d="m221.01,27.63c-3.04,1.39-4.68,5.24-5,6-1.22,2.87-1.08,5.4-1,7,.74,15.47-1.11,16.88,1,19,4.18,4.21,13.51.76,21-2,4.81-1.78,9.16-3.45,10-7,.29-1.21.37-3.49-4-9-1.53-1.92-14.01-17.64-22-14Z"/>
      <path class="cls-5" d="m300.72,5.9c-3.27.72-5.67,4.15-6.14,4.82-1.79,2.55-2.18,5.06-2.44,6.64-2.51,15.29-4.61,16.28-2.99,18.79,3.21,4.99,13.06,3.57,20.95,2.43,5.08-.73,9.68-1.46,11.24-4.76.53-1.12,1.09-3.34-2.03-9.64-1.09-2.19-10.01-20.17-18.59-18.28Z"/>
      <path class="cls-5" d="m377.67,7.86c-3.31-.48-6.77,1.87-7.45,2.33-2.58,1.75-3.83,3.96-4.63,5.34-7.76,13.4-10.08,13.58-9.46,16.51,1.23,5.8,10.94,7.96,18.73,9.7,5.01,1.12,9.56,2.07,12.2-.46.89-.86,2.21-2.73,1.52-9.73-.25-2.45-2.22-22.42-10.91-23.69Z"/>
      <path class="cls-5" d="m438.67,50.41c-2.91-1.65-6.98-.71-7.79-.52-3.04.7-5.01,2.3-6.25,3.3-12.09,9.69-14.31,9.02-14.79,11.97-.95,5.85,7.32,11.39,13.95,15.82,4.27,2.85,8.17,5.39,11.54,3.98,1.14-.48,3.05-1.75,4.93-8.52.66-2.37,6.06-21.71-1.59-26.03Z"/>
      <path class="cls-5" d="m488.64,109.37c-2.12-2.59-6.26-3.18-7.08-3.3-3.09-.44-5.5.34-7.02.82-14.77,4.67-16.6,3.24-18.11,5.82-3,5.12,2.72,13.26,7.3,19.79,2.95,4.2,5.67,7.97,9.32,7.88,1.24-.03,3.47-.53,7.68-6.17,1.46-1.96,13.47-18.04,7.91-24.84Z"/>
      <path class="cls-5" d="m498.57,158.81c-1.12-3.15-4.81-5.12-5.54-5.51-2.75-1.46-5.29-1.54-6.89-1.61-15.48-.62-16.72-2.58-19.01-.67-4.56,3.8-1.94,13.4.16,21.09,1.35,4.95,2.63,9.42,6.1,10.57,1.18.39,3.45.68,9.32-3.2,2.03-1.33,18.79-12.39,15.86-20.67Z"/>
      <path class="cls-5" d="m504.57,210.81c-1.12-3.15-4.81-5.12-5.54-5.51-2.75-1.46-5.29-1.54-6.89-1.61-15.48-.62-16.72-2.58-19.01-.67-4.56,3.8-1.94,13.4.16,21.09,1.35,4.95,2.63,9.42,6.1,10.57,1.18.39,3.45.68,9.32-3.2,2.03-1.33,18.79-12.39,15.86-20.67Z"/>
      <path class="cls-5" d="m499.56,253.25c-.68-3.27-4.07-5.72-4.75-6.2-2.53-1.82-5.03-2.24-6.61-2.52-15.25-2.7-16.22-4.81-18.75-3.23-5.03,3.15-3.73,13.01-2.69,20.92.67,5.09,1.34,9.69,4.62,11.3,1.11.55,3.32,1.14,9.66-1.91,2.21-1.06,20.3-9.76,18.52-18.36Z"/>
    </g>
    <g>
      <path class="cls-7" d="m548.01,380.63c-11.9,6.18-29.27,20.55-29,37,.12,7.4,3.72,10.08,8,21,6.82,17.42,6.33,32.77,6,43-1.34,41.5-30.71,61.4-22,74,2.78,4.02,7.18,4.05,30,5,56.93,2.38,72.41,3.99,75-3,1.79-4.83-4.78-7.81-8-19-4.74-16.49,3.22-31.92,7-40,7.33-15.64,34.09-72.77,19-101-12.62-23.61-57.17-31.97-86-17Z"/>
      <path class="cls-5" d="m559.01,519.63c-7.87-.51-14.33,10.23-16,13-1,1.67-10.19,17.33-3,26,5.69,6.86,17.81,4.73,22,4,4.65-.82,9.19-1.61,12-5,8.3-10-2.88-37.22-15-38Z"/>
      <path class="cls-5" d="m530.17,528.89c-5.16-1.94-11.9,4.12-17.64,9.29-4.13,3.71-13.43,12.07-11.14,17.64,1.59,3.89,8.11,4.66,15.79,5.57,7.45.88,11.58,1.37,14.86-.93,8.74-6.13,6.28-28.5-1.87-31.57Z"/>
      <path class="cls-5" d="m586.32,521c-5.41.9-8.27,10.62-8.94,15.54-.23,1.74-1.57,11.61,5.44,18.77,7.67,7.85,21.62,8.64,25.62,3.45,6.81-8.83-11.77-39.48-22.12-37.76Z"/>
    </g>
    <path class="cls-7" d="m772.01,122.63c-27.19,5.46-41.71,38.54-52,62-18.16,41.39-14.94,78.44-12,108,4.15,41.79,7.21,72.55,32,90,16.43,11.56,39.66,15.35,60,9,5.34-1.67,28.89-9.02,36-28,3.74-9.98.18-15.86,5-34,2.77-10.44,6.32-17.43,8-21,8.58-18.28,21.73-61.42,19-91-4.51-48.85-56.24-102.98-96-95Z"/>
    <g>
      <path class="cls-7" d="m793.01,339.63c-7.72,1.87-33.07,8.01-41,29-3.41,9.02-4.33,22.72,2,33,2,3.25,3.1,3.52,8,9,8.08,9.05,14.51,18.87,17,24,6.24,12.85,1.83,27.24-7,56-5.8,18.91-8.76,28.55-17,40-9.64,13.4-18.7,18.41-17,24,1.54,5.06,10.87,7.14,32,8,18.82.76,83.24,3.38,86-12,.68-3.8-3.01-5.3-7-12-7.56-12.71-6.72-28.25,2-60,12.4-45.17,18.97-43.92,21-66,1.31-14.26,3.65-39.73-13-58-22.66-24.87-61.89-15.99-66-15Z"/>
      <path class="cls-5" d="m797.01,519.63c-7.87-.51-14.33,10.23-16,13-1,1.67-10.19,17.33-3,26,5.69,6.86,17.81,4.73,22,4,4.65-.82,9.19-1.61,12-5,8.3-10-2.88-37.22-15-38Z"/>
      <path class="cls-5" d="m767.01,527.63c-5.56-2.09-12.82,4.44-19,10-4.45,4-14.46,13-12,19,1.72,4.19,8.74,5.02,17,6,8.02.95,12.47,1.48,16-1,9.42-6.61,6.77-30.7-2-34Z"/>
      <path class="cls-5" d="m816.01,517.63c-5.79,3.56-4.54,16.04-3,22,.54,2.11,3.62,14.05,15,19,12.46,5.42,28.83-.18,31-8,3.69-13.31-31.94-39.81-43-33Z"/>
    </g>
    <g>
      <circle class="cls-4" cx="264.8" cy="303.95" r="15.71"/>
      <circle class="cls-6" cx="264.8" cy="303.95" r="11.78"/>
      <circle cx="260.88" cy="303.95" r="7.85"/>
      <circle class="cls-1" cx="264.8" cy="303.95" r="3.93"/>
    </g>
  </g>
</svg>