<?xml version="1.0" encoding="UTF-8"?>
<svg id="Calque_2" data-name="Calque 2" xmlns="http://www.w3.org/2000/svg" viewBox="0 0 1153.02 641.62">
  <defs>
    <style>
      .cls-1 {
        fill: #fff;
      }

      .cls-2 {
        fill: #584cc6;
      }

      .cls-3 {
        fill: #f9d88a;
      }

      .cls-4 {
        fill: #3f70c6;
      }

      .cls-5 {
        fill: #d67725;
      }

      .cls-6 {
        fill: #66ac27;
      }

      .cls-7 {
        fill: #6affa4;
      }

      .cls-8 {
        fill: #eeb868;
      }

      .cls-9 {
        fill: #3fffc6;
      }

      .cls-10 {
        fill: #606060;
      }

      .cls-11 {
        fill: #c35367;
      }

      .cls-12 {
        fill: #f07167;
      }

      .cls-13 {
        fill: #00053f;
      }
    </style>
  </defs>
  <g id="Calque_1-2" data-name="Calque 1">
    <g id="queue">
      <path id="queue-2" data-name="queue" class="cls-8" d="m627.16,155.21c-10.62,13.33-11.48,27.84-11.74,33.75-.3,6.73-1.05,23.43,10.27,36.69,2.74,3.21,8.68,9.13,22.75,13.94,25.24,8.63,48.44,4.04,54.3,2.94,12.23-2.32,43.37-3.01,105.66-4.4,31.96-.71,70.49-1.57,115.93,8.81,39.18,8.95,66.69,22.41,92.45,35.22,91.31,45.4,123.56,90.1,133.55,82.18,12.73-10.09-20.04-98.21-90.99-149.69-39.86-28.92-84.26-40.83-107.13-46.96-24.21-6.49-48.43-9.22-96.86-14.68-61.49-6.93-92.23-10.39-111.53-5.87,0,0-28.86,6.75-30.82,1.47-.91-2.45,5.35-5.72,4.4-10.27-.91-4.36-7.77-6.66-11.74-7.34-1.9-.32-5.06-.61-17.61,2.94-10.21,2.88-11.28,3.96-16.14,4.4-7.19.66-9.51-1.28-14.68-1.47-15.01-.56-27.12,14.64-30.07,18.34Z"/>
      <path id="queue-3" data-name="queue" class="cls-11" d="m627.16,162.21c-10.62,13.33-11.48,27.84-11.74,33.75-.3,6.73-1.05,23.43,10.27,36.69,2.74,3.21,8.68,9.13,22.75,13.94,25.24,8.63,48.44,4.04,54.3,2.94,12.23-2.32,43.37-3.01,105.66-4.4,31.96-.71,70.49-1.57,115.93,8.81,39.18,8.95,66.69,22.41,92.45,35.22,91.31,45.4,123.56,90.1,133.55,82.18,12.73-10.09-20.04-98.21-90.99-149.69-39.86-28.92-84.26-40.83-107.13-46.96-24.21-6.49-48.43-9.22-96.86-14.68-61.49-6.93-92.23-10.39-111.53-5.87,0,0-28.86,6.75-30.82,1.47-.91-2.45,5.35-5.72,4.4-10.27-.91-4.36-7.77-6.66-11.74-7.34-1.9-.32-5.06-.61-17.61,2.94-10.21,2.88-11.28,3.96-16.14,4.4-7.19.66-9.51-1.28-14.68-1.47-15.01-.56-27.12,14.64-30.07,18.34Z"/>
    </g>
    <path id="mollet-d" class="cls-2" d="m557.15,444.35c8.85,5.29,39.02,23.34,43.71,41.07,4.1,11.8,15.19,19.63,27.18,19.41,13.32-.25,25.02-10.38,27.32-24.18-.95-4.73-4.52-9.39-10.91-18.29-10.84-15.1-16.34-14.45-29.1-30.48-7.75-9.73-9.38-14.57-19.4-24.94-6.23-6.45-9.43-9.7-13.86-11.08-16.41-5.15-33.51,12.56-36.03,15.24-4.44,4.75-8.82,9.43-8.31,15.24.71,8.15,10.51,12.7,19.4,18.01Z"/>
    <path id="mollet" class="cls-2" d="m431.05,455.44c6.31,4.2,12,9.25,18.01,13.86,17.81,13.65,28.26,21.66,31.87,28.02,4.85,12.12,17.14,19.67,30.09,18.51,13.09-1.17,23.92-10.97,26.4-23.93-1.32-6.23-6.67-12.64-16.31-23.99-15.59-18.36-32.36-32.51-33.26-33.26-11.87-9.94-17.75-12.98-22.17-22.17-1.17-2.44-1.93-4.67-4.16-5.54-5.19-2.04-10.76,6.24-26.33,19.4-12.71,10.74-18.64,13.36-18.01,18.01.5,3.61,4.43,4.8,13.87,11.09Z"/>
    <g id="main-droite">
      <path class="cls-7" d="m168.17,319.39c-1.38-1.21-5.42.92-7.92,2.97-3.49,2.86-4.93,6.36-5.94,8.91-1.05,2.65-4.57,11.53-.99,14.85,1.24,1.15,3.47,1.76,4.95.99,1.05-.55,1.48-1.68,1.98-2.97.76-1.98.39-2.72.99-4.95.44-1.63,1.39-4.05,1.98-3.96.69.1.18,3.54.99,7.92.34,1.85,1.15,5.99,3.96,9.9,2.82,3.92,6.2,5.59,10.89,7.92,3.86,1.91,6.77,3.31,8.91,1.98,1.27-.79,2.11-2.46,1.98-3.96-.09-1.03-.63-2-2.97-3.96-4.66-3.92-6.54-3.47-7.92-5.94-1-1.79-.99-3.79-.99-5.94,0-3.41.96-4.85,0-5.94-.96-1.08-2.34-.13-4.95-.99-.47-.15-3.65-1.25-4.95-3.96-.28-.59-.6-1.52,0-7.92.34-3.74.55-4.47,0-4.95Z"/>
      <path class="cls-5" d="m160.28,339.13l-5.06-6.57c-3.62-4.7-2.75-11.45,1.95-15.08l24.19-18.65c4.7-3.62,11.45-2.75,15.08,1.95l5.06,6.57c3.62,4.7,2.75,11.45-1.95,15.08l-24.19,18.65c-4.71,3.62-11.46,2.75-15.08-1.95Z"/>
    </g>
    <path id="bras-droite" class="cls-12" d="m297.03,205.86c-11.95-1.24-21.37,3.93-25.95,6.52-12.49,7.07-19.54,17.68-22.82,23.76-2.69,4.99-3.87,8.84-5.8,15.32-8.53,28.53-5.09,45.33-12.11,56.2-.51.79-3.23,4.89-4.73,10.83-.87,3.47-1.42,5.63-.67,7.64,1.51,4.08,7.22,4.65,17.14,5.51,9.4.81,14.1,1.21,18.2-.98,5.27-2.82,6.99-7.2,11.39-13.87,5.33-8.08,6.14-6.67,20.6-22.74,13.34-14.83,20.15-22.49,26.44-34.08,4.97-9.15,8.39-15.65,7.95-24.3-.62-12.19-8.46-19.64-10.23-21.33-7.47-7.12-16-8.13-19.41-8.48Z"/>
    <path id="avant-bras-gauche" class="cls-5" d="m165.42,388.21l-2.59-7.88c-1.85-5.64,1.22-11.72,6.86-13.57l66.85-21.96c5.64-1.85,11.72,1.22,13.57,6.86l2.59,7.88c1.85,5.64-1.22,11.72-6.86,13.57l-66.85,21.96c-5.65,1.85-11.72-1.22-13.57-6.86Z"/>
    <path id="cuisse-droite" class="cls-12" d="m568.23,218.5c-19.48,5.56-30.65,18.53-36.03,24.94-14.67,17.5-18.43,36.63-19.4,47.11-.8,8.62-.01,14.71,1.39,24.94,6.13,45.05,22.94,66.43,19.4,85.91-.26,1.41-1.71,8.81,0,18.01,1,5.38,1.62,8.72,4.16,11.08,5.13,4.78,14.43,2.09,30.48-2.77,15.21-4.61,22.82-6.91,27.71-12.47,6.3-7.15,5.99-14.33,8.31-26.33,2.82-14.54,5.03-13.07,16.63-44.34,10.71-28.87,16.1-43.71,18.01-63.74,1.51-15.81,2.42-26.98-4.16-38.8-9.27-16.64-26.57-22.28-30.48-23.56-16.48-5.35-30.47-1.57-36.02.02Z"/>
    <g>
      <path class="cls-2" d="m481.03,487.83c-3.99,19.37-11.16,32.71-16.72,41.05-3.21,4.82-11.37,14.37-28.59,32.61-5.11,5.42-10.69,11.06-17.14,17.28-12.12,11.67-19.81,18.11-27.71,16.63-3.1-.58-8.97-2.9-13.86,0-2.13,1.26-3.45,3.14-4.16,4.16-1.5,2.13-4.5,7.44-2.77,9.7,2.34,3.05,12.11-1.05,12.47,0,.25.73-4.72,1.79-6.93,5.54-2.5,4.26-1.06,11.34,2.77,15.24,6.44,6.57,19.77,4.27,27.71,0,6.1-3.27,6.29-6.24,11.09-6.93,7.15-1.03,9.26,5.19,18.01,5.54,5.58.22,12.63-1.98,16.63-6.93,3.66-4.53,3.11-9.32,5.54-9.7,3.49-.54,6.57,8.98,9.7,8.31,1.81-.38,2.52-3.95,2.77-5.54,1.72-10.99-4.25-18.64-5.54-24.94-3.45-16.81,25.62-29.06,51.27-62.35,8.8-11.43,14.42-21.67,17.46-27.67-.72-1.48-8.13-16.1-25-19-14.6-2.51-25.31,5.66-27,7Z"/>
      <path class="cls-6" d="m388.1,613.4h0c-3.2-.22-8.14-.2-13.86,1.39-7.75,2.14-12.65,5.96-13.86,6.93-1.93,1.56-9.61,8.06-9.7,15.24-.01.93-.04,3.15,1.39,4.16,1.43,1.01,3.53.23,4.16,0,3.16-1.17,3.24-3.46,6.93-6.93,2.22-2.09,4.13-3.88,6.93-4.16,2.1-.21,4.19.48,6.93,1.39,3.23,1.06,3.29,1.6,4.16,1.39,2.52-.62,2.49-5.27,5.54-12.47,1.04-2.46,2.09-4.37,2.77-5.54"/>
      <path class="cls-6" d="m382.56,592.62h0c-3.2-.22-8.14-.2-13.86,1.39-7.75,2.14-12.65,5.96-13.86,6.93-1.93,1.56-9.61,8.06-9.7,15.24-.01.93-.04,3.15,1.39,4.16,1.43,1.01,3.53.23,4.16,0,3.16-1.17,3.24-3.46,6.93-6.93,2.22-2.09,4.13-3.88,6.93-4.16,2.1-.21,4.19.48,6.93,1.39,3.23,1.06,3.29,1.6,4.16,1.39,2.52-.62,2.49-5.27,5.54-12.47,1.04-2.46,2.09-4.37,2.77-5.54"/>
    </g>
    <g>
      <path class="cls-2" d="m602.03,486.83c-5.75,10.05-11.27,17.54-15.22,22.49-7.52,9.44-7.79,8.73-15.81,18.17-13,15.32-12.9,16.01-18.01,20.78-9.4,8.78-14.95,11.29-20.78,20.78-1.21,1.97-3.99,6.77-6.93,12.47-5.08,9.84-5.29,12-8.31,13.86-5.72,3.52-10.25-.92-15.24,2.77-3.82,2.82-5.75,8.79-4.16,13.86,1.75,5.57,7.05,7.83,8.31,8.31,7.41,2.86,15.32-1.34,18.01-2.77,5.4-2.87,5.91-5.27,9.7-5.54,4.25-.31,4.95,2.61,11.09,4.16,1.51.38,9.19,2.31,15.24-1.39,4.01-2.45,4.3-5.53,6.93-5.54,3.41-.01,3.6,5.17,8.31,6.93,3.26,1.22,7.25-.57,15.24-4.16,3.86-1.73,5.11-2.71,5.54-4.16.26-.88.34-2.35-2.77-6.93-5.25-7.72-11.08-12.47-11.09-12.47-2.75-2.24-3.77-2.64-4.16-4.16-.9-3.51,3.1-7.25,5.54-9.7,5.01-5.02-31.32,30.28,15.24-19.4,16.7-17.82,18.37-18.83,24.94-26.33,7.02-8.01,16.54-19.91,26.37-36.05-5.66-10.1-16.07-16.31-27-16-11.97.36-19.53,8.41-20.98,10.02Z"/>
      <path class="cls-6" d="m511.42,595.39h0c-3.2-.22-8.14-.2-13.86,1.39-7.75,2.14-12.65,5.96-13.86,6.93-1.93,1.56-9.61,8.06-9.7,15.24-.01.93-.04,3.15,1.39,4.16,1.43,1.01,3.53.23,4.16,0,3.16-1.17,3.24-3.46,6.93-6.93,2.22-2.09,4.13-3.88,6.93-4.16,2.1-.21,4.19.48,6.93,1.39,3.23,1.06,3.29,1.6,4.16,1.39,2.52-.62,2.49-5.27,5.54-12.47,1.04-2.46,2.09-4.37,2.77-5.54"/>
    </g>
    <g id="corps">
      <path id="corps-2" data-name="corps" class="cls-8" d="m358.46,111.45c-11.28,4.19-32.04,12.77-40.2,16.14-10.53,4.35-15.82,6.49-17.42,7.34-7.22,3.83-30.73,16.27-41.54,45.49,0,0-11.99,32.41,2.68,67.51,1.46,3.5,6.34,15.18,16.08,24.95,4.78,4.8,7.17,7.2,10.72,8.81,4.83,2.19,9.83,2.51,10.72,5.87.31,1.19-.22,1.5,0,4.4.11,1.43.29,3.74,1.34,5.87,1.08,2.18,2.19,2.38,4.02,4.4,1.59,1.77,2.4,3.62,4.02,7.34,2.22,5.1,3.49,9.71,4.02,11.74.91,3.52,1.19,5.55,2.68,8.81.9,1.97,1.47,3.19,2.68,4.4,2.95,2.96,6.81,2.94,8.04,2.94,1.31-.01,4.84-.24,8.04-2.94,3.21-2.71,4.25-6.35,5.36-10.27,1.01-3.57,1.22-6.73,1.34-8.81.2-3.31-.88-4.97,0-5.87,1.11-1.14,3.66.14,6.7,1.47,3.94,1.72,8.15,2.6,12.06,4.4,8.98,4.14,29.6,7.43,44.22,8.81,14.79,1.39,28.26,2.66,45.56,0,21.33-3.27,36.63-10.69,53.6-19.08,19.61-9.7,23.97-14.59,46.9-27.88,10.81-6.26,28.42-15.67,52.26-26.42,20.51-9.24,20.65-8,25.46-11.74,14.45-11.23,33.15-37.94,25.46-68.97-6.98-28.16-35.95-39.13-52.26-45.49-6.18-2.41-6.91-2-36.18-8.81-30.92-7.19-35.98-9.02-48.24-11.74-25.46-5.66-60.15-13.37-101.83-7.34-26.05,3.76-49.37,12.1-56.29,14.67Z"/>
      <path class="cls-8" d="m410.7,107.38c.03-4.14,13.04-2.23,23.48-14.68,6.28-7.49,6.3-13.82,14.68-19.08,1.88-1.18,8.68-5.45,13.21-2.94,4.59,2.55,2.83,9.86,7.34,11.74,2.88,1.2,6.26-.69,10.27-2.94,7.25-4.06,6.94-7.21,11.74-8.81,5.04-1.68,12.16-.45,16.14,4.4,3.55,4.32,3.02,9.57,2.94,10.27-.5,4.27-2.94,6.91-7.34,11.74-12.6,13.85-11.96,13.59-13.21,14.68-18.64,16.31-79.31,4.56-79.25-4.38Z"/>
      <path id="corps-3" data-name="corps" class="cls-11" d="m370.35,128.45c-12.36,4.19-35.1,12.77-44.03,16.14-11.54,4.35-17.33,6.49-19.08,7.34-7.91,3.83-33.65,16.27-45.49,45.49,0,0-13.13,32.41,2.94,67.51,1.6,3.5,6.95,15.18,17.61,24.95,5.24,4.8,7.86,7.2,11.74,8.81,5.29,2.19,10.77,2.51,11.74,5.87.34,1.19-.24,1.5,0,4.4.12,1.43.32,3.74,1.47,5.87,1.18,2.18,2.4,2.38,4.4,4.4,1.75,1.77,2.63,3.62,4.4,7.34,2.43,5.1,3.83,9.71,4.4,11.74,1,3.52,1.31,5.55,2.94,8.81.98,1.97,1.61,3.19,2.94,4.4,3.24,2.96,7.46,2.94,8.81,2.94,1.44-.01,5.3-.24,8.81-2.94,3.52-2.71,4.65-6.35,5.87-10.27,1.11-3.57,1.33-6.73,1.47-8.81.21-3.31-.96-4.97,0-5.87,1.22-1.14,4.01.14,7.34,1.47,4.31,1.72,8.93,2.6,13.21,4.4,9.83,4.14,32.42,7.43,48.43,8.81,16.2,1.39,30.95,2.66,49.9,0,23.37-3.27,40.12-10.69,58.7-19.08,21.48-9.7,26.25-14.59,51.36-27.88,11.84-6.26,31.13-15.67,57.23-26.42,22.46-9.24,22.61-8,27.88-11.74,15.83-11.23,36.31-37.94,27.88-68.97-7.64-28.16-39.38-39.13-57.23-45.49-6.76-2.41-7.57-2-39.62-8.81-33.87-7.19-39.4-9.02-52.83-11.74-27.88-5.66-65.88-13.37-111.53-7.34-28.54,3.76-54.09,12.1-61.66,14.67Z"/>
    </g>
    <g id="main-gauche">
      <path class="cls-7" d="m157.08,387.28c-1.38-1.21-5.42.92-7.92,2.97-3.49,2.86-4.93,6.36-5.94,8.91-1.05,2.65-4.57,11.53-.99,14.85,1.24,1.15,3.47,1.76,4.95.99,1.05-.55,1.48-1.68,1.98-2.97.76-1.98.39-2.72.99-4.95.44-1.63,1.39-4.05,1.98-3.96.69.1.18,3.54.99,7.92.34,1.85,1.15,5.99,3.96,9.9,2.82,3.92,6.2,5.59,10.89,7.92,3.86,1.91,6.77,3.31,8.91,1.98,1.27-.79,2.11-2.46,1.98-3.96-.09-1.03-.63-2-2.97-3.96-4.66-3.92-6.54-3.47-7.92-5.94-1-1.79-.99-3.79-.99-5.94,0-3.41.96-4.85,0-5.94-.96-1.08-2.34-.13-4.95-.99-.47-.15-3.65-1.25-4.95-3.96-.28-.59-.6-1.52,0-7.92.35-3.73.55-4.47,0-4.95Z"/>
      <path class="cls-5" d="m149.19,407.02l-5.06-6.57c-3.62-4.7-2.75-11.45,1.95-15.08l24.19-18.65c4.7-3.62,11.45-2.75,15.08,1.95l5.06,6.57c3.62,4.7,2.75,11.45-1.95,15.08l-24.19,18.65c-4.7,3.63-11.46,2.75-15.08-1.95Z"/>
    </g>
    <path id="avant-bras-droite" class="cls-5" d="m174.12,313.89l.61-8.27c.44-5.92,5.59-10.37,11.51-9.93l70.17,5.17c5.92.44,10.37,5.59,9.93,11.51l-.61,8.27c-.44,5.92-5.59,10.37-11.51,9.93l-70.17-5.17c-5.92-.44-10.37-5.59-9.93-11.51Z"/>
    <path id="bras-gauche" class="cls-12" d="m280.4,254.35c-11.95-1.24-21.37,3.93-25.95,6.52-12.49,7.07-19.54,17.68-22.82,23.76-2.69,4.99-3.87,8.84-5.8,15.32-8.53,28.53-5.09,45.33-12.11,56.2-.51.79-3.23,4.89-4.73,10.83-.87,3.47-1.42,5.63-.67,7.64,1.51,4.08,7.22,4.65,17.14,5.51,9.4.81,14.1,1.21,18.2-.98,5.27-2.82,6.99-7.2,11.39-13.87,5.33-8.08,6.14-6.67,20.6-22.74,13.34-14.83,20.15-22.49,26.44-34.08,4.97-9.15,8.39-15.65,7.95-24.3-.62-12.19-8.46-19.64-10.23-21.33-7.47-7.11-16-8.12-19.41-8.48Z"/>
    <path id="cuisse-gauche" class="cls-12" d="m446.3,237.9c-19.48,5.56-30.65,18.53-36.03,24.94-14.67,17.5-18.43,36.63-19.4,47.11-.8,8.62-.01,14.71,1.39,24.94,6.13,45.05,22.94,66.43,19.4,85.91-.26,1.41-1.71,8.81,0,18.01,1,5.38,1.62,8.72,4.16,11.09,5.13,4.78,14.43,2.09,30.48-2.77,15.21-4.61,22.82-6.91,27.71-12.47,6.3-7.15,5.99-14.33,8.31-26.33,2.82-14.54,5.03-13.07,16.63-44.34,10.71-28.87,16.1-43.71,18.01-63.74,1.51-15.81,2.42-26.98-4.16-38.8-9.27-16.64-26.57-22.28-30.48-23.56-16.48-5.36-30.47-1.58-36.02,0Z"/>
    <path id="cou" class="cls-11" d="m176.63,41.87c12.2,3.63,22.03,6.56,33.75,13.21,12.46,7.07,22.98,17.92,44.03,39.62,11.23,11.58,20.86,22.31,29.35,32.29,9.52,11.18,14.28,16.78,19.08,23.48,6.42,8.97,22.9,32.48,29.35,66.04,4.29,22.3,7.67,39.89-2.94,52.83-13.23,16.14-38.93,13.69-44.03,13.21-30.2-2.88-50.32-26.39-61.64-39.62-3.04-3.55-10.34-14.6-24.95-36.69-6.14-9.29-14.95-22.8-27.88-39.62-9.01-11.72-14.63-18.04-23.48-23.48-9.23-5.68-11.65-4.06-20.55-8.81-4.62-2.46-25.89-13.8-30.82-36.69-4.32-20.07,6.63-36.38,8.81-39.62,2.4-3.58,11.94-17.35,29.35-22.01,12.03-3.23,22.21-.2,42.57,5.86Z"/>
    <g id="tete">
      <path class="cls-10" d="m105.46,39.67c17.29-5.56,26.59-3.18,32.29,0,9.01,5.03,12.88,14.25,16.14,22.01,7.14,16.99,4.92,32.04,4.4,35.22-1.2,7.34-3.52,21.49-14.68,30.82-4.35,3.64-11.21,6.34-24.95,11.74-7.96,3.13-8.54,2.95-16.14,5.87-10.78,4.14-13.58,6.03-29.35,13.21-14.71,6.69-22.21,10.07-29.35,11.74-10.34,2.42-18.97,4.32-26.42,0-8.59-4.99-10.96-15.57-11.74-19.08C-3.1,111.96,59.81,54.34,105.46,39.67Z"/>
      <path class="cls-3" d="m71.7,32.33c-3.77,8.52-8.47,14.52-14.68,22.01-14.42,17.41-20.03,22.46-30.82,35.22-12.62,14.93-18.94,22.4-22.01,30.82-5.87,16.07-6.16,37.84,2.94,42.56,1.33.69,3.81,1.51,16.14-2.94,13.23-4.77,24.58-8.86,36.69-19.08,13.77-11.63,8.68-14.44,22.01-24.95,9.98-7.86,14.95-7.96,29.35-19.08,7.56-5.83,11.33-8.75,14.68-13.21,9.26-12.35,12.05-28.23,10.27-35.22-.15-.6-1.09-4.08-1.47-8.81-.22-2.75-.33-4.12,0-5.87.8-4.21,2.95-4.75,4.4-8.81.47-1.31,2.17-6.04,0-10.27-2.48-4.84-8.38-5.81-8.81-5.87-5.81-.86-13.33,2.55-16.14,7.34-.49.83-1.29,2.48-2.94,2.94-1.52.42-3.33-.32-4.4-1.47-1.38-1.48-.92-2.96-1.47-5.87-.26-1.4-1.11-5.85-4.4-8.81C98.22.43,94.81.09,93.7.02c-4.55-.26-7.73,2.13-8.81,2.94-.69.52-1.76,1.42-2.94,2.94-3.28,4.25-3.83,8.83-4.4,11.74-.46,2.51-2.26,6.57-5.85,14.69Z"/>
      <path class="cls-13" d="m20.34,130.65c-2.4.32-3.53,4.27-4.4,7.34-.26.9-2.16,7.58,0,8.81,1.11.63,2.8-.45,4.4-1.47,2.32-1.48,5.76-3.67,5.87-7.34.11-3.74-3.29-7.68-5.87-7.34Z"/>
    </g>
    <g>
      <circle class="cls-4" cx="87.03" cy="69.83" r="8"/>
      <circle class="cls-9" cx="87.03" cy="69.83" r="6"/>
      <circle cx="85.03" cy="69.83" r="4"/>
      <circle class="cls-1" cx="87.03" cy="69.83" r="2"/>
    </g>
  </g>
</svg>